<svg width="605" height="367" xmlns="http://www.w3.org/2000/svg" xmlns:xlink="http://www.w3.org/1999/xlink" xml:space="preserve" overflow="hidden"><defs><clipPath id="clip0"><rect x="94" y="94" width="605" height="367"/></clipPath></defs><g clip-path="url(#clip0)" transform="translate(-94 -94)"><path d="M133.072 756.087 133.091 758.487" fill="#FF00FF" transform="matrix(1 0 0 1.0018 94.2694 94)"/><text fill="#003366" font-family="Arial,Arial_MSFontService,sans-serif" font-weight="400" font-size="14.1111" transform="matrix(2.03522 0 0 2.03889 439.915 209)">Utrzymuj i rozwijaj</text><text font-family="Arial,Arial_MSFontService,sans-serif" font-weight="400" font-size="6.35" transform="matrix(2.03522 0 0 2.03889 441.321 242)">Konsekwentnie weryfikuj i raportuj treści</text><text font-family="Arial,Arial_MSFontService,sans-serif" font-weight="400" font-size="6.35" transform="matrix(2.03522 0 0 2.03889 671.17 242)">, </text><text font-family="Arial,Arial_MSFontService,sans-serif" font-weight="400" font-size="6.35" transform="matrix(2.03522 0 0 2.03889 441.321 261)">procesy i zasoby</text><text font-family="Arial,Arial_MSFontService,sans-serif" font-weight="400" font-size="6.35" transform="matrix(2.03522 0 0 2.03889 537.573 261)">.</text><text fill="#003366" font-family="Arial,Arial_MSFontService,sans-serif" font-weight="400" font-size="5.64444" transform="matrix(2.03522 0 0 2.03889 461.795 309)">Monitoruj strony internetowe</text><text fill="#003366" font-family="Arial,Arial_MSFontService,sans-serif" font-weight="400" font-size="5.64444" transform="matrix(2.03522 0 0 2.03889 606.098 309)">.</text><text fill="#003366" font-family="Arial,Arial_MSFontService,sans-serif" font-weight="400" font-size="5.64444" transform="matrix(2.03522 0 0 2.03889 461.795 333)">Współpracuj z interesariuszami</text><text fill="#003366" font-family="Arial,Arial_MSFontService,sans-serif" font-weight="400" font-size="5.64444" transform="matrix(2.03522 0 0 2.03889 620.761 333)">.</text><text fill="#003366" font-family="Arial,Arial_MSFontService,sans-serif" font-weight="400" font-size="5.64444" transform="matrix(2.03522 0 0 2.03889 461.795 357)">Śledź standardy i przepisy prawne</text><text fill="#003366" font-family="Arial,Arial_MSFontService,sans-serif" font-weight="400" font-size="5.64444" transform="matrix(2.03522 0 0 2.03889 636.753 357)">.</text><text fill="#003366" font-family="Arial,Arial_MSFontService,sans-serif" font-weight="400" font-size="5.64444" transform="matrix(2.03522 0 0 2.03889 461.795 381)">Dostosowuj się do nowych technologii</text><text fill="#003366" font-family="Arial,Arial_MSFontService,sans-serif" font-weight="400" font-size="5.64444" transform="matrix(2.03522 0 0 2.03889 655.28 381)">.</text><text fill="#003366" font-family="Arial,Arial_MSFontService,sans-serif" font-weight="400" font-size="5.64444" transform="matrix(2.03522 0 0 2.03889 461.795 405)">Wykorzystuj opinie użytkowników</text><text fill="#003366" font-family="Arial,Arial_MSFontService,sans-serif" font-weight="400" font-size="5.64444" transform="matrix(2.03522 0 0 2.03889 631.514 405)">.</text><path d="M104.695 514.525 111.594 514.525 111.594 521.423 104.695 521.423Z" fill="#003366" transform="matrix(1 0 0 1.0018 344.491 -214.663)"/><path d="M104.695 538.671 111.594 538.671 111.594 545.569 104.695 545.569Z" fill="#003366" transform="matrix(1 0 0 1.0018 344.491 -214.663)"/><path d="M104.695 562.814 111.594 562.814 111.594 569.713 104.695 569.713Z" fill="#003366" transform="matrix(1 0 0 1.0018 344.491 -214.663)"/><path d="M104.695 586.958 111.594 586.958 111.594 593.857 104.695 593.857Z" fill="#003366" transform="matrix(1 0 0 1.0018 344.491 -214.663)"/><path d="M104.695 611.102 111.594 611.102 111.594 618.001 104.695 618.001Z" fill="#003366" transform="matrix(1 0 0 1.0018 344.491 -214.663)"/><path d="M153.083 361.726C149.432 365.518 149.862 371.613 155.464 377.686L156.722 378.262C156.722 378.672 156.721 379.186 156.712 379.773 152.965 375.6 147.616 374.092 140.717 376.494 142.283 385.654 148.631 387.59 156.221 386.401 155.869 388.931 155.265 391.742 154.234 394.532 149.98 388.687 143.728 386.495 135.751 390.079 138.149 399.217 144.818 400.485 152.43 398.503 149.379 404.045 144.159 408.862 135.218 410.287L135.218 412.692C146.438 411.618 152.188 406.125 155.293 399.47 163.19 403.273 172.132 401.71 174.381 392.776 169.924 388.359 162.441 389.065 157.09 394.587 157.811 392.069 158.278 389.503 158.621 387.034 167.739 388.341 172.629 385.642 173.512 376.315 169.037 373.883 163.498 375.708 159.187 382.184 159.312 380.971 159.43 379.797 159.555 378.724 163.124 370.396 161.77 365.027 153.083 361.726Z" fill="#003366" transform="matrix(1 0 0 1.0018 306.954 -239.478)"/><text fill="#003366" font-family="Arial,Arial_MSFontService,sans-serif" font-weight="400" font-size="14.1111" transform="matrix(2.03522 0 0 2.03889 117.663 203)">Implementuj</text><text font-family="Arial,Arial_MSFontService,sans-serif" font-weight="400" font-size="6.35" transform="matrix(2.03522 0 0 2.03889 118.831 235)">Upewnij się</text><text font-family="Arial,Arial_MSFontService,sans-serif" font-weight="400" font-size="6.35" transform="matrix(2.03522 0 0 2.03889 184.914 235)">, </text><text font-family="Arial,Arial_MSFontService,sans-serif" font-weight="400" font-size="6.35" transform="matrix(2.03522 0 0 2.03889 192.095 235)">że personel jest przeszkolony</text><text font-family="Arial,Arial_MSFontService,sans-serif" font-weight="400" font-size="6.35" transform="matrix(2.03522 0 0 2.03889 361.624 235)">, </text><text font-family="Arial,Arial_MSFontService,sans-serif" font-weight="400" font-size="6.35" transform="matrix(2.03522 0 0 2.03889 118.831 254)">narzędzia są dostępne</text><text font-family="Arial,Arial_MSFontService,sans-serif" font-weight="400" font-size="6.35" transform="matrix(2.03522 0 0 2.03889 248.876 254)">, </text><text font-family="Arial,Arial_MSFontService,sans-serif" font-weight="400" font-size="6.35" transform="matrix(2.03522 0 0 2.03889 256.057 254)">a dostępność </text><text font-family="Arial,Arial_MSFontService,sans-serif" font-weight="400" font-size="6.35" transform="matrix(2.03522 0 0 2.03889 118.831 273)">jest zapewniona na każdym etapie</text><text font-family="Arial,Arial_MSFontService,sans-serif" font-weight="400" font-size="6.35" transform="matrix(2.03522 0 0 2.03889 316.397 273)">.</text><text fill="#003366" font-family="Arial,Arial_MSFontService,sans-serif" font-weight="400" font-size="5.64444" transform="matrix(2.03522 0 0 2.03889 138.276 309)">Rozwijaj umiejętności i wiedzę specjalistyczną</text><text fill="#003366" font-family="Arial,Arial_MSFontService,sans-serif" font-weight="400" font-size="5.64444" transform="matrix(2.03522 0 0 2.03889 138.276 333)">Włącz cele do polityki</text><text fill="#003366" font-family="Arial,Arial_MSFontService,sans-serif" font-weight="400" font-size="5.64444" transform="matrix(2.03522 0 0 2.03889 138.276 357)">Przydziel zadania i wspieraj realizację</text><text fill="#003366" font-family="Arial,Arial_MSFontService,sans-serif" font-weight="400" font-size="5.64444" transform="matrix(2.03522 0 0 2.03889 138.276 381)">Oceniaj wcześnie i regularnie</text><text fill="#003366" font-family="Arial,Arial_MSFontService,sans-serif" font-weight="400" font-size="5.64444" transform="matrix(2.03522 0 0 2.03889 138.276 406)">Ustal priorytety</text><text fill="#003366" font-family="Arial,Arial_MSFontService,sans-serif" font-weight="400" font-size="5.64444" transform="matrix(2.03522 0 0 2.03889 138.276 430)">Śledź i komunikuj postępy</text><path d="M-219.238 529.402-212.34 529.402-212.34 536.301-219.238 536.301Z" fill="#003366" transform="matrix(1 0 0 1.0018 344.491 -229.522)"/><path d="M-219.238 553.548-212.34 553.548-212.34 560.446-219.238 560.446Z" fill="#003366" transform="matrix(1 0 0 1.0018 344.491 -229.522)"/><path d="M-219.238 577.692-212.34 577.692-212.34 584.59-219.238 584.59Z" fill="#003366" transform="matrix(1 0 0 1.0018 344.491 -229.522)"/><path d="M-219.238 601.836-212.34 601.836-212.34 608.734-219.238 608.734Z" fill="#003366" transform="matrix(1 0 0 1.0018 344.491 -229.522)"/><path d="M-219.238 625.98-212.34 625.98-212.34 632.878-219.238 632.878Z" fill="#003366" transform="matrix(1 0 0 1.0018 344.491 -229.522)"/><path d="M-219.238 650.126-212.34 650.126-212.34 657.024-219.238 657.024Z" fill="#003366" transform="matrix(1 0 0 1.0018 344.491 -229.522)"/><path d="M-144.744 361.726-146.685 365.147C-147.095 365.068-147.512 365.027-147.93 365.027-148.37 365.029-148.809 365.074-149.24 365.162L-151.215 361.759-154.977 363.943-153 367.348C-153.569 368.001-154.006 368.758-154.288 369.578L-158.221 369.582-158.219 373.934-154.285 373.93C-153.996 374.766-153.544 375.537-152.955 376.199L-154.9 379.626-151.116 381.771-149.176 378.352C-148.765 378.431-148.348 378.47-147.93 378.472-147.491 378.47-147.053 378.425-146.622 378.338L-144.646 381.741-140.884 379.557-142.861 376.152C-142.292 375.499-141.854 374.74-141.573 373.921L-137.639 373.917-137.641 369.566-141.576 369.57C-141.865 368.734-142.317 367.962-142.905 367.299L-140.96 363.873ZM-147.93 368.149C-145.941 368.149-144.329 369.761-144.329 371.75-144.329 373.738-145.941 375.35-147.93 375.35-149.919 375.35-151.531 373.738-151.531 371.75-151.531 369.761-149.919 368.149-147.93 368.149ZM-168.637 368.42-175.029 368.447-175.5 373.339C-176.238 373.575-176.952 373.879-177.633 374.247L-181.45 371.094-185.994 375.59-182.809 379.561C-183.145 380.233-183.42 380.931-183.63 381.651L-188.708 382.156-188.716 388.548-183.487 389.1C-183.255 389.786-182.964 390.449-182.617 391.084L-185.906 395.161-181.357 399.651-177.194 396.233C-176.662 396.496-176.111 396.72-175.546 396.903L-175.03 402.26-168.638 402.286-168.054 396.915C-167.443 396.72-166.848 396.476-166.274 396.189L-162.08 399.567-157.572 395.035-160.902 390.985C-160.566 390.36-160.284 389.704-160.061 389.031L-154.85 388.449-154.896 382.058-159.955 381.584C-160.174 380.851-160.459 380.139-160.809 379.457L-157.662 375.456-162.247 371.001-166.034 374.19C-166.697 373.84-167.39 373.551-168.104 373.327ZM-171.782 378.195C-167.954 378.193-164.85 381.297-164.849 385.125-164.849 385.127-164.849 385.127-164.849 385.127-164.85 388.956-167.953 392.059-171.782 392.059-171.782 392.059-171.782 392.059-171.782 392.059-175.611 392.059-178.714 388.956-178.714 385.127-178.715 381.299-175.611 378.195-171.783 378.195-171.783 378.195-171.783 378.195-171.782 378.195ZM-145.24 388.858-147.18 392.277C-147.591 392.2-148.008 392.159-148.426 392.157-148.865 392.159-149.304 392.204-149.735 392.291L-151.71 388.888-155.472 391.072-153.495 394.479C-154.064 395.132-154.502 395.89-154.783 396.71L-158.717 396.714-158.715 401.063-154.78 401.059C-154.491 401.895-154.039 402.669-153.451 403.33L-155.395 406.756-151.611 408.903-149.671 405.484C-149.26 405.561-148.844 405.602-148.426 405.602-147.986 405.6-147.548 405.555-147.117 405.467L-145.141 408.872-141.379 406.686-143.356 403.284C-142.787 402.628-142.349 401.871-142.068 401.051L-138.134 401.047-138.136 396.698-142.071 396.702C-142.36 395.863-142.812 395.092-143.4 394.43L-141.456 391.003ZM-148.426 395.279C-146.437 395.279-144.825 396.891-144.824 398.879-144.825 400.87-146.437 402.482-148.426 402.482-150.414 402.482-152.026 400.87-152.027 398.879-152.026 396.891-150.414 395.279-148.426 395.279Z" fill="#003366" transform="matrix(1 0 0 1.0018 306.954 -239.478)"/></g></svg>