<svg width="605" height="366" xmlns="http://www.w3.org/2000/svg" xmlns:xlink="http://www.w3.org/1999/xlink" xml:space="preserve" overflow="hidden"><g><path d="M-227.493 2.82796 376.407 2.82796 376.407 368.828-227.493 368.828Z" fill="#FFFFFF" transform="matrix(1.00093 0 0 1 227.974 -2.82796)"/><path d="M-145.467 20.3236C-156.363 20.4222-163.54 26.5358-170.275 34.99L-181.498 35.6037-188.541 47.4352-186.193 50.0651-177.499 47.4572-169.648 55.5029-172.295 63.4937-169.572 66.1228-157.457 59.2676-157.228 48.6192C-150.386 42.3269-141.624 35.0955-142.615 20.4307-143.593 20.3504-144.544 20.3152-145.467 20.3236ZM-151.263 26.586C-149.905 26.5862-148.805 27.6869-148.804 29.0447-148.805 30.4026-149.905 31.5034-151.263 31.5037-152.621 31.5041-153.723 30.4034-153.723 29.0454-153.723 29.0451-153.723 29.0449-153.723 29.0447-153.723 27.6867-152.622 26.5858-151.264 26.586-151.264 26.586-151.263 26.586-151.263 26.586Z" fill="#003366" transform="matrix(1.00093 0 0 1 227.974 -3.00604)"/><text fill="#003366" font-family="Arial,Arial_MSFontService,sans-serif" font-weight="400" font-size="14.1111" transform="matrix(2.03522 0 0 2.03333 37.0005 97)">Rozpocznij</text><text font-family="Arial,Arial_MSFontService,sans-serif" font-weight="400" font-size="6.35" transform="matrix(2.03522 0 0 2.03333 38.9995 129)">Zrozum</text><text font-family="Arial,Arial_MSFontService,sans-serif" font-weight="400" font-size="6.35" transform="matrix(2.03522 0 0 2.03333 82.7998 129)">, </text><text font-family="Arial,Arial_MSFontService,sans-serif" font-weight="400" font-size="6.35" transform="matrix(2.03522 0 0 2.03333 89.9811 129)">czym jest dostępność </text><text font-family="Arial,Arial_MSFontService,sans-serif" font-weight="400" font-size="6.35" transform="matrix(2.03522 0 0 2.03333 38.9995 148)">i wzbudź entuzjazm w organizacji</text><text font-family="Arial,Arial_MSFontService,sans-serif" font-weight="400" font-size="6.35" transform="matrix(2.03522 0 0 2.03333 230.065 148)">.</text><text fill="#003366" font-family="Arial,Arial_MSFontService,sans-serif" font-weight="400" font-size="5.64444" transform="matrix(2.03522 0 0 2.03333 59.2967 180)">Poznaj podstawy</text><text fill="#003366" font-family="Arial,Arial_MSFontService,sans-serif" font-weight="400" font-size="5.64444" transform="matrix(2.03522 0 0 2.03333 59.2967 204)">Zbadaj obecne środowisko</text><text fill="#003366" font-family="Arial,Arial_MSFontService,sans-serif" font-weight="400" font-size="5.64444" transform="matrix(2.03522 0 0 2.03333 59.2967 228)">Wyznacz cele</text><text fill="#003366" font-family="Arial,Arial_MSFontService,sans-serif" font-weight="400" font-size="5.64444" transform="matrix(2.03522 0 0 2.03333 59.2967 252)">Opracuj uzasadnienie biznesowe</text><text fill="#003366" font-family="Arial,Arial_MSFontService,sans-serif" font-weight="400" font-size="5.64444" transform="matrix(2.03522 0 0 2.03333 59.2967 276)">Podnieś świadomość</text><text fill="#003366" font-family="Arial,Arial_MSFontService,sans-serif" font-weight="400" font-size="5.64444" transform="matrix(2.03522 0 0 2.03333 59.2967 300)">Zdobądź wsparcie</text><path d="M-226.953 166.254-220.061 166.254-220.061 173.146-226.953 173.146Z" fill="#003366" transform="matrix(1.00093 0 0 1 273.435 5.60173)"/><path d="M-226.953 190.376-220.061 190.376-220.061 197.267-226.953 197.267Z" fill="#003366" transform="matrix(1.00093 0 0 1 273.435 5.60173)"/><path d="M-226.953 214.498-220.061 214.498-220.061 221.39-226.953 221.39Z" fill="#003366" transform="matrix(1.00093 0 0 1 273.435 5.60173)"/><path d="M-226.953 238.62-220.061 238.62-220.061 245.512-226.953 245.512Z" fill="#003366" transform="matrix(1.00093 0 0 1 273.435 5.60173)"/><path d="M-226.953 262.741-220.061 262.741-220.061 269.633-226.953 269.633Z" fill="#003366" transform="matrix(1.00093 0 0 1 273.435 5.60173)"/><path d="M-226.953 286.863-220.061 286.863-220.061 293.755-226.953 293.755Z" fill="#003366" transform="matrix(1.00093 0 0 1 273.435 5.60173)"/><path d="M150.063 20.3224 135.211 27.9844 135.093 71.0087 150.416 62.8758ZM152.597 20.3224 152.715 63.3465 167.568 71.0087 167.921 28.4563ZM185.072 20.3224 170.22 27.9844 170.102 71.0087 185.425 62.8758Z" fill="#003366" transform="matrix(1.00093 0 0 1 227.974 -3.00604)"/><text fill="#003366" font-family="Arial,Arial_MSFontService,sans-serif" font-weight="400" font-size="14.1111" transform="matrix(2.03522 0 0 2.03333 361.804 103)">Zaplanuj</text><text font-family="Arial,Arial_MSFontService,sans-serif" font-weight="400" font-size="6.35" transform="matrix(2.03522 0 0 2.03333 362.795 136)">Określ jasne cele i stwórz środowisko </text><text font-family="Arial,Arial_MSFontService,sans-serif" font-weight="400" font-size="6.35" transform="matrix(2.03522 0 0 2.03333 362.795 155)">sprzyjające dostępności</text><text font-family="Arial,Arial_MSFontService,sans-serif" font-weight="400" font-size="6.35" transform="matrix(2.03522 0 0 2.03333 500.002 155)">.</text><text fill="#003366" font-family="Arial,Arial_MSFontService,sans-serif" font-weight="400" font-size="5.64444" transform="matrix(2.03522 0 0 2.03333 382.815 180)">Opracuj politykę dostępności</text><text fill="#003366" font-family="Arial,Arial_MSFontService,sans-serif" font-weight="400" font-size="5.64444" transform="matrix(2.03522 0 0 2.03333 529.682 180)">.</text><text fill="#003366" font-family="Arial,Arial_MSFontService,sans-serif" font-weight="400" font-size="5.64444" transform="matrix(2.03522 0 0 2.03333 382.815 204)">Przydziel obowiązki</text><text fill="#003366" font-family="Arial,Arial_MSFontService,sans-serif" font-weight="400" font-size="5.64444" transform="matrix(2.03522 0 0 2.03333 483.052 204)">.</text><text fill="#003366" font-family="Arial,Arial_MSFontService,sans-serif" font-weight="400" font-size="5.64444" transform="matrix(2.03522 0 0 2.03333 382.815 228)">Określ budżet i zasoby</text><text fill="#003366" font-family="Arial,Arial_MSFontService,sans-serif" font-weight="400" font-size="5.64444" transform="matrix(2.03522 0 0 2.03333 499.022 228)">.</text><text fill="#003366" font-family="Arial,Arial_MSFontService,sans-serif" font-weight="400" font-size="5.64444" transform="matrix(2.03522 0 0 2.03333 382.815 252)">Przyjrzyj się środowisku</text><text fill="#003366" font-family="Arial,Arial_MSFontService,sans-serif" font-weight="400" font-size="5.64444" transform="matrix(2.03522 0 0 2.03333 382.815 276)">Przejrzyj strony internetowe</text><text fill="#003366" font-family="Arial,Arial_MSFontService,sans-serif" font-weight="400" font-size="5.64444" transform="matrix(2.03522 0 0 2.03333 523.91 276)">.</text><text fill="#003366" font-family="Arial,Arial_MSFontService,sans-serif" font-weight="400" font-size="5.64444" transform="matrix(2.03522 0 0 2.03333 382.815 300)">Ustal ramy monitorowania</text><text fill="#003366" font-family="Arial,Arial_MSFontService,sans-serif" font-weight="400" font-size="5.64444" transform="matrix(2.03522 0 0 2.03333 515.608 300)">.</text><text fill="#003366" font-family="Arial,Arial_MSFontService,sans-serif" font-weight="400" font-size="5.64444" transform="matrix(2.03522 0 0 2.03333 382.815 325)">Nawiąż współpracę z interesariuszami</text><text fill="#003366" font-family="Arial,Arial_MSFontService,sans-serif" font-weight="400" font-size="5.64444" transform="matrix(2.03522 0 0 2.03333 577.54 325)">.</text><path d="M92.6431 172.98 99.5351 172.98 99.5351 179.872 92.6431 179.872Z" fill="#003366" transform="matrix(1.00093 0 0 1 277.477 -0.978525)"/><path d="M92.6431 197.102 99.5351 197.102 99.5351 203.994 92.6431 203.994Z" fill="#003366" transform="matrix(1.00093 0 0 1 277.477 -0.978525)"/><path d="M92.6431 221.223 99.5351 221.223 99.5351 228.115 92.6431 228.115Z" fill="#003366" transform="matrix(1.00093 0 0 1 277.477 -0.978525)"/><path d="M92.6431 245.346 99.5351 245.346 99.5351 252.238 92.6431 252.238Z" fill="#003366" transform="matrix(1.00093 0 0 1 277.477 -0.978525)"/><path d="M92.6431 269.467 99.5351 269.467 99.5351 276.359 92.6431 276.359Z" fill="#003366" transform="matrix(1.00093 0 0 1 277.477 -0.978525)"/><path d="M92.6431 293.589 99.5351 293.589 99.5351 300.481 92.6431 300.481Z" fill="#003366" transform="matrix(1.00093 0 0 1 277.477 -0.978525)"/><path d="M92.6431 318.485 99.5351 318.485 99.5351 325.377 92.6431 325.377Z" fill="#003366" transform="matrix(1.00093 0 0 1 277.477 -0.978525)"/></g></svg>