<?xml version="1.0" encoding="UTF-8" standalone="no"?>
<!-- Created with Inkscape (http://www.inkscape.org/) -->

<svg
   width="600"
   height="400"
   viewBox="0 0 158.75 105.83333"
   version="1.1"
   id="svg5"
   inkscape:version="1.2.2 (732a01da63, 2022-12-09)"
   sodipodi:docname="cykltik.svg"
   xmlns:inkscape="http://www.inkscape.org/namespaces/inkscape"
   xmlns:sodipodi="http://sodipodi.sourceforge.net/DTD/sodipodi-0.dtd"
   xmlns="http://www.w3.org/2000/svg"
   xmlns:svg="http://www.w3.org/2000/svg">
  <sodipodi:namedview
     id="namedview7"
     pagecolor="#ffffff"
     bordercolor="#000000"
     borderopacity="0.25"
     inkscape:showpageshadow="2"
     inkscape:pageopacity="0.0"
     inkscape:pagecheckerboard="0"
     inkscape:deskcolor="#d1d1d1"
     inkscape:document-units="mm"
     showgrid="false"
     inkscape:zoom="0.73940797"
     inkscape:cx="104.81359"
     inkscape:cy="453.74139"
     inkscape:window-width="1920"
     inkscape:window-height="991"
     inkscape:window-x="-9"
     inkscape:window-y="-9"
     inkscape:window-maximized="1"
     inkscape:current-layer="layer1" />
  <defs
     id="defs2" />
  <g
     inkscape:label="Warstwa 1"
     inkscape:groupmode="layer"
     id="layer1">
    <g
       id="g479"
       transform="translate(-2.681338,3.7574933)">
      <path
         class="uuid-f22c65d2-ec89-433b-a84e-d611ff00fcba"
         d="M 100.17754,8.7986014 C 94.854537,5.699 88.666275,3.9136787 82.050862,3.9136787 75.435445,3.9136787 69.25814,5.699 63.924188,8.7986014"
         id="path186"
         style="fill:none;stroke:#231f20;stroke-width:3.2858px;stroke-linecap:round;stroke-linejoin:round" />
      <path
         class="uuid-ed9766aa-fb05-4f15-87ee-a849fa007023"
         d="m 58.875006,24.899016 c 0,7.064465 -5.728249,12.781782 -12.781773,12.781782 -7.053522,0 -12.781767,-5.728245 -12.781767,-12.781782 0,-7.053537 5.728245,-12.781782 12.781767,-12.781782 7.053524,0 12.781773,5.728245 12.781773,12.781782 z"
         id="path188"
         style="fill:#800066;stroke-width:0px" />
      <path
         class="uuid-ed9766aa-fb05-4f15-87ee-a849fa007023"
         d="m 130.80121,24.899016 c 0,7.064465 -5.72825,12.781782 -12.78177,12.781782 -7.05352,0 -12.78177,-5.728245 -12.78177,-12.781782 0,-7.053537 5.72825,-12.781782 12.78177,-12.781782 7.05352,0 12.78177,5.728245 12.78177,12.781782 z"
         id="path190"
         style="fill:#800066;stroke-width:0px" />
      <path
         class="uuid-ed9766aa-fb05-4f15-87ee-a849fa007023"
         d="m 94.953109,83.265826 c 0,7.064462 -5.728245,12.781742 -12.781768,12.781742 -7.053524,0 -12.781769,-5.728245 -12.781769,-12.781742 0,-7.053528 5.728245,-12.781773 12.781769,-12.781773 7.053523,0 12.781768,5.728245 12.781768,12.781773 z"
         id="path192"
         style="fill:#800066;stroke-width:0px" />
      <path
         class="uuid-f22c65d2-ec89-433b-a84e-d611ff00fcba"
         d="m 102.06139,73.419356 c 8.66357,-5.739173 14.72039,-15.114695 15.95805,-25.957822 -1.23766,10.843127 -7.28353,20.218649 -15.95805,25.957822"
         id="path194"
         style="fill:none;stroke:#231f20;stroke-width:3.2858px;stroke-linecap:round;stroke-linejoin:round" />
      <path
         class="uuid-f22c65d2-ec89-433b-a84e-d611ff00fcba"
         d="M 62.270333,73.419356 C 53.606769,67.680183 47.54994,58.304661 46.312289,47.461534 47.54994,58.304661 53.595815,67.680183 62.270333,73.419356"
         id="path196"
         style="fill:none;stroke:#231f20;stroke-width:3.2858px;stroke-linecap:round;stroke-linejoin:round" />
    </g>
  </g>
</svg>
