<svg xmlns="http://www.w3.org/2000/svg" xml:space="preserve" width="600" height="400" viewBox="0 0 158.75 105.83"><path fill="#fff" d="M126.7 52.92a47.33 47.33 0 1 1-94.65 0 47.33 47.33 0 0 1 94.65 0" style="fill-rule:evenodd;stroke-width:.352294" transform="translate(8.47 5.64)scale(.89335)"/><path fill="#1e3d72" d="m78.83 71.17 2.93-5.15q-.74.08-1.49.08a14.4 14.4 0 0 1-14.14-11.74l4.41.67-7.12-10.45-9.88 7.88 3.96.6a22.85 22.85 0 0 0 27.4 21z" style="fill:#782167;fill-rule:evenodd;stroke-width:.352294" transform="translate(8.47 5.64)scale(.89335)"/><path fill="#1e3d72" d="M94.77 34.41a22.84 22.84 0 0 0-37 12.63l5.83-4.7 2.32 3.55.65.94a14.43 14.43 0 0 1 21.73-6.82l-3.36 2.9 12.58 1.34.4-12.56z" style="fill:#782167;fill-rule:evenodd;stroke-width:.352294" transform="translate(8.47 5.64)scale(.89335)"/><path fill="#008eb2" d="M103.21 51.72c0-4.74-1.47-9.13-3.98-12.78l-.08 2.52-.1 4.47-5.85-.63a14 14 0 0 1 1.55 6.42c0 4.82-2.42 9.09-6.12 11.69l-1.32-4.17L81 70.18l11.48 5.4-1.24-3.92a22.7 22.7 0 0 0 11.96-19.94" style="fill:#a08;fill-rule:evenodd;stroke-width:.352294" transform="translate(8.47 5.64)scale(.89335)"/><path fill="#e69025" d="M89.54 18.77a35.6 35.6 0 0 1 20.62 16.12c.29.48.89.67 1.39.42l4.45-2.19c.55-.27.76-.94.46-1.47a42.7 42.7 0 0 0-25.35-19.8 1.06 1.06 0 0 0-1.31.82l-1.01 4.87c-.11.54.22 1.07.75 1.23" style="fill:#d400aa;fill-rule:evenodd;stroke-width:.352294" transform="translate(8.47 5.64)scale(.89335)"/><path fill="#1e3d72" d="M112.73 39.9a35.77 35.77 0 0 1-19.64 45.97 35.8 35.8 0 0 1-44.82-15.54 35.76 35.76 0 0 1 15.4-49.54 35.5 35.5 0 0 1 20.29-3.35c.6.07 1.16-.34 1.28-.93l.97-4.7a1.14 1.14 0 0 0-.96-1.34 42.6 42.6 0 0 0-25.69 4.46 42.95 42.95 0 0 0-19.51 54.72A42.86 42.86 0 0 0 98.3 91.28a42.86 42.86 0 0 0 20.79-54.53 1 1 0 0 0-1.34-.5l-4.48 2.2c-.54.27-.77.9-.55 1.46" style="fill:#782167;fill-rule:evenodd;stroke-width:.352294" transform="translate(8.47 5.64)scale(.89335)"/></svg>