<svg xmlns="http://www.w3.org/2000/svg" width="600" height="400" viewBox="0 0 158.75 105.83"><path d="M100.18 8.8a36 36 0 0 0-18.13-4.9c-6.61 0-12.8 1.79-18.13 4.89" class="uuid-f22c65d2-ec89-433b-a84e-d611ff00fcba" style="fill:none;stroke:#231f20;stroke-width:3.2858px;stroke-linecap:round;stroke-linejoin:round" transform="translate(-2.68 3.76)"/><path d="M58.88 24.9a12.78 12.78 0 1 1-25.57 0 12.78 12.78 0 0 1 25.57 0m71.92 0a12.78 12.78 0 1 1-25.56 0 12.78 12.78 0 0 1 25.56 0M94.95 83.27a12.78 12.78 0 1 1-25.56 0 12.78 12.78 0 0 1 25.56 0" class="uuid-ed9766aa-fb05-4f15-87ee-a849fa007023" style="fill:#800066;stroke-width:0" transform="translate(-2.68 3.76)"/></svg>