<?xml version="1.0" encoding="UTF-8" standalone="no"?>
<!-- Created with Inkscape (http://www.inkscape.org/) -->

<svg
   width="600"
   height="400"
   viewBox="0 0 158.75 105.83333"
   version="1.1"
   id="svg4650"
   xml:space="preserve"
   inkscape:version="1.2.2 (732a01da63, 2022-12-09)"
   sodipodi:docname="cykl-zycia.svg"
   xmlns:inkscape="http://www.inkscape.org/namespaces/inkscape"
   xmlns:sodipodi="http://sodipodi.sourceforge.net/DTD/sodipodi-0.dtd"
   xmlns="http://www.w3.org/2000/svg"
   xmlns:svg="http://www.w3.org/2000/svg"><sodipodi:namedview
     id="namedview4652"
     pagecolor="#ffffff"
     bordercolor="#000000"
     borderopacity="0.25"
     inkscape:showpageshadow="2"
     inkscape:pageopacity="0.0"
     inkscape:pagecheckerboard="0"
     inkscape:deskcolor="#d1d1d1"
     inkscape:document-units="mm"
     showgrid="false"
     inkscape:zoom="0.84206847"
     inkscape:cx="-57.596266"
     inkscape:cy="131.22448"
     inkscape:window-width="1920"
     inkscape:window-height="991"
     inkscape:window-x="-9"
     inkscape:window-y="-9"
     inkscape:window-maximized="1"
     inkscape:current-layer="layer1" /><defs
     id="defs4647" /><g
     inkscape:label="Warstwa 1"
     inkscape:groupmode="layer"
     id="layer1"><g
       id="g9045"
       transform="matrix(0.89334668,0,0,0.89334665,8.4656091,5.6437401)"><path
         d="m 126.70097,52.916667 c 0,26.137846 -21.18862,47.325973 -47.32597,47.325973 -26.13735,0 -47.325974,-21.188127 -47.325974,-47.325973 0,-26.137351 21.188624,-47.3259743 47.325974,-47.3259743 26.13735,0 47.32597,21.1886233 47.32597,47.3259743"
         fill="#ffffff"
         id="path5344"
         style="fill-rule:evenodd;stroke-width:0.352294" /><path
         d="m 78.832355,71.165906 2.927618,-5.144333 c -0.489671,0.05056 -0.985774,0.07684 -1.488811,0.07684 -7.023212,0 -12.883391,-5.063534 -14.139995,-11.735103 l 4.41098,0.667703 -7.117279,-10.450753 -9.885964,7.875615 3.965377,0.600781 c 0.71049,11.957668 10.648443,21.468585 22.766881,21.468585 1.583377,0 3.129127,-0.163084 4.621898,-0.471905 z"
         fill="#1e3d72"
         id="path5346"
         style="fill:#782167;fill-rule:evenodd;stroke-width:0.352294" /><path
         d="m 94.773854,34.413658 c -3.972836,-3.324046 -9.093012,-5.334335 -14.680058,-5.334335 -10.9585,0 -20.131304,7.715549 -22.327366,17.96699 l 5.836835,-4.696916 2.317486,3.538327 0.648757,0.944799 c 2.029537,-5.468813 7.326152,-9.379048 13.524288,-9.379048 3.047525,0 5.876484,0.946279 8.206855,2.557072 l -3.35976,2.905831 12.575684,1.332474 0.411359,-12.563197 z"
         fill="#1e3d72"
         id="path5348"
         style="fill:#782167;fill-rule:evenodd;stroke-width:0.352294" /><path
         d="m 103.21234,51.718061 c 0,-4.733365 -1.47074,-9.131905 -3.980552,-12.774509 l -0.08314,2.517328 -0.0931,4.470535 -5.850594,-0.634633 c 0.983312,1.932991 1.543428,4.112535 1.543428,6.421279 0,4.823107 -2.422187,9.091468 -6.120444,11.691144 l -1.321374,-4.166781 -6.288728,10.933237 11.471665,5.406457 -1.243706,-3.921211 C 98.36896,67.801827 103.21234,60.310995 103.21234,51.718061"
         fill="#008eb2"
         id="path5350"
         style="fill:#aa0088;fill-rule:evenodd;stroke-width:0.352294" /><path
         d="m 89.539394,18.769511 c 8.423611,2.501539 15.910336,8.078276 20.624446,16.116459 0.2828,0.482589 0.8835,0.673644 1.38532,0.426658 l 4.45504,-2.191692 c 0.54434,-0.267775 0.7599,-0.940923 0.45831,-1.467562 -5.71527,-9.961112 -14.95514,-16.828215 -25.349437,-19.796502 -0.587348,-0.167793 -1.192,0.210358 -1.315599,0.808767 l -1.007096,4.869932 c -0.112723,0.543963 0.216545,1.076048 0.749016,1.23394"
         fill="#e69025"
         id="path5352"
         style="fill:#d400aa;fill-rule:evenodd;stroke-width:0.352294" /><path
         d="M 112.72605,39.905307 C 119.6584,57.689942 111.31037,78.300294 93.085722,85.870364 76.460962,92.775965 57.054353,86.044154 48.266117,70.333626 38.204806,52.347472 45.410981,29.761049 63.672269,20.789263 c 6.52631,-3.206968 13.564624,-4.224464 20.287515,-3.353032 0.602123,0.07823 1.159188,-0.333224 1.282484,-0.927382 l 0.971517,-4.691372 C 86.347978,11.172815 85.902326,10.555881 85.249694,10.465272 76.736773,9.2819072 67.78117,10.628665 59.560396,14.930865 39.876492,25.231089 31.304149,49.232102 40.046829,69.654801 c 9.710733,22.683467 36.394327,32.368739 58.263407,21.623884 20.269684,-9.959077 29.168344,-33.916024 20.787144,-54.5239 -0.21243,-0.522859 -0.83139,-0.74963 -1.33795,-0.500579 l -4.48176,2.201356 c -0.53577,0.26341 -0.76801,0.893217 -0.55162,1.449745"
         fill="#1e3d72"
         id="path5354"
         style="fill:#782167;fill-rule:evenodd;stroke-width:0.352294" /></g></g></svg>
