<?xml version="1.0" encoding="UTF-8" standalone="no"?>
<svg
   id="world-growing-system"
   viewBox="0 0 600 600"
   version="1.1"
   sodipodi:docname="world-growing-system.svg"
   width="600"
   height="600"
   inkscape:version="1.2.2 (732a01da63, 2022-12-09)"
   xmlns:inkscape="http://www.inkscape.org/namespaces/inkscape"
   xmlns:sodipodi="http://sodipodi.sourceforge.net/DTD/sodipodi-0.dtd"
   xmlns="http://www.w3.org/2000/svg"
   xmlns:svg="http://www.w3.org/2000/svg">
  <sodipodi:namedview
     id="namedview1594"
     pagecolor="#ffffff"
     bordercolor="#000000"
     borderopacity="0.25"
     inkscape:showpageshadow="2"
     inkscape:pageopacity="0.0"
     inkscape:pagecheckerboard="0"
     inkscape:deskcolor="#d1d1d1"
     showgrid="false"
     inkscape:zoom="1.34"
     inkscape:cx="339.92537"
     inkscape:cy="318.28358"
     inkscape:window-width="1920"
     inkscape:window-height="991"
     inkscape:window-x="-9"
     inkscape:window-y="-9"
     inkscape:window-maximized="1"
     inkscape:current-layer="world-growing-system" />
  <defs
     id="defs1193">
    <style
       id="style1191">.cls-1,.cls-2,.cls-3,.cls-4,.cls-5,.cls-6,.cls-7,.cls-8,.cls-9,.cls-10,.cls-11,.cls-12,.cls-13,.cls-14,.cls-15,.cls-16,.cls-17,.cls-18,.cls-19,.cls-20,.cls-21,.cls-22,.cls-23,.cls-24{stroke:#7836b2;}.cls-1,.cls-2,.cls-3,.cls-6,.cls-7,.cls-9,.cls-10,.cls-11,.cls-12,.cls-25,.cls-16,.cls-26,.cls-27,.cls-17,.cls-18,.cls-22,.cls-23{fill:none;}.cls-1,.cls-2,.cls-6,.cls-7,.cls-9,.cls-11,.cls-12,.cls-25,.cls-18,.cls-21{stroke-linecap:round;}.cls-1,.cls-2,.cls-8,.cls-10,.cls-21,.cls-24{stroke-linejoin:round;}.cls-1,.cls-3,.cls-7,.cls-8,.cls-10,.cls-19,.cls-20,.cls-21{stroke-width:1.5px;}.cls-2,.cls-6{stroke-width:1.51px;}.cls-3,.cls-4,.cls-5,.cls-6,.cls-7,.cls-9,.cls-11,.cls-12,.cls-25,.cls-13,.cls-14,.cls-15,.cls-16,.cls-26,.cls-27,.cls-17,.cls-18,.cls-19,.cls-20,.cls-22,.cls-23{stroke-miterlimit:10;}.cls-28,.cls-4,.cls-14,.cls-20,.cls-24{fill:#fff;}.cls-29,.cls-5,.cls-8,.cls-13,.cls-19,.cls-30,.cls-21{fill:#bb9ad8;}.cls-31,.cls-32{fill:#7836b2;}.cls-4,.cls-5,.cls-16,.cls-18{stroke-width:1.18px;}.cls-9,.cls-22{stroke-width:1.31px;}.cls-11{stroke-width:.41px;}.cls-12,.cls-25{stroke-width:.5px;}.cls-25,.cls-26{stroke:#bb9ad8;}.cls-15{fill:#43d3e8;}.cls-27{stroke:#fff;}.cls-32,.cls-30{fill-rule:evenodd;}.cls-23{stroke-width:.47px;}.cls-33{fill:#e3e0e0;opacity:.5;}.cls-24{stroke-width:1.57px;}</style>
  </defs>
  <circle
     class="cls-33"
     cx="293.39999"
     cy="306.42001"
     id="circle1195"
     style="stroke-width:1.99999"
     r="211.22" />
  <path
     class="cls-28"
     d="m 204.5,239.08 h -11.92 c -2.26,0 -4.12,-1.86 -4.12,-4.12 0,-2.26 1.86,-4.12 4.12,-4.12 h 21.6 c 2.56,-0.4 4.78,-2.22 5.26,-4.8 0.7,-3.78 -2.24,-7.12 -5.9,-7.12 h -79.88 c -2.26,0 -4.12,-1.86 -4.12,-4.12 0,-2.26 1.86,-4.12 4.12,-4.12 h 0.96 c 0.3,-0.08 0.62,-0.12 0.94,-0.12 h 37.04 c 2.1,0 3.82,-1.52 3.82,-3.38 0,-1.64 1.34,-3.02 3.1,-3.32 h 16.2 c 3.3,0 6,-2.7 6,-6 0,-3.3 -2.7,-6 -6,-6 H 28.88 c -3.3,0 -6,2.7 -6,6 0,3.3 2.7,6 6,6 h 16.18 c 1.76,0.3 3.1,1.68 3.1,3.32 0,1.86 1.72,3.38 3.82,3.38 l 43.68,0.12 c 2.26,0 4.12,1.86 4.12,4.12 0,2.26 -1.86,4.12 -4.12,4.12 H 87.5 c -2.96,0 -5.72,1.98 -6.26,4.88 -0.7,3.78 2.24,7.12 5.9,7.12 h 32.34 c 1.02,0.12 2.3,0.06 3.5,0.24 h 15.94 c 2.26,0 4.12,1.86 4.12,4.12 0,2.26 -1.86,4.12 -4.12,4.12 h -22.26 c -1.8,0.78 -3.22,2.32 -3.58,4.3 -0.7,3.78 2.24,7.12 5.9,7.12 h 83.54 c 2.96,0 5.72,-1.98 6.26,-4.88 0.58,-3.2 -1.42,-6.06 -4.28,-6.86 z"
     id="path1197"
     style="stroke-width:1.99999" />
  <path
     class="cls-29"
     d="m 516.4,179.68 h -39.88 c 0,0 -0.06,-0.06 -0.08,-0.08 h -0.06 c -2.26,0 -4.12,-1.86 -4.12,-4.12 v -2.04 c 0,-2.26 1.86,-4.12 4.12,-4.12 h 2.88 c 0,0 0.1,0 0.16,0 h 49.66 c 2.82,0 5.12,-2.04 5.12,-4.54 0,-2.5 2.3,-4.54 5.12,-4.54 h 18.38 c 1.48,0 2.84,-0.6 3.8,-1.58 0.98,-0.98 1.58,-2.32 1.58,-3.82 0,-2.96 -2.42,-5.4 -5.4,-5.4 H 338.74 c -2.96,0 -5.4,2.42 -5.4,5.4 0,1.48 0.6,2.84 1.58,3.82 0.98,0.98 2.32,1.58 3.8,1.58 h 18.38 c 2.82,0 5.12,2.04 5.12,4.54 0,2.5 2.3,4.54 5.12,4.54 h 72.7 c 2.26,0 4.12,1.88 4.12,4.14 v 2.04 c 0,2.26 -1.86,4.12 -4.12,4.12 l -110.66,0.08 c -4.68,0 -8.5,3.82 -8.5,8.5 0,4.68 3.82,8.5 8.5,8.5 h 187 c 4.68,0 8.5,-3.82 8.5,-8.5 0,-4.68 -3.82,-8.5 -8.5,-8.5 z"
     id="path1199"
     style="stroke-width:1.99999" />
  <path
     class="cls-28"
     d="m 444.92,348.72 7.26,-0.24 c 3.12,0 5.66,-2.56 5.66,-5.66 v -0.44 c 0,-3.12 -2.56,-5.66 -5.66,-5.66 h -18.74 c -2.48,-0.44 -4.6,-2.26 -5.06,-4.78 -0.7,-3.78 2.24,-7.12 5.9,-7.12 h 126.04 c 2.96,0 5.72,1.98 6.26,4.88 0.62,3.42 -1.72,6.44 -4.88,7 h -49.24 c -3.12,0 -5.66,2.56 -5.66,5.66 v 0.44 c 0,3.12 2.56,5.66 5.66,5.66 l 16.02,0.24 c 2.96,0 5.72,1.98 6.26,4.88 0.7,3.78 -2.24,7.12 -5.9,7.12 H 445.3 c -2.96,0 -5.72,-1.98 -6.26,-4.88 -0.7,-3.78 2.24,-7.12 5.9,-7.12 z"
     id="path1201"
     style="stroke-width:1.99999" />
  <rect
     class="cls-28"
     x="-588.82001"
     y="-360.69998"
     width="47.02"
     height="11.34"
     rx="5.6599998"
     ry="5.6599998"
     transform="scale(-1)"
     id="rect1203"
     style="stroke-width:1.99999" />
  <circle
     class="cls-11"
     cx="298.72"
     cy="129.62"
     id="circle1205"
     r="2.9400001" />
  <circle
     class="cls-26"
     cx="215.7"
     cy="122.72"
     id="circle1207"
     style="stroke-width:1.99999"
     r="3.6800001" />
  <circle
     class="cls-17"
     cx="206.28"
     cy="161.34"
     id="circle1209"
     style="stroke-width:1.99999"
     r="2.4000001" />
  <circle
     class="cls-29"
     cx="308.66"
     cy="200.39999"
     id="circle1211"
     style="stroke-width:1.99999"
     r="2.4000001" />
  <circle
     class="cls-31"
     cx="257.12"
     cy="142.88"
     id="circle1213"
     style="stroke-width:1.99999"
     r="2.4000001" />
  <line
     class="cls-12"
     x1="168.60001"
     y1="122.72"
     x2="168.60001"
     y2="128.17999"
     id="line1215" />
  <line
     class="cls-12"
     x1="171.32001"
     y1="125.46"
     x2="165.86"
     y2="125.46"
     id="line1217" />
  <circle
     class="cls-27"
     cx="272.51999"
     cy="184.78"
     id="circle1219"
     style="stroke-width:1.99999"
     r="3.6800001" />
  <circle
     class="cls-28"
     cx="294"
     cy="171.34"
     id="circle1221"
     style="stroke-width:1.99999"
     r="2.4000001" />
  <circle
     class="cls-26"
     cx="405.39999"
     cy="210.39999"
     id="circle1223"
     style="stroke-width:1.99999"
     r="3.6800001" />
  <circle
     class="cls-17"
     cx="395.98001"
     cy="249.02"
     id="circle1225"
     style="stroke-width:1.99999"
     r="2.4000001" />
  <circle
     class="cls-31"
     cx="446.84"
     cy="230.56"
     id="circle1227"
     style="stroke-width:1.99999"
     r="2.4000001" />
  <line
     class="cls-12"
     x1="358.29999"
     y1="210.39999"
     x2="358.29999"
     y2="215.86"
     id="line1229" />
  <line
     class="cls-12"
     x1="361.04001"
     y1="213.14"
     x2="355.56"
     y2="213.14"
     id="line1231" />
  <circle
     class="cls-25"
     cx="136.36"
     cy="298.57999"
     id="circle1233"
     r="2.9400001" />
  <circle
     class="cls-25"
     cx="84"
     cy="209.88"
     id="circle1235"
     r="2.9400001" />
  <circle
     class="cls-26"
     cx="115"
     cy="258.51999"
     id="circle1237"
     style="stroke-width:1.99999"
     r="3.6800001" />
  <circle
     class="cls-27"
     cx="43.32"
     cy="291.70001"
     id="circle1239"
     style="stroke-width:1.99999"
     r="3.6800001" />
  <circle
     class="cls-17"
     cx="96.580002"
     cy="279.64001"
     id="circle1241"
     style="stroke-width:1.99999"
     r="2.4000001" />
  <circle
     class="cls-29"
     cx="109.18"
     cy="320.78"
     id="circle1243"
     style="stroke-width:1.99999"
     r="2.4000001" />
  <circle
     class="cls-31"
     cx="147.44"
     cy="261.16"
     id="circle1245"
     style="stroke-width:1.99999"
     r="2.4000001" />
  <circle
     class="cls-28"
     cx="75.639999"
     cy="308.95999"
     id="circle1247"
     style="stroke-width:1.99999"
     r="2.4000001" />
  <line
     class="cls-12"
     x1="58.900002"
     y1="241.02"
     x2="58.900002"
     y2="246.48"
     id="line1249" />
  <line
     class="cls-12"
     x1="61.619999"
     y1="243.74001"
     x2="56.16"
     y2="243.74001"
     id="line1251" />
  <line
     class="cls-25"
     x1="162.58"
     y1="284.95999"
     x2="162.58"
     y2="290.44"
     id="line1253" />
  <line
     class="cls-25"
     x1="165.32001"
     y1="287.70001"
     x2="159.84"
     y2="287.70001"
     id="line1255" />
  <circle
     class="cls-25"
     cx="157.25999"
     cy="461.70001"
     id="circle1257"
     r="2.9400001" />
  <circle
     class="cls-26"
     cx="217.53999"
     cy="486.23999"
     id="circle1259"
     style="stroke-width:1.99999"
     r="3.6800001" />
  <circle
     class="cls-29"
     cx="186.53999"
     cy="458.45999"
     id="circle1261"
     style="stroke-width:1.99999"
     r="2.4000001" />
  <circle
     class="cls-29"
     cx="182.66"
     cy="486.95999"
     id="circle1263"
     style="stroke-width:1.99999"
     r="8.04" />
  <circle
     class="cls-31"
     cx="226.2"
     cy="458.12"
     id="circle1265"
     style="stroke-width:1.99999"
     r="2.4000001" />
  <line
     class="cls-25"
     x1="145.94"
     y1="489"
     x2="142.42"
     y2="484.82001"
     id="line1267" />
  <line
     class="cls-25"
     x1="142.10001"
     y1="488.67999"
     x2="146.28"
     y2="485.16"
     id="line1269" />
  <line
     class="cls-7"
     x1="379.34"
     y1="456.29999"
     x2="502"
     y2="456.29999"
     id="line1271" />
  <line
     class="cls-7"
     x1="344.66"
     y1="471.64001"
     x2="429.34"
     y2="471.64001"
     id="line1273" />
  <line
     class="cls-7"
     x1="417.34"
     y1="484.95999"
     x2="462"
     y2="484.95999"
     id="line1275" />
  <path
     class="cls-31"
     d="m 210.5,417.42 c 0.38,-0.1 0.74,-0.24 1.06,-0.42 l 1.88,1.58 2.02,-2.02 -1.54,-1.82 c 0.18,-0.34 0.34,-0.68 0.46,-1.04 l 2.44,-0.2 v -2.86 c 0,0 -2.36,-0.2 -2.36,-0.2 -0.1,-0.38 -0.24,-0.74 -0.42,-1.06 l 1.58,-1.88 -2.02,-2.02 -1.82,1.54 c -0.34,-0.18 -0.68,-0.34 -1.04,-0.46 l -0.2,-2.44 h -2.86 l -0.2,2.36 c -0.38,0.1 -0.74,0.24 -1.06,0.42 l -1.88,-1.58 -2.02,2.02 1.54,1.82 c -0.18,0.34 -0.34,0.68 -0.46,1.04 l -2.44,0.2 v 2.86 l 2.36,0.2 c 0.1,0.38 0.24,0.74 0.42,1.06 l -1.58,1.88 2.02,2.02 1.82,-1.54 c 0.34,0.18 0.68,0.34 1.04,0.46 m 1.76,-2.66 c -1.5,0 -2.72,-1.22 -2.72,-2.72 0,-1.5 1.22,-2.72 2.72,-2.72 1.5,0 2.72,1.22 2.72,2.72 0,1.5 -1.22,2.72 -2.72,2.72 z"
     id="path1277"
     style="stroke-width:1.99999" />
  <line
     class="cls-7"
     x1="209"
     y1="417.34"
     x2="209"
     y2="435.16"
     id="line1279" />
  <path
     class="cls-31"
     d="m 181.5,408.92 c 0.38,-0.1 0.74,-0.24 1.06,-0.42 l 1.88,1.58 2.02,-2.02 -1.54,-1.82 c 0.18,-0.34 0.34,-0.68 0.46,-1.04 l 2.44,-0.2 v -2.86 c 0,0 -2.36,-0.2 -2.36,-0.2 -0.1,-0.38 -0.24,-0.74 -0.42,-1.06 l 1.58,-1.88 -2.02,-2.02 -1.82,1.54 c -0.34,-0.18 -0.68,-0.34 -1.04,-0.46 l -0.2,-2.44 h -2.86 l -0.2,2.36 c -0.38,0.1 -0.74,0.24 -1.06,0.42 l -1.88,-1.58 -2.02,2.02 1.54,1.82 c -0.18,0.34 -0.34,0.68 -0.46,1.04 l -2.44,0.2 v 2.86 l 2.36,0.2 c 0.1,0.38 0.24,0.74 0.42,1.06 l -1.58,1.88 2.02,2.02 1.82,-1.54 c 0.34,0.18 0.68,0.34 1.04,0.46 m 1.76,-2.66 c -1.5,0 -2.72,-1.22 -2.72,-2.72 0,-1.5 1.22,-2.72 2.72,-2.72 1.5,0 2.72,1.22 2.72,2.72 0,1.5 -1.22,2.72 -2.72,2.72 z"
     id="path1281"
     style="stroke-width:1.99999" />
  <line
     class="cls-7"
     x1="180"
     y1="408.84"
     x2="180"
     y2="435.5"
     id="line1283" />
  <path
     class="cls-31"
     d="m 196,392.78 c 0.38,-0.1 0.74,-0.24 1.06,-0.42 l 1.88,1.58 2.02,-2.02 -1.54,-1.82 c 0.18,-0.34 0.34,-0.68 0.46,-1.04 l 2.44,-0.2 V 386 c 0,0 -2.36,-0.2 -2.36,-0.2 -0.1,-0.38 -0.24,-0.74 -0.42,-1.06 l 1.58,-1.88 -2.02,-2.02 -1.82,1.54 c -0.34,-0.18 -0.68,-0.34 -1.04,-0.46 l -0.2,-2.44 h -2.86 l -0.2,2.36 c -0.38,0.1 -0.74,0.24 -1.06,0.42 l -1.88,-1.58 -2.02,2.02 1.54,1.82 c -0.18,0.34 -0.34,0.68 -0.46,1.04 l -2.44,0.2 v 2.86 l 2.36,0.2 c 0.1,0.38 0.24,0.74 0.42,1.06 l -1.58,1.88 2.02,2.02 1.82,-1.54 c 0.34,0.18 0.68,0.34 1.04,0.46 m 1.76,-2.66 c -1.5,0 -2.72,-1.22 -2.72,-2.72 0,-1.5 1.22,-2.72 2.72,-2.72 1.5,0 2.72,1.22 2.72,2.72 0,1.5 -1.22,2.72 -2.72,2.72 z"
     id="path1285"
     style="stroke-width:1.99999" />
  <line
     class="cls-7"
     x1="194.5"
     y1="392.67999"
     x2="194.5"
     y2="434.5"
     id="line1287" />
  <path
     class="cls-28"
     d="m 474.18,241.96 c -5.14,-0.22 -10.32,1.78 -13.98,5.94 -2.28,2.58 -3.64,5.64 -4.16,8.8 1.5,1.2 3.02,2.46 4.54,3.72 l 13.6,-18.48 z"
     id="path1289"
     style="stroke-width:1.99999" />
  <path
     class="cls-31"
     d="m 460.8,262.06 -0.92,-0.76 c -1.68,-1.4 -3.16,-2.62 -4.52,-3.72 l -0.52,-0.42 0.1,-0.64 c 0.56,-3.48 2.08,-6.72 4.42,-9.38 3.3,-3.74 7.86,-5.98 12.84,-6.3 0.68,-0.04 1.36,-0.04 2.02,-0.02 l 2.1,0.1 -15.56,21.14 z m -3.52,-5.82 c 0.96,0.78 2,1.62 3.12,2.56 l 11.52,-15.66 c -4.22,0.38 -8.06,2.32 -10.86,5.52 -1.9,2.16 -3.2,4.78 -3.78,7.6 z"
     id="path1291"
     style="stroke-width:1.99999" />
  <path
     class="cls-28"
     d="m 491.12,256.16 -16.94,16.18 c 1.64,1.5 3.24,3.02 4.8,4.52 3.08,-0.9 5.94,-2.66 8.2,-5.24 3.86,-4.38 5.14,-10.14 3.96,-15.44 z"
     id="path1293"
     style="stroke-width:1.99999" />
  <path
     class="cls-31"
     d="m 478.64,278.12 -0.48,-0.46 c -1.48,-1.44 -3.04,-2.9 -4.78,-4.5 l -0.88,-0.82 19.26,-18.38 0.44,1.94 c 1.3,5.82 -0.28,11.96 -4.2,16.44 -2.34,2.66 -5.36,4.58 -8.74,5.58 l -0.62,0.18 z m -2.84,-5.78 c 1.22,1.12 2.36,2.2 3.44,3.24 2.72,-0.92 5.16,-2.54 7.06,-4.7 3,-3.4 4.44,-7.92 4.02,-12.4 z"
     id="path1295"
     style="stroke-width:1.99999" />
  <path
     class="cls-29"
     d="m 465.08,254.92 13.92,12.26 18.18,-17.34 c 7.22,-6.88 9.74,-16.84 7.48,-25.86 -9.24,-1.08 -18.8,2.68 -24.7,10.72 l -14.88,20.24 z"
     id="path1297"
     style="stroke-width:1.99999" />
  <path
     class="cls-31"
     d="m 479.04,268.7 -15.48,-13.62 15.5,-21.06 c 4.9,-6.66 12.44,-10.78 20.7,-11.3 1.68,-0.1 3.38,-0.06 5.04,0.14 l 0.78,0.1 0.18,0.76 c 2.42,9.72 -0.56,20.04 -7.8,26.96 l -18.92,18.06 z m -12.44,-13.94 12.38,10.88 17.42,-16.62 c 6.46,-6.16 9.24,-15.3 7.34,-24.02 -1.28,-0.1 -2.58,-0.12 -3.86,-0.04 -7.6,0.48 -14.52,4.28 -19.02,10.38 l -14.28,19.4 z"
     id="path1299"
     style="stroke-width:1.99999" />
  <path
     class="cls-31"
     d="m 460.98,265.46 c 0.96,-1.08 2.28,-1.74 3.72,-1.82 1.44,-0.08 2.82,0.38 3.92,1.34 1.08,0.96 1.74,2.28 1.82,3.72 0.1,1.44 -0.38,2.84 -1.34,3.92 -1.38,1.58 -7.52,3.5 -10.3,4.4 -0.44,0.14 -0.86,-0.22 -0.78,-0.68 0.5,-2.62 1.9,-9.64 2.96,-10.88 z"
     id="path1301"
     style="stroke-width:1.99999" />
  <path
     class="cls-28"
     d="m 498.96,230.46 c 2.18,1.92 4.12,3.98 5.78,6.12 0.96,-4.14 0.94,-8.48 -0.08,-12.62 -4.24,-0.5 -8.54,0.04 -12.52,1.52 2.34,1.4 4.64,3.04 6.82,4.96 z"
     id="path1303"
     style="stroke-width:1.99999" />
  <path
     class="cls-31"
     d="m 505.32,239.14 -1.46,-1.86 c -1.68,-2.14 -3.58,-4.14 -5.64,-5.98 -2.06,-1.84 -4.32,-3.46 -6.64,-4.84 l -2.02,-1.2 2.2,-0.82 c 4.16,-1.56 8.68,-2.1 13.04,-1.58 l 0.78,0.1 0.18,0.76 c 1.06,4.28 1.1,8.82 0.08,13.14 l -0.54,2.3 z m -10.52,-13.3 c 1.72,1.14 3.36,2.42 4.92,3.78 1.56,1.38 3.02,2.84 4.38,4.4 0.42,-3 0.3,-6.06 -0.34,-9 -3,-0.26 -6.06,0.02 -8.96,0.82 z"
     id="path1305"
     style="stroke-width:1.99999" />
  <path
     class="cls-31"
     d="m 496.44,242.44 c -2.2,2.5 -6,2.74 -8.5,0.54 -2.5,-2.2 -2.74,-6 -0.54,-8.5 2.2,-2.5 6,-2.74 8.5,-0.54 2.5,2.2 2.74,6 0.54,8.5 z"
     id="path1307"
     style="stroke-width:1.99999" />
  <rect
     class="cls-31"
     x="120.37502"
     y="516.48767"
     width="2.26"
     height="20.700001"
     transform="rotate(-48.66)"
     id="rect1309"
     style="stroke-width:2" />
  <line
     class="cls-6"
     x1="448.66"
     y1="267.66"
     x2="437"
     y2="279.34"
     id="line1311" />
  <line
     class="cls-6"
     x1="450.34"
     y1="281.34"
     x2="432.16"
     y2="299.5"
     id="line1313" />
  <line
     class="cls-6"
     x1="466"
     y1="283.66"
     x2="455.5"
     y2="294.16"
     id="line1315" />
  <path
     class="cls-22"
     d="m 274.82,255.74 c 0,8.04 3.46,15.26 8.96,20.28 0.26,0.22 0.52,0.44 0.78,0.68 4.3,3.92 6.98,9.54 6.98,15.8 H 313 c 0,-6.26 2.7,-11.88 7,-15.8 0.26,-0.24 0.52,-0.46 0.78,-0.68 5.5,-5.02 8.96,-12.24 8.96,-20.28 z"
     id="path1317" />
  <line
     class="cls-9"
     x1="313"
     y1="292.5"
     x2="313"
     y2="304.06"
     id="line1319" />
  <line
     class="cls-9"
     x1="291.54001"
     y1="304.06"
     x2="291.54001"
     y2="292.5"
     id="line1321" />
  <line
     class="cls-9"
     x1="287.82001"
     y1="292.5"
     x2="316.72"
     y2="292.5"
     id="line1323" />
  <line
     class="cls-9"
     x1="287.82001"
     y1="298.28"
     x2="316.72"
     y2="298.28"
     id="line1325" />
  <line
     class="cls-9"
     x1="287.82001"
     y1="304.06"
     x2="316.72"
     y2="304.06"
     id="line1327" />
  <line
     class="cls-6"
     x1="302.28"
     y1="274.12"
     x2="302.28"
     y2="435"
     id="line1329" />
  <polyline
     class="cls-6"
     points="155.06 132.36 151.14 137.06 147.22 132.36"
     id="polyline1331"
     transform="scale(2)" />
  <path
     class="cls-29"
     d="m 326.62,247.52 c 1.78,-2.1 1.68,-5.26 -0.32,-7.24 -1,-1 -2.28,-1.5 -3.58,-1.56 v 0 c 0.08,-0.38 0.14,-0.78 0.14,-1.2 0,-2.96 -2.4,-5.36 -5.36,-5.36 -0.72,0 -1.42,0.14 -2.04,0.4 v 0 c -0.48,-2.46 -2.64,-4.34 -5.26,-4.34 -2.96,0 -5.36,2.4 -5.36,5.36 v 22.14 h 23.74 c 0.74,-0.92 1.18,-2.08 1.18,-3.34 0,-2.16 -1.28,-4.02 -3.12,-4.86 z"
     id="path1333"
     style="stroke-width:1.99999" />
  <path
     class="cls-29"
     d="m 277.94,247.52 c -1.78,-2.1 -1.68,-5.26 0.32,-7.24 1,-1 2.28,-1.5 3.58,-1.56 v 0 c -0.08,-0.38 -0.14,-0.78 -0.14,-1.2 0,-2.96 2.4,-5.36 5.36,-5.36 0.72,0 1.42,0.14 2.04,0.4 v 0 c 0.48,-2.46 2.64,-4.34 5.26,-4.34 2.96,0 5.36,2.4 5.36,5.36 v 22.14 h -23.74 c -0.74,-0.92 -1.18,-2.08 -1.18,-3.34 0,-2.16 1.28,-4.02 3.12,-4.86 z"
     id="path1335"
     style="stroke-width:1.99999" />
  <path
     class="cls-9"
     d="m 323.88,248 c 2.96,0 5.84,1.42 5.84,4.38 0,1.26 -0.44,2.42 -1.18,3.34 H 304.8 v -22.14 c 0,-2.96 2.4,-5.36 5.36,-5.36 2.96,0 5.36,2.4 5.36,5.36 0,2.96 -2.4,5.36 -5.36,5.36"
     id="path1337" />
  <path
     class="cls-9"
     d="m 312.86,249.72 c 2.96,0 5.36,-2.4 5.36,-5.36"
     id="path1339" />
  <path
     class="cls-9"
     d="m 315.44,232.58 c 0.62,-0.26 1.32,-0.4 2.04,-0.4 2.96,0 5.36,2.4 5.36,5.36 0,0.4 -0.04,0.8 -0.14,1.18"
     id="path1341" />
  <path
     class="cls-9"
     d="m 318.72,240.28 c 2.1,-2.1 5.5,-2.1 7.58,0 2.1,2.1 2.1,5.5 0,7.58"
     id="path1343" />
  <path
     class="cls-9"
     d="m 294.36,238.96 c -2.96,0 -5.36,-2.4 -5.36,-5.36 0,-2.96 2.4,-5.36 5.36,-5.36 2.96,0 5.36,2.4 5.36,5.36 v 22.14 h -23.74 c -0.74,-0.92 -1.18,-2.08 -1.18,-3.34 0,-2.96 2.52,-4.38 5.48,-4.38"
     id="path1345" />
  <path
     class="cls-9"
     d="m 291.68,249.72 c -2.96,0 -5.36,-2.4 -5.36,-5.36"
     id="path1347" />
  <path
     class="cls-22"
     d="m 289.1,232.58 c -0.62,-0.26 -1.32,-0.4 -2.04,-0.4 -2.96,0 -5.36,2.4 -5.36,5.36 0,0.4 0.04,0.8 0.14,1.18"
     id="path1349" />
  <path
     class="cls-9"
     d="m 285.84,240.28 c -2.1,-2.1 -5.5,-2.1 -7.58,0 -2.1,2.1 -2.1,5.5 0,7.58"
     id="path1351" />
  <line
     class="cls-23"
     x1="219.88"
     y1="421.29999"
     x2="242.96001"
     y2="421.29999"
     id="line1353" />
  <line
     class="cls-23"
     x1="219.88"
     y1="429"
     x2="242.96001"
     y2="429"
     id="line1355" />
  <polygon
     class="cls-31"
     points="110.76,208.54 112.05,209.91 112.05,217.92 109.34,217.92 109.34,209.91 "
     id="polygon1357"
     transform="scale(2)" />
  <circle
     class="cls-28"
     cx="221.39999"
     cy="421.23999"
     id="circle1359"
     style="stroke-width:1.99999"
     r="0.62" />
  <circle
     class="cls-28"
     cx="221.39999"
     cy="428.92001"
     id="circle1361"
     style="stroke-width:1.99999"
     r="0.62" />
  <polygon
     class="cls-31"
     points="114.41,208.54 115.7,209.91 115.7,217.92 113,217.92 113,209.91 "
     id="polygon1363"
     transform="scale(2)" />
  <circle
     class="cls-28"
     cx="228.7"
     cy="421.23999"
     id="circle1365"
     style="stroke-width:1.99999"
     r="0.62" />
  <circle
     class="cls-28"
     cx="228.7"
     cy="428.92001"
     id="circle1367"
     style="stroke-width:1.99999"
     r="0.62" />
  <polygon
     class="cls-31"
     points="118.06,208.54 119.35,209.91 119.35,217.92 116.65,217.92 116.65,209.91 "
     id="polygon1369"
     transform="scale(2)" />
  <circle
     class="cls-28"
     cx="236"
     cy="421.23999"
     id="circle1371"
     style="stroke-width:1.99999"
     r="0.62" />
  <circle
     class="cls-28"
     cx="236"
     cy="428.92001"
     id="circle1373"
     style="stroke-width:1.99999"
     r="0.62" />
  <polygon
     class="cls-31"
     points="121.71,208.54 123,209.91 123,217.92 120.3,217.92 120.3,209.91 "
     id="polygon1375"
     transform="scale(2)" />
  <circle
     class="cls-28"
     cx="243.3"
     cy="421.23999"
     id="circle1377"
     style="stroke-width:1.99999"
     r="0.62" />
  <circle
     class="cls-28"
     cx="243.3"
     cy="428.92001"
     id="circle1379"
     style="stroke-width:1.99999"
     r="0.62" />
  <line
     class="cls-23"
     x1="485.57999"
     y1="421.29999"
     x2="508.66"
     y2="421.29999"
     id="line1381" />
  <line
     class="cls-23"
     x1="485.57999"
     y1="429"
     x2="508.66"
     y2="429"
     id="line1383" />
  <polygon
     class="cls-31"
     points="243.61,208.54 244.9,209.91 244.9,217.92 242.19,217.92 242.19,209.91 "
     id="polygon1385"
     transform="scale(2)" />
  <circle
     class="cls-28"
     cx="487.10001"
     cy="421.23999"
     id="circle1387"
     style="stroke-width:1.99999"
     r="0.62" />
  <circle
     class="cls-28"
     cx="487.10001"
     cy="428.92001"
     id="circle1389"
     style="stroke-width:1.99999"
     r="0.62" />
  <polygon
     class="cls-31"
     points="247.26,208.54 248.55,209.91 248.55,217.92 245.84,217.92 245.84,209.91 "
     id="polygon1391"
     transform="scale(2)" />
  <circle
     class="cls-28"
     cx="494.39999"
     cy="421.23999"
     id="circle1393"
     style="stroke-width:1.99999"
     r="0.62" />
  <circle
     class="cls-28"
     cx="494.39999"
     cy="428.92001"
     id="circle1395"
     style="stroke-width:1.99999"
     r="0.62" />
  <polygon
     class="cls-31"
     points="250.91,208.54 252.2,209.91 252.2,217.92 249.5,217.92 249.5,209.91 "
     id="polygon1397"
     transform="scale(2)" />
  <circle
     class="cls-28"
     cx="501.70001"
     cy="421.23999"
     id="circle1399"
     style="stroke-width:1.99999"
     r="0.62" />
  <circle
     class="cls-28"
     cx="501.70001"
     cy="428.92001"
     id="circle1401"
     style="stroke-width:1.99999"
     r="0.62" />
  <polygon
     class="cls-31"
     points="254.56,208.54 255.85,209.91 255.85,217.92 253.15,217.92 253.15,209.91 "
     id="polygon1403"
     transform="scale(2)" />
  <circle
     class="cls-28"
     cx="509"
     cy="421.23999"
     id="circle1405"
     style="stroke-width:1.99999"
     r="0.62" />
  <circle
     class="cls-28"
     cx="509"
     cy="428.92001"
     id="circle1407"
     style="stroke-width:1.99999"
     r="0.62" />
  <path
     class="cls-31"
     d="m 442.8,407.1 c 0.38,-0.1 0.74,-0.24 1.06,-0.42 l 1.88,1.58 2.02,-2.02 -1.54,-1.82 c 0.18,-0.34 0.34,-0.68 0.46,-1.04 l 2.44,-0.2 v -2.86 c 0,0 -2.36,-0.2 -2.36,-0.2 -0.1,-0.38 -0.24,-0.74 -0.42,-1.06 l 1.58,-1.88 -2.02,-2.02 -1.82,1.54 c -0.34,-0.18 -0.68,-0.34 -1.04,-0.46 l -0.2,-2.44 h -2.86 l -0.2,2.36 c -0.38,0.1 -0.74,0.24 -1.06,0.42 l -1.88,-1.58 -2.02,2.02 1.54,1.82 c -0.18,0.34 -0.34,0.68 -0.46,1.04 l -2.44,0.2 v 2.86 l 2.36,0.2 c 0.1,0.38 0.24,0.74 0.42,1.06 l -1.58,1.88 2.02,2.02 1.82,-1.54 c 0.34,0.18 0.68,0.34 1.04,0.46 m 1.76,-2.66 c -1.5,0 -2.72,-1.22 -2.72,-2.72 0,-1.5 1.22,-2.72 2.72,-2.72 1.5,0 2.72,1.22 2.72,2.72 0,1.5 -1.22,2.72 -2.72,2.72 z"
     id="path1409"
     style="stroke-width:1.99999" />
  <line
     class="cls-7"
     x1="441.29999"
     y1="407"
     x2="441.29999"
     y2="434.84"
     id="line1411" />
  <path
     class="cls-31"
     d="m 472.14,417.42 c 0.38,-0.1 0.74,-0.24 1.06,-0.42 l 1.88,1.58 2.02,-2.02 -1.54,-1.82 c 0.18,-0.34 0.34,-0.68 0.46,-1.04 l 2.44,-0.2 v -2.86 c 0,0 -2.36,-0.2 -2.36,-0.2 -0.1,-0.38 -0.24,-0.74 -0.42,-1.06 l 1.58,-1.88 -2.02,-2.02 -1.82,1.54 c -0.34,-0.18 -0.68,-0.34 -1.04,-0.46 l -0.2,-2.44 h -2.86 l -0.2,2.36 c -0.38,0.1 -0.74,0.24 -1.06,0.42 l -1.88,-1.58 -2.02,2.02 1.54,1.82 c -0.18,0.34 -0.34,0.68 -0.46,1.04 l -2.44,0.2 v 2.86 l 2.36,0.2 c 0.1,0.38 0.24,0.74 0.42,1.06 l -1.58,1.88 2.02,2.02 1.82,-1.54 c 0.34,0.18 0.68,0.34 1.04,0.46 m 1.76,-2.66 c -1.5,0 -2.72,-1.22 -2.72,-2.72 0,-1.5 1.22,-2.72 2.72,-2.72 1.5,0 2.72,1.22 2.72,2.72 0,1.5 -1.22,2.72 -2.72,2.72 z"
     id="path1413"
     style="stroke-width:1.99999" />
  <line
     class="cls-7"
     x1="470.64001"
     y1="417.34"
     x2="470.64001"
     y2="435.16"
     id="line1415" />
  <path
     class="cls-31"
     d="m 457.46,392.78 c 0.38,-0.1 0.74,-0.24 1.06,-0.42 l 1.88,1.58 2.02,-2.02 -1.54,-1.82 c 0.18,-0.34 0.34,-0.68 0.46,-1.04 l 2.44,-0.2 V 386 c 0,0 -2.36,-0.2 -2.36,-0.2 -0.1,-0.38 -0.24,-0.74 -0.42,-1.06 l 1.58,-1.88 -2.02,-2.02 -1.82,1.54 c -0.34,-0.18 -0.68,-0.34 -1.04,-0.46 l -0.2,-2.44 h -2.86 l -0.2,2.36 c -0.38,0.1 -0.74,0.24 -1.06,0.42 l -1.88,-1.58 -2.02,2.02 1.54,1.82 c -0.18,0.34 -0.34,0.68 -0.46,1.04 l -2.44,0.2 v 2.86 l 2.36,0.2 c 0.1,0.38 0.24,0.74 0.42,1.06 l -1.58,1.88 2.02,2.02 1.82,-1.54 c 0.34,0.18 0.68,0.34 1.04,0.46 m 1.76,-2.66 c -1.5,0 -2.72,-1.22 -2.72,-2.72 0,-1.5 1.22,-2.72 2.72,-2.72 1.5,0 2.72,1.22 2.72,2.72 0,1.5 -1.22,2.72 -2.72,2.72 z"
     id="path1417"
     style="stroke-width:1.99999" />
  <line
     class="cls-7"
     x1="455.98001"
     y1="392.67999"
     x2="455.98001"
     y2="434.5"
     id="line1419" />
  <line
     class="cls-23"
     x1="409.22"
     y1="421.29999"
     x2="432.29999"
     y2="421.29999"
     id="line1421" />
  <line
     class="cls-23"
     x1="409.22"
     y1="429"
     x2="432.29999"
     y2="429"
     id="line1423" />
  <polygon
     class="cls-31"
     points="205.43,208.54 206.72,209.91 206.72,217.92 204.01,217.92 204.01,209.91 "
     id="polygon1425"
     transform="scale(2)" />
  <circle
     class="cls-28"
     cx="410.73999"
     cy="421.23999"
     id="circle1427"
     style="stroke-width:1.99999"
     r="0.62" />
  <circle
     class="cls-28"
     cx="410.73999"
     cy="428.92001"
     id="circle1429"
     style="stroke-width:1.99999"
     r="0.62" />
  <polygon
     class="cls-31"
     points="209.08,208.54 210.37,209.91 210.37,217.92 207.67,217.92 207.67,209.91 "
     id="polygon1431"
     transform="scale(2)" />
  <circle
     class="cls-28"
     cx="418.04001"
     cy="421.23999"
     id="circle1433"
     style="stroke-width:1.99999"
     r="0.62" />
  <circle
     class="cls-28"
     cx="418.04001"
     cy="428.92001"
     id="circle1435"
     style="stroke-width:1.99999"
     r="0.62" />
  <polygon
     class="cls-31"
     points="212.73,208.54 214.02,209.91 214.02,217.92 211.32,217.92 211.32,209.91 "
     id="polygon1437"
     transform="scale(2)" />
  <circle
     class="cls-28"
     cx="425.34"
     cy="421.23999"
     id="circle1439"
     style="stroke-width:1.99999"
     r="0.62" />
  <circle
     class="cls-28"
     cx="425.34"
     cy="428.92001"
     id="circle1441"
     style="stroke-width:1.99999"
     r="0.62" />
  <polygon
     class="cls-31"
     points="216.38,208.54 217.67,209.91 217.67,217.92 214.97,217.92 214.97,209.91 "
     id="polygon1443"
     transform="scale(2)" />
  <circle
     class="cls-28"
     cx="432.64001"
     cy="421.23999"
     id="circle1445"
     style="stroke-width:1.99999"
     r="0.62" />
  <circle
     class="cls-28"
     cx="432.64001"
     cy="428.92001"
     id="circle1447"
     style="stroke-width:1.99999"
     r="0.62" />
  <polyline
     class="cls-2"
     points="158 195.75 124.5 195.75 124.5 163.75"
     id="polyline1449"
     transform="scale(2)" />
  <path
     class="cls-13"
     d="m 259.76,419.68 v -31.92 h 18.24 -0.38 8.74 v 31.92 c 0,2.4 -1.94,4.32 -4.32,4.32"
     id="path1451"
     style="stroke-width:1.99999" />
  <path
     class="cls-13"
     d="m 277.72,419.68 c 0,2.4 1.94,4.32 4.32,4.32 h -22.28 c -2.4,0 -4.32,-1.94 -4.32,-4.32 z"
     id="path1453"
     style="stroke-width:1.99999" />
  <rect
     class="cls-14"
     x="270.64001"
     y="410.38"
     width="4.8800001"
     height="4.8800001"
     id="rect1455"
     style="stroke-width:1.99999" />
  <rect
     class="cls-15"
     x="268.20001"
     y="394.42001"
     width="9.7799997"
     height="4.8800001"
     id="rect1457"
     style="stroke-width:1.99999" />
  <rect
     class="cls-14"
     x="278.16"
     y="410.38"
     width="4.8800001"
     height="4.8800001"
     id="rect1459"
     style="stroke-width:1.99999" />
  <rect
     class="cls-14"
     x="263.10001"
     y="410.38"
     width="4.8800001"
     height="4.8800001"
     id="rect1461"
     style="stroke-width:1.99999" />
  <path
     class="cls-17"
     d="m 265.54,410 v -3.32 c 0,-0.46 0.18,-0.94 0.54,-1.3 0.36,-0.36 0.82,-0.54 1.3,-0.54 h 11.4 c 0.46,0 0.94,0.18 1.3,0.54 0.36,0.36 0.54,0.82 0.54,1.3 v 3.16"
     id="path1463"
     style="stroke-width:1.99999" />
  <line
     class="cls-17"
     x1="273.07999"
     y1="409.84"
     x2="273.07999"
     y2="399.66"
     id="line1465"
     style="stroke-width:1.99999" />
  <rect
     class="cls-17"
     x="270.64001"
     y="410.38"
     width="4.8800001"
     height="4.8800001"
     id="rect1467"
     style="stroke-width:1.99999" />
  <rect
     class="cls-14"
     x="268.20001"
     y="394.42001"
     width="9.7799997"
     height="4.8800001"
     id="rect1469"
     style="stroke-width:1.99999" />
  <rect
     class="cls-17"
     x="278.16"
     y="410.38"
     width="4.8800001"
     height="4.8800001"
     id="rect1471"
     style="stroke-width:1.99999" />
  <rect
     class="cls-17"
     x="263.10001"
     y="410.38"
     width="4.8800001"
     height="4.8800001"
     id="rect1473"
     style="stroke-width:1.99999" />
  <path
     class="cls-10"
     d="m 222.46,373.72 h 16.7 v -7.96 l -4.38,-1.46 -2.86,5.28 c -0.22,0.42 -0.66,0.66 -1.12,0.66 -0.46,0 -0.9,-0.26 -1.12,-0.66 l -2.86,-5.28 -4.38,1.46 v 7.96 0 z"
     id="path1475" />
  <path
     class="cls-10"
     d="m 230.8,360.66 c -3.68,0 -6.68,-3 -6.68,-6.68 0,-3.68 3,-6.68 6.68,-6.68 3.68,0 6.68,3 6.68,6.68 0,3.68 -3,6.68 -6.68,6.68 z"
     id="path1477" />
  <path
     class="cls-10"
     d="m 259.32,373.72 h 16.7 v -7.96 l -4.38,-1.46 -2.86,5.28 c -0.22,0.42 -0.66,0.66 -1.12,0.66 -0.46,0 -0.9,-0.26 -1.12,-0.66 l -2.86,-5.28 -4.38,1.46 v 7.96 0 z"
     id="path1479" />
  <path
     class="cls-10"
     d="m 267.66,360.66 c -3.68,0 -6.68,-3 -6.68,-6.68 0,-3.68 3,-6.68 6.68,-6.68 3.68,0 6.68,3 6.68,6.68 0,3.68 -3,6.68 -6.68,6.68 z"
     id="path1481" />
  <path
     class="cls-10"
     d="m 240.98,323.38 h 16.7 v -7.96 l -4.38,-1.46 -2.86,5.28 c -0.22,0.42 -0.66,0.66 -1.12,0.66 -0.46,0 -0.9,-0.26 -1.12,-0.66 l -2.86,-5.28 -4.38,1.46 v 7.96 0 z"
     id="path1483" />
  <path
     class="cls-10"
     d="m 249.34,310.34 c -3.68,0 -6.68,-3 -6.68,-6.68 0,-3.68 3,-6.68 6.68,-6.68 3.68,0 6.68,3 6.68,6.68 0,3.68 -3,6.68 -6.68,6.68 z"
     id="path1485" />
  <polyline
     class="cls-6"
     points="120.55 172.23 124.47 167.52 128.39 172.23"
     id="polyline1487"
     transform="scale(2)" />
  <polyline
     class="cls-1"
     points="151.25 167.75 176 167.75 176 156.25"
     id="polyline1489"
     transform="scale(2)" />
  <rect
     class="cls-24"
     x="316.23999"
     y="355.76001"
     width="60"
     height="79.5"
     id="rect1491" />
  <polyline
     class="cls-3"
     points="158.25 208.75 164.37 198.75 170 202.88 176.37 189.75 182.75 195.75 201.01 171.41"
     id="polyline1493"
     transform="scale(2)" />
  <polygon
     class="cls-31"
     points="204.5,166.75 202.26,175.33 200.74,171.76 196.89,171.3 "
     id="polygon1495"
     transform="scale(2)" />
  <circle
     class="cls-31"
     cx="328.34"
     cy="398"
     id="circle1497"
     style="stroke-width:1.99999"
     r="5.3400002" />
  <circle
     class="cls-31"
     cx="352.76001"
     cy="379.5"
     id="circle1499"
     style="stroke-width:1.99999"
     r="5.3400002" />
  <circle
     class="cls-31"
     cx="340"
     cy="405.76001"
     id="circle1501"
     style="stroke-width:1.99999"
     r="5.3400002" />
  <circle
     class="cls-31"
     cx="365.5"
     cy="390.76001"
     id="circle1503"
     style="stroke-width:1.99999"
     r="5.3400002" />
  <line
     class="cls-3"
     x1="316.5"
     y1="366"
     x2="375"
     y2="366"
     id="line1505" />
  <circle
     class="cls-31"
     cx="322.34"
     cy="361"
     id="circle1507"
     style="stroke-width:1.99999"
     r="1.66" />
  <circle
     class="cls-31"
     cx="327.66"
     cy="361"
     id="circle1509"
     style="stroke-width:1.99999"
     r="1.66" />
  <circle
     class="cls-31"
     cx="333"
     cy="361"
     id="circle1511"
     style="stroke-width:1.99999"
     r="1.66" />
  <path
     class="cls-5"
     d="m 385.12,421.44 h -14.88 c -1.42,0 -2.56,-1.16 -2.56,-2.56 v -18.46 h -1.72 c -0.32,0 -0.6,-0.26 -0.6,-0.6 v -2.9 c 0,-0.32 0.26,-0.6 0.6,-0.6 h 37.24 c 0.32,0 0.6,0.26 0.6,0.6 v 2.9 c 0,0.32 -0.26,0.6 -0.6,0.6 h -1.82 v 18.46 c 0,1.42 -1.16,2.56 -2.56,2.56 h -13.68 z m -19.34,-21.08 h 37.4"
     id="path1513" />
  <path
     class="cls-16"
     d="m 386.16,411.96 v 5.38 c 2.84,-0.28 5.1,-2.54 5.38,-5.38 z"
     id="path1515" />
  <line
     class="cls-18"
     x1="384.57999"
     y1="422"
     x2="384.57999"
     y2="434.84"
     id="line1517" />
  <polyline
     class="cls-18"
     points="189 217.58 192.25 214.17 195.59 217.5"
     id="polyline1519"
     transform="scale(2)" />
  <path
     class="cls-4"
     d="m 383.5,403.3 c -3.3,0 -6,2.7 -6,6 0,3.1 2.38,5.68 5.4,5.98 v -5.98 c 0,-0.32 0.26,-0.6 0.6,-0.6 h 5.98 c -0.3,-3.04 -2.86,-5.4 -5.98,-5.4 z"
     id="path1521" />
  <circle
     class="cls-1"
     cx="352"
     cy="295"
     id="circle1523"
     r="17.5" />
  <circle
     class="cls-1"
     cx="352"
     cy="295"
     id="circle1525"
     r="10.84" />
  <circle
     class="cls-31"
     cx="352"
     cy="295"
     id="circle1527"
     style="stroke-width:1.99999"
     r="5.52" />
  <line
     class="cls-1"
     x1="352"
     y1="295"
     x2="379.84"
     y2="267.16"
     id="line1529" />
  <polyline
     class="cls-1"
     points="185.42 133.58 185.42 138.08 189.92 138.08"
     id="polyline1531"
     transform="scale(2)" />
  <polyline
     class="cls-1"
     points="187.5 131.5 187.5 136 192 136"
     id="polyline1533"
     transform="scale(2)" />
  <circle
     class="cls-21"
     cx="302"
     cy="335.5"
     id="circle1535"
     r="6.5" />
  <circle
     class="cls-21"
     cx="302"
     cy="391"
     id="circle1537"
     r="6.5" />
  <circle
     class="cls-20"
     cx="100.26"
     cy="357.73999"
     id="circle1539"
     r="26.459999" />
  <polygon
     class="cls-30"
     points="58.95,217.52 50.13,217.52 41.31,217.52 45.72,201.56 50.13,185.6 54.54,201.56 "
     id="polygon1541"
     transform="scale(2)" />
  <path
     class="cls-32"
     d="m 119.2,434.68 -8.82,-31.92 -8.82,-31.92 c -0.12,-0.44 -0.46,-0.8 -0.94,-0.94 -0.72,-0.2 -1.46,0.22 -1.66,0.94 l -8.82,31.92 -1.26,4.58 -0.2,0.12 0.1,0.18 -0.56,2.06 -0.04,0.06 v 0 c 0,0 -6.86,24.84 -6.86,24.84 0.18,-0.52 0.68,-0.88 1.26,-0.88 l -1.26,0.88 c -0.06,0.14 -0.08,0.3 -0.08,0.46 0,0.74 0.6,1.36 1.36,1.36 h 35.28 c 0.12,0 0.24,-0.02 0.36,-0.06 0.72,-0.2 1.14,-0.94 0.94,-1.66 z m -6.44,-13.2 -21.02,-12.74 14.98,-9.08 1.06,3.82 z m -12.5,-45.22 5.28,19.08 -9.04,-5.48 z m -7.52,27.22 3.02,-10.92 8.76,5.3 -12.28,7.44 z m -2.14,7.72 20.92,12.68 -15.94,9.66 0.1,0.16 H 84.4 l 6.22,-22.48 z m 9.92,22.48 13.38,-8.1 2.24,8.1 z"
     id="path1543"
     style="stroke-width:1.99999" />
  <circle
     class="cls-19"
     cx="100.26"
     cy="357.73999"
     id="circle1545"
     r="17.98" />
  <path
     class="cls-31"
     d="m 109.32,360.06 v -3.3 c 0,0 -2.74,-0.22 -2.74,-0.22 -0.12,-0.44 -0.28,-0.84 -0.48,-1.24 l 1.84,-2.18 -2.34,-2.34 -2.1,1.78 c -0.38,-0.22 -0.78,-0.4 -1.22,-0.54 l -0.24,-2.84 h -3.3 l -0.22,2.74 c -0.44,0.12 -0.84,0.28 -1.24,0.48 l -2.18,-1.84 -2.34,2.34 1.78,2.1 c -0.22,0.38 -0.4,0.78 -0.54,1.22 l -2.84,0.24 v 3.3 l 2.74,0.22 c 0.12,0.44 0.28,0.84 0.48,1.24 l -1.84,2.18 2.34,2.34 2.1,-1.78 c 0.38,0.22 0.78,0.4 1.22,0.54 l 0.24,2.84 h 3.3 l 0.22,-2.74 c 0.44,-0.12 0.84,-0.28 1.24,-0.48 l 2.18,1.84 2.34,-2.34 -1.78,-2.1 c 0.22,-0.38 0.4,-0.78 0.54,-1.22 z m -9.06,1.36 c -1.74,0 -3.16,-1.42 -3.16,-3.16 0,-1.74 1.42,-3.16 3.16,-3.16 1.74,0 3.16,1.42 3.16,3.16 0,1.74 -1.42,3.16 -3.16,3.16 z"
     id="path1547"
     style="stroke-width:1.99999" />
  <path
     class="cls-3"
     d="m 161.66,194.66 c 0,0 -2,7.34 -1.66,9.34 l 4.5,-4.5"
     id="path1549" />
  <path
     class="cls-19"
     d="m 155.66,171.1 c -1.5,4.28 -2.78,9.34 -3.48,15.16 l -4.3,3.06 c -1.28,0.92 -2.1,2.34 -2.24,3.92 -0.14,1.58 0.44,3.12 1.56,4.24 L 182.72,233 c 1.12,1.12 2.66,1.68 4.24,1.56 1.58,-0.14 3,-0.94 3.92,-2.24 l 4.58,-6.44 35.18,-14.4 10.56,8.14 c 0.26,0.2 0.58,0.28 0.9,0.24 l 3.66,-0.48 c 0.32,-0.04 0.62,-0.2 0.82,-0.46 0.2,-0.26 0.28,-0.58 0.24,-0.9 l -1.58,-12.2 c 0,0 -0.02,-0.08 -0.04,-0.12 0,-0.04 0,-0.08 0,-0.12 l -1.58,-12.2 c -0.08,-0.66 -0.7,-1.14 -1.38,-1.06 l -3.66,0.48 c -0.32,0.04 -0.62,0.2 -0.82,0.46 l -8.4,10.9 -22.14,5.16 14.62,-20.52 c 1.34,-1.88 1.32,-4.36 0,-6.2 l 2.5,-3.9 c 0.32,-0.48 0.24,-1.12 -0.16,-1.52 l -10.6,-10.62 -10.62,-10.62 c -0.4,-0.4 -1.04,-0.48 -1.52,-0.16 l -3.9,2.5 c -1.84,-1.3 -4.32,-1.32 -6.2,0 l -0.54,0.38 -4.36,-3.72 c -2.84,-2.42 -7.82,-2.88 -11.52,-3.04"
     id="path1551" />
  <line
     class="cls-3"
     x1="229.38"
     y1="204.17999"
     x2="230.64"
     y2="211.48"
     id="line1553" />
  <line
     class="cls-3"
     x1="197.58"
     y1="158.32001"
     x2="221.88"
     y2="182.62"
     id="line1555" />
  <rect
     class="cls-28"
     x="213.24844"
     y="-6.3161054"
     width="20.260002"
     height="16.24"
     transform="rotate(45)"
     id="rect1557"
     style="stroke-width:2" />
  <path
     class="cls-20"
     d="m 171.42,178.76 c 0,-0.94 -0.4,-1.8 -1.04,-2.42 l -9.84,-9.62 c -0.62,-0.62 -1.5,-1 -2.44,-0.98 -0.94,0 -1.8,0.4 -2.42,1.04 -0.62,0.64 -1,1.5 -0.98,2.44 0,0.94 0.4,1.8 1.04,2.42 l 9.84,9.62 c 0.62,0.62 1.5,1 2.44,0.98 0.94,0 1.8,-0.4 2.42,-1.04 0.62,-0.64 1,-1.5 0.98,-2.44 z"
     id="path1559" />
  <path
     class="cls-20"
     d="m 160.56,166.72 9.84,9.62 c 0.62,0.62 1.5,1 2.44,0.98 0.94,0 1.8,-0.4 2.42,-1.04 0.62,-0.64 1,-1.5 0.98,-2.44 0,-0.94 -0.4,-1.8 -1.04,-2.42 l -7.38,-7.22"
     id="path1561" />
  <path
     class="cls-20"
     d="m 167.82,164.2 7.38,7.22 c 0.62,0.62 1.5,1 2.44,0.98 0.94,0 1.8,-0.4 2.42,-1.04 0.62,-0.64 1,-1.5 0.98,-2.44 0,-0.94 -0.4,-1.8 -1.04,-2.42 l -7.38,-7.22"
     id="path1563" />
  <path
     class="cls-20"
     d="m 172.62,159.28 7.38,7.22 c 0.62,0.62 1.5,1 2.44,0.98 0.94,0 1.8,-0.4 2.42,-1.04 0.62,-0.64 1,-1.5 0.98,-2.44 0,-0.94 -0.4,-1.8 -1.04,-2.42 l -9.84,-9.62"
     id="path1565" />
  <path
     class="cls-20"
     d="m 155.74,171.64 -19.24,-18.82 14.42,-14.74 c 2.14,2.1 5.1,3.38 8.34,3.34 3.24,-0.04 6.18,1.24 8.34,3.34 l 7.38,7.22 c 0.62,0.62 1.02,1.48 1.04,2.42 0,0.94 -0.36,1.82 -0.98,2.44 l -9.62,9.84 -2.46,-2.4 c -0.62,-0.62 -1.02,-1.48 -1.04,-2.42 -0.02,-0.94 0.36,-1.82 0.98,-2.44 l 4.8,-4.92 c -5.32,5.42 -14.02,5.52 -19.44,0.22"
     id="path1567" />
  <circle
     class="cls-31"
     cx="186"
     cy="193.5"
     id="circle1569"
     style="stroke-width:1.99999"
     r="14" />
  <path
     id="j-green-03"
     class="cls-28"
     d="m 182.36,190.04 v -0.38 c 0,-1.18 0.66,-2.22 1.64,-2.76 -0.46,-0.72 -0.38,-1.7 0.26,-2.34 0.74,-0.74 1.94,-0.74 2.66,0 0.66,0.66 0.72,1.7 0.2,2.44 0.88,0.56 1.48,1.54 1.48,2.66 v 0.16 c 0,0 -1.96,0 -1.96,0 v -0.16 c 0,-0.64 -0.52,-1.16 -1.16,-1.16 -0.64,0 -1.16,0.52 -1.16,1.16 v 0.38 c 0,0 0,1.96 0,1.96 v 2.08 c 0,0 -1.96,0 -1.96,0 V 192 c 0,0 0,-1.96 0,-1.96 z"
     style="stroke-width:1.99999" />
  <path
     id="j-yellow"
     class="cls-28"
     d="m 184.56,190.04 h 2.08 c 0,0 1.96,0 1.96,0 h 0.38 c 1.18,0 2.22,0.66 2.74,1.62 0.74,-0.56 1.8,-0.5 2.48,0.18 0.74,0.74 0.74,1.94 0,2.66 -0.68,0.68 -1.74,0.74 -2.48,0.16 -0.54,0.96 -1.56,1.62 -2.74,1.62 h -0.16 c 0,0 0,-1.96 0,-1.96 h 0.16 c 0.64,0 1.16,-0.52 1.16,-1.16 0,-0.64 -0.52,-1.16 -1.16,-1.16 h -0.38 c 0,0 -1.96,0 -1.96,0 h -2.08 c 0,0 0,-1.96 0,-1.96 z"
     style="stroke-width:1.99999" />
  <path
     id="j-red"
     class="cls-28"
     d="m 184.04,199.44 c -0.98,-0.52 -1.66,-1.56 -1.66,-2.76 v -0.16 c 0,0 1.96,0 1.96,0 v 0.16 c 0,0.64 0.52,1.16 1.16,1.16 0.64,0 1.16,-0.52 1.16,-1.16 v -0.38 c 0,0 0,-1.96 0,-1.96 v -2.08 c 0,0 1.96,0 1.96,0 v 2.08 c 0,0 0,1.96 0,1.96 v 0.38 c 0,1.14 -0.6,2.12 -1.5,2.68 0.56,0.74 0.5,1.8 -0.18,2.46 -0.74,0.74 -1.94,0.74 -2.66,0 -0.64,-0.64 -0.72,-1.64 -0.24,-2.38 z"
     style="stroke-width:1.99999" />
  <path
     id="j-blue"
     class="cls-28"
     d="m 186.42,196.28 h -2.08 c 0,0 -1.96,0 -1.96,0 H 182 c -1.14,0 -2.14,-0.6 -2.68,-1.52 -0.72,0.46 -1.7,0.36 -2.34,-0.26 -0.74,-0.74 -0.74,-1.94 0,-2.66 0.64,-0.64 1.6,-0.72 2.32,-0.28 0.54,-0.92 1.54,-1.54 2.68,-1.54 h 0.16 c 0,0 0,1.96 0,1.96 h -0.16 c -0.64,0 -1.16,0.52 -1.16,1.16 0,0.64 0.52,1.16 1.16,1.16 h 0.38 c 0,0 1.96,0 1.96,0 h 2.08 c 0,0 0,1.96 0,1.96 v 0 z"
     style="stroke-width:1.99999" />
  <rect
     class="cls-8"
     x="-17.332411"
     y="191.04898"
     width="31.5"
     height="13.500001"
     transform="rotate(-45)"
     id="rect1575" />
  <circle
     class="cls-31"
     cx="145.34"
     cy="134.24001"
     id="circle1577"
     style="stroke-width:1.99999"
     r="2.3399999" />
  <path
     class="cls-31"
     d="m 260.14,227.76 c -0.02,1.44 -0.6,2.8 -1.64,3.8 -1.04,1 -2.4,1.54 -3.84,1.52 -1.44,-0.02 -2.8,-0.6 -3.8,-1.64 -1,-1.04 -1.54,-2.4 -1.52,-3.84 0.04,-2.1 3.46,-7.54 4.98,-10.04 0.24,-0.38 0.8,-0.38 1.02,0 1.34,2.32 4.82,8.56 4.8,10.2 z"
     id="path1579"
     style="stroke-width:1.99999" />
  <path
     class="cls-31"
     d="m 244.82,238.42 c 0,0.82 -0.34,1.6 -0.94,2.16 -0.6,0.56 -1.36,0.88 -2.2,0.86 -0.82,0 -1.6,-0.34 -2.16,-0.94 -0.58,-0.6 -0.88,-1.36 -0.86,-2.2 0,-1.2 1.96,-4.3 2.84,-5.72 0.14,-0.22 0.46,-0.22 0.58,0 0.76,1.32 2.74,4.88 2.74,5.82 z"
     id="path1581"
     style="stroke-width:1.99999" />
  <path
     class="cls-31"
     d="m 248.62,256.9 c 0,0.82 -0.34,1.6 -0.94,2.16 -0.6,0.56 -1.36,0.88 -2.2,0.86 -0.82,0 -1.6,-0.34 -2.16,-0.94 -0.58,-0.6 -0.88,-1.36 -0.86,-2.2 0,-1.2 1.96,-4.3 2.84,-5.72 0.14,-0.22 0.46,-0.22 0.58,0 0.76,1.32 2.74,4.88 2.74,5.82 z"
     id="path1583"
     style="stroke-width:1.99999" />
  <path
     class="cls-31"
     d="m 260.84,247.58 c 0,1.28 -0.54,2.46 -1.44,3.34 -0.9,0.88 -2.12,1.36 -3.4,1.34 -1.28,0 -2.46,-0.54 -3.34,-1.44 -0.88,-0.92 -1.36,-2.12 -1.34,-3.4 0.02,-1.84 3.04,-6.66 4.4,-8.86 0.2,-0.34 0.7,-0.34 0.9,0 1.18,2.04 4.26,7.56 4.24,9 z"
     id="path1585"
     style="stroke-width:1.99999" />
  <path
     class="cls-7"
     d="m 127.72,435.66 c 0,-8.84 7.16,-16 16,-16 8.84,0 16,7.16 16,16"
     id="path1587" />
  <path
     class="cls-7"
     d="m 74.72,435.66 h 53"
     id="path1589" />
  <path
     class="cls-7"
     d="M 159.72,435.66 H 513"
     id="path1591" />
  <circle
     id="path1784"
     style="fill:#bc0052;stroke:#333333"
     cx="-75.373131"
     cy="56.716419"
     r="0" />
  <circle
     id="path1786"
     style="fill:#bc0052;stroke:#333333"
     cx="42.537312"
     cy="58.955223"
     r="0" />
</svg>
