<?xml version="1.0" encoding="UTF-8" standalone="no"?>
<svg
   id="world-open-source"
   viewBox="0 0 600 600"
   version="1.1"
   sodipodi:docname="world-open-source.svg"
   width="600"
   height="600"
   inkscape:version="1.2.2 (732a01da63, 2022-12-09)"
   xmlns:inkscape="http://www.inkscape.org/namespaces/inkscape"
   xmlns:sodipodi="http://sodipodi.sourceforge.net/DTD/sodipodi-0.dtd"
   xmlns="http://www.w3.org/2000/svg"
   xmlns:svg="http://www.w3.org/2000/svg">
  <sodipodi:namedview
     id="namedview2796"
     pagecolor="#ffffff"
     bordercolor="#000000"
     borderopacity="0.25"
     inkscape:showpageshadow="2"
     inkscape:pageopacity="0.0"
     inkscape:pagecheckerboard="0"
     inkscape:deskcolor="#d1d1d1"
     showgrid="false"
     inkscape:zoom="1.34"
     inkscape:cx="313.80597"
     inkscape:cy="201.1194"
     inkscape:window-width="1920"
     inkscape:window-height="991"
     inkscape:window-x="-9"
     inkscape:window-y="-9"
     inkscape:window-maximized="1"
     inkscape:current-layer="world-open-source" />
  <defs
     id="defs2566">
    <style
       id="style2564">.cls-1,.cls-2,.cls-3,.cls-4,.cls-5,.cls-6,.cls-7,.cls-8,.cls-9,.cls-10,.cls-11{fill:none;}.cls-1,.cls-2,.cls-3,.cls-4,.cls-5,.cls-6,.cls-7,.cls-12,.cls-13,.cls-14,.cls-15{stroke-linecap:round;}.cls-1,.cls-2,.cls-4,.cls-16,.cls-13{stroke-width:1.5px;}.cls-1,.cls-3,.cls-4,.cls-5,.cls-6,.cls-7,.cls-8,.cls-9,.cls-10,.cls-16,.cls-12,.cls-11{stroke-miterlimit:10;}.cls-1,.cls-9{stroke:#fff;}.cls-2,.cls-17,.cls-18,.cls-3,.cls-4,.cls-5,.cls-6,.cls-10,.cls-16,.cls-12,.cls-13,.cls-14,.cls-15,.cls-11{stroke:#7836b2;}.cls-2,.cls-17,.cls-18,.cls-13,.cls-14,.cls-15{stroke-linejoin:round;}.cls-17,.cls-18{stroke-width:1.23px;}.cls-17,.cls-19,.cls-13,.cls-14{fill:#fff;}.cls-18,.cls-20,.cls-16,.cls-12,.cls-15{fill:#bb9ad8;}.cls-3{stroke-width:1.72px;}.cls-21{fill:#7836b2;}.cls-5{stroke-width:.41px;}.cls-6,.cls-7{stroke-width:.5px;}.cls-7,.cls-8{stroke:#bb9ad8;}.cls-12{stroke-width:1.5px;}.cls-22{fill:#e3e0e0;opacity:.5;}.cls-14,.cls-15{stroke-width:.73px;}.cls-11{stroke-width:.49px;}</style>
  </defs>
  <circle
     class="cls-21"
     cx="532.85999"
     cy="214.2"
     id="circle2568"
     style="stroke-width:1.99999"
     r="2.4000001" />
  <line
     class="cls-7"
     x1="548"
     y1="238"
     x2="548"
     y2="243.46001"
     id="line2570" />
  <line
     class="cls-7"
     x1="550.73999"
     y1="240.74001"
     x2="545.26001"
     y2="240.74001"
     id="line2572" />
  <circle
     class="cls-22"
     cx="293.39999"
     cy="304.78"
     id="circle2574"
     style="stroke-width:1.99999"
     r="211.22" />
  <path
     class="cls-19"
     d="m 580.46,347 h -11.92 c -2.26,0 -4.12,-1.86 -4.12,-4.12 0,-2.26 1.86,-4.12 4.12,-4.12 h 21.6 c 2.56,-0.4 4.78,-2.22 5.26,-4.8 0.7,-3.78 -2.24,-7.12 -5.9,-7.12 h -79.88 c -2.26,0 -4.12,-1.86 -4.12,-4.12 0,-2.26 1.86,-4.12 4.12,-4.12 h 0.96 c 0.3,-0.08 0.62,-0.12 0.94,-0.12 h 37.04 c 2.1,0 3.82,-1.52 3.82,-3.38 0,-1.64 1.34,-3.02 3.1,-3.32 h 16.2 c 3.3,0 6,-2.7 6,-6 0,-3.3 -2.7,-6 -6,-6 H 404.84 c -3.3,0 -6,2.7 -6,6 0,3.3 2.7,6 6,6 h 16.18 c 1.76,0.3 3.1,1.68 3.1,3.32 0,1.86 1.72,3.38 3.82,3.38 l 43.68,0.12 c 2.26,0 4.12,1.86 4.12,4.12 0,2.26 -1.86,4.12 -4.12,4.12 h -8.16 c -2.96,0 -5.72,1.98 -6.26,4.88 -0.7,3.78 2.24,7.12 5.9,7.12 h 32.34 c 1.02,0.12 2.3,0.06 3.5,0.24 h 15.94 c 2.26,0 4.12,1.86 4.12,4.12 0,2.26 -1.86,4.12 -4.12,4.12 h -22.26 c -1.8,0.78 -3.22,2.32 -3.58,4.3 -0.7,3.78 2.24,7.12 5.9,7.12 h 83.54 c 2.96,0 5.72,-1.98 6.26,-4.88 0.58,-3.2 -1.42,-6.06 -4.28,-6.86 z"
     id="path2576"
     style="stroke-width:1.99999" />
  <path
     class="cls-20"
     d="m 235.66,237.5 h -39.88 c 0,0 -0.06,-0.06 -0.08,-0.08 h -0.06 c -2.26,0 -4.12,-1.86 -4.12,-4.12 v -2.04 c 0,-2.26 1.86,-4.12 4.12,-4.12 h 2.88 c 0,0 0.1,0 0.16,0 h 49.66 c 2.82,0 5.12,-2.04 5.12,-4.54 0,-2.5 2.3,-4.54 5.12,-4.54 h 18.38 c 1.48,0 2.84,-0.6 3.8,-1.58 0.98,-0.98 1.58,-2.32 1.58,-3.82 0,-2.96 -2.42,-5.4 -5.4,-5.4 H 58 c -2.96,0 -5.4,2.42 -5.4,5.4 0,1.48 0.6,2.84 1.58,3.82 0.98,0.98 2.32,1.58 3.8,1.58 h 18.38 c 2.82,0 5.12,2.04 5.12,4.54 0,2.5 2.3,4.54 5.12,4.54 h 72.7 c 2.26,0 4.12,1.88 4.12,4.14 v 2.04 c 0,2.26 -1.86,4.12 -4.12,4.12 l -110.66,0.08 c -4.68,0 -8.5,3.82 -8.5,8.5 0,4.68 3.82,8.5 8.5,8.5 h 187 c 4.68,0 8.5,-3.82 8.5,-8.5 0,-4.68 -3.82,-8.5 -8.5,-8.5 z"
     id="path2578"
     style="stroke-width:1.99999" />
  <path
     class="cls-19"
     d="m 210.92,343.42 -7.26,-0.24 c -3.12,0 -5.66,-2.56 -5.66,-5.66 v -0.44 c 0,-3.12 2.56,-5.66 5.66,-5.66 h 18.74 c 2.48,-0.44 4.6,-2.26 5.06,-4.78 0.7,-3.78 -2.24,-7.12 -5.9,-7.12 H 95.52 c -2.96,0 -5.72,1.98 -6.26,4.88 -0.62,3.42 1.72,6.44 4.88,7 h 49.24 c 3.12,0 5.66,2.56 5.66,5.66 v 0.44 c 0,3.12 -2.56,5.66 -5.66,5.66 l -16.02,0.24 c -2.96,0 -5.72,1.98 -6.26,4.88 -0.7,3.78 2.24,7.12 5.9,7.12 h 83.54 c 2.96,0 5.72,-1.98 6.26,-4.88 0.7,-3.78 -2.24,-7.12 -5.9,-7.12 z"
     id="path2580"
     style="stroke-width:1.99999" />
  <rect
     class="cls-19"
     x="67.019997"
     y="344.07999"
     width="47.02"
     height="11.34"
     rx="5.6599998"
     ry="5.6599998"
     id="rect2582"
     style="stroke-width:1.99999" />
  <path
     class="cls-21"
     d="m 413.8,369.88 v -20.04 c 0,-4.76 -3.88,-8.62 -8.64,-8.62 h -82.52 c -4.76,0 -8.62,3.88 -8.62,8.62 v 55.4 c 0,4.76 3.88,8.64 8.62,8.64 h 25.52 c -0.78,6.48 -6.42,11.56 -12.94,11.56 -4.12,0 -7.86,3.54 -7.86,7.86 0,0.78 0.62,1.4 1.4,1.4 h 70.3 c 18.8,0 34.1,-15.3 34.1,-34.1 0,-13.52 -7.94,-25.2 -19.38,-30.72 z m -96.98,-20.04 c 0,-3.2 2.62,-5.82 5.82,-5.82 h 82.52 c 3.22,0 5.82,2.62 5.82,5.82 v 18.84 c -3.72,-1.4 -7.72,-2.2 -11.92,-2.2 -16.96,0 -31.02,12.46 -33.64,28.7 H 316.8 v -45.34 z m 5.82,61.24 c -3.22,0 -5.82,-2.62 -5.82,-5.82 V 398 h 48.28 c -0.06,0.86 -0.14,1.72 -0.14,2.6 0,3.66 0.6,7.16 1.66,10.48 z m 28.36,2.8 h 16.66 c 1.88,4.42 4.66,8.32 8.12,11.56 h -31.54 c 3.76,-2.6 6.3,-6.78 6.78,-11.56 z m -20.64,18.02 c 0.6,-2.12 2.56,-3.66 4.88,-3.66 h 43.94 c 1.98,1.44 4.12,2.68 6.38,3.66 z m 68.7,0 c -17.26,0 -31.3,-14.04 -31.3,-31.3 0,-17.26 14.04,-31.3 31.3,-31.3 17.26,0 31.3,14.04 31.3,31.3 0,17.26 -14.04,31.3 -31.3,31.3 z"
     id="path2584"
     style="stroke-width:1.99999" />
  <g
     id="Rectangle-445"
     transform="scale(2)">
    <polygon
       class="cls-21"
       points="138.57,124.42 134.37,121.84 134.9,120.96 140.53,124.42 134.9,127.88 134.37,127.01 "
       id="polygon2586" />
  </g>
  <g
     id="Rectangle-445-2"
     transform="scale(2)">
    <polygon
       class="cls-21"
       points="149.46,130.06 145.25,127.47 145.79,126.6 151.42,130.06 145.79,133.51 145.25,132.64 "
       id="polygon2589" />
  </g>
  <g
     id="Rectangle-445-3"
     transform="scale(2)">
    <polygon
       class="cls-21"
       points="149.14,115.8 144.94,113.22 145.47,112.34 151.1,115.8 145.47,119.26 144.94,118.39 "
       id="polygon2592" />
  </g>
  <g
     id="Rectangle-445-4"
     transform="scale(2)">
    <polygon
       class="cls-21"
       points="160.49,123.87 156.28,121.28 156.82,120.41 162.45,123.87 156.82,127.32 156.28,126.45 "
       id="polygon2595" />
  </g>
  <g
     id="Rectangle-445-5"
     transform="scale(2)">
    <polygon
       class="cls-21"
       points="170.37,116.28 166.17,113.69 166.7,112.82 172.33,116.28 166.7,119.73 166.17,118.86 "
       id="polygon2598" />
  </g>
  <circle
     class="cls-5"
     cx="218.92"
     cy="141.67999"
     id="circle2601"
     r="2.9400001" />
  <circle
     class="cls-8"
     cx="135.89999"
     cy="134.78"
     id="circle2603"
     style="stroke-width:1.99999"
     r="3.6800001" />
  <circle
     class="cls-10"
     cx="126.48"
     cy="173.39999"
     id="circle2605"
     style="stroke-width:1.99999"
     r="2.4000001" />
  <circle
     class="cls-20"
     cx="265"
     cy="187.60001"
     id="circle2607"
     style="stroke-width:1.99999"
     r="2.4000001" />
  <circle
     class="cls-21"
     cx="177.34"
     cy="154.94"
     id="circle2609"
     style="stroke-width:1.99999"
     r="2.4000001" />
  <line
     class="cls-6"
     x1="88.800003"
     y1="134.78"
     x2="88.800003"
     y2="140.25999"
     id="line2611" />
  <line
     class="cls-6"
     x1="91.519997"
     y1="137.52"
     x2="86.059998"
     y2="137.52"
     id="line2613" />
  <line
     class="cls-6"
     x1="112"
     y1="275.54001"
     x2="112"
     y2="281"
     id="line2615" />
  <line
     class="cls-6"
     x1="114.74"
     y1="278.26001"
     x2="109.26"
     y2="278.26001"
     id="line2617" />
  <circle
     class="cls-8"
     cx="145.72"
     cy="293"
     id="circle2619"
     style="stroke-width:1.99999"
     r="3.6800001" />
  <circle
     class="cls-10"
     cx="111.76"
     cy="313.64001"
     id="circle2621"
     style="stroke-width:1.99999"
     r="2.4000001" />
  <circle
     class="cls-21"
     cx="160.75999"
     cy="336.54001"
     id="circle2623"
     style="stroke-width:1.99999"
     r="2.4000001" />
  <circle
     class="cls-9"
     cx="254.06"
     cy="154.17999"
     id="circle2625"
     style="stroke-width:1.99999"
     r="3.6800001" />
  <circle
     class="cls-19"
     cx="218.34"
     cy="172.94"
     id="circle2627"
     style="stroke-width:1.99999"
     r="2.4000001" />
  <circle
     class="cls-7"
     cx="543.08002"
     cy="337.64001"
     id="circle2629"
     r="2.9400001" />
  <circle
     class="cls-7"
     cx="490.73999"
     cy="248.94"
     id="circle2631"
     r="2.9400001" />
  <circle
     class="cls-8"
     cx="512.73999"
     cy="280.06"
     id="circle2633"
     style="stroke-width:1.99999"
     r="3.6800001" />
  <circle
     class="cls-10"
     cx="503.32001"
     cy="318.67999"
     id="circle2635"
     style="stroke-width:1.99999"
     r="2.4000001" />
  <circle
     class="cls-20"
     cx="515.90002"
     cy="359.82001"
     id="circle2637"
     style="stroke-width:1.99999"
     r="2.4000001" />
  <circle
     class="cls-21"
     cx="554.15997"
     cy="300.22"
     id="circle2639"
     style="stroke-width:1.99999"
     r="2.4000001" />
  <circle
     class="cls-19"
     cx="482.38"
     cy="348.01999"
     id="circle2641"
     style="stroke-width:1.99999"
     r="2.4000001" />
  <line
     class="cls-6"
     x1="465.64001"
     y1="280.06"
     x2="465.64001"
     y2="285.54001"
     id="line2643" />
  <line
     class="cls-6"
     x1="468.35999"
     y1="282.79999"
     x2="462.89999"
     y2="282.79999"
     id="line2645" />
  <line
     class="cls-7"
     x1="569.32001"
     y1="324.01999"
     x2="569.32001"
     y2="329.48001"
     id="line2647" />
  <line
     class="cls-7"
     x1="572.03998"
     y1="326.73999"
     x2="566.58002"
     y2="326.73999"
     id="line2649" />
  <circle
     class="cls-13"
     cx="434.23999"
     cy="222"
     id="circle2651"
     r="35.759998" />
  <path
     class="cls-12"
     d="M 202.18,434.66 V 306.5 h 85 v 128.38"
     id="path2653" />
  <path
     class="cls-13"
     d="m 358.72,475 h -19.78 v -24.72 h 14.26 l 5.52,5.52 z"
     id="path2655" />
  <line
     class="cls-2"
     x1="345.57999"
     y1="461.57999"
     x2="351.57999"
     y2="461.57999"
     id="line2657" />
  <line
     class="cls-2"
     x1="345.57999"
     y1="467.23999"
     x2="351.57999"
     y2="467.23999"
     id="line2659" />
  <polyline
     class="cls-21"
     points="175.88 225.12 175.88 228 179.25 228"
     id="polyline2661"
     transform="scale(2)" />
  <path
     class="cls-16"
     d="m 374.36,497.5 c 2.02,0 4.18,-0.84 6.34,-2.26 h 0.04 c 0.66,0 1.22,-0.44 1.4,-1.04 8.16,-6.38 15.84,-20.58 15.84,-29.9 0,-2.4 -1.12,-3.6 -3.32,-3.6 h -16.84 c -2.14,0 -3.64,0.44 -4.84,1.44 -0.6,0.5 -1.12,1.46 -1.84,2.8 -1.72,3.16 -4.3,7.94 -9,7.94 h -45.26 c -2.26,0 -4.48,2.16 -4.48,4.34 v 5.14 c 0,3.1 5.24,8.4 10.38,11.66 0,0 12.94,8.72 51.56,3.46 z"
     id="path2663" />
  <line
     class="cls-2"
     x1="318.76001"
     y1="490"
     x2="385.5"
     y2="490"
     id="line2665" />
  <path
     class="cls-16"
     d="m 390.24,319.24 h -42.18 c -0.82,0 -1.48,0.66 -1.48,1.48 v 30.92 c 0,0.82 0.66,1.48 1.48,1.48 h 21.58 c 0.4,0 0.78,0.16 1.04,0.44 l 7.82,7.82 c 0.94,0.94 2.54,0.28 2.54,-1.04 v -5.72 c 0,-0.82 0.66,-1.48 1.48,-1.48 h 7.72 c 0.82,0 1.48,-0.66 1.48,-1.48 v -30.92 c 0,-0.82 -0.66,-1.48 -1.48,-1.48 z"
     id="path2667" />
  <line
     class="cls-1"
     x1="356.94"
     y1="332.23999"
     x2="381.34"
     y2="332.23999"
     id="line2669" />
  <line
     class="cls-1"
     x1="356.94"
     y1="340.22"
     x2="381.34"
     y2="340.22"
     id="line2671" />
  <path
     class="cls-21"
     d="m 507.44,410.04 c -0.64,-0.52 -1.58,-0.42 -2.1,0.2 l -2.54,3.1 c -0.86,1.06 -2.56,0.48 -2.62,-0.86 v -4.94 c 0,-0.32 0.12,-0.62 0.32,-0.88 l 7.14,-8.72 c 0.52,-0.64 0.42,-1.58 -0.2,-2.1 v 0 c -0.64,-0.52 -1.58,-0.42 -2.1,0.2 l -2.54,3.1 c -0.86,1.06 -2.56,0.48 -2.62,-0.86 v -6.7 c 0,-0.82 -0.68,-1.5 -1.5,-1.5 -0.82,0 -1.5,0.68 -1.5,1.5 v 6.7 c -0.06,1.34 -1.76,1.94 -2.62,0.88 l -2.54,-3.1 c -0.52,-0.64 -1.46,-0.72 -2.1,-0.2 v 0 c -0.64,0.52 -0.72,1.46 -0.2,2.1 l 7.14,8.72 c 0.2,0.24 0.32,0.56 0.32,0.88 v 4.92 c -0.06,1.34 -1.76,1.94 -2.62,0.88 l -2.54,-3.1 c -0.52,-0.64 -1.46,-0.72 -2.1,-0.2 v 0 c -0.64,0.52 -0.72,1.46 -0.2,2.1 l 7.14,8.72 c 0.2,0.26 0.32,0.56 0.32,0.88 v 12.12 c 0,0 0,0.04 0,0.06 v 0.38 c 0,0.82 0.66,1.48 1.48,1.48 v 0 c 0.82,0 1.48,-0.66 1.48,-1.48 v -0.36 c 0,0 0,-0.04 0,-0.06 v -12.12 c 0,-0.32 0.12,-0.62 0.32,-0.88 l 7.14,-8.72 c 0.52,-0.64 0.42,-1.58 -0.2,-2.1 v 0 z"
     id="path2673"
     style="stroke-width:1.99999" />
  <path
     class="cls-21"
     d="m 479.42,392.86 7.14,-8.72 c 0.52,-0.64 0.42,-1.58 -0.2,-2.1 v 0 c -0.64,-0.52 -1.58,-0.42 -2.1,0.2 l -2.54,3.1 c -0.86,1.06 -2.56,0.48 -2.62,-0.86 v -4.94 c 0,-0.32 0.12,-0.62 0.32,-0.88 l 7.14,-8.72 c 0.52,-0.64 0.42,-1.58 -0.2,-2.1 v 0 c -0.64,-0.52 -1.58,-0.42 -2.1,0.2 l -2.54,3.1 c -0.86,1.06 -2.56,0.48 -2.62,-0.86 v -6.7 c 0,-0.82 -0.68,-1.5 -1.5,-1.5 -0.82,0 -1.5,0.68 -1.5,1.5 v 6.7 c -0.06,1.34 -1.76,1.94 -2.62,0.88 l -2.54,-3.1 c -0.52,-0.64 -1.46,-0.72 -2.1,-0.2 v 0 c -0.64,0.52 -0.72,1.46 -0.2,2.1 l 7.14,8.72 c 0.2,0.24 0.32,0.56 0.32,0.88 v 4.92 c -0.06,1.34 -1.76,1.94 -2.62,0.88 l -2.54,-3.1 c -0.52,-0.64 -1.46,-0.72 -2.1,-0.2 v 0 c -0.64,0.52 -0.72,1.46 -0.2,2.1 l 7.14,8.72 c 0.2,0.26 0.32,0.56 0.32,0.88 v 4.54 c -0.06,1.34 -1.76,1.94 -2.62,0.88 l -2.54,-3.1 c -0.52,-0.64 -1.46,-0.72 -2.1,-0.2 v 0 c -0.64,0.52 -0.72,1.46 -0.2,2.1 l 7.14,8.72 c 0.2,0.24 0.32,0.56 0.32,0.88 v 4.92 c -0.06,1.34 -1.76,1.94 -2.62,0.88 l -2.54,-3.1 c -0.52,-0.64 -1.46,-0.72 -2.1,-0.2 v 0 c -0.64,0.52 -0.72,1.46 -0.2,2.1 l 7.14,8.72 c 0.2,0.26 0.32,0.56 0.32,0.88 v 12.12 c 0,0 0,0.04 0,0.06 v 0.38 c 0,0.82 0.66,1.48 1.48,1.48 v 0 c 0.82,0 1.48,-0.66 1.48,-1.48 v -0.36 c 0,0 0,-0.04 0,-0.06 V 421.8 c 0,-0.32 0.12,-0.62 0.32,-0.88 l 7.14,-8.72 c 0.52,-0.64 0.42,-1.58 -0.2,-2.1 v 0 c -0.64,-0.52 -1.58,-0.42 -2.1,0.2 l -2.54,3.1 c -0.86,1.06 -2.56,0.48 -2.62,-0.86 v -4.94 c 0,-0.32 0.12,-0.62 0.32,-0.88 l 7.14,-8.72 c 0.52,-0.64 0.42,-1.58 -0.2,-2.1 v 0 c -0.64,-0.52 -1.58,-0.42 -2.1,0.2 l -2.54,3.1 c -0.86,1.06 -2.56,0.48 -2.62,-0.86 v -4.56 c 0,-0.32 0.12,-0.62 0.32,-0.88 z"
     id="path2675"
     style="stroke-width:1.99999" />
  <path
     class="cls-21"
     d="m 95.72,391.36 7.14,-8.72 c 0.52,-0.64 0.42,-1.58 -0.2,-2.1 v 0 c -0.64,-0.52 -1.58,-0.42 -2.1,0.2 l -2.54,3.1 c -0.86,1.06 -2.56,0.48 -2.62,-0.86 v -4.94 c 0,-0.32 0.12,-0.62 0.32,-0.88 l 7.14,-8.72 c 0.52,-0.64 0.42,-1.58 -0.2,-2.1 v 0 c -0.64,-0.52 -1.58,-0.42 -2.1,0.2 l -2.54,3.1 c -0.86,1.06 -2.56,0.48 -2.62,-0.86 v -6.7 c 0,-0.82 -0.68,-1.5 -1.5,-1.5 -0.82,0 -1.5,0.68 -1.5,1.5 v 6.7 c -0.06,1.34 -1.76,1.94 -2.62,0.88 l -2.54,-3.1 c -0.52,-0.64 -1.46,-0.72 -2.1,-0.2 v 0 c -0.64,0.52 -0.72,1.46 -0.2,2.1 l 7.14,8.72 c 0.2,0.24 0.32,0.56 0.32,0.88 v 4.92 c -0.06,1.34 -1.76,1.94 -2.62,0.88 l -2.54,-3.1 c -0.52,-0.64 -1.46,-0.72 -2.1,-0.2 v 0 c -0.64,0.52 -0.72,1.46 -0.2,2.1 l 7.14,8.72 c 0.2,0.26 0.32,0.56 0.32,0.88 v 4.54 c -0.06,1.34 -1.76,1.94 -2.62,0.88 l -2.54,-3.1 c -0.52,-0.64 -1.46,-0.72 -2.1,-0.2 v 0 c -0.64,0.52 -0.72,1.46 -0.2,2.1 l 7.14,8.72 c 0.2,0.24 0.32,0.56 0.32,0.88 V 411 c -0.06,1.34 -1.76,1.94 -2.62,0.88 l -2.54,-3.1 c -0.52,-0.64 -1.46,-0.72 -2.1,-0.2 v 0 c -0.64,0.52 -0.72,1.46 -0.2,2.1 l 7.14,8.72 c 0.2,0.26 0.32,0.56 0.32,0.88 v 12.12 c 0,0 0,0.04 0,0.06 v 0.38 c 0,0.82 0.66,1.48 1.48,1.48 v 0 c 0.82,0 1.48,-0.66 1.48,-1.48 v -0.36 c 0,0 0,-0.04 0,-0.06 V 420.3 c 0,-0.32 0.12,-0.62 0.32,-0.88 l 7.14,-8.72 c 0.52,-0.64 0.42,-1.58 -0.2,-2.1 v 0 c -0.64,-0.52 -1.58,-0.42 -2.1,0.2 l -2.54,3.1 c -0.86,1.06 -2.56,0.48 -2.62,-0.86 v -4.94 c 0,-0.32 0.12,-0.62 0.32,-0.88 l 7.14,-8.72 c 0.52,-0.64 0.42,-1.58 -0.2,-2.1 v 0 c -0.64,-0.52 -1.58,-0.42 -2.1,0.2 l -2.54,3.1 c -0.86,1.06 -2.56,0.48 -2.62,-0.86 v -4.56 c 0,-0.32 0.12,-0.62 0.32,-0.88 z"
     id="path2677"
     style="stroke-width:1.99999" />
  <path
     class="cls-17"
     d="m 349.04,359.26 h -4.58 c -1.04,0 -1.88,-0.84 -1.88,-1.88 v -4.22 c 0,-1.04 -0.84,-1.88 -1.88,-1.88 h -64.68 c -1.04,0 -1.88,0.84 -1.88,1.88 v 22.46 c 0,1.04 0.84,1.88 1.88,1.88 h 64.68 c 1.04,0 1.88,-0.84 1.88,-1.88 v -5.02 c 0,-0.52 0.22,-1 0.58,-1.36 l 7.14,-6.74 c 1.24,-1.16 0.4,-3.24 -1.28,-3.24 z"
     id="path2679" />
  <line
     class="cls-2"
     x1="283.98001"
     y1="360.85999"
     x2="300.17999"
     y2="360.85999"
     id="line2681" />
  <line
     class="cls-2"
     x1="306.72"
     y1="360.85999"
     x2="332.42001"
     y2="360.85999"
     id="line2683" />
  <line
     class="cls-2"
     x1="283.98001"
     y1="367.76001"
     x2="314.51999"
     y2="367.76001"
     id="line2685" />
  <path
     class="cls-13"
     d="m 253.34,389.66 c 0,-4.78 -3.88,-8.66 -8.66,-8.66 -4.78,0 -8.66,3.88 -8.66,8.66 0,2.28 0.9,4.34 2.34,5.88 l -1.34,22.12 h 15.34 l -1.34,-22.12 c 1.44,-1.54 2.34,-3.6 2.34,-5.88 z"
     id="path2687" />
  <path
     class="cls-2"
     d="m 156.12,396.74 4.66,-0.38 c 0.3,-1.3 0.78,-2.52 1.42,-3.68 l -3.12,-3.7 4.72,-4.72 3.56,3.02 c 1.12,-0.7 2.34,-1.22 3.62,-1.6 l 0.4,-4.82 h 6.66 c 0,0 0.38,4.64 0.38,4.64 1.3,0.3 2.52,0.78 3.68,1.42 l 3.7,-3.12 4.72,4.72 -3.02,3.56 c 0.7,1.12 1.22,2.34 1.6,3.62 l 4.56,0.38 m 0.12,10.7 -4.52,0.38 c -0.3,1.3 -0.78,2.52 -1.42,3.68 l 3.12,3.7 -4.72,4.72 -3.56,-3.02 c -1.12,0.7 -2.34,1.22 -3.62,1.6 l -0.4,4.82 H 172 c 0,0 -0.38,-4.64 -0.38,-4.64 -1.3,-0.3 -2.52,-0.78 -3.68,-1.42 l -3.7,3.12 -4.72,-4.72 3.02,-3.56 c -0.7,-1.12 -1.22,-2.34 -1.6,-3.62 l -4.82,-0.4"
     id="path2689" />
  <circle
     class="cls-20"
     cx="175"
     cy="401.73999"
     id="circle2691"
     style="stroke-width:1.99999"
     r="9.1000004" />
  <path
     class="cls-13"
     d="m 122.48,408.16 c 0,-0.34 0.02,-0.68 0.08,-1.02 -1.28,1.28 -3.04,2.08 -5,2.08 -3.88,0 -7.02,-3.14 -7.02,-7.02 0,-3.88 3.14,-7.02 7.02,-7.02 1.94,0 3.72,0.8 5,2.08 -0.04,-0.34 -0.08,-0.68 -0.08,-1.02 0,-3.88 3.14,-7.02 7.02,-7.02 3.88,0 7.02,3.14 7.02,7.02 0,2.52 -1.34,4.74 -3.32,5.98 2,1.24 3.32,3.44 3.32,5.98 0,3.88 -3.14,7.02 -7.02,7.02 -3.88,0 -7.02,-3.14 -7.02,-7.02 z"
     id="path2693" />
  <line
     class="cls-2"
     x1="134.34"
     y1="402.17999"
     x2="233.06"
     y2="402.17999"
     id="line2695" />
  <polyline
     class="cls-2"
     points="114.71 201.09 114.71 197.03 116.53 197.03"
     id="polyline2697"
     transform="scale(2)" />
  <polyline
     class="cls-2"
     points="105.42 201.09 105.42 197.03 103.6 197.03"
     id="polyline2699"
     transform="scale(2)" />
  <line
     class="cls-2"
     x1="220.14"
     y1="394.06"
     x2="220.14"
     y2="402.17999"
     id="line2701" />
  <path
     class="cls-20"
     d="m 421.52,405.7 -6.34,5.1 -0.4,-5.08 -4.18,0.64 -0.56,-4.68 -2.86,1.42 -0.84,-0.64 -2.54,-2.44 -0.72,3.24 1.94,1.88 -8.14,7.6 -2.26,0.3 -0.1,-4.2 1.48,-6.3 -2.98,-1.46 -0.36,-2.74 3.66,-3.72 2.78,0.56 1.14,1.68 4.12,0.78 -3.18,-3.94 -3.2,-2.06 0.26,-1.06 4.1,-0.36 -0.5,-2.66 4.62,-1.4 3.06,2.76 6.72,0.86 c 0,0 2.8,-0.14 5.98,-0.3 -2.54,-5.44 -6.96,-10.02 -12.88,-12.62 -5.86,-2.58 -12.16,-2.78 -17.84,-1.04 l -1.64,1.14 -4.14,3.02 c -0.12,0.08 -0.16,0.22 -0.14,0.36 l 0.56,3.22 c 0.02,0.14 0.14,0.26 0.24,0.3 0.12,0.06 0.28,0.04 0.38,-0.04 l 2.34,-1.56 1.4,4.46 -7.44,2.2 -3.2,-1.08 c -0.14,-0.06 -0.3,0 -0.42,0.1 l -1.44,1.48 c 0,0 -0.12,0.22 -0.08,0.36 l 0.96,3.38 -2.68,-2.9 -0.32,-0.98 c -0.1,0.24 -0.22,0.46 -0.32,0.7 -5.7,12.94 0.2,28.08 13.12,33.78 12.94,5.7 28.1,-0.18 33.8,-13.12 1.04,-2.34 1.68,-4.76 1.98,-7.18 l -2.98,2.2 z m -19.08,-27.52 -3.3,4.38 -4.88,1.18 -0.36,-6.48 c 4.7,-0.16 7.48,0.56 8.52,0.92 z m -25.16,32.4 -0.06,-2.88 2.24,-4.96 c 0,0 0.04,-0.12 0.04,-0.18 l -0.4,-4.8 4.24,-3.7 4.02,8.36 -10.08,8.18 z"
     id="path2703"
     style="stroke-width:1.99999" />
  <path
     class="cls-21"
     d="m 225.86,485.5 c -2.8,0 -6.68,-0.72 -9.64,-2.68 -2.96,1.96 -6.84,2.68 -9.64,2.68 -2.8,0 -6.68,-0.72 -9.64,-2.68 -2.96,1.96 -6.84,2.68 -9.64,2.68 -2.8,0 -6.68,-0.72 -9.64,-2.68 -2.96,1.96 -6.84,2.68 -9.64,2.68 -2.8,0 -6.68,-0.72 -9.64,-2.68 -2.96,1.96 -6.84,2.68 -9.64,2.68 -1.12,0 -2.2,-0.08 -3.4,-0.28 l 0.38,-2.46 c 1.08,0.16 2.04,0.24 3.02,0.24 2.5,0 6.34,-0.7 8.88,-2.7 l 0.78,-0.6 0.78,0.6 c 2.54,2 6.36,2.7 8.88,2.7 2.52,0 6.34,-0.7 8.88,-2.7 l 0.78,-0.6 0.78,0.6 c 2.54,2 6.36,2.7 8.88,2.7 2.52,0 6.34,-0.7 8.88,-2.7 l 0.78,-0.6 0.78,0.6 c 2.54,2 6.36,2.7 8.88,2.7 2.52,0 6.34,-0.7 8.88,-2.7 l 0.78,-0.6 0.78,0.6 c 2.54,2 6.36,2.7 8.88,2.7 1.04,0 1.96,-0.14 2.8,-0.44 l 0.82,2.36 c -1.12,0.4 -2.3,0.58 -3.62,0.58 z"
     id="path2705"
     style="stroke-width:1.99999" />
  <path
     class="cls-21"
     d="m 304.58,467.72 c -0.84,0.3 -1.76,0.44 -2.8,0.44 -2.5,0 -6.34,-0.7 -8.88,-2.7 l -0.78,-0.6 -0.78,0.6 c -2.54,2 -6.36,2.7 -8.88,2.7 -2.52,0 -6.34,-0.7 -8.88,-2.7 l -0.78,-0.6 -0.78,0.6 c -1.54,1.22 -3.56,1.96 -5.48,2.34 v -0.08 c -0.36,0.12 -0.72,0.2 -1.08,0.26 -0.72,0.1 -1.42,0.16 -2.04,0.16 -2.5,-0.04 -6.14,-0.78 -8.58,-2.7 l -0.78,-0.6 -0.28,0.22 -0.28,-0.22 -0.78,0.6 c -2.44,1.92 -6.08,2.66 -8.58,2.7 -2.5,-0.04 -6.14,-0.78 -8.58,-2.7 l -0.78,-0.6 -0.28,0.22 -0.28,-0.22 -0.78,0.6 c -2.44,1.92 -6.08,2.66 -8.58,2.7 -2.5,-0.04 -6.14,-0.78 -8.58,-2.7 l -0.78,-0.6 -0.78,0.6 c -2.54,2 -6.36,2.7 -8.88,2.7 -2.52,0 -6.34,-0.7 -8.88,-2.7 l -0.78,-0.6 -0.78,0.6 c -2.54,2 -6.36,2.7 -8.88,2.7 -0.98,0 -1.94,-0.08 -3.02,-0.24 l -0.38,2.46 c 1.2,0.18 2.28,0.28 3.4,0.28 2.8,0 6.68,-0.72 9.64,-2.68 2.96,1.96 6.84,2.68 9.64,2.68 2.8,0 6.68,-0.72 9.64,-2.68 1.72,1.14 3.74,1.86 5.7,2.26 v 0.16 c 1.18,0.18 2.26,0.28 3.38,0.28 0.1,0 0.2,0 0.28,0 0.1,0 0.2,0 0.28,0 2.7,0 6.44,-0.68 9.36,-2.52 2.92,1.84 6.64,2.52 9.36,2.52 0.1,0 0.2,0 0.28,0 0.1,0 0.2,0 0.28,0 2.7,0 6.42,-0.68 9.36,-2.52 2.92,1.84 6.66,2.52 9.36,2.52 0.1,0 0.2,0 0.28,0 0.1,0 0.2,0 0.28,0 0.14,0 0.26,-0.02 0.4,-0.04 0.16,0 0.32,-0.02 0.48,-0.04 0.44,-0.04 0.86,-0.06 1.28,-0.14 2.3,-0.34 4.82,-1.08 6.92,-2.48 2.96,1.96 6.84,2.68 9.64,2.68 2.8,0 6.68,-0.72 9.64,-2.68 2.96,1.96 6.84,2.68 9.64,2.68 1.32,0 2.5,-0.2 3.62,-0.58 l -0.82,-2.36 z"
     id="path2707"
     style="stroke-width:1.99999" />
  <circle
     class="cls-13"
     cx="381.39999"
     cy="474.70001"
     id="circle2709"
     r="7.2600002" />
  <path
     class="cls-21"
     d="m 393.78,499.9 c -2.8,0 -6.68,-0.72 -9.64,-2.68 -2.96,1.96 -6.84,2.68 -9.64,2.68 -2.8,0 -6.68,-0.72 -9.64,-2.68 -2.96,1.96 -6.84,2.68 -9.64,2.68 -2.8,0 -6.68,-0.72 -9.64,-2.68 -2.96,1.96 -6.84,2.68 -9.64,2.68 -2.8,0 -6.68,-0.72 -9.64,-2.68 -2.96,1.96 -6.84,2.68 -9.64,2.68 -1.12,0 -2.2,-0.08 -3.4,-0.28 l 0.38,-2.46 c 1.08,0.16 2.04,0.24 3.02,0.24 2.5,0 6.34,-0.7 8.88,-2.7 l 0.78,-0.6 0.78,0.6 c 2.54,2 6.36,2.7 8.88,2.7 2.52,0 6.34,-0.7 8.88,-2.7 l 0.78,-0.6 0.78,0.6 c 2.54,2 6.36,2.7 8.88,2.7 2.52,0 6.34,-0.7 8.88,-2.7 l 0.78,-0.6 0.78,0.6 c 2.54,2 6.36,2.7 8.88,2.7 2.52,0 6.34,-0.7 8.88,-2.7 l 0.78,-0.6 0.78,0.6 c 2.54,2 6.36,2.7 8.88,2.7 1.04,0 1.96,-0.14 2.8,-0.44 l 0.82,2.36 c -1.12,0.4 -2.3,0.58 -3.62,0.58 z"
     id="path2711"
     style="stroke-width:1.99999" />
  <path
     class="cls-13"
     d="m 341.46,482.74 h -19.78 v -24.72 h 14.26 l 5.52,5.52 z"
     id="path2713" />
  <line
     class="cls-2"
     x1="328.34"
     y1="469.34"
     x2="334.34"
     y2="469.34"
     id="line2715" />
  <line
     class="cls-2"
     x1="328.34"
     y1="475"
     x2="334.34"
     y2="475"
     id="line2717" />
  <polyline
     class="cls-21"
     points="167.25 229 167.25 231.88 170.62 231.88"
     id="polyline2719"
     transform="scale(2)" />
  <path
     class="cls-18"
     d="m 301.74,433.96 c 0.32,0 0.66,-0.12 0.9,-0.38 0.26,-0.24 0.38,-0.56 0.38,-0.9 v -8.22 c 0,-0.54 -0.42,-0.96 -0.96,-0.96 -0.3,0 -0.56,0.1 -0.72,0.32 -0.72,0.9 -1.7,1.6 -2.94,1.6 -1.92,0 -3.48,-1.56 -3.48,-3.48 0,-1.92 1.56,-3.48 3.48,-3.48 1.24,0 2.22,0.7 2.94,1.6 0.18,0.22 0.42,0.32 0.72,0.32 0.52,0 0.96,-0.42 0.96,-0.96 v -8.22 c 0,-0.32 -0.12,-0.66 -0.38,-0.9 -0.24,-0.24 -0.56,-0.38 -0.9,-0.38 h -8.22 c -0.54,0 -0.96,-0.42 -0.96,-0.96 0,-0.3 0.14,-0.58 0.36,-0.74 0.94,-0.68 1.6,-1.68 1.6,-2.92 0,-1.92 -1.56,-3.48 -3.48,-3.48 -1.92,0 -3.48,1.56 -3.48,3.48 0,1.24 0.66,2.24 1.6,2.92 0.22,0.16 0.34,0.44 0.34,0.74 0,0.52 -0.42,0.96 -0.96,0.96 h -8.22 c -0.32,0 -0.66,0.12 -0.9,0.38 -0.24,0.24 -0.38,0.56 -0.38,0.9 v 8.22 c 0,0.54 0.44,0.96 0.96,0.96 0.3,0 0.56,-0.1 0.72,-0.32 0.72,-0.9 1.7,-1.6 2.94,-1.6 1.92,0 3.48,1.56 3.48,3.48 0,1.92 -1.56,3.48 -3.48,3.48 -1.24,0 -2.22,-0.7 -2.94,-1.6 -0.16,-0.22 -0.42,-0.32 -0.72,-0.32 -0.52,0 -0.96,0.44 -0.96,0.96 v 8.22 c 0,0.32 0.12,0.66 0.38,0.9 0.24,0.24 0.58,0.38 0.9,0.38 h 21.46 z"
     id="path2721" />
  <path
     class="cls-17"
     d="m 303,387.2 c 0,-0.32 -0.12,-0.66 -0.38,-0.9 -0.24,-0.24 -0.56,-0.38 -0.9,-0.38 h -8.22 c -0.54,0 -0.96,0.42 -0.96,0.96 0,0.3 0.12,0.56 0.32,0.72 0.9,0.72 1.62,1.7 1.62,2.94 0,1.92 -1.56,3.48 -3.48,3.48 -1.92,0 -3.48,-1.56 -3.48,-3.48 0,-1.24 0.7,-2.22 1.6,-2.94 0.22,-0.18 0.32,-0.42 0.32,-0.72 0,-0.52 -0.42,-0.96 -0.96,-0.96 h -8.22 c -0.32,0 -0.66,0.12 -0.9,0.38 -0.24,0.24 -0.38,0.56 -0.38,0.9 v 8.22 c 0,0.54 -0.42,0.96 -0.96,0.96 -0.3,0 -0.58,-0.14 -0.74,-0.34 -0.68,-0.92 -1.68,-1.58 -2.92,-1.58 -1.92,0 -3.48,1.56 -3.48,3.48 0,1.92 1.56,3.48 3.48,3.48 1.22,0 2.24,-0.66 2.92,-1.58 0.16,-0.22 0.44,-0.34 0.74,-0.34 0.52,0 0.96,0.42 0.96,0.96 v 8.22 c 0,0.32 0.12,0.66 0.38,0.9 0.24,0.24 0.58,0.38 0.9,0.38 h 8.22 c 0.54,0 0.96,-0.42 0.96,-0.96 0,-0.3 -0.1,-0.56 -0.32,-0.72 -0.9,-0.72 -1.6,-1.7 -1.6,-2.94 0,-1.92 1.56,-3.48 3.48,-3.48 1.92,0 3.48,1.56 3.48,3.48 0,1.24 -0.72,2.22 -1.62,2.94 -0.22,0.18 -0.32,0.42 -0.32,0.72 0,0.54 0.42,0.96 0.96,0.96 h 8.22 c 0.32,0 0.66,-0.12 0.9,-0.38 0.26,-0.24 0.38,-0.56 0.38,-0.9 z"
     id="path2723" />
  <polyline
     class="cls-3"
     points="206.75 180 217.33 180 217.33 129.5"
     id="polyline2725"
     transform="scale(2)" />
  <path
     class="cls-4"
     d="m 277.84,305.66 v -3.06 l -7.52,-1.16 c -0.28,-1.72 -0.72,-3.38 -1.32,-4.96 l 5.92,-4.76 -3.06,-5.3 -7.08,2.76 c -1.08,-1.32 -2.3,-2.54 -3.64,-3.64 l 2.76,-7.08 -5.3,-3.06 -4.76,5.92 c -1.58,-0.6 -3.26,-1.04 -4.98,-1.32 l -1.16,-7.52 h -6.12 l -1.16,7.52 c -1.72,0.28 -3.38,0.72 -4.96,1.32 l -4.76,-5.92 -5.3,3.06 2.76,7.08 c -1.32,1.08 -2.54,2.3 -3.64,3.64 l -7.08,-2.76 -3.06,5.3 5.92,4.76 c -0.6,1.58 -1.04,3.26 -1.32,4.96 l -7.52,1.16 v 3.06"
     id="path2727" />
  <path
     class="cls-20"
     d="m 236.72,305.66 c 0,-4.4 3.56,-7.96 7.96,-7.96 4.4,0 7.96,3.56 7.96,7.96 h 10.96 c 0,-10.44 -8.46,-18.9 -18.9,-18.9 -10.44,0 -18.9,8.46 -18.9,18.9 h 10.96 z"
     id="path2729"
     style="stroke-width:1.99999" />
  <path
     class="cls-4"
     d="m 236.72,305.66 c 0,-4.4 3.56,-7.96 7.96,-7.96 4.4,0 7.96,3.56 7.96,7.96"
     id="path2731" />
  <line
     class="cls-4"
     x1="211.52"
     y1="317.62"
     x2="259.35999"
     y2="317.62"
     id="line2733" />
  <line
     class="cls-4"
     x1="271.04001"
     y1="317.62"
     x2="277.84"
     y2="317.62"
     id="line2735" />
  <circle
     class="cls-4"
     cx="262.54001"
     cy="317.62"
     id="circle2737"
     r="3.1800001" />
  <line
     class="cls-4"
     x1="211.52"
     y1="326.64001"
     x2="243.62"
     y2="326.64001"
     id="line2739" />
  <line
     class="cls-4"
     x1="255.3"
     y1="326.64001"
     x2="277.84"
     y2="326.64001"
     id="line2741" />
  <circle
     class="cls-4"
     cx="246.8"
     cy="326.64001"
     id="circle2743"
     r="3.1800001" />
  <line
     class="cls-4"
     x1="211.52"
     y1="335.66"
     x2="218.06"
     y2="335.66"
     id="line2745" />
  <line
     class="cls-4"
     x1="229.74001"
     y1="335.66"
     x2="277.84"
     y2="335.66"
     id="line2747" />
  <circle
     class="cls-4"
     cx="221.24001"
     cy="335.66"
     id="circle2749"
     r="3.1800001" />
  <line
     class="cls-4"
     x1="211.52"
     y1="344.67999"
     x2="238.22"
     y2="344.67999"
     id="line2751" />
  <line
     class="cls-4"
     x1="249.89999"
     y1="344.67999"
     x2="277.84"
     y2="344.67999"
     id="line2753" />
  <circle
     class="cls-4"
     cx="241.39999"
     cy="344.67999"
     id="circle2755"
     r="3.1800001" />
  <path
     class="cls-20"
     d="m 410.4,212.56 c 0,0 0,0 0,0 -1.38,4.64 -0.26,9.86 3.4,13.52 l 1.18,1.18 6.06,6.06 6.42,6.4 6.06,-6.06 -6.4,-6.4 -6.06,-6.06 -1.18,-1.18 c -1.96,-1.96 -1.96,-5.16 0,-7.12 1.96,-1.96 5.16,-1.96 7.12,0 l 0.46,0.48 6.06,-6.06 -0.48,-0.48 c -3.46,-3.46 -8.3,-4.66 -12.72,-3.62 0,0 0,0 0,0 -6.5,1.78 -9.1,7.08 -9.94,9.34 z"
     id="path2757"
     style="stroke-width:1.99999" />
  <path
     class="cls-20"
     d="m 440.3,214.1 1.18,-1.18 c 1.98,-1.98 5.16,-1.96 7.12,0 1.96,1.96 1.96,5.16 0,7.12 l -0.46,0.46 6.06,6.06 0.48,-0.48 c 3.62,-3.62 4.78,-8.78 3.46,-13.38 -0.78,-2.4 -3.12,-7.5 -9.2,-9.32 0,0 0,0.04 0,0.04 -4.62,-1.36 -9.82,-0.2 -13.46,3.44 l -1.18,1.18 -6.06,6.06 -0.04,0.04 6.1,6 6.04,-6.04 z"
     id="path2759"
     style="stroke-width:1.99999" />
  <polygon
     class="cls-20"
     points="226.73,113.63 223.7,110.61 223.7,110.6 220.68,113.63 223.7,116.67 223.73,116.69 226.74,113.64 "
     id="polygon2761"
     transform="scale(2)" />
  <polygon
     class="cls-21"
     points="214.08,120.24 217.13,123.25 220.15,120.22 223.35,117.02 222.89,116.57 220.32,114 222.89,116.57 220.32,113.99 217.12,117.2 214.09,120.22 "
     id="polygon2763"
     transform="scale(2)" />
  <circle
     class="cls-16"
     cx="434.64001"
     cy="300.84"
     id="circle2765"
     r="25.66" />
  <rect
     class="cls-14"
     x="416.70001"
     y="290.04001"
     width="27.139999"
     height="13.72"
     id="rect2767" />
  <rect
     class="cls-15"
     x="421.17999"
     y="293.89999"
     width="27.139999"
     height="13.72"
     id="rect2769" />
  <rect
     class="cls-14"
     x="425.44"
     y="297.92001"
     width="27.139999"
     height="13.72"
     id="rect2771" />
  <path
     class="cls-11"
     d="m 434.4,304.78 c 0,-2.56 2.06,-4.62 4.62,-4.62 2.56,0 4.62,2.06 4.62,4.62 0,2.56 -2.06,4.62 -4.62,4.62 -2.56,0 -4.62,-2.06 -4.62,-4.62 z"
     id="path2773" />
  <path
     class="cls-21"
     d="m 431.02,304.78 c 0,0.42 -0.34,0.76 -0.76,0.76 -0.42,0 -0.76,-0.34 -0.76,-0.76 0,-0.42 0.34,-0.76 0.76,-0.76 0.42,0 0.76,0.34 0.76,0.76 z"
     id="path2775"
     style="stroke-width:1.99999" />
  <path
     class="cls-21"
     d="m 448.78,304.78 c 0,0.42 -0.34,0.76 -0.76,0.76 -0.42,0 -0.76,-0.34 -0.76,-0.76 0,-0.42 0.34,-0.76 0.76,-0.76 0.42,0 0.76,0.34 0.76,0.76 z"
     id="path2777"
     style="stroke-width:1.99999" />
  <line
     class="cls-16"
     x1="452.79999"
     y1="319.64001"
     x2="416.26001"
     y2="283.07999"
     id="line2779" />
  <path
     class="cls-4"
     d="m 459.56,434.66 c 0,-8.84 -7.16,-16 -16,-16 -8.84,0 -16,7.16 -16,16"
     id="path2781" />
  <path
     class="cls-4"
     d="m 512.56,434.66 c 0,0 -35.84,0 -53,0"
     id="path2783" />
  <path
     class="cls-4"
     d="m 427.56,434.66 c -68.04,0 -179.34,0 -258.84,0"
     id="path2785" />
  <path
     class="cls-4"
     d="m 157.72,434.66 c -3.72,0 -7.36,0 -10.92,0"
     id="path2787" />
  <path
     class="cls-4"
     d="m 129.72,434.66 c -33.14,0 -55.5,0 -55.5,0"
     id="path2789" />
  <path
     class="cls-4"
     d="m 146.56,434 c 0,-4.7 -3.8,-8.5 -8.5,-8.5 -4.7,0 -8.5,3.8 -8.5,8.5"
     id="path2791" />
  <path
     class="cls-4"
     d="m 168.82,434.72 c 0,-2.94 -2.38,-5.34 -5.34,-5.34 -2.96,0 -5.34,2.38 -5.34,5.34"
     id="path2793" />
</svg>
