<?xml version="1.0" encoding="UTF-8" standalone="no"?>
<svg
   id="world-multilingual"
   viewBox="0 0 600 600"
   version="1.1"
   sodipodi:docname="world-multilingual.svg"
   width="600"
   height="600"
   inkscape:version="1.2.2 (732a01da63, 2022-12-09)"
   xmlns:inkscape="http://www.inkscape.org/namespaces/inkscape"
   xmlns:sodipodi="http://sodipodi.sourceforge.net/DTD/sodipodi-0.dtd"
   xmlns="http://www.w3.org/2000/svg"
   xmlns:svg="http://www.w3.org/2000/svg">
  <sodipodi:namedview
     id="namedview2284"
     pagecolor="#ffffff"
     bordercolor="#000000"
     borderopacity="0.25"
     inkscape:showpageshadow="2"
     inkscape:pageopacity="0.0"
     inkscape:pagecheckerboard="0"
     inkscape:deskcolor="#d1d1d1"
     showgrid="false"
     inkscape:zoom="0.94752309"
     inkscape:cx="431.12406"
     inkscape:cy="235.87816"
     inkscape:window-width="1920"
     inkscape:window-height="991"
     inkscape:window-x="-9"
     inkscape:window-y="-9"
     inkscape:window-maximized="1"
     inkscape:current-layer="world-multilingual" />
  <defs
     id="defs1997">
    <style
       id="style1995">.cls-1,.cls-2,.cls-3,.cls-4,.cls-5,.cls-6,.cls-7,.cls-8,.cls-9,.cls-10,.cls-11,.cls-12{stroke:#7836b2;}.cls-1,.cls-2,.cls-3,.cls-4,.cls-5,.cls-9,.cls-10,.cls-11,.cls-13{stroke-width:1.5px;}.cls-1,.cls-2,.cls-3,.cls-5,.cls-6,.cls-7,.cls-14,.cls-15,.cls-16,.cls-17,.cls-8,.cls-13{fill:none;}.cls-1,.cls-3,.cls-6,.cls-7,.cls-14,.cls-10,.cls-11,.cls-13{stroke-linecap:round;}.cls-1,.cls-4,.cls-5,.cls-10,.cls-11,.cls-13,.cls-12{stroke-linejoin:round;}.cls-2,.cls-3,.cls-6,.cls-7,.cls-14,.cls-15,.cls-16,.cls-17,.cls-8,.cls-9{stroke-miterlimit:10;}.cls-18,.cls-4,.cls-9,.cls-10{fill:#fff;}.cls-19,.cls-11,.cls-12{fill:#bb9ad8;}.cls-20{fill:#7836b2;}.cls-6{stroke-width:.41px;}.cls-7,.cls-14{stroke-width:.5px;}.cls-14,.cls-15,.cls-16,.cls-13{stroke:#bb9ad8;}.cls-15{stroke-width:1.45px;}.cls-17{stroke:#fff;}.cls-21{fill:#e3e0e0;opacity:.5;}.cls-12{stroke-width:1.57px;}</style>
  </defs>
  <circle
     class="cls-21"
     cx="293.39999"
     cy="305.73999"
     id="circle1999"
     style="stroke-width:1.99999"
     r="211.22" />
  <path
     class="cls-18"
     d="m 519.5,180.42 h -11.92 c -2.26,0 -4.12,-1.86 -4.12,-4.12 0,-2.26 1.86,-4.12 4.12,-4.12 h 21.6 c 2.56,-0.4 4.78,-2.22 5.26,-4.8 0.7,-3.78 -2.24,-7.12 -5.9,-7.12 h -79.88 c -2.26,0 -4.12,-1.86 -4.12,-4.12 0,-2.26 1.86,-4.12 4.12,-4.12 h 0.96 c 0.3,-0.08 0.62,-0.12 0.94,-0.12 h 37.04 c 2.1,0 3.82,-1.52 3.82,-3.38 0,-1.64 1.34,-3.02 3.1,-3.32 h 16.2 c 3.3,0 6,-2.7 6,-6 0,-3.3 -2.7,-6 -6,-6 H 343.88 c -3.3,0 -6,2.7 -6,6 0,3.3 2.7,6 6,6 h 16.18 c 1.76,0.3 3.1,1.68 3.1,3.32 0,1.86 1.72,3.38 3.82,3.38 l 43.68,0.12 c 2.26,0 4.12,1.86 4.12,4.12 0,2.26 -1.86,4.12 -4.12,4.12 h -8.16 c -2.96,0 -5.72,1.98 -6.26,4.88 -0.7,3.78 2.24,7.12 5.9,7.12 h 32.34 c 1.02,0.12 2.3,0.06 3.5,0.24 h 15.94 c 2.26,0 4.12,1.86 4.12,4.12 0,2.26 -1.86,4.12 -4.12,4.12 h -22.26 c -1.8,0.78 -3.22,2.32 -3.58,4.3 -0.7,3.78 2.24,7.12 5.9,7.12 h 83.54 c 2.96,0 5.72,-1.98 6.26,-4.88 0.58,-3.2 -1.42,-6.06 -4.28,-6.86 z"
     id="path2001"
     style="stroke-width:1.99999" />
  <path
     class="cls-19"
     d="m 519.4,243.5 h -39.88 c 0,0 -0.06,-0.06 -0.08,-0.08 h -0.06 c -2.26,0 -4.12,-1.86 -4.12,-4.12 v -2.04 c 0,-2.26 1.86,-4.12 4.12,-4.12 h 2.88 c 0,0 0.1,0 0.16,0 h 49.66 c 2.82,0 5.12,-2.04 5.12,-4.54 0,-2.5 2.3,-4.54 5.12,-4.54 h 18.38 c 1.48,0 2.84,-0.6 3.8,-1.58 0.98,-0.98 1.58,-2.32 1.58,-3.82 0,-2.96 -2.42,-5.4 -5.4,-5.4 H 341.74 c -2.96,0 -5.4,2.42 -5.4,5.4 0,1.48 0.6,2.84 1.58,3.82 0.98,0.98 2.32,1.58 3.8,1.58 h 18.38 c 2.82,0 5.12,2.04 5.12,4.54 0,2.5 2.3,4.54 5.12,4.54 h 72.7 c 2.26,0 4.12,1.88 4.12,4.14 v 2.04 c 0,2.26 -1.86,4.12 -4.12,4.12 l -110.66,0.08 c -4.68,0 -8.5,3.82 -8.5,8.5 0,4.68 3.82,8.5 8.5,8.5 h 187 c 4.68,0 8.5,-3.82 8.5,-8.5 0,-4.68 -3.82,-8.5 -8.5,-8.5 z"
     id="path2003"
     style="stroke-width:1.99999" />
  <path
     class="cls-18"
     d="m 136.92,200.54 7.26,-0.24 c 3.12,0 5.66,-2.56 5.66,-5.66 v -0.44 c 0,-3.12 -2.56,-5.66 -5.66,-5.66 h -18.74 c -2.48,-0.44 -4.6,-2.26 -5.06,-4.78 -0.7,-3.78 2.24,-7.12 5.9,-7.12 h 126.04 c 2.96,0 5.72,1.98 6.26,4.88 0.62,3.42 -1.72,6.44 -4.88,7 h -49.24 c -3.12,0 -5.66,2.56 -5.66,5.66 v 0.44 c 0,3.12 2.56,5.66 5.66,5.66 l 16.02,0.24 c 2.96,0 5.72,1.98 6.26,4.88 0.7,3.78 -2.24,7.12 -5.9,7.12 H 137.3 c -2.96,0 -5.72,-1.98 -6.26,-4.88 -0.7,-3.78 2.24,-7.12 5.9,-7.12 z"
     id="path2005"
     style="stroke-width:1.99999" />
  <rect
     class="cls-18"
     x="-280.82001"
     y="-212.56"
     width="47.02"
     height="11.34"
     rx="5.6599998"
     ry="5.6599998"
     transform="scale(-1)"
     id="rect2007"
     style="stroke-width:1.99999" />
  <circle
     class="cls-6"
     cx="298.72"
     cy="128.94"
     id="circle2009"
     r="2.9400001" />
  <circle
     class="cls-16"
     cx="215.7"
     cy="122.06"
     id="circle2011"
     style="stroke-width:1.99999"
     r="3.6800001" />
  <circle
     class="cls-8"
     cx="206.28"
     cy="160.66"
     id="circle2013"
     style="stroke-width:1.99999"
     r="2.4000001" />
  <circle
     class="cls-19"
     cx="308.66"
     cy="199.72"
     id="circle2015"
     style="stroke-width:1.99999"
     r="2.4000001" />
  <circle
     class="cls-20"
     cx="257.12"
     cy="142.2"
     id="circle2017"
     style="stroke-width:1.99999"
     r="2.4000001" />
  <line
     class="cls-7"
     x1="168.60001"
     y1="122.06"
     x2="168.60001"
     y2="127.52"
     id="line2019" />
  <line
     class="cls-7"
     x1="171.32001"
     y1="124.78"
     x2="165.86"
     y2="124.78"
     id="line2021" />
  <circle
     class="cls-17"
     cx="272.51999"
     cy="184.10001"
     id="circle2023"
     style="stroke-width:1.99999"
     r="3.6800001" />
  <circle
     class="cls-18"
     cx="294"
     cy="170.66"
     id="circle2025"
     style="stroke-width:1.99999"
     r="2.4000001" />
  <circle
     class="cls-16"
     cx="495.26001"
     cy="291.39999"
     id="circle2027"
     style="stroke-width:1.99999"
     r="3.6800001" />
  <circle
     class="cls-8"
     cx="485.84"
     cy="330.01999"
     id="circle2029"
     style="stroke-width:1.99999"
     r="2.4000001" />
  <circle
     class="cls-20"
     cx="536.70001"
     cy="311.56"
     id="circle2031"
     style="stroke-width:1.99999"
     r="2.4000001" />
  <line
     class="cls-7"
     x1="448.16"
     y1="291.39999"
     x2="448.16"
     y2="296.85999"
     id="line2033" />
  <line
     class="cls-7"
     x1="450.89999"
     y1="294.14001"
     x2="445.42001"
     y2="294.14001"
     id="line2035" />
  <circle
     class="cls-14"
     cx="128.36"
     cy="311.92001"
     id="circle2037"
     r="2.9400001" />
  <circle
     class="cls-14"
     cx="76"
     cy="223.22"
     id="circle2039"
     r="2.9400001" />
  <circle
     class="cls-16"
     cx="98"
     cy="254.34"
     id="circle2041"
     style="stroke-width:1.99999"
     r="3.6800001" />
  <circle
     class="cls-17"
     cx="35.32"
     cy="305.04001"
     id="circle2043"
     style="stroke-width:1.99999"
     r="3.6800001" />
  <circle
     class="cls-8"
     cx="88.580002"
     cy="292.95999"
     id="circle2045"
     style="stroke-width:1.99999"
     r="2.4000001" />
  <circle
     class="cls-19"
     cx="101.18"
     cy="334.10001"
     id="circle2047"
     style="stroke-width:1.99999"
     r="2.4000001" />
  <circle
     class="cls-20"
     cx="139.44"
     cy="274.5"
     id="circle2049"
     style="stroke-width:1.99999"
     r="2.4000001" />
  <circle
     class="cls-18"
     cx="67.639999"
     cy="322.29999"
     id="circle2051"
     style="stroke-width:1.99999"
     r="2.4000001" />
  <line
     class="cls-7"
     x1="50.900002"
     y1="254.34"
     x2="50.900002"
     y2="259.82001"
     id="line2053" />
  <line
     class="cls-7"
     x1="53.619999"
     y1="257.07999"
     x2="48.16"
     y2="257.07999"
     id="line2055" />
  <line
     class="cls-14"
     x1="154.58"
     y1="298.29999"
     x2="154.58"
     y2="303.76001"
     id="line2057" />
  <line
     class="cls-14"
     x1="157.32001"
     y1="301.04001"
     x2="151.84"
     y2="301.04001"
     id="line2059" />
  <circle
     class="cls-14"
     cx="157.25999"
     cy="461.04001"
     id="circle2061"
     r="2.9400001" />
  <circle
     class="cls-16"
     cx="217.53999"
     cy="485.57999"
     id="circle2063"
     style="stroke-width:1.99999"
     r="3.6800001" />
  <circle
     class="cls-19"
     cx="186.53999"
     cy="457.79999"
     id="circle2065"
     style="stroke-width:1.99999"
     r="2.4000001" />
  <circle
     class="cls-19"
     cx="182.66"
     cy="486.29999"
     id="circle2067"
     style="stroke-width:1.99999"
     r="8.04" />
  <circle
     class="cls-20"
     cx="226.2"
     cy="457.45999"
     id="circle2069"
     style="stroke-width:1.99999"
     r="2.4000001" />
  <line
     class="cls-14"
     x1="145.94"
     y1="488.34"
     x2="142.42"
     y2="484.16"
     id="line2071" />
  <line
     class="cls-14"
     x1="142.10001"
     y1="488"
     x2="146.28"
     y2="484.48001"
     id="line2073" />
  <path
     class="cls-18"
     d="M 84.32,434.66 157.28,307.6 c 6.52,-11.36 22.9,-11.36 29.42,0 l 72.96,127.06"
     id="path2075"
     style="stroke-width:1.99999" />
  <path
     class="cls-13"
     d="m 154.64,328.08 c 0.86,-0.58 1.84,-1.04 2.9,-1.34 3.18,-0.9 6.42,-0.16 8.84,1.72"
     id="path2077" />
  <path
     class="cls-13"
     d="m 180.98,339.76 c 0.86,-0.58 1.84,-1.04 2.9,-1.34 3.18,-0.9 6.42,-0.16 8.84,1.72"
     id="path2079" />
  <path
     class="cls-13"
     d="m 155.64,350.08 c 0.86,-0.58 1.84,-1.04 2.9,-1.34 3.18,-0.9 6.42,-0.16 8.84,1.72"
     id="path2081" />
  <path
     class="cls-13"
     d="m 128.3,371.42 c 0.86,-0.58 1.84,-1.04 2.9,-1.34 3.18,-0.9 6.42,-0.16 8.84,1.72"
     id="path2083" />
  <path
     class="cls-19"
     d="m 142.98,434.66 73.44,-84.88 c 7.5,-8.68 20.98,-8.68 28.48,0 l 73.44,84.88"
     id="path2085"
     style="stroke-width:1.99999" />
  <line
     class="cls-3"
     x1="355.34"
     y1="455.64001"
     x2="478"
     y2="455.64001"
     id="line2087" />
  <line
     class="cls-3"
     x1="320.66"
     y1="470.95999"
     x2="405.34"
     y2="470.95999"
     id="line2089" />
  <line
     class="cls-3"
     x1="393.34"
     y1="484.29999"
     x2="438"
     y2="484.29999"
     id="line2091" />
  <rect
     class="cls-4"
     x="289.20001"
     y="304.34"
     width="79"
     height="130.5"
     id="rect2093" />
  <line
     class="cls-5"
     x1="289.98001"
     y1="314.34"
     x2="367.48001"
     y2="314.34"
     id="line2095" />
  <rect
     class="cls-5"
     x="296.95999"
     y="329.84"
     width="63.5"
     height="30"
     id="rect2097" />
  <circle
     class="cls-20"
     cx="295.23999"
     cy="309.57999"
     id="circle2099"
     style="stroke-width:1.99999"
     r="1.5" />
  <circle
     class="cls-20"
     cx="299.76001"
     cy="309.57999"
     id="circle2101"
     style="stroke-width:1.99999"
     r="1.5" />
  <circle
     class="cls-20"
     cx="304.23999"
     cy="309.57999"
     id="circle2103"
     style="stroke-width:1.99999"
     r="1.5" />
  <circle
     class="cls-20"
     cx="302.76001"
     cy="377.84"
     id="circle2105"
     style="stroke-width:1.99999"
     r="6.7600002" />
  <line
     class="cls-1"
     x1="315"
     y1="375.07999"
     x2="359"
     y2="375.07999"
     id="line2107" />
  <line
     class="cls-1"
     x1="315"
     y1="382.07999"
     x2="359"
     y2="382.07999"
     id="line2109" />
  <rect
     class="cls-19"
     x="290.79999"
     y="393.84"
     width="75.800003"
     height="39.66"
     id="rect2111"
     style="stroke-width:1.99999" />
  <rect
     class="cls-5"
     x="297.70001"
     y="401.57999"
     width="14.5"
     height="14.5"
     id="rect2113" />
  <rect
     class="cls-5"
     x="321.45999"
     y="401.57999"
     width="14.5"
     height="14.5"
     id="rect2115" />
  <rect
     class="cls-5"
     x="345.20001"
     y="401.57999"
     width="14.5"
     height="14.5"
     id="rect2117" />
  <circle
     class="cls-20"
     cx="324.20001"
     cy="424.57999"
     id="circle2119"
     style="stroke-width:1.99999"
     r="1.5" />
  <circle
     class="cls-20"
     cx="328.70001"
     cy="424.57999"
     id="circle2121"
     style="stroke-width:1.99999"
     r="1.5" />
  <circle
     class="cls-20"
     cx="333.20001"
     cy="424.57999"
     id="circle2123"
     style="stroke-width:1.99999"
     r="1.5" />
  <rect
     class="cls-18"
     x="147"
     y="363.34"
     width="84"
     height="12.76"
     id="rect2125"
     style="stroke-width:1.99999" />
  <rect
     class="cls-19"
     x="145.89999"
     y="375.78"
     width="86.120003"
     height="60.240002"
     id="rect2127"
     style="stroke-width:1.99999" />
  <polyline
     class="cls-1"
     points="72.86 216.7 72.86 181.08 116.11 181.08 116.11 216.7"
     id="polyline2129"
     transform="scale(2)" />
  <circle
     class="cls-20"
     cx="154.3"
     cy="368.85999"
     id="circle2131"
     style="stroke-width:1.99999"
     r="2.3399999" />
  <circle
     class="cls-20"
     cx="162.3"
     cy="368.85999"
     id="circle2133"
     style="stroke-width:1.99999"
     r="2.3399999" />
  <circle
     class="cls-20"
     cx="170.3"
     cy="368.85999"
     id="circle2135"
     style="stroke-width:1.99999"
     r="2.3399999" />
  <path
     class="cls-19"
     d="m 205.62,409.94 -4.68,3.76 -0.3,-3.76 -3.08,0.48 -0.42,-3.46 -2.1,1.06 -0.62,-0.48 -1.86,-1.8 -0.54,2.38 1.44,1.4 -6.02,5.62 -1.66,0.22 -0.08,-3.1 1.1,-4.66 -2.2,-1.08 -0.26,-2.02 2.7,-2.74 2.06,0.4 0.84,1.24 3.04,0.58 -2.34,-2.92 -2.36,-1.52 0.18,-0.78 3.02,-0.26 -0.38,-1.96 3.42,-1.04 2.26,2.04 4.96,0.64 c 0,0 2.06,-0.1 4.42,-0.22 -1.88,-4.02 -5.14,-7.4 -9.5,-9.32 -4.32,-1.9 -8.98,-2.06 -13.18,-0.76 l -1.22,0.84 -3.06,2.24 c 0,0 -0.12,0.16 -0.1,0.26 l 0.4,2.38 c 0,0 0.1,0.2 0.18,0.22 0.1,0.04 0.2,0.04 0.28,-0.02 l 1.72,-1.14 1.02,3.3 -5.5,1.62 -2.36,-0.8 c -0.12,-0.04 -0.22,0 -0.3,0.06 l -1.06,1.1 c 0,0 -0.08,0.16 -0.06,0.26 l 0.72,2.5 -1.98,-2.14 -0.22,-0.72 c -0.08,0.18 -0.16,0.34 -0.24,0.52 -4.2,9.56 0.14,20.74 9.7,24.96 9.56,4.2 20.74,-0.14 24.96,-9.7 0.76,-1.72 1.24,-3.52 1.46,-5.3 l -2.2,1.64 z m -14.1,-20.32 -2.44,3.24 -3.6,0.88 -0.26,-4.78 c 3.46,-0.12 5.52,0.42 6.3,0.68 z m -18.58,23.92 -0.04,-2.14 1.66,-3.66 c 0,0 0.02,-0.08 0.02,-0.14 l -0.3,-3.54 3.14,-2.74 2.98,6.18 -7.44,6.04 z"
     id="path2137"
     style="stroke-width:1.99999" />
  <line
     class="cls-4"
     x1="146.56"
     y1="375.78"
     x2="232"
     y2="375.78"
     id="line2139" />
  <path
     class="cls-20"
     d="m 83.7,387.94 c -4.94,0 -8.96,4.02 -8.96,8.96 0,4.94 9,14.94 8.96,14.94 -0.04,0 8.96,-9.98 8.96,-14.94 0,-4.96 -4.02,-8.96 -8.96,-8.96 z m 0,10.96 c -1.64,0 -2.98,-1.34 -2.98,-2.98 0,-1.64 1.34,-2.98 2.98,-2.98 1.64,0 2.98,1.34 2.98,2.98 0,1.64 -1.34,2.98 -2.98,2.98 z"
     id="path2141"
     style="stroke-width:1.99999" />
  <line
     class="cls-3"
     x1="83.660004"
     y1="407"
     x2="83.660004"
     y2="435.5"
     id="line2143" />
  <path
     class="cls-20"
     d="m 99.7,360.28 c -4.94,0 -8.96,4.02 -8.96,8.96 0,4.94 9,14.94 8.96,14.94 -0.04,0 8.96,-9.98 8.96,-14.94 0,-4.96 -4.02,-8.96 -8.96,-8.96 z m 0,10.96 c -1.64,0 -2.98,-1.34 -2.98,-2.98 0,-1.64 1.34,-2.98 2.98,-2.98 1.64,0 2.98,1.34 2.98,2.98 0,1.64 -1.34,2.98 -2.98,2.98 z"
     id="path2145"
     style="stroke-width:1.99999" />
  <line
     class="cls-3"
     x1="99.660004"
     y1="379.34"
     x2="99.660004"
     y2="434.66"
     id="line2147" />
  <path
     class="cls-20"
     d="m 113.04,410.62 c -4.94,0 -8.96,4.02 -8.96,8.96 0,4.94 9,14.94 8.96,14.94 -0.04,0 8.96,-9.98 8.96,-14.94 0,-4.96 -4.02,-8.96 -8.96,-8.96 z m 0,10.96 c -1.64,0 -2.98,-1.34 -2.98,-2.98 0,-1.64 1.34,-2.98 2.98,-2.98 1.64,0 2.98,1.34 2.98,2.98 0,1.64 -1.34,2.98 -2.98,2.98 z"
     id="path2149"
     style="stroke-width:1.99999" />
  <path
     class="cls-20"
     d="m 232.04,332.12 c -4.94,0 -8.96,4.02 -8.96,8.96 0,4.94 9,14.94 8.96,14.94 -0.04,0 8.96,-9.98 8.96,-14.94 0,-4.96 -4.02,-8.96 -8.96,-8.96 z m 0,10.96 c -1.64,0 -2.98,-1.34 -2.98,-2.98 0,-1.64 1.34,-2.98 2.98,-2.98 1.64,0 2.98,1.34 2.98,2.98 0,1.64 -1.34,2.98 -2.98,2.98 z"
     id="path2151"
     style="stroke-width:1.99999" />
  <path
     class="cls-20"
     d="m 444.38,387.94 c -4.94,0 -8.96,4.02 -8.96,8.96 0,4.94 9,14.94 8.96,14.94 -0.04,0 8.96,-9.98 8.96,-14.94 0,-4.96 -4.02,-8.96 -8.96,-8.96 z m 0,10.96 c -1.64,0 -2.98,-1.34 -2.98,-2.98 0,-1.64 1.34,-2.98 2.98,-2.98 1.64,0 2.98,1.34 2.98,2.98 0,1.64 -1.34,2.98 -2.98,2.98 z"
     id="path2153"
     style="stroke-width:1.99999" />
  <line
     class="cls-3"
     x1="444.34"
     y1="407"
     x2="444.34"
     y2="435.5"
     id="line2155" />
  <path
     class="cls-20"
     d="m 460.38,360.28 c -4.94,0 -8.96,4.02 -8.96,8.96 0,4.94 9,14.94 8.96,14.94 -0.04,0 8.96,-9.98 8.96,-14.94 0,-4.96 -4.02,-8.96 -8.96,-8.96 z m 0,10.96 c -1.64,0 -2.98,-1.34 -2.98,-2.98 0,-1.64 1.34,-2.98 2.98,-2.98 1.64,0 2.98,1.34 2.98,2.98 0,1.64 -1.34,2.98 -2.98,2.98 z"
     id="path2157"
     style="stroke-width:1.99999" />
  <line
     class="cls-3"
     x1="460.34"
     y1="379.34"
     x2="460.34"
     y2="434.66"
     id="line2159" />
  <path
     class="cls-20"
     d="m 473.7,410.62 c -4.94,0 -8.96,4.02 -8.96,8.96 0,4.94 9,14.94 8.96,14.94 -0.04,0 8.96,-9.98 8.96,-14.94 0,-4.96 -4.02,-8.96 -8.96,-8.96 z m 0,10.96 c -1.64,0 -2.98,-1.34 -2.98,-2.98 0,-1.64 1.34,-2.98 2.98,-2.98 1.64,0 2.98,1.34 2.98,2.98 0,1.64 -1.34,2.98 -2.98,2.98 z"
     id="path2161"
     style="stroke-width:1.99999" />
  <rect
     class="cls-12"
     x="356.98001"
     y="348.26001"
     width="64.059998"
     height="86.660004"
     id="rect2163" />
  <path
     class="cls-20"
     d="M 387.32,386.92 H 366.9 c -1.06,0 -1.9,-0.86 -1.9,-1.9 v -23.66 c 0,-1.06 0.86,-1.9 1.9,-1.9 h 20.42 c 1.06,0 1.9,0.86 1.9,1.9 v 23.66 c 0,1.06 -0.86,1.9 -1.9,1.9 z"
     id="path2165"
     style="stroke-width:1.99999" />
  <path
     class="cls-19"
     d="m 378.16,375.12 h -4.08 l -0.48,1.12 c -0.16,0.38 -0.24,0.68 -0.24,0.92 0,0.32 0.14,0.56 0.4,0.72 0.16,0.1 0.54,0.16 1.14,0.2 v 0.32 h -3.84 v -0.32 c 0.42,-0.06 0.76,-0.24 1.02,-0.52 0.26,-0.28 0.6,-0.86 0.98,-1.74 l 4.14,-9.22 h 0.16 l 4.18,9.48 c 0.4,0.9 0.72,1.46 0.98,1.7 0.2,0.18 0.46,0.28 0.82,0.3 v 0.32 h -5.6 v -0.32 h 0.24 c 0.44,0 0.76,-0.06 0.94,-0.18 0.12,-0.1 0.18,-0.22 0.18,-0.4 0,-0.1 0,-0.2 -0.06,-0.32 0,-0.06 -0.1,-0.26 -0.26,-0.64 l -0.62,-1.44 z m -0.28,-0.64 -1.72,-3.98 -1.78,3.98 z"
     id="path2167"
     style="stroke-width:1.99999" />
  <line
     class="cls-3"
     x1="394.45999"
     y1="361.84"
     x2="412.22"
     y2="361.84"
     id="line2169" />
  <line
     class="cls-3"
     x1="394.45999"
     y1="371.07999"
     x2="412.22"
     y2="371.07999"
     id="line2171" />
  <line
     class="cls-3"
     x1="394.45999"
     y1="380.34"
     x2="412.22"
     y2="380.34"
     id="line2173" />
  <line
     class="cls-3"
     x1="365.95999"
     y1="394.57999"
     x2="383.72"
     y2="394.57999"
     id="line2175" />
  <line
     class="cls-3"
     x1="365.95999"
     y1="404.07999"
     x2="376.45999"
     y2="404.07999"
     id="line2177" />
  <line
     class="cls-3"
     x1="366.14001"
     y1="422"
     x2="376.64001"
     y2="422"
     id="line2179" />
  <line
     class="cls-3"
     x1="401.72"
     y1="422"
     x2="412.22"
     y2="422"
     id="line2181" />
  <line
     class="cls-3"
     x1="381.79999"
     y1="404.07999"
     x2="412.22"
     y2="404.07999"
     id="line2183" />
  <line
     class="cls-3"
     x1="365.79999"
     y1="413.66"
     x2="412.22"
     y2="413.66"
     id="line2185" />
  <line
     class="cls-3"
     x1="400.14001"
     y1="394.57999"
     x2="412.22"
     y2="394.57999"
     id="line2187" />
  <line
     class="cls-3"
     x1="388.07999"
     y1="394.57999"
     x2="395.82001"
     y2="394.57999"
     id="line2189" />
  <rect
     class="cls-2"
     x="383.17999"
     y="419.66"
     width="11.66"
     height="15"
     id="rect2191" />
  <polygon
     class="cls-18"
     points="203.87,172.17 204.84,175.83 208.62,172.34 218.49,171.49 218.49,158.14 200.12,158.14 200.12,171.49 "
     id="polygon2193"
     transform="scale(2)" />
  <rect
     class="cls-19"
     x="-330.18002"
     y="400.35999"
     width="13.78"
     height="37.220001"
     transform="rotate(-90)"
     id="rect2195"
     style="stroke-width:1.99999" />
  <path
     class="cls-2"
     d="m 400.38,315.12 h 36.34 c 0.7,0 1.28,0.58 1.28,1.28 v 26.64 c 0,0.7 -0.58,1.28 -1.28,1.28 h -18.58 c -0.34,0 -0.66,0.14 -0.9,0.38 l -6.74,6.74 c -0.8,0.8 -2.18,0.24 -2.18,-0.9 v -4.92 c 0,-0.7 -0.58,-1.28 -1.28,-1.28 h -6.66 c -0.7,0 -1.28,-0.58 -1.28,-1.28 v -26.64 c 0,-0.7 0.58,-1.28 1.28,-1.28 z"
     id="path2197" />
  <polygon
     class="cls-18"
     points="196.63,154.73 195.68,158.31 191.98,154.9 182.31,154.07 182.31,140.99 200.31,140.99 200.31,154.07 "
     id="polygon2199"
     transform="scale(2)" />
  <polygon
     class="cls-19"
     points="185,141.18 189.24,147.59 185,154.29 182.1,154.29 182.1,141.18 "
     id="polygon2201"
     transform="scale(2)" />
  <line
     class="cls-15"
     x1="376.16"
     y1="295.17999"
     x2="400.34"
     y2="295.17999"
     id="line2203" />
  <path
     class="cls-2"
     d="m 400.48,280.84 h -35.6 c -0.7,0 -1.26,0.56 -1.26,1.26 v 26.1 c 0,0.7 0.56,1.26 1.26,1.26 h 18.2 c 0.34,0 0.66,0.14 0.88,0.36 l 6.6,6.6 c 0.78,0.78 2.14,0.24 2.14,-0.88 v -4.82 c 0,-0.7 0.56,-1.26 1.26,-1.26 h 6.52 c 0.7,0 1.26,-0.56 1.26,-1.26 v -26.1 c 0,-0.7 -0.56,-1.26 -1.26,-1.26 z"
     id="path2205" />
  <polygon
     class="cls-18"
     points="207.01,152.34 207.64,154.71 210.09,152.45 216.49,151.9 216.49,143.25 204.58,143.25 204.58,151.9 "
     id="polygon2207"
     transform="scale(2)" />
  <path
     class="cls-2"
     d="m 409.26,285.74 h 23.54 c 0.46,0 0.82,0.38 0.82,0.82 v 17.26 c 0,0.46 -0.38,0.82 -0.82,0.82 h -12.04 c -0.22,0 -0.44,0.08 -0.58,0.24 l -4.36,4.36 c -0.52,0.52 -1.42,0.16 -1.42,-0.58 v -3.2 c 0,-0.46 -0.38,-0.82 -0.82,-0.82 h -4.32 c -0.46,0 -0.82,-0.38 -0.82,-0.82 v -17.26 c 0,-0.46 0.38,-0.82 0.82,-0.82 z"
     id="path2209" />
  <circle
     class="cls-20"
     cx="421.04001"
     cy="295.66"
     id="circle2211"
     style="stroke-width:1.99999"
     r="3.6600001" />
  <line
     class="cls-10"
     x1="224.66"
     y1="391.66"
     x2="197.42"
     y2="391.66"
     id="line2213" />
  <rect
     class="cls-18"
     x="245.92"
     y="392.88"
     width="19.879999"
     height="21.379999"
     id="rect2215"
     style="stroke-width:1.99999" />
  <rect
     class="cls-18"
     x="-254.22"
     y="-324.39999"
     width="30.719999"
     height="23.34"
     transform="scale(-1)"
     id="rect2217"
     style="stroke-width:1.99999" />
  <rect
     class="cls-19"
     x="-254.22"
     y="-324.39999"
     width="15.66"
     height="23.34"
     transform="scale(-1)"
     id="rect2219"
     style="stroke-width:1.99999" />
  <path
     class="cls-20"
     d="m 221.22,300.2 v 24.76 c 0,0.84 0.68,1.52 1.52,1.52 h 31.36 v 62.3 c 0,0 3.04,0 3.04,0 v -63.82 c 0,0 0,-24.76 0,-24.76 0,-0.84 -0.68,-1.52 -1.52,-1.52 h -32.9 c -0.84,0 -1.52,0.68 -1.52,1.52 z m 3.04,1.52 h 29.84 v 21.72 h -29.84 z"
     id="path2221"
     style="stroke-width:1.99999" />
  <rect
     class="cls-18"
     x="263.56"
     y="282.45999"
     width="30.860001"
     height="23.540001"
     id="rect2223"
     style="stroke-width:1.99999" />
  <rect
     class="cls-19"
     x="263.56"
     y="282.45999"
     width="9.8000002"
     height="23.34"
     id="rect2225"
     style="stroke-width:1.99999" />
  <rect
     class="cls-19"
     x="283.89999"
     y="282.14001"
     width="9.8000002"
     height="23.34"
     id="rect2227"
     style="stroke-width:1.99999" />
  <path
     class="cls-20"
     d="m 295.36,280.1 h -32.9 c -0.84,0 -1.52,0.68 -1.52,1.52 v 106.6 h 3.04 v -80.3 h 31.36 c 0.84,0 1.52,-0.68 1.52,-1.52 v -24.76 c 0,-0.84 -0.68,-1.52 -1.52,-1.52 z m -1.52,24.76 H 264 v -21.72 h 29.84 z"
     id="path2229"
     style="stroke-width:1.99999" />
  <rect
     class="cls-19"
     x="270.79999"
     y="320.72"
     width="30.860001"
     height="23.540001"
     id="rect2231"
     style="stroke-width:1.99999" />
  <polygon
     class="cls-19"
     points="140.2,160.3 144.33,165.93 140.2,171.97 135.29,171.97 135.29,160.3 "
     id="polygon2233"
     transform="scale(2)" />
  <path
     class="cls-20"
     d="m 302.64,317.98 h -32.9 c -0.84,0 -1.52,0.68 -1.52,1.52 v 94.6 h 3.04 v -68.3 h 31.36 c 0.84,0 1.52,-0.68 1.52,-1.52 v -24.76 c 0,-0.84 -0.68,-1.52 -1.52,-1.52 z m -1.52,24.76 h -29.84 v -21.72 h 29.84 z"
     id="path2235"
     style="stroke-width:1.99999" />
  <path
     class="cls-9"
     d="m 278.18,409.3 c -0.68,-0.68 -1.56,-1 -2.44,-1 h -13.76 c -0.88,0 -1.76,0.34 -2.44,1 -0.68,0.68 -1,1.56 -1,2.44 0,0.88 0.34,1.76 1,2.44 0.68,0.68 1.56,1 2.44,1 h 13.76 c 0.88,0 1.76,-0.34 2.44,-1 0.68,-0.68 1,-1.56 1,-2.44 0,-0.88 -0.34,-1.76 -1,-2.44 z"
     id="path2237" />
  <path
     class="cls-9"
     d="m 262,408.3 h 13.76 c 0.88,0 1.76,-0.34 2.44,-1 0.68,-0.68 1,-1.56 1,-2.44 0,-0.88 -0.34,-1.76 -1,-2.44 -0.68,-0.68 -1.56,-1 -2.44,-1 h -10.32"
     id="path2239" />
  <path
     class="cls-9"
     d="m 265.44,401.42 h 10.32 c 0.88,0 1.76,-0.34 2.44,-1 0.68,-0.68 1,-1.56 1,-2.44 0,-0.88 -0.34,-1.76 -1,-2.44 -0.68,-0.68 -1.56,-1 -2.44,-1 h -10.32"
     id="path2241" />
  <path
     class="cls-9"
     d="m 265.44,394.54 h 10.32 c 0.88,0 1.76,-0.34 2.44,-1 0.68,-0.68 1,-1.56 1,-2.44 0,-0.88 -0.34,-1.76 -1,-2.44 -0.68,-0.68 -1.56,-1 -2.44,-1 H 262"
     id="path2243" />
  <path
     class="cls-9"
     d="m 262,415.18 h -26.9 v -20.64 c 3,0 6,-1.14 8.3,-3.44 2.28,-2.3 5.3,-3.44 8.3,-3.44 h 10.32 c 0.88,0 1.76,0.34 2.44,1 0.68,0.68 1,1.56 1,2.44 v 13.76 h -3.44 c -0.88,0 -1.76,-0.34 -2.44,-1 -0.68,-0.66 -1,-1.56 -1,-2.44 v -6.88 c 0,7.6 -6.16,13.76 -13.76,13.76"
     id="path2245" />
  <rect
     class="cls-4"
     x="224"
     y="388.34"
     width="12"
     height="30.66"
     id="rect2247" />
  <circle
     class="cls-20"
     cx="230"
     cy="395.34"
     id="circle2249"
     style="stroke-width:1.99999"
     r="1.66" />
  <line
     class="cls-10"
     x1="223"
     y1="415.66"
     x2="212.92"
     y2="415.66"
     id="line2251" />
  <path
     class="cls-20"
     d="m 202.5,270.38 h -31.22 v 19.78 h 31.22 l -7.28,-9.88 7.28,-9.88 v 0 z"
     id="path2253"
     style="stroke-width:1.99999" />
  <path
     class="cls-11"
     d="M 171.66,308.84 V 268.08"
     id="path2255" />
  <path
     class="cls-18"
     d="m 188.42,281.28 v -1.72 c 0,0 -1.44,-0.12 -1.44,-0.12 -0.06,-0.22 -0.14,-0.44 -0.24,-0.64 l 0.96,-1.14 -1.22,-1.22 -1.1,0.92 c -0.2,-0.12 -0.42,-0.2 -0.64,-0.28 l -0.12,-1.48 h -1.72 l -0.12,1.44 c -0.22,0.06 -0.44,0.14 -0.64,0.24 l -1.14,-0.96 -1.22,1.22 0.92,1.1 c -0.12,0.2 -0.2,0.42 -0.28,0.64 l -1.48,0.12 v 1.72 l 1.44,0.12 c 0.06,0.22 0.14,0.44 0.24,0.64 l -0.96,1.14 1.22,1.22 1.1,-0.92 c 0.2,0.12 0.42,0.2 0.64,0.28 l 0.12,1.48 h 1.72 l 0.12,-1.44 c 0.22,-0.06 0.44,-0.14 0.64,-0.24 l 1.14,0.96 1.22,-1.22 -0.92,-1.1 c 0.12,-0.2 0.2,-0.42 0.28,-0.64 z m -4.74,0.7 c -0.92,0 -1.66,-0.74 -1.66,-1.66 0,-0.92 0.74,-1.66 1.66,-1.66 0.92,0 1.66,0.74 1.66,1.66 0,0.92 -0.74,1.66 -1.66,1.66 z"
     id="path2257"
     style="stroke-width:1.99999" />
  <circle
     class="cls-19"
     cx="138.66"
     cy="207.34"
     id="circle2259"
     style="stroke-width:1.99999"
     r="46.66" />
  <path
     class="cls-20"
     d="m 151,125.2 h -27.6 c -0.7,0 -1.28,0.58 -1.28,1.28 v 50.94 h 2.56 v -28.86 h 26.34 c 0.7,0 1.28,-0.58 1.28,-1.28 V 126.5 c 0,-0.7 -0.58,-1.28 -1.28,-1.28 z"
     id="path2261"
     style="stroke-width:1.99999" />
  <path
     class="cls-3"
     d="m 132.66,199.8 c -0.26,-0.82 -0.42,-1.68 -0.42,-2.6 0,-4.62 3.8,-8.38 8.5,-8.38 3.46,0 6.44,2.04 7.76,4.96"
     id="path2263" />
  <path
     class="cls-3"
     d="m 169.24,192.4 c -0.68,0.28 -1.44,0.42 -2.24,0.42 -3.32,0 -6,-2.68 -6,-6 0,-3.32 2.68,-6 6,-6 1.12,0 2.18,0.32 3.08,0.86"
     id="path2265" />
  <path
     class="cls-3"
     d="m 133.14,174.42 c 0.86,0.9 1.36,1.94 1.36,3.04 0,3.38 -4.58,6.12 -10.24,6.12 -5.66,0 -10.24,-2.74 -10.24,-6.12 0,-0.22 0.02,-0.44 0.06,-0.66"
     id="path2267" />
  <path
     class="cls-3"
     d="m 157.5,175.82 c -1.26,1.36 -3.38,2.26 -5.76,2.26 -3.86,0 -7,-2.36 -7,-5.24 0,-0.66 0.16,-1.3 0.46,-1.88"
     id="path2269" />
  <path
     class="cls-3"
     d="m 110.98,186 c 1.4,0.84 2.32,2.32 2.32,4.04 0,2.62 -2.2,4.74 -4.92,4.74 -1.34,0 -2.56,-0.52 -3.44,-1.34"
     id="path2271" />
  <path
     id="j-green-04"
     class="cls-18"
     d="m 133.26,136.1 -0.24,-0.24 c -0.74,-0.74 -0.96,-1.78 -0.68,-2.7 -0.74,-0.16 -1.28,-0.82 -1.28,-1.6 0,-0.9 0.74,-1.64 1.64,-1.64 0.82,0 1.5,0.6 1.62,1.38 0.88,-0.2 1.86,0.04 2.54,0.72 l 0.1,0.1 -1.22,1.22 -0.1,-0.1 c -0.4,-0.4 -1.04,-0.4 -1.42,0 -0.4,0.4 -0.4,1.04 0,1.42 l 0.24,0.24 1.22,1.22 1.28,1.28 -1.22,1.22 -1.28,-1.28 -1.22,-1.22 v 0 z"
     style="stroke-width:1.99999" />
  <path
     id="j-yellow"
     class="cls-18"
     d="m 134.62,134.74 1.28,-1.28 1.22,-1.22 0.24,-0.24 c 0.72,-0.72 1.78,-0.96 2.7,-0.68 0.12,-0.8 0.8,-1.42 1.62,-1.42 0.9,0 1.64,0.74 1.64,1.64 0,0.84 -0.62,1.52 -1.42,1.62 0.26,0.92 0.04,1.96 -0.7,2.68 l -0.1,0.1 -1.22,-1.22 0.1,-0.1 c 0.4,-0.4 0.4,-1.04 0,-1.42 -0.4,-0.4 -1.02,-0.4 -1.42,0 l -0.24,0.24 -1.22,1.22 -1.28,1.28 -1.22,-1.22 v 0 z"
     style="stroke-width:1.99999" />
  <path
     id="j-red"
     class="cls-18"
     d="m 140.08,140.86 c -0.94,0.28 -1.98,0.06 -2.72,-0.68 l -0.1,-0.1 1.22,-1.22 0.1,0.1 c 0.4,0.4 1.04,0.4 1.42,0 0.4,-0.4 0.4,-1.02 0,-1.42 l -0.24,-0.24 -1.22,-1.22 -1.28,-1.28 1.22,-1.22 1.28,1.28 1.22,1.22 0.24,0.24 c 0.7,0.7 0.94,1.68 0.72,2.56 0.8,0.12 1.42,0.8 1.42,1.62 0,0.9 -0.74,1.64 -1.64,1.64 -0.8,0 -1.46,-0.56 -1.62,-1.32 v 0 z"
     style="stroke-width:1.99999" />
  <path
     id="j-blue"
     class="cls-18"
     d="m 139.6,137.46 -1.28,1.28 -1.22,1.22 -0.24,0.24 c -0.7,0.7 -1.68,0.94 -2.58,0.72 -0.16,0.74 -0.82,1.28 -1.6,1.28 -0.9,0 -1.64,-0.74 -1.64,-1.64 0,-0.78 0.54,-1.42 1.26,-1.6 -0.22,-0.9 0,-1.9 0.72,-2.6 l 0.1,-0.1 1.22,1.22 -0.1,0.1 c -0.4,0.4 -0.4,1.04 0,1.42 0.4,0.4 1.04,0.4 1.42,0 l 0.24,-0.24 1.22,-1.22 1.28,-1.28 1.22,1.22 v 0 z"
     style="stroke-width:1.99999" />
  <path
     class="cls-3"
     d="m 74.22,435.64 h 47.44"
     id="path2277" />
  <path
     class="cls-3"
     d="M 139.72,435.64 H 512.5"
     id="path2279" />
  <path
     class="cls-3"
     d="m 139.22,434.96 c 0,-4.7 -3.8,-8.5 -8.5,-8.5 -4.7,0 -8.5,3.8 -8.5,8.5"
     id="path2281" />
</svg>
