<svg xmlns="http://www.w3.org/2000/svg" id="world-flexible-system" width="600" height="600" viewBox="0 0 600 600"><defs id="defs4"><style id="style2">.cls-1,.cls-10,.cls-11,.cls-12,.cls-2,.cls-3,.cls-4,.cls-5,.cls-8,.cls-9{fill:none}.cls-1,.cls-14,.cls-16,.cls-2,.cls-3,.cls-4,.cls-5,.cls-8,.cls-9{stroke-linecap:round}.cls-1,.cls-14,.cls-16,.cls-18,.cls-2,.cls-4,.cls-5{stroke-width:1.5px}.cls-1,.cls-10,.cls-11,.cls-12,.cls-16,.cls-18,.cls-20,.cls-21,.cls-4,.cls-5,.cls-8,.cls-9{stroke-miterlimit:10}.cls-1,.cls-11,.cls-16{stroke:#fff}.cls-12,.cls-14,.cls-18,.cls-2,.cls-20,.cls-21,.cls-23,.cls-3,.cls-4,.cls-5,.cls-8{stroke:#7836b2}.cls-14,.cls-2,.cls-23,.cls-3{stroke-linejoin:round}.cls-23,.cls-3{stroke-width:1.49px}.cls-14,.cls-20,.cls-21,.cls-24{fill:#fff}.cls-16,.cls-18,.cls-23,.cls-25,.cls-26{fill:#bb9ad8}.cls-27,.cls-28{fill:#7836b2}.cls-26,.cls-28,.cls-5{fill-rule:evenodd}.cls-8,.cls-9{stroke-width:.5px}.cls-10,.cls-9{stroke:#bb9ad8}.cls-21{stroke-width:1.27px}</style></defs><circle id="circle6" cx="295.4" cy="308.78" r="211.22" style="fill:#e3e0e0;opacity:.5;stroke-width:2"/><path id="path8" d="M214.2 215h-11.92a4.14 4.14 0 0 1-4.12-4.12 4.14 4.14 0 0 1 4.12-4.12h21.6c2.56-.4 4.78-2.22 5.26-4.8a6.02 6.02 0 0 0-5.9-7.12h-79.88a4.14 4.14 0 0 1-4.12-4.12 4.14 4.14 0 0 1 4.12-4.12h.96q.46-.12.94-.12h37.04c2.1 0 3.82-1.52 3.82-3.38 0-1.64 1.34-3.02 3.1-3.32h16.2c3.3 0 6-2.7 6-6s-2.7-6-6-6H38.6c-3.3 0-6 2.7-6 6s2.7 6 6 6h16.18c1.76.3 3.1 1.68 3.1 3.32 0 1.86 1.72 3.38 3.82 3.38l43.68.12a4.14 4.14 0 0 1 4.12 4.12 4.14 4.14 0 0 1-4.12 4.12h-8.16c-2.96 0-5.72 1.98-6.26 4.88a6.02 6.02 0 0 0 5.9 7.12h32.34c1.02.12 2.3.06 3.5.24h15.94a4.14 4.14 0 0 1 4.12 4.12 4.14 4.14 0 0 1-4.12 4.12h-22.26a5.9 5.9 0 0 0-3.58 4.3 6.02 6.02 0 0 0 5.9 7.12h83.54c2.96 0 5.72-1.98 6.26-4.88a6 6 0 0 0-4.28-6.86z" class="cls-24" style="stroke-width:2"/><path id="path10" d="M238.32 304.66h-39.88l-.08-.08h-.06a4.14 4.14 0 0 1-4.12-4.12v-2.04a4.14 4.14 0 0 1 4.12-4.12H251c2.82 0 5.12-2.04 5.12-4.54s2.3-4.54 5.12-4.54h18.38a5.36 5.36 0 0 0 5.38-5.4c0-2.96-2.42-5.4-5.4-5.4H60.68a5.42 5.42 0 0 0-3.82 9.22 5.4 5.4 0 0 0 3.8 1.58h18.38c2.82 0 5.12 2.04 5.12 4.54s2.3 4.54 5.12 4.54h72.7a4.16 4.16 0 0 1 4.12 4.14v2.04a4.14 4.14 0 0 1-4.12 4.12l-110.66.08a8.5 8.5 0 0 0-8.5 8.5c0 4.68 3.82 8.5 8.5 8.5h187c4.68 0 8.5-3.82 8.5-8.5s-3.82-8.5-8.5-8.5z" class="cls-25" style="stroke-width:2"/><path id="path12" d="m542.42 343.58-7.26-.24a5.7 5.7 0 0 1-5.66-5.66v-.44a5.7 5.7 0 0 1 5.66-5.66h18.74a6.1 6.1 0 0 0 5.06-4.78 6.02 6.02 0 0 0-5.9-7.12H427.02c-2.96 0-5.72 1.98-6.26 4.88a6 6 0 0 0 4.88 7h49.24a5.7 5.7 0 0 1 5.66 5.66v.44a5.7 5.7 0 0 1-5.66 5.66l-16.02.24c-2.96 0-5.72 1.98-6.26 4.88a6.02 6.02 0 0 0 5.9 7.12h83.54c2.96 0 5.72-1.98 6.26-4.88a6.02 6.02 0 0 0-5.9-7.12z" class="cls-24" style="stroke-width:2"/><rect id="rect14" width="47.02" height="11.34" x="398.52" y="344.24" class="cls-24" rx="5.66" ry="5.66" style="stroke-width:2"/><circle id="circle16" cx="519.78" cy="251.62" r="2.94" class="cls-9"/><circle id="circle18" cx="467.42" cy="162.92" r="2.94" class="cls-9"/><circle id="circle20" cx="489.42" cy="194.06" r="3.68" class="cls-10" style="stroke-width:2"/><circle id="circle22" cx="426.74" cy="244.74" r="3.68" class="cls-11" style="stroke-width:2"/><circle id="circle24" cx="480" cy="232.66" r="2.4" class="cls-12" style="stroke-width:2"/><circle id="circle26" cx="492.6" cy="273.82" r="2.4" class="cls-25" style="stroke-width:2"/><circle id="circle28" cx="530.86" cy="214.2" r="2.4" class="cls-27" style="stroke-width:2"/><circle id="circle30" cx="459.06" cy="262" r="2.4" class="cls-24" style="stroke-width:2"/><circle id="circle32" cx="252.58" cy="120.74" r="2.94" style="fill:none;stroke-linecap:round;stroke-miterlimit:10;stroke:#7836b2;stroke-width:.41px"/><circle id="circle34" cx="169.56" cy="113.84" r="3.68" class="cls-10" style="stroke-width:2"/><circle id="circle36" cx="160.14" cy="152.46" r="2.4" class="cls-12" style="stroke-width:2"/><circle id="circle38" cx="298.66" cy="166.66" r="2.4" class="cls-25" style="stroke-width:2"/><circle id="circle40" cx="211" cy="134" r="2.4" class="cls-27" style="stroke-width:2"/><path id="line42" d="M122.46 113.84v5.48" class="cls-8"/><path id="line44" d="M125.2 116.58h-5.48" class="cls-8"/><circle id="circle46" cx="287.74" cy="133.24" r="3.68" class="cls-11" style="stroke-width:2"/><circle id="circle48" cx="252" cy="152" r="2.4" class="cls-24" style="stroke-width:2"/><path id="line50" d="M442.32 194.06v5.46" class="cls-8"/><path id="line52" d="M445.06 196.78h-5.48" class="cls-8"/><path id="line54" d="M548 238v5.46" class="cls-9"/><path id="line56" d="M550.74 240.74h-5.48" class="cls-9"/><circle id="circle58" cx="159.26" cy="464.08" r="2.94" class="cls-9"/><circle id="circle60" cx="219.54" cy="488.62" r="3.68" class="cls-10" style="stroke-width:2"/><circle id="circle62" cx="188.54" cy="460.84" r="2.4" class="cls-25" style="stroke-width:2"/><circle id="circle64" cx="184.66" cy="489.34" r="8.04" class="cls-25" style="stroke-width:2"/><circle id="circle66" cx="228.2" cy="460.5" r="2.4" class="cls-27" style="stroke-width:2"/><path id="line68" d="m147.94 491.38-3.52-4.18" class="cls-9"/><path id="line70" d="m144.1 491.04 4.18-3.52" class="cls-9"/><path id="rect72" d="M392 379.24h86.12v60.24H392z" class="cls-27" style="stroke-width:2"/><path id="path74" d="M400.68 191.86h-19.16L380.36 178a42 42 0 0 1-10.4-4.58l-10.24 8.66-13.54-13.54 8.98-10.62a42 42 0 0 1-4.1-10.6l-13.38-1.12v-19.16l13.86-1.16a42 42 0 0 1 4.58-10.4l-8.66-10.24 13.56-13.54 10.62 8.98a42 42 0 0 1 10.6-4.1l1.12-13.36h19.16l1.16 13.86a42 42 0 0 1 10.4 4.58L424.32 93l13.54 13.54-8.98 10.62a42 42 0 0 1 4.1 10.6l13.38 1.12v19.16l-13.86 1.16a42 42 0 0 1-4.58 10.4l8.66 10.24-13.54 13.54-10.62-8.98a42 42 0 0 1-10.6 4.1l-1.12 13.38z" style="stroke-linecap:round;stroke:#7836b2;stroke-linejoin:round;fill:#bb9ad8;stroke-width:2px"/><circle id="circle76" cx="392.02" cy="137.54" r="28.84" class="cls-24" style="stroke-width:2"/><path id="polygon78" d="m183.73 68.93 6.49 5.14-1.56 1.97-8.96-7.11 8.96-7.1 1.56 1.96z" class="cls-27" transform="scale(2)"/><path id="polygon80" d="m203.36 61.83 8.96 7.1-8.96 7.11-1.56-1.97 6.48-5.14-6.48-5.14z" class="cls-27" transform="scale(2)"/><path id="rect82" d="M-42.49 412.88h39.84v5.02h-39.84z" class="cls-27" style="stroke-width:2" transform="rotate(-73.76)"/><circle id="circle84" cx="461.24" cy="278.3" r="6.04" class="cls-24" style="stroke-width:2"/><path id="path86" d="M417.4 278.52h85.18v43.92h-35.8c-1.44 2.52-3.94 4.2-6.78 4.2a7.9 7.9 0 0 1-6.8-4.2h-35.8z" class="cls-26" style="stroke-width:2"/><path id="path88" d="M417.4 277.12h85.18c.78 0 1.4.64 1.4 1.4v43.92c0 .78-.64 1.4-1.4 1.4h-35.02a10 10 0 0 1-2.98 2.88 8.7 8.7 0 0 1-9.2 0 10 10 0 0 1-2.98-2.88h-35.02a1.4 1.4 0 0 1-1.4-1.4v-43.92c0-.78.64-1.4 1.4-1.4zm83.76 2.82H418.8v41.1h34.38c.48 0 .96.26 1.22.72a7 7 0 0 0 2.46 2.58 5.8 5.8 0 0 0 6.24 0 7.4 7.4 0 0 0 2.4-2.5c.22-.48.72-.8 1.26-.8h34.4z" class="cls-28" style="stroke-width:2"/><path id="path90" d="M453.38 277.12h13.22c.78 0 1.4.64 1.4 1.4v44.22q-.01.46-.26.82a10 10 0 0 1-3.32 3.26 8.7 8.7 0 0 1-8.84 0 10 10 0 0 1-3.38-3.34 1.5 1.5 0 0 1-.22-.74v-44.22c0-.78.64-1.4 1.4-1.4m11.8 2.82h-10.4v42.4q.9 1.31 2.2 2.08 1.36.8 3 .82 1.64-.02 3-.84c.86-.5 1.6-1.22 2.2-2.08v-42.4z" class="cls-28" style="stroke-width:2"/><path id="path92" d="M422.54 272.28h27.02c5.94 0 10.8 3.92 10.8 8.72v41.38q0 .84-.2 1.64c-.96-4.02-5.36-7.08-10.6-7.08h-27.02z" class="cls-26" style="stroke-width:2"/><path id="path94" d="M422.54 270.86h27.02c3.3 0 6.32 1.1 8.52 2.88a9.3 9.3 0 0 1 3.7 7.24v41.38a8 8 0 0 1-.24 1.96 1.4 1.4 0 0 1-1.7 1.04 1.4 1.4 0 0 1-1.06-1.06 7.2 7.2 0 0 0-3.16-4.22 11 11 0 0 0-6.08-1.76h-27.02a1.4 1.4 0 0 1-1.4-1.4v-44.66c0-.78.64-1.4 1.4-1.4zm27.02 2.82h-25.6v41.84h25.6c2.88 0 5.56.84 7.64 2.24a11 11 0 0 1 1.74 1.42v-38.2a6.6 6.6 0 0 0-2.64-5.06 10.8 10.8 0 0 0-6.74-2.24m9.24 50.62v-.62q-.06.32 0 .62" class="cls-28" style="stroke-width:2"/><path id="path96" d="M498.18 272.28h-27.02c-5.94 0-10.8 3.92-10.8 8.72v41.38q0 .84.2 1.64c.96-4.02 5.36-7.08 10.6-7.08h27.02z" class="cls-26" style="stroke-width:2"/><path id="path98" d="M496.76 273.68h-25.6c-2.64 0-5.04.86-6.76 2.24a6.5 6.5 0 0 0-2.64 5.06v38.2a11 11 0 0 1 1.74-1.42 14 14 0 0 1 7.64-2.24h25.6v-41.84zm-25.6-2.82h27.02c.78 0 1.4.64 1.4 1.4v44.66c0 .78-.64 1.4-1.4 1.4h-27.02c-2.32 0-4.44.66-6.08 1.76a7.4 7.4 0 0 0-3.16 4.22c-.12.52-.5.94-1.06 1.06a1.4 1.4 0 0 1-1.7-1.04 8 8 0 0 1-.24-1.96v-41.38c0-2.84 1.42-5.4 3.7-7.24a13.6 13.6 0 0 1 8.52-2.88z" class="cls-28" style="stroke-width:2"/><path id="path100" d="M431.28 281.66h19.16" class="cls-5"/><path id="path102" d="M431.28 288.32h19.16" class="cls-5"/><path id="path104" d="M431.28 295h19.16" class="cls-5"/><path id="path106" d="M431.28 301.66h19.16" class="cls-5"/><path id="path108" d="M431.28 308.32h19.16" class="cls-5"/><path id="path110" d="M469.78 281.66h19.16" class="cls-5"/><path id="path112" d="M469.78 288.32h19.16" class="cls-5"/><path id="path114" d="M469.78 295h19.16" class="cls-5"/><path id="path116" d="M469.78 301.66h19.16" class="cls-5"/><path id="path118" d="M469.78 308.32h19.16" class="cls-5"/><path id="rect120" d="M279.58 264.76h67.34v172.96h-67.34z" style="stroke-linecap:round;stroke:#7836b2;stroke-linejoin:round;fill:#fff;stroke-width:1.5px"/><g id="Rectangle-436" transform="scale(2)"><path id="rect122" d="M140.06 132.48h33.32v4.62h-33.32z" class="cls-27"/></g><g id="Rectangle-436-2" transform="scale(2)"><path id="rect125" d="M140.06 214.48h33.32v4.62h-33.32z" class="cls-27"/></g><g id="Oval-475" transform="scale(2)"><circle id="circle128" cx="142.6" cy="134.79" r=".58" class="cls-20"/><path id="path130" d="M142.6 135.56a.77.77 0 1 1 0-1.54.77.77 0 0 1 0 1.54zm0-1.15a.4.4 0 0 0-.39.39c0 .22.17.39.39.39s.39-.17.39-.39a.4.4 0 0 0-.39-.39z" class="cls-20"/></g><g id="Oval-476" transform="scale(2)"><circle id="circle133" cx="145.48" cy="134.79" r=".58" class="cls-20"/><path id="path135" d="M145.48 135.56a.77.77 0 1 1 0-1.54.77.77 0 0 1 0 1.54zm0-1.15a.4.4 0 0 0-.39.39c0 .22.17.39.39.39s.39-.17.39-.39a.4.4 0 0 0-.39-.39z" class="cls-20"/></g><g id="Oval-477" transform="scale(2)"><circle id="circle138" cx="148.37" cy="134.79" r=".58" class="cls-20"/><path id="path140" d="M148.37 135.56a.77.77 0 1 1 0-1.54.77.77 0 0 1 0 1.54zm0-1.15a.4.4 0 0 0-.39.39c0 .22.17.39.39.39s.39-.17.39-.39a.4.4 0 0 0-.39-.39z" class="cls-20"/></g><path id="path143" d="M337.4 377.16h-47v-35.48h47zm-44.7-2.3h42.4v-30.9h-42.4z" class="cls-27" style="stroke-width:2"/><path id="rect145" d="M-106.05 438.75h2.3v54.62h-2.3z" class="cls-27" style="stroke-width:2" transform="rotate(-53.81)"/><path id="rect147" d="M9.93 474.59h55.68v2.3H9.93z" class="cls-27" style="stroke-width:2" transform="rotate(-36.59)"/><path id="path149" d="M313.86 420.98h-22.74v-19.56h22.74zm-20.46-2.3h18.16V403.7H293.4Z" class="cls-27" style="stroke-width:2"/><path id="rect151" d="M-123.84 482.69h2.3v26.24h-2.3z" class="cls-27" style="stroke-width:2" transform="rotate(-50.23)"/><path id="rect153" d="M-47.58 508.19h26.76v2.3h-26.76z" class="cls-27" style="stroke-width:2" transform="rotate(-40.18)"/><circle id="circle155" cx="296.62" cy="319.78" r="4.9" class="cls-27" style="stroke-width:2"/><path id="rect157" d="M291.46 327.92h10.34v2.3h-10.34z" class="cls-27" style="stroke-width:2"/><circle id="circle159" cx="313.44" cy="319.78" r="4.9" class="cls-27" style="stroke-width:2"/><path id="rect161" d="M308.26 327.92h10.34v2.3h-10.34z" class="cls-27" style="stroke-width:2"/><circle id="circle163" cx="330.24" cy="319.78" r="4.9" class="cls-27" style="stroke-width:2"/><path id="rect165" d="M325.08 327.92h10.34v2.3h-10.34z" class="cls-27" style="stroke-width:2"/><path id="rect167" d="M291.46 331.76h10.34v2.3h-10.34z" class="cls-27" style="stroke-width:2"/><path id="rect169" d="M291.08 384.38h44.94v2.3h-44.94z" class="cls-27" style="stroke-width:2"/><path id="rect171" d="M291.08 388.58h44.94v2.3h-44.94z" class="cls-27" style="stroke-width:2"/><path id="rect173" d="M291.08 392.78h44.94v2.3h-44.94z" class="cls-27" style="stroke-width:2"/><path id="rect175" d="M317.98 410.1H336v2.3h-18.02z" class="cls-27" style="stroke-width:2"/><path id="rect177" d="M317.98 414.3H336v2.3h-18.02z" class="cls-27" style="stroke-width:2"/><path id="rect179" d="M317.98 418.5H336v2.3h-18.02z" class="cls-27" style="stroke-width:2"/><path id="rect181" d="M308.26 331.76h10.34v2.3h-10.34z" class="cls-27" style="stroke-width:2"/><path id="rect183" d="M325.08 331.76h10.34v2.3h-10.34z" class="cls-27" style="stroke-width:2"/><path id="rect185" d="M308.26 280.92h7.08v2.3h-7.08z" class="cls-27" style="stroke-width:2"/><path id="rect187" d="M319.78 280.92h7.08v2.3h-7.08z" class="cls-27" style="stroke-width:2"/><path id="rect189" d="M331.3 280.92h7.08v2.3h-7.08z" class="cls-27" style="stroke-width:2"/><path id="path191" d="M330.18 306.18H296.7V291.6h33.48zm-31.18-2.3h28.88v-9.98H299Z" class="cls-27" style="stroke-width:2"/><path id="rect193" d="M288.34 279.78h7.84v4.38h-7.84z" class="cls-27" style="stroke-width:2"/><path id="rect195" d="M305.76 297.36h15.38v2.3h-15.38z" class="cls-27" style="stroke-width:2"/><path id="path197" d="M394.9 255.86c0 1.6 1.2 2.88 2.68 2.88h5.2v10.8l12.76-10.8h15.08c1.48 0 2.7-1.28 2.7-2.88v-32.68c0-1.6-1.2-2.88-2.7-2.88h-33.04c-1.48 0-2.68 1.28-2.68 2.88z" class="cls-24" style="stroke-width:2"/><path id="path199" d="M400.78 268.72v-5.54a2.4 2.4 0 0 0-2.4-2.4h-.78a4.8 4.8 0 0 1-4.7-4.9V223.2c0-2.7 2.12-4.9 4.7-4.9h33.04c2.6 0 4.7 2.2 4.7 4.9v32.68c0 2.7-2.12 4.9-4.7 4.9h-13.46c-.56 0-1.12.2-1.56.56l-10.88 9.22a2.4 2.4 0 0 1-3.96-1.84z" style="stroke-width:1.5px;stroke-miterlimit:10;stroke:#7836b2;fill:#fff"/><path id="polygon201" d="m204.2 115.52 3.61 2.08 3.61 2.09-3.61 2.08-3.61 2.09v-4.17z" class="cls-27" transform="scale(2)"/><path id="path203" d="M127.08 414.04a1.5 1.5 0 0 0-2.1.2l-2.54 3.1a1.48 1.48 0 0 1-2.62-.86v-4.94q.01-.49.32-.88l7.14-8.72a1.5 1.5 0 0 0-.2-2.1 1.5 1.5 0 0 0-2.1.2l-2.54 3.1a1.48 1.48 0 0 1-2.62-.86v-6.7c0-.82-.68-1.5-1.5-1.5s-1.5.68-1.5 1.5v6.7c-.06 1.34-1.76 1.94-2.62.88l-2.54-3.1a1.5 1.5 0 1 0-2.3 1.9l7.14 8.72c.2.24.32.56.32.88v4.92c-.06 1.34-1.76 1.94-2.62.88l-2.54-3.1a1.5 1.5 0 1 0-2.3 1.9l7.14 8.72q.31.4.32.88v12.56a1.48 1.48 0 1 0 2.96 0v-12.54q.01-.49.32-.88l7.14-8.72a1.5 1.5 0 0 0-.2-2.1z" class="cls-27" style="stroke-width:2"/><path id="path205" d="M379.92 399.84a1.5 1.5 0 0 0-2.1.2l-2.54 3.1a1.48 1.48 0 0 1-2.62-.86v-4.74q.01-.49.32-.88l7.14-8.72a1.5 1.5 0 0 0-.2-2.1 1.5 1.5 0 0 0-2.1.2l-2.54 3.1a1.48 1.48 0 0 1-2.62-.86v-6.7c0-.82-.68-1.5-1.5-1.5s-1.5.68-1.5 1.5v6.7c-.06 1.34-1.76 1.94-2.62.88l-2.54-3.1a1.5 1.5 0 1 0-2.3 1.9l7.14 8.72q.31.38.32.88v4.74c-.06 1.34-1.76 1.94-2.62.88l-2.54-3.1a1.47 1.47 0 0 0-2.62.96q-.1.62.32 1.14l7.14 8.72q.31.4.32.88v4.74c-.06 1.34-1.76 1.94-2.62.88l-2.54-3.1a1.5 1.5 0 1 0-2.3 1.9l7.14 8.72q.31.4.32.88v12.56a1.48 1.48 0 1 0 2.96 0v-12.54q.01-.49.32-.88l7.14-8.72a1.5 1.5 0 0 0-.2-2.1 1.5 1.5 0 0 0-2.1.2l-2.54 3.1a1.48 1.48 0 0 1-2.62-.86v-4.74q.01-.49.32-.88l7.14-8.72q.4-.52.32-1.14c0-.44-.16-.86-.52-1.16z" class="cls-27" style="stroke-width:2"/><path id="path207" d="m99.06 396.86 7.14-8.72a1.5 1.5 0 0 0-.2-2.1 1.5 1.5 0 0 0-2.1.2l-2.54 3.1a1.48 1.48 0 0 1-2.62-.86v-4.94q.01-.49.32-.88l7.14-8.72a1.5 1.5 0 0 0-.2-2.1 1.5 1.5 0 0 0-2.1.2l-2.54 3.1a1.48 1.48 0 0 1-2.62-.86v-6.7c0-.82-.68-1.5-1.5-1.5s-1.5.68-1.5 1.5v6.7c-.06 1.34-1.76 1.94-2.62.88l-2.54-3.1a1.5 1.5 0 1 0-2.3 1.9l7.14 8.72q.31.38.32.88v4.92c-.06 1.34-1.76 1.94-2.62.88l-2.54-3.1a1.5 1.5 0 1 0-2.3 1.9l7.14 8.72q.31.4.32.88v4.54c-.06 1.34-1.76 1.94-2.62.88l-2.54-3.1a1.5 1.5 0 1 0-2.3 1.9l7.14 8.72q.31.38.32.88v4.92c-.06 1.34-1.76 1.94-2.62.88l-2.54-3.1a1.5 1.5 0 1 0-2.3 1.9l7.14 8.72q.31.4.32.88v12.56a1.48 1.48 0 1 0 2.96 0V425.8q.01-.49.32-.88l7.14-8.72a1.5 1.5 0 0 0-.2-2.1 1.5 1.5 0 0 0-2.1.2l-2.54 3.1a1.48 1.48 0 0 1-2.62-.86v-4.94q.01-.49.32-.88l7.14-8.72a1.5 1.5 0 0 0-.2-2.1 1.5 1.5 0 0 0-2.1.2l-2.54 3.1a1.48 1.48 0 0 1-2.62-.86v-4.56q.01-.49.32-.88z" class="cls-27" style="stroke-width:2"/><path id="path209" d="m501.72 396.86 7.14-8.72a1.5 1.5 0 0 0-.2-2.1 1.5 1.5 0 0 0-2.1.2l-2.54 3.1a1.48 1.48 0 0 1-2.62-.86v-4.94q.01-.49.32-.88l7.14-8.72a1.5 1.5 0 0 0-.2-2.1 1.5 1.5 0 0 0-2.1.2l-2.54 3.1a1.48 1.48 0 0 1-2.62-.86v-6.7c0-.82-.68-1.5-1.5-1.5s-1.5.68-1.5 1.5v6.7c-.06 1.34-1.76 1.94-2.62.88l-2.54-3.1a1.5 1.5 0 1 0-2.3 1.9l7.14 8.72q.31.38.32.88v4.92c-.06 1.34-1.76 1.94-2.62.88l-2.54-3.1a1.5 1.5 0 1 0-2.3 1.9l7.14 8.72q.31.4.32.88v4.54c-.06 1.34-1.76 1.94-2.62.88l-2.54-3.1a1.5 1.5 0 1 0-2.3 1.9l7.14 8.72q.31.38.32.88v4.92c-.06 1.34-1.76 1.94-2.62.88l-2.54-3.1a1.5 1.5 0 1 0-2.3 1.9l7.14 8.72q.31.4.32.88v12.56a1.48 1.48 0 1 0 2.96 0V425.8q.01-.49.32-.88l7.14-8.72a1.5 1.5 0 0 0-.2-2.1 1.5 1.5 0 0 0-2.1.2l-2.54 3.1a1.48 1.48 0 0 1-2.62-.86v-4.94q.01-.49.32-.88l7.14-8.72a1.5 1.5 0 0 0-.2-2.1 1.5 1.5 0 0 0-2.1.2l-2.54 3.1a1.48 1.48 0 0 1-2.62-.86v-4.56q.01-.49.32-.88z" class="cls-27" style="stroke-width:2"/><path id="path211" d="M218.06 326.84v-27.36l-18.38-10.54-8.62 15.02s1.2 7.46 7.86 10.86c.66.34 2.26.72 2.26 2.54v9.48h16.86z" class="cls-14"/><path id="line213" d="M200.88 278.84v-19.52" class="cls-2"/><path id="path215" d="M200.84 318.92c-5.2 0-5.2-5.28-5.2-5.28v-40.68h10.48v40.68s-.06 5.28-5.26 5.28z" class="cls-18"/><path id="path217" d="M201.96 307.68a1.58 1.58 0 1 1-2.24-2.23 1.58 1.58 0 0 1 2.24 2.23" class="cls-27" style="stroke-width:2"/><path id="path219" d="M174.58 237.94a26.29 26.29 0 1 1 52.57.01 26.29 26.29 0 0 1-52.57-.01z" style="stroke-width:1.5px;stroke:#7836b2;stroke-linejoin:round;fill:#bb9ad8"/><path id="path221" d="M181.04 237.94a19.8 19.8 0 1 1 39.59-.01 19.8 19.8 0 0 1-39.59.01" class="cls-24" style="stroke-width:2"/><path id="path223" d="M191.72 287.6a2.84 2.84 0 0 1-2.86-2.82v0a2.84 2.84 0 0 1 2.82-2.86h1.48a2.84 2.84 0 0 1 2.86 2.82v0a2.84 2.84 0 0 1-2.84 2.86h-1.48z" class="cls-14"/><path id="path225" d="M191.82 304.66a2.84 2.84 0 0 1-2.86-2.84v0a2.84 2.84 0 0 1 2.84-2.86h2.4a2.84 2.84 0 0 1 2.86 2.82v0a2.84 2.84 0 0 1-2.82 2.86h-2.4z" class="cls-14"/><path id="path227" d="M190.6 293.28a2.84 2.84 0 0 1-2.86-2.84v0a2.84 2.84 0 0 1 2.82-2.86h5.38a2.86 2.86 0 0 1 2.86 2.84v0a2.84 2.84 0 0 1-2.84 2.86h-5.38z" class="cls-14"/><path id="path229" d="M190.94 298.98a2.86 2.86 0 0 1-2.86-2.84v0a2.84 2.84 0 0 1 2.84-2.86h4.66a2.8 2.8 0 0 1 2.86 2.8v0a2.84 2.84 0 0 1-2.84 2.86h-4.66z" class="cls-14"/><path id="path231" d="M211.74 281.9h-8.02s-2.66 6.62 6.84 6.62v6.1s-7.78 2.68-5.96 11.08c.7 3.2 2.4 5.3 4.38 6.7l9.08 2.66v-23.02c0-5.22 0-10.14-6.3-10.14z" class="cls-24" style="stroke-width:2"/><path id="path233" d="M218.06 315.04v-23.02c0-5.22 0-10.14-6.3-10.14h-8.02s-2.66 6.62 6.84 6.62v6.1s-7.78 2.68-5.96 11.08c.7 3.2 2.4 5.3 4.38 6.7" class="cls-2"/><path id="rect235" d="M176.3 346h61.66v92.16H176.3z" class="cls-23"/><path id="rect237" d="M182.88 327h48.5v18.5h-48.5z" class="cls-23"/><circle id="circle239" cx="200.26" cy="238.5" r="6.86" class="cls-25" style="stroke-width:2"/><path id="path241" d="M216.14 237.86c-2.78-4.56-8.94-7.5-15.66-7.5s-12.88 2.94-15.66 7.5a.8.8 0 0 0 0 .86c2.78 4.56 8.94 7.5 15.66 7.5s12.88-2.94 15.66-7.5a.8.8 0 0 0 0-.86m-29.68.42c1.74-2.56 4.76-4.48 8.32-5.5a7.87 7.87 0 0 0 0 11c-3.56-1.02-6.58-2.94-8.32-5.5m14 6.3a6.3 6.3 0 1 1 0-12.6 6.3 6.3 0 0 1 0 12.6m5.68-.8a7.87 7.87 0 0 0 0-11c3.56 1.02 6.58 2.94 8.32 5.5-1.74 2.56-4.74 4.48-8.32 5.5" class="cls-27" style="stroke-width:2"/><path id="path243" d="M200.46 233.54q-.69 0-1.46.24c-.3.1-.5.34-.56.64s.08.6.32.78c.2.14.5.44.5.92 0 .64-.52 1.18-1.16 1.18a1.1 1.1 0 0 1-.86-.42.8.8 0 0 0-.82-.26q-.47.13-.6.6-.12.53-.12 1.04a4.74 4.74 0 1 0 4.74-4.74z" class="cls-27" style="stroke-width:2"/><path id="path245" d="M200.46 241.42a3.1 3.1 0 0 1-3.06-2.58q.36.1.72.1a2.8 2.8 0 0 0 2.62-3.76 3.13 3.13 0 0 1 2.86 3.1c0 1.72-1.4 3.12-3.12 3.12z" class="cls-24" style="stroke-width:2"/><path id="rect247" d="M185.66 363.34h11.32v11.32h-11.32z" class="cls-21"/><path id="rect249" d="M201.5 379.18h11.32v11.32H201.5z" class="cls-21"/><path id="rect251" d="M217.36 395.02h11.32v11.32h-11.32z" class="cls-21"/><circle id="circle253" cx="194.46" cy="336" r="3" class="cls-27" style="stroke-width:2"/><circle id="circle255" cx="207.12" cy="336" r="3" class="cls-27" style="stroke-width:2"/><circle id="circle257" cx="219.8" cy="336" r="3" class="cls-27" style="stroke-width:2"/><path id="path259" d="M238.1 402.5v35.7h10.98v-12.86c0-5.14 4.2-9.34 9.34-9.34s9.34 4.2 9.34 9.34v12.86h10.98v-35.7h-40.62z" class="cls-23"/><path id="line261" d="M258.42 402v-24.34" class="cls-23"/><path id="rect263" d="M431.02 65.82h20.32v20.32h-20.32z" style="stroke:#7836b2;stroke-linejoin:round;stroke-width:1.49px;fill:#fff" transform="rotate(45)"/><path id="path265" d="M257.72 372.92a.5.5 0 0 1-.42-.18l-2.32-2.32a.6.6 0 0 1-.16-.58.6.6 0 0 1 .42-.42c.48-.14.6-.26.6-.26a1 1 0 0 0 .24-.6 1 1 0 0 0-.24-.6.87.87 0 0 0-1.2 0s-.12.14-.26.6a.6.6 0 0 1-.42.42.6.6 0 0 1-.58-.16l-2.32-2.32a.6.6 0 0 1 0-.84l2.2-2.2-.22-.18a2.1 2.1 0 0 1 0-2.92 2.1 2.1 0 0 1 2.9 0l.18.22 2.2-2.2a.6.6 0 0 1 .84 0l2.32 2.32q.25.25.16.58a.6.6 0 0 1-.42.42c-.48.14-.6.24-.6.26a.83.83 0 0 0 0 1.2c.32.32.88.32 1.2 0 0 0 .12-.12.26-.6q.1-.32.42-.42c.2-.06.42 0 .58.16l2.32 2.32c.24.24.24.62 0 .84l-2.2 2.2.22.18q.6.61.6 1.46a2 2 0 0 1-.6 1.46c-.78.78-2.12.78-2.9 0l-.18-.22-2.2 2.2a.6.6 0 0 1-.42.18" class="cls-27" style="stroke-width:2"/><path id="polyline267" d="M195.81 218.44v-35.63h43.25v35.63" class="cls-2" transform="scale(2)"/><path id="line269" d="M392 379.24h85.34" class="cls-2"/><circle id="circle271" cx="411.36" cy="396.12" r="9.1" class="cls-25" style="stroke-width:2"/><path id="polygon273" d="m201.81 198.11 2.05 1.62-.5.63-2.82-2.25 2.82-2.24.5.62z" class="cls-24" transform="scale(2)"/><path id="polygon275" d="m208 195.87 2.83 2.24-2.83 2.25-.49-.63 2.05-1.62-2.05-1.62z" class="cls-24" transform="scale(2)"/><path id="rect277" d="M-271.58 505.1H-259v1.58h-12.58z" class="cls-24" style="stroke-width:2" transform="rotate(-73.76)"/><path id="line279" d="M427.34 394h40" class="cls-16"/><path id="line281" d="M427.34 402.66h40" class="cls-16"/><path id="line283" d="M401.66 411.34h65.68" class="cls-16"/><path id="line285" d="M401.66 420.34h65.68" class="cls-16"/><circle id="circle287" cx="400" cy="372.34" r="2.34" class="cls-27" style="stroke-width:2"/><circle id="circle289" cx="408" cy="372.34" r="2.34" class="cls-27" style="stroke-width:2"/><circle id="circle291" cx="416" cy="372.34" r="2.34" class="cls-27" style="stroke-width:2"/><path id="line293" d="M204.34 364.66h25.32" class="cls-3"/><path id="line295" d="M204.34 371.66h25.32" class="cls-3"/><path id="line297" d="M183.66 397.34H209" class="cls-3"/><path id="line299" d="M183.66 404.34H209" class="cls-3"/><path id="line301" d="M357.34 458.66H480" class="cls-4"/><path id="line303" d="M322.66 474h84.68" class="cls-4"/><path id="line305" d="M395.34 487.34H440" class="cls-4"/><path id="path307" d="M363.04 312.5h42.18c.82 0 1.48-.66 1.48-1.48V280.1c0-.82-.66-1.48-1.48-1.48h-21.58c-.4 0-.78-.16-1.04-.44l-7.82-7.82a1.48 1.48 0 0 0-2.54 1.04v5.72c0 .82-.66 1.48-1.48 1.48h-7.72c-.82 0-1.48.66-1.48 1.48V311c0 .82.66 1.48 1.48 1.48z" class="cls-18"/><path id="line309" d="M396.34 299.5h-24.4" class="cls-1"/><path id="line311" d="M396.34 291.52h-24.4" class="cls-1"/><path id="polyline313" d="M113.58 118.97h9.3V109" style="fill:none;stroke:#7836b2;stroke-linejoin:round;stroke-width:1.49px" transform="scale(2)"/><path id="path315" d="M275.74 254.74h2.6v-24.1h7.5a6.87 6.87 0 0 0 6.86-6.86v-6.84h3.5c.46 0 .9-.24 1.12-.66.24-.4.24-.9 0-1.3l-6.48-11.22v-.6c0-5.86-2.28-11.36-6.42-15.5l-1.84 1.84a19.2 19.2 0 0 1 5.66 13.66l-.02.88q-.01.38.18.7l5.54 9.6h-2.54c-.72 0-1.3.58-1.3 1.3v8.14a4.3 4.3 0 0 1-4.26 4.26h-8.8c-.72 0-1.3.58-1.3 1.3z" class="cls-27" style="stroke-width:2"/><path id="path317" d="M260.3 174.32a20.5 20.5 0 0 1 16.04 33.26l1.2 4.48-4.5-1.2a20.5 20.5 0 1 1-12.76-36.54z" class="cls-24" style="stroke-width:2"/><path id="path319" d="M238.5 194.82c0-12.02 9.78-21.8 21.8-21.8s21.8 9.78 21.8 21.8c0 4.76-1.5 9.26-4.34 13.04l1.62 6.04-6.04-1.62a21.5 21.5 0 0 1-13.04 4.34 21.83 21.83 0 0 1-21.8-21.8m37.2 15.4-.78-2.94.4-.52a19 19 0 0 0 4.18-11.94c0-10.58-8.62-19.2-19.2-19.2a19.23 19.23 0 0 0-19.2 19.2c0 10.58 8.62 19.2 19.2 19.2 4.38 0 8.52-1.44 11.94-4.18l.52-.4z" class="cls-27" style="stroke-width:2"/><circle id="circle321" cx="260.3" cy="194.82" r="16.6" class="cls-25" style="stroke-width:2"/><circle id="circle323" cx="260.24" cy="190.28" r="5.54" class="cls-24" style="stroke-width:2"/><path id="path325" d="M266.18 202.96c.46 0 .82-.38.82-.82a.84.84 0 0 0-.82-.82h-1.14a5 5 0 0 1 .74-2.08c3.48-4.48 3.7-8.76 3.7-9.06a9.25 9.25 0 1 0-18.52 0c0 .3.22 4.58 3.7 9.06.42.56.64 1.34.74 2.08h-1.3a.8.8 0 0 0-.82.82c0 .44.38.82.82.82h1.08v1.14h-1.08a.8.8 0 0 0-.82.82c0 .44.38.82.82.82h12.04c.46 0 .82-.38.82-.82a.84.84 0 0 0-.82-.82h-1.28v-1.14h1.28zm-13.52-12.8a7.59 7.59 0 0 1 15.16-.02c0 .04-.12 3.9-3.36 8.06v.02a6 6 0 0 0-.94 2.14h-.82l.9-7.68a.84.84 0 0 0-.72-.92.84.84 0 0 0-.92.72l-.92 7.88h-1.72l-.76-7.88a.8.8 0 0 0-.9-.74.8.8 0 0 0-.74.9l.74 7.72h-.72q-.3-1.3-.92-2.14v-.02c-3.24-4.16-3.36-8.02-3.36-8.04m10.58 13.92h-6.34v-1.14h6.34z" class="cls-27" style="stroke-width:2"/><path id="path327" d="M264.32 206.86h-8.14a.8.8 0 0 0-.82.82c0 .44.38.82.82.82h8.14c.46 0 .82-.38.82-.82a.84.84 0 0 0-.82-.82" class="cls-27" style="stroke-width:2"/><path id="path329" d="M129.22 438.66a16 16 0 1 1 32 0" class="cls-4"/><path id="path331" d="M76.22 438.66h53" class="cls-4"/><path id="path333" d="M161.22 438.66H514.5" class="cls-4"/></svg>