<svg xmlns="http://www.w3.org/2000/svg" id="world-open-source" width="600" height="600" viewBox="0 0 600 600"><defs id="defs2566"><style id="style2564">.cls-1,.cls-10,.cls-2,.cls-4,.cls-6,.cls-7,.cls-8{fill:none}.cls-1,.cls-13,.cls-14,.cls-2,.cls-4,.cls-6,.cls-7{stroke-linecap:round}.cls-1,.cls-13,.cls-16,.cls-2,.cls-4{stroke-width:1.5px}.cls-1,.cls-10,.cls-16,.cls-4,.cls-6,.cls-7,.cls-8{stroke-miterlimit:10}.cls-1{stroke:#fff}.cls-10,.cls-13,.cls-14,.cls-16,.cls-17,.cls-2,.cls-4,.cls-6{stroke:#7836b2}.cls-13,.cls-14,.cls-17,.cls-2{stroke-linejoin:round}.cls-17{stroke-width:1.23px}.cls-13,.cls-14,.cls-17,.cls-19{fill:#fff}.cls-16,.cls-20{fill:#bb9ad8}.cls-21{fill:#7836b2}.cls-6,.cls-7{stroke-width:.5px}.cls-7,.cls-8{stroke:#bb9ad8}.cls-14{stroke-width:.73px}</style></defs><circle id="circle2568" cx="532.86" cy="214.2" r="2.4" class="cls-21" style="stroke-width:1.99999"/><path id="line2570" d="M548 238v5.46" class="cls-7"/><path id="line2572" d="M550.74 240.74h-5.48" class="cls-7"/><circle id="circle2574" cx="293.4" cy="304.78" r="211.22" style="fill:#e3e0e0;opacity:.5;stroke-width:1.99999"/><path id="path2576" d="M580.46 347h-11.92a4.14 4.14 0 0 1-4.12-4.12 4.14 4.14 0 0 1 4.12-4.12h21.6c2.56-.4 4.78-2.22 5.26-4.8a6.02 6.02 0 0 0-5.9-7.12h-79.88a4.14 4.14 0 0 1-4.12-4.12 4.14 4.14 0 0 1 4.12-4.12h.96q.45-.12.94-.12h37.04c2.1 0 3.82-1.52 3.82-3.38 0-1.64 1.34-3.02 3.1-3.32h16.2c3.3 0 6-2.7 6-6s-2.7-6-6-6H404.84c-3.3 0-6 2.7-6 6s2.7 6 6 6h16.18c1.76.3 3.1 1.68 3.1 3.32 0 1.86 1.72 3.38 3.82 3.38l43.68.12a4.14 4.14 0 0 1 4.12 4.12 4.14 4.14 0 0 1-4.12 4.12h-8.16c-2.96 0-5.72 1.98-6.26 4.88a6.02 6.02 0 0 0 5.9 7.12h32.34c1.02.12 2.3.06 3.5.24h15.94a4.14 4.14 0 0 1 4.12 4.12 4.14 4.14 0 0 1-4.12 4.12h-22.26a5.9 5.9 0 0 0-3.58 4.3 6.02 6.02 0 0 0 5.9 7.12h83.54c2.96 0 5.72-1.98 6.26-4.88a6 6 0 0 0-4.28-6.86" class="cls-19" style="stroke-width:1.99999"/><path id="path2578" d="M235.66 237.5h-39.88l-.08-.08h-.06a4.14 4.14 0 0 1-4.12-4.12v-2.04a4.14 4.14 0 0 1 4.12-4.12h52.7c2.82 0 5.12-2.04 5.12-4.54s2.3-4.54 5.12-4.54h18.38a5.36 5.36 0 0 0 5.38-5.4c0-2.96-2.42-5.4-5.4-5.4H58a5.42 5.42 0 0 0-3.82 9.22 5.4 5.4 0 0 0 3.8 1.58h18.38c2.82 0 5.12 2.04 5.12 4.54s2.3 4.54 5.12 4.54h72.7a4.16 4.16 0 0 1 4.12 4.14v2.04a4.14 4.14 0 0 1-4.12 4.12l-110.66.08a8.5 8.5 0 0 0-8.5 8.5c0 4.68 3.82 8.5 8.5 8.5h187c4.68 0 8.5-3.82 8.5-8.5s-3.82-8.5-8.5-8.5z" class="cls-20" style="stroke-width:1.99999"/><path id="path2580" d="m210.92 343.42-7.26-.24a5.7 5.7 0 0 1-5.66-5.66v-.44a5.7 5.7 0 0 1 5.66-5.66h18.74a6.1 6.1 0 0 0 5.06-4.78 6.02 6.02 0 0 0-5.9-7.12H95.52c-2.96 0-5.72 1.98-6.26 4.88a6 6 0 0 0 4.88 7h49.24a5.7 5.7 0 0 1 5.66 5.66v.44a5.7 5.7 0 0 1-5.66 5.66l-16.02.24c-2.96 0-5.72 1.98-6.26 4.88a6.02 6.02 0 0 0 5.9 7.12h83.54c2.96 0 5.72-1.98 6.26-4.88a6.02 6.02 0 0 0-5.9-7.12z" class="cls-19" style="stroke-width:1.99999"/><rect id="rect2582" width="47.02" height="11.34" x="67.02" y="344.08" class="cls-19" rx="5.66" ry="5.66" style="stroke-width:1.99999"/><path id="path2584" d="M413.8 369.88v-20.04a8.64 8.64 0 0 0-8.64-8.62h-82.52a8.63 8.63 0 0 0-8.62 8.62v55.4a8.65 8.65 0 0 0 8.62 8.64h25.52a13.2 13.2 0 0 1-12.94 11.56 8 8 0 0 0-7.86 7.86c0 .78.62 1.4 1.4 1.4h70.3c18.8 0 34.1-15.3 34.1-34.1 0-13.52-7.94-25.2-19.38-30.72zm-96.98-20.04c0-3.2 2.62-5.82 5.82-5.82h82.52a5.83 5.83 0 0 1 5.82 5.82v18.84a34 34 0 0 0-11.92-2.2 34.15 34.15 0 0 0-33.64 28.7H316.8v-45.34zm5.82 61.24a5.83 5.83 0 0 1-5.82-5.82V398h48.28c-.06.86-.14 1.72-.14 2.6 0 3.66.6 7.16 1.66 10.48zm28.36 2.8h16.66a34 34 0 0 0 8.12 11.56h-31.54c3.76-2.6 6.3-6.78 6.78-11.56zm-20.64 18.02a5.06 5.06 0 0 1 4.88-3.66h43.94a34 34 0 0 0 6.38 3.66zm68.7 0a31.33 31.33 0 0 1-31.3-31.3 31.33 31.33 0 0 1 31.3-31.3 31.33 31.33 0 0 1 31.3 31.3 31.33 31.33 0 0 1-31.3 31.3" class="cls-21" style="stroke-width:1.99999"/><g id="Rectangle-445" transform="scale(2)"><path id="polygon2586" d="m138.57 124.42-4.2-2.58.53-.88 5.63 3.46-5.63 3.46-.53-.87z" class="cls-21"/></g><g id="Rectangle-445-2" transform="scale(2)"><path id="polygon2589" d="m149.46 130.06-4.21-2.59.54-.87 5.63 3.46-5.63 3.45-.54-.87z" class="cls-21"/></g><g id="Rectangle-445-3" transform="scale(2)"><path id="polygon2592" d="m149.14 115.8-4.2-2.58.53-.88 5.63 3.46-5.63 3.46-.53-.87z" class="cls-21"/></g><g id="Rectangle-445-4" transform="scale(2)"><path id="polygon2595" d="m160.49 123.87-4.21-2.59.54-.87 5.63 3.46-5.63 3.45-.54-.87z" class="cls-21"/></g><g id="Rectangle-445-5" transform="scale(2)"><path id="polygon2598" d="m170.37 116.28-4.2-2.59.53-.87 5.63 3.46-5.63 3.45-.53-.87z" class="cls-21"/></g><circle id="circle2601" cx="218.92" cy="141.68" r="2.94" style="fill:none;stroke-linecap:round;stroke-miterlimit:10;stroke:#7836b2;stroke-width:.41px"/><circle id="circle2603" cx="135.9" cy="134.78" r="3.68" class="cls-8" style="stroke-width:1.99999"/><circle id="circle2605" cx="126.48" cy="173.4" r="2.4" class="cls-10" style="stroke-width:1.99999"/><circle id="circle2607" cx="265" cy="187.6" r="2.4" class="cls-20" style="stroke-width:1.99999"/><circle id="circle2609" cx="177.34" cy="154.94" r="2.4" class="cls-21" style="stroke-width:1.99999"/><path id="line2611" d="M88.8 134.78v5.48" class="cls-6"/><path id="line2613" d="M91.52 137.52h-5.46" class="cls-6"/><path id="line2615" d="M112 275.54V281" class="cls-6"/><path id="line2617" d="M114.74 278.26h-5.48" class="cls-6"/><circle id="circle2619" cx="145.72" cy="293" r="3.68" class="cls-8" style="stroke-width:1.99999"/><circle id="circle2621" cx="111.76" cy="313.64" r="2.4" class="cls-10" style="stroke-width:1.99999"/><circle id="circle2623" cx="160.76" cy="336.54" r="2.4" class="cls-21" style="stroke-width:1.99999"/><circle id="circle2625" cx="254.06" cy="154.18" r="3.68" style="fill:none;stroke-miterlimit:10;stroke:#fff;stroke-width:1.99999"/><circle id="circle2627" cx="218.34" cy="172.94" r="2.4" class="cls-19" style="stroke-width:1.99999"/><circle id="circle2629" cx="543.08" cy="337.64" r="2.94" class="cls-7"/><circle id="circle2631" cx="490.74" cy="248.94" r="2.94" class="cls-7"/><circle id="circle2633" cx="512.74" cy="280.06" r="3.68" class="cls-8" style="stroke-width:1.99999"/><circle id="circle2635" cx="503.32" cy="318.68" r="2.4" class="cls-10" style="stroke-width:1.99999"/><circle id="circle2637" cx="515.9" cy="359.82" r="2.4" class="cls-20" style="stroke-width:1.99999"/><circle id="circle2639" cx="554.16" cy="300.22" r="2.4" class="cls-21" style="stroke-width:1.99999"/><circle id="circle2641" cx="482.38" cy="348.02" r="2.4" class="cls-19" style="stroke-width:1.99999"/><path id="line2643" d="M465.64 280.06v5.48" class="cls-6"/><path id="line2645" d="M468.36 282.8h-5.46" class="cls-6"/><path id="line2647" d="M569.32 324.02v5.46" class="cls-7"/><path id="line2649" d="M572.04 326.74h-5.46" class="cls-7"/><circle id="circle2651" cx="434.24" cy="222" r="35.76" class="cls-13"/><path id="path2653" d="M202.18 434.66V306.5h85v128.38" style="stroke-linecap:round;stroke-miterlimit:10;stroke:#7836b2;fill:#bb9ad8;stroke-width:1.5px"/><path id="path2655" d="M358.72 475h-19.78v-24.72h14.26l5.52 5.52z" class="cls-13"/><path id="line2657" d="M345.58 461.58h6" class="cls-2"/><path id="line2659" d="M345.58 467.24h6" class="cls-2"/><path id="polyline2661" d="M175.88 225.12V228h3.37" class="cls-21" transform="scale(2)"/><path id="path2663" d="M374.36 497.5c2.02 0 4.18-.84 6.34-2.26h.04c.66 0 1.22-.44 1.4-1.04 8.16-6.38 15.84-20.58 15.84-29.9q-.01-3.6-3.32-3.6h-16.84c-2.14 0-3.64.44-4.84 1.44-.6.5-1.12 1.46-1.84 2.8-1.72 3.16-4.3 7.94-9 7.94h-45.26c-2.26 0-4.48 2.16-4.48 4.34v5.14c0 3.1 5.24 8.4 10.38 11.66 0 0 12.94 8.72 51.56 3.46z" class="cls-16"/><path id="line2665" d="M318.76 490h66.74" class="cls-2"/><path id="path2667" d="M390.24 319.24h-42.18c-.82 0-1.48.66-1.48 1.48v30.92c0 .82.66 1.48 1.48 1.48h21.58c.4 0 .78.16 1.04.44l7.82 7.82c.94.94 2.54.28 2.54-1.04v-5.72c0-.82.66-1.48 1.48-1.48h7.72c.82 0 1.48-.66 1.48-1.48v-30.92c0-.82-.66-1.48-1.48-1.48z" class="cls-16"/><path id="line2669" d="M356.94 332.24h24.4" class="cls-1"/><path id="line2671" d="M356.94 340.22h24.4" class="cls-1"/><path id="path2673" d="M507.44 410.04a1.5 1.5 0 0 0-2.1.2l-2.54 3.1a1.48 1.48 0 0 1-2.62-.86v-4.94q.01-.49.32-.88l7.14-8.72a1.5 1.5 0 0 0-.2-2.1 1.5 1.5 0 0 0-2.1.2l-2.54 3.1a1.48 1.48 0 0 1-2.62-.86v-6.7c0-.82-.68-1.5-1.5-1.5s-1.5.68-1.5 1.5v6.7c-.06 1.34-1.76 1.94-2.62.88l-2.54-3.1a1.5 1.5 0 1 0-2.3 1.9l7.14 8.72c.2.24.32.56.32.88v4.92c-.06 1.34-1.76 1.94-2.62.88l-2.54-3.1a1.5 1.5 0 1 0-2.3 1.9l7.14 8.72q.31.4.32.88v12.56a1.48 1.48 0 1 0 2.96 0v-12.54q.01-.49.32-.88l7.14-8.72a1.5 1.5 0 0 0-.2-2.1z" class="cls-21" style="stroke-width:1.99999"/><path id="path2675" d="m479.42 392.86 7.14-8.72a1.5 1.5 0 0 0-.2-2.1 1.5 1.5 0 0 0-2.1.2l-2.54 3.1a1.48 1.48 0 0 1-2.62-.86v-4.94q.01-.49.32-.88l7.14-8.72a1.5 1.5 0 0 0-.2-2.1 1.5 1.5 0 0 0-2.1.2l-2.54 3.1a1.48 1.48 0 0 1-2.62-.86v-6.7c0-.82-.68-1.5-1.5-1.5s-1.5.68-1.5 1.5v6.7c-.06 1.34-1.76 1.94-2.62.88l-2.54-3.1a1.5 1.5 0 1 0-2.3 1.9l7.14 8.72q.31.38.32.88v4.92c-.06 1.34-1.76 1.94-2.62.88l-2.54-3.1a1.5 1.5 0 1 0-2.3 1.9l7.14 8.72q.31.4.32.88v4.54c-.06 1.34-1.76 1.94-2.62.88l-2.54-3.1a1.5 1.5 0 1 0-2.3 1.9l7.14 8.72q.31.38.32.88v4.92c-.06 1.34-1.76 1.94-2.62.88l-2.54-3.1a1.5 1.5 0 1 0-2.3 1.9l7.14 8.72q.31.4.32.88v12.56a1.48 1.48 0 1 0 2.96 0V421.8q.01-.49.32-.88l7.14-8.72a1.5 1.5 0 0 0-.2-2.1 1.5 1.5 0 0 0-2.1.2l-2.54 3.1a1.48 1.48 0 0 1-2.62-.86v-4.94q.01-.49.32-.88l7.14-8.72a1.5 1.5 0 0 0-.2-2.1 1.5 1.5 0 0 0-2.1.2l-2.54 3.1a1.48 1.48 0 0 1-2.62-.86v-4.56q.01-.49.32-.88z" class="cls-21" style="stroke-width:1.99999"/><path id="path2677" d="m95.72 391.36 7.14-8.72a1.5 1.5 0 0 0-.2-2.1 1.5 1.5 0 0 0-2.1.2l-2.54 3.1a1.48 1.48 0 0 1-2.62-.86v-4.94q.01-.49.32-.88l7.14-8.72a1.5 1.5 0 0 0-.2-2.1 1.5 1.5 0 0 0-2.1.2l-2.54 3.1a1.48 1.48 0 0 1-2.62-.86v-6.7c0-.82-.68-1.5-1.5-1.5s-1.5.68-1.5 1.5v6.7c-.06 1.34-1.76 1.94-2.62.88l-2.54-3.1a1.5 1.5 0 1 0-2.3 1.9l7.14 8.72q.31.38.32.88v4.92c-.06 1.34-1.76 1.94-2.62.88l-2.54-3.1a1.5 1.5 0 1 0-2.3 1.9l7.14 8.72q.31.4.32.88v4.54c-.06 1.34-1.76 1.94-2.62.88l-2.54-3.1a1.5 1.5 0 1 0-2.3 1.9l7.14 8.72q.31.38.32.88V411c-.06 1.34-1.76 1.94-2.62.88l-2.54-3.1a1.5 1.5 0 1 0-2.3 1.9l7.14 8.72q.31.4.32.88v12.56a1.48 1.48 0 1 0 2.96 0V420.3q.01-.49.32-.88l7.14-8.72a1.5 1.5 0 0 0-.2-2.1 1.5 1.5 0 0 0-2.1.2l-2.54 3.1a1.48 1.48 0 0 1-2.62-.86v-4.94q.01-.49.32-.88l7.14-8.72a1.5 1.5 0 0 0-.2-2.1 1.5 1.5 0 0 0-2.1.2l-2.54 3.1a1.48 1.48 0 0 1-2.62-.86v-4.56q.01-.49.32-.88z" class="cls-21" style="stroke-width:1.99999"/><path id="path2679" d="M349.04 359.26h-4.58a1.9 1.9 0 0 1-1.88-1.88v-4.22c0-1.04-.84-1.88-1.88-1.88h-64.68c-1.04 0-1.88.84-1.88 1.88v22.46c0 1.04.84 1.88 1.88 1.88h64.68c1.04 0 1.88-.84 1.88-1.88v-5.02c0-.52.22-1 .58-1.36l7.14-6.74a1.88 1.88 0 0 0-1.28-3.24z" class="cls-17"/><path id="line2681" d="M283.98 360.86h16.2" class="cls-2"/><path id="line2683" d="M306.72 360.86h25.7" class="cls-2"/><path id="line2685" d="M283.98 367.76h30.54" class="cls-2"/><path id="path2687" d="M253.34 389.66a8.66 8.66 0 0 0-17.32 0c0 2.28.9 4.34 2.34 5.88l-1.34 22.12h15.34l-1.34-22.12a8.6 8.6 0 0 0 2.34-5.88z" class="cls-13"/><path id="path2689" d="m156.12 396.74 4.66-.38q.46-1.95 1.42-3.68l-3.12-3.7 4.72-4.72 3.56 3.02q1.69-1.04 3.62-1.6l.4-4.82h6.66l.38 4.64q1.94.45 3.68 1.42l3.7-3.12 4.72 4.72-3.02 3.56q1.04 1.69 1.6 3.62l4.56.38m.12 10.7-4.52.38q-.46 1.95-1.42 3.68l3.12 3.7-4.72 4.72-3.56-3.02q-1.69 1.04-3.62 1.6l-.4 4.82H172l-.38-4.64q-1.95-.45-3.68-1.42l-3.7 3.12-4.72-4.72 3.02-3.56a15 15 0 0 1-1.6-3.62l-4.82-.4" class="cls-2"/><circle id="circle2691" cx="175" cy="401.74" r="9.1" class="cls-20" style="stroke-width:1.99999"/><path id="path2693" d="M122.48 408.16q0-.51.08-1.02a7.04 7.04 0 0 1-12.02-4.94 7.02 7.02 0 0 1 12.02-4.94 7.02 7.02 0 1 1 10.64 4.96 7.02 7.02 0 1 1-10.72 5.98z" class="cls-13"/><path id="line2695" d="M134.34 402.18h98.72" class="cls-2"/><path id="polyline2697" d="M114.71 201.09v-4.06h1.82" class="cls-2" transform="scale(2)"/><path id="polyline2699" d="M105.42 201.09v-4.06h-1.82" class="cls-2" transform="scale(2)"/><path id="line2701" d="M220.14 394.06v8.12" class="cls-2"/><path id="path2703" d="m421.52 405.7-6.34 5.1-.4-5.08-4.18.64-.56-4.68-2.86 1.42-.84-.64-2.54-2.44-.72 3.24 1.94 1.88-8.14 7.6-2.26.3-.1-4.2 1.48-6.3-2.98-1.46-.36-2.74 3.66-3.72 2.78.56 1.14 1.68 4.12.78-3.18-3.94-3.2-2.06.26-1.06 4.1-.36-.5-2.66 4.62-1.4 3.06 2.76 6.72.86 5.98-.3a25.54 25.54 0 0 0-30.72-13.66l-1.64 1.14-4.14 3.02q-.18.13-.14.36l.56 3.22c.02.14.14.26.24.3.12.06.28.04.38-.04l2.34-1.56 1.4 4.46-7.44 2.2-3.2-1.08q-.22-.07-.42.1l-1.44 1.48s-.12.22-.08.36l.96 3.38-2.68-2.9-.32-.98-.32.7a25.66 25.66 0 0 0 13.12 33.78 25.66 25.66 0 0 0 35.78-20.3l-2.98 2.2zm-19.08-27.52-3.3 4.38-4.88 1.18-.36-6.48c4.7-.16 7.48.56 8.52.92zm-25.16 32.4-.06-2.88 2.24-4.96s.04-.12.04-.18l-.4-4.8 4.24-3.7 4.02 8.36-10.08 8.18z" class="cls-20" style="stroke-width:1.99999"/><path id="path2705" d="M225.86 485.5c-2.8 0-6.68-.72-9.64-2.68-2.96 1.96-6.84 2.68-9.64 2.68s-6.68-.72-9.64-2.68c-2.96 1.96-6.84 2.68-9.64 2.68s-6.68-.72-9.64-2.68c-2.96 1.96-6.84 2.68-9.64 2.68s-6.68-.72-9.64-2.68c-2.96 1.96-6.84 2.68-9.64 2.68-1.12 0-2.2-.08-3.4-.28l.38-2.46c1.08.16 2.04.24 3.02.24 2.5 0 6.34-.7 8.88-2.7l.78-.6.78.6c2.54 2 6.36 2.7 8.88 2.7s6.34-.7 8.88-2.7l.78-.6.78.6c2.54 2 6.36 2.7 8.88 2.7s6.34-.7 8.88-2.7l.78-.6.78.6c2.54 2 6.36 2.7 8.88 2.7s6.34-.7 8.88-2.7l.78-.6.78.6c2.54 2 6.36 2.7 8.88 2.7q1.55 0 2.8-.44l.82 2.36q-1.66.59-3.62.58z" class="cls-21" style="stroke-width:1.99999"/><path id="path2707" d="M304.58 467.72q-1.25.44-2.8.44c-2.5 0-6.34-.7-8.88-2.7l-.78-.6-.78.6c-2.54 2-6.36 2.7-8.88 2.7s-6.34-.7-8.88-2.7l-.78-.6-.78.6a13 13 0 0 1-5.48 2.34v-.08q-.54.17-1.08.26-1.1.16-2.04.16c-2.5-.04-6.14-.78-8.58-2.7l-.78-.6-.28.22-.28-.22-.78.6c-2.44 1.92-6.08 2.66-8.58 2.7-2.5-.04-6.14-.78-8.58-2.7l-.78-.6-.28.22-.28-.22-.78.6c-2.44 1.92-6.08 2.66-8.58 2.7-2.5-.04-6.14-.78-8.58-2.7l-.78-.6-.78.6c-2.54 2-6.36 2.7-8.88 2.7s-6.34-.7-8.88-2.7l-.78-.6-.78.6c-2.54 2-6.36 2.7-8.88 2.7-.98 0-1.94-.08-3.02-.24l-.38 2.46c1.2.18 2.28.28 3.4.28 2.8 0 6.68-.72 9.64-2.68 2.96 1.96 6.84 2.68 9.64 2.68s6.68-.72 9.64-2.68a16 16 0 0 0 5.7 2.26v.16a22 22 0 0 0 3.38.28h.56c2.7 0 6.44-.68 9.36-2.52 2.92 1.84 6.64 2.52 9.36 2.52h.56c2.7 0 6.42-.68 9.36-2.52 2.92 1.84 6.66 2.52 9.36 2.52h.56q.2 0 .4-.04.24 0 .48-.04c.44-.04.86-.06 1.28-.14a17 17 0 0 0 6.92-2.48c2.96 1.96 6.84 2.68 9.64 2.68s6.68-.72 9.64-2.68c2.96 1.96 6.84 2.68 9.64 2.68q1.96 0 3.62-.58l-.82-2.36z" class="cls-21" style="stroke-width:1.99999"/><circle id="circle2709" cx="381.4" cy="474.7" r="7.26" class="cls-13"/><path id="path2711" d="M393.78 499.9c-2.8 0-6.68-.72-9.64-2.68-2.96 1.96-6.84 2.68-9.64 2.68s-6.68-.72-9.64-2.68c-2.96 1.96-6.84 2.68-9.64 2.68s-6.68-.72-9.64-2.68c-2.96 1.96-6.84 2.68-9.64 2.68s-6.68-.72-9.64-2.68c-2.96 1.96-6.84 2.68-9.64 2.68-1.12 0-2.2-.08-3.4-.28l.38-2.46c1.08.16 2.04.24 3.02.24 2.5 0 6.34-.7 8.88-2.7l.78-.6.78.6c2.54 2 6.36 2.7 8.88 2.7s6.34-.7 8.88-2.7l.78-.6.78.6c2.54 2 6.36 2.7 8.88 2.7s6.34-.7 8.88-2.7l.78-.6.78.6c2.54 2 6.36 2.7 8.88 2.7s6.34-.7 8.88-2.7l.78-.6.78.6c2.54 2 6.36 2.7 8.88 2.7q1.55 0 2.8-.44l.82 2.36c-1.12.4-2.3.58-3.62.58z" class="cls-21" style="stroke-width:1.99999"/><path id="path2713" d="M341.46 482.74h-19.78v-24.72h14.26l5.52 5.52z" class="cls-13"/><path id="line2715" d="M328.34 469.34h6" class="cls-2"/><path id="line2717" d="M328.34 475h6" class="cls-2"/><path id="polyline2719" d="M167.25 229v2.88h3.37" class="cls-21" transform="scale(2)"/><path id="path2721" d="M301.74 433.96c.32 0 .66-.12.9-.38q.38-.37.38-.9v-8.22a.95.95 0 0 0-.96-.96q-.46 0-.72.32c-.72.9-1.7 1.6-2.94 1.6a3.48 3.48 0 0 1 0-6.96c1.24 0 2.22.7 2.94 1.6q.27.32.72.32c.52 0 .96-.42.96-.96v-8.22c0-.32-.12-.66-.38-.9a1.3 1.3 0 0 0-.9-.38h-8.22a.95.95 0 0 1-.96-.96c0-.3.14-.58.36-.74a3.6 3.6 0 0 0 1.6-2.92 3.48 3.48 0 0 0-6.96 0c0 1.24.66 2.24 1.6 2.92a.9.9 0 0 1 .34.74c0 .52-.42.96-.96.96h-8.22c-.32 0-.66.12-.9.38q-.37.38-.38.9v8.22c0 .54.44.96.96.96q.47 0 .72-.32c.72-.9 1.7-1.6 2.94-1.6a3.48 3.48 0 0 1 0 6.96c-1.24 0-2.22-.7-2.94-1.6q-.25-.32-.72-.32a.97.97 0 0 0-.96.96v8.22a1.3 1.3 0 0 0 1.28 1.28h21.46z" style="stroke:#7836b2;stroke-linejoin:round;stroke-width:1.23px;fill:#bb9ad8"/><path id="path2723" d="M303 387.2c0-.32-.12-.66-.38-.9a1.3 1.3 0 0 0-.9-.38h-8.22a.95.95 0 0 0-.96.96q.01.46.32.72c.9.72 1.62 1.7 1.62 2.94a3.48 3.48 0 0 1-6.96 0c0-1.24.7-2.22 1.6-2.94a1 1 0 0 0 .32-.72.96.96 0 0 0-.96-.96h-8.22c-.32 0-.66.12-.9.38q-.37.38-.38.9v8.22c0 .54-.42.96-.96.96a1 1 0 0 1-.74-.34 3.6 3.6 0 0 0-2.92-1.58 3.48 3.48 0 0 0 0 6.96c1.22 0 2.24-.66 2.92-1.58a.9.9 0 0 1 .74-.34c.52 0 .96.42.96.96v8.22a1.3 1.3 0 0 0 1.28 1.28h8.22c.54 0 .96-.42.96-.96q0-.46-.32-.72c-.9-.72-1.6-1.7-1.6-2.94a3.48 3.48 0 0 1 6.96 0c0 1.24-.72 2.22-1.62 2.94a1 1 0 0 0-.32.72c0 .54.42.96.96.96h8.22c.32 0 .66-.12.9-.38q.38-.37.38-.9z" class="cls-17"/><path id="polyline2725" d="M206.75 180h10.58v-50.5" style="fill:none;stroke-linecap:round;stroke-miterlimit:10;stroke:#7836b2;stroke-width:1.72px" transform="scale(2)"/><path id="path2727" d="M277.84 305.66v-3.06l-7.52-1.16a26 26 0 0 0-1.32-4.96l5.92-4.76-3.06-5.3-7.08 2.76a26 26 0 0 0-3.64-3.64l2.76-7.08-5.3-3.06-4.76 5.92a26 26 0 0 0-4.98-1.32l-1.16-7.52h-6.12l-1.16 7.52a26 26 0 0 0-4.96 1.32l-4.76-5.92-5.3 3.06 2.76 7.08a26 26 0 0 0-3.64 3.64l-7.08-2.76-3.06 5.3 5.92 4.76a26 26 0 0 0-1.32 4.96l-7.52 1.16v3.06" class="cls-4"/><path id="path2729" d="M236.72 305.66a7.96 7.96 0 1 1 15.92 0h10.96a18.9 18.9 0 1 0-37.8 0h10.96z" class="cls-20" style="stroke-width:1.99999"/><path id="path2731" d="M236.72 305.66a7.96 7.96 0 1 1 15.92 0" class="cls-4"/><path id="line2733" d="M211.52 317.62h47.84" class="cls-4"/><path id="line2735" d="M271.04 317.62h6.8" class="cls-4"/><circle id="circle2737" cx="262.54" cy="317.62" r="3.18" class="cls-4"/><path id="line2739" d="M211.52 326.64h32.1" class="cls-4"/><path id="line2741" d="M255.3 326.64h22.54" class="cls-4"/><circle id="circle2743" cx="246.8" cy="326.64" r="3.18" class="cls-4"/><path id="line2745" d="M211.52 335.66h6.54" class="cls-4"/><path id="line2747" d="M229.74 335.66h48.1" class="cls-4"/><circle id="circle2749" cx="221.24" cy="335.66" r="3.18" class="cls-4"/><path id="line2751" d="M211.52 344.68h26.7" class="cls-4"/><path id="line2753" d="M249.9 344.68h27.94" class="cls-4"/><circle id="circle2755" cx="241.4" cy="344.68" r="3.18" class="cls-4"/><path id="path2757" d="M410.4 212.56a13.6 13.6 0 0 0 3.4 13.52l1.18 1.18 6.06 6.06 6.42 6.4 6.06-6.06-6.4-6.4-6.06-6.06-1.18-1.18a5.05 5.05 0 0 1 7.12-7.12l.46.48 6.06-6.06-.48-.48a13.6 13.6 0 0 0-12.72-3.62c-6.5 1.78-9.1 7.08-9.94 9.34z" class="cls-20" style="stroke-width:1.99999"/><path id="path2759" d="m440.3 214.1 1.18-1.18a5.03 5.03 0 1 1 7.12 7.12l-.46.46 6.06 6.06.48-.48a13.6 13.6 0 0 0 3.46-13.38c-.78-2.4-3.12-7.5-9.2-9.32v.04a13.6 13.6 0 0 0-13.46 3.44l-1.18 1.18-6.06 6.06-.04.04 6.1 6 6.04-6.04z" class="cls-20" style="stroke-width:1.99999"/><path id="polygon2761" d="m226.73 113.63-3.03-3.02v-.01l-3.02 3.03 3.02 3.04.03.02 3.01-3.05z" class="cls-20" transform="scale(2)"/><path id="polygon2763" d="m214.08 120.24 3.05 3.01 3.02-3.03 3.2-3.2-.46-.45-2.57-2.57 2.57 2.57-2.57-2.58-3.2 3.21-3.03 3.02z" class="cls-21" transform="scale(2)"/><circle id="circle2765" cx="434.64" cy="300.84" r="25.66" class="cls-16"/><path id="rect2767" d="M416.7 290.04h27.14v13.72H416.7z" class="cls-14"/><path id="rect2769" d="M421.18 293.9h27.14v13.72h-27.14z" style="stroke-linecap:round;stroke:#7836b2;stroke-linejoin:round;fill:#bb9ad8;stroke-width:.73px"/><path id="rect2771" d="M425.44 297.92h27.14v13.72h-27.14z" class="cls-14"/><path id="path2773" d="M434.4 304.78a4.6 4.6 0 1 1 9.24 0 4.6 4.6 0 1 1-9.24 0z" style="fill:none;stroke-miterlimit:10;stroke:#7836b2;stroke-width:.49px"/><path id="path2775" d="M431.02 304.78a.76.76 0 1 1-1.52 0 .76.76 0 0 1 1.52 0" class="cls-21" style="stroke-width:1.99999"/><path id="path2777" d="M448.78 304.78a.76.76 0 1 1-1.52 0 .76.76 0 0 1 1.52 0" class="cls-21" style="stroke-width:1.99999"/><path id="line2779" d="m452.8 319.64-36.54-36.56" class="cls-16"/><path id="path2781" d="M459.56 434.66a16 16 0 1 0-32 0" class="cls-4"/><path id="path2783" d="M512.56 434.66h-53" class="cls-4"/><path id="path2785" d="M427.56 434.66H168.72" class="cls-4"/><path id="path2787" d="M157.72 434.66H146.8" class="cls-4"/><path id="path2789" d="M129.72 434.66h-55.5" class="cls-4"/><path id="path2791" d="M146.56 434a8.5 8.5 0 1 0-17 0" class="cls-4"/><path id="path2793" d="M168.82 434.72a5.34 5.34 0 1 0-10.68 0" class="cls-4"/></svg>