<?xml version="1.0" encoding="UTF-8" standalone="no"?>
<svg
   id="world-flexible-system"
   viewBox="0 0 600 600"
   version="1.1"
   sodipodi:docname="world-flexible-system.svg"
   width="600"
   height="600"
   inkscape:version="1.2.2 (732a01da63, 2022-12-09)"
   xmlns:inkscape="http://www.inkscape.org/namespaces/inkscape"
   xmlns:sodipodi="http://sodipodi.sourceforge.net/DTD/sodipodi-0.dtd"
   xmlns="http://www.w3.org/2000/svg"
   xmlns:svg="http://www.w3.org/2000/svg">
  <sodipodi:namedview
     id="namedview336"
     pagecolor="#ffffff"
     bordercolor="#000000"
     borderopacity="0.25"
     inkscape:showpageshadow="2"
     inkscape:pageopacity="0.0"
     inkscape:pagecheckerboard="0"
     inkscape:deskcolor="#d1d1d1"
     showgrid="false"
     inkscape:zoom="1.34"
     inkscape:cx="186.19403"
     inkscape:cy="220.52239"
     inkscape:window-width="1920"
     inkscape:window-height="991"
     inkscape:window-x="-9"
     inkscape:window-y="-9"
     inkscape:window-maximized="1"
     inkscape:current-layer="world-flexible-system" />
  <defs
     id="defs4">
    <style
       id="style2">.cls-1,.cls-2,.cls-3,.cls-4,.cls-5,.cls-6,.cls-7,.cls-8,.cls-9,.cls-10,.cls-11,.cls-12{fill:none;}.cls-1,.cls-2,.cls-3,.cls-4,.cls-5,.cls-13,.cls-7,.cls-8,.cls-9,.cls-14,.cls-15,.cls-16{stroke-linecap:round;}.cls-1,.cls-2,.cls-4,.cls-17,.cls-5,.cls-18,.cls-19,.cls-14,.cls-16{stroke-width:1.5px;}.cls-1,.cls-4,.cls-5,.cls-7,.cls-8,.cls-9,.cls-20,.cls-10,.cls-11,.cls-12,.cls-18,.cls-19,.cls-21,.cls-16{stroke-miterlimit:10;}.cls-1,.cls-11,.cls-16{stroke:#fff;}.cls-2,.cls-3,.cls-4,.cls-22,.cls-23,.cls-17,.cls-5,.cls-6,.cls-13,.cls-7,.cls-8,.cls-20,.cls-12,.cls-18,.cls-19,.cls-14,.cls-15,.cls-21{stroke:#7836b2;}.cls-2,.cls-3,.cls-22,.cls-23,.cls-17,.cls-6,.cls-13,.cls-14,.cls-15{stroke-linejoin:round;}.cls-3,.cls-22,.cls-23,.cls-6{stroke-width:1.49px;}.cls-24,.cls-22,.cls-20,.cls-19,.cls-14,.cls-15,.cls-21{fill:#fff;}.cls-25,.cls-23,.cls-17,.cls-13,.cls-18,.cls-26,.cls-16{fill:#bb9ad8;}.cls-27,.cls-28{fill:#7836b2;}.cls-5,.cls-28,.cls-26{fill-rule:evenodd;}.cls-13{stroke-width:2px;}.cls-7{stroke-width:.41px;}.cls-8,.cls-9{stroke-width:.5px;}.cls-9,.cls-10{stroke:#bb9ad8;}.cls-15{stroke-width:1.5px;}.cls-21{stroke-width:1.27px;}.cls-29{fill:#e3e0e0;opacity:.5;}</style>
  </defs>
  <circle
     class="cls-29"
     cx="295.39999"
     cy="308.78"
     r="211.22"
     id="circle6"
     style="stroke-width:2" />
  <path
     class="cls-24"
     d="m 214.2,215 h -11.92 c -2.26,0 -4.12,-1.86 -4.12,-4.12 0,-2.26 1.86,-4.12 4.12,-4.12 h 21.6 c 2.56,-0.4 4.78,-2.22 5.26,-4.8 0.7,-3.78 -2.24,-7.12 -5.9,-7.12 h -79.88 c -2.26,0 -4.12,-1.86 -4.12,-4.12 0,-2.26 1.86,-4.12 4.12,-4.12 h 0.96 c 0.3,-0.08 0.62,-0.12 0.94,-0.12 h 37.04 c 2.1,0 3.82,-1.52 3.82,-3.38 0,-1.64 1.34,-3.02 3.1,-3.32 h 16.2 c 3.3,0 6,-2.7 6,-6 0,-3.3 -2.7,-6 -6,-6 H 38.6 c -3.3,0 -6,2.7 -6,6 0,3.3 2.7,6 6,6 h 16.18 c 1.76,0.3 3.1,1.68 3.1,3.32 0,1.86 1.72,3.38 3.82,3.38 l 43.68,0.12 c 2.26,0 4.12,1.86 4.12,4.12 0,2.26 -1.86,4.12 -4.12,4.12 h -8.16 c -2.96,0 -5.72,1.98 -6.26,4.88 -0.7,3.78 2.24,7.12 5.9,7.12 h 32.34 c 1.02,0.12 2.3,0.06 3.5,0.24 h 15.94 c 2.26,0 4.12,1.86 4.12,4.12 0,2.26 -1.86,4.12 -4.12,4.12 h -22.26 c -1.8,0.78 -3.22,2.32 -3.58,4.3 -0.7,3.78 2.24,7.12 5.9,7.12 h 83.54 c 2.96,0 5.72,-1.98 6.26,-4.88 0.58,-3.2 -1.42,-6.06 -4.28,-6.86 z"
     id="path8"
     style="stroke-width:2" />
  <path
     class="cls-25"
     d="m 238.32,304.66 h -39.88 c 0,0 -0.06,-0.06 -0.08,-0.08 h -0.06 c -2.26,0 -4.12,-1.86 -4.12,-4.12 v -2.04 c 0,-2.26 1.86,-4.12 4.12,-4.12 h 2.88 c 0,0 0.1,0 0.16,0 H 251 c 2.82,0 5.12,-2.04 5.12,-4.54 0,-2.5 2.3,-4.54 5.12,-4.54 h 18.38 c 1.48,0 2.84,-0.6 3.8,-1.58 0.98,-0.98 1.58,-2.32 1.58,-3.82 0,-2.96 -2.42,-5.4 -5.4,-5.4 H 60.68 c -2.96,0 -5.4,2.42 -5.4,5.4 0,1.48 0.6,2.84 1.58,3.82 0.98,0.98 2.32,1.58 3.8,1.58 h 18.38 c 2.82,0 5.12,2.04 5.12,4.54 0,2.5 2.3,4.54 5.12,4.54 h 72.7 c 2.26,0 4.12,1.88 4.12,4.14 v 2.04 c 0,2.26 -1.86,4.12 -4.12,4.12 l -110.66,0.08 c -4.68,0 -8.5,3.82 -8.5,8.5 0,4.68 3.82,8.5 8.5,8.5 h 187 c 4.68,0 8.5,-3.82 8.5,-8.5 0,-4.68 -3.82,-8.5 -8.5,-8.5 z"
     id="path10"
     style="stroke-width:2" />
  <path
     class="cls-24"
     d="m 542.42,343.58 -7.26,-0.24 c -3.12,0 -5.66,-2.56 -5.66,-5.66 v -0.44 c 0,-3.12 2.56,-5.66 5.66,-5.66 h 18.74 c 2.48,-0.44 4.6,-2.26 5.06,-4.78 0.7,-3.78 -2.24,-7.12 -5.9,-7.12 H 427.02 c -2.96,0 -5.72,1.98 -6.26,4.88 -0.62,3.42 1.72,6.44 4.88,7 h 49.24 c 3.12,0 5.66,2.56 5.66,5.66 v 0.44 c 0,3.12 -2.56,5.66 -5.66,5.66 l -16.02,0.24 c -2.96,0 -5.72,1.98 -6.26,4.88 -0.7,3.78 2.24,7.12 5.9,7.12 h 83.54 c 2.96,0 5.72,-1.98 6.26,-4.88 0.7,-3.78 -2.24,-7.12 -5.9,-7.12 z"
     id="path12"
     style="stroke-width:2" />
  <rect
     class="cls-24"
     x="398.51999"
     y="344.23999"
     width="47.02"
     height="11.34"
     rx="5.6599998"
     ry="5.6599998"
     id="rect14"
     style="stroke-width:2" />
  <circle
     class="cls-9"
     cx="519.78003"
     cy="251.62"
     r="2.9400001"
     id="circle16" />
  <circle
     class="cls-9"
     cx="467.42001"
     cy="162.92"
     r="2.9400001"
     id="circle18" />
  <circle
     class="cls-10"
     cx="489.42001"
     cy="194.06"
     r="3.6800001"
     id="circle20"
     style="stroke-width:2" />
  <circle
     class="cls-11"
     cx="426.73999"
     cy="244.74001"
     r="3.6800001"
     id="circle22"
     style="stroke-width:2" />
  <circle
     class="cls-12"
     cx="480"
     cy="232.66"
     r="2.4000001"
     id="circle24"
     style="stroke-width:2" />
  <circle
     class="cls-25"
     cx="492.60001"
     cy="273.82001"
     r="2.4000001"
     id="circle26"
     style="stroke-width:2" />
  <circle
     class="cls-27"
     cx="530.85999"
     cy="214.2"
     r="2.4000001"
     id="circle28"
     style="stroke-width:2" />
  <circle
     class="cls-24"
     cx="459.06"
     cy="262"
     r="2.4000001"
     id="circle30"
     style="stroke-width:2" />
  <circle
     class="cls-7"
     cx="252.58"
     cy="120.74"
     r="2.9400001"
     id="circle32" />
  <circle
     class="cls-10"
     cx="169.56"
     cy="113.84"
     r="3.6800001"
     id="circle34"
     style="stroke-width:2" />
  <circle
     class="cls-12"
     cx="160.14"
     cy="152.46001"
     r="2.4000001"
     id="circle36"
     style="stroke-width:2" />
  <circle
     class="cls-25"
     cx="298.66"
     cy="166.66"
     r="2.4000001"
     id="circle38"
     style="stroke-width:2" />
  <circle
     class="cls-27"
     cx="211"
     cy="134"
     r="2.4000001"
     id="circle40"
     style="stroke-width:2" />
  <line
     class="cls-8"
     x1="122.46"
     y1="113.84"
     x2="122.46"
     y2="119.32"
     id="line42" />
  <line
     class="cls-8"
     x1="125.2"
     y1="116.58"
     x2="119.72"
     y2="116.58"
     id="line44" />
  <circle
     class="cls-11"
     cx="287.73999"
     cy="133.24001"
     r="3.6800001"
     id="circle46"
     style="stroke-width:2" />
  <circle
     class="cls-24"
     cx="252"
     cy="152"
     r="2.4000001"
     id="circle48"
     style="stroke-width:2" />
  <line
     class="cls-8"
     x1="442.32001"
     y1="194.06"
     x2="442.32001"
     y2="199.52"
     id="line50" />
  <line
     class="cls-8"
     x1="445.06"
     y1="196.78"
     x2="439.57999"
     y2="196.78"
     id="line52" />
  <line
     class="cls-9"
     x1="548"
     y1="238"
     x2="548"
     y2="243.46001"
     id="line54" />
  <line
     class="cls-9"
     x1="550.73999"
     y1="240.74001"
     x2="545.26001"
     y2="240.74001"
     id="line56" />
  <circle
     class="cls-9"
     cx="159.25999"
     cy="464.07999"
     r="2.9400001"
     id="circle58" />
  <circle
     class="cls-10"
     cx="219.53999"
     cy="488.62"
     r="3.6800001"
     id="circle60"
     style="stroke-width:2" />
  <circle
     class="cls-25"
     cx="188.53999"
     cy="460.84"
     r="2.4000001"
     id="circle62"
     style="stroke-width:2" />
  <circle
     class="cls-25"
     cx="184.66"
     cy="489.34"
     r="8.04"
     id="circle64"
     style="stroke-width:2" />
  <circle
     class="cls-27"
     cx="228.2"
     cy="460.5"
     r="2.4000001"
     id="circle66"
     style="stroke-width:2" />
  <line
     class="cls-9"
     x1="147.94"
     y1="491.38"
     x2="144.42"
     y2="487.20001"
     id="line68" />
  <line
     class="cls-9"
     x1="144.10001"
     y1="491.04001"
     x2="148.28"
     y2="487.51999"
     id="line70" />
  <rect
     class="cls-27"
     x="392"
     y="379.23999"
     width="86.120003"
     height="60.240002"
     id="rect72"
     style="stroke-width:2" />
  <path
     class="cls-13"
     d="m 400.68,191.86 h -19.16 c 0,0 -1.16,-13.86 -1.16,-13.86 -3.66,-1.06 -7.14,-2.58 -10.4,-4.58 l -10.24,8.66 -13.54,-13.54 8.98,-10.62 c -1.84,-3.32 -3.22,-6.88 -4.1,-10.6 l -13.38,-1.12 v -19.16 c 0,0 13.86,-1.16 13.86,-1.16 1.06,-3.66 2.58,-7.14 4.58,-10.4 l -8.66,-10.24 13.56,-13.54 10.62,8.98 c 3.32,-1.84 6.88,-3.22 10.6,-4.1 l 1.12,-13.36 h 19.16 l 1.16,13.86 c 3.66,1.06 7.14,2.58 10.4,4.58 l 10.24,-8.66 13.54,13.54 -8.98,10.62 c 1.84,3.34 3.22,6.88 4.1,10.6 l 13.38,1.12 v 19.16 c 0,0 -13.86,1.16 -13.86,1.16 -1.06,3.66 -2.58,7.16 -4.58,10.4 l 8.66,10.24 -13.54,13.54 -10.62,-8.98 c -3.34,1.84 -6.88,3.22 -10.6,4.1 l -1.12,13.38 z"
     id="path74" />
  <circle
     class="cls-24"
     cx="392.01999"
     cy="137.53999"
     r="28.84"
     id="circle76"
     style="stroke-width:2" />
  <polygon
     class="cls-27"
     points="183.73,68.93 190.22,74.07 188.66,76.04 179.7,68.93 188.66,61.83 190.22,63.79 "
     id="polygon78"
     transform="scale(2)" />
  <polygon
     class="cls-27"
     points="203.36,61.83 212.32,68.93 203.36,76.04 201.8,74.07 208.28,68.93 201.8,63.79 "
     id="polygon80"
     transform="scale(2)" />
  <rect
     class="cls-27"
     x="-42.491486"
     y="412.87845"
     width="39.84"
     height="5.02"
     transform="rotate(-73.76)"
     id="rect82"
     style="stroke-width:2" />
  <circle
     class="cls-24"
     cx="461.23999"
     cy="278.29999"
     r="6.04"
     id="circle84"
     style="stroke-width:2" />
  <path
     class="cls-26"
     d="m 417.4,278.52 h 85.18 v 43.92 h -35.8 c -1.44,2.52 -3.94,4.2 -6.78,4.2 -2.84,0 -5.36,-1.68 -6.8,-4.2 h -35.8 z"
     id="path86"
     style="stroke-width:2" />
  <path
     class="cls-28"
     d="m 417.4,277.12 h 85.18 c 0.78,0 1.4,0.64 1.4,1.4 v 43.92 c 0,0.78 -0.64,1.4 -1.4,1.4 h -35.02 c -0.8,1.18 -1.82,2.16 -2.98,2.88 -1.36,0.84 -2.94,1.32 -4.6,1.32 -1.66,0 -3.22,-0.48 -4.6,-1.32 -1.16,-0.72 -2.18,-1.7 -2.98,-2.88 h -35.02 c -0.78,0 -1.4,-0.64 -1.4,-1.4 v -43.92 c 0,-0.78 0.64,-1.4 1.4,-1.4 v 0 z m 83.76,2.82 H 418.8 v 41.1 h 34.38 c 0.48,0 0.96,0.26 1.22,0.72 0.62,1.08 1.46,1.98 2.46,2.58 0.92,0.58 1.98,0.9 3.12,0.9 1.14,0 2.2,-0.32 3.12,-0.9 0.96,-0.6 1.78,-1.46 2.4,-2.5 0.22,-0.48 0.72,-0.8 1.26,-0.8 h 34.4 z"
     id="path88"
     style="stroke-width:2" />
  <path
     class="cls-28"
     d="m 453.38,277.12 h 13.22 c 0.78,0 1.4,0.64 1.4,1.4 v 44.22 c 0,0.3 -0.1,0.58 -0.26,0.82 -0.86,1.36 -2,2.48 -3.32,3.26 -1.32,0.78 -2.84,1.22 -4.42,1.22 -1.58,0 -3.1,-0.44 -4.42,-1.22 -1.36,-0.8 -2.52,-1.94 -3.38,-3.34 -0.14,-0.24 -0.22,-0.48 -0.22,-0.74 v 0 -44.22 c 0,-0.78 0.64,-1.4 1.4,-1.4 z m 11.8,2.82 h -10.4 v 42.4 c 0.6,0.86 1.34,1.58 2.2,2.08 0.9,0.52 1.92,0.82 3,0.82 1.08,0 2.1,-0.3 3,-0.84 0.86,-0.5 1.6,-1.22 2.2,-2.08 v -42.4 z"
     id="path90"
     style="stroke-width:2" />
  <path
     class="cls-26"
     d="m 422.54,272.28 h 27.02 c 5.94,0 10.8,3.92 10.8,8.72 v 41.38 c 0,0.56 -0.06,1.1 -0.2,1.64 -0.96,-4.02 -5.36,-7.08 -10.6,-7.08 h -27.02 z"
     id="path92"
     style="stroke-width:2" />
  <path
     class="cls-28"
     d="m 422.54,270.86 h 27.02 c 3.3,0 6.32,1.1 8.52,2.88 2.28,1.84 3.7,4.4 3.7,7.24 v 41.38 c 0,0.32 -0.02,0.66 -0.06,0.98 -0.04,0.34 -0.1,0.66 -0.18,0.98 -0.18,0.76 -0.94,1.22 -1.7,1.04 -0.54,-0.12 -0.94,-0.56 -1.06,-1.06 -0.4,-1.66 -1.54,-3.14 -3.16,-4.22 -1.64,-1.1 -3.76,-1.76 -6.08,-1.76 h -27.02 c -0.78,0 -1.4,-0.64 -1.4,-1.4 v -44.66 c 0,-0.78 0.64,-1.4 1.4,-1.4 v 0 z m 27.02,2.82 h -25.6 v 41.84 h 25.6 c 2.88,0 5.56,0.84 7.64,2.24 0.64,0.42 1.22,0.9 1.74,1.42 v -38.2 c 0,-1.94 -1.02,-3.74 -2.64,-5.06 -1.72,-1.38 -4.1,-2.24 -6.74,-2.24 z m 9.24,50.62 v -0.62 c -0.04,0.22 -0.04,0.42 0,0.62 z"
     id="path94"
     style="stroke-width:2" />
  <path
     class="cls-26"
     d="m 498.18,272.28 h -27.02 c -5.94,0 -10.8,3.92 -10.8,8.72 v 41.38 c 0,0.56 0.06,1.1 0.2,1.64 0.96,-4.02 5.36,-7.08 10.6,-7.08 h 27.02 z"
     id="path96"
     style="stroke-width:2" />
  <path
     class="cls-28"
     d="m 496.76,273.68 h -25.6 c -2.64,0 -5.04,0.86 -6.76,2.24 -1.64,1.32 -2.64,3.1 -2.64,5.06 v 38.2 c 0.52,-0.52 1.1,-1 1.74,-1.42 2.1,-1.4 4.76,-2.24 7.64,-2.24 h 25.6 v -41.84 0 z m -25.6,-2.82 h 27.02 c 0.78,0 1.4,0.64 1.4,1.4 v 44.66 c 0,0.78 -0.64,1.4 -1.4,1.4 h -27.02 c -2.32,0 -4.44,0.66 -6.08,1.76 -1.6,1.08 -2.74,2.56 -3.16,4.22 -0.12,0.52 -0.5,0.94 -1.06,1.06 -0.76,0.18 -1.52,-0.28 -1.7,-1.04 -0.08,-0.32 -0.14,-0.64 -0.18,-0.98 -0.04,-0.34 -0.06,-0.66 -0.06,-0.98 v -41.38 c 0,-2.84 1.42,-5.4 3.7,-7.24 2.2,-1.78 5.22,-2.88 8.52,-2.88 z"
     id="path98"
     style="stroke-width:2" />
  <path
     class="cls-5"
     d="m 431.28,281.66 h 19.16"
     id="path100" />
  <path
     class="cls-5"
     d="m 431.28,288.32 h 19.16"
     id="path102" />
  <path
     class="cls-5"
     d="m 431.28,295 h 19.16"
     id="path104" />
  <path
     class="cls-5"
     d="m 431.28,301.66 h 19.16"
     id="path106" />
  <path
     class="cls-5"
     d="m 431.28,308.32 h 19.16"
     id="path108" />
  <path
     class="cls-5"
     d="m 469.78,281.66 h 19.16"
     id="path110" />
  <path
     class="cls-5"
     d="m 469.78,288.32 h 19.16"
     id="path112" />
  <path
     class="cls-5"
     d="m 469.78,295 h 19.16"
     id="path114" />
  <path
     class="cls-5"
     d="m 469.78,301.66 h 19.16"
     id="path116" />
  <path
     class="cls-5"
     d="m 469.78,308.32 h 19.16"
     id="path118" />
  <rect
     class="cls-15"
     x="279.57999"
     y="264.76001"
     width="67.339996"
     height="172.96001"
     id="rect120" />
  <g
     id="Rectangle-436"
     transform="scale(2)">
    <rect
       class="cls-27"
       x="140.06"
       y="132.48"
       width="33.32"
       height="4.6199999"
       id="rect122" />
  </g>
  <g
     id="Rectangle-436-2"
     transform="scale(2)">
    <rect
       class="cls-27"
       x="140.06"
       y="214.48"
       width="33.32"
       height="4.6199999"
       id="rect125" />
  </g>
  <g
     id="Oval-475"
     transform="scale(2)">
    <circle
       class="cls-20"
       cx="142.60001"
       cy="134.78999"
       r="0.57999998"
       id="circle128" />
    <path
       class="cls-20"
       d="m 142.6,135.56 c -0.42,0 -0.77,-0.34 -0.77,-0.77 0,-0.43 0.34,-0.77 0.77,-0.77 0.43,0 0.77,0.34 0.77,0.77 0,0.43 -0.34,0.77 -0.77,0.77 z m 0,-1.15 c -0.21,0 -0.39,0.17 -0.39,0.39 0,0.22 0.17,0.39 0.39,0.39 0.22,0 0.39,-0.17 0.39,-0.39 0,-0.22 -0.17,-0.39 -0.39,-0.39 z"
       id="path130" />
  </g>
  <g
     id="Oval-476"
     transform="scale(2)">
    <circle
       class="cls-20"
       cx="145.48"
       cy="134.78999"
       r="0.57999998"
       id="circle133" />
    <path
       class="cls-20"
       d="m 145.48,135.56 c -0.42,0 -0.77,-0.34 -0.77,-0.77 0,-0.43 0.34,-0.77 0.77,-0.77 0.43,0 0.77,0.34 0.77,0.77 0,0.43 -0.34,0.77 -0.77,0.77 z m 0,-1.15 c -0.21,0 -0.39,0.17 -0.39,0.39 0,0.22 0.17,0.39 0.39,0.39 0.22,0 0.39,-0.17 0.39,-0.39 0,-0.22 -0.17,-0.39 -0.39,-0.39 z"
       id="path135" />
  </g>
  <g
     id="Oval-477"
     transform="scale(2)">
    <circle
       class="cls-20"
       cx="148.37"
       cy="134.78999"
       r="0.57999998"
       id="circle138" />
    <path
       class="cls-20"
       d="m 148.37,135.56 c -0.42,0 -0.77,-0.34 -0.77,-0.77 0,-0.43 0.34,-0.77 0.77,-0.77 0.43,0 0.77,0.34 0.77,0.77 0,0.43 -0.34,0.77 -0.77,0.77 z m 0,-1.15 c -0.21,0 -0.39,0.17 -0.39,0.39 0,0.22 0.17,0.39 0.39,0.39 0.22,0 0.39,-0.17 0.39,-0.39 0,-0.22 -0.17,-0.39 -0.39,-0.39 z"
       id="path140" />
  </g>
  <path
     class="cls-27"
     d="m 337.4,377.16 h -47 v -35.48 h 47 z m -44.7,-2.3 h 42.4 v -30.9 h -42.4 z"
     id="path143"
     style="stroke-width:2" />
  <rect
     class="cls-27"
     x="-106.04939"
     y="438.75421"
     width="2.3"
     height="54.619999"
     transform="rotate(-53.810001)"
     id="rect145"
     style="stroke-width:2" />
  <rect
     class="cls-27"
     x="9.9328594"
     y="474.5863"
     width="55.68"
     height="2.3"
     transform="rotate(-36.590001)"
     id="rect147"
     style="stroke-width:2" />
  <path
     class="cls-27"
     d="m 313.86,420.98 h -22.74 v -19.56 h 22.74 z m -20.46,-2.3 h 18.16 V 403.7 H 293.4 Z"
     id="path149"
     style="stroke-width:2" />
  <rect
     class="cls-27"
     x="-123.83622"
     y="482.68582"
     width="2.3"
     height="26.24"
     transform="rotate(-50.23)"
     id="rect151"
     style="stroke-width:2" />
  <rect
     class="cls-27"
     x="-47.583824"
     y="508.19156"
     width="26.76"
     height="2.3"
     transform="rotate(-40.18)"
     id="rect153"
     style="stroke-width:2" />
  <circle
     class="cls-27"
     cx="296.62"
     cy="319.78"
     r="4.9000001"
     id="circle155"
     style="stroke-width:2" />
  <rect
     class="cls-27"
     x="291.45999"
     y="327.92001"
     width="10.34"
     height="2.3"
     id="rect157"
     style="stroke-width:2" />
  <circle
     class="cls-27"
     cx="313.44"
     cy="319.78"
     r="4.9000001"
     id="circle159"
     style="stroke-width:2" />
  <rect
     class="cls-27"
     x="308.26001"
     y="327.92001"
     width="10.34"
     height="2.3"
     id="rect161"
     style="stroke-width:2" />
  <circle
     class="cls-27"
     cx="330.23999"
     cy="319.78"
     r="4.9000001"
     id="circle163"
     style="stroke-width:2" />
  <rect
     class="cls-27"
     x="325.07999"
     y="327.92001"
     width="10.34"
     height="2.3"
     id="rect165"
     style="stroke-width:2" />
  <rect
     class="cls-27"
     x="291.45999"
     y="331.76001"
     width="10.34"
     height="2.3"
     id="rect167"
     style="stroke-width:2" />
  <rect
     class="cls-27"
     x="291.07999"
     y="384.38"
     width="44.939999"
     height="2.3"
     id="rect169"
     style="stroke-width:2" />
  <rect
     class="cls-27"
     x="291.07999"
     y="388.57999"
     width="44.939999"
     height="2.3"
     id="rect171"
     style="stroke-width:2" />
  <rect
     class="cls-27"
     x="291.07999"
     y="392.78"
     width="44.939999"
     height="2.3"
     id="rect173"
     style="stroke-width:2" />
  <rect
     class="cls-27"
     x="317.98001"
     y="410.10001"
     width="18.02"
     height="2.3"
     id="rect175"
     style="stroke-width:2" />
  <rect
     class="cls-27"
     x="317.98001"
     y="414.29999"
     width="18.02"
     height="2.3"
     id="rect177"
     style="stroke-width:2" />
  <rect
     class="cls-27"
     x="317.98001"
     y="418.5"
     width="18.02"
     height="2.3"
     id="rect179"
     style="stroke-width:2" />
  <rect
     class="cls-27"
     x="308.26001"
     y="331.76001"
     width="10.34"
     height="2.3"
     id="rect181"
     style="stroke-width:2" />
  <rect
     class="cls-27"
     x="325.07999"
     y="331.76001"
     width="10.34"
     height="2.3"
     id="rect183"
     style="stroke-width:2" />
  <rect
     class="cls-27"
     x="308.26001"
     y="280.92001"
     width="7.0799999"
     height="2.3"
     id="rect185"
     style="stroke-width:2" />
  <rect
     class="cls-27"
     x="319.78"
     y="280.92001"
     width="7.0799999"
     height="2.3"
     id="rect187"
     style="stroke-width:2" />
  <rect
     class="cls-27"
     x="331.29999"
     y="280.92001"
     width="7.0799999"
     height="2.3"
     id="rect189"
     style="stroke-width:2" />
  <path
     class="cls-27"
     d="M 330.18,306.18 H 296.7 V 291.6 h 33.48 z M 299,303.88 h 28.88 V 293.9 H 299 Z"
     id="path191"
     style="stroke-width:2" />
  <rect
     class="cls-27"
     x="288.34"
     y="279.78"
     width="7.8400002"
     height="4.3800001"
     id="rect193"
     style="stroke-width:2" />
  <rect
     class="cls-27"
     x="305.76001"
     y="297.35999"
     width="15.38"
     height="2.3"
     id="rect195"
     style="stroke-width:2" />
  <path
     class="cls-24"
     d="m 394.9,255.86 c 0,1.6 1.2,2.88 2.68,2.88 h 5.2 v 10.8 l 12.76,-10.8 h 15.08 c 1.48,0 2.7,-1.28 2.7,-2.88 v -32.68 c 0,-1.6 -1.2,-2.88 -2.7,-2.88 h -33.04 c -1.48,0 -2.68,1.28 -2.68,2.88 z"
     id="path197"
     style="stroke-width:2" />
  <path
     class="cls-19"
     d="m 400.78,268.72 v -5.54 c 0,-1.32 -1.08,-2.4 -2.4,-2.4 h -0.78 c -2.6,0 -4.7,-2.2 -4.7,-4.9 V 223.2 c 0,-2.7 2.12,-4.9 4.7,-4.9 h 33.04 c 2.6,0 4.7,2.2 4.7,4.9 v 32.68 c 0,2.7 -2.12,4.9 -4.7,4.9 h -13.46 c -0.56,0 -1.12,0.2 -1.56,0.56 l -10.88,9.22 c -1.56,1.32 -3.96,0.22 -3.96,-1.84 z"
     id="path199" />
  <polygon
     class="cls-27"
     points="204.2,115.52 207.81,117.6 211.42,119.69 207.81,121.77 204.2,123.86 204.2,119.69 "
     id="polygon201"
     transform="scale(2)" />
  <path
     class="cls-27"
     d="m 127.08,414.04 c -0.64,-0.52 -1.58,-0.42 -2.1,0.2 l -2.54,3.1 c -0.86,1.06 -2.56,0.48 -2.62,-0.86 v -4.94 c 0,-0.32 0.12,-0.62 0.32,-0.88 l 7.14,-8.72 c 0.52,-0.64 0.42,-1.58 -0.2,-2.1 v 0 c -0.64,-0.52 -1.58,-0.42 -2.1,0.2 l -2.54,3.1 c -0.86,1.06 -2.56,0.48 -2.62,-0.86 v -6.7 c 0,-0.82 -0.68,-1.5 -1.5,-1.5 -0.82,0 -1.5,0.68 -1.5,1.5 v 6.7 c -0.06,1.34 -1.76,1.94 -2.62,0.88 l -2.54,-3.1 c -0.52,-0.64 -1.46,-0.72 -2.1,-0.2 v 0 c -0.64,0.52 -0.72,1.46 -0.2,2.1 l 7.14,8.72 c 0.2,0.24 0.32,0.56 0.32,0.88 v 4.92 c -0.06,1.34 -1.76,1.94 -2.62,0.88 l -2.54,-3.1 c -0.52,-0.64 -1.46,-0.72 -2.1,-0.2 v 0 c -0.64,0.52 -0.72,1.46 -0.2,2.1 l 7.14,8.72 c 0.2,0.26 0.32,0.56 0.32,0.88 v 12.12 c 0,0 0,0.04 0,0.06 v 0.38 c 0,0.82 0.66,1.48 1.48,1.48 v 0 c 0.82,0 1.48,-0.66 1.48,-1.48 v -0.36 c 0,0 0,-0.04 0,-0.06 v -12.12 c 0,-0.32 0.12,-0.62 0.32,-0.88 l 7.14,-8.72 c 0.52,-0.64 0.42,-1.58 -0.2,-2.1 v 0 z"
     id="path203"
     style="stroke-width:2" />
  <path
     class="cls-27"
     d="m 379.92,399.84 v 0 c -0.64,-0.52 -1.58,-0.42 -2.1,0.2 l -2.54,3.1 c -0.86,1.06 -2.56,0.48 -2.62,-0.86 v -4.74 c 0,-0.32 0.12,-0.62 0.32,-0.88 l 7.14,-8.72 c 0.52,-0.64 0.42,-1.58 -0.2,-2.1 v 0 c -0.64,-0.52 -1.58,-0.42 -2.1,0.2 l -2.54,3.1 c -0.86,1.06 -2.56,0.48 -2.62,-0.86 v -6.7 c 0,-0.82 -0.68,-1.5 -1.5,-1.5 -0.82,0 -1.5,0.68 -1.5,1.5 v 6.7 c -0.06,1.34 -1.76,1.94 -2.62,0.88 l -2.54,-3.1 c -0.52,-0.64 -1.46,-0.72 -2.1,-0.2 v 0 c -0.64,0.52 -0.72,1.46 -0.2,2.1 l 7.14,8.72 c 0.2,0.24 0.32,0.56 0.32,0.88 v 4.74 c -0.06,1.34 -1.76,1.94 -2.62,0.88 l -2.54,-3.1 c -0.52,-0.64 -1.46,-0.72 -2.1,-0.2 v 0 c -0.36,0.3 -0.52,0.72 -0.52,1.16 -0.06,0.4 0.04,0.8 0.32,1.14 l 7.14,8.72 c 0.2,0.26 0.32,0.56 0.32,0.88 v 4.74 c -0.06,1.34 -1.76,1.94 -2.62,0.88 l -2.54,-3.1 c -0.52,-0.64 -1.46,-0.72 -2.1,-0.2 v 0 c -0.64,0.52 -0.72,1.46 -0.2,2.1 l 7.14,8.72 c 0.2,0.26 0.32,0.56 0.32,0.88 v 12.12 c 0,0 0,0.04 0,0.06 v 0.38 c 0,0.82 0.66,1.48 1.48,1.48 v 0 c 0.82,0 1.48,-0.66 1.48,-1.48 V 438 c 0,0 0,-0.04 0,-0.06 v -12.12 c 0,-0.32 0.12,-0.62 0.32,-0.88 l 7.14,-8.72 c 0.52,-0.64 0.42,-1.58 -0.2,-2.1 v 0 c -0.64,-0.52 -1.58,-0.42 -2.1,0.2 l -2.54,3.1 c -0.86,1.06 -2.56,0.48 -2.62,-0.86 v -4.74 c 0,-0.32 0.12,-0.62 0.32,-0.88 l 7.14,-8.72 c 0.28,-0.34 0.36,-0.74 0.32,-1.14 0,-0.44 -0.16,-0.86 -0.52,-1.16 z"
     id="path205"
     style="stroke-width:2" />
  <path
     class="cls-27"
     d="m 99.06,396.86 7.14,-8.72 c 0.52,-0.64 0.42,-1.58 -0.2,-2.1 v 0 c -0.64,-0.52 -1.58,-0.42 -2.1,0.2 l -2.54,3.1 c -0.86,1.06 -2.56,0.48 -2.62,-0.86 v -4.94 c 0,-0.32 0.12,-0.62 0.32,-0.88 l 7.14,-8.72 c 0.52,-0.64 0.42,-1.58 -0.2,-2.1 v 0 c -0.64,-0.52 -1.58,-0.42 -2.1,0.2 l -2.54,3.1 c -0.86,1.06 -2.56,0.48 -2.62,-0.86 v -6.7 c 0,-0.82 -0.68,-1.5 -1.5,-1.5 -0.82,0 -1.5,0.68 -1.5,1.5 v 6.7 c -0.06,1.34 -1.76,1.94 -2.62,0.88 l -2.54,-3.1 c -0.52,-0.64 -1.46,-0.72 -2.1,-0.2 v 0 c -0.64,0.52 -0.72,1.46 -0.2,2.1 l 7.14,8.72 c 0.2,0.24 0.32,0.56 0.32,0.88 v 4.92 c -0.06,1.34 -1.76,1.94 -2.62,0.88 l -2.54,-3.1 c -0.52,-0.64 -1.46,-0.72 -2.1,-0.2 v 0 c -0.64,0.52 -0.72,1.46 -0.2,2.1 l 7.14,8.72 c 0.2,0.26 0.32,0.56 0.32,0.88 v 4.54 c -0.06,1.34 -1.76,1.94 -2.62,0.88 l -2.54,-3.1 c -0.52,-0.64 -1.46,-0.72 -2.1,-0.2 v 0 c -0.64,0.52 -0.72,1.46 -0.2,2.1 l 7.14,8.72 c 0.2,0.24 0.32,0.56 0.32,0.88 v 4.92 c -0.06,1.34 -1.76,1.94 -2.62,0.88 l -2.54,-3.1 c -0.52,-0.64 -1.46,-0.72 -2.1,-0.2 v 0 c -0.64,0.52 -0.72,1.46 -0.2,2.1 l 7.14,8.72 c 0.2,0.26 0.32,0.56 0.32,0.88 v 12.12 c 0,0 0,0.04 0,0.06 v 0.38 c 0,0.82 0.66,1.48 1.48,1.48 v 0 c 0.82,0 1.48,-0.66 1.48,-1.48 v -0.36 c 0,0 0,-0.04 0,-0.06 V 425.8 c 0,-0.32 0.12,-0.62 0.32,-0.88 l 7.14,-8.72 c 0.52,-0.64 0.42,-1.58 -0.2,-2.1 v 0 c -0.64,-0.52 -1.58,-0.42 -2.1,0.2 l -2.54,3.1 c -0.86,1.06 -2.56,0.48 -2.62,-0.86 v -4.94 c 0,-0.32 0.12,-0.62 0.32,-0.88 l 7.14,-8.72 c 0.52,-0.64 0.42,-1.58 -0.2,-2.1 v 0 c -0.64,-0.52 -1.58,-0.42 -2.1,0.2 l -2.54,3.1 c -0.86,1.06 -2.56,0.48 -2.62,-0.86 v -4.56 c 0,-0.32 0.12,-0.62 0.32,-0.88 z"
     id="path207"
     style="stroke-width:2" />
  <path
     class="cls-27"
     d="m 501.72,396.86 7.14,-8.72 c 0.52,-0.64 0.42,-1.58 -0.2,-2.1 v 0 c -0.64,-0.52 -1.58,-0.42 -2.1,0.2 l -2.54,3.1 c -0.86,1.06 -2.56,0.48 -2.62,-0.86 v -4.94 c 0,-0.32 0.12,-0.62 0.32,-0.88 l 7.14,-8.72 c 0.52,-0.64 0.42,-1.58 -0.2,-2.1 v 0 c -0.64,-0.52 -1.58,-0.42 -2.1,0.2 l -2.54,3.1 c -0.86,1.06 -2.56,0.48 -2.62,-0.86 v -6.7 c 0,-0.82 -0.68,-1.5 -1.5,-1.5 -0.82,0 -1.5,0.68 -1.5,1.5 v 6.7 c -0.06,1.34 -1.76,1.94 -2.62,0.88 l -2.54,-3.1 c -0.52,-0.64 -1.46,-0.72 -2.1,-0.2 v 0 c -0.64,0.52 -0.72,1.46 -0.2,2.1 l 7.14,8.72 c 0.2,0.24 0.32,0.56 0.32,0.88 v 4.92 c -0.06,1.34 -1.76,1.94 -2.62,0.88 l -2.54,-3.1 c -0.52,-0.64 -1.46,-0.72 -2.1,-0.2 v 0 c -0.64,0.52 -0.72,1.46 -0.2,2.1 l 7.14,8.72 c 0.2,0.26 0.32,0.56 0.32,0.88 v 4.54 c -0.06,1.34 -1.76,1.94 -2.62,0.88 l -2.54,-3.1 c -0.52,-0.64 -1.46,-0.72 -2.1,-0.2 v 0 c -0.64,0.52 -0.72,1.46 -0.2,2.1 l 7.14,8.72 c 0.2,0.24 0.32,0.56 0.32,0.88 v 4.92 c -0.06,1.34 -1.76,1.94 -2.62,0.88 l -2.54,-3.1 c -0.52,-0.64 -1.46,-0.72 -2.1,-0.2 v 0 c -0.64,0.52 -0.72,1.46 -0.2,2.1 l 7.14,8.72 c 0.2,0.26 0.32,0.56 0.32,0.88 v 12.12 c 0,0 0,0.04 0,0.06 v 0.38 c 0,0.82 0.66,1.48 1.48,1.48 v 0 c 0.82,0 1.48,-0.66 1.48,-1.48 v -0.36 c 0,0 0,-0.04 0,-0.06 V 425.8 c 0,-0.32 0.12,-0.62 0.32,-0.88 l 7.14,-8.72 c 0.52,-0.64 0.42,-1.58 -0.2,-2.1 v 0 c -0.64,-0.52 -1.58,-0.42 -2.1,0.2 l -2.54,3.1 c -0.86,1.06 -2.56,0.48 -2.62,-0.86 v -4.94 c 0,-0.32 0.12,-0.62 0.32,-0.88 l 7.14,-8.72 c 0.52,-0.64 0.42,-1.58 -0.2,-2.1 v 0 c -0.64,-0.52 -1.58,-0.42 -2.1,0.2 l -2.54,3.1 c -0.86,1.06 -2.56,0.48 -2.62,-0.86 v -4.56 c 0,-0.32 0.12,-0.62 0.32,-0.88 z"
     id="path209"
     style="stroke-width:2" />
  <path
     class="cls-14"
     d="m 218.06,326.84 v -27.36 l -18.38,-10.54 -8.62,15.02 c 0,0 1.2,7.46 7.86,10.86 0.66,0.34 2.26,0.72 2.26,2.54 v 9.48 h 16.86 z"
     id="path211" />
  <line
     class="cls-2"
     x1="200.88"
     y1="278.84"
     x2="200.88"
     y2="259.32001"
     id="line213" />
  <path
     class="cls-18"
     d="m 200.84,318.92 c -5.2,0 -5.2,-5.28 -5.2,-5.28 v -40.68 c 0,0 10.48,0 10.48,0 v 40.68 c 0,0 -0.06,5.28 -5.26,5.28 z"
     id="path215" />
  <path
     class="cls-27"
     d="m 201.96,307.68 c -0.62,0.62 -1.62,0.62 -2.24,0 -0.62,-0.62 -0.62,-1.62 0,-2.24 0.62,-0.62 1.62,-0.62 2.24,0 0.62,0.62 0.62,1.62 0,2.24 z"
     id="path217"
     style="stroke-width:2" />
  <path
     class="cls-17"
     d="m 174.58,237.94 c 0,-14.52 11.78,-26.28 26.28,-26.28 14.52,0 26.3,11.76 26.3,26.28 0,14.52 -11.78,26.28 -26.3,26.28 -14.52,0 -26.3,-11.76 -26.28,-26.28 z"
     id="path219" />
  <path
     class="cls-24"
     d="m 181.04,237.94 c 0,-10.94 8.86,-19.8 19.8,-19.8 10.94,0 19.8,8.86 19.8,19.8 0,10.94 -8.86,19.8 -19.8,19.8 -10.94,0 -19.8,-8.86 -19.8,-19.8 z"
     id="path221"
     style="stroke-width:2" />
  <path
     class="cls-14"
     d="m 191.72,287.6 c -1.58,0 -2.86,-1.26 -2.86,-2.82 v 0 c 0,-1.58 1.26,-2.86 2.82,-2.86 h 1.48 c 1.58,0 2.86,1.26 2.86,2.82 v 0 c 0,1.58 -1.26,2.86 -2.84,2.86 h -1.48 z"
     id="path223" />
  <path
     class="cls-14"
     d="m 191.82,304.66 c -1.58,0 -2.86,-1.26 -2.86,-2.84 v 0 c 0,-1.58 1.26,-2.86 2.84,-2.86 h 2.4 c 1.56,0 2.86,1.24 2.86,2.82 v 0 c 0,1.58 -1.26,2.86 -2.82,2.86 h -2.4 z"
     id="path225" />
  <path
     class="cls-14"
     d="m 190.6,293.28 c -1.58,0 -2.86,-1.26 -2.86,-2.84 v 0 c 0,-1.58 1.26,-2.86 2.82,-2.86 h 5.38 c 1.58,0 2.86,1.28 2.86,2.84 v 0 c 0,1.58 -1.26,2.86 -2.84,2.86 h -5.38 z"
     id="path227" />
  <path
     class="cls-14"
     d="m 190.94,298.98 c -1.56,0 -2.86,-1.26 -2.86,-2.84 v 0 c 0,-1.58 1.26,-2.86 2.84,-2.86 h 4.66 c 1.58,-0.04 2.86,1.24 2.86,2.8 v 0 c 0,1.58 -1.26,2.86 -2.84,2.86 h -4.66 z"
     id="path229" />
  <path
     class="cls-24"
     d="m 211.74,281.9 h -8.02 c 0,0 -2.66,6.62 6.84,6.62 v 6.1 c 0,0 -7.78,2.68 -5.96,11.08 0.7,3.2 2.4,5.3 4.38,6.7 l 9.08,2.66 v -23.02 c 0,-5.22 0,-10.14 -6.3,-10.14 z"
     id="path231"
     style="stroke-width:2" />
  <path
     class="cls-2"
     d="m 218.06,315.04 v -23.02 c 0,-5.22 0,-10.14 -6.3,-10.14 h -8.02 c 0,0 -2.66,6.62 6.84,6.62 v 6.1 c 0,0 -7.78,2.68 -5.96,11.08 0.7,3.2 2.4,5.3 4.38,6.7"
     id="path233" />
  <rect
     class="cls-23"
     x="176.3"
     y="346"
     width="61.66"
     height="92.160004"
     id="rect235" />
  <rect
     class="cls-23"
     x="182.88"
     y="327"
     width="48.5"
     height="18.5"
     id="rect237" />
  <circle
     class="cls-25"
     cx="200.25999"
     cy="238.5"
     r="6.8600001"
     id="circle239"
     style="stroke-width:2" />
  <path
     class="cls-27"
     d="m 216.14,237.86 c -2.78,-4.56 -8.94,-7.5 -15.66,-7.5 -6.72,0 -12.88,2.94 -15.66,7.5 -0.16,0.26 -0.16,0.58 0,0.86 2.78,4.56 8.94,7.5 15.66,7.5 6.72,0 12.88,-2.94 15.66,-7.5 0.16,-0.26 0.16,-0.58 0,-0.86 z m -29.68,0.42 c 1.74,-2.56 4.76,-4.48 8.32,-5.5 -1.38,1.42 -2.24,3.36 -2.24,5.5 0,2.14 0.86,4.08 2.24,5.5 -3.56,-1.02 -6.58,-2.94 -8.32,-5.5 z m 14,6.3 c -3.48,0 -6.3,-2.82 -6.3,-6.3 0,-3.48 2.82,-6.3 6.3,-6.3 3.48,0 6.3,2.82 6.3,6.3 0,3.48 -2.82,6.3 -6.3,6.3 z m 5.68,-0.8 c 1.38,-1.42 2.24,-3.36 2.24,-5.5 0,-2.14 -0.86,-4.06 -2.24,-5.5 3.56,1.02 6.58,2.94 8.32,5.5 -1.74,2.56 -4.74,4.48 -8.32,5.5 z"
     id="path241"
     style="stroke-width:2" />
  <path
     class="cls-27"
     d="m 200.46,233.54 c -0.46,0 -0.94,0.08 -1.46,0.24 -0.3,0.1 -0.5,0.34 -0.56,0.64 -0.06,0.3 0.08,0.6 0.32,0.78 0.2,0.14 0.5,0.44 0.5,0.92 0,0.64 -0.52,1.18 -1.16,1.18 -0.44,0 -0.74,-0.26 -0.86,-0.42 -0.2,-0.22 -0.52,-0.34 -0.82,-0.26 -0.3,0.08 -0.52,0.3 -0.6,0.6 -0.08,0.36 -0.12,0.7 -0.12,1.04 0,2.62 2.12,4.74 4.74,4.74 2.62,0 4.74,-2.12 4.74,-4.74 0,-2.62 -2.12,-4.74 -4.74,-4.74 z"
     id="path243"
     style="stroke-width:2" />
  <path
     class="cls-24"
     d="m 200.46,241.42 c -1.54,0 -2.82,-1.12 -3.06,-2.58 0.24,0.06 0.48,0.1 0.72,0.1 1.54,0 2.8,-1.26 2.8,-2.8 0,-0.34 -0.06,-0.66 -0.18,-0.96 1.6,0.14 2.86,1.48 2.86,3.1 0,1.72 -1.4,3.12 -3.12,3.12 z"
     id="path245"
     style="stroke-width:2" />
  <rect
     class="cls-21"
     x="185.66"
     y="363.34"
     width="11.32"
     height="11.32"
     id="rect247" />
  <rect
     class="cls-21"
     x="201.5"
     y="379.17999"
     width="11.32"
     height="11.32"
     id="rect249" />
  <rect
     class="cls-21"
     x="217.36"
     y="395.01999"
     width="11.32"
     height="11.32"
     id="rect251" />
  <circle
     class="cls-27"
     cx="194.46001"
     cy="336"
     r="3"
     id="circle253"
     style="stroke-width:2" />
  <circle
     class="cls-27"
     cx="207.12"
     cy="336"
     r="3"
     id="circle255"
     style="stroke-width:2" />
  <circle
     class="cls-27"
     cx="219.8"
     cy="336"
     r="3"
     id="circle257"
     style="stroke-width:2" />
  <path
     class="cls-23"
     d="m 238.1,402.5 v 35.7 h 10.98 v -12.86 c 0,-5.14 4.2,-9.34 9.34,-9.34 5.14,0 9.34,4.2 9.34,9.34 v 12.86 h 10.98 v -35.7 h -40.62 z"
     id="path259" />
  <line
     class="cls-23"
     x1="258.42001"
     y1="402"
     x2="258.42001"
     y2="377.66"
     id="line261" />
  <rect
     class="cls-22"
     x="431.02267"
     y="65.824234"
     width="20.32"
     height="20.32"
     transform="rotate(45)"
     id="rect263" />
  <path
     class="cls-27"
     d="m 257.72,372.92 c -0.16,0 -0.32,-0.06 -0.42,-0.18 l -2.32,-2.32 c -0.16,-0.16 -0.22,-0.36 -0.16,-0.58 0.06,-0.2 0.2,-0.36 0.42,-0.42 0.48,-0.14 0.6,-0.26 0.6,-0.26 0.16,-0.16 0.24,-0.38 0.24,-0.6 0,-0.22 -0.08,-0.44 -0.24,-0.6 -0.32,-0.32 -0.88,-0.32 -1.2,0 0,0 -0.12,0.14 -0.26,0.6 -0.06,0.2 -0.22,0.36 -0.42,0.42 -0.22,0.06 -0.42,0 -0.58,-0.16 l -2.32,-2.32 c -0.24,-0.24 -0.24,-0.62 0,-0.84 l 2.2,-2.2 c 0,0 -0.16,-0.12 -0.22,-0.18 -0.38,-0.38 -0.6,-0.9 -0.6,-1.46 0,-0.56 0.22,-1.06 0.6,-1.46 0.78,-0.78 2.12,-0.78 2.9,0 0.06,0.06 0.12,0.14 0.18,0.22 l 2.2,-2.2 c 0.24,-0.24 0.62,-0.24 0.84,0 l 2.32,2.32 c 0.16,0.16 0.22,0.36 0.16,0.58 -0.06,0.2 -0.2,0.36 -0.42,0.42 -0.48,0.14 -0.6,0.24 -0.6,0.26 -0.34,0.34 -0.34,0.88 0,1.2 0.32,0.32 0.88,0.32 1.2,0 0,0 0.12,-0.12 0.26,-0.6 0.06,-0.2 0.22,-0.36 0.42,-0.42 0.2,-0.06 0.42,0 0.58,0.16 l 2.32,2.32 c 0.24,0.24 0.24,0.62 0,0.84 l -2.2,2.2 c 0,0 0.16,0.12 0.22,0.18 0.4,0.4 0.6,0.9 0.6,1.46 0,0.56 -0.22,1.06 -0.6,1.46 -0.78,0.78 -2.12,0.78 -2.9,0 -0.06,-0.06 -0.12,-0.14 -0.18,-0.22 l -2.2,2.2 c -0.12,0.12 -0.26,0.18 -0.42,0.18 z"
     id="path265"
     style="stroke-width:2" />
  <polyline
     class="cls-2"
     points="195.81 218.44 195.81 182.81 239.06 182.81 239.06 218.44"
     id="polyline267"
     transform="scale(2)" />
  <line
     class="cls-2"
     x1="392"
     y1="379.23999"
     x2="477.34"
     y2="379.23999"
     id="line269" />
  <circle
     class="cls-25"
     cx="411.35999"
     cy="396.12"
     r="9.1000004"
     id="circle271"
     style="stroke-width:2" />
  <polygon
     class="cls-24"
     points="201.81,198.11 203.86,199.73 203.36,200.36 200.54,198.11 203.36,195.87 203.86,196.49 "
     id="polygon273"
     transform="scale(2)" />
  <polygon
     class="cls-24"
     points="208,195.87 210.83,198.11 208,200.36 207.51,199.73 209.56,198.11 207.51,196.49 "
     id="polygon275"
     transform="scale(2)" />
  <rect
     class="cls-24"
     x="-271.57953"
     y="505.09573"
     width="12.58"
     height="1.58"
     transform="rotate(-73.76)"
     id="rect277"
     style="stroke-width:2" />
  <line
     class="cls-16"
     x1="427.34"
     y1="394"
     x2="467.34"
     y2="394"
     id="line279" />
  <line
     class="cls-16"
     x1="427.34"
     y1="402.66"
     x2="467.34"
     y2="402.66"
     id="line281" />
  <line
     class="cls-16"
     x1="401.66"
     y1="411.34"
     x2="467.34"
     y2="411.34"
     id="line283" />
  <line
     class="cls-16"
     x1="401.66"
     y1="420.34"
     x2="467.34"
     y2="420.34"
     id="line285" />
  <circle
     class="cls-27"
     cx="400"
     cy="372.34"
     r="2.3399999"
     id="circle287"
     style="stroke-width:2" />
  <circle
     class="cls-27"
     cx="408"
     cy="372.34"
     r="2.3399999"
     id="circle289"
     style="stroke-width:2" />
  <circle
     class="cls-27"
     cx="416"
     cy="372.34"
     r="2.3399999"
     id="circle291"
     style="stroke-width:2" />
  <line
     class="cls-3"
     x1="204.34"
     y1="364.66"
     x2="229.66"
     y2="364.66"
     id="line293" />
  <line
     class="cls-3"
     x1="204.34"
     y1="371.66"
     x2="229.66"
     y2="371.66"
     id="line295" />
  <line
     class="cls-3"
     x1="183.66"
     y1="397.34"
     x2="209"
     y2="397.34"
     id="line297" />
  <line
     class="cls-3"
     x1="183.66"
     y1="404.34"
     x2="209"
     y2="404.34"
     id="line299" />
  <line
     class="cls-4"
     x1="357.34"
     y1="458.66"
     x2="480"
     y2="458.66"
     id="line301" />
  <line
     class="cls-4"
     x1="322.66"
     y1="474"
     x2="407.34"
     y2="474"
     id="line303" />
  <line
     class="cls-4"
     x1="395.34"
     y1="487.34"
     x2="440"
     y2="487.34"
     id="line305" />
  <path
     class="cls-18"
     d="m 363.04,312.5 h 42.18 c 0.82,0 1.48,-0.66 1.48,-1.48 V 280.1 c 0,-0.82 -0.66,-1.48 -1.48,-1.48 h -21.58 c -0.4,0 -0.78,-0.16 -1.04,-0.44 l -7.82,-7.82 c -0.94,-0.94 -2.54,-0.28 -2.54,1.04 v 5.72 c 0,0.82 -0.66,1.48 -1.48,1.48 h -7.72 c -0.82,0 -1.48,0.66 -1.48,1.48 V 311 c 0,0.82 0.66,1.48 1.48,1.48 z"
     id="path307" />
  <line
     class="cls-1"
     x1="396.34"
     y1="299.5"
     x2="371.94"
     y2="299.5"
     id="line309" />
  <line
     class="cls-1"
     x1="396.34"
     y1="291.51999"
     x2="371.94"
     y2="291.51999"
     id="line311" />
  <polyline
     class="cls-6"
     points="113.58 118.97 122.88 118.97 122.88 109"
     id="polyline313"
     transform="scale(2)" />
  <path
     class="cls-27"
     d="m 275.74,254.74 h 2.6 c 0,0 0,-24.1 0,-24.1 h 7.5 c 3.78,0 6.86,-3.08 6.86,-6.86 v -6.84 h 3.5 c 0.46,0 0.9,-0.24 1.12,-0.66 0.24,-0.4 0.24,-0.9 0,-1.3 l -6.48,-11.22 c 0,-0.2 0,-0.4 0,-0.6 0,-5.86 -2.28,-11.36 -6.42,-15.5 l -1.84,1.84 c 3.66,3.66 5.66,8.5 5.66,13.66 0,0.3 0,0.58 -0.02,0.88 0,0.24 0.04,0.5 0.18,0.7 l 5.54,9.6 h -2.54 c -0.72,0 -1.3,0.58 -1.3,1.3 v 8.14 c 0,2.34 -1.92,4.26 -4.26,4.26 h -8.8 c -0.72,0 -1.3,0.58 -1.3,1.3 z"
     id="path315"
     style="stroke-width:2" />
  <path
     class="cls-24"
     d="m 260.3,174.32 c 11.32,0 20.5,9.18 20.5,20.5 0,4.82 -1.68,9.26 -4.46,12.76 l 1.2,4.48 -4.5,-1.2 c -3.5,2.78 -7.94,4.46 -12.76,4.46 -11.32,0 -20.5,-9.18 -20.5,-20.5 0,-11.32 9.18,-20.5 20.5,-20.5 z"
     id="path317"
     style="stroke-width:2" />
  <path
     class="cls-27"
     d="m 238.5,194.82 c 0,-12.02 9.78,-21.8 21.8,-21.8 12.02,0 21.8,9.78 21.8,21.8 0,4.76 -1.5,9.26 -4.34,13.04 l 1.62,6.04 -6.04,-1.62 c -3.78,2.84 -8.28,4.34 -13.04,4.34 -12.02,0 -21.8,-9.78 -21.8,-21.8 z m 37.2,15.4 -0.78,-2.94 0.4,-0.52 c 2.74,-3.44 4.18,-7.56 4.18,-11.94 0,-10.58 -8.62,-19.2 -19.2,-19.2 -10.58,0 -19.2,8.62 -19.2,19.2 0,10.58 8.62,19.2 19.2,19.2 4.38,0 8.52,-1.44 11.94,-4.18 l 0.52,-0.4 z"
     id="path319"
     style="stroke-width:2" />
  <circle
     class="cls-25"
     cx="260.29999"
     cy="194.82001"
     r="16.6"
     id="circle321"
     style="stroke-width:2" />
  <circle
     class="cls-24"
     cx="260.23999"
     cy="190.28"
     r="5.54"
     id="circle323"
     style="stroke-width:2" />
  <path
     class="cls-27"
     d="m 266.18,202.96 c 0.46,0 0.82,-0.38 0.82,-0.82 0,-0.44 -0.38,-0.82 -0.82,-0.82 h -1.14 c 0.12,-0.74 0.32,-1.52 0.74,-2.08 3.48,-4.48 3.7,-8.76 3.7,-9.06 0,-5.12 -4.14,-9.26 -9.26,-9.26 -5.12,0 -9.26,4.14 -9.26,9.26 0,0.3 0.22,4.58 3.7,9.06 0.42,0.56 0.64,1.34 0.74,2.08 h -1.3 c -0.46,0 -0.82,0.38 -0.82,0.82 0,0.44 0.38,0.82 0.82,0.82 h 1.08 v 1.14 h -1.08 c -0.46,0 -0.82,0.38 -0.82,0.82 0,0.44 0.38,0.82 0.82,0.82 h 12.04 c 0.46,0 0.82,-0.38 0.82,-0.82 0,-0.44 -0.38,-0.82 -0.82,-0.82 h -1.28 v -1.14 h 1.28 z m -13.52,-12.8 c 0,-4.18 3.4,-7.58 7.58,-7.58 4.18,0 7.58,3.4 7.58,7.56 0,0.04 -0.12,3.9 -3.36,8.06 v 0 c 0,0 0,0.02 0,0.02 -0.42,0.56 -0.74,1.28 -0.94,2.14 h -0.82 l 0.9,-7.68 c 0.06,-0.44 -0.28,-0.86 -0.72,-0.92 -0.44,-0.06 -0.86,0.28 -0.92,0.72 l -0.92,7.88 h -1.72 l -0.76,-7.88 c -0.04,-0.46 -0.44,-0.78 -0.9,-0.74 -0.46,0.04 -0.78,0.44 -0.74,0.9 l 0.74,7.72 h -0.72 c -0.2,-0.86 -0.5,-1.58 -0.92,-2.14 v 0 c 0,0 0,-0.02 0,-0.02 -3.24,-4.16 -3.36,-8.02 -3.36,-8.04 z m 10.58,13.92 h -6.34 v -1.14 h 6.34 z"
     id="path325"
     style="stroke-width:2" />
  <path
     class="cls-27"
     d="m 264.32,206.86 h -8.14 c -0.46,0 -0.82,0.38 -0.82,0.82 0,0.44 0.38,0.82 0.82,0.82 h 8.14 c 0.46,0 0.82,-0.38 0.82,-0.82 0,-0.44 -0.38,-0.82 -0.82,-0.82 z"
     id="path327"
     style="stroke-width:2" />
  <path
     class="cls-4"
     d="m 129.22,438.66 c 0,-8.84 7.16,-16 16,-16 8.84,0 16,7.16 16,16"
     id="path329" />
  <path
     class="cls-4"
     d="m 76.22,438.66 h 53"
     id="path331" />
  <path
     class="cls-4"
     d="M 161.22,438.66 H 514.5"
     id="path333" />
</svg>
