<svg xmlns="http://www.w3.org/2000/svg" id="world-growing-system" width="600" height="600" viewBox="0 0 600 600"><defs id="defs1193"><style id="style1191">.cls-1,.cls-10,.cls-12,.cls-13,.cls-14,.cls-17,.cls-18,.cls-19,.cls-20,.cls-21,.cls-22,.cls-23,.cls-3,.cls-6,.cls-7,.cls-9{stroke:#7836b2}.cls-1,.cls-10,.cls-12,.cls-17,.cls-18,.cls-22,.cls-23,.cls-25,.cls-26,.cls-27,.cls-3,.cls-6,.cls-7,.cls-9{fill:none}.cls-1,.cls-12,.cls-18,.cls-21,.cls-25,.cls-6,.cls-7,.cls-9{stroke-linecap:round}.cls-1,.cls-10,.cls-21{stroke-linejoin:round}.cls-1,.cls-10,.cls-19,.cls-20,.cls-21,.cls-3,.cls-7{stroke-width:1.5px}.cls-6{stroke-width:1.51px}.cls-12,.cls-13,.cls-14,.cls-17,.cls-18,.cls-19,.cls-20,.cls-22,.cls-23,.cls-25,.cls-26,.cls-27,.cls-3,.cls-6,.cls-7,.cls-9{stroke-miterlimit:10}.cls-14,.cls-20,.cls-28{fill:#fff}.cls-13,.cls-19,.cls-21,.cls-29{fill:#bb9ad8}.cls-31{fill:#7836b2}.cls-18{stroke-width:1.18px}.cls-22,.cls-9{stroke-width:1.31px}.cls-12,.cls-25{stroke-width:.5px}.cls-25,.cls-26{stroke:#bb9ad8}.cls-27{stroke:#fff}.cls-23{stroke-width:.47px}</style></defs><circle id="circle1195" cx="293.4" cy="306.42" r="211.22" style="fill:#e3e0e0;opacity:.5;stroke-width:1.99999"/><path id="path1197" d="M204.5 239.08h-11.92a4.14 4.14 0 0 1-4.12-4.12 4.14 4.14 0 0 1 4.12-4.12h21.6c2.56-.4 4.78-2.22 5.26-4.8a6.02 6.02 0 0 0-5.9-7.12h-79.88a4.14 4.14 0 0 1-4.12-4.12 4.14 4.14 0 0 1 4.12-4.12h.96q.46-.12.94-.12h37.04c2.1 0 3.82-1.52 3.82-3.38 0-1.64 1.34-3.02 3.1-3.32h16.2c3.3 0 6-2.7 6-6s-2.7-6-6-6H28.88c-3.3 0-6 2.7-6 6s2.7 6 6 6h16.18c1.76.3 3.1 1.68 3.1 3.32 0 1.86 1.72 3.38 3.82 3.38l43.68.12a4.14 4.14 0 0 1 4.12 4.12 4.14 4.14 0 0 1-4.12 4.12H87.5c-2.96 0-5.72 1.98-6.26 4.88a6.02 6.02 0 0 0 5.9 7.12h32.34c1.02.12 2.3.06 3.5.24h15.94a4.14 4.14 0 0 1 4.12 4.12 4.14 4.14 0 0 1-4.12 4.12h-22.26a5.9 5.9 0 0 0-3.58 4.3 6.02 6.02 0 0 0 5.9 7.12h83.54c2.96 0 5.72-1.98 6.26-4.88a6 6 0 0 0-4.28-6.86" class="cls-28" style="stroke-width:1.99999"/><path id="path1199" d="M516.4 179.68h-39.88l-.08-.08h-.06a4.14 4.14 0 0 1-4.12-4.12v-2.04a4.14 4.14 0 0 1 4.12-4.12h52.7c2.82 0 5.12-2.04 5.12-4.54s2.3-4.54 5.12-4.54h18.38a5.36 5.36 0 0 0 5.38-5.4c0-2.96-2.42-5.4-5.4-5.4H338.74a5.42 5.42 0 0 0-3.82 9.22 5.4 5.4 0 0 0 3.8 1.58h18.38c2.82 0 5.12 2.04 5.12 4.54s2.3 4.54 5.12 4.54h72.7a4.16 4.16 0 0 1 4.12 4.14v2.04a4.14 4.14 0 0 1-4.12 4.12l-110.66.08a8.5 8.5 0 0 0-8.5 8.5c0 4.68 3.82 8.5 8.5 8.5h187c4.68 0 8.5-3.82 8.5-8.5s-3.82-8.5-8.5-8.5z" class="cls-29" style="stroke-width:1.99999"/><path id="path1201" d="m444.92 348.72 7.26-.24a5.7 5.7 0 0 0 5.66-5.66v-.44a5.7 5.7 0 0 0-5.66-5.66h-18.74a6.1 6.1 0 0 1-5.06-4.78 6.02 6.02 0 0 1 5.9-7.12h126.04c2.96 0 5.72 1.98 6.26 4.88a6 6 0 0 1-4.88 7h-49.24a5.7 5.7 0 0 0-5.66 5.66v.44a5.7 5.7 0 0 0 5.66 5.66l16.02.24c2.96 0 5.72 1.98 6.26 4.88a6.02 6.02 0 0 1-5.9 7.12H445.3c-2.96 0-5.72-1.98-6.26-4.88a6.02 6.02 0 0 1 5.9-7.12z" class="cls-28" style="stroke-width:1.99999"/><rect id="rect1203" width="47.02" height="11.34" x="-588.82" y="-360.7" class="cls-28" rx="5.66" ry="5.66" style="stroke-width:1.99999" transform="scale(-1)"/><circle id="circle1205" cx="298.72" cy="129.62" r="2.94" style="stroke:#7836b2;fill:none;stroke-linecap:round;stroke-miterlimit:10;stroke-width:.41px"/><circle id="circle1207" cx="215.7" cy="122.72" r="3.68" class="cls-26" style="stroke-width:1.99999"/><circle id="circle1209" cx="206.28" cy="161.34" r="2.4" class="cls-17" style="stroke-width:1.99999"/><circle id="circle1211" cx="308.66" cy="200.4" r="2.4" class="cls-29" style="stroke-width:1.99999"/><circle id="circle1213" cx="257.12" cy="142.88" r="2.4" class="cls-31" style="stroke-width:1.99999"/><path id="line1215" d="M168.6 122.72v5.46" class="cls-12"/><path id="line1217" d="M171.32 125.46h-5.46" class="cls-12"/><circle id="circle1219" cx="272.52" cy="184.78" r="3.68" class="cls-27" style="stroke-width:1.99999"/><circle id="circle1221" cx="294" cy="171.34" r="2.4" class="cls-28" style="stroke-width:1.99999"/><circle id="circle1223" cx="405.4" cy="210.4" r="3.68" class="cls-26" style="stroke-width:1.99999"/><circle id="circle1225" cx="395.98" cy="249.02" r="2.4" class="cls-17" style="stroke-width:1.99999"/><circle id="circle1227" cx="446.84" cy="230.56" r="2.4" class="cls-31" style="stroke-width:1.99999"/><path id="line1229" d="M358.3 210.4v5.46" class="cls-12"/><path id="line1231" d="M361.04 213.14h-5.48" class="cls-12"/><circle id="circle1233" cx="136.36" cy="298.58" r="2.94" class="cls-25"/><circle id="circle1235" cx="84" cy="209.88" r="2.94" class="cls-25"/><circle id="circle1237" cx="115" cy="258.52" r="3.68" class="cls-26" style="stroke-width:1.99999"/><circle id="circle1239" cx="43.32" cy="291.7" r="3.68" class="cls-27" style="stroke-width:1.99999"/><circle id="circle1241" cx="96.58" cy="279.64" r="2.4" class="cls-17" style="stroke-width:1.99999"/><circle id="circle1243" cx="109.18" cy="320.78" r="2.4" class="cls-29" style="stroke-width:1.99999"/><circle id="circle1245" cx="147.44" cy="261.16" r="2.4" class="cls-31" style="stroke-width:1.99999"/><circle id="circle1247" cx="75.64" cy="308.96" r="2.4" class="cls-28" style="stroke-width:1.99999"/><path id="line1249" d="M58.9 241.02v5.46" class="cls-12"/><path id="line1251" d="M61.62 243.74h-5.46" class="cls-12"/><path id="line1253" d="M162.58 284.96v5.48" class="cls-25"/><path id="line1255" d="M165.32 287.7h-5.48" class="cls-25"/><circle id="circle1257" cx="157.26" cy="461.7" r="2.94" class="cls-25"/><circle id="circle1259" cx="217.54" cy="486.24" r="3.68" class="cls-26" style="stroke-width:1.99999"/><circle id="circle1261" cx="186.54" cy="458.46" r="2.4" class="cls-29" style="stroke-width:1.99999"/><circle id="circle1263" cx="182.66" cy="486.96" r="8.04" class="cls-29" style="stroke-width:1.99999"/><circle id="circle1265" cx="226.2" cy="458.12" r="2.4" class="cls-31" style="stroke-width:1.99999"/><path id="line1267" d="m145.94 489-3.52-4.18" class="cls-25"/><path id="line1269" d="m142.1 488.68 4.18-3.52" class="cls-25"/><path id="line1271" d="M379.34 456.3H502" class="cls-7"/><path id="line1273" d="M344.66 471.64h84.68" class="cls-7"/><path id="line1275" d="M417.34 484.96H462" class="cls-7"/><path id="path1277" d="M210.5 417.42q.57-.15 1.06-.42l1.88 1.58 2.02-2.02-1.54-1.82q.28-.5.46-1.04l2.44-.2v-2.86l-2.36-.2a5 5 0 0 0-.42-1.06l1.58-1.88-2.02-2.02-1.82 1.54a7 7 0 0 0-1.04-.46l-.2-2.44h-2.86l-.2 2.36q-.57.15-1.06.42l-1.88-1.58-2.02 2.02 1.54 1.82q-.28.5-.46 1.04l-2.44.2v2.86l2.36.2q.15.57.42 1.06l-1.58 1.88 2.02 2.02 1.82-1.54q.5.28 1.04.46m1.76-2.66a2.72 2.72 0 1 1 0-5.45 2.72 2.72 0 0 1 0 5.45" class="cls-31" style="stroke-width:1.99999"/><path id="line1279" d="M209 417.34v17.82" class="cls-7"/><path id="path1281" d="M181.5 408.92q.57-.15 1.06-.42l1.88 1.58 2.02-2.02-1.54-1.82q.28-.5.46-1.04l2.44-.2v-2.86l-2.36-.2a5 5 0 0 0-.42-1.06l1.58-1.88-2.02-2.02-1.82 1.54a7 7 0 0 0-1.04-.46l-.2-2.44h-2.86l-.2 2.36q-.57.15-1.06.42l-1.88-1.58-2.02 2.02 1.54 1.82q-.28.5-.46 1.04l-2.44.2v2.86l2.36.2q.15.57.42 1.06l-1.58 1.88 2.02 2.02 1.82-1.54q.5.28 1.04.46m1.76-2.66a2.72 2.72 0 1 1 0-5.45 2.72 2.72 0 0 1 0 5.45" class="cls-31" style="stroke-width:1.99999"/><path id="line1283" d="M180 408.84v26.66" class="cls-7"/><path id="path1285" d="M196 392.78q.57-.15 1.06-.42l1.88 1.58 2.02-2.02-1.54-1.82q.28-.5.46-1.04l2.44-.2V386l-2.36-.2a5 5 0 0 0-.42-1.06l1.58-1.88-2.02-2.02-1.82 1.54a7 7 0 0 0-1.04-.46l-.2-2.44h-2.86l-.2 2.36q-.57.15-1.06.42l-1.88-1.58-2.02 2.02 1.54 1.82q-.28.5-.46 1.04l-2.44.2v2.86l2.36.2q.15.57.42 1.06l-1.58 1.88 2.02 2.02 1.82-1.54q.5.28 1.04.46m1.76-2.66a2.72 2.72 0 1 1 0-5.45 2.72 2.72 0 0 1 0 5.45" class="cls-31" style="stroke-width:1.99999"/><path id="line1287" d="M194.5 392.68v41.82" class="cls-7"/><path id="path1289" d="M474.18 241.96a17.54 17.54 0 0 0-18.14 14.74q2.25 1.81 4.54 3.72l13.6-18.48z" class="cls-28" style="stroke-width:1.99999"/><path id="path1291" d="m460.8 262.06-.92-.76q-2.5-2.08-4.52-3.72l-.52-.42.1-.64a18.66 18.66 0 0 1 19.28-15.7l2.1.1-15.56 21.14zm-3.52-5.82q1.44 1.16 3.12 2.56l11.52-15.66a16.3 16.3 0 0 0-10.86 5.52 16.6 16.6 0 0 0-3.78 7.6z" class="cls-31" style="stroke-width:1.99999"/><path id="path1293" d="m491.12 256.16-16.94 16.18a264 264 0 0 1 4.8 4.52 17.53 17.53 0 0 0 12.16-20.68z" class="cls-28" style="stroke-width:1.99999"/><path id="path1295" d="m478.64 278.12-.48-.46a233 233 0 0 0-4.78-4.5l-.88-.82 19.26-18.38.44 1.94a18.66 18.66 0 0 1-12.94 22.02l-.62.18zm-2.84-5.78q1.83 1.68 3.44 3.24a16.4 16.4 0 0 0 11.08-17.1z" class="cls-31" style="stroke-width:1.99999"/><path id="path1297" d="M465.08 254.92 479 267.18l18.18-17.34a26.7 26.7 0 0 0 7.48-25.86 26.7 26.7 0 0 0-24.7 10.72l-14.88 20.24z" class="cls-29" style="stroke-width:1.99999"/><path id="path1299" d="m479.04 268.7-15.48-13.62 15.5-21.06a27.8 27.8 0 0 1 25.74-11.16l.78.1.18.76a28 28 0 0 1-7.8 26.96l-18.92 18.06zm-12.44-13.94 12.38 10.88 17.42-16.62a25.7 25.7 0 0 0 7.34-24.02q-1.93-.16-3.86-.04a25.6 25.6 0 0 0-19.02 10.38l-14.28 19.4z" class="cls-31" style="stroke-width:1.99999"/><path id="path1301" d="M460.98 265.46a5.43 5.43 0 0 1 9.46 3.24 5.3 5.3 0 0 1-1.34 3.92c-1.38 1.58-7.52 3.5-10.3 4.4a.6.6 0 0 1-.78-.68c.5-2.62 1.9-9.64 2.96-10.88" class="cls-31" style="stroke-width:1.99999"/><path id="path1303" d="M498.96 230.46a45 45 0 0 1 5.78 6.12c.96-4.14.94-8.48-.08-12.62-4.24-.5-8.54.04-12.52 1.52a46 46 0 0 1 6.82 4.96z" class="cls-28" style="stroke-width:1.99999"/><path id="path1305" d="m505.32 239.14-1.46-1.86a47 47 0 0 0-5.64-5.98 43 43 0 0 0-6.64-4.84l-2.02-1.2 2.2-.82a28 28 0 0 1 13.04-1.58l.78.1.18.76c1.06 4.28 1.1 8.82.08 13.14l-.54 2.3zm-10.52-13.3a47 47 0 0 1 9.3 8.18c.42-3 .3-6.06-.34-9-3-.26-6.06.02-8.96.82" class="cls-31" style="stroke-width:1.99999"/><path id="path1307" d="M496.44 242.44a6.02 6.02 0 1 1-9.04-7.95 6.02 6.02 0 0 1 9.04 7.95" class="cls-31" style="stroke-width:1.99999"/><path id="rect1309" d="M120.38 516.49h2.26v20.7h-2.26z" class="cls-31" style="stroke-width:2" transform="rotate(-48.66)"/><path id="line1311" d="M448.66 267.66 437 279.34" class="cls-6"/><path id="line1313" d="m450.34 281.34-18.18 18.16" class="cls-6"/><path id="line1315" d="m466 283.66-10.5 10.5" class="cls-6"/><path id="path1317" d="M274.82 255.74c0 8.04 3.46 15.26 8.96 20.28q.39.32.78.68a21.3 21.3 0 0 1 6.98 15.8H313c0-6.26 2.7-11.88 7-15.8q.39-.36.78-.68a27.4 27.4 0 0 0 8.96-20.28z" class="cls-22"/><path id="line1319" d="M313 292.5v11.56" class="cls-9"/><path id="line1321" d="M291.54 304.06V292.5" class="cls-9"/><path id="line1323" d="M287.82 292.5h28.9" class="cls-9"/><path id="line1325" d="M287.82 298.28h28.9" class="cls-9"/><path id="line1327" d="M287.82 304.06h28.9" class="cls-9"/><path id="line1329" d="M302.28 274.12V435" class="cls-6"/><path id="polyline1331" d="m155.06 132.36-3.92 4.7-3.92-4.7" class="cls-6" transform="scale(2)"/><path id="path1333" d="M326.62 247.52a5.34 5.34 0 0 0-3.9-8.8q.13-.57.14-1.2a5.36 5.36 0 0 0-7.4-4.96 5.37 5.37 0 0 0-10.62 1.02v22.14h23.74a5.3 5.3 0 0 0-1.94-8.2z" class="cls-29" style="stroke-width:1.99999"/><path id="path1335" d="M277.94 247.52a5.34 5.34 0 0 1 3.9-8.8 5.36 5.36 0 0 1 7.26-6.16 5.37 5.37 0 0 1 10.62 1.02v22.14h-23.74a5.3 5.3 0 0 1 1.94-8.2z" class="cls-29" style="stroke-width:1.99999"/><path id="path1337" d="M323.88 248c2.96 0 5.84 1.42 5.84 4.38a5.3 5.3 0 0 1-1.18 3.34H304.8v-22.14a5.36 5.36 0 1 1 5.36 5.36" class="cls-9"/><path id="path1339" d="M312.86 249.72c2.96 0 5.36-2.4 5.36-5.36" class="cls-9"/><path id="path1341" d="M315.44 232.58a5.36 5.36 0 0 1 7.26 6.14" class="cls-9"/><path id="path1343" d="M318.72 240.28a5.35 5.35 0 1 1 7.58 7.58" class="cls-9"/><path id="path1345" d="M294.36 238.96a5.36 5.36 0 1 1 5.36-5.36v22.14h-23.74a5.3 5.3 0 0 1-1.18-3.34c0-2.96 2.52-4.38 5.48-4.38" class="cls-9"/><path id="path1347" d="M291.68 249.72a5.36 5.36 0 0 1-5.36-5.36" class="cls-9"/><path id="path1349" d="M289.1 232.58a5.36 5.36 0 0 0-7.26 6.14" class="cls-22"/><path id="path1351" d="M285.84 240.28a5.35 5.35 0 1 0-7.58 7.58" class="cls-9"/><path id="line1353" d="M219.88 421.3h23.08" class="cls-23"/><path id="line1355" d="M219.88 429h23.08" class="cls-23"/><path id="polygon1357" d="m110.76 208.54 1.29 1.37v8.01h-2.71v-8.01z" class="cls-31" transform="scale(2)"/><circle id="circle1359" cx="221.4" cy="421.24" r=".62" class="cls-28" style="stroke-width:1.99999"/><circle id="circle1361" cx="221.4" cy="428.92" r=".62" class="cls-28" style="stroke-width:1.99999"/><path id="polygon1363" d="m114.41 208.54 1.29 1.37v8.01H113v-8.01z" class="cls-31" transform="scale(2)"/><circle id="circle1365" cx="228.7" cy="421.24" r=".62" class="cls-28" style="stroke-width:1.99999"/><circle id="circle1367" cx="228.7" cy="428.92" r=".62" class="cls-28" style="stroke-width:1.99999"/><path id="polygon1369" d="m118.06 208.54 1.29 1.37v8.01h-2.7v-8.01z" class="cls-31" transform="scale(2)"/><circle id="circle1371" cx="236" cy="421.24" r=".62" class="cls-28" style="stroke-width:1.99999"/><circle id="circle1373" cx="236" cy="428.92" r=".62" class="cls-28" style="stroke-width:1.99999"/><path id="polygon1375" d="m121.71 208.54 1.29 1.37v8.01h-2.7v-8.01z" class="cls-31" transform="scale(2)"/><circle id="circle1377" cx="243.3" cy="421.24" r=".62" class="cls-28" style="stroke-width:1.99999"/><circle id="circle1379" cx="243.3" cy="428.92" r=".62" class="cls-28" style="stroke-width:1.99999"/><path id="line1381" d="M485.58 421.3h23.08" class="cls-23"/><path id="line1383" d="M485.58 429h23.08" class="cls-23"/><path id="polygon1385" d="m243.61 208.54 1.29 1.37v8.01h-2.71v-8.01z" class="cls-31" transform="scale(2)"/><circle id="circle1387" cx="487.1" cy="421.24" r=".62" class="cls-28" style="stroke-width:1.99999"/><circle id="circle1389" cx="487.1" cy="428.92" r=".62" class="cls-28" style="stroke-width:1.99999"/><path id="polygon1391" d="m247.26 208.54 1.29 1.37v8.01h-2.71v-8.01z" class="cls-31" transform="scale(2)"/><circle id="circle1393" cx="494.4" cy="421.24" r=".62" class="cls-28" style="stroke-width:1.99999"/><circle id="circle1395" cx="494.4" cy="428.92" r=".62" class="cls-28" style="stroke-width:1.99999"/><path id="polygon1397" d="m250.91 208.54 1.29 1.37v8.01h-2.7v-8.01z" class="cls-31" transform="scale(2)"/><circle id="circle1399" cx="501.7" cy="421.24" r=".62" class="cls-28" style="stroke-width:1.99999"/><circle id="circle1401" cx="501.7" cy="428.92" r=".62" class="cls-28" style="stroke-width:1.99999"/><path id="polygon1403" d="m254.56 208.54 1.29 1.37v8.01h-2.7v-8.01z" class="cls-31" transform="scale(2)"/><circle id="circle1405" cx="509" cy="421.24" r=".62" class="cls-28" style="stroke-width:1.99999"/><circle id="circle1407" cx="509" cy="428.92" r=".62" class="cls-28" style="stroke-width:1.99999"/><path id="path1409" d="M442.8 407.1q.57-.15 1.06-.42l1.88 1.58 2.02-2.02-1.54-1.82q.27-.5.46-1.04l2.44-.2v-2.86l-2.36-.2a5 5 0 0 0-.42-1.06l1.58-1.88-2.02-2.02-1.82 1.54a7 7 0 0 0-1.04-.46l-.2-2.44h-2.86l-.2 2.36q-.57.15-1.06.42l-1.88-1.58-2.02 2.02 1.54 1.82q-.27.5-.46 1.04l-2.44.2v2.86l2.36.2q.15.58.42 1.06l-1.58 1.88 2.02 2.02 1.82-1.54q.5.27 1.04.46m1.76-2.66a2.72 2.72 0 1 1 0-5.45 2.72 2.72 0 0 1 0 5.45" class="cls-31" style="stroke-width:1.99999"/><path id="line1411" d="M441.3 407v27.84" class="cls-7"/><path id="path1413" d="M472.14 417.42q.57-.15 1.06-.42l1.88 1.58 2.02-2.02-1.54-1.82q.27-.5.46-1.04l2.44-.2v-2.86l-2.36-.2a5 5 0 0 0-.42-1.06l1.58-1.88-2.02-2.02-1.82 1.54a7 7 0 0 0-1.04-.46l-.2-2.44h-2.86l-.2 2.36q-.57.15-1.06.42l-1.88-1.58-2.02 2.02 1.54 1.82q-.27.5-.46 1.04l-2.44.2v2.86l2.36.2q.15.57.42 1.06L464 416.4l2.02 2.02 1.82-1.54q.5.28 1.04.46m1.76-2.66a2.72 2.72 0 1 1 0-5.45 2.72 2.72 0 0 1 0 5.45" class="cls-31" style="stroke-width:1.99999"/><path id="line1415" d="M470.64 417.34v17.82" class="cls-7"/><path id="path1417" d="M457.46 392.78q.57-.15 1.06-.42l1.88 1.58 2.02-2.02-1.54-1.82q.28-.5.46-1.04l2.44-.2V386l-2.36-.2a5 5 0 0 0-.42-1.06l1.58-1.88-2.02-2.02-1.82 1.54a7 7 0 0 0-1.04-.46l-.2-2.44h-2.86l-.2 2.36q-.57.15-1.06.42l-1.88-1.58-2.02 2.02 1.54 1.82q-.27.5-.46 1.04l-2.44.2v2.86l2.36.2q.15.57.42 1.06l-1.58 1.88 2.02 2.02 1.82-1.54q.5.28 1.04.46m1.76-2.66a2.72 2.72 0 1 1 0-5.45 2.72 2.72 0 0 1 0 5.45" class="cls-31" style="stroke-width:1.99999"/><path id="line1419" d="M455.98 392.68v41.82" class="cls-7"/><path id="line1421" d="M409.22 421.3h23.08" class="cls-23"/><path id="line1423" d="M409.22 429h23.08" class="cls-23"/><path id="polygon1425" d="m205.43 208.54 1.29 1.37v8.01h-2.71v-8.01z" class="cls-31" transform="scale(2)"/><circle id="circle1427" cx="410.74" cy="421.24" r=".62" class="cls-28" style="stroke-width:1.99999"/><circle id="circle1429" cx="410.74" cy="428.92" r=".62" class="cls-28" style="stroke-width:1.99999"/><path id="polygon1431" d="m209.08 208.54 1.29 1.37v8.01h-2.7v-8.01z" class="cls-31" transform="scale(2)"/><circle id="circle1433" cx="418.04" cy="421.24" r=".62" class="cls-28" style="stroke-width:1.99999"/><circle id="circle1435" cx="418.04" cy="428.92" r=".62" class="cls-28" style="stroke-width:1.99999"/><path id="polygon1437" d="m212.73 208.54 1.29 1.37v8.01h-2.7v-8.01z" class="cls-31" transform="scale(2)"/><circle id="circle1439" cx="425.34" cy="421.24" r=".62" class="cls-28" style="stroke-width:1.99999"/><circle id="circle1441" cx="425.34" cy="428.92" r=".62" class="cls-28" style="stroke-width:1.99999"/><path id="polygon1443" d="m216.38 208.54 1.29 1.37v8.01h-2.7v-8.01z" class="cls-31" transform="scale(2)"/><circle id="circle1445" cx="432.64" cy="421.24" r=".62" class="cls-28" style="stroke-width:1.99999"/><circle id="circle1447" cx="432.64" cy="428.92" r=".62" class="cls-28" style="stroke-width:1.99999"/><path id="polyline1449" d="M158 195.75h-33.5v-32" style="stroke:#7836b2;fill:none;stroke-linecap:round;stroke-linejoin:round;stroke-width:1.51px" transform="scale(2)"/><path id="path1451" d="M259.76 419.68v-31.92H278h-.38 8.74v31.92c0 2.4-1.94 4.32-4.32 4.32" class="cls-13" style="stroke-width:1.99999"/><path id="path1453" d="M277.72 419.68c0 2.4 1.94 4.32 4.32 4.32h-22.28a4.3 4.3 0 0 1-4.32-4.32z" class="cls-13" style="stroke-width:1.99999"/><path id="rect1455" d="M270.64 410.38h4.88v4.88h-4.88z" class="cls-14" style="stroke-width:1.99999"/><path id="rect1457" d="M268.2 394.42h9.78v4.88h-9.78z" style="stroke:#7836b2;stroke-miterlimit:10;fill:#43d3e8;stroke-width:1.99999"/><path id="rect1459" d="M278.16 410.38h4.88v4.88h-4.88z" class="cls-14" style="stroke-width:1.99999"/><path id="rect1461" d="M263.1 410.38h4.88v4.88h-4.88z" class="cls-14" style="stroke-width:1.99999"/><path id="path1463" d="M265.54 410v-3.32a1.85 1.85 0 0 1 1.84-1.84h11.4a1.85 1.85 0 0 1 1.84 1.84v3.16" class="cls-17" style="stroke-width:1.99999"/><path id="line1465" d="M273.08 409.84v-10.18" class="cls-17" style="stroke-width:1.99999"/><path id="rect1467" d="M270.64 410.38h4.88v4.88h-4.88z" class="cls-17" style="stroke-width:1.99999"/><path id="rect1469" d="M268.2 394.42h9.78v4.88h-9.78z" class="cls-14" style="stroke-width:1.99999"/><path id="rect1471" d="M278.16 410.38h4.88v4.88h-4.88z" class="cls-17" style="stroke-width:1.99999"/><path id="rect1473" d="M263.1 410.38h4.88v4.88h-4.88z" class="cls-17" style="stroke-width:1.99999"/><path id="path1475" d="M222.46 373.72h16.7v-7.96l-4.38-1.46-2.86 5.28c-.22.42-.66.66-1.12.66s-.9-.26-1.12-.66l-2.86-5.28-4.38 1.46v7.96z" class="cls-10"/><path id="path1477" d="M230.8 360.66a6.7 6.7 0 0 1 0-13.36 6.7 6.7 0 0 1 0 13.36z" class="cls-10"/><path id="path1479" d="M259.32 373.72h16.7v-7.96l-4.38-1.46-2.86 5.28c-.22.42-.66.66-1.12.66s-.9-.26-1.12-.66l-2.86-5.28-4.38 1.46v7.96z" class="cls-10"/><path id="path1481" d="M267.66 360.66a6.7 6.7 0 0 1 0-13.36 6.7 6.7 0 0 1 0 13.36z" class="cls-10"/><path id="path1483" d="M240.98 323.38h16.7v-7.96l-4.38-1.46-2.86 5.28c-.22.42-.66.66-1.12.66s-.9-.26-1.12-.66l-2.86-5.28-4.38 1.46v7.96z" class="cls-10"/><path id="path1485" d="M249.34 310.34a6.7 6.7 0 0 1 0-13.36 6.7 6.7 0 0 1 0 13.36z" class="cls-10"/><path id="polyline1487" d="m120.55 172.23 3.92-4.71 3.92 4.71" class="cls-6" transform="scale(2)"/><path id="polyline1489" d="M151.25 167.75H176v-11.5" class="cls-1" transform="scale(2)"/><path id="rect1491" d="M316.24 355.76h60v79.5h-60z" style="stroke:#7836b2;stroke-linejoin:round;fill:#fff;stroke-width:1.57px"/><path id="polyline1493" d="m158.25 208.75 6.12-10 5.63 4.13 6.37-13.13 6.38 6 18.26-24.34" class="cls-3" transform="scale(2)"/><path id="polygon1495" d="m204.5 166.75-2.24 8.58-1.52-3.57-3.85-.46z" class="cls-31" transform="scale(2)"/><circle id="circle1497" cx="328.34" cy="398" r="5.34" class="cls-31" style="stroke-width:1.99999"/><circle id="circle1499" cx="352.76" cy="379.5" r="5.34" class="cls-31" style="stroke-width:1.99999"/><circle id="circle1501" cx="340" cy="405.76" r="5.34" class="cls-31" style="stroke-width:1.99999"/><circle id="circle1503" cx="365.5" cy="390.76" r="5.34" class="cls-31" style="stroke-width:1.99999"/><path id="line1505" d="M316.5 366H375" class="cls-3"/><circle id="circle1507" cx="322.34" cy="361" r="1.66" class="cls-31" style="stroke-width:1.99999"/><circle id="circle1509" cx="327.66" cy="361" r="1.66" class="cls-31" style="stroke-width:1.99999"/><circle id="circle1511" cx="333" cy="361" r="1.66" class="cls-31" style="stroke-width:1.99999"/><path id="path1513" d="M385.12 421.44h-14.88a2.56 2.56 0 0 1-2.56-2.56v-18.46h-1.72a.6.6 0 0 1-.6-.6v-2.9c0-.32.26-.6.6-.6h37.24c.32 0 .6.26.6.6v2.9a.6.6 0 0 1-.6.6h-1.82v18.46a2.56 2.56 0 0 1-2.56 2.56h-13.68zm-19.34-21.08h37.4" style="stroke:#7836b2;stroke-miterlimit:10;fill:#bb9ad8;stroke-width:1.18px"/><path id="path1515" d="M386.16 411.96v5.38a6 6 0 0 0 5.38-5.38z" style="stroke:#7836b2;fill:none;stroke-miterlimit:10;stroke-width:1.18px"/><path id="line1517" d="M384.58 422v12.84" class="cls-18"/><path id="polyline1519" d="m189 217.58 3.25-3.41 3.34 3.33" class="cls-18" transform="scale(2)"/><path id="path1521" d="M383.5 403.3a6.02 6.02 0 0 0-.6 11.98v-5.98c0-.32.26-.6.6-.6h5.98a6 6 0 0 0-5.98-5.4z" style="stroke:#7836b2;stroke-miterlimit:10;fill:#fff;stroke-width:1.18px"/><circle id="circle1523" cx="352" cy="295" r="17.5" class="cls-1"/><circle id="circle1525" cx="352" cy="295" r="10.84" class="cls-1"/><circle id="circle1527" cx="352" cy="295" r="5.52" class="cls-31" style="stroke-width:1.99999"/><path id="line1529" d="m352 295 27.84-27.84" class="cls-1"/><path id="polyline1531" d="M185.42 133.58v4.5h4.5" class="cls-1" transform="scale(2)"/><path id="polyline1533" d="M187.5 131.5v4.5h4.5" class="cls-1" transform="scale(2)"/><circle id="circle1535" cx="302" cy="335.5" r="6.5" class="cls-21"/><circle id="circle1537" cx="302" cy="391" r="6.5" class="cls-21"/><circle id="circle1539" cx="100.26" cy="357.74" r="26.46" class="cls-20"/><path id="polygon1541" d="M58.95 217.52H41.31l4.41-15.96 4.41-15.96 4.41 15.96z" style="fill:#bb9ad8;fill-rule:evenodd" transform="scale(2)"/><path id="path1543" d="m119.2 434.68-8.82-31.92-8.82-31.92a1.35 1.35 0 0 0-2.6 0l-8.82 31.92-1.26 4.58-.2.12.1.18-.56 2.06-.04.06-6.86 24.84c.18-.52.68-.88 1.26-.88l-1.26.88q-.09.21-.08.46c0 .74.6 1.36 1.36 1.36h35.28q.18 0 .36-.06c.72-.2 1.14-.94.94-1.66zm-6.44-13.2-21.02-12.74 14.98-9.08 1.06 3.82zm-12.5-45.22 5.28 19.08-9.04-5.48zm-7.52 27.22 3.02-10.92 8.76 5.3-12.28 7.44zm-2.14 7.72 20.92 12.68-15.94 9.66.1.16H84.4l6.22-22.48zm9.92 22.48 13.38-8.1 2.24 8.1z" style="fill:#7836b2;fill-rule:evenodd;stroke-width:1.99999"/><circle id="circle1545" cx="100.26" cy="357.74" r="17.98" class="cls-19"/><path id="path1547" d="M109.32 360.06v-3.3l-2.74-.22a7 7 0 0 0-.48-1.24l1.84-2.18-2.34-2.34-2.1 1.78a6 6 0 0 0-1.22-.54l-.24-2.84h-3.3l-.22 2.74q-.65.18-1.24.48l-2.18-1.84-2.34 2.34 1.78 2.1q-.33.56-.54 1.22l-2.84.24v3.3l2.74.22q.18.65.48 1.24l-1.84 2.18 2.34 2.34 2.1-1.78q.56.33 1.22.54l.24 2.84h3.3l.22-2.74q.65-.18 1.24-.48l2.18 1.84 2.34-2.34-1.78-2.1q.33-.56.54-1.22zm-9.06 1.36a3.17 3.17 0 0 1 0-6.32 3.17 3.17 0 0 1 0 6.32" class="cls-31" style="stroke-width:1.99999"/><path id="path1549" d="M161.66 194.66s-2 7.34-1.66 9.34l4.5-4.5" class="cls-3"/><path id="path1551" d="M155.66 171.1a72 72 0 0 0-3.48 15.16l-4.3 3.06a5.32 5.32 0 0 0-.68 8.16L182.72 233a5.34 5.34 0 0 0 8.16-.68l4.58-6.44 35.18-14.4 10.56 8.14q.4.3.9.24l3.66-.48c.32-.04.62-.2.82-.46q.3-.4.24-.9l-1.58-12.2-.04-.12v-.12l-1.58-12.2a1.24 1.24 0 0 0-1.38-1.06l-3.66.48c-.32.04-.62.2-.82.46l-8.4 10.9-22.14 5.16 14.62-20.52a5.3 5.3 0 0 0 0-6.2l2.5-3.9c.32-.48.24-1.12-.16-1.52l-10.6-10.62-10.62-10.62c-.4-.4-1.04-.48-1.52-.16l-3.9 2.5a5.4 5.4 0 0 0-6.2 0l-.54.38-4.36-3.72c-2.84-2.42-7.82-2.88-11.52-3.04" class="cls-19"/><path id="line1553" d="m229.38 204.18 1.26 7.3" class="cls-3"/><path id="line1555" d="m197.58 158.32 24.3 24.3" class="cls-3"/><path id="rect1557" d="M213.25-6.32h20.26V9.92h-20.26z" class="cls-28" style="stroke-width:2" transform="rotate(45)"/><path id="path1559" d="M171.42 178.76c0-.94-.4-1.8-1.04-2.42l-9.84-9.62c-.62-.62-1.5-1-2.44-.98-.94 0-1.8.4-2.42 1.04s-1 1.5-.98 2.44c0 .94.4 1.8 1.04 2.42l9.84 9.62c.62.62 1.5 1 2.44.98.94 0 1.8-.4 2.42-1.04s1-1.5.98-2.44z" class="cls-20"/><path id="path1561" d="m160.56 166.72 9.84 9.62c.62.62 1.5 1 2.44.98.94 0 1.8-.4 2.42-1.04s1-1.5.98-2.44c0-.94-.4-1.8-1.04-2.42l-7.38-7.22" class="cls-20"/><path id="path1563" d="m167.82 164.2 7.38 7.22c.62.62 1.5 1 2.44.98.94 0 1.8-.4 2.42-1.04s1-1.5.98-2.44c0-.94-.4-1.8-1.04-2.42l-7.38-7.22" class="cls-20"/><path id="path1565" d="m172.62 159.28 7.38 7.22c.62.62 1.5 1 2.44.98.94 0 1.8-.4 2.42-1.04s1-1.5.98-2.44c0-.94-.4-1.8-1.04-2.42l-9.84-9.62" class="cls-20"/><path id="path1567" d="m155.74 171.64-19.24-18.82 14.42-14.74c2.14 2.1 5.1 3.38 8.34 3.34a11.7 11.7 0 0 1 8.34 3.34l7.38 7.22a3.45 3.45 0 0 1 .06 4.86l-9.62 9.84-2.46-2.4a3.5 3.5 0 0 1-1.04-2.42c-.02-.94.36-1.82.98-2.44l4.8-4.92a13.76 13.76 0 0 1-19.44.22" class="cls-20"/><circle id="circle1569" cx="186" cy="193.5" r="14" class="cls-31" style="stroke-width:1.99999"/><path id="j-green-03" d="M182.36 190.04v-.38c0-1.18.66-2.22 1.64-2.76a1.88 1.88 0 1 1 3.12.1 3.2 3.2 0 0 1 1.48 2.66v.16h-1.96v-.16a1.16 1.16 0 0 0-2.32 0v4.42h-1.96z" class="cls-28" style="stroke-width:1.99999"/><path id="j-yellow" d="M184.56 190.04h4.42c1.18 0 2.22.66 2.74 1.62a1.9 1.9 0 0 1 2.48 2.84c-.68.68-1.74.74-2.48.16a3.2 3.2 0 0 1-2.74 1.62h-.16v-1.96h.16a1.16 1.16 0 0 0 0-2.32h-4.42z" class="cls-28" style="stroke-width:1.99999"/><path id="j-red" d="M184.04 199.44a3.1 3.1 0 0 1-1.66-2.76v-.16h1.96v.16a1.16 1.16 0 0 0 2.32 0v-4.42h1.96v4.42c0 1.14-.6 2.12-1.5 2.68.56.74.5 1.8-.18 2.46-.74.74-1.94.74-2.66 0a1.9 1.9 0 0 1-.24-2.38" class="cls-28" style="stroke-width:1.99999"/><path id="j-blue" d="M186.42 196.28H182a3.1 3.1 0 0 1-2.68-1.52c-.72.46-1.7.36-2.34-.26a1.89 1.89 0 0 1 2.32-2.94 3.1 3.1 0 0 1 2.68-1.54h.16v1.96h-.16a1.16 1.16 0 0 0 0 2.32h4.42v1.96z" class="cls-28" style="stroke-width:1.99999"/><path id="rect1575" d="M-17.33 191.05h31.5v13.5h-31.5z" style="stroke:#7836b2;stroke-linejoin:round;stroke-width:1.5px;fill:#bb9ad8" transform="rotate(-45)"/><circle id="circle1577" cx="145.34" cy="134.24" r="2.34" class="cls-31" style="stroke-width:1.99999"/><path id="path1579" d="M260.14 227.76a5.4 5.4 0 1 1-10.8-.16c.04-2.1 3.46-7.54 4.98-10.04.24-.38.8-.38 1.02 0 1.34 2.32 4.82 8.56 4.8 10.2" class="cls-31" style="stroke-width:1.99999"/><path id="path1581" d="M244.82 238.42a3.08 3.08 0 0 1-6.16-.12c0-1.2 1.96-4.3 2.84-5.72.14-.22.46-.22.58 0 .76 1.32 2.74 4.88 2.74 5.82z" class="cls-31" style="stroke-width:1.99999"/><path id="path1583" d="M248.62 256.9a3.08 3.08 0 0 1-6.16-.12c0-1.2 1.96-4.3 2.84-5.72.14-.22.46-.22.58 0 .76 1.32 2.74 4.88 2.74 5.82z" class="cls-31" style="stroke-width:1.99999"/><path id="path1585" d="M260.84 247.58a4.74 4.74 0 0 1-8.18 3.24 4.8 4.8 0 0 1-1.34-3.4c.02-1.84 3.04-6.66 4.4-8.86.2-.34.7-.34.9 0 1.18 2.04 4.26 7.56 4.24 9z" class="cls-31" style="stroke-width:1.99999"/><path id="path1587" d="M127.72 435.66a16 16 0 1 1 32 0" class="cls-7"/><path id="path1589" d="M74.72 435.66h53" class="cls-7"/><path id="path1591" d="M159.72 435.66H513" class="cls-7"/></svg>