<svg xmlns="http://www.w3.org/2000/svg" id="world-security" width="600" height="600" viewBox="0 0 600 600"><defs id="defs3050"><style id="style3048">.cls-1,.cls-11,.cls-12,.cls-14,.cls-15,.cls-17,.cls-2,.cls-3,.cls-4,.cls-5,.cls-9{stroke:#7836b2}.cls-1,.cls-11,.cls-14,.cls-15,.cls-17,.cls-2,.cls-3,.cls-4,.cls-5,.cls-9{stroke-linecap:round}.cls-1,.cls-11,.cls-14,.cls-15,.cls-17,.cls-2,.cls-3,.cls-4{stroke-linejoin:round}.cls-1,.cls-12,.cls-19,.cls-3,.cls-5,.cls-9{fill:none}.cls-1,.cls-11,.cls-14,.cls-15,.cls-5{stroke-width:1.5px}.cls-14,.cls-2,.cls-21,.cls-4{fill:#fff}.cls-4{stroke-width:1.2px}.cls-15,.cls-17,.cls-22{fill:#bb9ad8}.cls-11,.cls-23{fill:#7836b2}.cls-12,.cls-19,.cls-5,.cls-9{stroke-miterlimit:10}.cls-9{stroke-width:.5px}.cls-19{stroke:#bb9ad8}.cls-17{stroke-width:1.44px}</style></defs><circle id="circle3052" cx="293.4" cy="308.24" r="211.22" style="fill:#e3e0e0;opacity:.5;stroke-width:1.99999"/><path id="path3054" d="M550.46 266.86h-11.92a4.14 4.14 0 0 1-4.12-4.12 4.14 4.14 0 0 1 4.12-4.12h21.6c2.56-.4 4.78-2.22 5.26-4.8a6.02 6.02 0 0 0-5.9-7.12h-79.88a4.14 4.14 0 0 1-4.12-4.12 4.14 4.14 0 0 1 4.12-4.12h.96q.45-.12.94-.12h37.04c2.1 0 3.82-1.52 3.82-3.38 0-1.64 1.34-3.02 3.1-3.32h16.2c3.3 0 6-2.7 6-6s-2.7-6-6-6H374.84c-3.3 0-6 2.7-6 6s2.7 6 6 6h16.18c1.76.3 3.1 1.68 3.1 3.32 0 1.86 1.72 3.38 3.82 3.38l43.68.12a4.14 4.14 0 0 1 4.12 4.12 4.14 4.14 0 0 1-4.12 4.12h-8.16c-2.96 0-5.72 1.98-6.26 4.88a6.02 6.02 0 0 0 5.9 7.12h32.34c1.02.12 2.3.06 3.5.24h15.94a4.14 4.14 0 0 1 4.12 4.12 4.14 4.14 0 0 1-4.12 4.12h-22.26a5.9 5.9 0 0 0-3.58 4.3 6.02 6.02 0 0 0 5.9 7.12h83.54c2.96 0 5.72-1.98 6.26-4.88a6 6 0 0 0-4.28-6.86" class="cls-21" style="stroke-width:1.99999"/><path id="path3056" d="M448.66 166.96h-39.88l-.08-.08h-.06a4.14 4.14 0 0 1-4.12-4.12v-2.04a4.14 4.14 0 0 1 4.12-4.12h52.7c2.82 0 5.12-2.04 5.12-4.54s2.3-4.54 5.12-4.54h18.38a5.36 5.36 0 0 0 5.38-5.4c0-2.96-2.42-5.4-5.4-5.4H271a5.42 5.42 0 0 0-3.82 9.22 5.4 5.4 0 0 0 3.8 1.58h18.38c2.82 0 5.12 2.04 5.12 4.54s2.3 4.54 5.12 4.54h72.7a4.16 4.16 0 0 1 4.12 4.14v2.04a4.14 4.14 0 0 1-4.12 4.12l-110.66.08a8.5 8.5 0 0 0-8.5 8.5c0 4.68 3.82 8.5 8.5 8.5h187c4.68 0 8.5-3.82 8.5-8.5s-3.82-8.5-8.5-8.5z" class="cls-22" style="stroke-width:1.99999"/><path id="path3058" d="m196.26 250.2-7.26-.24a5.7 5.7 0 0 1-5.66-5.66v-.44a5.7 5.7 0 0 1 5.66-5.66h18.74a6.1 6.1 0 0 0 5.06-4.78 6.02 6.02 0 0 0-5.9-7.12H80.86c-2.96 0-5.72 1.98-6.26 4.88a6 6 0 0 0 4.88 7h49.24a5.7 5.7 0 0 1 5.66 5.66v.44a5.7 5.7 0 0 1-5.66 5.66l-16.02.24c-2.96 0-5.72 1.98-6.26 4.88a6.02 6.02 0 0 0 5.9 7.12h83.54c2.96 0 5.72-1.98 6.26-4.88a6.02 6.02 0 0 0-5.9-7.12z" class="cls-21" style="stroke-width:1.99999"/><rect id="rect3060" width="47.02" height="11.34" x="52.34" y="250.86" class="cls-21" rx="5.66" ry="5.66" style="stroke-width:1.99999"/><circle id="circle3062" cx="216" cy="160.66" r="2.94" style="stroke:#7836b2;stroke-linecap:round;fill:none;stroke-miterlimit:10;stroke-width:.41px"/><circle id="circle3064" cx="132.84" cy="137.96" r="3.68" class="cls-19" style="stroke-width:1.99999"/><circle id="circle3066" cx="123.42" cy="176.58" r="2.4" class="cls-12" style="stroke-width:1.99999"/><circle id="circle3068" cx="228.4" cy="212.66" r="2.4" class="cls-22" style="stroke-width:1.99999"/><circle id="circle3070" cx="165.34" cy="169.6" r="2.4" class="cls-23" style="stroke-width:1.99999"/><path id="line3072" d="M85.72 137.96v5.48" class="cls-9"/><path id="line3074" d="M88.46 140.7H83" class="cls-9"/><path id="line3076" d="M88.94 278.72v5.46" class="cls-9"/><path id="line3078" d="M91.66 281.44H86.2" class="cls-9"/><circle id="circle3080" cx="142.66" cy="296.18" r="3.68" class="cls-19" style="stroke-width:1.99999"/><circle id="circle3082" cx="88.68" cy="316.82" r="2.4" class="cls-12" style="stroke-width:1.99999"/><circle id="circle3084" cx="179.7" cy="272.38" r="2.4" class="cls-23" style="stroke-width:1.99999"/><circle id="circle3086" cx="226.66" cy="179.34" r="3.68" style="fill:none;stroke-miterlimit:10;stroke:#fff;stroke-width:1.99999"/><circle id="circle3088" cx="191.34" cy="197.6" r="2.4" class="cls-21" style="stroke-width:1.99999"/><circle id="circle3090" cx="494.74" cy="216.4" r="2.94" style="stroke-linecap:round;fill:none;stroke-miterlimit:10;stroke-width:.5px;stroke:#bb9ad8"/><circle id="circle3092" cx="369.6" cy="194" r="2.4" class="cls-12" style="stroke-width:1.99999"/><circle id="circle3094" cx="519.9" cy="327.28" r="2.4" class="cls-22" style="stroke-width:1.99999"/><circle id="circle3096" cx="430.5" cy="212" r="2.4" class="cls-21" style="stroke-width:1.99999"/><path id="line3098" d="M469.64 247.52v5.46" class="cls-9"/><path id="line3100" d="M472.36 250.26h-5.46" class="cls-9"/><path id="polyline3102" d="M59.17 130.17V185h11.16" class="cls-1" transform="scale(2)"/><path id="path3104" d="M118.32 341.92c-5.2 0-5.2-5.28-5.2-5.28v-40.68h10.48v40.68s-.06 5.28-5.26 5.28z" style="stroke:#7836b2;stroke-width:1.5px;fill:#bb9ad8;stroke-miterlimit:10"/><path id="path3106" d="M119.42 330.7a1.58 1.58 0 1 1-2.24-2.23 1.58 1.58 0 0 1 2.24 2.23" class="cls-23" style="stroke-width:1.99999"/><path id="path3108" d="M88.3 232.96a30.04 30.04 0 1 1 60.08 0 30.04 30.04 0 0 1-60.08 0z" style="stroke:#7836b2;stroke-linejoin:round;fill:#bb9ad8;stroke-width:1.71px"/><path id="path3110" d="M95.68 232.96a22.63 22.63 0 1 1 45.26.02 22.63 22.63 0 0 1-45.26-.04z" class="cls-21" style="stroke-width:1.99999"/><path id="rect3112" d="M321.54 281h59v156.5h-59z" class="cls-15"/><path id="path3114" d="M100.58 413.2a1.5 1.5 0 0 0-2.1.2l-2.54 3.1a1.48 1.48 0 0 1-2.62-.86v-4.94q.01-.49.32-.88l7.14-8.72a1.5 1.5 0 0 0-.2-2.1 1.5 1.5 0 0 0-2.1.2l-2.54 3.1a1.48 1.48 0 0 1-2.62-.86v-6.7c0-.82-.68-1.5-1.5-1.5s-1.5.68-1.5 1.5v6.7c-.06 1.34-1.76 1.94-2.62.88l-2.54-3.1a1.5 1.5 0 1 0-2.3 1.9l7.14 8.72q.31.38.32.88v4.92c-.06 1.34-1.76 1.94-2.62.88l-2.54-3.1a1.5 1.5 0 1 0-2.3 1.9l7.14 8.72q.31.4.32.88v12.56a1.48 1.48 0 1 0 2.96 0v-12.54q.01-.48.32-.88l7.14-8.72a1.5 1.5 0 0 0-.2-2.1z" class="cls-23" style="stroke-width:1.99999"/><path id="path3116" d="m503.04 394.82 7.14-8.72a1.5 1.5 0 0 0-.2-2.1 1.5 1.5 0 0 0-2.1.2l-2.54 3.1a1.48 1.48 0 0 1-2.62-.86v-4.94q.01-.48.32-.88l7.14-8.72a1.5 1.5 0 0 0-.2-2.1 1.5 1.5 0 0 0-2.1.2l-2.54 3.1a1.48 1.48 0 0 1-2.62-.86v-6.7c0-.82-.68-1.5-1.5-1.5s-1.5.68-1.5 1.5v6.7c-.06 1.34-1.76 1.94-2.62.88l-2.54-3.1a1.5 1.5 0 1 0-2.3 1.9l7.14 8.72q.31.38.32.88v4.92c-.06 1.34-1.76 1.94-2.62.88l-2.54-3.1a1.5 1.5 0 1 0-2.3 1.9l7.14 8.72q.31.4.32.88v4.54c-.06 1.34-1.76 1.94-2.62.88l-2.54-3.1a1.5 1.5 0 1 0-2.3 1.9l7.14 8.72c.2.24.32.56.32.88v4.92c-.06 1.34-1.76 1.94-2.62.88l-2.54-3.1a1.5 1.5 0 1 0-2.3 1.9l7.14 8.72q.31.4.32.88v12.56a1.48 1.48 0 1 0 2.96 0v-12.54q.01-.49.32-.88l7.14-8.72a1.5 1.5 0 0 0-.2-2.1 1.5 1.5 0 0 0-2.1.2l-2.54 3.1a1.48 1.48 0 0 1-2.62-.86v-4.94q.01-.49.32-.88l7.14-8.72a1.5 1.5 0 0 0-.2-2.1 1.5 1.5 0 0 0-2.1.2l-2.54 3.1a1.48 1.48 0 0 1-2.62-.86v-4.56q.01-.49.32-.88z" class="cls-23" style="stroke-width:1.99999"/><path id="path3118" d="M225.86 488.96c-2.8 0-6.68-.72-9.64-2.68-2.96 1.96-6.84 2.68-9.64 2.68s-6.68-.72-9.64-2.68c-2.96 1.96-6.84 2.68-9.64 2.68s-6.68-.72-9.64-2.68c-2.96 1.96-6.84 2.68-9.64 2.68s-6.68-.72-9.64-2.68c-2.96 1.96-6.84 2.68-9.64 2.68-1.12 0-2.2-.08-3.4-.28l.38-2.46c1.08.16 2.04.24 3.02.24 2.5 0 6.34-.7 8.88-2.7l.78-.6.78.6c2.54 2 6.36 2.7 8.88 2.7s6.34-.7 8.88-2.7l.78-.6.78.6c2.54 2 6.36 2.7 8.88 2.7s6.34-.7 8.88-2.7l.78-.6.78.6c2.54 2 6.36 2.7 8.88 2.7s6.34-.7 8.88-2.7l.78-.6.78.6c2.54 2 6.36 2.7 8.88 2.7q1.55 0 2.8-.44l.82 2.36q-1.66.59-3.62.58z" class="cls-23" style="stroke-width:1.99999"/><path id="path3120" d="M304.58 471.18q-1.25.44-2.8.44c-2.5 0-6.34-.7-8.88-2.7l-.78-.6-.78.6c-2.54 2-6.36 2.7-8.88 2.7s-6.34-.7-8.88-2.7l-.78-.6-.78.6a13 13 0 0 1-5.48 2.34v-.08q-.54.17-1.08.26-1.1.16-2.04.16c-2.5-.04-6.14-.78-8.58-2.7l-.78-.6-.28.22-.28-.22-.78.6c-2.44 1.92-6.08 2.66-8.58 2.7-2.5-.04-6.14-.78-8.58-2.7l-.78-.6-.28.22-.28-.22-.78.6c-2.44 1.92-6.08 2.66-8.58 2.7-2.5-.04-6.14-.78-8.58-2.7l-.78-.6-.78.6c-2.54 2-6.36 2.7-8.88 2.7s-6.34-.7-8.88-2.7l-.78-.6-.78.6c-2.54 2-6.36 2.7-8.88 2.7-.98 0-1.94-.08-3.02-.24l-.38 2.46c1.2.18 2.28.28 3.4.28 2.8 0 6.68-.72 9.64-2.68 2.96 1.96 6.84 2.68 9.64 2.68s6.68-.72 9.64-2.68a16 16 0 0 0 5.7 2.26v.16a22 22 0 0 0 3.38.28h.56c2.7 0 6.44-.68 9.36-2.52 2.92 1.84 6.64 2.52 9.36 2.52h.56c2.7 0 6.42-.68 9.36-2.52 2.92 1.84 6.66 2.52 9.36 2.52h.56q.2 0 .4-.04.24 0 .48-.04c.44-.04.86-.06 1.28-.14a17 17 0 0 0 6.92-2.48c2.96 1.96 6.84 2.68 9.64 2.68s6.68-.72 9.64-2.68c2.96 1.96 6.84 2.68 9.64 2.68q1.96 0 3.62-.58l-.82-2.36z" class="cls-23" style="stroke-width:1.99999"/><path id="path3122" d="M517.78 298.2q-.69.01-1.32.3L466 312.14v-1.56h-.1c0-8.78-7.14-15.92-15.92-15.92a15.94 15.94 0 0 0-15.92 15.92v16.56l-1.82 21.12-1.72 20.1-1.72 20.12-.78 9.04h-9.28v2.72h62.68v-2.72h-9.26l-1.7-19.7-1.64-19.18-1.64-19.18-1.06-12.36c0-.14-.06-.24-.1-.36v-1.42l50.5 13.14q.6.26 1.26.28c4.74 0 7.22-10.18 7.22-20.26s-2.48-20.26-7.22-20.26zm-66.44 17.9v-4.16h11.94v.92l-11.94 3.22zm-18.18 53.44 33.08-9.06 1.42 16.42-35.98 9.86zm30.34-41 .86 9.98-29.22 8 1.54-17.98zm-26.7-2.72v-13.88h11.82v13.88zm13.18-28.42a13.2 13.2 0 0 1 13.12 11.82h-26.24a13.2 13.2 0 0 1 13.12-11.82m13.3 28.42h-11.94v-4.36l11.94 3.1z" class="cls-23" style="stroke-width:1.99999"/><path id="polygon3124" d="m233 178.86-16.29 4.46.74-8.6 14.85-4.07z" class="cls-22" transform="scale(2)"/><path id="polygon3126" d="m215.38 198.76.34-3.93 18.23-4.99.76 8.92z" class="cls-22" transform="scale(2)"/><path id="path3128" d="m451.88 318.78 61.4-16.6c-1.04 2.22-1.74 5.2-2.18 8.42l-.1.68-.12 1.08-.1 1.08-.06.88q-.05.68-.08 1.4 0 .33-.04.66-.04 1.03-.04 2.08-.01 1.04.04 2.08 0 .35.04.7a28 28 0 0 0 .16 2.28q.03.51.1 1l.12 1.16q.02.27.08.56c.44 3.26 1.16 6.3 2.22 8.54L451.9 318.8Z" class="cls-21" style="stroke-width:1.99999"/><path id="path3130" d="M517.78 335.98s-.18-.02-.28-.06l-.02-.02a2 2 0 0 1-.72-.64q-.15-.18-.3-.42c-.72-1.12-1.5-3.06-2.1-5.76l-.24-1.22v-.02q-.24-1.31-.42-2.8v-.06l-.14-1.38-.02-.3-.1-1.26q0-.35-.04-.7l-.04-1-.04-1.86q-.01-.96.04-1.86 0-.53.04-1.06-.01-.32.04-.64.03-.7.1-1.36v-.16c.24-2.68.66-5.02 1.16-6.96.52-1.94 1.14-3.4 1.72-4.32l.22-.32.08-.12q.37-.45.74-.66l.04-.04q.15-.06.28-.06c1.52 0 4.48 6.18 4.48 17.52s-2.96 17.52-4.48 17.52z" class="cls-21" style="stroke-width:1.99999"/><path id="rect3132" d="M417.4 399.06h65.48v38.22H417.4z" class="cls-15"/><path id="path3134" d="M456.36 417.12a6.24 6.24 0 1 0-10.8 4.24l-.96 15.9h11.02l-.96-15.9a6.2 6.2 0 0 0 1.68-4.24z" class="cls-14"/><path id="path3136" d="M367.8 510.7c7.2-1.38 14.98-7.46 17.04-16.62.12-.58.12-1.2-.24-1.66a2.6 2.6 0 0 0-1.78-.88h-9.42l-4.18 6.28h-28.24l-2.1-6.28h-2.1a2.23 2.23 0 0 0-2.1 2.1v5.8c0 5.34 3.3 8.94 6.42 10.58" style="stroke:#7836b2;fill:#bb9ad8;stroke-miterlimit:10;stroke-width:1.99999"/><path id="path3138" d="M376.76 496.66c-.92 0-1.68.76-1.68 1.68s.76 1.68 1.68 1.68 1.68-.76 1.68-1.68-.76-1.68-1.68-1.68" class="cls-21" style="stroke-width:1.99999"/><path id="path3140" d="M380.02 511.78a11.3 11.3 0 0 1-5.8-1.58 11.5 11.5 0 0 1-11.6 0 11.5 11.5 0 0 1-11.6 0 11.5 11.5 0 0 1-11.6 0 11.5 11.5 0 0 1-5.8 1.58c-.68 0-1.34-.06-2.08-.16l.3-1.92c.64.1 1.2.14 1.78.14 1.46 0 3.72-.42 5.18-1.58l.6-.48.6.48c1.48 1.16 3.72 1.58 5.18 1.58s3.7-.42 5.18-1.58l.6-.48.6.48c1.48 1.16 3.72 1.58 5.18 1.58s3.7-.42 5.18-1.58l.6-.48.6.48c1.48 1.16 3.72 1.58 5.18 1.58s3.7-.42 5.18-1.58l.6-.48.6.48c1.48 1.16 3.72 1.58 5.18 1.58q.89 0 1.6-.26l.64 1.84q-1.04.36-2.26.36z" class="cls-23" style="stroke-width:1.99999"/><path id="path3142" d="M344.3 476.16a2.99 2.99 0 0 1 0-5.96 2.99 2.99 0 0 1 0 5.96m0-4.4c-.78 0-1.42.64-1.42 1.42s.64 1.42 1.42 1.42 1.42-.64 1.42-1.42-.64-1.42-1.42-1.42" class="cls-23" style="stroke-width:1.99999"/><path id="path3144" d="M326.22 473.08a2.99 2.99 0 0 1 0-5.96 2.99 2.99 0 0 1 0 5.96m0-4.4c-.78 0-1.42.64-1.42 1.42s.64 1.42 1.42 1.42 1.42-.64 1.42-1.42-.64-1.42-1.42-1.42" class="cls-23" style="stroke-width:1.99999"/><path id="path3146" d="M337.52 462.36a2.99 2.99 0 0 1 0-5.96 2.99 2.99 0 0 1 0 5.96m0-4.4c-.78 0-1.42.64-1.42 1.42s.64 1.42 1.42 1.42 1.42-.64 1.42-1.42-.64-1.42-1.42-1.42" class="cls-23" style="stroke-width:1.99999"/><path id="polyline3148" d="m169.45 245.77 1.55-2.44h14.33l1.18 2.24" class="cls-3" transform="scale(2)"/><path id="polyline3150" d="M171 243.33v-3.5h1.33l2.67 3.42" class="cls-3" transform="scale(2)"/><path id="line3152" d="M377 490.92v-11.26" class="cls-3" style="stroke-width:1.99999"/><path id="rect3154" d="M377 470.6h13.74v11.52H377z" class="cls-2" style="stroke-width:1.99999"/><path id="line3156" d="M339.58 491.76h32.84" class="cls-2" style="stroke-width:1.99999"/><path id="line3158" d="M380.38 416.5H417" class="cls-15"/><path id="line3160" d="M380.38 424.5H417" class="cls-15"/><path id="line3162" d="M389.76 417v6.5" class="cls-15"/><path id="line3164" d="M396 417v6.5" class="cls-15"/><path id="line3166" d="M402.24 417v6.5" class="cls-15"/><path id="line3168" d="M408.5 417v6.5" class="cls-15"/><circle id="circle3170" cx="351.04" cy="407.24" r="17" class="cls-14"/><path id="path3172" d="M359.18 414.24h-16.42c-.58 0-1.12-.3-1.42-.82-.3-.5-.3-1.12 0-1.62l8.2-14.3c.3-.52.82-.82 1.42-.82s1.12.3 1.42.82l8.2 14.3c.3.52.3 1.12 0 1.62s-.82.82-1.42.82z" class="cls-23" style="stroke-width:1.99999"/><path id="path3174" d="M350.98 408.74a.7.7 0 0 1-.7-.7v-4.74c0-.4.32-.7.7-.7s.7.32.7.7v4.74c0 .4-.32.7-.7.7" class="cls-21" style="stroke-width:1.99999"/><circle id="circle3176" cx="350.98" cy="410.44" r=".76" class="cls-21" style="stroke-width:1.99999"/><circle id="circle3178" cx="351.04" cy="311.44" r="17" class="cls-15"/><circle id="circle3180" cx="351.04" cy="359.94" r="17" class="cls-11"/><g id="_3" transform="scale(2)"><path id="path3182" d="M172.01 185.84c-.72 0-1.39-.33-1.85-.9-.45-.57-.61-1.3-.45-2l.21-.91.07-.35a.2.2 0 0 1 .18-.16.2.2 0 0 1 .2.13 5.4 5.4 0 0 0 3.47 3.47.2.2 0 0 1 .13.2q-.01.14-.16.18l-.35.07-.91.21q-.27.06-.54.06m-1.77-3.47-.15.65c-.14.59 0 1.2.38 1.68a2 2 0 0 0 1.99.7l.65-.15a6 6 0 0 1-2.88-2.88z" class="cls-21"/><path id="path3184" d="M170.18 178.43q-.14-.01-.18-.16l-.07-.35-.21-.91a2.36 2.36 0 0 1 2.84-2.84l.91.21.35.07a.2.2 0 0 1 .16.18.2.2 0 0 1-.13.2 5.4 5.4 0 0 0-3.47 3.47.2.2 0 0 1-.18.13zm1.82-3.94a1.98 1.98 0 0 0-1.92 2.43l.15.65a6 6 0 0 1 2.88-2.88l-.65-.15a2 2 0 0 0-.45-.05z" class="cls-21"/><path id="path3186" d="M175.52 183.64a3.68 3.68 0 0 1 0-7.34 3.68 3.68 0 0 1 0 7.34m0-6.95a3.28 3.28 0 1 0 0 6.56 3.28 3.28 0 0 0 0-6.56" class="cls-21"/><path id="path3188" d="M179.03 185.84q-.27 0-.54-.06l-.91-.21-.35-.07a.2.2 0 0 1-.16-.18.2.2 0 0 1 .13-.2 5.4 5.4 0 0 0 3.47-3.47.2.2 0 0 1 .2-.13q.14.01.18.16l.07.35.21.91a2.36 2.36 0 0 1-2.3 2.9m-1.1-.59.65.15q.23.05.45.05a1.98 1.98 0 0 0 1.92-2.43l-.15-.65a6 6 0 0 1-2.88 2.88z" class="cls-21"/><path id="path3190" d="M180.85 178.42q-.14 0-.18-.13a5.4 5.4 0 0 0-3.47-3.47.2.2 0 0 1-.13-.2q.01-.14.16-.18l.35-.07.91-.21q.27-.06.54-.06c.72 0 1.39.33 1.85.9.45.57.61 1.3.45 2l-.21.91-.07.35a.2.2 0 0 1-.18.16zm-2.93-3.73a6 6 0 0 1 2.88 2.88l.15-.65c.14-.59 0-1.2-.38-1.68a2 2 0 0 0-1.99-.7z" class="cls-21"/><path id="path3192" d="M169.91 181.02a.9.9 0 0 1-.89-.89v-.32c0-.49.4-.89.89-.89.11 0 .19.09.19.19a.2.2 0 0 1-.19.19.5.5 0 0 0-.51.51v.32c0 .28.23.51.51.51q.18.02.19.19a.2.2 0 0 1-.19.19" class="cls-21"/><path id="path3194" d="M181.13 181.02a.2.2 0 0 1-.19-.19c0-.1.09-.19.19-.19.28 0 .51-.23.51-.51v-.32a.5.5 0 0 0-.51-.51.2.2 0 0 1-.19-.19c0-.1.09-.19.19-.19.49 0 .89.4.89.89v.32a.9.9 0 0 1-.89.89" class="cls-21"/><path id="path3196" d="M176.38 174.56a.2.2 0 0 1-.19-.19.5.5 0 0 0-.51-.51h-.32a.5.5 0 0 0-.51.51q-.02.18-.19.19a.2.2 0 0 1-.19-.19c0-.49.4-.89.89-.89h.32c.49 0 .89.4.89.89 0 .11-.09.19-.19.19" class="cls-21"/><path id="path3198" d="M175.68 186.47h-.32a.9.9 0 0 1-.89-.89q.02-.18.19-.19.17.02.19.19c0 .28.23.51.51.51h.32c.28 0 .51-.23.51-.51 0-.11.09-.19.19-.19s.19.09.19.19a.9.9 0 0 1-.89.89" class="cls-21"/><path id="path3200" d="M170.18 181.91q-.13 0-.18-.13a5.8 5.8 0 0 1 0-3.6c.03-.1.14-.16.24-.12.1.03.16.14.12.24a5.3 5.3 0 0 0 0 3.36c.03.1-.02.21-.12.24z" class="cls-21"/><path id="path3202" d="M175.52 185.78q-.93 0-1.8-.28a.2.2 0 0 1-.12-.24c.03-.1.14-.16.24-.12a5.3 5.3 0 0 0 3.36 0c.1-.03.21.02.24.12s-.02.21-.12.24q-.88.28-1.8.28" class="cls-21"/><path id="path3204" d="M177.26 174.83h-.06a5.3 5.3 0 0 0-3.36 0c-.1.03-.21-.02-.24-.12s.02-.21.12-.24a5.8 5.8 0 0 1 3.6 0c.1.03.16.14.12.24a.2.2 0 0 1-.18.13z" class="cls-21"/><path id="path3206" d="M175.52 183.64a3.68 3.68 0 0 1 0-7.34 3.68 3.68 0 0 1 0 7.34m0-6.95a3.28 3.28 0 1 0 0 6.56 3.28 3.28 0 0 0 0-6.56" class="cls-21"/><path id="path3208" d="M180.85 181.91h-.06a.2.2 0 0 1-.12-.24 5.3 5.3 0 0 0 0-3.36c-.03-.1.02-.21.12-.24s.21.02.24.12a5.8 5.8 0 0 1 0 3.6.2.2 0 0 1-.18.13z" class="cls-21"/><path id="path3210" d="M175.52 183.64a3.68 3.68 0 0 1 0-7.34 3.68 3.68 0 0 1 0 7.34m0-6.95a3.28 3.28 0 1 0 0 6.56 3.28 3.28 0 0 0 0-6.56" class="cls-21"/><path id="path3212" d="M173.62 177.14s-.1-.02-.14-.06l-1.43-1.43c-.08-.08-.08-.2 0-.27s.2-.08.27 0l1.43 1.43c.08.08.08.2 0 .27a.2.2 0 0 1-.14.06z" class="cls-21"/><path id="path3214" d="M172.52 178.25s-.1-.02-.14-.06l-1.43-1.43c-.08-.08-.08-.2 0-.27s.2-.08.27 0l1.43 1.43c.08.08.08.2 0 .27a.2.2 0 0 1-.14.06z" class="cls-21"/><path id="path3216" d="M179.97 183.49s-.1-.02-.14-.06L178.4 182c-.08-.08-.08-.2 0-.27s.2-.08.27 0l1.43 1.43c.08.08.08.2 0 .27a.2.2 0 0 1-.14.06z" class="cls-21"/><path id="path3218" d="M178.87 184.6s-.1-.02-.14-.06l-1.43-1.43c-.08-.08-.08-.2 0-.27s.2-.08.27 0l1.43 1.43c.08.08.08.2 0 .27a.2.2 0 0 1-.14.06z" class="cls-21"/><path id="path3220" d="M178.54 178.25s-.1-.02-.14-.06c-.08-.08-.08-.2 0-.27l1.43-1.43c.08-.08.2-.08.27 0s.08.2 0 .27l-1.43 1.43s-.09.06-.14.06z" class="cls-21"/><path id="path3222" d="M177.43 177.14s-.1-.02-.14-.06c-.08-.08-.08-.2 0-.27l1.43-1.43c.08-.08.2-.08.27 0s.08.2 0 .27l-1.43 1.43s-.09.06-.14.06z" class="cls-21"/><path id="path3224" d="M172.19 184.59s-.1-.02-.14-.06c-.08-.08-.08-.2 0-.27l1.43-1.43c.08-.08.2-.08.27 0s.08.2 0 .27l-1.43 1.43s-.09.06-.14.06z" class="cls-21"/><path id="path3226" d="M171.08 183.49s-.1-.02-.14-.06c-.08-.08-.08-.2 0-.27l1.43-1.43c.08-.08.2-.08.27 0s.08.2 0 .27l-1.43 1.43s-.09.06-.14.06z" class="cls-21"/></g><path id="polyline3229" d="M174.94 151.5v4.75h4.5" class="cls-15" transform="scale(2)"/><g id="_13" transform="scale(2)"><path id="path3231" d="M175.52 119.12a.4.4 0 0 1-.41-.41v-1.94a.4.4 0 0 1 .41-.41.4.4 0 0 1 .41.41v1.94a.4.4 0 0 1-.41.41" class="cls-23"/><path id="path3233" d="M163.81 128.96h-1.94a.4.4 0 0 1-.41-.41.4.4 0 0 1 .41-.41h1.94a.4.4 0 0 1 .41.41.4.4 0 0 1-.41.41" class="cls-23"/><path id="path3235" d="M169.98 120.46a.4.4 0 0 1-.37-.22l-.9-1.72a.41.41 0 0 1 .73-.39l.9 1.72a.41.41 0 0 1-.36.61" class="cls-23"/><path id="path3237" d="M165.85 123.99a.4.4 0 0 1-.26-.09l-1.52-1.21a.4.4 0 0 1-.06-.58.4.4 0 0 1 .58-.06l1.52 1.21c.18.14.21.4.06.58q-.13.15-.32.16z" class="cls-23"/><path id="path3239" d="M189.17 128.96h-1.94a.4.4 0 0 1-.41-.41.4.4 0 0 1 .41-.41h1.94a.4.4 0 0 1 .41.41.4.4 0 0 1-.41.41" class="cls-23"/><path id="path3241" d="M181.06 120.46a.41.41 0 0 1-.36-.61l.9-1.72a.41.41 0 0 1 .73.39l-.9 1.72a.4.4 0 0 1-.37.22" class="cls-23"/><path id="path3243" d="M185.19 123.99a.4.4 0 0 1-.32-.16.4.4 0 0 1 .06-.58l1.52-1.21a.4.4 0 0 1 .58.06c.14.18.11.44-.06.58l-1.52 1.21a.4.4 0 0 1-.26.09z" class="cls-23"/><path id="path3245" d="M183.8 135.53h-16.56a.4.4 0 0 1-.41-.41v-5.18a8.7 8.7 0 0 1 17.38 0v5.18a.4.4 0 0 1-.41.41" class="cls-14"/><path id="path3247" d="M169.69 129.74a5.84 5.84 0 0 1 5.82-5.64h.32" class="cls-1"/></g><path id="path3250" d="M375.02 281h-47.96a.96.96 0 0 1-.96-.96v-4.46a6 6 0 0 1 6-6H370a6 6 0 0 1 6 6v4.46c0 .54-.44.96-.96.96z" class="cls-15"/><path id="path3252" d="M320.54 437.18H141.1v-88.02h179.44z" class="cls-14"/><path id="path3254" d="M325.4 351.82H136.2l9.28-19.12H316.1l9.28 19.12z" class="cls-15"/><path id="path3256" d="M247.12 337.12c-2.24-6.48-8.66-11.16-16.24-11.16s-14 4.68-16.24 11.16z" class="cls-11"/><path id="rect3258" d="M212.34 337.32h37.32v100.14h-37.32z" class="cls-14"/><path id="path3260" d="M207.82 343.2h-60.94l.56-1.64c4.24-12.32 16.26-20.6 29.9-20.6s25.66 8.28 29.9 20.6l.56 1.64z" class="cls-14"/><path id="path3262" d="m193.14 340.9 3.86-3.1-2-3.46-4.62 1.8q-1.07-1.3-2.38-2.38l1.8-4.62-3.46-2-3.1 3.86a16 16 0 0 0-3.24-.86l-.76-4.9h-4l-.76 4.9q-1.68.28-3.24.86l-3.1-3.86-3.46 2 1.8 4.62q-1.3 1.07-2.38 2.38l-4.62-1.8-2 3.46 3.86 3.1a9 9 0 0 0-.64 2.44" class="cls-5"/><path id="path3264" d="M172.76 343a4.5 4.5 0 0 1 9 0" class="cls-23" style="stroke-width:1.99999"/><path id="path3266" d="M315.8 343.2h-60.94l.56-1.64c4.24-12.32 16.26-20.6 29.9-20.6s25.66 8.28 29.9 20.6l.56 1.64z" class="cls-14"/><path id="path3268" d="m301.12 340.9 3.86-3.1-2-3.46-4.62 1.8q-1.07-1.3-2.38-2.38l1.8-4.62-3.46-2-3.1 3.86a16 16 0 0 0-3.24-.86l-.76-4.9h-4l-.76 4.9q-1.68.28-3.24.86l-3.1-3.86-3.46 2 1.8 4.62q-1.3 1.07-2.38 2.38l-4.62-1.8-2 3.46 3.86 3.1a9 9 0 0 0-.64 2.44" class="cls-5"/><path id="path3270" d="M280.74 343a4.5 4.5 0 0 1 9 0" class="cls-23" style="stroke-width:1.99999"/><path id="rect3272" d="M256.28 420.5h56.06v16.84h-56.06z" style="stroke:#7836b2;stroke-linejoin:round;stroke-width:1.5px;fill:#bb9ad8"/><path id="path3274" d="M260.86 419.58h13.22v-6.3l-3.46-1.16-2.26 4.18c-.18.32-.52.52-.88.52s-.7-.2-.88-.52l-2.26-4.18-3.46 1.16v6.3z" class="cls-4"/><path id="path3276" d="M267.48 409.24a5.3 5.3 0 0 1 0-10.6 5.3 5.3 0 0 1 0 10.6" class="cls-4"/><path id="path3278" d="M277.7 419.58h13.22v-6.3l-3.46-1.16-2.26 4.18c-.18.32-.52.52-.88.52s-.7-.2-.88-.52l-2.26-4.18-3.46 1.16v6.3z" class="cls-4"/><path id="path3280" d="M284.3 409.24a5.3 5.3 0 0 1 0-10.6 5.3 5.3 0 0 1 0 10.6" class="cls-4"/><path id="path3282" d="M294.52 419.58h13.22v-6.3l-3.46-1.16-2.26 4.18c-.18.32-.52.52-.88.52s-.7-.2-.88-.52l-2.26-4.18-3.46 1.16v6.3z" class="cls-4"/><path id="path3284" d="M301.14 409.24a5.3 5.3 0 0 1 0-10.6 5.3 5.3 0 0 1 0 10.6" class="cls-4"/><g id="_7" transform="scale(2)"><path id="path3286" d="M142.15 195s-.09-.01-.12-.04l-3.69-2.58a5.5 5.5 0 0 1-2.3-4.2l-.35-5.98a.9.9 0 0 1 .73-.94q.25-.05.66-.05h.15a5.6 5.6 0 0 0 3.32-1.02l1.16-.81a.8.8 0 0 1 .88 0l1.19.83a5.6 5.6 0 0 0 3.23 1.01h.26q.38 0 .6.05a.9.9 0 0 1 .73.94l-.35 5.98a5.4 5.4 0 0 1-2.3 4.2l-3.69 2.58s-.08.04-.12.04z" style="stroke:#7836b2;stroke-linecap:round;stroke-linejoin:round;fill:#bb9ad8;stroke-width:1.38px"/><path id="path3288" d="M142.15 183.75a3.01 3.01 0 1 0 0 6.03 3.01 3.01 0 0 0 0-6.03" class="cls-23"/><path id="path3290" d="M141.75 188.02a.2.2 0 0 1-.15-.06l-.88-.88a.2.2 0 0 1 0-.3.2.2 0 0 1 .3 0l.71.71 1.53-1.9a.2.2 0 0 1 .3-.03.2.2 0 0 1 .03.3l-1.68 2.08s-.09.08-.15.08z" class="cls-21"/></g><path id="path3293" d="M230.42 352.3a8.6 8.6 0 0 0 0 17.16 8.58 8.58 0 1 0 0-17.16m1.54 12.56h-3.08l.64-3.88a2.16 2.16 0 1 1 3.06-1.96c0 .88-.52 1.62-1.26 1.96z" class="cls-23" style="stroke-width:1.99999"/><path id="path3295" d="M230.42 380.3a8.6 8.6 0 0 0 0 17.16 8.58 8.58 0 1 0 0-17.16m1.54 12.56h-3.08l.64-3.88a2.16 2.16 0 1 1 3.06-1.96c0 .88-.52 1.62-1.26 1.96z" class="cls-23" style="stroke-width:1.99999"/><path id="path3297" d="M230.42 408.3a8.6 8.6 0 0 0 0 17.16 8.58 8.58 0 1 0 0-17.16m1.54 12.56h-3.08l.64-3.88a2.16 2.16 0 1 1 3.06-1.96c0 .88-.52 1.62-1.26 1.96z" class="cls-23" style="stroke-width:1.99999"/><path id="rect3299" d="M151.56 366.06h12.94V379h-12.94z" class="cls-23" style="stroke-width:1.99999"/><path id="line3301" d="M171.24 372.24h29.52" class="cls-17"/><path id="path3303" d="M158.84 375.5q-.46-.01-.8-.32l-4.6-4.6a1.1 1.1 0 0 1 0-1.58 1.1 1.1 0 0 1 1.58 0l3.72 3.72 8.02-9.94c.38-.48 1.1-.56 1.58-.16.48.38.56 1.1.16 1.58l-8.8 10.9c-.2.24-.5.4-.82.42h-.06z" class="cls-22" style="stroke-width:1.99999"/><path id="rect3305" d="M151.56 385.56h12.94v12.94h-12.94z" class="cls-23" style="stroke-width:1.99999"/><path id="line3307" d="M171.24 391.76h29.52" class="cls-17"/><path id="path3309" d="M158.84 395q-.46-.01-.8-.32l-4.6-4.6a1.1 1.1 0 0 1 0-1.58 1.1 1.1 0 0 1 1.58 0l3.72 3.72 8.02-9.94c.38-.48 1.1-.56 1.58-.16.48.38.56 1.1.16 1.58l-8.8 10.9c-.2.24-.5.4-.82.42h-.06z" class="cls-22" style="stroke-width:1.99999"/><path id="rect3311" d="M151.56 405.06h12.94V418h-12.94z" class="cls-23" style="stroke-width:1.99999"/><path id="line3313" d="M171.24 411.24h29.52" class="cls-17"/><path id="path3315" d="M158.84 414.5q-.46-.01-.8-.32l-4.6-4.6a1.1 1.1 0 0 1 0-1.58 1.1 1.1 0 0 1 1.58 0l3.72 3.72 8.02-9.94c.38-.48 1.1-.56 1.58-.16.48.38.56 1.1.16 1.58l-8.8 10.9c-.2.24-.5.4-.82.42h-.06z" class="cls-22" style="stroke-width:1.99999"/><path id="path3317" d="M261.5 294.8h-31.22v19.78h31.22l-7.28-9.88 7.28-9.88z" class="cls-23" style="stroke-width:1.99999"/><path id="path3319" d="M230.66 327.5v-35" class="cls-15"/><path id="path3321" d="M243.64 309.88s-.06 0-.08-.02l-2.48-1.74a4 4 0 0 1-1.1-1.24 4 4 0 0 1-.46-1.6l-.24-4.04c0-.3.2-.58.5-.64q.18-.03.44-.04h.1c.8 0 1.58-.22 2.24-.68l.78-.54s.18-.1.3-.1q.17 0 .3.1l.8.56c.64.44 1.4.68 2.18.68h.18q.25-.01.4.04c.3.06.5.34.5.64l-.24 4.04q-.03.85-.46 1.6c-.26.48-.64.92-1.1 1.24l-2.48 1.74-.08.02z" class="cls-22" style="stroke-width:1.99999"/><path id="path3323" d="M383.5 480s-.16-.04-.22-.08l-1.16-1.16s-.1-.18-.08-.28q.04-.16.2-.22c.24-.06.3-.12.3-.14a.4.4 0 0 0 .12-.3.4.4 0 0 0-.12-.3.44.44 0 0 0-.6 0s-.06.06-.12.3q-.05.16-.22.2-.17.03-.28-.08l-1.16-1.16a.3.3 0 0 1 0-.42l1.1-1.1-.12-.1a1 1 0 0 1 0-1.44 1.1 1.1 0 0 1 1.46 0l.1.12 1.1-1.1c.12-.12.3-.12.42 0l1.16 1.16s.1.18.08.28q-.04.16-.2.22c-.24.06-.3.12-.3.12a.44.44 0 0 0 0 .6c.16.16.44.16.6 0 0 0 .06-.06.12-.3.02-.1.12-.18.22-.2q.17-.03.28.08l1.16 1.16c.12.12.12.3 0 .42l-1.1 1.1.12.08a1 1 0 0 1 0 1.44c-.38.38-1.06.38-1.44 0l-.1-.12-1.1 1.1s-.14.08-.22.08z" class="cls-23" style="stroke-width:1.99999"/><circle id="circle3325" cx="118.02" cy="232.24" r="9.22" class="cls-22" style="stroke-width:1.99999"/><path id="path3327" d="M139.4 231.4c-3.74-6.12-12.02-10.08-21.08-10.08S101 225.28 97.24 231.4c-.22.36-.22.8 0 1.14 3.76 6.12 12.02 10.08 21.08 10.08s17.34-3.96 21.08-10.08c.22-.36.22-.8 0-1.14m-39.92.58c2.34-3.44 6.4-6.04 11.2-7.4a10.6 10.6 0 0 0 0 14.8c-4.8-1.36-8.84-3.96-11.2-7.4m18.84 8.48a8.48 8.48 0 1 1 .04-16.96 8.48 8.48 0 0 1-.04 16.96m7.66-1.08a10.6 10.6 0 0 0 .02-14.8c4.8 1.36 8.84 3.96 11.18 7.4-2.34 3.44-6.4 6.02-11.2 7.4" class="cls-23" style="stroke-width:1.99999"/><path id="path3329" d="M118.32 225.58q-.94-.01-1.96.34c-.4.12-.68.46-.74.86-.06.42.1.82.44 1.06.26.18.68.6.68 1.24 0 .88-.7 1.58-1.58 1.58-.6 0-.98-.36-1.16-.56a1.1 1.1 0 0 0-1.1-.34c-.4.1-.72.42-.8.82q-.16.74-.16 1.42a6.4 6.4 0 1 0 6.38-6.38z" class="cls-23" style="stroke-width:1.99999"/><path id="path3331" d="M118.32 236.18a4.2 4.2 0 0 1-4.14-3.46q.47.14.98.14a3.77 3.77 0 0 0 3.52-5.04 4.2 4.2 0 0 1-.36 8.38z" class="cls-21" style="stroke-width:1.99999"/><path id="path3333" d="M512.5 438.12H146.8" class="cls-5"/><path id="path3335" d="M157.72 438.12h-30.66" class="cls-5"/><path id="path3337" d="M109.72 438.12h-35.5" class="cls-5"/><path id="path3339" d="M127.06 437.46a8.5 8.5 0 1 0-17 0" class="cls-5"/></svg>