<?xml version="1.0" encoding="UTF-8" standalone="no"?>
<svg
   id="world-security"
   viewBox="0 0 600 600"
   version="1.1"
   sodipodi:docname="world-security.svg"
   width="600"
   height="600"
   inkscape:version="1.2.2 (732a01da63, 2022-12-09)"
   xmlns:inkscape="http://www.inkscape.org/namespaces/inkscape"
   xmlns:sodipodi="http://sodipodi.sourceforge.net/DTD/sodipodi-0.dtd"
   xmlns="http://www.w3.org/2000/svg"
   xmlns:svg="http://www.w3.org/2000/svg">
  <sodipodi:namedview
     id="namedview3342"
     pagecolor="#ffffff"
     bordercolor="#000000"
     borderopacity="0.25"
     inkscape:showpageshadow="2"
     inkscape:pageopacity="0.0"
     inkscape:pagecheckerboard="0"
     inkscape:deskcolor="#d1d1d1"
     showgrid="false"
     inkscape:zoom="0.67"
     inkscape:cx="758.95522"
     inkscape:cy="411.19403"
     inkscape:window-width="1920"
     inkscape:window-height="991"
     inkscape:window-x="-9"
     inkscape:window-y="-9"
     inkscape:window-maximized="1"
     inkscape:current-layer="world-security" />
  <defs
     id="defs3050">
    <style
       id="style3048">.cls-1,.cls-2,.cls-3,.cls-4,.cls-5,.cls-6,.cls-7,.cls-8,.cls-9,.cls-10,.cls-11,.cls-12,.cls-13,.cls-14,.cls-15,.cls-16,.cls-17{stroke:#7836b2;}.cls-1,.cls-2,.cls-3,.cls-4,.cls-5,.cls-7,.cls-9,.cls-18,.cls-11,.cls-14,.cls-15,.cls-16,.cls-17{stroke-linecap:round;}.cls-1,.cls-2,.cls-3,.cls-4,.cls-6,.cls-8,.cls-11,.cls-14,.cls-15,.cls-16,.cls-17{stroke-linejoin:round;}.cls-1,.cls-3,.cls-5,.cls-7,.cls-9,.cls-18,.cls-19,.cls-20,.cls-12{fill:none;}.cls-1,.cls-5,.cls-6,.cls-11,.cls-13,.cls-14,.cls-15{stroke-width:1.5px;}.cls-2,.cls-4,.cls-21,.cls-14{fill:#fff;}.cls-4{stroke-width:1.2px;}.cls-22,.cls-6,.cls-8,.cls-10,.cls-13,.cls-15,.cls-16,.cls-17{fill:#bb9ad8;}.cls-23,.cls-11{fill:#7836b2;}.cls-5,.cls-7,.cls-9,.cls-18,.cls-10,.cls-19,.cls-20,.cls-12,.cls-13{stroke-miterlimit:10;}.cls-7{stroke-width:.41px;}.cls-8{stroke-width:1.71px;}.cls-9,.cls-18{stroke-width:.5px;}.cls-18,.cls-19{stroke:#bb9ad8;}.cls-20{stroke:#fff;}.cls-16{stroke-width:1.38px;}.cls-17{stroke-width:1.44px;}.cls-24{fill:#e3e0e0;opacity:.5;}</style>
  </defs>
  <circle
     class="cls-24"
     cx="293.39999"
     cy="308.23999"
     id="circle3052"
     style="stroke-width:1.99999"
     r="211.22" />
  <path
     class="cls-21"
     d="m 550.46,266.86 h -11.92 c -2.26,0 -4.12,-1.86 -4.12,-4.12 0,-2.26 1.86,-4.12 4.12,-4.12 h 21.6 c 2.56,-0.4 4.78,-2.22 5.26,-4.8 0.7,-3.78 -2.24,-7.12 -5.9,-7.12 h -79.88 c -2.26,0 -4.12,-1.86 -4.12,-4.12 0,-2.26 1.86,-4.12 4.12,-4.12 h 0.96 c 0.3,-0.08 0.62,-0.12 0.94,-0.12 h 37.04 c 2.1,0 3.82,-1.52 3.82,-3.38 0,-1.64 1.34,-3.02 3.1,-3.32 h 16.2 c 3.3,0 6,-2.7 6,-6 0,-3.3 -2.7,-6 -6,-6 H 374.84 c -3.3,0 -6,2.7 -6,6 0,3.3 2.7,6 6,6 h 16.18 c 1.76,0.3 3.1,1.68 3.1,3.32 0,1.86 1.72,3.38 3.82,3.38 l 43.68,0.12 c 2.26,0 4.12,1.86 4.12,4.12 0,2.26 -1.86,4.12 -4.12,4.12 h -8.16 c -2.96,0 -5.72,1.98 -6.26,4.88 -0.7,3.78 2.24,7.12 5.9,7.12 h 32.34 c 1.02,0.12 2.3,0.06 3.5,0.24 h 15.94 c 2.26,0 4.12,1.86 4.12,4.12 0,2.26 -1.86,4.12 -4.12,4.12 h -22.26 c -1.8,0.78 -3.22,2.32 -3.58,4.3 -0.7,3.78 2.24,7.12 5.9,7.12 h 83.54 c 2.96,0 5.72,-1.98 6.26,-4.88 0.58,-3.2 -1.42,-6.06 -4.28,-6.86 z"
     id="path3054"
     style="stroke-width:1.99999" />
  <path
     class="cls-22"
     d="m 448.66,166.96 h -39.88 c 0,0 -0.06,-0.06 -0.08,-0.08 h -0.06 c -2.26,0 -4.12,-1.86 -4.12,-4.12 v -2.04 c 0,-2.26 1.86,-4.12 4.12,-4.12 h 2.88 c 0,0 0.1,0 0.16,0 h 49.66 c 2.82,0 5.12,-2.04 5.12,-4.54 0,-2.5 2.3,-4.54 5.12,-4.54 h 18.38 c 1.48,0 2.84,-0.6 3.8,-1.58 0.98,-0.98 1.58,-2.32 1.58,-3.82 0,-2.96 -2.42,-5.4 -5.4,-5.4 H 271 c -2.96,0 -5.4,2.42 -5.4,5.4 0,1.48 0.6,2.84 1.58,3.82 0.98,0.98 2.32,1.58 3.8,1.58 h 18.38 c 2.82,0 5.12,2.04 5.12,4.54 0,2.5 2.3,4.54 5.12,4.54 h 72.7 c 2.26,0 4.12,1.88 4.12,4.14 v 2.04 c 0,2.26 -1.86,4.12 -4.12,4.12 l -110.66,0.08 c -4.68,0 -8.5,3.82 -8.5,8.5 0,4.68 3.82,8.5 8.5,8.5 h 187 c 4.68,0 8.5,-3.82 8.5,-8.5 0,-4.68 -3.82,-8.5 -8.5,-8.5 z"
     id="path3056"
     style="stroke-width:1.99999" />
  <path
     class="cls-21"
     d="M 196.26,250.2 189,249.96 c -3.12,0 -5.66,-2.56 -5.66,-5.66 v -0.44 c 0,-3.12 2.56,-5.66 5.66,-5.66 h 18.74 c 2.48,-0.44 4.6,-2.26 5.06,-4.78 0.7,-3.78 -2.24,-7.12 -5.9,-7.12 H 80.86 c -2.96,0 -5.72,1.98 -6.26,4.88 -0.62,3.42 1.72,6.44 4.88,7 h 49.24 c 3.12,0 5.66,2.56 5.66,5.66 v 0.44 c 0,3.12 -2.56,5.66 -5.66,5.66 l -16.02,0.24 c -2.96,0 -5.72,1.98 -6.26,4.88 -0.7,3.78 2.24,7.12 5.9,7.12 h 83.54 c 2.96,0 5.72,-1.98 6.26,-4.88 0.7,-3.78 -2.24,-7.12 -5.9,-7.12 z"
     id="path3058"
     style="stroke-width:1.99999" />
  <rect
     class="cls-21"
     x="52.34"
     y="250.86"
     width="47.02"
     height="11.34"
     rx="5.6599998"
     ry="5.6599998"
     id="rect3060"
     style="stroke-width:1.99999" />
  <circle
     class="cls-7"
     cx="216"
     cy="160.66"
     id="circle3062"
     r="2.9400001" />
  <circle
     class="cls-19"
     cx="132.84"
     cy="137.96001"
     id="circle3064"
     style="stroke-width:1.99999"
     r="3.6800001" />
  <circle
     class="cls-12"
     cx="123.42"
     cy="176.58"
     id="circle3066"
     style="stroke-width:1.99999"
     r="2.4000001" />
  <circle
     class="cls-22"
     cx="228.39999"
     cy="212.66"
     id="circle3068"
     style="stroke-width:1.99999"
     r="2.4000001" />
  <circle
     class="cls-23"
     cx="165.34"
     cy="169.60001"
     id="circle3070"
     style="stroke-width:1.99999"
     r="2.4000001" />
  <line
     class="cls-9"
     x1="85.720001"
     y1="137.96001"
     x2="85.720001"
     y2="143.44"
     id="line3072" />
  <line
     class="cls-9"
     x1="88.459999"
     y1="140.7"
     x2="83"
     y2="140.7"
     id="line3074" />
  <line
     class="cls-9"
     x1="88.940002"
     y1="278.72"
     x2="88.940002"
     y2="284.17999"
     id="line3076" />
  <line
     class="cls-9"
     x1="91.660004"
     y1="281.44"
     x2="86.199997"
     y2="281.44"
     id="line3078" />
  <circle
     class="cls-19"
     cx="142.66"
     cy="296.17999"
     id="circle3080"
     style="stroke-width:1.99999"
     r="3.6800001" />
  <circle
     class="cls-12"
     cx="88.68"
     cy="316.82001"
     id="circle3082"
     style="stroke-width:1.99999"
     r="2.4000001" />
  <circle
     class="cls-23"
     cx="179.7"
     cy="272.38"
     id="circle3084"
     style="stroke-width:1.99999"
     r="2.4000001" />
  <circle
     class="cls-20"
     cx="226.66"
     cy="179.34"
     id="circle3086"
     style="stroke-width:1.99999"
     r="3.6800001" />
  <circle
     class="cls-21"
     cx="191.34"
     cy="197.60001"
     id="circle3088"
     style="stroke-width:1.99999"
     r="2.4000001" />
  <circle
     class="cls-18"
     cx="494.73999"
     cy="216.39999"
     id="circle3090"
     r="2.9400001" />
  <circle
     class="cls-12"
     cx="369.60001"
     cy="194"
     id="circle3092"
     style="stroke-width:1.99999"
     r="2.4000001" />
  <circle
     class="cls-22"
     cx="519.90002"
     cy="327.28"
     id="circle3094"
     style="stroke-width:1.99999"
     r="2.4000001" />
  <circle
     class="cls-21"
     cx="430.5"
     cy="212"
     id="circle3096"
     style="stroke-width:1.99999"
     r="2.4000001" />
  <line
     class="cls-9"
     x1="469.64001"
     y1="247.52"
     x2="469.64001"
     y2="252.98"
     id="line3098" />
  <line
     class="cls-9"
     x1="472.35999"
     y1="250.25999"
     x2="466.89999"
     y2="250.25999"
     id="line3100" />
  <polyline
     class="cls-1"
     points="59.17 130.17 59.17 185 70.33 185"
     id="polyline3102"
     transform="scale(2)" />
  <path
     class="cls-13"
     d="m 118.32,341.92 c -5.2,0 -5.2,-5.28 -5.2,-5.28 v -40.68 c 0,0 10.48,0 10.48,0 v 40.68 c 0,0 -0.06,5.28 -5.26,5.28 z"
     id="path3104" />
  <path
     class="cls-23"
     d="m 119.42,330.7 c -0.62,0.62 -1.62,0.62 -2.24,0 -0.62,-0.62 -0.62,-1.62 0,-2.24 0.62,-0.62 1.62,-0.62 2.24,0 0.62,0.62 0.62,1.62 0,2.24 z"
     id="path3106"
     style="stroke-width:1.99999" />
  <path
     class="cls-8"
     d="m 88.3,232.96 c 0,-16.6 13.46,-30.04 30.04,-30.04 16.6,0 30.04,13.46 30.04,30.04 0,16.6 -13.46,30.04 -30.04,30.04 -16.6,0 -30.04,-13.46 -30.04,-30.04 z"
     id="path3108" />
  <path
     class="cls-21"
     d="m 95.68,232.96 c 0,-12.5 10.12,-22.64 22.62,-22.64 12.5,0 22.62,10.14 22.62,22.62 0,12.48 -10.12,22.62 -22.62,22.62 -12.5,0 -22.62,-10.14 -22.62,-22.62 z"
     id="path3110"
     style="stroke-width:1.99999" />
  <rect
     class="cls-15"
     x="321.54001"
     y="281"
     width="59"
     height="156.5"
     id="rect3112" />
  <path
     class="cls-23"
     d="m 100.58,413.2 c -0.64,-0.52 -1.58,-0.42 -2.1,0.2 l -2.54,3.1 c -0.86,1.06 -2.56,0.48 -2.62,-0.86 v -4.94 c 0,-0.32 0.12,-0.62 0.32,-0.88 l 7.14,-8.72 c 0.52,-0.64 0.42,-1.58 -0.2,-2.1 v 0 c -0.64,-0.52 -1.58,-0.42 -2.1,0.2 l -2.54,3.1 c -0.86,1.06 -2.56,0.48 -2.62,-0.86 v -6.7 c 0,-0.82 -0.68,-1.5 -1.5,-1.5 -0.82,0 -1.5,0.68 -1.5,1.5 v 6.7 c -0.06,1.34 -1.76,1.94 -2.62,0.88 l -2.54,-3.1 c -0.52,-0.64 -1.46,-0.72 -2.1,-0.2 v 0 c -0.64,0.52 -0.72,1.46 -0.2,2.1 l 7.14,8.72 c 0.2,0.24 0.32,0.56 0.32,0.88 v 4.92 c -0.06,1.34 -1.76,1.94 -2.62,0.88 l -2.54,-3.1 c -0.52,-0.64 -1.46,-0.72 -2.1,-0.2 v 0 c -0.64,0.52 -0.72,1.46 -0.2,2.1 l 7.14,8.72 c 0.2,0.26 0.32,0.56 0.32,0.88 v 12.12 c 0,0 0,0.04 0,0.06 v 0.38 c 0,0.82 0.66,1.48 1.48,1.48 v 0 c 0.82,0 1.48,-0.66 1.48,-1.48 v -0.36 c 0,0 0,-0.04 0,-0.06 v -12.12 c 0,-0.32 0.12,-0.62 0.32,-0.88 l 7.14,-8.72 c 0.52,-0.64 0.42,-1.58 -0.2,-2.1 v 0 z"
     id="path3114"
     style="stroke-width:1.99999" />
  <path
     class="cls-23"
     d="m 503.04,394.82 7.14,-8.72 c 0.52,-0.64 0.42,-1.58 -0.2,-2.1 v 0 c -0.64,-0.52 -1.58,-0.42 -2.1,0.2 l -2.54,3.1 c -0.86,1.06 -2.56,0.48 -2.62,-0.86 v -4.94 c 0,-0.32 0.12,-0.62 0.32,-0.88 l 7.14,-8.72 c 0.52,-0.64 0.42,-1.58 -0.2,-2.1 v 0 c -0.64,-0.52 -1.58,-0.42 -2.1,0.2 l -2.54,3.1 c -0.86,1.06 -2.56,0.48 -2.62,-0.86 v -6.7 c 0,-0.82 -0.68,-1.5 -1.5,-1.5 -0.82,0 -1.5,0.68 -1.5,1.5 v 6.7 c -0.06,1.34 -1.76,1.94 -2.62,0.88 l -2.54,-3.1 c -0.52,-0.64 -1.46,-0.72 -2.1,-0.2 v 0 c -0.64,0.52 -0.72,1.46 -0.2,2.1 l 7.14,8.72 c 0.2,0.24 0.32,0.56 0.32,0.88 v 4.92 c -0.06,1.34 -1.76,1.94 -2.62,0.88 l -2.54,-3.1 c -0.52,-0.64 -1.46,-0.72 -2.1,-0.2 v 0 c -0.64,0.52 -0.72,1.46 -0.2,2.1 l 7.14,8.72 c 0.2,0.26 0.32,0.56 0.32,0.88 v 4.54 c -0.06,1.34 -1.76,1.94 -2.62,0.88 l -2.54,-3.1 c -0.52,-0.64 -1.46,-0.72 -2.1,-0.2 v 0 c -0.64,0.52 -0.72,1.46 -0.2,2.1 l 7.14,8.72 c 0.2,0.24 0.32,0.56 0.32,0.88 v 4.92 c -0.06,1.34 -1.76,1.94 -2.62,0.88 l -2.54,-3.1 c -0.52,-0.64 -1.46,-0.72 -2.1,-0.2 v 0 c -0.64,0.52 -0.72,1.46 -0.2,2.1 l 7.14,8.72 c 0.2,0.26 0.32,0.56 0.32,0.88 v 12.12 c 0,0 0,0.04 0,0.06 v 0.38 c 0,0.82 0.66,1.48 1.48,1.48 v 0 c 0.82,0 1.48,-0.66 1.48,-1.48 v -0.36 c 0,0 0,-0.04 0,-0.06 v -12.12 c 0,-0.32 0.12,-0.62 0.32,-0.88 l 7.14,-8.72 c 0.52,-0.64 0.42,-1.58 -0.2,-2.1 v 0 c -0.64,-0.52 -1.58,-0.42 -2.1,0.2 l -2.54,3.1 c -0.86,1.06 -2.56,0.48 -2.62,-0.86 v -4.94 c 0,-0.32 0.12,-0.62 0.32,-0.88 l 7.14,-8.72 c 0.52,-0.64 0.42,-1.58 -0.2,-2.1 v 0 c -0.64,-0.52 -1.58,-0.42 -2.1,0.2 l -2.54,3.1 c -0.86,1.06 -2.56,0.48 -2.62,-0.86 v -4.56 c 0,-0.32 0.12,-0.62 0.32,-0.88 z"
     id="path3116"
     style="stroke-width:1.99999" />
  <path
     class="cls-23"
     d="m 225.86,488.96 c -2.8,0 -6.68,-0.72 -9.64,-2.68 -2.96,1.96 -6.84,2.68 -9.64,2.68 -2.8,0 -6.68,-0.72 -9.64,-2.68 -2.96,1.96 -6.84,2.68 -9.64,2.68 -2.8,0 -6.68,-0.72 -9.64,-2.68 -2.96,1.96 -6.84,2.68 -9.64,2.68 -2.8,0 -6.68,-0.72 -9.64,-2.68 -2.96,1.96 -6.84,2.68 -9.64,2.68 -1.12,0 -2.2,-0.08 -3.4,-0.28 l 0.38,-2.46 c 1.08,0.16 2.04,0.24 3.02,0.24 2.5,0 6.34,-0.7 8.88,-2.7 l 0.78,-0.6 0.78,0.6 c 2.54,2 6.36,2.7 8.88,2.7 2.52,0 6.34,-0.7 8.88,-2.7 l 0.78,-0.6 0.78,0.6 c 2.54,2 6.36,2.7 8.88,2.7 2.52,0 6.34,-0.7 8.88,-2.7 l 0.78,-0.6 0.78,0.6 c 2.54,2 6.36,2.7 8.88,2.7 2.52,0 6.34,-0.7 8.88,-2.7 l 0.78,-0.6 0.78,0.6 c 2.54,2 6.36,2.7 8.88,2.7 1.04,0 1.96,-0.14 2.8,-0.44 l 0.82,2.36 c -1.12,0.4 -2.3,0.58 -3.62,0.58 z"
     id="path3118"
     style="stroke-width:1.99999" />
  <path
     class="cls-23"
     d="m 304.58,471.18 c -0.84,0.3 -1.76,0.44 -2.8,0.44 -2.5,0 -6.34,-0.7 -8.88,-2.7 l -0.78,-0.6 -0.78,0.6 c -2.54,2 -6.36,2.7 -8.88,2.7 -2.52,0 -6.34,-0.7 -8.88,-2.7 l -0.78,-0.6 -0.78,0.6 c -1.54,1.22 -3.56,1.96 -5.48,2.34 v -0.08 c -0.36,0.12 -0.72,0.2 -1.08,0.26 -0.72,0.1 -1.42,0.16 -2.04,0.16 -2.5,-0.04 -6.14,-0.78 -8.58,-2.7 l -0.78,-0.6 -0.28,0.22 -0.28,-0.22 -0.78,0.6 c -2.44,1.92 -6.08,2.66 -8.58,2.7 -2.5,-0.04 -6.14,-0.78 -8.58,-2.7 l -0.78,-0.6 -0.28,0.22 -0.28,-0.22 -0.78,0.6 c -2.44,1.92 -6.08,2.66 -8.58,2.7 -2.5,-0.04 -6.14,-0.78 -8.58,-2.7 l -0.78,-0.6 -0.78,0.6 c -2.54,2 -6.36,2.7 -8.88,2.7 -2.52,0 -6.34,-0.7 -8.88,-2.7 l -0.78,-0.6 -0.78,0.6 c -2.54,2 -6.36,2.7 -8.88,2.7 -0.98,0 -1.94,-0.08 -3.02,-0.24 l -0.38,2.46 c 1.2,0.18 2.28,0.28 3.4,0.28 2.8,0 6.68,-0.72 9.64,-2.68 2.96,1.96 6.84,2.68 9.64,2.68 2.8,0 6.68,-0.72 9.64,-2.68 1.72,1.14 3.74,1.86 5.7,2.26 v 0.16 c 1.18,0.18 2.26,0.28 3.38,0.28 0.1,0 0.2,0 0.28,0 0.1,0 0.2,0 0.28,0 2.7,0 6.44,-0.68 9.36,-2.52 2.92,1.84 6.64,2.52 9.36,2.52 0.1,0 0.2,0 0.28,0 0.1,0 0.2,0 0.28,0 2.7,0 6.42,-0.68 9.36,-2.52 2.92,1.84 6.66,2.52 9.36,2.52 0.1,0 0.2,0 0.28,0 0.1,0 0.2,0 0.28,0 0.14,0 0.26,-0.02 0.4,-0.04 0.16,0 0.32,-0.02 0.48,-0.04 0.44,-0.04 0.86,-0.06 1.28,-0.14 2.3,-0.34 4.82,-1.08 6.92,-2.48 2.96,1.96 6.84,2.68 9.64,2.68 2.8,0 6.68,-0.72 9.64,-2.68 2.96,1.96 6.84,2.68 9.64,2.68 1.32,0 2.5,-0.2 3.62,-0.58 l -0.82,-2.36 z"
     id="path3120"
     style="stroke-width:1.99999" />
  <path
     class="cls-23"
     d="m 517.78,298.2 c -0.46,0 -0.9,0.12 -1.32,0.3 0,0 0,0 0,0 L 466,312.14 v -1.56 h -0.1 c 0,-8.78 -7.14,-15.92 -15.92,-15.92 -8.78,0 -15.92,7.14 -15.92,15.92 v 16.56 l -1.82,21.12 c 0,0 0,0 0,0 l -1.72,20.1 c 0,0 0,0 0,0 l -1.72,20.12 c 0,0 0,0 0,0 l -0.78,9.04 h -9.28 v 2.72 h 62.68 v -2.72 h -9.26 l -1.7,-19.7 c 0,0 0,0 0,0 l -1.64,-19.18 c 0,0 0,0 0,0 l -1.64,-19.18 c 0,0 0,0 0,0 l -1.06,-12.36 c 0,-0.14 -0.06,-0.24 -0.1,-0.36 v -1.42 l 50.5,13.14 c 0,0 0,0 0,0 0.4,0.16 0.82,0.28 1.26,0.28 4.74,0 7.22,-10.18 7.22,-20.26 0,-10.08 -2.48,-20.26 -7.22,-20.26 z m -66.44,17.9 v -4.16 h 11.94 v 0.92 l -11.94,3.22 z m -18.18,53.44 33.08,-9.06 1.42,16.42 -35.98,9.86 z m 30.34,-41 0.86,9.98 -29.22,8 1.54,-17.98 z m -26.7,-2.72 v -13.88 h 11.82 v 13.88 z m 13.18,-28.42 c 6.82,0 12.44,5.2 13.12,11.82 h -26.24 c 0.68,-6.64 6.3,-11.82 13.12,-11.82 z m 13.3,28.42 h -11.94 v -4.36 l 11.94,3.1 z"
     id="path3122"
     style="stroke-width:1.99999" />
  <polygon
     class="cls-22"
     points="233,178.86 216.71,183.32 217.45,174.72 232.3,170.65 "
     id="polygon3124"
     transform="scale(2)" />
  <polygon
     class="cls-22"
     points="215.38,198.76 215.72,194.83 233.95,189.84 234.71,198.76 "
     id="polygon3126"
     transform="scale(2)" />
  <path
     class="cls-21"
     d="m 451.88,318.78 61.4,-16.6 c -1.04,2.22 -1.74,5.2 -2.18,8.42 -0.04,0.22 -0.06,0.44 -0.1,0.68 -0.04,0.36 -0.08,0.72 -0.12,1.08 -0.04,0.36 -0.06,0.72 -0.1,1.08 -0.02,0.3 -0.04,0.58 -0.06,0.88 -0.04,0.46 -0.06,0.92 -0.08,1.4 0,0.22 -0.02,0.44 -0.04,0.66 -0.02,0.68 -0.04,1.38 -0.04,2.08 0,0.7 0,1.38 0.04,2.08 0,0.24 0.02,0.46 0.04,0.7 0.02,0.46 0.04,0.9 0.08,1.34 0.02,0.32 0.04,0.62 0.08,0.94 0.02,0.34 0.06,0.68 0.1,1 0.04,0.38 0.08,0.78 0.12,1.16 0.02,0.18 0.04,0.36 0.08,0.56 0.44,3.26 1.16,6.3 2.22,8.54 L 451.9,318.8 Z"
     id="path3128"
     style="stroke-width:1.99999" />
  <path
     class="cls-21"
     d="m 517.78,335.98 c 0,0 -0.18,-0.02 -0.28,-0.06 0,0 0,0 -0.02,-0.02 -0.24,-0.12 -0.48,-0.34 -0.72,-0.64 -0.1,-0.12 -0.2,-0.26 -0.3,-0.42 0,0 0,0 0,0 -0.72,-1.12 -1.5,-3.06 -2.1,-5.76 -0.08,-0.4 -0.16,-0.8 -0.24,-1.22 0,0 0,0 0,-0.02 -0.16,-0.88 -0.3,-1.8 -0.42,-2.8 0,-0.02 0,-0.04 0,-0.06 -0.06,-0.46 -0.1,-0.92 -0.14,-1.38 0,-0.1 0,-0.2 -0.02,-0.3 -0.04,-0.42 -0.06,-0.84 -0.1,-1.26 0,-0.24 -0.02,-0.46 -0.04,-0.7 0,-0.34 -0.04,-0.66 -0.04,-1 0,-0.6 -0.04,-1.22 -0.04,-1.86 0,-0.64 0,-1.26 0.04,-1.86 0,-0.36 0.02,-0.7 0.04,-1.06 0,-0.22 0,-0.42 0.04,-0.64 0.02,-0.46 0.06,-0.92 0.1,-1.36 0,-0.06 0,-0.1 0,-0.16 0.24,-2.68 0.66,-5.02 1.16,-6.96 0.52,-1.94 1.14,-3.4 1.72,-4.32 0.08,-0.12 0.16,-0.22 0.22,-0.32 0.02,-0.04 0.06,-0.08 0.08,-0.12 0.24,-0.3 0.5,-0.52 0.74,-0.66 0,0 0.02,-0.02 0.04,-0.04 0.1,-0.04 0.2,-0.06 0.28,-0.06 1.52,0 4.48,6.18 4.48,17.52 0,11.34 -2.96,17.52 -4.48,17.52 z"
     id="path3130"
     style="stroke-width:1.99999" />
  <rect
     class="cls-15"
     x="417.39999"
     y="399.06"
     width="65.480003"
     height="38.220001"
     id="rect3132" />
  <path
     class="cls-14"
     d="m 456.36,417.12 c 0,-3.44 -2.78,-6.24 -6.24,-6.24 -3.46,0 -6.24,2.78 -6.24,6.24 0,1.64 0.64,3.12 1.68,4.24 l -0.96,15.9 h 11.02 l -0.96,-15.9 c 1.04,-1.12 1.68,-2.6 1.68,-4.24 z"
     id="path3134" />
  <path
     class="cls-10"
     d="m 367.8,510.7 c 7.2,-1.38 14.98,-7.46 17.04,-16.62 0.12,-0.58 0.12,-1.2 -0.24,-1.66 -0.36,-0.46 -1.18,-0.88 -1.78,-0.88 h -9.42 l -4.18,6.28 h -28.24 l -2.1,-6.28 h -2.1 c -1.06,0 -2.1,1.02 -2.1,2.1 v 5.8 c 0,5.34 3.3,8.94 6.42,10.58"
     id="path3136"
     style="stroke-width:1.99999" />
  <path
     class="cls-21"
     d="m 376.76,496.66 c -0.92,0 -1.68,0.76 -1.68,1.68 0,0.92 0.76,1.68 1.68,1.68 0.92,0 1.68,-0.76 1.68,-1.68 0,-0.92 -0.76,-1.68 -1.68,-1.68 z"
     id="path3138"
     style="stroke-width:1.99999" />
  <path
     class="cls-23"
     d="m 380.02,511.78 c -1.68,0 -3.98,-0.42 -5.8,-1.58 -1.8,1.14 -4.12,1.58 -5.8,1.58 -1.68,0 -3.98,-0.42 -5.8,-1.58 -1.8,1.14 -4.12,1.58 -5.8,1.58 -1.68,0 -3.98,-0.42 -5.8,-1.58 -1.8,1.14 -4.12,1.58 -5.8,1.58 -1.68,0 -3.98,-0.42 -5.8,-1.58 -1.8,1.14 -4.12,1.58 -5.8,1.58 -0.68,0 -1.34,-0.06 -2.08,-0.16 l 0.3,-1.92 c 0.64,0.1 1.2,0.14 1.78,0.14 1.46,0 3.72,-0.42 5.18,-1.58 l 0.6,-0.48 0.6,0.48 c 1.48,1.16 3.72,1.58 5.18,1.58 1.46,0 3.7,-0.42 5.18,-1.58 l 0.6,-0.48 0.6,0.48 c 1.48,1.16 3.72,1.58 5.18,1.58 1.46,0 3.7,-0.42 5.18,-1.58 l 0.6,-0.48 0.6,0.48 c 1.48,1.16 3.72,1.58 5.18,1.58 1.46,0 3.7,-0.42 5.18,-1.58 l 0.6,-0.48 0.6,0.48 c 1.48,1.16 3.72,1.58 5.18,1.58 0.6,0 1.12,-0.08 1.6,-0.26 l 0.64,1.84 c -0.7,0.24 -1.44,0.36 -2.26,0.36 z"
     id="path3140"
     style="stroke-width:1.99999" />
  <path
     class="cls-23"
     d="m 344.3,476.16 c -1.64,0 -2.98,-1.34 -2.98,-2.98 0,-1.64 1.34,-2.98 2.98,-2.98 1.64,0 2.98,1.34 2.98,2.98 0,1.64 -1.34,2.98 -2.98,2.98 z m 0,-4.4 c -0.78,0 -1.42,0.64 -1.42,1.42 0,0.78 0.64,1.42 1.42,1.42 0.78,0 1.42,-0.64 1.42,-1.42 0,-0.78 -0.64,-1.42 -1.42,-1.42 z"
     id="path3142"
     style="stroke-width:1.99999" />
  <path
     class="cls-23"
     d="m 326.22,473.08 c -1.64,0 -2.98,-1.34 -2.98,-2.98 0,-1.64 1.34,-2.98 2.98,-2.98 1.64,0 2.98,1.34 2.98,2.98 0,1.64 -1.34,2.98 -2.98,2.98 z m 0,-4.4 c -0.78,0 -1.42,0.64 -1.42,1.42 0,0.78 0.64,1.42 1.42,1.42 0.78,0 1.42,-0.64 1.42,-1.42 0,-0.78 -0.64,-1.42 -1.42,-1.42 z"
     id="path3144"
     style="stroke-width:1.99999" />
  <path
     class="cls-23"
     d="m 337.52,462.36 c -1.64,0 -2.98,-1.34 -2.98,-2.98 0,-1.64 1.34,-2.98 2.98,-2.98 1.64,0 2.98,1.34 2.98,2.98 0,1.64 -1.34,2.98 -2.98,2.98 z m 0,-4.4 c -0.78,0 -1.42,0.64 -1.42,1.42 0,0.78 0.64,1.42 1.42,1.42 0.78,0 1.42,-0.64 1.42,-1.42 0,-0.78 -0.64,-1.42 -1.42,-1.42 z"
     id="path3146"
     style="stroke-width:1.99999" />
  <polyline
     class="cls-3"
     points="169.45 245.77 171 243.33 185.33 243.33 186.51 245.57"
     id="polyline3148"
     transform="scale(2)" />
  <polyline
     class="cls-3"
     points="171 243.33 171 239.83 172.33 239.83 175 243.25"
     id="polyline3150"
     transform="scale(2)" />
  <line
     class="cls-3"
     x1="377"
     y1="490.92001"
     x2="377"
     y2="479.66"
     id="line3152"
     style="stroke-width:1.99999" />
  <rect
     class="cls-2"
     x="377"
     y="470.60001"
     width="13.74"
     height="11.52"
     id="rect3154"
     style="stroke-width:1.99999" />
  <line
     class="cls-2"
     x1="339.57999"
     y1="491.76001"
     x2="372.42001"
     y2="491.76001"
     id="line3156"
     style="stroke-width:1.99999" />
  <line
     class="cls-15"
     x1="380.38"
     y1="416.5"
     x2="417"
     y2="416.5"
     id="line3158" />
  <line
     class="cls-15"
     x1="380.38"
     y1="424.5"
     x2="417"
     y2="424.5"
     id="line3160" />
  <line
     class="cls-15"
     x1="389.76001"
     y1="417"
     x2="389.76001"
     y2="423.5"
     id="line3162" />
  <line
     class="cls-15"
     x1="396"
     y1="417"
     x2="396"
     y2="423.5"
     id="line3164" />
  <line
     class="cls-15"
     x1="402.23999"
     y1="417"
     x2="402.23999"
     y2="423.5"
     id="line3166" />
  <line
     class="cls-15"
     x1="408.5"
     y1="417"
     x2="408.5"
     y2="423.5"
     id="line3168" />
  <circle
     class="cls-14"
     cx="351.04001"
     cy="407.23999"
     id="circle3170"
     r="17" />
  <path
     class="cls-23"
     d="m 359.18,414.24 h -16.42 c -0.58,0 -1.12,-0.3 -1.42,-0.82 -0.3,-0.5 -0.3,-1.12 0,-1.62 l 8.2,-14.3 c 0.3,-0.52 0.82,-0.82 1.42,-0.82 0.6,0 1.12,0.3 1.42,0.82 l 8.2,14.3 c 0.3,0.52 0.3,1.12 0,1.62 -0.3,0.5 -0.82,0.82 -1.42,0.82 z"
     id="path3172"
     style="stroke-width:1.99999" />
  <path
     class="cls-21"
     d="m 350.98,408.74 c -0.4,0 -0.7,-0.32 -0.7,-0.7 v -4.74 c 0,-0.4 0.32,-0.7 0.7,-0.7 0.38,0 0.7,0.32 0.7,0.7 v 4.74 c 0,0.4 -0.32,0.7 -0.7,0.7 z"
     id="path3174"
     style="stroke-width:1.99999" />
  <circle
     class="cls-21"
     cx="350.98001"
     cy="410.44"
     id="circle3176"
     style="stroke-width:1.99999"
     r="0.75999999" />
  <circle
     class="cls-15"
     cx="351.04001"
     cy="311.44"
     id="circle3178"
     r="17" />
  <circle
     class="cls-11"
     cx="351.04001"
     cy="359.94"
     id="circle3180"
     r="17" />
  <g
     id="_3"
     transform="scale(2)">
    <path
       class="cls-21"
       d="m 172.01,185.84 c -0.72,0 -1.39,-0.33 -1.85,-0.9 -0.45,-0.57 -0.61,-1.3 -0.45,-2 l 0.21,-0.91 c 0.03,-0.12 0.05,-0.23 0.07,-0.35 0.02,-0.09 0.09,-0.15 0.18,-0.16 0.09,0 0.17,0.05 0.2,0.13 0.53,1.64 1.83,2.94 3.47,3.47 0.08,0.03 0.14,0.11 0.13,0.2 0,0.09 -0.07,0.16 -0.16,0.18 -0.12,0.02 -0.24,0.05 -0.35,0.07 l -0.91,0.21 c -0.18,0.04 -0.36,0.06 -0.54,0.06 z m -1.77,-3.47 -0.15,0.65 c -0.14,0.59 0,1.2 0.38,1.68 0.38,0.48 0.94,0.75 1.54,0.75 0.15,0 0.3,-0.02 0.45,-0.05 l 0.65,-0.15 c -1.27,-0.58 -2.3,-1.61 -2.88,-2.88 z"
       id="path3182" />
    <path
       class="cls-21"
       d="m 170.18,178.43 c 0,0 0,0 -0.01,0 -0.09,0 -0.16,-0.07 -0.18,-0.16 -0.02,-0.12 -0.05,-0.23 -0.07,-0.35 l -0.21,-0.91 c -0.16,-0.71 0,-1.44 0.45,-2 0.45,-0.57 1.13,-0.9 1.85,-0.9 0.18,0 0.36,0.02 0.54,0.06 l 0.91,0.21 c 0.12,0.03 0.23,0.05 0.35,0.07 0.09,0.02 0.15,0.09 0.16,0.18 0,0.09 -0.05,0.17 -0.13,0.2 -1.64,0.53 -2.94,1.83 -3.47,3.47 -0.03,0.08 -0.1,0.13 -0.18,0.13 z m 1.82,-3.94 c -0.6,0 -1.16,0.27 -1.54,0.75 -0.38,0.47 -0.51,1.08 -0.38,1.68 l 0.15,0.65 c 0.58,-1.27 1.61,-2.3 2.88,-2.88 l -0.65,-0.15 c -0.15,-0.03 -0.3,-0.05 -0.45,-0.05 z"
       id="path3184" />
    <path
       class="cls-21"
       d="m 175.52,183.64 c -2.02,0 -3.67,-1.65 -3.67,-3.67 0,-2.02 1.65,-3.67 3.67,-3.67 2.02,0 3.67,1.65 3.67,3.67 0,2.02 -1.65,3.67 -3.67,3.67 z m 0,-6.95 c -1.81,0 -3.28,1.47 -3.28,3.28 0,1.81 1.47,3.28 3.28,3.28 1.81,0 3.28,-1.47 3.28,-3.28 0,-1.81 -1.47,-3.28 -3.28,-3.28 z"
       id="path3186" />
    <path
       class="cls-21"
       d="m 179.03,185.84 c -0.18,0 -0.36,-0.02 -0.54,-0.06 l -0.91,-0.21 c -0.11,-0.03 -0.23,-0.05 -0.35,-0.07 -0.09,-0.02 -0.15,-0.09 -0.16,-0.18 0,-0.09 0.05,-0.17 0.13,-0.2 1.64,-0.53 2.94,-1.83 3.47,-3.47 0.03,-0.08 0.11,-0.14 0.2,-0.13 0.09,0 0.16,0.07 0.18,0.16 0.02,0.12 0.05,0.24 0.07,0.35 l 0.21,0.91 c 0.16,0.71 0,1.44 -0.45,2 -0.45,0.57 -1.13,0.9 -1.85,0.9 z m -1.1,-0.59 0.65,0.15 c 0.15,0.03 0.3,0.05 0.45,0.05 0.6,0 1.16,-0.27 1.54,-0.75 0.38,-0.47 0.51,-1.08 0.38,-1.68 l -0.15,-0.65 c -0.58,1.27 -1.61,2.3 -2.88,2.88 z"
       id="path3188" />
    <path
       class="cls-21"
       d="m 180.85,178.42 c -0.08,0 -0.16,-0.05 -0.18,-0.13 -0.53,-1.64 -1.83,-2.94 -3.47,-3.47 -0.08,-0.03 -0.14,-0.11 -0.13,-0.2 0,-0.09 0.07,-0.16 0.16,-0.18 0.12,-0.02 0.23,-0.05 0.35,-0.07 l 0.91,-0.21 c 0.18,-0.04 0.36,-0.06 0.54,-0.06 0.72,0 1.39,0.33 1.85,0.9 0.45,0.57 0.61,1.3 0.45,2 l -0.21,0.91 c -0.03,0.11 -0.05,0.23 -0.07,0.35 -0.02,0.09 -0.09,0.15 -0.18,0.16 0,0 0,0 -0.01,0 z m -2.93,-3.73 c 1.27,0.58 2.3,1.61 2.88,2.88 l 0.15,-0.65 c 0.14,-0.59 0,-1.2 -0.38,-1.68 -0.38,-0.48 -0.94,-0.75 -1.54,-0.75 -0.15,0 -0.3,0.02 -0.45,0.05 l -0.65,0.15 z"
       id="path3190" />
    <path
       class="cls-21"
       d="m 169.91,181.02 c -0.49,0 -0.89,-0.4 -0.89,-0.89 v -0.32 c 0,-0.49 0.4,-0.89 0.89,-0.89 0.11,0 0.19,0.09 0.19,0.19 0,0.1 -0.09,0.19 -0.19,0.19 -0.28,0 -0.51,0.23 -0.51,0.51 v 0.32 c 0,0.28 0.23,0.51 0.51,0.51 0.11,0 0.19,0.09 0.19,0.19 0,0.1 -0.09,0.19 -0.19,0.19 z"
       id="path3192" />
    <path
       class="cls-21"
       d="m 181.13,181.02 c -0.11,0 -0.19,-0.09 -0.19,-0.19 0,-0.1 0.09,-0.19 0.19,-0.19 0.28,0 0.51,-0.23 0.51,-0.51 v -0.32 c 0,-0.28 -0.23,-0.51 -0.51,-0.51 -0.11,0 -0.19,-0.09 -0.19,-0.19 0,-0.1 0.09,-0.19 0.19,-0.19 0.49,0 0.89,0.4 0.89,0.89 v 0.32 c 0,0.49 -0.4,0.89 -0.89,0.89 z"
       id="path3194" />
    <path
       class="cls-21"
       d="m 176.38,174.56 c -0.11,0 -0.19,-0.09 -0.19,-0.19 0,-0.28 -0.23,-0.51 -0.51,-0.51 h -0.32 c -0.28,0 -0.51,0.23 -0.51,0.51 0,0.11 -0.09,0.19 -0.19,0.19 -0.1,0 -0.19,-0.09 -0.19,-0.19 0,-0.49 0.4,-0.89 0.89,-0.89 h 0.32 c 0.49,0 0.89,0.4 0.89,0.89 0,0.11 -0.09,0.19 -0.19,0.19 z"
       id="path3196" />
    <path
       class="cls-21"
       d="m 175.68,186.47 h -0.32 c -0.49,0 -0.89,-0.4 -0.89,-0.89 0,-0.11 0.09,-0.19 0.19,-0.19 0.1,0 0.19,0.09 0.19,0.19 0,0.28 0.23,0.51 0.51,0.51 h 0.32 c 0.28,0 0.51,-0.23 0.51,-0.51 0,-0.11 0.09,-0.19 0.19,-0.19 0.1,0 0.19,0.09 0.19,0.19 0,0.49 -0.4,0.89 -0.89,0.89 z"
       id="path3198" />
    <path
       class="cls-21"
       d="m 170.18,181.91 c -0.08,0 -0.16,-0.05 -0.18,-0.13 -0.19,-0.58 -0.28,-1.19 -0.28,-1.8 0,-0.61 0.1,-1.22 0.28,-1.8 0.03,-0.1 0.14,-0.16 0.24,-0.12 0.1,0.03 0.16,0.14 0.12,0.24 -0.18,0.54 -0.27,1.11 -0.27,1.68 0,0.57 0.09,1.14 0.27,1.68 0.03,0.1 -0.02,0.21 -0.12,0.24 -0.02,0 -0.04,0 -0.06,0 z"
       id="path3200" />
    <path
       class="cls-21"
       d="m 175.52,185.78 c -0.62,0 -1.22,-0.1 -1.8,-0.28 -0.1,-0.03 -0.16,-0.14 -0.12,-0.24 0.03,-0.1 0.14,-0.16 0.24,-0.12 0.54,0.18 1.11,0.27 1.68,0.27 0.57,0 1.14,-0.09 1.68,-0.27 0.1,-0.03 0.21,0.02 0.24,0.12 0.03,0.1 -0.02,0.21 -0.12,0.24 -0.58,0.19 -1.19,0.28 -1.8,0.28 z"
       id="path3202" />
    <path
       class="cls-21"
       d="m 177.26,174.83 c 0,0 -0.04,0 -0.06,0 -0.54,-0.18 -1.11,-0.27 -1.68,-0.27 -0.57,0 -1.14,0.09 -1.68,0.27 -0.1,0.03 -0.21,-0.02 -0.24,-0.12 -0.03,-0.1 0.02,-0.21 0.12,-0.24 0.58,-0.19 1.19,-0.28 1.8,-0.28 0.61,0 1.22,0.1 1.8,0.28 0.1,0.03 0.16,0.14 0.12,0.24 -0.03,0.08 -0.1,0.13 -0.18,0.13 z"
       id="path3204" />
    <path
       class="cls-21"
       d="m 175.52,183.64 c -2.02,0 -3.67,-1.65 -3.67,-3.67 0,-2.02 1.65,-3.67 3.67,-3.67 2.02,0 3.67,1.65 3.67,3.67 0,2.02 -1.65,3.67 -3.67,3.67 z m 0,-6.95 c -1.81,0 -3.28,1.47 -3.28,3.28 0,1.81 1.47,3.28 3.28,3.28 1.81,0 3.28,-1.47 3.28,-3.28 0,-1.81 -1.47,-3.28 -3.28,-3.28 z"
       id="path3206" />
    <path
       class="cls-21"
       d="m 180.85,181.91 c 0,0 -0.04,0 -0.06,0 -0.1,-0.03 -0.16,-0.14 -0.12,-0.24 0.18,-0.54 0.27,-1.11 0.27,-1.68 0,-0.57 -0.09,-1.14 -0.27,-1.68 -0.03,-0.1 0.02,-0.21 0.12,-0.24 0.1,-0.03 0.21,0.02 0.24,0.12 0.19,0.58 0.28,1.19 0.28,1.8 0,0.61 -0.1,1.22 -0.28,1.8 -0.03,0.08 -0.1,0.13 -0.18,0.13 z"
       id="path3208" />
    <path
       class="cls-21"
       d="m 175.52,183.64 c -2.02,0 -3.67,-1.65 -3.67,-3.67 0,-2.02 1.65,-3.67 3.67,-3.67 2.02,0 3.67,1.65 3.67,3.67 0,2.02 -1.65,3.67 -3.67,3.67 z m 0,-6.95 c -1.81,0 -3.28,1.47 -3.28,3.28 0,1.81 1.47,3.28 3.28,3.28 1.81,0 3.28,-1.47 3.28,-3.28 0,-1.81 -1.47,-3.28 -3.28,-3.28 z"
       id="path3210" />
    <path
       class="cls-21"
       d="m 173.62,177.14 c 0,0 -0.1,-0.02 -0.14,-0.06 l -1.43,-1.43 c -0.08,-0.08 -0.08,-0.2 0,-0.27 0.08,-0.08 0.2,-0.08 0.27,0 l 1.43,1.43 c 0.08,0.08 0.08,0.2 0,0.27 -0.04,0.04 -0.09,0.06 -0.14,0.06 z"
       id="path3212" />
    <path
       class="cls-21"
       d="m 172.52,178.25 c 0,0 -0.1,-0.02 -0.14,-0.06 l -1.43,-1.43 c -0.08,-0.08 -0.08,-0.2 0,-0.27 0.08,-0.08 0.2,-0.08 0.27,0 l 1.43,1.43 c 0.08,0.08 0.08,0.2 0,0.27 -0.04,0.04 -0.09,0.06 -0.14,0.06 z"
       id="path3214" />
    <path
       class="cls-21"
       d="m 179.97,183.49 c 0,0 -0.1,-0.02 -0.14,-0.06 L 178.4,182 c -0.08,-0.08 -0.08,-0.2 0,-0.27 0.08,-0.08 0.2,-0.08 0.27,0 l 1.43,1.43 c 0.08,0.08 0.08,0.2 0,0.27 -0.04,0.04 -0.09,0.06 -0.14,0.06 z"
       id="path3216" />
    <path
       class="cls-21"
       d="m 178.87,184.6 c 0,0 -0.1,-0.02 -0.14,-0.06 l -1.43,-1.43 c -0.08,-0.08 -0.08,-0.2 0,-0.27 0.08,-0.08 0.2,-0.08 0.27,0 l 1.43,1.43 c 0.08,0.08 0.08,0.2 0,0.27 -0.04,0.04 -0.09,0.06 -0.14,0.06 z"
       id="path3218" />
    <path
       class="cls-21"
       d="m 178.54,178.25 c 0,0 -0.1,-0.02 -0.14,-0.06 -0.08,-0.08 -0.08,-0.2 0,-0.27 l 1.43,-1.43 c 0.08,-0.08 0.2,-0.08 0.27,0 0.08,0.08 0.08,0.2 0,0.27 l -1.43,1.43 c 0,0 -0.09,0.06 -0.14,0.06 z"
       id="path3220" />
    <path
       class="cls-21"
       d="m 177.43,177.14 c 0,0 -0.1,-0.02 -0.14,-0.06 -0.08,-0.08 -0.08,-0.2 0,-0.27 l 1.43,-1.43 c 0.08,-0.08 0.2,-0.08 0.27,0 0.08,0.08 0.08,0.2 0,0.27 l -1.43,1.43 c 0,0 -0.09,0.06 -0.14,0.06 z"
       id="path3222" />
    <path
       class="cls-21"
       d="m 172.19,184.59 c 0,0 -0.1,-0.02 -0.14,-0.06 -0.08,-0.08 -0.08,-0.2 0,-0.27 l 1.43,-1.43 c 0.08,-0.08 0.2,-0.08 0.27,0 0.08,0.08 0.08,0.2 0,0.27 l -1.43,1.43 c 0,0 -0.09,0.06 -0.14,0.06 z"
       id="path3224" />
    <path
       class="cls-21"
       d="m 171.08,183.49 c 0,0 -0.1,-0.02 -0.14,-0.06 -0.08,-0.08 -0.08,-0.2 0,-0.27 l 1.43,-1.43 c 0.08,-0.08 0.2,-0.08 0.27,0 0.08,0.08 0.08,0.2 0,0.27 l -1.43,1.43 c 0,0 -0.09,0.06 -0.14,0.06 z"
       id="path3226" />
  </g>
  <polyline
     class="cls-15"
     points="174.94 151.5 174.94 156.25 179.44 156.25"
     id="polyline3229"
     transform="scale(2)" />
  <g
     id="_13"
     transform="scale(2)">
    <path
       class="cls-23"
       d="m 175.52,119.12 c -0.23,0 -0.41,-0.18 -0.41,-0.41 v -1.94 c 0,-0.23 0.18,-0.41 0.41,-0.41 0.23,0 0.41,0.18 0.41,0.41 v 1.94 c 0,0.23 -0.18,0.41 -0.41,0.41 z"
       id="path3231" />
    <path
       class="cls-23"
       d="m 163.81,128.96 h -1.94 c -0.23,0 -0.41,-0.18 -0.41,-0.41 0,-0.23 0.18,-0.41 0.41,-0.41 h 1.94 c 0.23,0 0.41,0.18 0.41,0.41 0,0.23 -0.18,0.41 -0.41,0.41 z"
       id="path3233" />
    <path
       class="cls-23"
       d="m 169.98,120.46 c -0.15,0 -0.29,-0.08 -0.37,-0.22 l -0.9,-1.72 c -0.11,-0.2 -0.03,-0.45 0.17,-0.56 0.2,-0.11 0.45,-0.03 0.56,0.17 l 0.9,1.72 c 0.11,0.2 0.03,0.45 -0.17,0.56 -0.06,0.03 -0.13,0.05 -0.19,0.05 z"
       id="path3235" />
    <path
       class="cls-23"
       d="m 165.85,123.99 c -0.09,0 -0.18,-0.03 -0.26,-0.09 l -1.52,-1.21 c -0.18,-0.14 -0.21,-0.4 -0.06,-0.58 0.14,-0.18 0.4,-0.21 0.58,-0.06 l 1.52,1.21 c 0.18,0.14 0.21,0.4 0.06,0.58 -0.08,0.1 -0.2,0.16 -0.32,0.16 z"
       id="path3237" />
    <path
       class="cls-23"
       d="m 189.17,128.96 h -1.94 c -0.23,0 -0.41,-0.18 -0.41,-0.41 0,-0.23 0.18,-0.41 0.41,-0.41 h 1.94 c 0.23,0 0.41,0.18 0.41,0.41 0,0.23 -0.18,0.41 -0.41,0.41 z"
       id="path3239" />
    <path
       class="cls-23"
       d="m 181.06,120.46 c -0.06,0 -0.13,-0.02 -0.19,-0.05 -0.2,-0.11 -0.28,-0.36 -0.17,-0.56 l 0.9,-1.72 c 0.11,-0.2 0.36,-0.28 0.56,-0.17 0.2,0.11 0.28,0.36 0.17,0.56 l -0.9,1.72 c -0.07,0.14 -0.22,0.22 -0.37,0.22 z"
       id="path3241" />
    <path
       class="cls-23"
       d="m 185.19,123.99 c -0.12,0 -0.24,-0.05 -0.32,-0.16 -0.14,-0.18 -0.11,-0.44 0.06,-0.58 l 1.52,-1.21 c 0.18,-0.14 0.44,-0.11 0.58,0.06 0.14,0.18 0.11,0.44 -0.06,0.58 l -1.52,1.21 c -0.08,0.06 -0.17,0.09 -0.26,0.09 z"
       id="path3243" />
    <path
       class="cls-14"
       d="m 183.8,135.53 h -16.56 c -0.23,0 -0.41,-0.18 -0.41,-0.41 v -5.18 c 0,-4.79 3.9,-8.69 8.69,-8.69 4.79,0 8.69,3.9 8.69,8.69 v 5.18 c 0,0.23 -0.18,0.41 -0.41,0.41 z"
       id="path3245" />
    <path
       class="cls-1"
       d="m 169.69,129.74 c 0.1,-3.12 2.68,-5.64 5.82,-5.64 0.11,0 0.21,0 0.32,0"
       id="path3247" />
  </g>
  <path
     class="cls-15"
     d="m 375.02,281 h -47.96 c -0.54,0 -0.96,-0.44 -0.96,-0.96 v -4.46 c 0,-3.3 2.68,-6 6,-6 H 370 c 3.3,0 6,2.68 6,6 v 4.46 c 0,0.54 -0.44,0.96 -0.96,0.96 z"
     id="path3250" />
  <path
     class="cls-14"
     d="M 320.54,437.18 H 141.1 v -88.02 h 179.44 z"
     id="path3252" />
  <path
     class="cls-15"
     d="M 325.4,351.82 H 136.2 l 9.28,-19.12 H 316.1 l 9.28,19.12 z"
     id="path3254" />
  <path
     class="cls-11"
     d="m 247.12,337.12 c -2.24,-6.48 -8.66,-11.16 -16.24,-11.16 -7.58,0 -14,4.68 -16.24,11.16 z"
     id="path3256" />
  <rect
     class="cls-14"
     x="212.34"
     y="337.32001"
     width="37.32"
     height="100.14"
     id="rect3258" />
  <path
     class="cls-14"
     d="m 207.82,343.2 h -60.94 l 0.56,-1.64 c 4.24,-12.32 16.26,-20.6 29.9,-20.6 13.64,0 25.66,8.28 29.9,20.6 l 0.56,1.64 z"
     id="path3260" />
  <path
     class="cls-5"
     d="m 193.14,340.9 3.86,-3.1 -2,-3.46 -4.62,1.8 c -0.72,-0.86 -1.5,-1.66 -2.38,-2.38 l 1.8,-4.62 -3.46,-2 -3.1,3.86 c -1.04,-0.4 -2.12,-0.68 -3.24,-0.86 l -0.76,-4.9 h -4 l -0.76,4.9 c -1.12,0.18 -2.2,0.48 -3.24,0.86 l -3.1,-3.86 -3.46,2 1.8,4.62 c -0.86,0.72 -1.66,1.5 -2.38,2.38 l -4.62,-1.8 -2,3.46 3.86,3.1 c -0.4,1.04 -0.46,1.3 -0.64,2.44"
     id="path3262" />
  <path
     class="cls-23"
     d="m 172.76,343 c 0,-2.48 2.02,-4.5 4.5,-4.5 2.48,0 4.5,2.02 4.5,4.5"
     id="path3264"
     style="stroke-width:1.99999" />
  <path
     class="cls-14"
     d="m 315.8,343.2 h -60.94 l 0.56,-1.64 c 4.24,-12.32 16.26,-20.6 29.9,-20.6 13.64,0 25.66,8.28 29.9,20.6 l 0.56,1.64 z"
     id="path3266" />
  <path
     class="cls-5"
     d="m 301.12,340.9 3.86,-3.1 -2,-3.46 -4.62,1.8 c -0.72,-0.86 -1.5,-1.66 -2.38,-2.38 l 1.8,-4.62 -3.46,-2 -3.1,3.86 c -1.04,-0.4 -2.12,-0.68 -3.24,-0.86 l -0.76,-4.9 h -4 l -0.76,4.9 c -1.12,0.18 -2.2,0.48 -3.24,0.86 l -3.1,-3.86 -3.46,2 1.8,4.62 c -0.86,0.72 -1.66,1.5 -2.38,2.38 l -4.62,-1.8 -2,3.46 3.86,3.1 c -0.4,1.04 -0.46,1.3 -0.64,2.44"
     id="path3268" />
  <path
     class="cls-23"
     d="m 280.74,343 c 0,-2.48 2.02,-4.5 4.5,-4.5 2.48,0 4.5,2.02 4.5,4.5"
     id="path3270"
     style="stroke-width:1.99999" />
  <rect
     class="cls-6"
     x="256.28"
     y="420.5"
     width="56.060001"
     height="16.84"
     id="rect3272" />
  <path
     class="cls-4"
     d="m 260.86,419.58 h 13.22 v -6.3 l -3.46,-1.16 -2.26,4.18 c -0.18,0.32 -0.52,0.52 -0.88,0.52 -0.36,0 -0.7,-0.2 -0.88,-0.52 l -2.26,-4.18 -3.46,1.16 v 6.3 0 z"
     id="path3274" />
  <path
     class="cls-4"
     d="m 267.48,409.24 c -2.92,0 -5.3,-2.38 -5.3,-5.3 0,-2.92 2.38,-5.3 5.3,-5.3 2.92,0 5.3,2.38 5.3,5.3 0,2.92 -2.38,5.3 -5.3,5.3 z"
     id="path3276" />
  <path
     class="cls-4"
     d="m 277.7,419.58 h 13.22 v -6.3 l -3.46,-1.16 -2.26,4.18 c -0.18,0.32 -0.52,0.52 -0.88,0.52 -0.36,0 -0.7,-0.2 -0.88,-0.52 l -2.26,-4.18 -3.46,1.16 v 6.3 0 z"
     id="path3278" />
  <path
     class="cls-4"
     d="m 284.3,409.24 c -2.92,0 -5.3,-2.38 -5.3,-5.3 0,-2.92 2.38,-5.3 5.3,-5.3 2.92,0 5.3,2.38 5.3,5.3 0,2.92 -2.38,5.3 -5.3,5.3 z"
     id="path3280" />
  <path
     class="cls-4"
     d="m 294.52,419.58 h 13.22 v -6.3 l -3.46,-1.16 -2.26,4.18 c -0.18,0.32 -0.52,0.52 -0.88,0.52 -0.36,0 -0.7,-0.2 -0.88,-0.52 l -2.26,-4.18 -3.46,1.16 v 6.3 0 z"
     id="path3282" />
  <path
     class="cls-4"
     d="m 301.14,409.24 c -2.92,0 -5.3,-2.38 -5.3,-5.3 0,-2.92 2.38,-5.3 5.3,-5.3 2.92,0 5.3,2.38 5.3,5.3 0,2.92 -2.38,5.3 -5.3,5.3 z"
     id="path3284" />
  <g
     id="_7"
     transform="scale(2)">
    <path
       class="cls-16"
       d="m 142.15,195 c 0,0 -0.09,-0.01 -0.12,-0.04 l -3.69,-2.58 c -0.67,-0.48 -1.24,-1.12 -1.63,-1.84 -0.4,-0.72 -0.63,-1.54 -0.67,-2.36 l -0.35,-5.98 c -0.02,-0.45 0.29,-0.85 0.73,-0.94 0.17,-0.03 0.39,-0.05 0.66,-0.05 0.05,0 0.1,0 0.15,0 1.19,0.02 2.34,-0.33 3.32,-1.02 l 1.16,-0.81 c 0.13,-0.09 0.28,-0.14 0.44,-0.14 0.16,0 0.31,0.05 0.44,0.14 l 1.19,0.83 c 0.95,0.66 2.06,1.01 3.23,1.01 0.04,0 0.08,0 0.12,0 0.05,0 0.09,0 0.14,0 0.25,0 0.45,0.02 0.6,0.05 0.44,0.09 0.76,0.49 0.73,0.94 l -0.35,5.98 c -0.04,0.82 -0.27,1.64 -0.67,2.36 -0.4,0.72 -0.96,1.36 -1.63,1.84 l -3.69,2.58 c 0,0 -0.08,0.04 -0.12,0.04 z"
       id="path3286" />
    <path
       class="cls-23"
       d="m 142.15,183.75 c -1.66,0 -3.01,1.35 -3.01,3.01 0,1.66 1.35,3.01 3.01,3.01 1.66,0 3.01,-1.35 3.01,-3.01 0,-1.66 -1.35,-3.01 -3.01,-3.01 z"
       id="path3288" />
    <path
       class="cls-21"
       d="m 141.75,188.02 c -0.06,0 -0.11,-0.02 -0.15,-0.06 l -0.88,-0.88 c -0.08,-0.08 -0.08,-0.22 0,-0.3 0.08,-0.08 0.22,-0.08 0.3,0 l 0.71,0.71 1.53,-1.9 c 0.07,-0.09 0.21,-0.11 0.3,-0.03 0.09,0.07 0.11,0.21 0.03,0.3 l -1.68,2.08 c 0,0 -0.09,0.08 -0.15,0.08 0,0 0,0 -0.01,0 z"
       id="path3290" />
  </g>
  <path
     class="cls-23"
     d="m 230.42,352.3 c -4.72,0 -8.58,3.84 -8.58,8.58 0,4.74 3.84,8.58 8.58,8.58 4.74,0 8.58,-3.84 8.58,-8.58 0,-4.74 -3.84,-8.58 -8.58,-8.58 z m 1.54,12.56 h -3.08 l 0.64,-3.88 c -0.74,-0.34 -1.26,-1.08 -1.26,-1.96 0,-1.18 0.96,-2.16 2.16,-2.16 1.2,0 2.16,0.96 2.16,2.16 0,0.88 -0.52,1.62 -1.26,1.96 z"
     id="path3293"
     style="stroke-width:1.99999" />
  <path
     class="cls-23"
     d="m 230.42,380.3 c -4.72,0 -8.58,3.84 -8.58,8.58 0,4.74 3.84,8.58 8.58,8.58 4.74,0 8.58,-3.84 8.58,-8.58 0,-4.74 -3.84,-8.58 -8.58,-8.58 z m 1.54,12.56 h -3.08 l 0.64,-3.88 c -0.74,-0.34 -1.26,-1.08 -1.26,-1.96 0,-1.18 0.96,-2.16 2.16,-2.16 1.2,0 2.16,0.96 2.16,2.16 0,0.88 -0.52,1.62 -1.26,1.96 z"
     id="path3295"
     style="stroke-width:1.99999" />
  <path
     class="cls-23"
     d="m 230.42,408.3 c -4.72,0 -8.58,3.84 -8.58,8.58 0,4.74 3.84,8.58 8.58,8.58 4.74,0 8.58,-3.84 8.58,-8.58 0,-4.74 -3.84,-8.58 -8.58,-8.58 z m 1.54,12.56 h -3.08 l 0.64,-3.88 c -0.74,-0.34 -1.26,-1.08 -1.26,-1.96 0,-1.18 0.96,-2.16 2.16,-2.16 1.2,0 2.16,0.96 2.16,2.16 0,0.88 -0.52,1.62 -1.26,1.96 z"
     id="path3297"
     style="stroke-width:1.99999" />
  <rect
     class="cls-23"
     x="151.56"
     y="366.06"
     width="12.94"
     height="12.94"
     id="rect3299"
     style="stroke-width:1.99999" />
  <line
     class="cls-17"
     x1="171.24001"
     y1="372.23999"
     x2="200.75999"
     y2="372.23999"
     id="line3301" />
  <path
     class="cls-22"
     d="m 158.84,375.5 c -0.3,0 -0.58,-0.12 -0.8,-0.32 l -4.6,-4.6 c -0.44,-0.44 -0.44,-1.14 0,-1.58 0.44,-0.44 1.14,-0.44 1.58,0 l 3.72,3.72 8.02,-9.94 c 0.38,-0.48 1.1,-0.56 1.58,-0.16 0.48,0.38 0.56,1.1 0.16,1.58 l -8.8,10.9 c -0.2,0.24 -0.5,0.4 -0.82,0.42 0,0 -0.04,0 -0.06,0 z"
     id="path3303"
     style="stroke-width:1.99999" />
  <rect
     class="cls-23"
     x="151.56"
     y="385.56"
     width="12.94"
     height="12.94"
     id="rect3305"
     style="stroke-width:1.99999" />
  <line
     class="cls-17"
     x1="171.24001"
     y1="391.76001"
     x2="200.75999"
     y2="391.76001"
     id="line3307" />
  <path
     class="cls-22"
     d="m 158.84,395 c -0.3,0 -0.58,-0.12 -0.8,-0.32 l -4.6,-4.6 c -0.44,-0.44 -0.44,-1.14 0,-1.58 0.44,-0.44 1.14,-0.44 1.58,0 l 3.72,3.72 8.02,-9.94 c 0.38,-0.48 1.1,-0.56 1.58,-0.16 0.48,0.38 0.56,1.1 0.16,1.58 l -8.8,10.9 c -0.2,0.24 -0.5,0.4 -0.82,0.42 0,0 -0.04,0 -0.06,0 z"
     id="path3309"
     style="stroke-width:1.99999" />
  <rect
     class="cls-23"
     x="151.56"
     y="405.06"
     width="12.94"
     height="12.94"
     id="rect3311"
     style="stroke-width:1.99999" />
  <line
     class="cls-17"
     x1="171.24001"
     y1="411.23999"
     x2="200.75999"
     y2="411.23999"
     id="line3313" />
  <path
     class="cls-22"
     d="m 158.84,414.5 c -0.3,0 -0.58,-0.12 -0.8,-0.32 l -4.6,-4.6 c -0.44,-0.44 -0.44,-1.14 0,-1.58 0.44,-0.44 1.14,-0.44 1.58,0 l 3.72,3.72 8.02,-9.94 c 0.38,-0.48 1.1,-0.56 1.58,-0.16 0.48,0.38 0.56,1.1 0.16,1.58 l -8.8,10.9 c -0.2,0.24 -0.5,0.4 -0.82,0.42 0,0 -0.04,0 -0.06,0 z"
     id="path3315"
     style="stroke-width:1.99999" />
  <path
     class="cls-23"
     d="m 261.5,294.8 h -31.22 v 19.78 h 31.22 l -7.28,-9.88 7.28,-9.88 v 0 z"
     id="path3317"
     style="stroke-width:1.99999" />
  <path
     class="cls-15"
     d="m 230.66,327.5 v -35"
     id="path3319" />
  <path
     class="cls-22"
     d="m 243.64,309.88 c 0,0 -0.06,0 -0.08,-0.02 l -2.48,-1.74 c -0.46,-0.32 -0.84,-0.76 -1.1,-1.24 -0.26,-0.48 -0.42,-1.04 -0.46,-1.6 l -0.24,-4.04 c 0,-0.3 0.2,-0.58 0.5,-0.64 0.12,-0.02 0.26,-0.04 0.44,-0.04 0.04,0 0.06,0 0.1,0 0.8,0 1.58,-0.22 2.24,-0.68 l 0.78,-0.54 c 0,0 0.18,-0.1 0.3,-0.1 0.12,0 0.2,0.04 0.3,0.1 l 0.8,0.56 c 0.64,0.44 1.4,0.68 2.18,0.68 0.02,0 0.06,0 0.08,0 0.04,0 0.06,0 0.1,0 0.16,0 0.3,0 0.4,0.04 0.3,0.06 0.5,0.34 0.5,0.64 l -0.24,4.04 c -0.02,0.56 -0.18,1.1 -0.46,1.6 -0.26,0.48 -0.64,0.92 -1.1,1.24 l -2.48,1.74 c 0,0 -0.06,0.02 -0.08,0.02 z"
     id="path3321"
     style="stroke-width:1.99999" />
  <path
     class="cls-23"
     d="m 383.5,480 c 0,0 -0.16,-0.04 -0.22,-0.08 l -1.16,-1.16 c 0,0 -0.1,-0.18 -0.08,-0.28 0.02,-0.1 0.1,-0.18 0.2,-0.22 0.24,-0.06 0.3,-0.12 0.3,-0.14 0.08,-0.08 0.12,-0.18 0.12,-0.3 0,-0.12 -0.04,-0.22 -0.12,-0.3 -0.16,-0.16 -0.44,-0.16 -0.6,0 0,0 -0.06,0.06 -0.12,0.3 -0.02,0.1 -0.12,0.18 -0.22,0.2 -0.1,0.02 -0.22,0 -0.28,-0.08 l -1.16,-1.16 c -0.12,-0.12 -0.12,-0.3 0,-0.42 l 1.1,-1.1 c 0,0 -0.08,-0.06 -0.12,-0.1 -0.2,-0.2 -0.3,-0.46 -0.3,-0.72 0,-0.26 0.1,-0.54 0.3,-0.72 0.38,-0.38 1.06,-0.38 1.46,0 0.04,0.04 0.06,0.06 0.1,0.12 l 1.1,-1.1 c 0.12,-0.12 0.3,-0.12 0.42,0 l 1.16,1.16 c 0,0 0.1,0.18 0.08,0.28 -0.02,0.1 -0.1,0.18 -0.2,0.22 -0.24,0.06 -0.3,0.12 -0.3,0.12 -0.16,0.16 -0.16,0.44 0,0.6 0.16,0.16 0.44,0.16 0.6,0 0,0 0.06,-0.06 0.12,-0.3 0.02,-0.1 0.12,-0.18 0.22,-0.2 0.1,-0.02 0.22,0 0.28,0.08 l 1.16,1.16 c 0.12,0.12 0.12,0.3 0,0.42 l -1.1,1.1 c 0,0 0.08,0.06 0.12,0.08 0.2,0.2 0.3,0.46 0.3,0.72 0,0.26 -0.1,0.54 -0.3,0.72 -0.38,0.38 -1.06,0.38 -1.44,0 -0.04,-0.04 -0.06,-0.06 -0.1,-0.12 l -1.1,1.1 c 0,0 -0.14,0.08 -0.22,0.08 v 0 z"
     id="path3323"
     style="stroke-width:1.99999" />
  <circle
     class="cls-22"
     cx="118.02"
     cy="232.24001"
     id="circle3325"
     style="stroke-width:1.99999"
     r="9.2200003" />
  <path
     class="cls-23"
     d="m 139.4,231.4 c -3.74,-6.12 -12.02,-10.08 -21.08,-10.08 -9.06,0 -17.32,3.96 -21.08,10.08 -0.22,0.36 -0.22,0.8 0,1.14 3.76,6.12 12.02,10.08 21.08,10.08 9.06,0 17.34,-3.96 21.08,-10.08 0.22,-0.36 0.22,-0.8 0,-1.14 z m -39.92,0.58 c 2.34,-3.44 6.4,-6.04 11.2,-7.4 -1.86,1.92 -3,4.52 -3,7.4 0,2.88 1.16,5.48 3,7.4 -4.8,-1.36 -8.84,-3.96 -11.2,-7.4 z m 18.84,8.48 c -4.68,0 -8.46,-3.8 -8.46,-8.48 0,-4.68 3.8,-8.48 8.46,-8.48 4.66,0 8.48,3.8 8.48,8.48 0,4.68 -3.8,8.48 -8.48,8.48 z m 7.66,-1.08 c 1.86,-1.92 3.02,-4.52 3.02,-7.4 0,-2.88 -1.16,-5.48 -3,-7.4 4.8,1.36 8.84,3.96 11.18,7.4 -2.34,3.44 -6.4,6.02 -11.2,7.4 z"
     id="path3327"
     style="stroke-width:1.99999" />
  <path
     class="cls-23"
     d="m 118.32,225.58 c -0.62,0 -1.28,0.1 -1.96,0.34 -0.4,0.12 -0.68,0.46 -0.74,0.86 -0.06,0.42 0.1,0.82 0.44,1.06 0.26,0.18 0.68,0.6 0.68,1.24 0,0.88 -0.7,1.58 -1.58,1.58 -0.6,0 -0.98,-0.36 -1.16,-0.56 -0.28,-0.3 -0.7,-0.46 -1.1,-0.34 -0.4,0.1 -0.72,0.42 -0.8,0.82 -0.1,0.5 -0.16,0.96 -0.16,1.42 0,3.52 2.86,6.4 6.38,6.4 3.52,0 6.4,-2.86 6.4,-6.4 0,-3.54 -2.86,-6.38 -6.4,-6.38 z"
     id="path3329"
     style="stroke-width:1.99999" />
  <path
     class="cls-21"
     d="m 118.32,236.18 c -2.06,0 -3.78,-1.5 -4.14,-3.46 0.32,0.1 0.64,0.14 0.98,0.14 2.08,0 3.76,-1.7 3.76,-3.76 0,-0.44 -0.08,-0.88 -0.24,-1.28 2.14,0.18 3.84,1.98 3.84,4.18 0,2.32 -1.88,4.2 -4.2,4.2 z"
     id="path3331"
     style="stroke-width:1.99999" />
  <path
     class="cls-5"
     d="m 512.5,438.12 c -68.04,0 -286.2,0 -365.7,0"
     id="path3333" />
  <path
     class="cls-5"
     d="m 157.72,438.12 c -3.72,0 -27.12,0 -30.66,0"
     id="path3335" />
  <path
     class="cls-5"
     d="m 109.72,438.12 c -33.14,0 -35.5,0 -35.5,0"
     id="path3337" />
  <path
     class="cls-5"
     d="m 127.06,437.46 c 0,-4.7 -3.8,-8.5 -8.5,-8.5 -4.7,0 -8.5,3.8 -8.5,8.5"
     id="path3339" />
</svg>
