<svg xmlns="http://www.w3.org/2000/svg" id="world-multilingual" width="600" height="600" viewBox="0 0 600 600"><defs id="defs1997"><style id="style1995">.cls-1,.cls-10,.cls-2,.cls-3,.cls-4,.cls-5,.cls-7,.cls-8,.cls-9{stroke:#7836b2}.cls-1,.cls-10,.cls-13,.cls-2,.cls-3,.cls-4,.cls-5,.cls-9{stroke-width:1.5px}.cls-1,.cls-13,.cls-14,.cls-16,.cls-17,.cls-2,.cls-3,.cls-5,.cls-7,.cls-8{fill:none}.cls-1,.cls-10,.cls-13,.cls-14,.cls-3,.cls-7{stroke-linecap:round}.cls-1,.cls-10,.cls-13,.cls-4,.cls-5{stroke-linejoin:round}.cls-14,.cls-16,.cls-17,.cls-2,.cls-3,.cls-7,.cls-8,.cls-9{stroke-miterlimit:10}.cls-10,.cls-18,.cls-4,.cls-9{fill:#fff}.cls-19{fill:#bb9ad8}.cls-20{fill:#7836b2}.cls-14,.cls-7{stroke-width:.5px}.cls-13,.cls-14,.cls-16{stroke:#bb9ad8}.cls-17{stroke:#fff}</style></defs><circle id="circle1999" cx="293.4" cy="305.74" r="211.22" style="fill:#e3e0e0;opacity:.5;stroke-width:1.99999"/><path id="path2001" d="M519.5 180.42h-11.92a4.14 4.14 0 0 1-4.12-4.12 4.14 4.14 0 0 1 4.12-4.12h21.6c2.56-.4 4.78-2.22 5.26-4.8a6.02 6.02 0 0 0-5.9-7.12h-79.88a4.14 4.14 0 0 1-4.12-4.12 4.14 4.14 0 0 1 4.12-4.12h.96q.45-.12.94-.12h37.04c2.1 0 3.82-1.52 3.82-3.38 0-1.64 1.34-3.02 3.1-3.32h16.2c3.3 0 6-2.7 6-6s-2.7-6-6-6H343.88c-3.3 0-6 2.7-6 6s2.7 6 6 6h16.18c1.76.3 3.1 1.68 3.1 3.32 0 1.86 1.72 3.38 3.82 3.38l43.68.12a4.14 4.14 0 0 1 4.12 4.12 4.14 4.14 0 0 1-4.12 4.12h-8.16c-2.96 0-5.72 1.98-6.26 4.88a6.02 6.02 0 0 0 5.9 7.12h32.34c1.02.12 2.3.06 3.5.24h15.94a4.14 4.14 0 0 1 4.12 4.12 4.14 4.14 0 0 1-4.12 4.12h-22.26a5.9 5.9 0 0 0-3.58 4.3 6.02 6.02 0 0 0 5.9 7.12h83.54c2.96 0 5.72-1.98 6.26-4.88a6 6 0 0 0-4.28-6.86" class="cls-18" style="stroke-width:1.99999"/><path id="path2003" d="M519.4 243.5h-39.88l-.08-.08h-.06a4.14 4.14 0 0 1-4.12-4.12v-2.04a4.14 4.14 0 0 1 4.12-4.12h52.7c2.82 0 5.12-2.04 5.12-4.54s2.3-4.54 5.12-4.54h18.38a5.36 5.36 0 0 0 5.38-5.4c0-2.96-2.42-5.4-5.4-5.4H341.74a5.42 5.42 0 0 0-3.82 9.22 5.4 5.4 0 0 0 3.8 1.58h18.38c2.82 0 5.12 2.04 5.12 4.54s2.3 4.54 5.12 4.54h72.7a4.16 4.16 0 0 1 4.12 4.14v2.04a4.14 4.14 0 0 1-4.12 4.12l-110.66.08a8.5 8.5 0 0 0-8.5 8.5c0 4.68 3.82 8.5 8.5 8.5h187c4.68 0 8.5-3.82 8.5-8.5s-3.82-8.5-8.5-8.5z" class="cls-19" style="stroke-width:1.99999"/><path id="path2005" d="m136.92 200.54 7.26-.24a5.7 5.7 0 0 0 5.66-5.66v-.44a5.7 5.7 0 0 0-5.66-5.66h-18.74a6.1 6.1 0 0 1-5.06-4.78 6.02 6.02 0 0 1 5.9-7.12h126.04c2.96 0 5.72 1.98 6.26 4.88a6 6 0 0 1-4.88 7h-49.24a5.7 5.7 0 0 0-5.66 5.66v.44a5.7 5.7 0 0 0 5.66 5.66l16.02.24c2.96 0 5.72 1.98 6.26 4.88a6.02 6.02 0 0 1-5.9 7.12H137.3c-2.96 0-5.72-1.98-6.26-4.88a6.02 6.02 0 0 1 5.9-7.12z" class="cls-18" style="stroke-width:1.99999"/><rect id="rect2007" width="47.02" height="11.34" x="-280.82" y="-212.56" class="cls-18" rx="5.66" ry="5.66" style="stroke-width:1.99999" transform="scale(-1)"/><circle id="circle2009" cx="298.72" cy="128.94" r="2.94" style="stroke:#7836b2;fill:none;stroke-linecap:round;stroke-miterlimit:10;stroke-width:.41px"/><circle id="circle2011" cx="215.7" cy="122.06" r="3.68" class="cls-16" style="stroke-width:1.99999"/><circle id="circle2013" cx="206.28" cy="160.66" r="2.4" class="cls-8" style="stroke-width:1.99999"/><circle id="circle2015" cx="308.66" cy="199.72" r="2.4" class="cls-19" style="stroke-width:1.99999"/><circle id="circle2017" cx="257.12" cy="142.2" r="2.4" class="cls-20" style="stroke-width:1.99999"/><path id="line2019" d="M168.6 122.06v5.46" class="cls-7"/><path id="line2021" d="M171.32 124.78h-5.46" class="cls-7"/><circle id="circle2023" cx="272.52" cy="184.1" r="3.68" class="cls-17" style="stroke-width:1.99999"/><circle id="circle2025" cx="294" cy="170.66" r="2.4" class="cls-18" style="stroke-width:1.99999"/><circle id="circle2027" cx="495.26" cy="291.4" r="3.68" class="cls-16" style="stroke-width:1.99999"/><circle id="circle2029" cx="485.84" cy="330.02" r="2.4" class="cls-8" style="stroke-width:1.99999"/><circle id="circle2031" cx="536.7" cy="311.56" r="2.4" class="cls-20" style="stroke-width:1.99999"/><path id="line2033" d="M448.16 291.4v5.46" class="cls-7"/><path id="line2035" d="M450.9 294.14h-5.48" class="cls-7"/><circle id="circle2037" cx="128.36" cy="311.92" r="2.94" class="cls-14"/><circle id="circle2039" cx="76" cy="223.22" r="2.94" class="cls-14"/><circle id="circle2041" cx="98" cy="254.34" r="3.68" class="cls-16" style="stroke-width:1.99999"/><circle id="circle2043" cx="35.32" cy="305.04" r="3.68" class="cls-17" style="stroke-width:1.99999"/><circle id="circle2045" cx="88.58" cy="292.96" r="2.4" class="cls-8" style="stroke-width:1.99999"/><circle id="circle2047" cx="101.18" cy="334.1" r="2.4" class="cls-19" style="stroke-width:1.99999"/><circle id="circle2049" cx="139.44" cy="274.5" r="2.4" class="cls-20" style="stroke-width:1.99999"/><circle id="circle2051" cx="67.64" cy="322.3" r="2.4" class="cls-18" style="stroke-width:1.99999"/><path id="line2053" d="M50.9 254.34v5.48" class="cls-7"/><path id="line2055" d="M53.62 257.08h-5.46" class="cls-7"/><path id="line2057" d="M154.58 298.3v5.46" class="cls-14"/><path id="line2059" d="M157.32 301.04h-5.48" class="cls-14"/><circle id="circle2061" cx="157.26" cy="461.04" r="2.94" class="cls-14"/><circle id="circle2063" cx="217.54" cy="485.58" r="3.68" class="cls-16" style="stroke-width:1.99999"/><circle id="circle2065" cx="186.54" cy="457.8" r="2.4" class="cls-19" style="stroke-width:1.99999"/><circle id="circle2067" cx="182.66" cy="486.3" r="8.04" class="cls-19" style="stroke-width:1.99999"/><circle id="circle2069" cx="226.2" cy="457.46" r="2.4" class="cls-20" style="stroke-width:1.99999"/><path id="line2071" d="m145.94 488.34-3.52-4.18" class="cls-14"/><path id="line2073" d="m142.1 488 4.18-3.52" class="cls-14"/><path id="path2075" d="m84.32 434.66 72.96-127.06a16.96 16.96 0 0 1 29.42 0l72.96 127.06" class="cls-18" style="stroke-width:1.99999"/><path id="path2077" d="M154.64 328.08q1.3-.88 2.9-1.34a10 10 0 0 1 8.84 1.72" class="cls-13"/><path id="path2079" d="M180.98 339.76q1.3-.88 2.9-1.34a10 10 0 0 1 8.84 1.72" class="cls-13"/><path id="path2081" d="M155.64 350.08q1.3-.88 2.9-1.34a10 10 0 0 1 8.84 1.72" class="cls-13"/><path id="path2083" d="M128.3 371.42q1.3-.88 2.9-1.34a10 10 0 0 1 8.84 1.72" class="cls-13"/><path id="path2085" d="m142.98 434.66 73.44-84.88a18.83 18.83 0 0 1 28.48 0l73.44 84.88" class="cls-19" style="stroke-width:1.99999"/><path id="line2087" d="M355.34 455.64H478" class="cls-3"/><path id="line2089" d="M320.66 470.96h84.68" class="cls-3"/><path id="line2091" d="M393.34 484.3H438" class="cls-3"/><path id="rect2093" d="M289.2 304.34h79v130.5h-79z" class="cls-4"/><path id="line2095" d="M289.98 314.34h77.5" class="cls-5"/><path id="rect2097" d="M296.96 329.84h63.5v30h-63.5z" class="cls-5"/><circle id="circle2099" cx="295.24" cy="309.58" r="1.5" class="cls-20" style="stroke-width:1.99999"/><circle id="circle2101" cx="299.76" cy="309.58" r="1.5" class="cls-20" style="stroke-width:1.99999"/><circle id="circle2103" cx="304.24" cy="309.58" r="1.5" class="cls-20" style="stroke-width:1.99999"/><circle id="circle2105" cx="302.76" cy="377.84" r="6.76" class="cls-20" style="stroke-width:1.99999"/><path id="line2107" d="M315 375.08h44" class="cls-1"/><path id="line2109" d="M315 382.08h44" class="cls-1"/><path id="rect2111" d="M290.8 393.84h75.8v39.66h-75.8z" class="cls-19" style="stroke-width:1.99999"/><path id="rect2113" d="M297.7 401.58h14.5v14.5h-14.5z" class="cls-5"/><path id="rect2115" d="M321.46 401.58h14.5v14.5h-14.5z" class="cls-5"/><path id="rect2117" d="M345.2 401.58h14.5v14.5h-14.5z" class="cls-5"/><circle id="circle2119" cx="324.2" cy="424.58" r="1.5" class="cls-20" style="stroke-width:1.99999"/><circle id="circle2121" cx="328.7" cy="424.58" r="1.5" class="cls-20" style="stroke-width:1.99999"/><circle id="circle2123" cx="333.2" cy="424.58" r="1.5" class="cls-20" style="stroke-width:1.99999"/><path id="rect2125" d="M147 363.34h84v12.76h-84z" class="cls-18" style="stroke-width:1.99999"/><path id="rect2127" d="M145.9 375.78h86.12v60.24H145.9z" class="cls-19" style="stroke-width:1.99999"/><path id="polyline2129" d="M72.86 216.7v-35.62h43.25v35.62" class="cls-1" transform="scale(2)"/><circle id="circle2131" cx="154.3" cy="368.86" r="2.34" class="cls-20" style="stroke-width:1.99999"/><circle id="circle2133" cx="162.3" cy="368.86" r="2.34" class="cls-20" style="stroke-width:1.99999"/><circle id="circle2135" cx="170.3" cy="368.86" r="2.34" class="cls-20" style="stroke-width:1.99999"/><path id="path2137" d="m205.62 409.94-4.68 3.76-.3-3.76-3.08.48-.42-3.46-2.1 1.06-.62-.48-1.86-1.8-.54 2.38 1.44 1.4-6.02 5.62-1.66.22-.08-3.1 1.1-4.66-2.2-1.08-.26-2.02 2.7-2.74 2.06.4.84 1.24 3.04.58-2.34-2.92-2.36-1.52.18-.78 3.02-.26-.38-1.96 3.42-1.04 2.26 2.04 4.96.64 4.42-.22a18.85 18.85 0 0 0-22.68-10.08l-1.22.84-3.06 2.24s-.12.16-.1.26l.4 2.38s.1.2.18.22q.16.06.28-.02l1.72-1.14 1.02 3.3-5.5 1.62-2.36-.8q-.18-.05-.3.06l-1.06 1.1s-.08.16-.06.26l.72 2.5-1.98-2.14-.22-.72-.24.52a18.96 18.96 0 0 0 9.7 24.96 18.96 18.96 0 0 0 26.42-15l-2.2 1.64zm-14.1-20.32-2.44 3.24-3.6.88-.26-4.78c3.46-.12 5.52.42 6.3.68zm-18.58 23.92-.04-2.14 1.66-3.66.02-.14-.3-3.54 3.14-2.74 2.98 6.18-7.44 6.04z" class="cls-19" style="stroke-width:1.99999"/><path id="line2139" d="M146.56 375.78H232" class="cls-4"/><path id="path2141" d="M83.7 387.94a8.97 8.97 0 0 0-8.96 8.96c0 4.94 9 14.94 8.96 14.94s8.96-9.98 8.96-14.94a8.96 8.96 0 0 0-8.96-8.96m0 10.96a2.99 2.99 0 0 1 0-5.96 2.99 2.99 0 0 1 0 5.96" class="cls-20" style="stroke-width:1.99999"/><path id="line2143" d="M83.66 407v28.5" class="cls-3"/><path id="path2145" d="M99.7 360.28a8.97 8.97 0 0 0-8.96 8.96c0 4.94 9 14.94 8.96 14.94s8.96-9.98 8.96-14.94a8.96 8.96 0 0 0-8.96-8.96m0 10.96a2.99 2.99 0 0 1 0-5.96 2.99 2.99 0 0 1 0 5.96" class="cls-20" style="stroke-width:1.99999"/><path id="line2147" d="M99.66 379.34v55.32" class="cls-3"/><path id="path2149" d="M113.04 410.62a8.97 8.97 0 0 0-8.96 8.96c0 4.94 9 14.94 8.96 14.94s8.96-9.98 8.96-14.94a8.96 8.96 0 0 0-8.96-8.96m0 10.96a2.99 2.99 0 0 1 0-5.96 2.99 2.99 0 0 1 0 5.96" class="cls-20" style="stroke-width:1.99999"/><path id="path2151" d="M232.04 332.12a8.97 8.97 0 0 0-8.96 8.96c0 4.94 9 14.94 8.96 14.94s8.96-9.98 8.96-14.94a8.96 8.96 0 0 0-8.96-8.96m0 10.96a2.99 2.99 0 0 1 0-5.96 2.99 2.99 0 0 1 0 5.96" class="cls-20" style="stroke-width:1.99999"/><path id="path2153" d="M444.38 387.94a8.97 8.97 0 0 0-8.96 8.96c0 4.94 9 14.94 8.96 14.94s8.96-9.98 8.96-14.94a8.96 8.96 0 0 0-8.96-8.96m0 10.96a2.99 2.99 0 0 1 0-5.96 2.99 2.99 0 0 1 0 5.96" class="cls-20" style="stroke-width:1.99999"/><path id="line2155" d="M444.34 407v28.5" class="cls-3"/><path id="path2157" d="M460.38 360.28a8.97 8.97 0 0 0-8.96 8.96c0 4.94 9 14.94 8.96 14.94s8.96-9.98 8.96-14.94a8.96 8.96 0 0 0-8.96-8.96m0 10.96a2.99 2.99 0 0 1 0-5.96 2.99 2.99 0 0 1 0 5.96" class="cls-20" style="stroke-width:1.99999"/><path id="line2159" d="M460.34 379.34v55.32" class="cls-3"/><path id="path2161" d="M473.7 410.62a8.97 8.97 0 0 0-8.96 8.96c0 4.94 9 14.94 8.96 14.94s8.96-9.98 8.96-14.94a8.96 8.96 0 0 0-8.96-8.96m0 10.96a2.99 2.99 0 0 1 0-5.96 2.99 2.99 0 0 1 0 5.96" class="cls-20" style="stroke-width:1.99999"/><path id="rect2163" d="M356.98 348.26h64.06v86.66h-64.06z" style="stroke:#7836b2;stroke-linejoin:round;fill:#bb9ad8;stroke-width:1.57px"/><path id="path2165" d="M387.32 386.92H366.9a1.9 1.9 0 0 1-1.9-1.9v-23.66c0-1.06.86-1.9 1.9-1.9h20.42c1.06 0 1.9.86 1.9 1.9v23.66a1.9 1.9 0 0 1-1.9 1.9" class="cls-20" style="stroke-width:1.99999"/><path id="path2167" d="M378.16 375.12h-4.08l-.48 1.12a3 3 0 0 0-.24.92q0 .48.4.72.24.15 1.14.2v.32h-3.84v-.32q.63-.1 1.02-.52.4-.42.98-1.74l4.14-9.22h.16l4.18 9.48q.6 1.35.98 1.7.29.27.82.3v.32h-5.6v-.32h.24q.66 0 .94-.18.18-.14.18-.4.02-.15-.06-.32-.01-.08-.26-.64l-.62-1.44zm-.28-.64-1.72-3.98-1.78 3.98z" class="cls-19" style="stroke-width:1.99999"/><path id="line2169" d="M394.46 361.84h17.76" class="cls-3"/><path id="line2171" d="M394.46 371.08h17.76" class="cls-3"/><path id="line2173" d="M394.46 380.34h17.76" class="cls-3"/><path id="line2175" d="M365.96 394.58h17.76" class="cls-3"/><path id="line2177" d="M365.96 404.08h10.5" class="cls-3"/><path id="line2179" d="M366.14 422h10.5" class="cls-3"/><path id="line2181" d="M401.72 422h10.5" class="cls-3"/><path id="line2183" d="M381.8 404.08h30.42" class="cls-3"/><path id="line2185" d="M365.8 413.66h46.42" class="cls-3"/><path id="line2187" d="M400.14 394.58h12.08" class="cls-3"/><path id="line2189" d="M388.08 394.58h7.74" class="cls-3"/><path id="rect2191" d="M383.18 419.66h11.66v15h-11.66z" class="cls-2"/><path id="polygon2193" d="m203.87 172.17.97 3.66 3.78-3.49 9.87-.85v-13.35h-18.37v13.35z" class="cls-18" transform="scale(2)"/><path id="rect2195" d="M-330.18 400.36h13.78v37.22h-13.78z" class="cls-19" style="stroke-width:1.99999" transform="rotate(-90)"/><path id="path2197" d="M400.38 315.12h36.34c.7 0 1.28.58 1.28 1.28v26.64c0 .7-.58 1.28-1.28 1.28h-18.58q-.53.01-.9.38l-6.74 6.74c-.8.8-2.18.24-2.18-.9v-4.92c0-.7-.58-1.28-1.28-1.28h-6.66c-.7 0-1.28-.58-1.28-1.28v-26.64c0-.7.58-1.28 1.28-1.28z" class="cls-2"/><path id="polygon2199" d="m196.63 154.73-.95 3.58-3.7-3.41-9.67-.83v-13.08h18v13.08z" class="cls-18" transform="scale(2)"/><path id="polygon2201" d="m185 141.18 4.24 6.41-4.24 6.7h-2.9v-13.11z" class="cls-19" transform="scale(2)"/><path id="line2203" d="M376.16 295.18h24.18" style="fill:none;stroke-miterlimit:10;stroke:#bb9ad8;stroke-width:1.45px"/><path id="path2205" d="M400.48 280.84h-35.6c-.7 0-1.26.56-1.26 1.26v26.1c0 .7.56 1.26 1.26 1.26h18.2c.34 0 .66.14.88.36l6.6 6.6c.78.78 2.14.24 2.14-.88v-4.82c0-.7.56-1.26 1.26-1.26h6.52c.7 0 1.26-.56 1.26-1.26v-26.1c0-.7-.56-1.26-1.26-1.26z" class="cls-2"/><path id="polygon2207" d="m207.01 152.34.63 2.37 2.45-2.26 6.4-.55v-8.65h-11.91v8.65z" class="cls-18" transform="scale(2)"/><path id="path2209" d="M409.26 285.74h23.54c.46 0 .82.38.82.82v17.26c0 .46-.38.82-.82.82h-12.04a.8.8 0 0 0-.58.24l-4.36 4.36c-.52.52-1.42.16-1.42-.58v-3.2a.8.8 0 0 0-.82-.82h-4.32a.8.8 0 0 1-.82-.82v-17.26c0-.46.38-.82.82-.82z" class="cls-2"/><circle id="circle2211" cx="421.04" cy="295.66" r="3.66" class="cls-20" style="stroke-width:1.99999"/><path id="line2213" d="M224.66 391.66h-27.24" class="cls-10"/><path id="rect2215" d="M245.92 392.88h19.88v21.38h-19.88z" class="cls-18" style="stroke-width:1.99999"/><path id="rect2217" d="M-254.22-324.4h30.72v23.34h-30.72z" class="cls-18" style="stroke-width:1.99999" transform="scale(-1)"/><path id="rect2219" d="M-254.22-324.4h15.66v23.34h-15.66z" class="cls-19" style="stroke-width:1.99999" transform="scale(-1)"/><path id="path2221" d="M221.22 300.2v24.76c0 .84.68 1.52 1.52 1.52h31.36v62.3h3.04V300.2c0-.84-.68-1.52-1.52-1.52h-32.9c-.84 0-1.52.68-1.52 1.52zm3.04 1.52h29.84v21.72h-29.84z" class="cls-20" style="stroke-width:1.99999"/><path id="rect2223" d="M263.56 282.46h30.86V306h-30.86z" class="cls-18" style="stroke-width:1.99999"/><path id="rect2225" d="M263.56 282.46h9.8v23.34h-9.8z" class="cls-19" style="stroke-width:1.99999"/><path id="rect2227" d="M283.9 282.14h9.8v23.34h-9.8z" class="cls-19" style="stroke-width:1.99999"/><path id="path2229" d="M295.36 280.1h-32.9c-.84 0-1.52.68-1.52 1.52v106.6h3.04v-80.3h31.36c.84 0 1.52-.68 1.52-1.52v-24.76c0-.84-.68-1.52-1.52-1.52zm-1.52 24.76H264v-21.72h29.84z" class="cls-20" style="stroke-width:1.99999"/><path id="rect2231" d="M270.8 320.72h30.86v23.54H270.8z" class="cls-19" style="stroke-width:1.99999"/><path id="polygon2233" d="m140.2 160.3 4.13 5.63-4.13 6.04h-4.91V160.3z" class="cls-19" transform="scale(2)"/><path id="path2235" d="M302.64 317.98h-32.9c-.84 0-1.52.68-1.52 1.52v94.6h3.04v-68.3h31.36c.84 0 1.52-.68 1.52-1.52v-24.76c0-.84-.68-1.52-1.52-1.52zm-1.52 24.76h-29.84v-21.72h29.84z" class="cls-20" style="stroke-width:1.99999"/><path id="path2237" d="M278.18 409.3c-.68-.68-1.56-1-2.44-1h-13.76a3.4 3.4 0 0 0-3.44 3.44 3.4 3.4 0 0 0 3.44 3.44h13.76a3.4 3.4 0 0 0 3.44-3.44 3.5 3.5 0 0 0-1-2.44z" class="cls-9"/><path id="path2239" d="M262 408.3h13.76a3.4 3.4 0 0 0 3.44-3.44 3.4 3.4 0 0 0-3.44-3.44h-10.32" class="cls-9"/><path id="path2241" d="M265.44 401.42h10.32a3.4 3.4 0 0 0 3.44-3.44 3.4 3.4 0 0 0-3.44-3.44h-10.32" class="cls-9"/><path id="path2243" d="M265.44 394.54h10.32a3.4 3.4 0 0 0 3.44-3.44 3.4 3.4 0 0 0-3.44-3.44H262" class="cls-9"/><path id="path2245" d="M262 415.18h-26.9v-20.64c3 0 6-1.14 8.3-3.44 2.28-2.3 5.3-3.44 8.3-3.44h10.32a3.4 3.4 0 0 1 3.44 3.44v13.76h-3.44a3.5 3.5 0 0 1-2.44-1c-.68-.66-1-1.56-1-2.44v-6.88c0 7.6-6.16 13.76-13.76 13.76" class="cls-9"/><path id="rect2247" d="M224 388.34h12V419h-12z" class="cls-4"/><circle id="circle2249" cx="230" cy="395.34" r="1.66" class="cls-20" style="stroke-width:1.99999"/><path id="line2251" d="M223 415.66h-10.08" class="cls-10"/><path id="path2253" d="M202.5 270.38h-31.22v19.78h31.22l-7.28-9.88 7.28-9.88z" class="cls-20" style="stroke-width:1.99999"/><path id="path2255" d="M171.66 308.84v-40.76" style="stroke:#7836b2;stroke-width:1.5px;stroke-linecap:round;stroke-linejoin:round;fill:#bb9ad8"/><path id="path2257" d="M188.42 281.28v-1.72l-1.44-.12a4 4 0 0 0-.24-.64l.96-1.14-1.22-1.22-1.1.92q-.3-.17-.64-.28l-.12-1.48h-1.72l-.12 1.44q-.33.09-.64.24l-1.14-.96-1.22 1.22.92 1.1q-.17.3-.28.64l-1.48.12v1.72l1.44.12q.09.34.24.64l-.96 1.14 1.22 1.22 1.1-.92q.3.17.64.28l.12 1.48h1.72l.12-1.44q.34-.09.64-.24l1.14.96 1.22-1.22-.92-1.1q.17-.3.28-.64zm-4.74.7a1.66 1.66 0 1 1 0-3.32 1.66 1.66 0 1 1 0 3.32" class="cls-18" style="stroke-width:1.99999"/><circle id="circle2259" cx="138.66" cy="207.34" r="46.66" class="cls-19" style="stroke-width:1.99999"/><path id="path2261" d="M151 125.2h-27.6c-.7 0-1.28.58-1.28 1.28v50.94h2.56v-28.86h26.34c.7 0 1.28-.58 1.28-1.28V126.5c0-.7-.58-1.28-1.28-1.28z" class="cls-20" style="stroke-width:1.99999"/><path id="path2263" d="M132.66 199.8a9 9 0 0 1-.42-2.6c0-4.62 3.8-8.38 8.5-8.38a8.5 8.5 0 0 1 7.76 4.96" class="cls-3"/><path id="path2265" d="M169.24 192.4q-1.03.42-2.24.42a6 6 0 1 1 3.08-11.14" class="cls-3"/><path id="path2267" d="M133.14 174.42c.86.9 1.36 1.94 1.36 3.04 0 3.38-4.58 6.12-10.24 6.12s-10.24-2.74-10.24-6.12q0-.33.06-.66" class="cls-3"/><path id="path2269" d="M157.5 175.82a8 8 0 0 1-5.76 2.26c-3.86 0-7-2.36-7-5.24q0-1 .46-1.88" class="cls-3"/><path id="path2271" d="M110.98 186a4.7 4.7 0 0 1 2.32 4.04c0 2.62-2.2 4.74-4.92 4.74a5 5 0 0 1-3.44-1.34" class="cls-3"/><path id="j-green-04" d="m133.26 136.1-.24-.24a2.7 2.7 0 0 1-.68-2.7 1.6 1.6 0 0 1-1.28-1.6 1.64 1.64 0 0 1 3.26-.26c.88-.2 1.86.04 2.54.72l.1.1-1.22 1.22-.1-.1a1 1 0 0 0-1.42 0 1 1 0 0 0 0 1.42l.24.24 1.22 1.22 1.28 1.28-1.22 1.22-1.28-1.28-1.22-1.22z" class="cls-18" style="stroke-width:1.99999"/><path id="j-yellow" d="m134.62 134.74 1.28-1.28 1.22-1.22.24-.24a2.7 2.7 0 0 1 2.7-.68c.12-.8.8-1.42 1.62-1.42.9 0 1.64.74 1.64 1.64 0 .84-.62 1.52-1.42 1.62a2.7 2.7 0 0 1-.7 2.68l-.1.1-1.22-1.22.1-.1c.4-.4.4-1.04 0-1.42a1 1 0 0 0-1.42 0l-.24.24-1.22 1.22-1.28 1.28-1.22-1.22z" class="cls-18" style="stroke-width:1.99999"/><path id="j-red" d="M140.08 140.86c-.94.28-1.98.06-2.72-.68l-.1-.1 1.22-1.22.1.1c.4.4 1.04.4 1.42 0 .4-.4.4-1.02 0-1.42l-.24-.24-1.22-1.22-1.28-1.28 1.22-1.22 1.28 1.28 1.22 1.22.24.24c.7.7.94 1.68.72 2.56.8.12 1.42.8 1.42 1.62a1.65 1.65 0 0 1-3.26.32z" class="cls-18" style="stroke-width:1.99999"/><path id="j-blue" d="m139.6 137.46-1.28 1.28-1.22 1.22-.24.24c-.7.7-1.68.94-2.58.72a1.6 1.6 0 0 1-1.6 1.28c-.9 0-1.64-.74-1.64-1.64 0-.78.54-1.42 1.26-1.6-.22-.9 0-1.9.72-2.6l.1-.1 1.22 1.22-.1.1a1 1 0 0 0 0 1.42c.4.4 1.04.4 1.42 0l.24-.24 1.22-1.22 1.28-1.28 1.22 1.22z" class="cls-18" style="stroke-width:1.99999"/><path id="path2277" d="M74.22 435.64h47.44" class="cls-3"/><path id="path2279" d="M139.72 435.64H512.5" class="cls-3"/><path id="path2281" d="M139.22 434.96a8.5 8.5 0 1 0-17 0" class="cls-3"/></svg>