<svg xmlns="http://www.w3.org/2000/svg" id="world-seo" width="600" height="600" viewBox="0 0 600 600"><defs id="defs3626"><style id="style3624">.cls-10,.cls-11,.cls-12,.cls-13,.cls-14,.cls-2,.cls-3,.cls-4,.cls-6,.cls-7,.cls-9{fill:none}.cls-11,.cls-14,.cls-2,.cls-21,.cls-22,.cls-25,.cls-27,.cls-3,.cls-4,.cls-6,.cls-9{stroke:#7836b2}.cls-2,.cls-22,.cls-25,.cls-27,.cls-3,.cls-4{stroke-width:1.5px}.cls-2,.cls-21{stroke-linejoin:round}.cls-10,.cls-11,.cls-2,.cls-21,.cls-25,.cls-27,.cls-4,.cls-6,.cls-7,.cls-9{stroke-linecap:round}.cls-10,.cls-11,.cls-12,.cls-13,.cls-14,.cls-22,.cls-25,.cls-27,.cls-3,.cls-4,.cls-6,.cls-7,.cls-9{stroke-miterlimit:10}.cls-21,.cls-25,.cls-28,.cls-29{fill:#fff}.cls-29,.cls-30,.cls-31,.cls-32{fill-rule:evenodd}.cls-30,.cls-33{fill:#7836b2}.cls-22,.cls-27,.cls-31,.cls-34{fill:#bb9ad8}.cls-13,.cls-7{stroke:#fff}.cls-10,.cls-9{stroke-width:.5px}.cls-10,.cls-12{stroke:#bb9ad8}.cls-11{stroke-width:.6px}.cls-21{stroke-width:.8px}.cls-32{fill:#fefefe}</style></defs><circle id="circle3628" cx="266.33" cy="326.62" r="240.67" style="opacity:.5;stroke-width:2.27889;fill:#ccc"/><path id="path3630" d="M210.09 250.5H196.5a4.7 4.7 0 0 1-4.69-4.69c0-2.58 2.12-4.7 4.7-4.7h24.6c2.92-.45 5.45-2.52 6-5.46a6.86 6.86 0 0 0-6.72-8.12h-91.02a4.7 4.7 0 0 1-4.7-4.7 4.7 4.7 0 0 1 4.7-4.69h1.1q.5-.13 1.06-.13h42.2c2.4 0 4.36-1.73 4.36-3.85 0-1.87 1.53-3.44 3.53-3.79h18.46a6.86 6.86 0 0 0 6.84-6.83 6.86 6.86 0 0 0-6.84-6.84H9.98a6.86 6.86 0 0 0-6.84 6.84 6.86 6.86 0 0 0 6.84 6.83H28.4c2 .35 3.54 1.92 3.54 3.79 0 2.12 1.96 3.85 4.35 3.85l49.77.13c2.57 0 4.7 2.12 4.7 4.7 0 2.57-2.13 4.7-4.7 4.7h-9.3c-3.37 0-6.52 2.25-7.13 5.55a6.86 6.86 0 0 0 6.72 8.12h36.85c1.16.13 2.62.07 3.99.27h18.16c2.58 0 4.7 2.12 4.7 4.7a4.7 4.7 0 0 1-4.7 4.69H110a6.7 6.7 0 0 0-4.08 4.9 6.86 6.86 0 0 0 6.72 8.11h95.2c3.36 0 6.5-2.25 7.12-5.56a6.8 6.8 0 0 0-4.87-7.82" class="cls-28" style="stroke-width:2.27889"/><path id="path3632" d="M544.08 273.95h-45.44l-.09-.09h-.07a4.7 4.7 0 0 1-4.7-4.7v-2.32a4.7 4.7 0 0 1 4.7-4.69h60.05c3.21 0 5.84-2.32 5.84-5.17s2.62-5.18 5.83-5.18h20.94a6.1 6.1 0 0 0 6.13-6.15 6.17 6.17 0 0 0-6.15-6.15H341.65a6.17 6.17 0 0 0-4.35 10.5 6 6 0 0 0 4.33 1.8h20.94c3.21 0 5.83 2.33 5.83 5.18s2.62 5.17 5.84 5.17h82.83c2.58 0 4.7 2.14 4.7 4.72v2.32c0 2.58-2.12 4.7-4.7 4.7l-126.09.09a9.7 9.7 0 0 0-9.68 9.68 9.7 9.7 0 0 0 9.68 9.69h213.08a9.7 9.7 0 0 0 9.69-9.69 9.7 9.7 0 0 0-9.69-9.68z" class="cls-34" style="stroke-width:2.27889"/><path id="path3634" d="m461.2 147.48-8.27-.28a6.47 6.47 0 0 1-6.45-6.45v-.5a6.47 6.47 0 0 1 6.45-6.45h21.35a7 7 0 0 0 5.77-5.44 6.86 6.86 0 0 0-6.73-8.12H329.71c-3.38 0-6.52 2.26-7.14 5.56a6.85 6.85 0 0 0 5.56 7.98h56.11a6.47 6.47 0 0 1 6.45 6.45v.5a6.47 6.47 0 0 1-6.45 6.45l-18.25.27c-3.38 0-6.52 2.26-7.14 5.56a6.86 6.86 0 0 0 6.73 8.12h95.19c3.37 0 6.51-2.26 7.13-5.56a6.86 6.86 0 0 0-6.72-8.12z" class="cls-28" style="stroke-width:2.27889"/><rect id="rect3636" width="53.58" height="12.92" x="297.23" y="148.25" class="cls-28" rx="6.45" ry="6.45" style="stroke-width:2.27889"/><g id="Rectangle-445" transform="translate(-67.98 -23.72)scale(2.2789)"><path id="polygon3638" d="m82.9 158.96 5.63 3.46-5.63 3.46-.53-.87 4.2-2.59-4.2-2.58z" class="cls-33"/></g><g id="Rectangle-445-2" transform="translate(-67.98 -23.72)scale(2.2789)"><path id="polygon3641" d="m93.79 164.6 5.63 3.46-5.63 3.45-.54-.87 4.21-2.58-4.21-2.59z" class="cls-33"/></g><g id="Rectangle-445-3" transform="translate(-67.98 -23.72)scale(2.2789)"><path id="polygon3644" d="m93.47 150.34 5.63 3.46-5.63 3.46-.53-.87 4.2-2.59-4.2-2.58z" class="cls-33"/></g><g id="Rectangle-445-4" transform="translate(-67.98 -23.72)scale(2.2789)"><path id="polygon3647" d="m104.82 158.41 5.63 3.46-5.63 3.45-.54-.87 4.21-2.58-4.21-2.59z" class="cls-33"/></g><g id="Rectangle-445-5" transform="translate(-67.98 -23.72)scale(2.2789)"><path id="polygon3650" d="m114.7 150.82 5.63 3.46-5.63 3.45-.53-.87 4.2-2.58-4.2-2.59z" class="cls-33"/></g><circle id="circle3653" cx="217.54" cy="112.36" r="3.35" style="fill:none;stroke:#7836b2;stroke-linecap:round;stroke-miterlimit:10;stroke-width:.41px"/><circle id="circle3655" cx="122.94" cy="104.5" r="4.19" class="cls-12" style="stroke-width:2.27889"/><circle id="circle3657" cx="112.21" cy="148.48" r="2.73" class="cls-14" style="stroke-width:2.27889"/><circle id="circle3659" cx="270.05" cy="164.68" r="2.73" class="cls-34" style="stroke-width:2.27889"/><circle id="circle3661" cx="170.16" cy="127.44" r="2.73" class="cls-33" style="stroke-width:2.27889"/><path id="line3663" d="M69.27 104.5v6.22" class="cls-9"/><path id="line3665" d="M72.4 107.59h-6.25" class="cls-9"/><circle id="circle3667" cx="257.6" cy="126.58" r="4.19" class="cls-13" style="stroke-width:2.27889"/><circle id="circle3669" cx="216.88" cy="147.95" r="2.73" class="cls-28" style="stroke-width:2.27889"/><circle id="circle3671" cx="446.93" cy="308.82" r="4.19" class="cls-12" style="stroke-width:2.27889"/><circle id="circle3673" cx="436.2" cy="352.83" r="2.73" class="cls-14" style="stroke-width:2.27889"/><circle id="circle3675" cx="494.15" cy="331.79" r="2.73" class="cls-33" style="stroke-width:2.27889"/><path id="line3677" d="M393.27 308.82v6.25" class="cls-9"/><path id="line3679" d="M396.36 311.94h-6.22" class="cls-9"/><circle id="circle3681" cx="80.55" cy="322.24" r="3.35" class="cls-10"/><circle id="circle3683" cx="20.89" cy="221.18" r="3.35" class="cls-10"/><circle id="circle3685" cx="45.96" cy="256.66" r="4.19" class="cls-12" style="stroke-width:2.27889"/><circle id="circle3687" cx="-25.46" cy="314.41" r="4.19" class="cls-13" style="stroke-width:2.27889"/><circle id="circle3689" cx="35.23" cy="300.64" r="2.73" class="cls-14" style="stroke-width:2.27889"/><circle id="circle3691" cx="49.58" cy="347.54" r="2.73" class="cls-34" style="stroke-width:2.27889"/><circle id="circle3693" cx="93.18" cy="279.61" r="2.73" class="cls-33" style="stroke-width:2.27889"/><circle id="circle3695" cx="11.37" cy="334.07" r="2.73" class="cls-28" style="stroke-width:2.27889"/><path id="line3697" d="M-7.71 256.66v6.22" class="cls-9"/><path id="line3699" d="M-4.61 259.76h-6.22" class="cls-9"/><path id="line3701" d="M110.43 306.73v6.22" class="cls-10"/><path id="line3703" d="M113.55 309.85h-6.24" class="cls-10"/><circle id="circle3705" cx="111.21" cy="503.55" r="3.35" class="cls-10"/><circle id="circle3707" cx="179.89" cy="531.52" r="4.19" class="cls-12" style="stroke-width:2.27889"/><circle id="circle3709" cx="144.57" cy="499.86" r="2.73" class="cls-34" style="stroke-width:2.27889"/><circle id="circle3711" cx="140.15" cy="532.34" r="9.16" class="cls-34" style="stroke-width:2.27889"/><circle id="circle3713" cx="189.76" cy="499.47" r="2.73" class="cls-33" style="stroke-width:2.27889"/><path id="line3715" d="m98.31 534.66-4.01-4.76" class="cls-10"/><path id="line3717" d="m93.93 534.27 4.76-3.98" class="cls-10"/><path id="path3719" d="M374.35 247.75a30.97 30.97 0 1 1 42.55-45.05 30.97 30.97 0 1 1-42.55 45.05" class="cls-34" style="stroke-width:2.27889"/><path id="line3721" d="m362.39 228.4 7.74-.23" class="cls-4"/><path id="line3723" d="m374.08 252.17 5.31-5.61" class="cls-4"/><path id="line3725" d="m419.77 200.21-5.29 5.61" class="cls-4"/><path id="line3727" d="m394.72 191.66.21 7.73" class="cls-4"/><path id="line3729" d="m370.93 203.33 5.63 5.31" class="cls-4"/><path id="line3731" d="m396.52 227.35 68.37 60.76" class="cls-4"/><path id="polygon3733" d="m214.3 134.71-10.97-25.19 26.17 9.09-9.48 6.32z" style="stroke:#7836b2;stroke-linejoin:round;fill:#fff;stroke-width:1.49px" transform="translate(-67.98 -23.72)scale(2.2789)"/><path id="path3735" d="m500.97 426.73 8.13-9.93c.6-.73.48-1.8-.23-2.4a1.7 1.7 0 0 0-2.39.23l-2.9 3.53a1.68 1.68 0 0 1-2.98-.98v-5.63q.01-.55.37-1l8.13-9.93c.6-.73.48-1.8-.23-2.4a1.7 1.7 0 0 0-2.39.23l-2.9 3.53a1.68 1.68 0 0 1-2.98-.98v-7.63c0-.94-.77-1.71-1.7-1.71-.94 0-1.72.77-1.72 1.7V401c-.06 1.53-2 2.21-2.98 1l-2.9-3.53a1.7 1.7 0 1 0-2.62 2.16l8.14 9.94q.35.44.36 1v5.61c-.06 1.53-2 2.21-2.98 1l-2.9-3.53a1.7 1.7 0 1 0-2.62 2.16l8.14 9.95q.35.45.36 1v5.17c-.06 1.53-2 2.21-2.98 1l-2.9-3.53a1.7 1.7 0 1 0-2.62 2.16l8.14 9.94c.23.28.36.64.36 1v5.61c-.06 1.53-2 2.21-2.98 1l-2.9-3.53a1.7 1.7 0 1 0-2.62 2.16l8.14 9.94q.35.45.36 1V474c0 .93.76 1.68 1.69 1.68s1.69-.75 1.69-1.68v-14.3q0-.55.36-1l8.14-9.94c.59-.73.48-1.8-.23-2.4a1.74 1.74 0 0 0-2.4.23l-2.89 3.54a1.68 1.68 0 0 1-2.98-.98v-5.63q0-.55.36-1l8.14-9.94c.59-.73.48-1.8-.23-2.4a1.74 1.74 0 0 0-2.4.23l-2.89 3.54a1.68 1.68 0 0 1-2.98-.98v-5.2q0-.55.36-1z" class="cls-33" style="stroke-width:2.27889"/><path id="path3737" d="m64.56 426.73 8.13-9.93c.6-.73.48-1.8-.23-2.4a1.7 1.7 0 0 0-2.39.23l-2.9 3.53a1.68 1.68 0 0 1-2.98-.98v-5.63q.01-.55.37-1l8.13-9.93c.6-.73.48-1.8-.23-2.4a1.7 1.7 0 0 0-2.39.23l-2.9 3.53a1.68 1.68 0 0 1-2.98-.98v-7.63c0-.94-.77-1.71-1.7-1.71-.94 0-1.72.77-1.72 1.7V401c-.06 1.53-2 2.21-2.98 1l-2.9-3.53a1.7 1.7 0 1 0-2.62 2.16l8.14 9.94q.35.44.36 1v5.61c-.06 1.53-2 2.21-2.98 1l-2.9-3.53a1.7 1.7 0 1 0-2.62 2.16l8.14 9.95q.35.45.36 1v5.17c-.06 1.53-2 2.21-2.98 1l-2.9-3.53a1.7 1.7 0 1 0-2.62 2.16l8.14 9.94c.23.28.36.64.36 1v5.61c-.06 1.53-2 2.21-2.98 1l-2.9-3.53a1.7 1.7 0 1 0-2.62 2.16l8.14 9.94q.35.45.36 1V474c0 .93.76 1.68 1.69 1.68s1.69-.75 1.69-1.68v-14.3q0-.55.36-1l8.14-9.94c.59-.73.48-1.8-.23-2.4a1.74 1.74 0 0 0-2.4.23l-2.89 3.54a1.68 1.68 0 0 1-2.98-.98v-5.63q0-.55.36-1l8.14-9.94c.59-.73.48-1.8-.23-2.4a1.74 1.74 0 0 0-2.4.23l-2.89 3.54a1.68 1.68 0 0 1-2.98-.98v-5.2q0-.55.36-1z" class="cls-33" style="stroke-width:2.27889"/><path id="path3739" d="M47.2 444.83c-.74-.6-1.8-.48-2.4.22l-2.9 3.54a1.68 1.68 0 0 1-2.98-.98v-5.63q.02-.55.36-1l8.14-9.94c.6-.73.48-1.8-.23-2.4a1.74 1.74 0 0 0-2.4.23l-2.89 3.54a1.68 1.68 0 0 1-2.98-.98v-7.64c0-.93-.78-1.7-1.71-1.7s-1.71.77-1.71 1.7v7.64c-.07 1.52-2 2.2-2.98 1l-2.9-3.53a1.7 1.7 0 1 0-2.62 2.16l8.14 9.94c.22.27.36.64.36 1v5.6c-.07 1.53-2 2.22-2.98 1.01l-2.9-3.53a1.7 1.7 0 1 0-2.62 2.16l8.14 9.94q.34.46.36 1v14.31c0 .94.75 1.69 1.69 1.69s1.68-.75 1.68-1.69v-14.28q.01-.56.37-1l8.13-9.94c.6-.73.48-1.8-.22-2.4z" class="cls-33" style="stroke-width:2.27889"/><path id="line3741" d="M336.91 497.4h139.76" class="cls-4"/><path id="line3743" d="M297.39 514.86h96.49" class="cls-4"/><path id="line3745" d="M380.21 530.06h50.89" class="cls-4"/><path id="path3747" d="M343.97 341.8a2 2 0 0 0-1.39-.57h-55.15a1.95 1.95 0 0 0-1.96 1.96v35.75h59.1V343.2c0-.5-.21-1-.57-1.4z" class="cls-3"/><path id="rect3749" d="M290.19 345.97h49.61v32.98h-49.61z" class="cls-34" style="stroke-width:2.27889"/><path id="path3751" d="M350.54 381.59a2.6 2.6 0 0 1-.78 1.87 2.7 2.7 0 0 1-1.87.77h-65.84a2.6 2.6 0 0 1-1.86-.77 2.6 2.6 0 0 1-.78-1.87v-2.62h71.1v2.62z" class="cls-3"/><path id="line3753" d="M296.57 351.3h8.05" class="cls-7" style="stroke-width:2.27889"/><path id="line3755" d="M304.62 359.73h8.68" class="cls-6" style="stroke-width:2.27889"/><path id="line3757" d="M304.62 372.38h8.68" class="cls-6" style="stroke-width:2.27889"/><path id="line3759" d="M296.57 355.52h16.73" class="cls-7" style="stroke-width:2.27889"/><path id="line3761" d="M296.57 363.95h8.05" class="cls-7" style="stroke-width:2.27889"/><path id="line3763" d="M296.57 368.16h16.73" class="cls-7" style="stroke-width:2.27889"/><path id="line3765" d="M316.69 359.73h16.73" class="cls-6" style="stroke-width:2.27889"/><path id="line3767" d="M316.69 372.38h16.73" class="cls-6" style="stroke-width:2.27889"/><path id="line3769" d="M316.69 355.52h8.69" class="cls-6" style="stroke-width:2.27889"/><path id="line3771" d="M316.69 368.16h8.69" class="cls-6" style="stroke-width:2.27889"/><path id="rect3773" d="M283.08 384.21h63.81v89.45h-63.81z" class="cls-22"/><path id="polyline3775" d="M168.05 179.83v25.55" class="cls-4" transform="translate(-67.98 -23.72)scale(2.2789)"/><path id="polyline3777" d="M158.39 194v-5.83h19.33v5.66" class="cls-2" transform="translate(-67.98 -23.72)scale(2.2789)"/><path id="rect3779" d="M309.99 419.05h10.46v10.46h-10.46z" class="cls-25"/><path id="rect3781" d="M287.96 419.05h10.46v10.46h-10.46z" class="cls-25"/><path id="rect3783" d="M331.58 419.05h10.46v10.46h-10.46z" class="cls-25"/><path id="rect3785" d="M288.5 445.17h52.98v15.38H288.5z" class="cls-2"/><path id="path3787" d="M305.69 473.65v-14.42c0-5.13 4.19-9.3 9.3-9.3v0c5.12 0 9.3 4.2 9.3 9.3v14.42" style="stroke:#7836b2;stroke-linecap:round;stroke-miterlimit:10;fill:#fff;stroke-width:1.5px"/><path id="line3789" d="M341.65 424.09h17.09" class="cls-22"/><path id="rect3791" d="M399.56 408.48h74.45v65.75h-74.45z" style="stroke:#7836b2;stroke-width:1.5px;stroke-linejoin:round;fill:#bb9ad8"/><path id="line3793" d="M433.37 416.55h7.98" class="cls-11"/><path id="line3795" d="M444.2 439.15h6.27" class="cls-11"/><path id="line3797" d="M448.19 443.35h2.28" class="cls-11"/><path id="line3799" d="M444.27 434.39h6.26" class="cls-11"/><path id="line3801" d="M452.95 439.15h13.54" class="cls-11"/><path id="line3803" d="M458.83 447.88h7.98" class="cls-11"/><path id="line3805" d="M445.73 447.88h9.93" class="cls-11"/><path id="line3807" d="M452.7 452.44h7.98" class="cls-11"/><path id="line3809" d="M444.06 452.44h5.79" class="cls-11"/><path id="line3811" d="M440.42 456.63h5.81" class="cls-11"/><path id="line3813" d="M453.18 465.54h5.79" class="cls-11"/><path id="line3815" d="M436.86 461.12h8.77" class="cls-11"/><path id="line3817" d="M448.32 461.19h16.96" class="cls-11"/><path id="line3819" d="M436.52 465.54h13.58" class="cls-11"/><path id="line3821" d="M451.74 425.5h7.98" class="cls-11"/><path id="line3823" d="M435.93 425.5h12.71" class="cls-11"/><path id="line3825" d="M440.48 429.79h12.72" class="cls-11"/><path id="line3827" d="M453.18 434.34h12.69" class="cls-11"/><path id="line3829" d="M452.86 443.48h15.11" class="cls-11"/><path id="line3831" d="M452.47 407.27v-15.09" class="cls-22"/><circle id="circle3833" cx="452.45" cy="383.07" r="11.39" class="cls-22"/><path id="path3835" d="M458.76 384.3v-2.35l-1.94-.16q-.13-.44-.34-.89l1.3-1.55-1.66-1.66-1.48 1.25a6 6 0 0 0-.87-.38l-.16-2h-2.35l-.16 1.93q-.45.13-.88.34l-1.55-1.3-1.67 1.66 1.26 1.49q-.23.41-.4.86l-2 .16v2.35l1.94.16q.14.44.34.89l-1.3 1.55 1.67 1.66 1.48-1.25q.41.23.86.38l.16 2h2.35l.16-1.93q.45-.13.89-.34l1.55 1.3 1.66-1.66-1.25-1.49q.23-.41.39-.86zm-6.45.96a2.24 2.24 0 1 1 0-4.48 2.24 2.24 0 0 1 0 4.48" class="cls-28" style="stroke-width:2.27889"/><path id="path3837" d="M284.08 281.84h-35.25a4.3 4.3 0 0 0-4.3 4.3 4.3 4.3 0 0 0 4.3 4.31h1.94s5.72.12 5.72 4.31c0 1.82-.78 4.01-4.36 4.13h-8.86a4.3 4.3 0 0 0-4.3 4.3 4.3 4.3 0 0 0 4.3 4.31h7.04a2.8 2.8 0 0 1 2.42 2.76 2.85 2.85 0 0 1-2.53 2.78h-5.3a2.85 2.85 0 0 0 0 5.7h18.42a2.85 2.85 0 0 0 0-5.7h-.52a2.85 2.85 0 0 1-2.5-2.78 2.8 2.8 0 0 1 2.38-2.76h8.98a4.31 4.31 0 0 0 .01-8.61h-.74c-2.37-.67-4.21-2.35-4.21-4.13 0-2.05 2.2-3.78 5.15-4.2-.18-.04 12.19-.1 12.19-.1a4.32 4.32 0 0 0 0-8.61z" class="cls-28" style="stroke-width:2.27889"/><path id="rect3839" d="M102.3 418.14h135.07v57.54H102.3z" style="fill:none;stroke-width:2.27889"/><path id="path3841" d="M236.48 474.8v-55.77h-133.3v55.76z" style="stroke:#7836b2;stroke-width:1.5px;stroke-linejoin:round;fill:#fff;fill-rule:evenodd"/><path id="path3843" d="m102.34 454.06 17.34-15.07a.9.9 0 0 1 1.26 0l9.89 9.9 5.88-22.75a.9.9 0 0 1 1.07-.64q.45.13.59.55l17.78 41.9L167.33 440a.86.86 0 0 1 1.14-.48q.35.14.48.45l7.11 15.4 12.56-32.65a.87.87 0 0 1 1.14-.5q.38.17.52.52l14.7 42.28 3.56-30.77c.04-.48.5-.84.98-.77.4.04.73.36.77.77l4.86 26.14 8.8-15.81a.9.9 0 0 1 1.2-.35l12.65 7.32-.89 1.53-11.87-6.86-9.55 17.18a.8.8 0 0 1-.62.43.9.9 0 0 1-1.02-.7l-4.26-22.86-3.33 28.78a.88.88 0 0 1-1.7.18l-15.19-43.64-12.42 32.3a1 1 0 0 1-.48.54c-.43.2-.95 0-1.16-.43l-7.13-15.43-11.21 28.03a1 1 0 0 1-.48.48.9.9 0 0 1-1.16-.48l-17.62-41.52-5.6 21.65a.9.9 0 0 1-1.5.48l-10.38-10.37-16.73 14.45-1.25-1.26z" class="cls-30" style="stroke-width:2.27889"/><path id="path3845" d="M192.06 424.4a2.72 2.72 0 1 1-5.44 0 2.72 2.72 0 0 1 5.44 0" class="cls-29" style="stroke-width:2.27889"/><path id="path3847" d="M192.93 424.4c0 .99-.41 1.9-1.05 2.54a3.6 3.6 0 0 1-5.06 0s-.05-.05-.05-.07a3.6 3.6 0 0 1 .05-5.01 3.6 3.6 0 0 1 5.06 0 3.6 3.6 0 0 1 1.05 2.52zm-2.3 1.28a1.8 1.8 0 0 0 0-2.55 1.8 1.8 0 0 0-2.58 2.53l.05.05a1.8 1.8 0 0 0 2.55 0z" class="cls-30" style="stroke-width:2.27889"/><circle id="circle3849" cx="168.73" cy="440.38" r="2.71" class="cls-28" style="stroke-width:2.27889"/><path id="path3851" d="M172.3 440.38c0 .98-.4 1.9-1.05 2.53a3.55 3.55 0 0 1-5.05 0s-.05-.04-.05-.07a3.6 3.6 0 0 1 .05-5.01 3.6 3.6 0 0 1 5.05 0 3.6 3.6 0 0 1 1.05 2.53zm-2.3 1.28a1.8 1.8 0 0 0 0-2.55 1.8 1.8 0 0 0-2.57 2.53l.04.04a1.8 1.8 0 0 0 2.55 0z" class="cls-30" style="stroke-width:2.27889"/><path id="path3853" d="M179.12 455.45a2.72 2.72 0 1 1-5.44-.02 2.72 2.72 0 0 1 5.44.02" class="cls-29" style="stroke-width:2.27889"/><path id="path3855" d="M179.98 455.45c0 .98-.4 1.89-1.05 2.53a3.55 3.55 0 0 1-5.05 0s-.05-.05-.05-.07a3.6 3.6 0 0 1 .05-5.02 3.6 3.6 0 0 1 5.05 0 3.6 3.6 0 0 1 1.05 2.53zm-2.3 1.27a1.8 1.8 0 0 0 0-2.55 1.8 1.8 0 0 0-2.57 2.53l.04.05a1.8 1.8 0 0 0 2.55 0z" class="cls-30" style="stroke-width:2.27889"/><path id="path3857" d="M208.01 466.39a2.72 2.72 0 1 1-5.43-.02 2.72 2.72 0 0 1 5.43.02" class="cls-29" style="stroke-width:2.27889"/><path id="path3859" d="M208.9 466.39c0 .98-.4 1.89-1.05 2.52a3.55 3.55 0 0 1-5.06 0l-.04-.06a3.6 3.6 0 0 1 .04-5.02 3.6 3.6 0 0 1 5.06 0 3.6 3.6 0 0 1 1.05 2.53zm-2.3 1.27a1.8 1.8 0 0 0 0-2.55 1.8 1.8 0 0 0-2.57 2.53l.04.04a1.8 1.8 0 0 0 2.55 0z" class="cls-30" style="stroke-width:2.27889"/><path id="path3861" d="M212.14 437.06a2.72 2.72 0 1 1-5.44-.02 2.72 2.72 0 0 1 5.44.02" class="cls-29" style="stroke-width:2.27889"/><path id="path3863" d="M213.03 437.06a3.6 3.6 0 0 1-1.05 2.53 3.55 3.55 0 0 1-5.06 0s-.05-.05-.05-.07a3.6 3.6 0 0 1 .05-5.02 3.6 3.6 0 0 1 5.06 0 3.6 3.6 0 0 1 1.05 2.53zm-2.3 1.27a1.8 1.8 0 0 0 0-2.55 1.8 1.8 0 0 0-2.58 2.53l.05.04a1.8 1.8 0 0 0 2.55 0z" class="cls-30" style="stroke-width:2.27889"/><circle id="circle3865" cx="224.67" cy="445.03" r="2.71" class="cls-28" style="stroke-width:2.27889"/><path id="path3867" d="M228.27 445.03c0 .98-.4 1.9-1.05 2.53a3.55 3.55 0 0 1-5.05 0s-.05-.04-.05-.07a3.6 3.6 0 0 1 .05-5.01 3.6 3.6 0 0 1 5.05 0 3.6 3.6 0 0 1 1.05 2.53zm-2.3 1.28a1.8 1.8 0 0 0 0-2.55 1.8 1.8 0 0 0-2.57 2.53l.04.04a1.8 1.8 0 0 0 2.55 0z" class="cls-30" style="stroke-width:2.27889"/><circle id="circle3869" cx="156.44" cy="468.46" r="2.71" class="cls-28" style="stroke-width:2.27889"/><path id="path3871" d="M160.04 468.46c0 .98-.4 1.89-1.05 2.53a3.55 3.55 0 0 1-5.05 0s-.05-.05-.05-.07a3.6 3.6 0 0 1 .05-5.01 3.6 3.6 0 0 1 5.05 0 3.6 3.6 0 0 1 1.05 2.53zm-2.3 1.28a1.8 1.8 0 0 0 0-2.56 1.8 1.8 0 0 0-2.57 2.53l.04.05a1.8 1.8 0 0 0 2.55 0z" class="cls-30" style="stroke-width:2.27889"/><path id="path3873" d="M123.22 439.84a2.72 2.72 0 1 1-5.44-.02 2.72 2.72 0 0 1 5.44.02" class="cls-29" style="stroke-width:2.27889"/><path id="path3875" d="M124.1 439.84c0 .98-.4 1.89-1.04 2.53a3.6 3.6 0 0 1-5.06 0s-.05-.05-.05-.07a3.6 3.6 0 0 1 .05-5.02 3.6 3.6 0 0 1 5.06 0 3.6 3.6 0 0 1 1.04 2.53zm-2.3 1.27a1.8 1.8 0 0 0 0-2.55 1.8 1.8 0 0 0-2.57 2.53l.04.04a1.8 1.8 0 0 0 2.56 0z" class="cls-30" style="stroke-width:2.27889"/><path id="path3877" d="M140.51 427.21a2.72 2.72 0 1 1-5.43-.01 2.72 2.72 0 0 1 5.43.01" class="cls-29" style="stroke-width:2.27889"/><path id="path3879" d="M141.4 427.21c0 .98-.4 1.9-1.05 2.53a3.55 3.55 0 0 1-5.06 0l-.04-.07a3.6 3.6 0 0 1 .04-5.01 3.6 3.6 0 0 1 5.06 0 3.6 3.6 0 0 1 1.05 2.53zm-2.3 1.28a1.8 1.8 0 0 0 0-2.56 1.8 1.8 0 0 0-2.58 2.53l.05.05a1.8 1.8 0 0 0 2.55 0z" class="cls-30" style="stroke-width:2.27889"/><path id="path3881" d="M133.81 449.52a2.72 2.72 0 1 1-5.43-.01 2.72 2.72 0 0 1 5.43.01" class="cls-29" style="stroke-width:2.27889"/><path id="path3883" d="M134.68 449.52c0 .98-.41 1.9-1.05 2.53a3.55 3.55 0 0 1-5.06 0q-.02-.01-.04-.07a3.6 3.6 0 0 1 .04-5.01 3.6 3.6 0 0 1 5.06 0 3.6 3.6 0 0 1 1.05 2.53zm-2.3 1.28a1.8 1.8 0 0 0 0-2.55 1.8 1.8 0 0 0-2.58 2.52l.05.05a1.8 1.8 0 0 0 2.55 0z" class="cls-30" style="stroke-width:2.27889"/><path id="rect3885" d="M102.98 400.25h55.97v18.98h-55.97z" style="stroke:#7836b2;stroke-linejoin:round;stroke-width:1.3px;fill:#7836b2"/><path id="path3887" d="M130.96 414.29a5.83 5.83 0 1 1 .26-11.65 5.83 5.83 0 0 1-.26 11.65" class="cls-32" style="stroke-width:2.27889"/><path id="path3889" d="M130.96 414.97a6.46 6.46 0 0 1-6.35-6.65 6.46 6.46 0 0 1 6.65-6.36 6.46 6.46 0 0 1 6.36 6.65 6.46 6.46 0 0 1-6.66 6.36m-3.55-2.96a5.2 5.2 0 0 0 7.27.18 5.2 5.2 0 0 0 1.6-3.6 5.2 5.2 0 0 0-5.04-5.26 5.3 5.3 0 0 0-3.67 1.41 5.2 5.2 0 0 0-1.6 3.6 5.2 5.2 0 0 0 1.44 3.67" class="cls-31" style="stroke-width:2.27889"/><path id="path3891" d="M136.91 409.28h-1.43l.02-1.42h1.43zm-2.28 3.87-.98-1.03 1-.95.99 1.02zm-7.06-7.38-.98-1.03 1-.96.98 1.03zm-1.16 6.22 1.02-.98.96 1-1.03.98zm7.38-7.07 1.03-.98.95 1-1.02.99zm-3.51 9.35v-1.44l1.41.02v1.44zm.23-10.21v-1.44l1.41.02v1.44zm-3.8 4.99h-1.44l.02-1.41h1.43z" class="cls-31" style="stroke-width:2.27889"/><path id="path3893" d="M120.62 405.7a5.83 5.83 0 1 1-10.27 5.5 5.83 5.83 0 0 1 10.27-5.5" class="cls-32" style="stroke-width:2.27889"/><path id="path3895" d="M121.23 405.38c.85 1.6.98 3.37.5 4.97a6.56 6.56 0 0 1-8.14 4.35 6.56 6.56 0 0 1-4.35-8.14 6.56 6.56 0 0 1 8.14-4.35 6.4 6.4 0 0 1 3.85 3.17m-.82 4.56a5.15 5.15 0 0 0-3.42-6.4 5.15 5.15 0 0 0-6.4 3.41 5.15 5.15 0 0 0 3.42 6.4 5.15 5.15 0 0 0 6.4-3.41" class="cls-31" style="stroke-width:2.27889"/><path id="path3897" d="M115.65 408.39v-.05l-.11-.07h-.16l-.07.12v.16l.11.06h.16l.07-.1zm1.23-.64c.18.36.23.8.11 1.16a1.4 1.4 0 0 1-.75.91h-.02c-.37.2-.8.23-1.16.12a1.5 1.5 0 0 1-.91-.76 1.7 1.7 0 0 1-.12-1.18c.12-.39.39-.73.75-.91h.03c.36-.2.8-.23 1.16-.12.39.12.73.4.91.76z" class="cls-30" style="stroke-width:2.27889"/><path id="path3899" d="m113.32 402.99.69 1.25-1.2.64-.7-1.26zm4.5.09-.42 1.36-1.32-.38.41-1.37zm-2.95 9.77-.4 1.37-1.33-.39.41-1.36zm6-2.05-1.37-.4.39-1.33 1.37.41zm-9.78-2.94-1.37-.4.4-1.33 1.36.41zm9.87-1.55-1.25.69-.64-1.21 1.25-.68zm-9 4.83-1.26.69-.63-1.21 1.25-.68zm6.22.87.68 1.25-1.2.64-.69-1.25z" class="cls-31" style="stroke-width:2.27889"/><path id="path3901" d="M146.32 414.29a5.83 5.83 0 1 1 .26-11.65 5.83 5.83 0 0 1-.26 11.65" class="cls-32" style="stroke-width:2.27889"/><path id="path3903" d="M146.3 414.97a6.46 6.46 0 0 1-6.36-6.65 6.46 6.46 0 0 1 6.66-6.36 6.46 6.46 0 0 1 6.36 6.65 6.46 6.46 0 0 1-6.66 6.36m-3.55-2.96a5.2 5.2 0 0 0 7.27.18 5.2 5.2 0 0 0 1.6-3.6 5.2 5.2 0 0 0-5.05-5.26 5.3 5.3 0 0 0-3.66 1.41 5.2 5.2 0 0 0-.19 7.27z" class="cls-31" style="stroke-width:2.27889"/><path id="path3905" d="M152.25 409.28h-1.44l.03-1.42h1.43zm-2.28 3.87-.98-1.03 1-.95.98 1.02zm-7.06-7.38-.98-1.03 1-.96.98 1.03zm-1.17 6.22 1.03-.98.96 1-1.03.98zm7.39-7.07 1.02-.98.96 1-1.03.99zm-3.51 9.35v-1.44l1.41.02v1.44zm.22-10.21v-1.44l1.42.02v1.44zm-3.8 4.99h-1.44l.03-1.41h1.43z" class="cls-31" style="stroke-width:2.27889"/><path id="line3907" d="m114.99 407.57-1.05-1.67" class="cls-9"/><path id="path3909" d="M130.96 408.52h.03s.06.07.11.07q.06 0 .11-.02h.03s.04-.1.04-.14q0-.06-.02-.11h-.02s-.07-.07-.12-.07q-.06 0-.11.02h-.02s-.05.1-.05.14q0 .06.02.11m-1.02.92q-.41-.5-.37-1.12c0-.39.2-.78.53-1.07q.49-.44 1.1-.39c.38.02.79.2 1.06.52q.41.53.37 1.12c0 .39-.2.8-.53 1.07q-.49.44-1.1.39c-.38-.02-.79-.2-1.06-.52" class="cls-30" style="stroke-width:2.27889"/><path id="line3911" d="m131.81 409.18 1.39 1.39" class="cls-9"/><path id="path3913" d="M146.44 408.36h-.05s-.07 0-.11.05l-.07.1v.04s0 .07.05.11l.09.07h.04s.07 0 .12-.05l.06-.09v-.04s0-.07-.04-.12zm.09-1.36c.4.04.8.22 1.05.52q.4.47.38 1.14a1.56 1.56 0 0 1-1.66 1.46h-.02a1.6 1.6 0 0 1-1.05-.53c-.25-.3-.41-.7-.39-1.13a1.56 1.56 0 0 1 1.67-1.46z" class="cls-30" style="stroke-width:2.27889"/><path id="line3915" d="M145.39 408.48h-1.96" class="cls-9"/><path id="polygon3917" d="M148.26 218.5h-14.75v-64.25h14.75v44.13z" class="cls-22" transform="translate(-67.98 -23.72)scale(2.2789)"/><path id="line3919" d="M236.84 345.65h32.48" class="cls-22"/><path id="line3921" d="M237.32 394.85h8.34" class="cls-27"/><path id="line3923" d="M237.32 426.37h8.34" class="cls-27"/><path id="line3925" d="M237.32 442.14h8.34" class="cls-27"/><path id="line3927" d="M237.32 457.88h16.7" class="cls-27"/><path id="line3929" d="M237.32 410.6h17.09" class="cls-27"/><rect id="rect3931" width="48.54" height="15.95" x="228.8" y="317.85" rx="4.22" ry="4.22" style="stroke:#7836b2;stroke-miterlimit:10;fill:#bb9ad8;stroke-width:1.42px"/><path id="rect3933" d="M359.26 371.7h74.45v102.48h-74.45z" style="stroke:#7836b2;stroke-width:1.5px;stroke-linejoin:round;fill:#fff"/><path id="path3935" d="M366.1 439.79h18.14v9.23H366.1l4.63-4.63-4.63-4.62zm42.66 0h18.14l-4.62 4.63 4.62 4.62h-18.14v-9.23z" class="cls-31" style="stroke-width:2.27889"/><path id="polygon3937" d="M198.44 207.44v-1.57l-2.98.02z" class="cls-30" transform="translate(-67.98 -23.72)scale(2.2789)"/><path id="polygon3939" d="M209.19 207.44v-1.57l2.97.02z" class="cls-30" transform="translate(-67.98 -23.72)scale(2.2789)"/><path id="polyline3941" d="M212.18 205.89h-16.72v-4.06h16.72" class="cls-31" transform="translate(-67.98 -23.72)scale(2.2789)"/><path id="rect3943" d="M359.26 402.42h74.45v26.18h-74.45z" style="stroke:#7836b2;stroke-miterlimit:10;fill:#bb9ad8;stroke-width:2.27889"/><path id="path3945" d="M373.23 385.23a6.46 6.46 0 0 1 6.5 6.5 6.44 6.44 0 0 1-6.47 6.47 6.46 6.46 0 0 1-6.5-6.5c0-1.8.73-3.41 1.9-4.58a6.5 6.5 0 0 1 4.57-1.9z" class="cls-30" style="stroke-width:2.27889"/><path id="path3947" d="M418.01 410.9h-42.47a2 2 0 0 0-1.44.59c-.36.36-.6.89-.6 1.45v3.08a2 2 0 0 0 2.04 2.03H418a2 2 0 0 0 2.03-2.03v-3.08a2 2 0 0 0-2.03-2.02z" style="stroke:#7836b2;stroke-miterlimit:10;fill-rule:evenodd;fill:#bb9ad8;stroke-width:.7px"/><path id="path3949" d="m415.92 413.01 1.62 1.07c.18.12.22.37.11.57a.3.3 0 0 1-.11.12l-1.65 1.1a.43.43 0 0 1-.56-.12.4.4 0 0 1-.07-.23v-2.19a.4.4 0 0 1 .4-.4q.15-.01.26.08" class="cls-30" style="stroke-width:2.27889"/><path id="line3951" d="M412.16 411.12v6.7" style="fill:none;stroke:#7836b2;stroke-miterlimit:10;stroke-width:.7px"/><path id="line3953" d="M360.18 378.78h73.47" class="cls-22"/><path id="line3955" d="M387.93 387.19h36.76" class="cls-21"/><path id="line3957" d="M387.93 391.61h36.76" class="cls-21"/><path id="line3959" d="M387.93 396.04h36.76" class="cls-21"/><path id="line3961" d="M369.79 458.41h22.79" class="cls-21"/><path id="line3963" d="M369.79 461.83h22.79" class="cls-21"/><path id="line3965" d="M369.79 465.38h22.79" class="cls-21"/><path id="line3967" d="M400.42 458.41h22.79" class="cls-21"/><path id="line3969" d="M400.42 461.83h22.79" class="cls-21"/><path id="line3971" d="M400.42 465.38h22.79" class="cls-21"/><path id="path3973" d="M16.59 474.61h54.05" class="cls-4"/><path id="path3975" d="M91.22 474.61h424.76" class="cls-4"/><path id="path3977" d="M90.65 473.84a9.68 9.68 0 1 0-19.37 0" class="cls-4"/></svg>