<?xml version="1.0" encoding="UTF-8" standalone="no"?>
<svg
   id="world-seo"
   viewBox="0 0 600 600"
   version="1.1"
   sodipodi:docname="joo-01.svg"
   width="600"
   height="600"
   inkscape:version="1.2.2 (732a01da63, 2022-12-09)"
   xmlns:inkscape="http://www.inkscape.org/namespaces/inkscape"
   xmlns:sodipodi="http://sodipodi.sourceforge.net/DTD/sodipodi-0.dtd"
   xmlns="http://www.w3.org/2000/svg"
   xmlns:svg="http://www.w3.org/2000/svg">
  <sodipodi:namedview
     id="namedview3980"
     pagecolor="#ffffff"
     bordercolor="#000000"
     borderopacity="0.25"
     inkscape:showpageshadow="2"
     inkscape:pageopacity="0.0"
     inkscape:pagecheckerboard="0"
     inkscape:deskcolor="#d1d1d1"
     showgrid="false"
     showguides="false"
     inkscape:zoom="1.34"
     inkscape:cx="298.13433"
     inkscape:cy="336.19403"
     inkscape:window-width="1920"
     inkscape:window-height="991"
     inkscape:window-x="-9"
     inkscape:window-y="-9"
     inkscape:window-maximized="1"
     inkscape:current-layer="world-seo" />
  <defs
     id="defs3626">
    <style
       id="style3624">.cls-1,.cls-2,.cls-3,.cls-4,.cls-5,.cls-6,.cls-7,.cls-8,.cls-9,.cls-10,.cls-11,.cls-12,.cls-13,.cls-14{fill:none;}.cls-2,.cls-3,.cls-15,.cls-16,.cls-4,.cls-17,.cls-18,.cls-19,.cls-5,.cls-6,.cls-8,.cls-9,.cls-20,.cls-11,.cls-21,.cls-14,.cls-22,.cls-23,.cls-24,.cls-25,.cls-26,.cls-27{stroke:#7836b2;}.cls-2,.cls-3,.cls-15,.cls-4,.cls-18,.cls-19,.cls-22,.cls-25,.cls-27{stroke-width:1.5px;}.cls-2,.cls-15,.cls-16,.cls-17,.cls-18,.cls-19,.cls-21{stroke-linejoin:round;}.cls-2,.cls-4,.cls-5,.cls-6,.cls-7,.cls-9,.cls-10,.cls-11,.cls-21,.cls-25,.cls-26,.cls-27{stroke-linecap:round;}.cls-3,.cls-4,.cls-5,.cls-6,.cls-7,.cls-8,.cls-9,.cls-10,.cls-20,.cls-11,.cls-12,.cls-13,.cls-14,.cls-22,.cls-23,.cls-24,.cls-25,.cls-26,.cls-27{stroke-miterlimit:10;}.cls-15,.cls-28,.cls-17,.cls-18,.cls-21,.cls-29,.cls-25,.cls-26{fill:#fff;}.cls-15,.cls-30,.cls-31,.cls-29,.cls-32,.cls-23{fill-rule:evenodd;}.cls-16{stroke-width:1.3px;}.cls-16,.cls-33,.cls-30{fill:#7836b2;}.cls-34,.cls-19,.cls-20,.cls-22,.cls-31,.cls-23,.cls-24,.cls-27{fill:#bb9ad8;}.cls-17{stroke-width:1.49px;}.cls-5{stroke-width:.41px;}.cls-7,.cls-13{stroke:#fff;}.cls-8,.cls-23{stroke-width:.7px;}.cls-9,.cls-10{stroke-width:.5px;}.cls-10,.cls-12{stroke:#bb9ad8;}.cls-11{stroke-width:.6px;}.cls-21{stroke-width:.8px;}.cls-32{fill:#fefefe;}.cls-24{stroke-width:1.42px;}.cls-35{fill:#e3e0e0;opacity:.5;}.cls-26{stroke-width:1.5px;}</style>
  </defs>
  <circle
     class="cls-35"
     cx="266.33054"
     cy="326.62003"
     id="circle3628"
     style="stroke-width:2.27889;fill:#cccccc"
     r="240.67494" />
  <path
     class="cls-28"
     d="m 210.08721,250.50466 h -13.58226 c -2.57516,0 -4.69454,-2.11938 -4.69454,-4.69455 0,-2.57516 2.11938,-4.69453 4.69454,-4.69453 h 24.61216 c 2.91699,-0.45578 5.44658,-2.52959 5.9935,-5.46937 0.79762,-4.30713 -2.55237,-8.1129 -6.72276,-8.1129 h -91.01938 c -2.57517,0 -4.69454,-2.11937 -4.69454,-4.69454 0,-2.57516 2.11937,-4.69454 4.69454,-4.69454 h 1.09388 c 0.34183,-0.0911 0.70646,-0.13673 1.07107,-0.13673 h 42.20528 c 2.39286,0 4.35272,-1.73196 4.35272,-3.85135 0,-1.8687 1.52685,-3.44114 3.5323,-3.78298 h 18.45911 c 3.76018,0 6.8367,-3.07652 6.8367,-6.8367 0,-3.76019 -3.07652,-6.83671 -6.8367,-6.83671 H 9.9767385 c -3.7601899,0 -6.8367091,3.07652 -6.8367091,6.83671 0,3.76018 3.0765192,6.8367 6.8367091,6.8367 H 28.413064 c 2.005434,0.34184 3.532299,1.91428 3.532299,3.78298 0,2.11939 1.959857,3.85135 4.352705,3.85135 l 49.771242,0.13673 c 2.575161,0 4.69454,2.11938 4.69454,4.69454 0,2.57517 -2.119379,4.69454 -4.69454,4.69454 h -9.297924 c -3.372776,0 -6.517663,2.25612 -7.132967,5.56053 -0.797616,4.30712 2.552372,8.11289 6.722764,8.11289 h 36.849857 c 1.16225,0.13673 2.62074,0.0684 3.98809,0.27346 h 18.16286 c 2.57515,0 4.69453,2.11939 4.69453,4.69455 0,2.57516 -2.11938,4.69453 -4.69453,4.69453 h -25.3642 c -2.05101,0.88878 -3.66903,2.64353 -4.07924,4.89965 -0.79761,4.30713 2.55238,8.11289 6.72277,8.11289 h 95.18978 c 3.37278,0 6.51766,-2.25611 7.13297,-5.56051 0.66087,-3.64625 -1.61803,-6.90509 -4.87686,-7.81664 z"
     id="path3630"
     style="stroke-width:2.27889" />
  <path
     class="cls-34"
     d="m 544.08324,273.95456 h -45.44133 c 0,0 -0.0684,-0.0684 -0.0911,-0.0912 h -0.0684 c -2.57516,0 -4.69454,-2.11938 -4.69454,-4.69454 v -2.32448 c 0,-2.57516 2.11938,-4.69454 4.69454,-4.69454 h 3.28162 c 0,0 0.11395,0 0.18231,0 h 56.58516 c 3.21325,0 5.834,-2.32449 5.834,-5.17311 0,-2.84863 2.62074,-5.17311 5.83399,-5.17311 h 20.94311 c 1.68639,0 3.23605,-0.68367 4.32992,-1.80034 1.11666,-1.11666 1.80034,-2.64353 1.80034,-4.3527 0,-3.37278 -2.75748,-6.15304 -6.15304,-6.15304 H 341.64828 c -3.37277,0 -6.15304,2.75748 -6.15304,6.15304 0,1.68639 0.68368,3.23604 1.80034,4.3527 1.11666,1.11667 2.64353,1.80034 4.32992,1.80034 h 20.94311 c 3.21325,0 5.83399,2.32448 5.83399,5.17311 0,2.84862 2.62075,5.17311 5.834,5.17311 h 82.83812 c 2.57517,0 4.69455,2.14217 4.69455,4.71733 v 2.32448 c 0,2.57516 -2.11938,4.69454 -4.69455,4.69454 l -126.0917,0.0912 c -5.33263,0 -9.68534,4.35272 -9.68534,9.68535 0,5.33263 4.35271,9.68533 9.68534,9.68533 h 213.07743 c 5.33263,0 9.68534,-4.3527 9.68534,-9.68533 0,-5.33263 -4.35271,-9.68535 -9.68534,-9.68535 z"
     id="path3632"
     style="stroke-width:2.27889" />
  <path
     class="cls-28"
     d="m 461.19954,147.47545 -8.27242,-0.27347 c -3.55509,0 -6.44929,-2.91699 -6.44929,-6.4493 v -0.50135 c 0,-3.5551 2.91699,-6.4493 6.44929,-6.4493 h 21.35332 c 2.82584,-0.50136 5.24147,-2.57516 5.76562,-5.44658 0.79762,-4.30712 -2.55237,-8.11289 -6.72276,-8.11289 H 329.70683 c -3.37277,0 -6.51766,2.25611 -7.13296,5.56053 -0.70646,3.89691 1.95985,7.33806 5.56052,7.97616 h 56.10659 c 3.55509,0 6.44929,2.91698 6.44929,6.44929 v 0.50135 c 0,3.5551 -2.91699,6.4493 -6.44929,6.4493 l -18.25401,0.27347 c -3.37278,0 -6.51767,2.25611 -7.13297,5.56052 -0.79762,4.30713 2.55237,8.1129 6.72277,8.1129 h 95.18978 c 3.37278,0 6.51766,-2.25611 7.13296,-5.56053 0.79762,-4.30713 -2.55237,-8.11289 -6.72277,-8.11289 z"
     id="path3634"
     style="stroke-width:2.27889" />
  <rect
     class="cls-28"
     x="297.23245"
     y="148.25027"
     width="53.577011"
     height="12.92138"
     rx="6.4492955"
     ry="6.4492955"
     id="rect3636"
     style="stroke-width:2.27889" />
  <g
     id="Rectangle-445"
     transform="matrix(2.278903,0,0,2.278903,-67.984533,-23.715745)">
    <polygon
       class="cls-33"
       points="82.9,158.96 88.53,162.42 82.9,165.88 82.37,165.01 86.57,162.42 82.37,159.84 "
       id="polygon3638" />
  </g>
  <g
     id="Rectangle-445-2"
     transform="matrix(2.278903,0,0,2.278903,-67.984533,-23.715745)">
    <polygon
       class="cls-33"
       points="93.79,164.6 99.42,168.06 93.79,171.51 93.25,170.64 97.46,168.06 93.25,165.47 "
       id="polygon3641" />
  </g>
  <g
     id="Rectangle-445-3"
     transform="matrix(2.278903,0,0,2.278903,-67.984533,-23.715745)">
    <polygon
       class="cls-33"
       points="93.47,150.34 99.1,153.8 93.47,157.26 92.94,156.39 97.14,153.8 92.94,151.22 "
       id="polygon3644" />
  </g>
  <g
     id="Rectangle-445-4"
     transform="matrix(2.278903,0,0,2.278903,-67.984533,-23.715745)">
    <polygon
       class="cls-33"
       points="104.82,158.41 110.45,161.87 104.82,165.32 104.28,164.45 108.49,161.87 104.28,159.28 "
       id="polygon3647" />
  </g>
  <g
     id="Rectangle-445-5"
     transform="matrix(2.278903,0,0,2.278903,-67.984533,-23.715745)">
    <polygon
       class="cls-33"
       points="114.7,150.82 120.33,154.28 114.7,157.73 114.17,156.86 118.37,154.28 114.17,151.69 "
       id="polygon3650" />
  </g>
  <circle
     class="cls-5"
     cx="217.53923"
     cy="112.35756"
     id="circle3653"
     r="3.3499875" />
  <circle
     class="cls-12"
     cx="122.94196"
     cy="104.49533"
     id="circle3655"
     style="stroke-width:2.27889"
     r="4.1931815" />
  <circle
     class="cls-14"
     cx="112.20833"
     cy="148.47815"
     id="circle3657"
     style="stroke-width:2.27889"
     r="2.7346838" />
  <circle
     class="cls-34"
     cx="270.04514"
     cy="164.68115"
     id="circle3659"
     style="stroke-width:2.27889"
     r="2.7346838" />
  <circle
     class="cls-33"
     cx="170.16084"
     cy="127.4439"
     id="circle3661"
     style="stroke-width:2.27889"
     r="2.7346838" />
  <line
     class="cls-9"
     x1="69.273796"
     y1="104.49533"
     x2="69.273796"
     y2="110.71674"
     id="line3663" />
  <line
     class="cls-9"
     x1="72.395889"
     y1="107.59464"
     x2="66.151695"
     y2="107.59464"
     id="line3665" />
  <circle
     class="cls-13"
     cx="257.60233"
     cy="126.5779"
     id="circle3667"
     style="stroke-width:2.27889"
     r="4.1931815" />
  <circle
     class="cls-28"
     cx="216.87834"
     cy="147.95403"
     id="circle3669"
     style="stroke-width:2.27889"
     r="2.7346838" />
  <circle
     class="cls-12"
     cx="446.93359"
     cy="308.82178"
     id="circle3671"
     style="stroke-width:2.27889"
     r="4.1931815" />
  <circle
     class="cls-14"
     cx="436.20001"
     cy="352.82739"
     id="circle3673"
     style="stroke-width:2.27889"
     r="2.7346838" />
  <circle
     class="cls-33"
     cx="494.15247"
     cy="331.79312"
     id="circle3675"
     style="stroke-width:2.27889"
     r="2.7346838" />
  <line
     class="cls-9"
     x1="393.26544"
     y1="308.82178"
     x2="393.26544"
     y2="315.06598"
     id="line3677" />
  <line
     class="cls-9"
     x1="396.36475"
     y1="311.94385"
     x2="390.14334"
     y2="311.94385"
     id="line3679" />
  <circle
     class="cls-10"
     cx="80.554367"
     cy="322.24451"
     id="circle3681"
     r="3.3499875" />
  <circle
     class="cls-10"
     cx="20.892683"
     cy="221.17517"
     id="circle3683"
     r="3.3499875" />
  <circle
     class="cls-12"
     cx="45.960617"
     cy="256.65768"
     id="circle3685"
     style="stroke-width:2.27889"
     r="4.1931815" />
  <circle
     class="cls-13"
     cx="-25.460205"
     cy="314.40509"
     id="circle3687"
     style="stroke-width:2.27889"
     r="4.1931815" />
  <circle
     class="cls-14"
     cx="35.226986"
     cy="300.64053"
     id="circle3689"
     style="stroke-width:2.27889"
     r="2.7346838" />
  <circle
     class="cls-34"
     cx="49.584072"
     cy="347.54034"
     id="circle3691"
     style="stroke-width:2.27889"
     r="2.7346838" />
  <circle
     class="cls-33"
     cx="93.179489"
     cy="279.60626"
     id="circle3693"
     style="stroke-width:2.27889"
     r="2.7346838" />
  <circle
     class="cls-28"
     cx="11.366869"
     cy="334.07202"
     id="circle3695"
     style="stroke-width:2.27889"
     r="2.7346838" />
  <line
     class="cls-9"
     x1="-7.7075467"
     y1="256.65768"
     x2="-7.7075467"
     y2="262.87909"
     id="line3697" />
  <line
     class="cls-9"
     x1="-4.608242"
     y1="259.75699"
     x2="-10.829647"
     y2="259.75699"
     id="line3699" />
  <line
     class="cls-10"
     x1="110.43079"
     y1="306.72519"
     x2="110.43079"
     y2="312.94659"
     id="line3701" />
  <line
     class="cls-10"
     x1="113.55289"
     y1="309.84729"
     x2="107.30869"
     y2="309.84729"
     id="line3703" />
  <circle
     class="cls-10"
     cx="111.2056"
     cy="503.55402"
     id="circle3705"
     r="3.3499875" />
  <circle
     class="cls-12"
     cx="179.89174"
     cy="531.51624"
     id="circle3707"
     style="stroke-width:2.27889"
     r="4.1931815" />
  <circle
     class="cls-34"
     cx="144.56874"
     cy="499.86221"
     id="circle3709"
     style="stroke-width:2.27889"
     r="2.7346838" />
  <circle
     class="cls-34"
     cx="140.14767"
     cy="532.33661"
     id="circle3711"
     style="stroke-width:2.27889"
     r="9.16119" />
  <circle
     class="cls-33"
     cx="189.7594"
     cy="499.47482"
     id="circle3713"
     style="stroke-width:2.27889"
     r="2.7346838" />
  <line
     class="cls-10"
     x1="98.307022"
     y1="534.66113"
     x2="94.296143"
     y2="529.89819"
     id="line3715" />
  <line
     class="cls-10"
     x1="93.931534"
     y1="534.27368"
     x2="98.694427"
     y2="530.28558"
     id="line3717" />
  <path
     class="cls-34"
     d="m 374.35055,247.74718 c -12.44282,-11.75914 -13.01254,-31.35771 -1.2534,-43.80051 11.75914,-12.44281 31.35771,-13.01254 43.80051,-1.2534 12.44281,11.75914 13.01254,31.3577 1.2534,43.80051 -11.75914,12.44282 -31.35771,13.01254 -43.80051,1.2534 z"
     id="path3719"
     style="stroke-width:2.27889" />
  <line
     class="cls-4"
     x1="362.38632"
     y1="228.39929"
     x2="370.13458"
     y2="228.1714"
     id="line3721" />
  <line
     class="cls-4"
     x1="374.07706"
     y1="252.16824"
     x2="379.3869"
     y2="246.56215"
     id="line3723" />
  <line
     class="cls-4"
     x1="419.76907"
     y1="200.20927"
     x2="414.48206"
     y2="205.81537"
     id="line3725" />
  <line
     class="cls-4"
     x1="394.72394"
     y1="191.66338"
     x2="394.92905"
     y2="199.38887"
     id="line3727" />
  <line
     class="cls-4"
     x1="370.93219"
     y1="203.33136"
     x2="376.5611"
     y2="208.64119"
     id="line3729" />
  <line
     class="cls-4"
     x1="396.52429"
     y1="227.351"
     x2="464.89136"
     y2="288.10654"
     id="line3731" />
  <polygon
     class="cls-17"
     points="214.3,134.71 203.33,109.52 229.5,118.61 220.02,124.93 "
     id="polygon3733"
     transform="matrix(2.278903,0,0,2.278903,-67.984533,-23.715745)" />
  <path
     class="cls-33"
     d="m 500.96639,426.73223 8.13569,-9.93602 c 0.59251,-0.72925 0.47857,-1.80034 -0.22789,-2.39285 v 0 c -0.72925,-0.59251 -1.80034,-0.47857 -2.39285,0.2279 l -2.89421,3.53229 c -0.97993,1.20781 -2.917,0.54694 -2.98536,-0.97993 v -5.62888 c 0,-0.36463 0.13674,-0.70646 0.36462,-1.00273 l 8.13569,-9.93602 c 0.59251,-0.72924 0.47857,-1.80032 -0.22789,-2.39285 v 0 c -0.72925,-0.59251 -1.80034,-0.47856 -2.39285,0.2279 l -2.89421,3.5323 c -0.97993,1.20782 -2.917,0.54693 -2.98536,-0.97993 v -7.63432 c 0,-0.93436 -0.77483,-1.70918 -1.70917,-1.70918 -0.93436,0 -1.70919,0.77482 -1.70919,1.70918 v 7.63432 c -0.0684,1.52686 -2.00543,2.21054 -2.98536,1.00271 l -2.8942,-3.53229 c -0.59252,-0.72925 -1.6636,-0.82041 -2.39286,-0.22789 v 0 c -0.72924,0.59251 -0.82039,1.66359 -0.22788,2.39285 l 8.13568,9.93602 c 0.2279,0.27347 0.36462,0.63808 0.36462,1.00271 v 5.6061 c -0.0684,1.52687 -2.00543,2.21054 -2.98536,1.00272 l -2.8942,-3.5323 c -0.59252,-0.72925 -1.6636,-0.8204 -2.39286,-0.22789 v 0 c -0.72924,0.59251 -0.82039,1.6636 -0.22788,2.39285 l 8.13568,9.93601 c 0.2279,0.29626 0.36462,0.6381 0.36462,1.00272 v 5.17311 c -0.0684,1.52687 -2.00543,2.21054 -2.98536,1.00272 l -2.8942,-3.5323 c -0.59252,-0.72925 -1.6636,-0.82041 -2.39286,-0.2279 v 0 c -0.72924,0.59253 -0.82039,1.6636 -0.22788,2.39286 l 8.13568,9.93602 c 0.2279,0.27346 0.36462,0.63809 0.36462,1.00272 v 5.6061 c -0.0684,1.52686 -2.00543,2.21052 -2.98536,1.00271 l -2.8942,-3.5323 c -0.59252,-0.72925 -1.6636,-0.8204 -2.39286,-0.22789 v 0 c -0.72924,0.59251 -0.82039,1.6636 -0.22788,2.39285 l 8.13568,9.93602 c 0.2279,0.29625 0.36462,0.63809 0.36462,1.00271 v 13.81016 c 0,0 0,0.0456 0,0.0684 v 0.43299 c 0,0.93435 0.75204,1.68639 1.6864,1.68639 v 0 c 0.93434,0 1.68639,-0.75204 1.68639,-1.68639 v -0.4102 c 0,0 0,-0.0456 0,-0.0684 v -13.81016 c 0,-0.36462 0.13673,-0.70646 0.36461,-1.00272 l 8.13569,-9.93601 c 0.59251,-0.72925 0.47857,-1.80034 -0.22789,-2.39285 v 0 c -0.72925,-0.59251 -1.80033,-0.47857 -2.39284,0.22789 l -2.89421,3.5323 c -0.97993,1.20782 -2.917,0.54694 -2.98536,-0.97993 v -5.62889 c 0,-0.36463 0.13673,-0.70646 0.36461,-1.00271 l 8.13569,-9.93602 c 0.59251,-0.72925 0.47857,-1.80034 -0.22789,-2.39285 v 0 c -0.72925,-0.59252 -1.80033,-0.47857 -2.39284,0.22789 l -2.89421,3.53229 c -0.97993,1.20783 -2.917,0.54694 -2.98536,-0.97993 v -5.19589 c 0,-0.36462 0.13673,-0.70646 0.36461,-1.00272 z"
     id="path3735"
     style="stroke-width:2.27889" />
  <path
     class="cls-33"
     d="m 64.556465,426.73223 8.135684,-9.93602 c 0.592516,-0.72925 0.47857,-1.80034 -0.22789,-2.39285 v 0 c -0.729249,-0.59251 -1.800334,-0.47857 -2.392848,0.2279 l -2.894206,3.53229 c -0.979929,1.20781 -2.916997,0.54694 -2.985364,-0.97993 v -5.62888 c 0,-0.36463 0.136734,-0.70646 0.364624,-1.00273 l 8.135684,-9.93602 c 0.592516,-0.72924 0.47857,-1.80032 -0.22789,-2.39285 v 0 c -0.729249,-0.59251 -1.800334,-0.47856 -2.392848,0.2279 l -2.894206,3.5323 c -0.979929,1.20782 -2.916997,0.54693 -2.985364,-0.97993 v -7.63432 c 0,-0.93436 -0.774827,-1.70918 -1.709177,-1.70918 -0.93435,0 -1.709178,0.77482 -1.709178,1.70918 v 7.63432 c -0.06836,1.52686 -2.005434,2.21054 -2.985362,1.00271 l -2.894207,-3.53229 c -0.592515,-0.72925 -1.663599,-0.82041 -2.392848,-0.22789 v 0 c -0.729249,0.59251 -0.820405,1.66359 -0.22789,2.39285 l 8.135683,9.93602 c 0.227891,0.27347 0.364624,0.63808 0.364624,1.00271 v 5.6061 c -0.06836,1.52687 -2.005434,2.21054 -2.985362,1.00272 l -2.894207,-3.5323 c -0.592515,-0.72925 -1.663599,-0.8204 -2.392848,-0.22789 v 0 c -0.729249,0.59251 -0.820405,1.6636 -0.22789,2.39285 l 8.135683,9.93601 c 0.227891,0.29626 0.364624,0.6381 0.364624,1.00272 v 5.17311 c -0.06836,1.52687 -2.005434,2.21054 -2.985362,1.00272 l -2.894207,-3.5323 c -0.592515,-0.72925 -1.663599,-0.82041 -2.392848,-0.2279 v 0 c -0.729249,0.59253 -0.820405,1.6636 -0.22789,2.39286 l 8.135683,9.93602 c 0.227891,0.27346 0.364624,0.63809 0.364624,1.00272 v 5.6061 c -0.06836,1.52686 -2.005434,2.21052 -2.985362,1.00271 l -2.894207,-3.5323 c -0.592515,-0.72925 -1.663599,-0.8204 -2.392848,-0.22789 v 0 c -0.729249,0.59251 -0.820405,1.6636 -0.22789,2.39285 l 8.135683,9.93602 c 0.227891,0.29625 0.364624,0.63809 0.364624,1.00271 v 13.81016 c 0,0 0,0.0456 0,0.0684 v 0.43299 c 0,0.93435 0.752039,1.68639 1.686389,1.68639 v 0 c 0.93435,0 1.686388,-0.75204 1.686388,-1.68639 v -0.4102 c 0,0 0,-0.0456 0,-0.0684 v -13.81016 c 0,-0.36462 0.136735,-0.70646 0.364625,-1.00272 l 8.135684,-9.93601 c 0.592514,-0.72925 0.478569,-1.80034 -0.22789,-2.39285 v 0 c -0.729249,-0.59251 -1.800334,-0.47857 -2.392849,0.22789 l -2.894207,3.5323 c -0.979928,1.20782 -2.916996,0.54694 -2.985363,-0.97993 v -5.62889 c 0,-0.36463 0.136735,-0.70646 0.364625,-1.00271 l 8.135684,-9.93602 c 0.592514,-0.72925 0.478569,-1.80034 -0.22789,-2.39285 v 0 c -0.729249,-0.59252 -1.800334,-0.47857 -2.392849,0.22789 l -2.894207,3.53229 c -0.979928,1.20783 -2.916996,0.54694 -2.985363,-0.97993 v -5.19589 c 0,-0.36462 0.136735,-0.70646 0.364625,-1.00272 z"
     id="path3737"
     style="stroke-width:2.27889" />
  <path
     class="cls-33"
     d="m 47.191225,444.82671 c -0.729249,-0.59251 -1.800334,-0.47856 -2.392848,0.2279 l -2.894208,3.5323 c -0.979928,1.20782 -2.916995,0.54693 -2.985362,-0.97993 v -5.62889 c 0,-0.36463 0.136734,-0.70646 0.364624,-1.00272 l 8.135684,-9.93601 c 0.592515,-0.72926 0.47857,-1.80034 -0.22789,-2.39285 v 0 c -0.729249,-0.59252 -1.800334,-0.47858 -2.392848,0.22788 l -2.894208,3.5323 c -0.979928,1.20782 -2.916995,0.54694 -2.985362,-0.97993 v -7.63432 c 0,-0.93435 -0.774827,-1.70917 -1.709178,-1.70917 -0.934349,0 -1.709177,0.77482 -1.709177,1.70917 v 7.63432 c -0.06837,1.52687 -2.005434,2.21054 -2.985363,1.00273 l -2.894207,-3.53231 c -0.592514,-0.72925 -1.663598,-0.8204 -2.392847,-0.22788 v 0 c -0.729249,0.59251 -0.820406,1.6636 -0.227891,2.39284 l 8.135684,9.93602 c 0.22789,0.27347 0.364624,0.63809 0.364624,1.00272 v 5.6061 c -0.06837,1.52686 -2.005434,2.21054 -2.985363,1.00271 l -2.894207,-3.53229 c -0.592514,-0.72925 -1.663598,-0.82041 -2.392847,-0.2279 v 0 c -0.729249,0.59251 -0.820406,1.6636 -0.227891,2.39285 l 8.135684,9.93602 c 0.22789,0.29625 0.364624,0.63809 0.364624,1.00271 v 13.81016 c 0,0 0,0.0456 0,0.0684 v 0.43299 c 0,0.93435 0.752038,1.68639 1.686389,1.68639 v 0 c 0.93435,0 1.686388,-0.75204 1.686388,-1.68639 v -0.4102 c 0,0 0,-0.0456 0,-0.0684 v -13.81015 c 0,-0.36463 0.136734,-0.70646 0.364624,-1.00273 l 8.135684,-9.936 c 0.592515,-0.72926 0.47857,-1.80034 -0.22789,-2.39286 v 0 z"
     id="path3739"
     style="stroke-width:2.27889" />
  <line
     class="cls-4"
     x1="336.90817"
     y1="497.401"
     x2="476.67328"
     y2="497.401"
     id="line3741" />
  <line
     class="cls-4"
     x1="297.392"
     y1="514.85742"
     x2="393.88074"
     y2="514.85742"
     id="line3743" />
  <line
     class="cls-4"
     x1="380.20731"
     y1="530.05774"
     x2="431.09521"
     y2="530.05774"
     id="line3745" />
  <path
     class="cls-3"
     d="m 343.97277,341.79751 c -0.38742,-0.38741 -0.88878,-0.56972 -1.39013,-0.56972 h -55.14946 c -0.50135,0 -1.00272,0.2051 -1.39013,0.56972 -0.38742,0.38741 -0.56973,0.88877 -0.56973,1.39014 v 35.75598 h 59.09196 v -35.75598 c 0,-0.50137 -0.2051,-1.00273 -0.56972,-1.39014 z"
     id="path3747" />
  <rect
     class="cls-34"
     x="290.19064"
     y="345.9679"
     width="49.611721"
     height="32.975727"
     id="rect3749"
     style="stroke-width:2.27889" />
  <path
     class="cls-3"
     d="m 350.53601,381.58716 c 0,0.68367 -0.25068,1.34455 -0.77483,1.8687 -0.52415,0.50136 -1.18503,0.77483 -1.8687,0.77483 h -65.83751 c -0.68367,0 -1.34455,-0.25068 -1.8687,-0.77483 -0.52414,-0.50137 -0.77483,-1.18503 -0.77483,-1.8687 v -2.62074 h 71.10177 v 2.62074 z"
     id="path3751" />
  <line
     class="cls-7"
     x1="296.57159"
     y1="351.30054"
     x2="304.61612"
     y2="351.30054"
     id="line3753"
     style="stroke-width:2.27889" />
  <line
     class="cls-6"
     x1="304.61612"
     y1="359.73245"
     x2="313.29874"
     y2="359.73245"
     id="line3755"
     style="stroke-width:2.27889" />
  <line
     class="cls-6"
     x1="304.61612"
     y1="372.38037"
     x2="313.29874"
     y2="372.38037"
     id="line3757"
     style="stroke-width:2.27889" />
  <line
     class="cls-7"
     x1="296.57159"
     y1="355.51651"
     x2="313.29874"
     y2="355.51651"
     id="line3759"
     style="stroke-width:2.27889" />
  <line
     class="cls-7"
     x1="296.57159"
     y1="363.94846"
     x2="304.61612"
     y2="363.94846"
     id="line3761"
     style="stroke-width:2.27889" />
  <line
     class="cls-7"
     x1="296.57159"
     y1="368.16443"
     x2="313.29874"
     y2="368.16443"
     id="line3763"
     style="stroke-width:2.27889" />
  <line
     class="cls-6"
     x1="316.69431"
     y1="359.73245"
     x2="333.42145"
     y2="359.73245"
     id="line3765"
     style="stroke-width:2.27889" />
  <line
     class="cls-6"
     x1="316.69431"
     y1="372.38037"
     x2="333.42145"
     y2="372.38037"
     id="line3767"
     style="stroke-width:2.27889" />
  <line
     class="cls-6"
     x1="316.69431"
     y1="355.51651"
     x2="325.37689"
     y2="355.51651"
     id="line3769"
     style="stroke-width:2.27889" />
  <line
     class="cls-6"
     x1="316.69431"
     y1="368.16443"
     x2="325.37689"
     y2="368.16443"
     id="line3771"
     style="stroke-width:2.27889" />
  <rect
     class="cls-22"
     x="283.08047"
     y="384.20789"
     width="63.809284"
     height="89.446938"
     id="rect3773" />
  <polyline
     class="cls-4"
     points="168.05 179.83 168.05 188 168.05 205.38"
     id="polyline3775"
     transform="matrix(2.278903,0,0,2.278903,-67.984533,-23.715745)" />
  <polyline
     class="cls-2"
     points="158.39 194 158.39 188.17 177.72 188.17 177.72 193.83"
     id="polyline3777"
     transform="matrix(2.278903,0,0,2.278903,-67.984533,-23.715745)" />
  <rect
     class="cls-25"
     x="309.99432"
     y="419.05231"
     width="10.460165"
     height="10.460165"
     id="rect3779" />
  <rect
     class="cls-25"
     x="287.95734"
     y="419.05231"
     width="10.460165"
     height="10.460165"
     id="rect3781" />
  <rect
     class="cls-25"
     x="331.57556"
     y="419.05231"
     width="10.460165"
     height="10.460165"
     id="rect3783" />
  <rect
     class="cls-2"
     x="288.50424"
     y="445.16855"
     width="52.984497"
     height="15.382596"
     id="rect3785" />
  <path
     class="cls-26"
     d="m 305.68719,473.65484 v -14.42546 c 0,-5.12753 4.19318,-9.29792 9.29793,-9.29792 v 0 c 5.12753,0 9.29792,4.19317 9.29792,9.29792 v 14.42546"
     id="path3787" />
  <line
     class="cls-22"
     x1="341.64828"
     y1="424.08871"
     x2="358.74005"
     y2="424.08871"
     id="line3789" />
  <rect
     class="cls-19"
     x="399.55524"
     y="408.47818"
     width="74.451759"
     height="65.746353"
     id="rect3791" />
  <line
     class="cls-11"
     x1="433.37411"
     y1="416.54553"
     x2="441.35028"
     y2="416.54553"
     id="line3793" />
  <line
     class="cls-11"
     x1="444.19891"
     y1="439.15225"
     x2="450.46588"
     y2="439.15225"
     id="line3795" />
  <line
     class="cls-11"
     x1="448.18698"
     y1="443.3454"
     x2="450.46588"
     y2="443.3454"
     id="line3797" />
  <line
     class="cls-11"
     x1="444.26727"
     y1="434.38934"
     x2="450.53424"
     y2="434.38934"
     id="line3799" />
  <line
     class="cls-11"
     x1="452.94989"
     y1="439.15225"
     x2="466.48657"
     y2="439.15225"
     id="line3801" />
  <line
     class="cls-11"
     x1="458.82947"
     y1="447.88046"
     x2="466.80563"
     y2="447.88046"
     id="line3803" />
  <line
     class="cls-11"
     x1="445.72577"
     y1="447.88046"
     x2="455.6618"
     y2="447.88046"
     id="line3805" />
  <line
     class="cls-11"
     x1="452.69922"
     y1="452.43826"
     x2="460.67538"
     y2="452.43826"
     id="line3807" />
  <line
     class="cls-11"
     x1="444.06219"
     y1="452.43826"
     x2="449.85059"
     y2="452.43826"
     id="line3809" />
  <line
     class="cls-11"
     x1="440.41592"
     y1="456.63144"
     x2="446.22714"
     y2="456.63144"
     id="line3811" />
  <line
     class="cls-11"
     x1="453.1778"
     y1="465.54193"
     x2="458.96622"
     y2="465.54193"
     id="line3813" />
  <line
     class="cls-11"
     x1="436.86087"
     y1="461.12088"
     x2="445.63464"
     y2="461.12088"
     id="line3815" />
  <line
     class="cls-11"
     x1="448.32373"
     y1="461.18924"
     x2="465.27878"
     y2="461.18924"
     id="line3817" />
  <line
     class="cls-11"
     x1="436.51901"
     y1="465.54193"
     x2="450.10126"
     y2="465.54193"
     id="line3819" />
  <line
     class="cls-11"
     x1="451.7421"
     y1="425.50162"
     x2="459.71826"
     y2="425.50162"
     id="line3821" />
  <line
     class="cls-11"
     x1="435.92648"
     y1="425.50162"
     x2="448.64279"
     y2="425.50162"
     id="line3823" />
  <line
     class="cls-11"
     x1="440.48428"
     y1="429.78598"
     x2="453.20059"
     y2="429.78598"
     id="line3825" />
  <line
     class="cls-11"
     x1="453.1778"
     y1="434.34378"
     x2="465.87128"
     y2="434.34378"
     id="line3827" />
  <line
     class="cls-11"
     x1="452.85873"
     y1="443.48215"
     x2="467.96786"
     y2="443.48215"
     id="line3829" />
  <line
     class="cls-22"
     x1="452.47134"
     y1="407.27039"
     x2="452.47134"
     y2="392.18405"
     id="line3831" />
  <circle
     class="cls-22"
     cx="452.44855"
     cy="383.06845"
     id="circle3833"
     r="11.394515" />
  <path
     class="cls-28"
     d="m 458.76111,384.29905 v -2.34727 c 0,0 -1.93707,-0.15952 -1.93707,-0.15952 -0.0912,-0.29626 -0.2051,-0.59252 -0.34183,-0.88877 l 1.29897,-1.54966 -1.6636,-1.6636 -1.48128,1.2534 c -0.27347,-0.15952 -0.56973,-0.27347 -0.86598,-0.38741 l -0.15954,-2.00544 h -2.34726 l -0.15952,1.93707 c -0.29627,0.0912 -0.59252,0.2051 -0.88878,0.34183 l -1.54965,-1.29897 -1.6636,1.6636 1.2534,1.48128 c -0.15953,0.27347 -0.27347,0.56973 -0.38742,0.86599 l -2.00543,0.15952 v 2.34727 l 1.93707,0.15952 c 0.0911,0.29626 0.20509,0.59252 0.34183,0.88878 l -1.29897,1.54965 1.6636,1.6636 1.48129,-1.25339 c 0.27347,0.15952 0.56972,0.27347 0.86598,0.3874 l 0.15952,2.00544 h 2.34727 l 0.15953,-1.93706 c 0.29625,-0.0912 0.59251,-0.20511 0.88876,-0.34184 l 1.54966,1.29898 1.6636,-1.6636 -1.2534,-1.4813 c 0.15952,-0.27346 0.27347,-0.56972 0.38742,-0.86598 z m -6.4493,0.95714 c -1.23061,0 -2.23332,-1.00271 -2.23332,-2.23332 0,-1.23061 1.00271,-2.23333 2.23332,-2.23333 1.23061,0 2.23333,1.00272 2.23333,2.23333 0,1.23061 -1.00272,2.23332 -2.23333,2.23332 z"
     id="path3835"
     style="stroke-width:2.27889" />
  <path
     class="cls-28"
     d="m 284.08319,281.83958 h -35.25462 c -2.37006,0 -4.30713,1.93706 -4.30713,4.30711 0,2.37006 1.93707,4.30713 4.30713,4.30713 h 1.93706 c 0,0 5.72005,0.11395 5.72005,4.30713 0,1.82313 -0.77483,4.01087 -4.35271,4.12481 h -8.86493 c -2.37006,0 -4.30713,1.93707 -4.30713,4.30713 0,2.37006 1.93707,4.30713 4.30713,4.30713 h 7.04181 c 1.36734,0.2051 2.41563,1.34455 2.41563,2.75747 0,1.41293 -1.11666,2.62074 -2.52958,2.78026 h -5.28704 c -1.57246,0 -2.84864,1.27619 -2.84864,2.84864 0,1.57244 1.27618,2.84862 2.84864,2.84862 h 18.41353 c 1.57244,0 2.84862,-1.27618 2.84862,-2.84862 0,-1.57245 -1.27618,-2.84864 -2.84862,-2.84864 h -0.52415 c -1.39013,-0.18231 -2.5068,-1.34455 -2.5068,-2.78026 0,-1.43571 1.0483,-2.52958 2.39285,-2.75747 h 8.97889 c 2.37005,0 4.30712,-1.93707 4.30712,-4.30713 0,-2.37006 -1.93707,-4.30713 -4.30712,-4.30713 h -0.72926 c -2.37006,-0.66087 -4.21597,-2.34727 -4.21597,-4.12481 0,-2.05101 2.21054,-3.78298 5.15032,-4.19318 -0.18231,-0.0456 12.19213,-0.11395 12.19213,-0.11395 2.37006,0 4.30713,-1.93707 4.30713,-4.30713 0,-2.37005 -1.93707,-4.30711 -4.30713,-4.30711 z"
     id="path3837"
     style="stroke-width:2.27889" />
  <rect
     class="cls-1"
     x="102.2951"
     y="418.14075"
     width="135.07059"
     height="57.542301"
     id="rect3839"
     style="stroke-width:2.27889" />
  <path
     class="cls-15"
     d="M 236.47691,474.79429 V 419.02953 H 103.18387 v 55.76476 z"
     id="path3841" />
  <path
     class="cls-30"
     d="m 102.34068,454.05627 17.34245,-15.06355 c 0.34184,-0.34183 0.91156,-0.34183 1.2534,0 l 9.89043,9.89044 5.87957,-22.74345 c 0.11395,-0.47857 0.59252,-0.75204 1.07109,-0.63809 0.29626,0.0684 0.50136,0.27347 0.59251,0.54693 l 17.77545,41.90903 11.18941,-27.96213 c 0.18231,-0.45579 0.68368,-0.66089 1.13945,-0.47858 0.2279,0.0912 0.38742,0.25068 0.47857,0.45578 v 0 c 0,0 7.11018,15.40538 7.11018,15.40538 l 12.55676,-32.65668 c 0.18231,-0.45577 0.68367,-0.68367 1.13945,-0.50135 0.25068,0.0911 0.43299,0.29626 0.52415,0.52414 v 0 c 0,0 14.69892,42.27365 14.69892,42.27365 l 3.55509,-30.76518 c 0.0456,-0.47858 0.50135,-0.84319 0.97993,-0.77483 0.4102,0.0456 0.72924,0.36463 0.77482,0.77483 l 4.85407,26.13901 8.79656,-15.81559 c 0.22789,-0.43299 0.77483,-0.56972 1.20782,-0.34183 v 0 c 0,0 0,0 0,0 l 12.64792,7.31528 -0.88878,1.52686 -11.87308,-6.85949 -9.5486,17.18293 v 0 c -0.11395,0.22788 -0.34184,0.3874 -0.61531,0.43299 -0.47857,0.0912 -0.93436,-0.2279 -1.02551,-0.70646 l -4.26155,-22.8574 -3.32719,28.78254 v 0 c -0.0456,0.31905 -0.25068,0.6153 -0.59252,0.72925 -0.45578,0.15952 -0.95713,-0.0912 -1.11667,-0.54694 l -15.17749,-43.64098 -12.42002,32.29205 c -0.0684,0.22789 -0.22789,0.43299 -0.47857,0.54693 -0.43299,0.20511 -0.95714,0 -1.16223,-0.43299 l -7.13297,-15.42817 -11.2122,28.03051 v 0 c -0.0911,0.2051 -0.25069,0.38741 -0.47858,0.47857 -0.45578,0.18231 -0.95714,0 -1.16224,-0.47857 l -17.61592,-41.52161 -5.6061,21.64957 c -0.0228,0.18232 -0.11395,0.34184 -0.25068,0.47858 -0.34183,0.34183 -0.91156,0.34183 -1.25339,0 l -10.36902,-10.36901 -16.72714,14.44824 -1.2534,-1.25339 z"
     id="path3843"
     style="stroke-width:2.27889" />
  <path
     class="cls-29"
     d="m 192.06109,424.40774 c 0,1.48129 -1.20782,2.7119 -2.71189,2.7119 -1.50408,0 -2.71189,-1.20782 -2.71189,-2.7119 0,-1.50407 1.20781,-2.71189 2.71189,-2.71189 1.50407,0 2.71189,1.20782 2.71189,2.71189 z"
     id="path3845"
     style="stroke-width:2.27889" />
  <path
     class="cls-30"
     d="m 192.92707,424.40774 c 0,0.97993 -0.41019,1.8915 -1.04829,2.52958 v 0 c 0,0 0,0 0,0 v 0 c -0.6381,0.66089 -1.54966,1.0483 -2.52958,1.0483 -0.97993,0 -1.8915,-0.4102 -2.52959,-1.0483 0,0 -0.0456,-0.0456 -0.0456,-0.0684 -0.61531,-0.6381 -1.00273,-1.52687 -1.00273,-2.48401 0,-0.95714 0.41021,-1.89148 1.0483,-2.52958 0.63809,-0.63809 1.54966,-1.04829 2.52959,-1.04829 0.97992,0 1.89148,0.4102 2.52958,1.04829 v 0 c 0.6381,0.6381 1.04829,1.54966 1.04829,2.52958 v 0 z m -2.30169,1.27619 c 0.31904,-0.31905 0.52415,-0.77483 0.52415,-1.27619 0,-0.50135 -0.20511,-0.95714 -0.52415,-1.27618 v 0 c 0,0 0,0 0,0 -0.31904,-0.31905 -0.77483,-0.52415 -1.27618,-0.52415 -0.50137,0 -0.95714,0.2051 -1.27619,0.52415 -0.31904,0.31904 -0.52415,0.77483 -0.52415,1.27618 0,0.50136 0.18231,0.93435 0.50136,1.2534 l 0.0456,0.0456 c 0.31904,0.31905 0.77482,0.52414 1.27618,0.52414 0.50137,0 0.95714,-0.20509 1.27619,-0.52414 v 0 z"
     id="path3847"
     style="stroke-width:2.27889" />
  <circle
     class="cls-28"
     cx="168.72513"
     cy="440.38284"
     id="circle3849"
     style="stroke-width:2.27889"
     r="2.7118948" />
  <path
     class="cls-30"
     d="m 172.303,440.38285 c 0,0.97993 -0.4102,1.8915 -1.04829,2.52958 v 0 c 0,0 0,0 0,0 v 0 c -0.66089,0.66089 -1.54966,1.0483 -2.52958,1.0483 -0.97993,0 -1.8915,-0.4102 -2.52959,-1.0483 0,0 -0.0456,-0.0456 -0.0456,-0.0684 -0.6153,-0.6381 -1.00272,-1.52687 -1.00272,-2.48401 0,-0.95714 0.41021,-1.89148 1.0483,-2.52958 0.63809,-0.63809 1.54966,-1.04829 2.52959,-1.04829 0.97992,0 1.89148,0.4102 2.52958,1.04829 v 0 c 0.63809,0.6381 1.04829,1.54965 1.04829,2.52958 v 0 z m -2.30169,1.27619 c 0.31904,-0.31905 0.52415,-0.77483 0.52415,-1.27619 0,-0.50135 -0.20511,-0.95713 -0.52415,-1.27618 v 0 c 0,0 0,0 0,0 -0.31904,-0.31905 -0.77483,-0.52414 -1.27618,-0.52414 -0.50137,0 -0.95714,0.20509 -1.27619,0.52414 -0.31905,0.31905 -0.52415,0.77483 -0.52415,1.27618 0,0.50136 0.18231,0.93435 0.50135,1.2534 l 0.0456,0.0456 c 0.31904,0.31905 0.77482,0.52414 1.27618,0.52414 0.50136,0 0.95714,-0.20509 1.27619,-0.52414 v 0 z"
     id="path3851"
     style="stroke-width:2.27889" />
  <path
     class="cls-29"
     d="m 179.11692,455.4464 c 0,1.48129 -1.20782,2.7119 -2.71189,2.7119 -1.50408,0 -2.7119,-1.20782 -2.7119,-2.7119 0,-1.50407 1.20782,-2.71189 2.7119,-2.71189 1.50407,0 2.71189,1.20782 2.71189,2.71189 z"
     id="path3853"
     style="stroke-width:2.27889" />
  <path
     class="cls-30"
     d="m 179.9829,455.4464 c 0,0.97993 -0.4102,1.89149 -1.04829,2.52959 v 0 c 0,0 0,0 0,0 v 0 c -0.66088,0.66088 -1.54965,1.04829 -2.52958,1.04829 -0.97993,0 -1.89149,-0.4102 -2.52959,-1.04829 0,0 -0.0456,-0.0456 -0.0456,-0.0684 -0.6153,-0.63808 -1.00271,-1.52685 -1.00271,-2.48399 0,-0.95714 0.4102,-1.8915 1.04829,-2.52958 0.6381,-0.6381 1.54966,-1.04831 2.52959,-1.04831 0.97993,0 1.89149,0.41021 2.52958,1.04831 v 0 c 0.63809,0.63808 1.04829,1.54965 1.04829,2.52958 v 0 z m -2.30168,1.27619 c 0.31904,-0.31904 0.52414,-0.77483 0.52414,-1.27619 0,-0.50136 -0.2051,-0.95714 -0.52414,-1.27618 v 0 c 0,0 0,0 0,0 -0.31906,-0.31904 -0.77484,-0.52415 -1.27619,-0.52415 -0.50136,0 -0.95714,0.20511 -1.27619,0.52415 -0.31905,0.31904 -0.52414,0.77482 -0.52414,1.27618 0,0.50136 0.18231,0.93436 0.50135,1.2534 l 0.0456,0.0456 c 0.31905,0.31904 0.77483,0.52415 1.27619,0.52415 0.50135,0 0.95714,-0.20511 1.27618,-0.52415 v 0 z"
     id="path3855"
     style="stroke-width:2.27889" />
  <path
     class="cls-29"
     d="m 208.01341,466.38514 c 0,1.48129 -1.20781,2.71189 -2.71189,2.71189 -1.50408,0 -2.7119,-1.20781 -2.7119,-2.71189 0,-1.50408 1.20782,-2.71189 2.7119,-2.71189 1.50408,0 2.71189,1.20781 2.71189,2.71189 z"
     id="path3857"
     style="stroke-width:2.27889" />
  <path
     class="cls-30"
     d="m 208.90218,466.38514 c 0,0.97993 -0.4102,1.89149 -1.04829,2.52958 v 0 c 0,0 0,0 0,0 v 0 c -0.66089,0.66088 -1.54966,1.0483 -2.52958,1.0483 -0.97993,0 -1.8915,-0.4102 -2.52959,-1.0483 0,0 -0.0456,-0.0456 -0.0456,-0.0684 -0.61531,-0.6381 -1.00273,-1.52687 -1.00273,-2.48401 0,-0.95714 0.41021,-1.89149 1.0483,-2.52958 0.63809,-0.6381 1.54966,-1.0483 2.52959,-1.0483 0.97992,0 1.89148,0.4102 2.52958,1.0483 v 0 c 0.63809,0.63809 1.04829,1.54965 1.04829,2.52958 v 0 z m -2.30169,1.27618 c 0.31904,-0.31904 0.52415,-0.77482 0.52415,-1.27618 0,-0.50136 -0.20511,-0.95714 -0.52415,-1.27619 v 0 c 0,0 0,0 0,0 -0.31904,-0.31904 -0.77482,-0.52415 -1.27618,-0.52415 -0.50137,0 -0.95715,0.20511 -1.27619,0.52415 -0.31904,0.31905 -0.52415,0.77483 -0.52415,1.27619 0,0.50136 0.18231,0.93435 0.50136,1.2534 l 0.0456,0.0456 c 0.31904,0.31905 0.77483,0.52415 1.27618,0.52415 0.50137,0 0.95714,-0.2051 1.27619,-0.52415 v 0 z"
     id="path3859"
     style="stroke-width:2.27889" />
  <path
     class="cls-29"
     d="m 212.13823,437.05566 c 0,1.48128 -1.20782,2.71189 -2.7119,2.71189 -1.50407,0 -2.71189,-1.20782 -2.71189,-2.71189 0,-1.50408 1.20782,-2.7119 2.71189,-2.7119 1.50408,0 2.7119,1.20782 2.7119,2.7119 z"
     id="path3861"
     style="stroke-width:2.27889" />
  <path
     class="cls-30"
     d="m 213.027,437.05566 c 0,0.97993 -0.41021,1.89148 -1.0483,2.52958 v 0 c 0,0 0,0 0,0 v 0 c -0.66088,0.66088 -1.54966,1.04829 -2.52958,1.04829 -0.97993,0 -1.89149,-0.4102 -2.52959,-1.04829 0,0 -0.0456,-0.0456 -0.0456,-0.0684 -0.6153,-0.63809 -1.00272,-1.52687 -1.00272,-2.48401 0,-0.95713 0.41021,-1.89148 1.04829,-2.52958 0.6381,-0.63809 1.54966,-1.04829 2.52959,-1.04829 0.97992,0 1.89149,0.4102 2.52958,1.04829 v 0 c 0.63809,0.6381 1.0483,1.54965 1.0483,2.52958 v 0 z m -2.30169,1.27618 c 0.31904,-0.31905 0.52414,-0.77483 0.52414,-1.27618 0,-0.50136 -0.2051,-0.95714 -0.52414,-1.27618 v 0 c 0,0 0,0 0,0 -0.31905,-0.31906 -0.77483,-0.52415 -1.27619,-0.52415 -0.50136,0 -0.95714,0.20509 -1.27619,0.52415 -0.31904,0.31904 -0.52414,0.77482 -0.52414,1.27618 0,0.50135 0.18231,0.93434 0.50135,1.2534 l 0.0456,0.0456 c 0.31905,0.31905 0.77483,0.52415 1.27619,0.52415 0.50136,0 0.95713,-0.2051 1.27619,-0.52415 v 0 z"
     id="path3863"
     style="stroke-width:2.27889" />
  <circle
     class="cls-28"
     cx="224.67218"
     cy="445.0318"
     id="circle3865"
     style="stroke-width:2.27889"
     r="2.7118948" />
  <path
     class="cls-30"
     d="m 228.27286,445.03182 c 0,0.97993 -0.4102,1.89149 -1.0483,2.52958 v 0 c 0,0 0,0 0,0 v 0 c -0.66087,0.66088 -1.54965,1.04829 -2.52958,1.04829 -0.97993,0 -1.89149,-0.4102 -2.52958,-1.04829 0,0 -0.0456,-0.0456 -0.0456,-0.0684 -0.61531,-0.63809 -1.00271,-1.52687 -1.00271,-2.48401 0,-0.95713 0.4102,-1.89148 1.04829,-2.52958 0.63809,-0.63809 1.54965,-1.04829 2.52958,-1.04829 0.97993,0 1.89149,0.4102 2.52958,1.04829 v 0 c 0.6381,0.6381 1.0483,1.54966 1.0483,2.52958 v 0 z m -2.3017,1.27619 c 0.31906,-0.31906 0.52415,-0.77484 0.52415,-1.27619 0,-0.50136 -0.20509,-0.95714 -0.52415,-1.27619 v 0 c 0,0 0,0 0,0 -0.31904,-0.31905 -0.77482,-0.52414 -1.27618,-0.52414 -0.50135,0 -0.95714,0.20509 -1.27619,0.52414 -0.31904,0.31905 -0.52415,0.77483 -0.52415,1.27619 0,0.50135 0.18232,0.93434 0.50137,1.2534 l 0.0456,0.0456 c 0.31906,0.31905 0.77483,0.52415 1.27619,0.52415 0.50136,0 0.95714,-0.2051 1.27619,-0.52415 v 0 z"
     id="path3867"
     style="stroke-width:2.27889" />
  <circle
     class="cls-28"
     cx="156.44183"
     cy="468.45895"
     id="circle3869"
     style="stroke-width:2.27889"
     r="2.7118948" />
  <path
     class="cls-30"
     d="m 160.04251,468.45894 c 0,0.97993 -0.41021,1.89149 -1.04831,2.52958 v 0 c 0,0 0,0 0,0 v 0 c -0.66088,0.66089 -1.54965,1.04829 -2.52958,1.04829 -0.97993,0 -1.89148,-0.4102 -2.52958,-1.04829 0,0 -0.0456,-0.0456 -0.0456,-0.0684 -0.61531,-0.63809 -1.00272,-1.52686 -1.00272,-2.484 0,-0.95714 0.4102,-1.89149 1.04829,-2.52958 0.6381,-0.63809 1.54965,-1.0483 2.52958,-1.0483 0.97993,0 1.8915,0.41021 2.52958,1.0483 v 0 c 0.6381,0.63809 1.04831,1.54966 1.04831,2.52958 v 0 z m -2.3017,1.27619 c 0.31905,-0.31905 0.52415,-0.77484 0.52415,-1.27619 0,-0.50136 -0.2051,-0.95714 -0.52415,-1.27618 v 0 c 0,0 0,0 0,0 -0.31905,-0.31906 -0.77482,-0.52415 -1.27619,-0.52415 -0.50135,0 -0.95714,0.20509 -1.27618,0.52415 -0.31905,0.31904 -0.52415,0.77482 -0.52415,1.27618 0,0.50135 0.18232,0.93435 0.50136,1.2534 l 0.0456,0.0456 c 0.31904,0.31905 0.77483,0.52415 1.27618,0.52415 0.50136,0 0.95714,-0.2051 1.27618,-0.52415 v 0 z"
     id="path3871"
     style="stroke-width:2.27889" />
  <path
     class="cls-29"
     d="m 123.21543,439.83591 c 0,1.48129 -1.20782,2.7119 -2.7119,2.7119 -1.50407,0 -2.71189,-1.20782 -2.71189,-2.7119 0,-1.50407 1.20782,-2.71189 2.71189,-2.71189 1.50408,0 2.7119,1.20782 2.7119,2.71189 z"
     id="path3873"
     style="stroke-width:2.27889" />
  <path
     class="cls-30"
     d="m 124.1042,439.83591 c 0,0.97993 -0.4102,1.8915 -1.04829,2.52959 v 0 c 0,0 0,0 0,0 v 0 c -0.6381,0.66088 -1.54965,1.0483 -2.52958,1.0483 -0.97993,0 -1.8915,-0.41021 -2.52958,-1.0483 0,0 -0.0456,-0.0456 -0.0456,-0.0684 -0.6153,-0.63809 -1.00271,-1.52686 -1.00271,-2.484 0,-0.95715 0.4102,-1.89149 1.0483,-2.52959 0.63808,-0.63808 1.54965,-1.04829 2.52958,-1.04829 0.97993,0 1.89148,0.41021 2.52958,1.04829 v 0 c 0.63809,0.6381 1.04829,1.54966 1.04829,2.52959 v 0 z m -2.30169,1.2762 c 0.31905,-0.31906 0.52414,-0.77483 0.52414,-1.2762 0,-0.50135 -0.20509,-0.95713 -0.52414,-1.27618 v 0 c 0,0 0,0 0,0 -0.31905,-0.31905 -0.77483,-0.52414 -1.27618,-0.52414 -0.50136,0 -0.95714,0.20509 -1.2762,0.52414 -0.31904,0.31905 -0.52414,0.77483 -0.52414,1.27618 0,0.50137 0.18231,0.93436 0.50136,1.2534 l 0.0456,0.0456 c 0.31904,0.31905 0.77482,0.52415 1.27619,0.52415 0.50135,0 0.95714,-0.2051 1.27618,-0.52415 v 0 z"
     id="path3875"
     style="stroke-width:2.27889" />
  <path
     class="cls-29"
     d="m 140.5123,427.21079 c 0,1.48129 -1.20781,2.7119 -2.71189,2.7119 -1.50408,0 -2.71189,-1.20782 -2.71189,-2.7119 0,-1.50407 1.20781,-2.71189 2.71189,-2.71189 1.50408,0 2.71189,1.20782 2.71189,2.71189 z"
     id="path3877"
     style="stroke-width:2.27889" />
  <path
     class="cls-30"
     d="m 141.40108,427.21079 c 0,0.97993 -0.4102,1.8915 -1.0483,2.52958 v 0 c 0,0 0,0 0,0 v 0 c -0.66089,0.66089 -1.54965,1.0483 -2.52958,1.0483 -0.97993,0 -1.89149,-0.4102 -2.52958,-1.0483 0,0 -0.0456,-0.0456 -0.0456,-0.0684 -0.61531,-0.6381 -1.00272,-1.52686 -1.00272,-2.48401 0,-0.95714 0.4102,-1.89148 1.0483,-2.52958 0.63809,-0.63808 1.54965,-1.04829 2.52958,-1.04829 0.97993,0 1.89149,0.41021 2.52958,1.04829 v 0 c 0.6381,0.6381 1.0483,1.54966 1.0483,2.52958 v 0 z m -2.3017,1.27619 c 0.31905,-0.31905 0.52415,-0.77483 0.52415,-1.27619 0,-0.50135 -0.2051,-0.95713 -0.52415,-1.27618 v 0 c 0,0 0,0 0,0 -0.31904,-0.31905 -0.77482,-0.52415 -1.27618,-0.52415 -0.50136,0 -0.95714,0.2051 -1.27619,0.52415 -0.31904,0.31905 -0.52415,0.77483 -0.52415,1.27618 0,0.50136 0.18232,0.93436 0.50137,1.2534 l 0.0456,0.0456 c 0.31904,0.31905 0.77483,0.52414 1.27618,0.52414 0.50137,0 0.95715,-0.20509 1.27619,-0.52414 v 0 z"
     id="path3879"
     style="stroke-width:2.27889" />
  <path
     class="cls-29"
     d="m 133.81232,449.52126 c 0,1.48128 -1.20781,2.71189 -2.71189,2.71189 -1.50408,0 -2.71189,-1.20782 -2.71189,-2.71189 0,-1.50408 1.20781,-2.7119 2.71189,-2.7119 1.50408,0 2.71189,1.20782 2.71189,2.7119 z"
     id="path3881"
     style="stroke-width:2.27889" />
  <path
     class="cls-30"
     d="m 134.67832,449.52126 c 0,0.97993 -0.41021,1.89148 -1.04831,2.52958 v 0 c 0,0 0,0 0,0 v 0 c -0.66088,0.66088 -1.54965,1.04829 -2.52958,1.04829 -0.97993,0 -1.89148,-0.4102 -2.52958,-1.04829 0,0 -0.0456,-0.0456 -0.0456,-0.0684 -0.61531,-0.63809 -1.00272,-1.52687 -1.00272,-2.48401 0,-0.95713 0.41019,-1.89148 1.04829,-2.52958 0.6381,-0.63809 1.54965,-1.04829 2.52958,-1.04829 0.97993,0 1.8915,0.4102 2.52958,1.04829 v 0 c 0.6381,0.6381 1.04831,1.54965 1.04831,2.52958 v 0 z m -2.3017,1.27618 c 0.31904,-0.31905 0.52415,-0.77483 0.52415,-1.27618 0,-0.50136 -0.20511,-0.95714 -0.52415,-1.2762 v 0 c 0,0 0,0 0,0 -0.31905,-0.31904 -0.77482,-0.52414 -1.27619,-0.52414 -0.50135,0 -0.95714,0.2051 -1.27618,0.52414 -0.31905,0.31906 -0.52415,0.77484 -0.52415,1.2762 0,0.50135 0.18232,0.93434 0.50136,1.2534 l 0.0456,0.0456 c 0.31904,0.31905 0.77483,0.52415 1.27618,0.52415 0.50136,0 0.95714,-0.2051 1.27619,-0.52415 v 0 z"
     id="path3883"
     style="stroke-width:2.27889" />
  <rect
     class="cls-16"
     x="102.97876"
     y="400.25137"
     width="55.969856"
     height="18.983263"
     id="rect3885" />
  <path
     class="cls-32"
     d="m 130.9637,414.28941 c -3.21326,-0.0684 -5.76562,-2.73467 -5.69726,-5.94793 0.0684,-3.21325 2.73469,-5.76563 5.94794,-5.69726 3.21325,0.0684 5.76562,2.73468 5.69726,5.94793 -0.0684,3.21326 -2.73469,5.76564 -5.94794,5.69726 z"
     id="path3887"
     style="stroke-width:2.27889" />
  <path
     class="cls-31"
     d="m 130.9637,414.97309 c -1.80034,-0.0456 -3.41835,-0.79762 -4.5578,-2.00544 -1.16225,-1.20782 -1.84592,-2.84863 -1.80034,-4.64897 0.0456,-1.80032 0.79761,-3.41835 2.00543,-4.5578 1.20783,-1.13945 2.84863,-1.84591 4.64896,-1.80033 1.80034,0.0456 3.41837,0.79762 4.55782,2.00543 1.16223,1.20782 1.84591,2.84864 1.80033,4.64897 -0.0456,1.80033 -0.79762,3.41835 -2.00544,4.5578 -1.20781,1.13945 -2.84863,1.84591 -4.64896,1.80034 z m -3.55509,-2.96258 c 0.91156,0.95714 2.18774,1.54966 3.60066,1.59523 1.41293,0.0228 2.7119,-0.52415 3.66905,-1.41292 0.95713,-0.91155 1.54965,-2.18774 1.59522,-3.60067 0.0228,-1.41292 -0.52415,-2.71189 -1.4357,-3.66903 -0.91157,-0.95714 -2.18775,-1.54965 -3.60067,-1.59523 -1.41292,-0.0228 -2.71189,0.52415 -3.66903,1.41292 -0.95715,0.91156 -1.54966,2.18775 -1.59524,3.60067 -0.0228,1.41292 0.52415,2.71189 1.43571,3.66903 z"
     id="path3889"
     style="stroke-width:2.27889" />
  <path
     class="cls-31"
     d="m 136.91164,409.27583 h -1.43572 c 0,0 0.0228,-1.41292 0.0228,-1.41292 h 1.43572 c 0,0 -0.0228,1.41292 -0.0228,1.41292 z m -2.27891,3.87413 -0.97993,-1.0255 1.00272,-0.95714 0.97993,1.0255 z m -7.06459,-7.38364 -0.97993,-1.02551 1.00271,-0.95714 0.97993,1.0255 z m -1.16224,6.22141 1.0255,-0.97993 0.95714,1.00271 -1.02551,0.97993 z m 7.38364,-7.06461 1.02551,-0.97993 0.95713,1.00272 -1.0255,0.97993 z m -3.50951,9.34351 v -1.43571 c 0,0 1.41292,0.0228 1.41292,0.0228 v 1.4357 c 0,0 -1.41292,-0.0228 -1.41292,-0.0228 z m 0.22789,-10.20949 v -1.43571 c 0,0 1.41292,0.0228 1.41292,0.0228 v 1.43571 c 0,0 -1.41292,-0.0228 -1.41292,-0.0228 z m -3.80577,4.9908 h -1.43571 c 0,0 0.0228,-1.41292 0.0228,-1.41292 h 1.4357 c 0,0 -0.0228,1.41292 -0.0228,1.41292 z"
     id="path3891"
     style="stroke-width:2.27889" />
  <path
     class="cls-32"
     d="m 120.61748,405.69795 c 1.52686,2.82584 0.45579,6.35814 -2.37006,7.885 -2.82584,1.52687 -6.35814,0.45578 -7.885,-2.37006 -1.52687,-2.82583 -0.45578,-6.35813 2.37006,-7.885 2.82583,-1.52686 6.35813,-0.45578 7.885,2.37006 z"
     id="path3893"
     style="stroke-width:2.27889" />
  <path
     class="cls-31"
     d="m 121.23279,405.3789 c 0.84319,1.59524 0.97993,3.37279 0.50135,4.96801 -0.47857,1.59523 -1.57244,3.00815 -3.16767,3.85134 -1.59524,0.8432 -3.37277,0.97993 -4.96801,0.50137 -1.59523,-0.47857 -3.00815,-1.57244 -3.85134,-3.16768 -0.8432,-1.59523 -0.97993,-3.37278 -0.50137,-4.96801 0.47857,-1.59522 1.57244,-3.00815 3.16768,-3.85135 1.59523,-0.84319 3.37278,-0.97993 4.96801,-0.50135 1.59523,0.47857 3.00815,1.57244 3.85135,3.16767 z m -0.82041,4.55781 c 0.38742,-1.2534 0.27347,-2.66632 -0.38741,-3.91971 -0.66089,-1.2534 -1.77755,-2.09659 -3.03095,-2.48401 -1.2534,-0.38741 -2.66632,-0.27347 -3.91971,0.38742 -1.2534,0.66088 -2.09659,1.77754 -2.484,3.03094 -0.38742,1.2534 -0.27347,2.66632 0.38741,3.91971 0.66088,1.2534 1.77754,2.09659 3.03094,2.484 1.2534,0.38742 2.66632,0.27347 3.91971,-0.38741 1.2534,-0.66088 2.0966,-1.77754 2.48401,-3.03094 z"
     id="path3895"
     style="stroke-width:2.27889" />
  <path
     class="cls-30"
     d="m 115.64947,408.38706 v -0.0456 c 0,0 -0.0684,-0.0456 -0.11394,-0.0684 -0.0456,0 -0.0684,0 -0.11395,0 h -0.0456 c 0,0 -0.0456,0.0684 -0.0684,0.11395 0,0.0456 0,0.0684 0,0.11394 v 0.0456 c 0,0 0.0684,0.0456 0.11395,0.0684 0.0456,0 0.0684,0 0.11395,0 h 0.0456 c 0,0 0.0456,-0.0684 0.0684,-0.11395 0,-0.0456 0,-0.0684 0,-0.11394 z m 1.23061,-0.6381 c 0.18231,0.36463 0.22789,0.79762 0.11394,1.16225 -0.11394,0.3874 -0.36462,0.72924 -0.75203,0.91155 h -0.0228 c -0.36463,0.20511 -0.79762,0.2279 -1.16224,0.11395 -0.38741,-0.11395 -0.72926,-0.38742 -0.91156,-0.75203 v 0 c -0.18231,-0.41021 -0.2279,-0.82041 -0.11395,-1.18504 0.11395,-0.38742 0.38741,-0.72925 0.75204,-0.91156 h 0.0228 c 0.36462,-0.2051 0.79761,-0.22789 1.16224,-0.11394 0.38741,0.11394 0.72924,0.38741 0.91156,0.75203 v 0 z"
     id="path3897"
     style="stroke-width:2.27889" />
  <path
     class="cls-31"
     d="m 113.32499,402.98605 0.68367,1.2534 -1.20782,0.6381 -0.68366,-1.2534 z m 4.48944,0.0912 -0.41021,1.36735 -1.32176,-0.38742 0.41021,-1.36734 z m -2.93979,9.7765 -0.4102,1.36734 -1.32176,-0.38741 0.4102,-1.36735 z m 5.99352,-2.05102 -1.36735,-0.4102 0.38742,-1.32176 1.36734,0.4102 z m -9.7765,-2.93978 -1.36734,-0.41021 0.38741,-1.32176 1.36735,0.41021 z m 9.86766,-1.54966 -1.2534,0.68367 -0.6381,-1.20782 1.2534,-0.68366 z m -9.00168,4.83128 -1.25339,0.68367 -0.63809,-1.20782 1.2534,-0.68367 z m 6.22142,0.86598 0.68367,1.2534 -1.20782,0.63809 -0.68368,-1.2534 z"
     id="path3899"
     style="stroke-width:2.27889" />
  <path
     class="cls-32"
     d="m 146.32351,414.28941 c -3.21326,-0.0684 -5.76562,-2.73467 -5.69726,-5.94793 0.0684,-3.21325 2.73469,-5.76563 5.94794,-5.69726 3.21324,0.0684 5.76562,2.73468 5.69725,5.94793 -0.0684,3.21326 -2.73468,5.76564 -5.94793,5.69726 z"
     id="path3901"
     style="stroke-width:2.27889" />
  <path
     class="cls-31"
     d="m 146.30072,414.97309 c -1.80033,-0.0456 -3.41836,-0.79762 -4.55781,-2.00544 -1.13945,-1.20782 -1.84591,-2.84863 -1.80033,-4.64897 0.0456,-1.80032 0.79761,-3.41835 2.00544,-4.5578 1.20781,-1.13945 2.84862,-1.84591 4.64896,-1.80033 1.80033,0.0456 3.41835,0.79762 4.5578,2.00543 1.16225,1.20782 1.84591,2.84864 1.80033,4.64897 -0.0456,1.80033 -0.79762,3.41835 -2.00543,4.5578 -1.20782,1.13945 -2.84863,1.84591 -4.64896,1.80034 z m -3.55509,-2.96258 c 0.91156,0.95714 2.18775,1.54966 3.60067,1.59523 1.41291,0.0228 2.71189,-0.52415 3.66903,-1.41292 0.95714,-0.91155 1.54965,-2.18774 1.59524,-3.60067 0.0228,-1.41292 -0.52415,-2.71189 -1.43572,-3.66903 -0.91156,-0.95714 -2.18774,-1.54965 -3.60066,-1.59523 -1.41293,-0.0228 -2.7119,0.52415 -3.66904,1.41292 -0.95713,0.91156 -1.54966,2.18775 -1.59523,3.60067 -0.0228,1.41292 0.52415,2.71189 1.41292,3.66903 z"
     id="path3903"
     style="stroke-width:2.27889" />
  <path
     class="cls-31"
     d="m 152.24865,409.27583 h -1.4357 c 0,0 0.0228,-1.41292 0.0228,-1.41292 h 1.43571 c 0,0 -0.0228,1.41292 -0.0228,1.41292 z m -2.2789,3.87413 -0.97993,-1.0255 1.00272,-0.95714 0.97993,1.0255 z m -7.0646,-7.38364 -0.97993,-1.02551 1.00273,-0.95714 0.97992,1.0255 z m -1.16224,6.22141 1.0255,-0.97993 0.95714,1.00271 -1.0255,0.97993 z m 7.38365,-7.06461 1.0255,-0.97993 0.95714,1.00272 -1.0255,0.97993 z m -3.50951,9.34351 v -1.43571 c 0,0 1.41292,0.0228 1.41292,0.0228 v 1.4357 c 0,0 -1.41292,-0.0228 -1.41292,-0.0228 z m 0.22788,-10.20949 v -1.43571 c 0,0 1.41292,0.0228 1.41292,0.0228 v 1.43571 c 0,0 -1.41292,-0.0228 -1.41292,-0.0228 z m -3.80576,4.9908 h -1.43571 c 0,0 0.0228,-1.41292 0.0228,-1.41292 h 1.4357 c 0,0 -0.0228,1.41292 -0.0228,1.41292 z"
     id="path3905"
     style="stroke-width:2.27889" />
  <line
     class="cls-9"
     x1="114.98859"
     y1="407.56665"
     x2="113.9403"
     y2="405.90308"
     id="line3907" />
  <path
     class="cls-30"
     d="m 130.9637,408.52379 h 0.0228 c 0,0 0.0684,0.0684 0.11394,0.0684 0.0456,0 0.0684,0 0.11395,-0.0228 h 0.0228 c 0,0 0.0456,-0.0911 0.0456,-0.13674 0,-0.0456 0,-0.0684 -0.0228,-0.11395 h -0.0228 c 0,0 -0.0684,-0.0684 -0.11395,-0.0684 -0.0456,0 -0.0684,0 -0.11395,0.0228 h -0.0228 c 0,0 -0.0456,0.0912 -0.0456,0.13673 0,0.0456 0,0.0684 0.0228,0.11395 z m -1.0255,0.91156 c -0.27347,-0.31905 -0.38742,-0.70646 -0.36463,-1.11667 0,-0.3874 0.2051,-0.77482 0.52415,-1.07107 v 0 c 0.31904,-0.29626 0.70646,-0.41021 1.09387,-0.38742 0.38742,0.0228 0.79761,0.20511 1.07108,0.52415 v 0 c 0.27347,0.34183 0.38742,0.72925 0.36463,1.11666 0,0.38742 -0.2051,0.79761 -0.52415,1.07108 v 0 c -0.31904,0.29627 -0.70646,0.4102 -1.09388,0.38742 -0.3874,-0.0228 -0.79761,-0.2051 -1.07107,-0.52415 z"
     id="path3909"
     style="stroke-width:2.27889" />
  <line
     class="cls-9"
     x1="131.80688"
     y1="409.18469"
     x2="133.19702"
     y2="410.57483"
     id="line3911" />
  <path
     class="cls-30"
     d="m 146.43746,408.36427 h -0.0456 c 0,0 -0.0684,0 -0.11395,0.0456 -0.0228,0.0228 -0.0456,0.0684 -0.0684,0.0912 v 0.0456 c 0,0 0,0.0684 0.0456,0.11395 0.0228,0.0228 0.0684,0.0456 0.0912,0.0684 h 0.0456 c 0,0 0.0684,0 0.11395,-0.0456 0.0228,-0.0228 0.0456,-0.0684 0.0684,-0.0911 v -0.0456 c 0,0 0,-0.0684 -0.0456,-0.11395 -0.0228,-0.0228 -0.0684,-0.0456 -0.0911,-0.0684 z m 0.0911,-1.36735 c 0.4102,0.0456 0.79761,0.2279 1.0483,0.52416 0.25068,0.29625 0.4102,0.70645 0.3874,1.13945 v 0 c -0.0456,0.45577 -0.22788,0.8204 -0.52414,1.07108 -0.29625,0.25067 -0.70646,0.4102 -1.13945,0.38741 h -0.0228 c -0.41019,-0.0456 -0.79761,-0.22788 -1.04829,-0.52414 -0.25068,-0.29627 -0.4102,-0.70646 -0.38741,-1.13946 v 0 c 0.0456,-0.45578 0.22789,-0.8204 0.52415,-1.07108 0.29625,-0.25068 0.70646,-0.4102 1.13945,-0.38742 z"
     id="path3913"
     style="stroke-width:2.27889" />
  <line
     class="cls-9"
     x1="145.38914"
     y1="408.47818"
     x2="143.42929"
     y2="408.47818"
     id="line3915" />
  <polygon
     class="cls-22"
     points="148.26,218.5 133.51,218.5 133.51,154.25 148.26,154.25 148.26,198.38 "
     id="polygon3917"
     transform="matrix(2.278903,0,0,2.278903,-67.984533,-23.715745)" />
  <line
     class="cls-22"
     x1="236.84152"
     y1="345.64886"
     x2="269.31589"
     y2="345.64886"
     id="line3919" />
  <line
     class="cls-27"
     x1="237.3201"
     y1="394.85037"
     x2="245.6609"
     y2="394.85037"
     id="line3921" />
  <line
     class="cls-27"
     x1="237.3201"
     y1="426.36761"
     x2="245.6609"
     y2="426.36761"
     id="line3923" />
  <line
     class="cls-27"
     x1="237.3201"
     y1="442.1376"
     x2="245.6609"
     y2="442.1376"
     id="line3925" />
  <line
     class="cls-27"
     x1="237.3201"
     y1="457.88483"
     x2="254.02448"
     y2="457.88483"
     id="line3927" />
  <line
     class="cls-27"
     x1="237.3201"
     y1="410.5976"
     x2="254.41188"
     y2="410.5976"
     id="line3929" />
  <rect
     class="cls-24"
     x="228.797"
     y="317.84625"
     width="48.540634"
     height="15.952321"
     rx="4.2159705"
     ry="4.2159705"
     id="rect3931" />
  <rect
     class="cls-18"
     x="359.26422"
     y="371.69672"
     width="74.451759"
     height="102.48228"
     id="rect3933" />
  <path
     class="cls-31"
     d="m 366.10092,439.79034 h 18.14006 v 9.22956 h -18.14006 l 4.62617,-4.62618 -4.62617,-4.62617 v 0 z m 42.66106,0 h 18.14007 l -4.62617,4.62617 4.62617,4.62617 h -18.14007 v -9.22955 z"
     id="path3935"
     style="stroke-width:2.27889" />
  <polygon
     class="cls-30"
     points="198.44,207.44 198.44,205.87 195.46,205.89 "
     id="polygon3937"
     transform="matrix(2.278903,0,0,2.278903,-67.984533,-23.715745)" />
  <polygon
     class="cls-30"
     points="209.19,207.44 209.19,205.87 212.16,205.89 "
     id="polygon3939"
     transform="matrix(2.278903,0,0,2.278903,-67.984533,-23.715745)" />
  <polyline
     class="cls-31"
     points="212.18 205.89 202.69 205.89 202.69 205.89 195.46 205.89 195.46 201.83 202.69 201.83 205.53 201.83 212.18 201.83"
     id="polyline3941"
     transform="matrix(2.278903,0,0,2.278903,-67.984533,-23.715745)" />
  <rect
     class="cls-20"
     x="359.26422"
     y="402.41635"
     width="74.451759"
     height="26.184595"
     id="rect3943"
     style="stroke-width:2.27889" />
  <path
     class="cls-30"
     d="m 373.23388,385.2334 c 1.80033,0 3.41835,0.72925 4.60338,1.89149 1.18503,1.18503 1.89149,2.80305 1.89149,4.60338 0,1.80034 -0.72924,3.41836 -1.89149,4.5806 v 0 c 0,0 0,0 0,0 v 0 c -1.18503,1.18503 -2.80305,1.89149 -4.58059,1.89149 -1.77755,0 -3.41836,-0.72925 -4.60338,-1.89149 -1.18504,-1.18503 -1.8915,-2.80305 -1.8915,-4.60338 0,-1.80034 0.72926,-3.41836 1.8915,-4.5806 v 0 c 1.18502,-1.18503 2.80305,-1.91427 4.58059,-1.91427 v 0 z"
     id="path3945"
     style="stroke-width:2.27889" />
  <path
     class="cls-23"
     d="m 418.01432,410.89385 h -42.47875 c -0.56972,0 -1.07109,0.22788 -1.43571,0.59251 v 0 c -0.36462,0.36463 -0.59251,0.88877 -0.59251,1.4585 v 3.07652 c 0,0.56973 0.22789,1.07108 0.59251,1.43571 0.36462,0.36462 0.88877,0.59252 1.43571,0.59252 h 42.47875 c 0.56973,0 1.07109,-0.2279 1.43572,-0.59252 0.36462,-0.36463 0.59251,-0.88878 0.59251,-1.43571 v -3.07652 c 0,-0.56973 -0.22789,-1.07108 -0.59251,-1.43571 -0.36463,-0.36462 -0.88878,-0.59251 -1.43572,-0.59251 z"
     id="path3947" />
  <path
     class="cls-30"
     d="m 415.91773,413.01323 1.61803,1.07109 c 0.1823,0.11393 0.22789,0.36462 0.11394,0.56972 -0.0228,0.0456 -0.0684,0.0911 -0.11394,0.11395 l -1.64082,1.09386 c -0.18231,0.11395 -0.43299,0.0684 -0.56972,-0.11393 -0.0456,-0.0684 -0.0684,-0.13674 -0.0684,-0.2279 v 0 -2.18775 c 0,-0.22788 0.1823,-0.4102 0.4102,-0.4102 0.0912,0 0.18231,0.0228 0.25067,0.0911 z"
     id="path3949"
     style="stroke-width:2.27889" />
  <line
     class="cls-8"
     x1="412.15756"
     y1="411.12173"
     x2="412.15756"
     y2="417.82172"
     id="line3951" />
  <line
     class="cls-22"
     x1="360.17575"
     y1="378.78409"
     x2="433.64758"
     y2="378.78409"
     id="line3953" />
  <line
     class="cls-21"
     x1="387.9328"
     y1="387.19324"
     x2="424.69153"
     y2="387.19324"
     id="line3955" />
  <line
     class="cls-21"
     x1="387.9328"
     y1="391.61435"
     x2="424.69153"
     y2="391.61435"
     id="line3957" />
  <line
     class="cls-21"
     x1="387.9328"
     y1="396.0354"
     x2="424.69153"
     y2="396.0354"
     id="line3959" />
  <line
     class="cls-21"
     x1="369.79276"
     y1="458.40897"
     x2="392.58179"
     y2="458.40897"
     id="line3961" />
  <line
     class="cls-21"
     x1="369.79276"
     y1="461.82733"
     x2="392.58179"
     y2="461.82733"
     id="line3963" />
  <line
     class="cls-21"
     x1="369.79276"
     y1="465.38242"
     x2="392.58179"
     y2="465.38242"
     id="line3965" />
  <line
     class="cls-21"
     x1="400.4212"
     y1="458.40897"
     x2="423.21021"
     y2="458.40897"
     id="line3967" />
  <line
     class="cls-21"
     x1="400.4212"
     y1="461.82733"
     x2="423.21021"
     y2="461.82733"
     id="line3969" />
  <line
     class="cls-21"
     x1="400.4212"
     y1="465.38242"
     x2="423.21021"
     y2="465.38242"
     id="line3971" />
  <path
     class="cls-4"
     d="m 16.585557,474.61198 h 54.05558"
     id="path3973" />
  <path
     class="cls-4"
     d="M 91.219631,474.61198 H 515.98437"
     id="path3975" />
  <path
     class="cls-4"
     d="m 90.649905,473.83715 c 0,-5.35542 -4.329915,-9.68534 -9.685337,-9.68534 -5.355423,0 -9.685339,4.32992 -9.685339,9.68534"
     id="path3977" />
</svg>
