<?xml version="1.0" encoding="UTF-8" standalone="no"?>
<!-- Created with Inkscape (http://www.inkscape.org/) -->

<svg
   width="600"
   height="400"
   viewBox="0 0 158.75 105.83333"
   version="1.1"
   id="svg4650"
   xml:space="preserve"
   inkscape:version="1.2.2 (732a01da63, 2022-12-09)"
   sodipodi:docname="komunikacja.svg"
   xmlns:inkscape="http://www.inkscape.org/namespaces/inkscape"
   xmlns:sodipodi="http://sodipodi.sourceforge.net/DTD/sodipodi-0.dtd"
   xmlns="http://www.w3.org/2000/svg"
   xmlns:svg="http://www.w3.org/2000/svg"><sodipodi:namedview
     id="namedview4652"
     pagecolor="#ffffff"
     bordercolor="#000000"
     borderopacity="0.25"
     inkscape:showpageshadow="2"
     inkscape:pageopacity="0.0"
     inkscape:pagecheckerboard="0"
     inkscape:deskcolor="#d1d1d1"
     inkscape:document-units="mm"
     showgrid="false"
     inkscape:zoom="0.59135312"
     inkscape:cx="-51.576628"
     inkscape:cy="44.81248"
     inkscape:window-width="1920"
     inkscape:window-height="991"
     inkscape:window-x="-9"
     inkscape:window-y="-9"
     inkscape:window-maximized="1"
     inkscape:current-layer="layer1" /><defs
     id="defs4647" /><g
     inkscape:label="Warstwa 1"
     inkscape:groupmode="layer"
     id="layer1"><g
       id="g8902"
       transform="translate(108.90474,-22.697348)"><path
         id="path9918"
         style="fill:#d40000;fill-opacity:1;stroke:none;stroke-width:0.404414;stroke-linecap:round;stroke-linejoin:round"
         d="m -66.53659,74.230766 a 26.411995,26.411995 0 0 0 -0.0061,0.157943 26.411995,26.411995 0 0 0 16.182847,24.34143 11.16924,11.16924 0 0 1 2.31947,-3.409934 22.379026,22.379026 0 0 1 -14.469137,-20.931496 22.379026,22.379026 0 0 1 0.0066,-0.157943 z m 48.778364,0 a 22.379026,22.379026 0 0 1 0.0065,0.157943 22.379026,22.379026 0 0 1 -14.46015,20.930556 11.16924,11.16924 0 0 1 2.320416,3.414177 26.411995,26.411995 0 0 0 16.172919,-24.344733 26.411995,26.411995 0 0 0 -0.0065,-0.157943 z m -22.372353,21.013305 a 8.9921836,8.9921836 0 0 0 -8.992258,8.992249 8.9921836,8.9921836 0 0 0 8.992258,8.99179 8.9921836,8.9921836 0 0 0 8.992256,-8.99179 8.9921836,8.9921836 0 0 0 -8.992256,-8.992249 z" /><path
         id="path9982"
         style="fill:#8800aa;fill-opacity:1;stroke:none;stroke-width:0.404414;stroke-linecap:round;stroke-linejoin:round"
         d="m -14.291216,100.07167 a 26.411995,26.411995 0 0 0 0.139844,-0.07363 26.411995,26.411995 0 0 0 12.988852,-26.185472 11.16924,11.16924 0 0 1 -4.1128,-0.303757 22.379026,22.379026 0 0 1 -10.89264,22.996386 22.379026,22.379026 0 0 1 -0.140082,0.07323 z m -24.38919,-42.243307 a 22.379026,22.379026 0 0 1 0.133487,-0.08468 22.379026,22.379026 0 0 1 25.356475,2.057579 11.16924,11.16924 0 0 1 1.796544,-3.71662 26.411995,26.411995 0 0 0 -29.16961,-1.833795 26.411995,26.411995 0 0 0 -0.133583,0.08452 z M -9.29618,66.696739 A 8.9921836,8.9921836 0 0 0 2.98747,69.98813 8.9921836,8.9921836 0 0 0 6.27846,57.70472 8.9921836,8.9921836 0 0 0 -6.00478,54.413083 8.9921836,8.9921836 0 0 0 -9.29618,66.696739 Z" /><path
         id="path9984"
         style="fill:#008000;fill-opacity:1;stroke:none;stroke-width:0.404414;stroke-linecap:round;stroke-linejoin:round"
         d="m -17.788741,41.618322 a 26.411995,26.411995 0 0 0 -0.133576,-0.08452 26.411995,26.411995 0 0 0 -29.171713,1.844046 11.16924,11.16924 0 0 1 1.793345,3.713683 22.379026,22.379026 0 0 1 25.361783,-2.064894 22.379026,22.379026 0 0 1 0.133582,0.08452 z m -24.389175,42.243312 a 22.379026,22.379026 0 0 1 -0.140071,-0.07327 22.379026,22.379026 0 0 1 -10.896325,-22.988143 11.16924,11.16924 0 0 1 -4.116963,0.302451 26.411995,26.411995 0 0 0 12.9967,26.178526 26.411995,26.411995 0 0 0 0.139979,0.07339 z m -7.011875,-29.881682 a 8.9921836,8.9921836 0 0 0 -3.291398,-12.283656 8.9921836,8.9921836 0 0 0 -12.283237,3.291637 8.9921836,8.9921836 0 0 0 3.290977,12.283413 8.9921836,8.9921836 0 0 0 12.283658,-3.291394 z" /></g></g></svg>
