<svg xmlns="http://www.w3.org/2000/svg" xml:space="preserve" width="600" height="400" viewBox="0 0 158.75 105.83"><path d="M-66.54 74.23v.16a26.4 26.4 0 0 0 16.18 24.34 11 11 0 0 1 2.32-3.41 22.4 22.4 0 0 1-14.47-20.93v-.16zm48.78 0v.16A22.4 22.4 0 0 1-32.2 95.32a11 11 0 0 1 2.32 3.41A26.4 26.4 0 0 0-13.72 74.4v-.16zm-22.37 21.01a9 9 0 0 0-9 9 9 9 0 0 0 9 8.99 9 9 0 0 0 9-9 9 9 0 0 0-9-8.99" style="fill:#d40000;fill-opacity:1;stroke:none;stroke-width:.404414;stroke-linecap:round;stroke-linejoin:round" transform="translate(108.9 -22.7)"/><path d="m-14.3 100.07.15-.07A26.4 26.4 0 0 0-1.16 73.8a11 11 0 0 1-4.12-.3 22.4 22.4 0 0 1-10.89 23l-.14.07zm-24.38-42.24.13-.09a22.4 22.4 0 0 1 25.36 2.06 11 11 0 0 1 1.8-3.72 26.4 26.4 0 0 0-29.17-1.83l-.14.09zM-9.3 66.7A9 9 0 0 0 3 69.99 9 9 0 0 0 6.28 57.7 9 9 0 0 0-6 54.41 9 9 0 0 0-9.3 66.7" style="fill:#80a;fill-opacity:1;stroke:none;stroke-width:.404414;stroke-linecap:round;stroke-linejoin:round" transform="translate(108.9 -22.7)"/><path d="m-17.79 41.62-.13-.09a26.4 26.4 0 0 0-29.17 1.85 11 11 0 0 1 1.79 3.71 22.4 22.4 0 0 1 25.36-2.06l.13.08zm-24.39 42.24-.14-.07a22.4 22.4 0 0 1-10.9-22.99 11 11 0 0 1-4.11.3 26.4 26.4 0 0 0 13 26.18l.14.07zm-7.01-29.88a9 9 0 0 0-3.3-12.28 9 9 0 0 0-12.27 3.29 9 9 0 0 0 3.29 12.28 9 9 0 0 0 12.28-3.29" style="fill:green;fill-opacity:1;stroke:none;stroke-width:.404414;stroke-linecap:round;stroke-linejoin:round" transform="translate(108.9 -22.7)"/></svg>