<svg xmlns="http://www.w3.org/2000/svg" xml:space="preserve" width="600" height="400" viewBox="0 0 158.75 105.83"><path d="M-24.02-102.72h13.84v.88h-13.84z" style="fill:#fc0;fill-opacity:1;stroke:none;stroke-width:.218582;stroke-linecap:round;stroke-linejoin:round" transform="rotate(141.99)skewX(-.2)"/><path d="M79.9 20.85a32.3 32.3 0 0 0-32.3 32.3 32.3 32.3 0 0 0 32.3 32.3 32.3 32.3 0 0 0 32.3-32.3 32.3 32.3 0 0 0-32.3-32.3m0 2.8a29.5 29.5 0 0 1 29.5 29.5 29.5 29.5 0 0 1-29.5 29.5 29.5 29.5 0 0 1-29.5-29.5 29.5 29.5 0 0 1 29.5-29.5" style="fill:#fc0;fill-opacity:1;stroke:none;stroke-width:.300453;stroke-linecap:round;stroke-linejoin:round"/><path d="M73.64-8.19h21.94v.88H73.64z" style="fill:#fc0;fill-opacity:1;stroke:none;stroke-width:.275198;stroke-linecap:round;stroke-linejoin:round" transform="rotate(38.08)"/><path d="M32.04-88.17h29.24v.88H32.04z" style="fill:#fc0;fill-opacity:1;stroke:none;stroke-width:.317667;stroke-linecap:round;stroke-linejoin:round" transform="rotate(89.92)skewX(.06)"/><path d="M-79.42-59.71h29.24v.88h-29.24z" style="fill:#fc0;fill-opacity:1;stroke:none;stroke-width:.317667;stroke-linecap:round;stroke-linejoin:round" transform="rotate(180.4)skewY(.06)"/><path d="M-85.66-86.79h13.84v.88h-13.84z" style="fill:#fc0;fill-opacity:1;stroke:none;stroke-width:.218582;stroke-linecap:round;stroke-linejoin:round" transform="rotate(158.83)skewX(-.2)"/><path d="M-126.03 32.65h13.84v.88h-13.84z" style="fill:#fc0;fill-opacity:1;stroke:none;stroke-width:.218582;stroke-linecap:round;stroke-linejoin:round" transform="rotate(232.1)skewY(-.2)"/><circle cx="56.65" cy="33.99" r="8.97" style="fill:#217821;fill-opacity:1;stroke-width:.24733;stroke-linecap:round;stroke-linejoin:round"/><circle cx="87.64" cy="26.33" r="8.97" style="fill:#f60;fill-opacity:1;stroke-width:.24733;stroke-linecap:round;stroke-linejoin:round"/><circle cx="115.24" cy="47.89" r="8.97" style="fill:#0a66c2;fill-opacity:1;stroke-width:.24733;stroke-linecap:round;stroke-linejoin:round"/><circle cx="102.02" cy="75.92" r="8.97" style="fill:#d40000;fill-opacity:1;stroke-width:.24733;stroke-linecap:round;stroke-linejoin:round"/><circle cx="43.51" cy="59.26" r="8.97" style="fill:#772167;fill-opacity:.87058824;stroke-width:.24733;stroke-linecap:round;stroke-linejoin:round"/><circle cx="64.54" cy="79.5" r="8.97" style="fill:#a80;fill-opacity:1;stroke-width:.24733;stroke-linecap:round;stroke-linejoin:round"/><circle cx="87.37" cy="59.03" r="12.16" style="fill:#0cf;fill-opacity:1;stroke-width:.31222;stroke-linecap:round;stroke-linejoin:round"/></svg>