<?xml version="1.0" encoding="UTF-8" standalone="no"?>
<!-- Created with Inkscape (http://www.inkscape.org/) -->

<svg
   width="600"
   height="400"
   viewBox="0 0 158.75 105.83333"
   version="1.1"
   id="svg4650"
   xml:space="preserve"
   inkscape:version="1.2.2 (732a01da63, 2022-12-09)"
   sodipodi:docname="kultura.svg"
   xmlns:inkscape="http://www.inkscape.org/namespaces/inkscape"
   xmlns:sodipodi="http://sodipodi.sourceforge.net/DTD/sodipodi-0.dtd"
   xmlns="http://www.w3.org/2000/svg"
   xmlns:svg="http://www.w3.org/2000/svg"><sodipodi:namedview
     id="namedview4652"
     pagecolor="#ffffff"
     bordercolor="#000000"
     borderopacity="0.25"
     inkscape:showpageshadow="2"
     inkscape:pageopacity="0.0"
     inkscape:pagecheckerboard="0"
     inkscape:deskcolor="#d1d1d1"
     inkscape:document-units="mm"
     showgrid="false"
     inkscape:zoom="1.4550663"
     inkscape:cx="366.64997"
     inkscape:cy="344.65784"
     inkscape:window-width="1920"
     inkscape:window-height="991"
     inkscape:window-x="-9"
     inkscape:window-y="-9"
     inkscape:window-maximized="1"
     inkscape:current-layer="layer1" /><defs
     id="defs4647" /><g
     inkscape:label="Warstwa 1"
     inkscape:groupmode="layer"
     id="layer1"><rect
       style="fill:#ffcc00;fill-opacity:1;stroke:none;stroke-width:0.218582;stroke-linecap:round;stroke-linejoin:round"
       id="rect9403"
       width="13.842712"
       height="0.88423449"
       x="-24.021629"
       y="-102.71642"
       transform="matrix(-0.78787784,0.61583156,-0.61315951,-0.78995913,0,0)" /><path
       id="circle9895"
       style="fill:#ffcc00;fill-opacity:1;stroke:none;stroke-width:0.300453;stroke-linecap:round;stroke-linejoin:round"
       d="m 79.905345,20.850605 a 32.300539,32.300539 0 0 0 -32.300498,32.3005 32.300539,32.300539 0 0 0 32.300498,32.30049 32.300539,32.300539 0 0 0 32.300775,-32.30049 32.300539,32.300539 0 0 0 -32.300775,-32.3005 z m 0,2.797742 A 29.502861,29.502861 0 0 1 109.40838,53.151105 29.502861,29.502861 0 0 1 79.905345,82.653855 29.502861,29.502861 0 0 1 50.40259,53.151105 29.502861,29.502861 0 0 1 79.905345,23.648347 Z" /><rect
       style="fill:#ffcc00;fill-opacity:1;stroke:none;stroke-width:0.275198;stroke-linecap:round;stroke-linejoin:round"
       id="rect9345"
       width="21.942188"
       height="0.88423753"
       x="73.641518"
       y="-8.1932726"
       transform="rotate(38.078446)" /><rect
       style="fill:#ffcc00;fill-opacity:1;stroke:none;stroke-width:0.317667;stroke-linecap:round;stroke-linejoin:round"
       id="rect9399"
       width="29.237001"
       height="0.88423872"
       x="32.036812"
       y="-88.166367"
       transform="matrix(0.00142906,0.99999898,-0.99999678,0.0025372,0,0)" /><rect
       style="fill:#ffcc00;fill-opacity:1;stroke:none;stroke-width:0.317667;stroke-linecap:round;stroke-linejoin:round"
       id="rect9401"
       width="29.237001"
       height="0.88423872"
       x="-79.422005"
       y="-59.70676"
       transform="matrix(-0.99996735,-0.00808041,0.00697229,-0.99997569,0,0)" /><rect
       style="fill:#ffcc00;fill-opacity:1;stroke:none;stroke-width:0.218582;stroke-linecap:round;stroke-linejoin:round"
       id="rect9405"
       width="13.842712"
       height="0.88423449"
       x="-85.661476"
       y="-86.791466"
       transform="matrix(-0.93249642,0.36117923,-0.35801881,-0.93371437,0,0)" /><rect
       style="fill:#ffcc00;fill-opacity:1;stroke:none;stroke-width:0.218582;stroke-linecap:round;stroke-linejoin:round"
       id="rect9407"
       width="13.842712"
       height="0.88423449"
       x="-126.02769"
       y="32.650414"
       transform="matrix(-0.61694252,-0.78700821,0.78909326,-0.61427341,0,0)" /><circle
       style="fill:#217821;fill-opacity:1;stroke-width:0.24733;stroke-linecap:round;stroke-linejoin:round"
       id="path922"
       cx="56.653603"
       cy="33.987873"
       r="8.9730673" /><circle
       style="fill:#ff6600;fill-opacity:1;stroke-width:0.24733;stroke-linecap:round;stroke-linejoin:round"
       id="circle926"
       cx="87.637291"
       cy="26.330301"
       r="8.9730673" /><circle
       style="fill:#0a66c2;fill-opacity:1;stroke-width:0.24733;stroke-linecap:round;stroke-linejoin:round"
       id="circle932"
       cx="115.24004"
       cy="47.88982"
       r="8.9730673" /><circle
       style="fill:#d40000;fill-opacity:1;stroke-width:0.24733;stroke-linecap:round;stroke-linejoin:round"
       id="circle930"
       cx="102.01985"
       cy="75.921539"
       r="8.9730673" /><circle
       style="fill:#772167;fill-opacity:0.87058824;stroke-width:0.24733;stroke-linecap:round;stroke-linejoin:round"
       id="circle924"
       cx="43.509956"
       cy="59.264126"
       r="8.9730673" /><circle
       style="fill:#aa8800;fill-opacity:1;stroke-width:0.24733;stroke-linecap:round;stroke-linejoin:round"
       id="circle928"
       cx="64.539749"
       cy="79.503029"
       r="8.9730673" /><circle
       style="fill:#00ccff;fill-opacity:1;stroke-width:0.31222;stroke-linecap:round;stroke-linejoin:round"
       id="circle10059"
       cx="87.3741"
       cy="59.033199"
       r="12.156283" /></g></svg>
