<?xml version="1.0" encoding="UTF-8" standalone="no"?>
<!-- Created with Inkscape (http://www.inkscape.org/) -->

<svg
   width="600"
   height="400"
   viewBox="0 0 158.75 105.83333"
   version="1.1"
   id="svg4650"
   xml:space="preserve"
   inkscape:version="1.2.2 (732a01da63, 2022-12-09)"
   sodipodi:docname="kultura2.svg"
   xmlns:inkscape="http://www.inkscape.org/namespaces/inkscape"
   xmlns:sodipodi="http://sodipodi.sourceforge.net/DTD/sodipodi-0.dtd"
   xmlns="http://www.w3.org/2000/svg"
   xmlns:svg="http://www.w3.org/2000/svg"><sodipodi:namedview
     id="namedview4652"
     pagecolor="#ffffff"
     bordercolor="#000000"
     borderopacity="0.25"
     inkscape:showpageshadow="2"
     inkscape:pageopacity="0.0"
     inkscape:pagecheckerboard="0"
     inkscape:deskcolor="#d1d1d1"
     inkscape:document-units="mm"
     showgrid="false"
     inkscape:zoom="1.4550663"
     inkscape:cx="366.64997"
     inkscape:cy="454.61847"
     inkscape:window-width="1920"
     inkscape:window-height="991"
     inkscape:window-x="-9"
     inkscape:window-y="-9"
     inkscape:window-maximized="1"
     inkscape:current-layer="layer1" /><defs
     id="defs4647" /><g
     inkscape:label="Warstwa 1"
     inkscape:groupmode="layer"
     id="layer1"><rect
       style="fill:#ffcc00;fill-opacity:1;stroke:none;stroke-width:0.218582;stroke-linecap:round;stroke-linejoin:round"
       id="rect9403"
       width="13.842712"
       height="0.88423449"
       x="-24.021629"
       y="-102.71642"
       transform="matrix(-0.78787784,0.61583156,-0.61315951,-0.78995913,0,0)" /><path
       id="circle9895"
       style="fill:#ffcc00;fill-opacity:1;stroke:none;stroke-width:0.300453;stroke-linecap:round;stroke-linejoin:round"
       d="m 79.905345,20.850605 a 32.300539,32.300539 0 0 0 -32.300498,32.3005 32.300539,32.300539 0 0 0 32.300498,32.30049 32.300539,32.300539 0 0 0 32.300775,-32.30049 32.300539,32.300539 0 0 0 -32.300775,-32.3005 z m 0,2.797742 A 29.502861,29.502861 0 0 1 109.40838,53.151105 29.502861,29.502861 0 0 1 79.905345,82.653855 29.502861,29.502861 0 0 1 50.40259,53.151105 29.502861,29.502861 0 0 1 79.905345,23.648347 Z" /><rect
       style="fill:#ffcc00;fill-opacity:1;stroke:none;stroke-width:0.275198;stroke-linecap:round;stroke-linejoin:round"
       id="rect9345"
       width="21.942188"
       height="0.88423753"
       x="73.641518"
       y="-8.1932726"
       transform="rotate(38.078446)" /><rect
       style="fill:#ffcc00;fill-opacity:1;stroke:none;stroke-width:0.317667;stroke-linecap:round;stroke-linejoin:round"
       id="rect9399"
       width="29.237001"
       height="0.88423872"
       x="32.036812"
       y="-88.166367"
       transform="matrix(0.00142906,0.99999898,-0.99999678,0.0025372,0,0)" /><rect
       style="fill:#ffcc00;fill-opacity:1;stroke:none;stroke-width:0.317667;stroke-linecap:round;stroke-linejoin:round"
       id="rect9401"
       width="29.237001"
       height="0.88423872"
       x="-79.422005"
       y="-59.70676"
       transform="matrix(-0.99996735,-0.00808041,0.00697229,-0.99997569,0,0)" /><rect
       style="fill:#ffcc00;fill-opacity:1;stroke:none;stroke-width:0.218582;stroke-linecap:round;stroke-linejoin:round"
       id="rect9405"
       width="13.842712"
       height="0.88423449"
       x="-85.661476"
       y="-86.791466"
       transform="matrix(-0.93249642,0.36117923,-0.35801881,-0.93371437,0,0)" /><rect
       style="fill:#ffcc00;fill-opacity:1;stroke:none;stroke-width:0.218582;stroke-linecap:round;stroke-linejoin:round"
       id="rect9407"
       width="13.842712"
       height="0.88423449"
       x="-126.02769"
       y="32.650414"
       transform="matrix(-0.61694252,-0.78700821,0.78909326,-0.61427341,0,0)" /><circle
       style="fill:#217821;fill-opacity:1;stroke-width:0.24733;stroke-linecap:round;stroke-linejoin:round"
       id="path922"
       cx="56.653603"
       cy="33.987873"
       r="8.9730673" /><circle
       style="fill:#ff6600;fill-opacity:1;stroke-width:0.24733;stroke-linecap:round;stroke-linejoin:round"
       id="circle926"
       cx="87.637291"
       cy="26.330301"
       r="8.9730673" /><circle
       style="fill:#0a66c2;fill-opacity:1;stroke-width:0.24733;stroke-linecap:round;stroke-linejoin:round"
       id="circle932"
       cx="115.24004"
       cy="47.88982"
       r="8.9730673" /><circle
       style="fill:#d40000;fill-opacity:1;stroke-width:0.24733;stroke-linecap:round;stroke-linejoin:round"
       id="circle930"
       cx="102.01985"
       cy="75.921539"
       r="8.9730673" /><circle
       style="fill:#772167;fill-opacity:0.87058824;stroke-width:0.24733;stroke-linecap:round;stroke-linejoin:round"
       id="circle924"
       cx="43.509956"
       cy="59.264126"
       r="8.9730673" /><circle
       style="fill:#aa8800;fill-opacity:1;stroke-width:0.24733;stroke-linecap:round;stroke-linejoin:round"
       id="circle928"
       cx="64.539749"
       cy="79.503029"
       r="8.9730673" /><circle
       style="fill:#00ccff;fill-opacity:1;stroke-width:0.31222;stroke-linecap:round;stroke-linejoin:round"
       id="circle10059"
       cx="87.3741"
       cy="59.033199"
       r="12.156283" /><path
       id="path4918"
       style="fill:#782167;stroke:none;stroke-width:0.373053;stroke-linecap:round;stroke-linejoin:round"
       d="m 70.585337,99.708241 a 11.925308,11.925308 0 0 0 -11.925371,11.925369 11.925308,11.925308 0 0 0 1.88774,6.4239 l -11.091829,11.19673 a 14.017478,14.017478 0 0 0 -8.579323,-2.93367 14.017478,14.017478 0 0 0 -14.017234,14.01723 14.017478,14.017478 0 0 0 14.017234,14.01775 14.017478,14.017478 0 0 0 1.87689,-0.13281 l 1.72496,15.00477 a 11.925308,11.925308 0 0 0 -8.91574,11.53108 11.925308,11.925308 0 0 0 11.92537,11.92537 11.925308,11.925308 0 0 0 11.924858,-11.92537 11.925308,11.925308 0 0 0 -0.66921,-3.93826 l 9.257833,-4.23747 a 17.113888,17.113888 0 0 0 12.124325,5.03742 17.113888,17.113888 0 0 0 17.113683,-17.11369 17.113888,17.113888 0 0 0 -0.20981,-2.55849 c 0.01227,-0.004 0.02415,-0.009 0.03618,-0.0145 l 9.959067,-4.55786 a 11.925308,11.925308 0 0 0 8.7514,3.82509 11.925308,11.925308 0 0 0 11.92486,-11.92537 11.925308,11.925308 0 0 0 -11.92486,-11.92537 11.925308,11.925308 0 0 0 -2.02881,0.18087 l -2.36782,-5.96759 a 14.017478,14.017478 0 0 0 6.7815,-11.99669 14.017478,14.017478 0 0 0 -14.01775,-14.01723 14.017478,14.017478 0 0 0 -12.542372,7.77162 l -9.364803,-0.22686 A 11.925308,11.925308 0 0 0 70.585337,99.708221 Z m 0,2.303219 a 9.6218862,9.6218862 0 0 1 9.621635,9.62215 9.6218862,9.6218862 0 0 1 -1.819528,5.63015 9.3594717,9.3594717 0 0 0 -4.497916,-3.5879 4.9858865,4.9858865 0 0 0 1.681551,-3.73362 4.9858865,4.9858865 0 0 0 -4.985742,-4.98574 4.9858865,4.9858865 0 0 0 -4.985742,4.98574 4.9858865,4.9858865 0 0 0 1.684134,3.73259 9.3594717,9.3594717 0 0 0 -4.496366,3.58221 9.6218862,9.6218862 0 0 1 -1.823661,-5.62343 9.6218862,9.6218862 0 0 1 9.621635,-9.62215 z m 33.558143,2.24534 a 11.309945,11.309945 0 0 1 11.30991,11.3099 11.309945,11.309945 0 0 1 -2.13889,6.61769 11.001492,11.001492 0 0 0 -5.28702,-4.2168 5.8606076,5.8606076 0 0 0 1.97663,-4.38888 5.8606076,5.8606076 0 0 0 -5.86063,-5.86011 5.8606076,5.8606076 0 0 0 -5.860612,5.86011 5.8606076,5.8606076 0 0 0 1.980232,4.38733 11.001492,11.001492 0 0 0 -5.285454,4.21059 11.309945,11.309945 0 0 1 -2.144055,-6.60993 11.309945,11.309945 0 0 1 11.309889,-11.3099 z m -33.558143,2.5368 a 3.1489809,3.1489809 0 0 1 3.149161,3.14864 3.1489809,3.1489809 0 0 1 -2.840136,3.13314 9.3594717,9.3594717 0 0 0 -0.309025,-0.0129 9.3594717,9.3594717 0 0 0 -0.308509,0.0129 3.1489809,3.1489809 0 0 1 -2.840653,-3.13314 3.1489809,3.1489809 0 0 1 3.149162,-3.14864 z m 33.558143,3.08404 a 3.7014363,3.7014363 0 0 1 3.70158,3.70107 3.7014363,3.7014363 0 0 1 -3.33829,3.68298 11.001492,11.001492 0 0 0 -0.36329,-0.0155 11.001492,11.001492 0 0 0 -0.36277,0.0155 3.7014363,3.7014363 0 0 1 -3.33881,-3.68298 3.7014363,3.7014363 0 0 1 3.70158,-3.70107 z m -21.657578,2.41123 7.985043,0.19327 a 14.017478,14.017478 0 0 0 -0.344682,3.08456 14.017478,14.017478 0 0 0 5.983097,11.47992 l -8.416024,18.11156 a 17.113888,17.113888 0 0 0 -7.567496,-1.76579 17.113888,17.113888 0 0 0 -12.553756,5.50613 l -12.82144,-6.5903 a 14.017478,14.017478 0 0 0 0.143144,-1.97042 14.017478,14.017478 0 0 0 -3.154846,-8.85786 l 10.877889,-10.98227 a 11.925308,11.925308 0 0 0 7.968506,3.06079 11.925308,11.925308 0 0 0 11.900565,-11.26959 z m -11.900565,2.81429 a 7.3184655,7.3184655 0 0 1 6.375838,3.73569 9.6218862,9.6218862 0 0 1 -6.375838,2.41639 9.6218862,9.6218862 0 0 1 -6.36757,-2.41639 7.3184655,7.3184655 0 0 1 6.36757,-3.73569 z m 33.558143,4.54185 a 8.6024133,8.6024133 0 0 1 7.49464,4.39094 11.309945,11.309945 0 0 1 -7.49464,2.84066 11.309945,11.309945 0 0 1 -7.484797,-2.84066 8.6024133,8.6024133 0 0 1 7.484797,-4.39094 z m -5.226032,8.924 a 14.017478,14.017478 0 0 0 5.226032,1.01492 14.017478,14.017478 0 0 0 4.33462,-0.69349 l 2.22054,5.5981 a 11.925308,11.925308 0 0 0 -6.84816,10.78694 11.925308,11.925308 0 0 0 1.32291,5.44205 l -8.929154,4.08709 a 17.113888,17.113888 0 0 0 -5.817733,-7.96437 z m -58.040894,0.45889 a 11.309945,11.309945 0 0 1 11.309906,11.3099 11.309945,11.309945 0 0 1 -2.138888,6.6182 11.001492,11.001492 0 0 0 -5.287018,-4.21731 5.8606076,5.8606076 0 0 0 1.97663,-4.38837 5.8606076,5.8606076 0 0 0 -5.86063,-5.86062 5.8606076,5.8606076 0 0 0 -5.86062,5.86062 5.8606076,5.8606076 0 0 0 1.98024,4.38682 11.001492,11.001492 0 0 0 -5.28547,4.21059 11.309945,11.309945 0 0 1 -2.144054,-6.60993 11.309945,11.309945 0 0 1 11.309904,-11.3099 z m 0,5.62084 a 3.7014363,3.7014363 0 0 1 3.70158,3.70158 3.7014363,3.7014363 0 0 1 -3.33829,3.68247 11.001492,11.001492 0 0 0 -0.36329,-0.0155 11.001492,11.001492 0 0 0 -0.36277,0.0155 3.7014363,3.7014363 0 0 1 -3.33881,-3.68247 3.7014363,3.7014363 0 0 1 3.70158,-3.70158 z m 74.899806,1.00459 a 9.6218862,9.6218862 0 0 1 9.62164,9.62215 9.6218862,9.6218862 0 0 1 -1.81953,5.63015 9.3594717,9.3594717 0 0 0 -4.49792,-3.58789 4.9858865,4.9858865 0 0 0 1.68156,-3.73363 4.9858865,4.9858865 0 0 0 -4.98575,-4.98574 4.9858865,4.9858865 0 0 0 -4.98626,4.98574 4.9858865,4.9858865 0 0 0 1.68466,3.73259 9.3594717,9.3594717 0 0 0 -4.49637,3.58221 9.6218862,9.6218862 0 0 1 -1.82418,-5.62343 9.6218862,9.6218862 0 0 1 9.62215,-9.62215 z m 0,4.78214 a 3.1489809,3.1489809 0 0 1 3.14865,3.14864 3.1489809,3.1489809 0 0 1 -2.84014,3.13315 9.3594717,9.3594717 0 0 0 -0.30902,-0.0129 9.3594717,9.3594717 0 0 0 -0.30851,0.0129 3.1489809,3.1489809 0 0 1 -2.84065,-3.13315 3.1489809,3.1489809 0 0 1 3.14967,-3.14864 z m -74.899806,3.98115 a 8.6024133,8.6024133 0 0 1 7.49463,4.39043 11.309945,11.309945 0 0 1 -7.49463,2.84117 11.309945,11.309945 0 0 1 -7.48481,-2.84117 8.6024133,8.6024133 0 0 1 7.48481,-4.39043 z m 13.044684,1.05007 11.686625,6.00686 a 17.113888,17.113888 0 0 0 -2.596224,9.03304 17.113888,17.113888 0 0 0 2.899564,9.52811 l -8.614461,3.94291 a 11.925308,11.925308 0 0 0 -9.654708,-5.14232 l -1.77095,-15.40475 a 14.017478,14.017478 0 0 0 8.050154,-7.96385 z m 26.204602,1.23145 a 13.808271,13.808271 0 0 1 13.807942,13.80845 13.808271,13.808271 0 0 1 -2.61121,8.07962 13.431682,13.431682 0 0 0 -6.454903,-5.14904 7.1551947,7.1551947 0 0 0 2.413289,-5.35782 7.1551947,7.1551947 0 0 0 -7.155118,-7.1546 7.1551947,7.1551947 0 0 0 -7.155636,7.1546 7.1551947,7.1551947 0 0 0 2.417424,5.35627 13.431682,13.431682 0 0 0 -6.45232,5.14077 13.808271,13.808271 0 0 1 -2.617928,-8.0698 13.808271,13.808271 0 0 1 13.80846,-13.80845 z m 35.65001,2.0469 a 7.3184655,7.3184655 0 0 1 6.37584,3.73569 9.6218862,9.6218862 0 0 1 -6.37533,2.4169 9.6218862,9.6218862 0 0 1 -6.36808,-2.4169 7.3184655,7.3184655 0 0 1 6.36757,-3.73569 z m -35.65001,4.81521 a 4.5190702,4.5190702 0 0 1 4.519104,4.5191 4.5190702,4.5190702 0 0 1 -4.076237,4.49637 13.431682,13.431682 0 0 0 -0.443384,-0.0191 13.431682,13.431682 0 0 0 -0.442867,0.0191 4.5190702,4.5190702 0 0 1 -4.076237,-4.49637 4.5190702,4.5190702 0 0 1 4.519621,-4.5191 z m -5.17e-4,11.92537 a 10.502656,10.502656 0 0 1 9.149829,5.36091 13.808271,13.808271 0 0 1 -9.149312,3.46853 13.808271,13.808271 0 0 1 -9.138461,-3.46853 10.502656,10.502656 0 0 1 9.137944,-5.36091 z m -32.637289,5.65082 a 9.6218862,9.6218862 0 0 1 9.621639,9.62215 9.6218862,9.6218862 0 0 1 -1.819527,5.63015 9.3594717,9.3594717 0 0 0 -4.497916,-3.5879 4.9858865,4.9858865 0 0 0 1.681551,-3.73362 4.9858865,4.9858865 0 0 0 -4.985747,-4.98574 4.9858865,4.9858865 0 0 0 -4.98625,4.98574 4.9858865,4.9858865 0 0 0 1.68465,3.73259 9.3594717,9.3594717 0 0 0 -4.49637,3.58221 9.6218862,9.6218862 0 0 1 -1.82418,-5.62343 9.6218862,9.6218862 0 0 1 9.62215,-9.62215 z m 0,4.78214 a 3.1489809,3.1489809 0 0 1 3.14865,3.14864 3.1489809,3.1489809 0 0 1 -2.84014,3.13314 9.3594717,9.3594717 0 0 0 -0.30902,-0.0129 9.3594717,9.3594717 0 0 0 -0.30851,0.0129 3.1489809,3.1489809 0 0 1 -2.84014,-3.13314 3.1489809,3.1489809 0 0 1 3.14916,-3.14864 z m -5.1e-4,8.30957 a 7.3184655,7.3184655 0 0 1 6.376353,3.73568 9.6218862,9.6218862 0 0 1 -6.375843,2.41691 9.6218862,9.6218862 0 0 1 -6.36808,-2.41691 7.3184655,7.3184655 0 0 1 6.36757,-3.73568 z" /></g></svg>
