<svg xmlns="http://www.w3.org/2000/svg" xml:space="preserve" width="600" height="400" viewBox="0 0 158.75 105.83"><path d="M-24.02-102.72h13.84v.88h-13.84z" style="fill:#fc0;fill-opacity:1;stroke:none;stroke-width:.218582;stroke-linecap:round;stroke-linejoin:round" transform="rotate(141.99)skewX(-.2)"/><path d="M79.9 20.85a32.3 32.3 0 0 0-32.3 32.3 32.3 32.3 0 0 0 32.3 32.3 32.3 32.3 0 0 0 32.3-32.3 32.3 32.3 0 0 0-32.3-32.3m0 2.8a29.5 29.5 0 0 1 29.5 29.5 29.5 29.5 0 0 1-29.5 29.5 29.5 29.5 0 0 1-29.5-29.5 29.5 29.5 0 0 1 29.5-29.5" style="fill:#fc0;fill-opacity:1;stroke:none;stroke-width:.300453;stroke-linecap:round;stroke-linejoin:round"/><path d="M73.64-8.19h21.94v.88H73.64z" style="fill:#fc0;fill-opacity:1;stroke:none;stroke-width:.275198;stroke-linecap:round;stroke-linejoin:round" transform="rotate(38.08)"/><path d="M32.04-88.17h29.24v.88H32.04z" style="fill:#fc0;fill-opacity:1;stroke:none;stroke-width:.317667;stroke-linecap:round;stroke-linejoin:round" transform="rotate(89.92)skewX(.06)"/><path d="M-79.42-59.71h29.24v.88h-29.24z" style="fill:#fc0;fill-opacity:1;stroke:none;stroke-width:.317667;stroke-linecap:round;stroke-linejoin:round" transform="rotate(180.4)skewY(.06)"/><path d="M-85.66-86.79h13.84v.88h-13.84z" style="fill:#fc0;fill-opacity:1;stroke:none;stroke-width:.218582;stroke-linecap:round;stroke-linejoin:round" transform="rotate(158.83)skewX(-.2)"/><path d="M-126.03 32.65h13.84v.88h-13.84z" style="fill:#fc0;fill-opacity:1;stroke:none;stroke-width:.218582;stroke-linecap:round;stroke-linejoin:round" transform="rotate(232.1)skewY(-.2)"/><circle cx="56.65" cy="33.99" r="8.97" style="fill:#217821;fill-opacity:1;stroke-width:.24733;stroke-linecap:round;stroke-linejoin:round"/><circle cx="87.64" cy="26.33" r="8.97" style="fill:#f60;fill-opacity:1;stroke-width:.24733;stroke-linecap:round;stroke-linejoin:round"/><circle cx="115.24" cy="47.89" r="8.97" style="fill:#0a66c2;fill-opacity:1;stroke-width:.24733;stroke-linecap:round;stroke-linejoin:round"/><circle cx="102.02" cy="75.92" r="8.97" style="fill:#d40000;fill-opacity:1;stroke-width:.24733;stroke-linecap:round;stroke-linejoin:round"/><circle cx="43.51" cy="59.26" r="8.97" style="fill:#772167;fill-opacity:.87058824;stroke-width:.24733;stroke-linecap:round;stroke-linejoin:round"/><circle cx="64.54" cy="79.5" r="8.97" style="fill:#a80;fill-opacity:1;stroke-width:.24733;stroke-linecap:round;stroke-linejoin:round"/><circle cx="87.37" cy="59.03" r="12.16" style="fill:#0cf;fill-opacity:1;stroke-width:.31222;stroke-linecap:round;stroke-linejoin:round"/><path d="M70.59 99.7a11.93 11.93 0 0 0-11.93 11.93 12 12 0 0 0 1.89 6.43l-11.1 11.2a14 14 0 0 0-8.57-2.94 14 14 0 0 0-14.02 14.02 14 14 0 0 0 14.02 14.02 14 14 0 0 0 1.87-.14l1.73 15a11.9 11.9 0 0 0-8.92 11.54 11.93 11.93 0 0 0 11.93 11.92 11.93 11.93 0 0 0 11.92-11.92 12 12 0 0 0-.67-3.94l9.26-4.24a17 17 0 0 0 12.13 5.04 17.1 17.1 0 0 0 17.11-17.11 17 17 0 0 0-.21-2.56l.04-.02 9.95-4.55a12 12 0 0 0 8.76 3.82 11.93 11.93 0 0 0 11.92-11.92 11.93 11.93 0 0 0-11.92-11.93 12 12 0 0 0-2.03.18l-2.37-5.97a14 14 0 0 0 6.78-12 14 14 0 0 0-14.02-14.01 14 14 0 0 0-12.54 7.77l-9.36-.23a11.9 11.9 0 0 0-11.65-9.38m0 2.31a9.6 9.6 0 0 1 9.62 9.62 9.6 9.6 0 0 1-1.82 5.63 9.4 9.4 0 0 0-4.5-3.58 5 5 0 0 0 1.68-3.74 5 5 0 0 0-4.98-4.98 5 5 0 0 0-4.99 4.98 5 5 0 0 0 1.68 3.73 9.4 9.4 0 0 0-4.5 3.59 9.6 9.6 0 0 1-1.82-5.63 9.6 9.6 0 0 1 9.63-9.62m33.55 2.25a11.3 11.3 0 0 1 11.31 11.3 11.3 11.3 0 0 1-2.14 6.62 11 11 0 0 0-5.28-4.21 6 6 0 0 0 1.97-4.4 5.86 5.86 0 0 0-5.86-5.85 5.86 5.86 0 0 0-5.86 5.86 6 6 0 0 0 1.98 4.39 11 11 0 0 0-5.28 4.2 11.3 11.3 0 0 1-2.15-6.6 11.3 11.3 0 0 1 11.31-11.31m-33.55 2.53a3.15 3.15 0 0 1 3.14 3.15 3.15 3.15 0 0 1-2.84 3.14l-.3-.02-.31.02a3.15 3.15 0 0 1-2.84-3.14 3.15 3.15 0 0 1 3.15-3.15m33.55 3.09a3.7 3.7 0 0 1 3.7 3.7 3.7 3.7 0 0 1-3.33 3.68l-.37-.01-.36.01a3.7 3.7 0 0 1-3.34-3.68 3.7 3.7 0 0 1 3.7-3.7m-21.65 2.4 7.98.2a14 14 0 0 0-.34 3.09 14 14 0 0 0 5.98 11.48l-8.42 18.1a17 17 0 0 0-7.56-1.76 17 17 0 0 0-12.56 5.5l-12.82-6.58a14 14 0 0 0 .14-1.97 14 14 0 0 0-3.15-8.86l10.88-10.98a12 12 0 0 0 7.97 3.06 11.93 11.93 0 0 0 11.9-11.27m-11.9 2.82a7.3 7.3 0 0 1 6.37 3.74 9.6 9.6 0 0 1-6.37 2.42 9.6 9.6 0 0 1-6.37-2.42 7.3 7.3 0 0 1 6.37-3.74m33.55 4.55a8.6 8.6 0 0 1 7.5 4.39 11.3 11.3 0 0 1-7.5 2.84 11.3 11.3 0 0 1-7.48-2.84 8.6 8.6 0 0 1 7.48-4.4m-5.22 8.92a14 14 0 0 0 5.22 1.01 14 14 0 0 0 4.34-.69l2.22 5.6a11.9 11.9 0 0 0-6.85 10.79 12 12 0 0 0 1.32 5.44l-8.93 4.08a17 17 0 0 0-5.81-7.96zm-58.04.46a11.3 11.3 0 0 1 11.3 11.3 11.3 11.3 0 0 1-2.13 6.63 11 11 0 0 0-5.29-4.22 6 6 0 0 0 1.98-4.39 5.86 5.86 0 0 0-5.86-5.86 5.86 5.86 0 0 0-5.86 5.86 6 6 0 0 0 1.98 4.39 11 11 0 0 0-5.29 4.2 11.3 11.3 0 0 1-2.14-6.6 11.3 11.3 0 0 1 11.3-11.31m0 5.62a3.7 3.7 0 0 1 3.7 3.7 3.7 3.7 0 0 1-3.34 3.68l-.36-.01-.37.01a3.7 3.7 0 0 1-3.34-3.68 3.7 3.7 0 0 1 3.7-3.7m74.9 1a9.6 9.6 0 0 1 9.62 9.63 9.6 9.6 0 0 1-1.82 5.63 9.4 9.4 0 0 0-4.5-3.6 5 5 0 0 0 1.68-3.73 5 5 0 0 0-4.98-4.98 5 5 0 0 0-4.99 4.98 5 5 0 0 0 1.68 3.74 9.4 9.4 0 0 0-4.5 3.58 9.6 9.6 0 0 1-1.82-5.62 9.6 9.6 0 0 1 9.63-9.63m0 4.79a3.15 3.15 0 0 1 3.15 3.14 3.15 3.15 0 0 1-2.85 3.14l-.3-.02-.31.02a3.15 3.15 0 0 1-2.84-3.14 3.15 3.15 0 0 1 3.15-3.14m-74.9 3.98a8.6 8.6 0 0 1 7.5 4.39 11.3 11.3 0 0 1-7.5 2.84 11.3 11.3 0 0 1-7.49-2.84 8.6 8.6 0 0 1 7.49-4.4m13.04 1.05 11.69 6a17 17 0 0 0-2.6 9.04 17 17 0 0 0 2.9 9.52l-8.61 3.95a12 12 0 0 0-9.66-5.14l-1.77-15.4a14 14 0 0 0 8.05-7.97m26.2 1.23a13.8 13.8 0 0 1 13.81 13.8 13.8 13.8 0 0 1-2.6 8.09 13.4 13.4 0 0 0-6.46-5.15 7.2 7.2 0 0 0 2.41-5.36 7.16 7.16 0 0 0-7.15-7.16 7.16 7.16 0 0 0-7.16 7.16 7.2 7.2 0 0 0 2.42 5.36 13.4 13.4 0 0 0-6.45 5.14 13.8 13.8 0 0 1-2.62-8.07 13.8 13.8 0 0 1 13.8-13.81m35.66 2.05a7.3 7.3 0 0 1 6.37 3.73 9.6 9.6 0 0 1-6.37 2.42 9.6 9.6 0 0 1-6.37-2.42 7.3 7.3 0 0 1 6.37-3.73m-35.65 4.81a4.5 4.5 0 0 1 4.51 4.52 4.5 4.5 0 0 1-4.07 4.5l-.44-.02-.45.02a4.5 4.5 0 0 1-4.07-4.5 4.5 4.5 0 0 1 4.52-4.52m0 11.93a10.5 10.5 0 0 1 9.15 5.36 13.8 13.8 0 0 1-9.15 3.47 13.8 13.8 0 0 1-9.14-3.47 10.5 10.5 0 0 1 9.14-5.36m-32.64 5.65a9.6 9.6 0 0 1 9.62 9.62 9.6 9.6 0 0 1-1.82 5.63 9.4 9.4 0 0 0-4.5-3.59 5 5 0 0 0 1.68-3.73 5 5 0 0 0-4.98-4.99 5 5 0 0 0-4.99 4.99 5 5 0 0 0 1.69 3.73 9.4 9.4 0 0 0-4.5 3.58 9.6 9.6 0 0 1-1.82-5.62 9.6 9.6 0 0 1 9.62-9.62m0 4.78a3.15 3.15 0 0 1 3.15 3.15 3.15 3.15 0 0 1-2.84 3.13l-.31-.01-.31.01a3.15 3.15 0 0 1-2.84-3.13 3.15 3.15 0 0 1 3.15-3.15m0 8.3a7.3 7.3 0 0 1 6.37 3.74 9.6 9.6 0 0 1-6.37 2.42 9.6 9.6 0 0 1-6.37-2.42 7.3 7.3 0 0 1 6.37-3.73" style="fill:#782167;stroke:none;stroke-width:.373053;stroke-linecap:round;stroke-linejoin:round"/></svg>