<?xml version="1.0" encoding="UTF-8" standalone="no"?>
<!-- Created with Inkscape (http://www.inkscape.org/) -->

<svg
   width="192"
   height="192"
   viewBox="0 0 50.8 50.8"
   version="1.1"
   id="svg5"
   xml:space="preserve"
   inkscape:version="1.2.2 (732a01da63, 2022-12-09)"
   sodipodi:docname="logo.svg"
   xmlns:inkscape="http://www.inkscape.org/namespaces/inkscape"
   xmlns:sodipodi="http://sodipodi.sourceforge.net/DTD/sodipodi-0.dtd"
   xmlns="http://www.w3.org/2000/svg"
   xmlns:svg="http://www.w3.org/2000/svg"><sodipodi:namedview
     id="namedview7"
     pagecolor="#ffffff"
     bordercolor="#000000"
     borderopacity="0.25"
     inkscape:showpageshadow="2"
     inkscape:pageopacity="0.0"
     inkscape:pagecheckerboard="0"
     inkscape:deskcolor="#d1d1d1"
     inkscape:document-units="mm"
     showgrid="false"
     showguides="true"
     inkscape:zoom="1.2651855"
     inkscape:cx="240.67616"
     inkscape:cy="54.142257"
     inkscape:window-width="1920"
     inkscape:window-height="991"
     inkscape:window-x="-9"
     inkscape:window-y="-9"
     inkscape:window-maximized="1"
     inkscape:current-layer="layer1"><inkscape:grid
       type="xygrid"
       id="grid22532"
       originx="0"
       originy="0" /><sodipodi:guide
       position="-6.3886374,-245.47307"
       orientation="1,0"
       id="guide22537"
       inkscape:locked="false" /><sodipodi:guide
       position="-0.39928984,-268.03294"
       orientation="0,-1"
       id="guide22539"
       inkscape:locked="false" /><sodipodi:guide
       position="25.431176,53.398806"
       orientation="1,0"
       id="guide351"
       inkscape:locked="false" /><sodipodi:guide
       position="136.76848,69.830476"
       orientation="0,-1"
       id="guide15906"
       inkscape:locked="false" /></sodipodi:namedview><defs
     id="defs2" /><g
     inkscape:label="Warstwa 1"
     inkscape:groupmode="layer"
     id="layer1"><g
       id="g15918"
       transform="matrix(0.53273421,0,0,0.53273421,6.6817986,53.250388)"><path
         id="circle442-7"
         style="fill:#d40000;fill-opacity:1;stroke:none;stroke-width:0.8385;stroke-linecap:round;stroke-linejoin:round"
         d="m 35.136357,-89.021956 a 35.941917,35.941917 0 0 0 -32.6331506,20.92172 6.3260163,6.3260163 0 0 0 -1.51618654,-0.207739 6.3260163,6.3260163 0 0 0 -6.32622886,6.325712 6.3260163,6.3260163 0 0 0 4.64984539,6.075081 35.941917,35.941917 0 0 0 -0.11627197,2.827218 35.941917,35.941917 0 0 0 11.95585958,26.74307 6.3260163,6.3260163 0 0 0 -1.8903241,4.476213 6.3260163,6.3260163 0 0 0 6.3262291,6.326229 6.3260163,6.3260163 0 0 0 5.98258,-4.278292 35.941917,35.941917 0 0 0 13.567648,2.674772 35.941917,35.941917 0 0 0 12.783715,-2.351794 6.3260163,6.3260163 0 0 0 5.847706,3.955314 6.3260163,6.3260163 0 0 0 6.326228,-6.326229 6.3260163,6.3260163 0 0 0 -1.454691,-4.029728 35.941917,35.941917 0 0 0 12.439034,-27.189555 35.941917,35.941917 0 0 0 -0.110071,-2.806547 6.3260163,6.3260163 0 0 0 4.643127,-6.095752 6.3260163,6.3260163 0 0 0 -6.325712,-6.325712 6.3260163,6.3260163 0 0 0 -1.500683,0.203605 35.941917,35.941917 0 0 0 -32.648653,-20.917586 z m 0,2.676839 a 33.264874,33.264874 0 0 1 30.239497,19.407601 6.3260163,6.3260163 0 0 0 -2.416389,4.955253 6.3260163,6.3260163 0 0 0 0.577742,2.511991 l -28.640112,8.933305 -28.1708906,-8.787061 a 6.3260163,6.3260163 0 0 0 0.5865275,-2.658235 6.3260163,6.3260163 0 0 0 -2.3957194,-4.941301 33.264874,33.264874 0 0 1 30.2193445,-19.421553 z m 30.074133,29.14189 a 6.3260163,6.3260163 0 0 0 3.082499,1.448491 33.264874,33.264874 0 0 1 0.108004,2.674772 33.264874,33.264874 0 0 1 -11.946041,25.518856 6.3260163,6.3260163 0 0 0 -2.687174,-0.625285 6.3260163,6.3260163 0 0 0 -1.648995,0.220141 l -14.098365,-20.336743 27.309444,-8.518343 z m -60.6226563,0.420646 27.1022213,8.453748 -14.173812,20.44578 a 6.3260163,6.3260163 0 0 0 -1.930114,-0.30334 6.3260163,6.3260163 0 0 0 -2.094963,0.362768 33.264874,33.264874 0 0 1 -11.6199624,-25.256339 33.264874,33.264874 0 0 1 0.1080038,-2.657719 6.3260163,6.3260163 0 0 0 2.6086263,-1.044898 z m 30.3092613,6.279204 0.06356,0.204638 a 1.6334498,1.2761326 0 0 0 -0.132809,0.0186 z m -0.05116,2.99775 14.598075,21.057112 a 6.3260163,6.3260163 0 0 0 -1.973006,4.246769 33.264874,33.264874 0 0 1 -12.334647,2.386418 33.264874,33.264874 0 0 1 -13.281877,-2.78691 6.3260163,6.3260163 0 0 0 -1.732194,-3.664893 z" /><g
         id="g15774"
         transform="translate(-0.239665)"><circle
           style="fill:none;stroke:#d40000;stroke-width:1.38654;stroke-linecap:round;stroke-linejoin:round;stroke-opacity:1"
           id="circle14183"
           cx="35.375999"
           cy="-69.065308"
           r="10.460687" /><path
           id="circle14100"
           style="fill:#d40000;fill-opacity:1;stroke:none;stroke-width:1.38654;stroke-linecap:round;stroke-linejoin:round"
           d="m 34.817855,-79.436064 a 10.460686,10.460686 0 0 0 -0.05429,0.0038 v 20.913675 a 10.460686,10.460686 0 0 0 0.05429,0.0038 10.460686,10.460686 0 0 0 10.460682,-10.460677 10.460686,10.460686 0 0 0 -10.460682,-10.460682 z" /></g></g></g></svg>
