<svg xmlns="http://www.w3.org/2000/svg" xml:space="preserve" width="192" height="192" viewBox="0 0 50.8 50.8"><path d="M35.14-89.02A35.9 35.9 0 0 0 2.5-68.1a6 6 0 0 0-1.5-.2 6.33 6.33 0 0 0-6.33 6.32 6.3 6.3 0 0 0 4.65 6.07 36 36 0 0 0-.12 2.83 36 36 0 0 0 11.96 26.74 6.3 6.3 0 0 0-1.89 4.48 6.33 6.33 0 0 0 6.33 6.33 6.3 6.3 0 0 0 5.98-4.28 36 36 0 0 0 13.57 2.67 36 36 0 0 0 12.78-2.35 6.3 6.3 0 0 0 5.85 3.96 6.33 6.33 0 0 0 6.32-6.33 6.3 6.3 0 0 0-1.45-4.03 36 36 0 0 0 12.44-27.19 36 36 0 0 0-.11-2.8 6.3 6.3 0 0 0 4.64-6.1 6.33 6.33 0 0 0-6.32-6.33 6 6 0 0 0-1.5.2 35.9 35.9 0 0 0-32.65-20.91m0 2.67a33.3 33.3 0 0 1 30.24 19.41 6.3 6.3 0 0 0-2.42 4.96 6 6 0 0 0 .58 2.51L34.9-50.54 6.73-59.32a6 6 0 0 0 .58-2.66 6.3 6.3 0 0 0-2.4-4.94 33.3 33.3 0 0 1 30.23-19.43M65.2-57.2a6.3 6.3 0 0 0 3.08 1.45 33 33 0 0 1 .11 2.67 33.3 33.3 0 0 1-11.95 25.52 6 6 0 0 0-2.68-.63 6 6 0 0 0-1.65.22L38.02-48.3l27.31-8.52zm-60.62.42 27.1 8.45-14.17 20.45a6 6 0 0 0-1.93-.3 6 6 0 0 0-2.1.36A33.3 33.3 0 0 1 1.87-53.08a33 33 0 0 1 .1-2.66 6 6 0 0 0 2.62-1.04m30.3 6.28.07.2a1.63 1.28 0 0 0-.13.02zm-.04 3 14.6 21.05a6.3 6.3 0 0 0-1.98 4.25 33 33 0 0 1-12.33 2.38 33 33 0 0 1-13.29-2.78 6.3 6.3 0 0 0-1.73-3.67z" style="fill:#d40000;fill-opacity:1;stroke:none;stroke-width:.8385;stroke-linecap:round;stroke-linejoin:round" transform="translate(6.68 53.25)scale(.53273)"/><g transform="translate(6.55 53.25)scale(.53273)"><circle cx="35.38" cy="-69.07" r="10.46" style="fill:none;stroke:#d40000;stroke-width:1.38654;stroke-linecap:round;stroke-linejoin:round;stroke-opacity:1"/><path d="M34.82-79.44h-.06v20.92h.06a10.46 10.46 0 0 0 10.46-10.46 10.46 10.46 0 0 0-10.46-10.46" style="fill:#d40000;fill-opacity:1;stroke:none;stroke-width:1.38654;stroke-linecap:round;stroke-linejoin:round"/></g></svg>