<svg xmlns="http://www.w3.org/2000/svg" xml:space="preserve" width="600" height="400" viewBox="0 0 158.75 105.83"><path d="M79.37 10.64A42.3 42.3 0 0 0 37.1 52.92 42.3 42.3 0 0 0 79.37 95.2a42.3 42.3 0 0 0 42.28-42.28 42.3 42.3 0 0 0-42.28-42.28m0 5.97a36.3 36.3 0 0 1 36.3 36.3 36.3 36.3 0 0 1-36.3 36.3 36.3 36.3 0 0 1-36.3-36.3 36.3 36.3 0 0 1 36.3-36.3" style="fill:#d45500;fill-opacity:1;stroke:none;stroke-width:.480959;stroke-linecap:round;stroke-linejoin:round"/><path d="M60.66 30.01a3.8 3.8 0 0 0-3.78 3.79 3.8 3.8 0 0 0 3.78 3.78 4 4 0 0 0 .63-.1c-.26.42-.62.99-.98 1.98-1.62 4.42-.14 10.02 2.8 12.77.23.2.65.51 1.1.79-.47.28-.92.6-1.16.8-2.94 2.76-4.42 8.35-2.8 12.78.28.76.55 1.27.8 1.67l-.39-.02a3.8 3.8 0 0 0-3.78 3.79 3.8 3.8 0 0 0 3.78 3.78 3.8 3.8 0 0 0 3.79-3.78 4 4 0 0 0-.1-.82q.39.18.9.37c4.42 1.62 10.02.14 12.77-2.8.19-.22.48-.61.74-1.05.3.47.63.9.85 1.12 2.75 2.93 8.35 4.42 12.77 2.8 1.2-.45 1.86-.92 2.25-1.15a4 4 0 0 0-.33 1.53 3.8 3.8 0 0 0 3.79 3.78 3.8 3.8 0 0 0 3.78-3.78 3.8 3.8 0 0 0-3.78-3.79 4 4 0 0 0-1.71.42c.26-.41.62-1 1-2.01 1.62-4.42.13-10.02-2.8-12.77a8 8 0 0 0-1.1-.76c.48-.3.92-.63 1.16-.84 2.93-2.75 4.42-8.34 2.8-12.77-.55-1.5-1.17-2.19-1.26-2.5a4 4 0 0 0 1.9.56 3.8 3.8 0 0 0 3.8-3.78 3.8 3.8 0 0 0-3.8-3.78 3.8 3.8 0 0 0-3.78 3.78 4 4 0 0 0 .6 1.98c-.33-.14-1.03-.73-2.46-1.25-4.42-1.62-10.02-.14-12.77 2.8-.2.22-.5.63-.78 1.07-.29-.47-.61-.9-.81-1.14-2.75-2.93-8.35-4.41-12.78-2.8q-.59.22-1.03.46a4 4 0 0 0 .18-1.12 3.8 3.8 0 0 0-3.79-3.78zm10.02 6.71c1.56.01 5.12 1.04 6.5 2.48a7 7 0 0 0 1.25 1.08h.01l.94-.03h.05l.02-.03q.4-.3 1.1-.96c1.7-1.54 6.01-2.75 7.05-2.42 1.98.64.82 1.82-.14 3.04q-.87 1.11-1.68 2.11a13 13 0 0 1 4.27 4.1l2.03-1.6c.76-.59 1.51-1.27 2.12-1.2.37.03.68.33.92 1.07.34 1.04-.79 5.44-2.42 7.04q-.4.4-.68.77l.02.75a13 13 0 0 1-.06 1.15q.25.29.66.7c1.58 1.66 2.76 6.01 2.42 7.05-.63 1.98-1.82.82-3.04-.14l-2.13-1.7a13 13 0 0 1-4.32 3.98l1.84 2.34c.95 1.22 2.11 2.4.13 3.04-1.04.34-5.48-.75-7.04-2.42-.56-.6-.95-.92-1.27-1.08l-.01-.03q-.21-.24-.6-.08l-.19.08q-.55.28-1.3 1.05c-1.6 1.63-6 2.76-7.05 2.42-1.97-.64-.81-1.82.14-3.04l2.19-2.75a13 13 0 0 1-3.93-4.12l-2.88 2.25c-1.22.96-2.4 2.12-3.04.14-.33-1.04.77-5.4 2.4-7 .68-.68 1.16-1.03 1.31-1.35l.02-.05a.5.5 0 0 0-.03-.41v-.01l-.03-.06c-.17-.41-.6-.96-1.18-1.54-1.63-1.6-2.76-6-2.42-7.04.23-.74.55-1.04.92-1.08.6-.06 1.35.62 2.11 1.22l2.73 2.17a13 13 0 0 1 3.92-4.2l-2.03-2.6c-.95-1.2-2.11-2.4-.14-3.03q.2-.06.54-.06" style="fill:#d45500;fill-opacity:1;fill-rule:evenodd;stroke:none;stroke-width:.0601202px;stroke-linecap:butt;stroke-linejoin:miter;stroke-opacity:1"/></svg>