<?xml version="1.0" encoding="UTF-8" standalone="no"?>
<!-- Created with Inkscape (http://www.inkscape.org/) -->

<svg
   width="600"
   height="400"
   viewBox="0 0 158.75 105.83333"
   version="1.1"
   id="svg4650"
   xml:space="preserve"
   inkscape:version="1.2.2 (732a01da63, 2022-12-09)"
   sodipodi:docname="pracownicy.svg"
   xmlns:inkscape="http://www.inkscape.org/namespaces/inkscape"
   xmlns:sodipodi="http://sodipodi.sourceforge.net/DTD/sodipodi-0.dtd"
   xmlns="http://www.w3.org/2000/svg"
   xmlns:svg="http://www.w3.org/2000/svg"><sodipodi:namedview
     id="namedview4652"
     pagecolor="#ffffff"
     bordercolor="#000000"
     borderopacity="0.25"
     inkscape:showpageshadow="2"
     inkscape:pageopacity="0.0"
     inkscape:pagecheckerboard="0"
     inkscape:deskcolor="#d1d1d1"
     inkscape:document-units="mm"
     showgrid="false"
     inkscape:zoom="0.38565777"
     inkscape:cx="94.643497"
     inkscape:cy="-73.899717"
     inkscape:window-width="1920"
     inkscape:window-height="991"
     inkscape:window-x="-9"
     inkscape:window-y="-9"
     inkscape:window-maximized="1"
     inkscape:current-layer="layer1" /><defs
     id="defs4647" /><g
     inkscape:label="Warstwa 1"
     inkscape:groupmode="layer"
     id="layer1"><path
       id="path11145"
       style="fill:#d45500;fill-opacity:1;stroke:none;stroke-width:0.480959;stroke-linecap:round;stroke-linejoin:round"
       d="M 79.374998,10.638111 A 42.278454,42.278681 0 0 0 37.096443,52.917181 42.278454,42.278681 0 0 0 79.374998,95.195222 42.278454,42.278681 0 0 0 121.65356,52.916671 42.278454,42.278681 0 0 0 79.374998,10.638111 Z m 0,5.97638 a 36.302353,36.302353 0 0 1 36.302182,36.30218 36.302353,36.302353 0 0 1 -36.302182,36.30217 36.302353,36.302353 0 0 1 -36.302176,-36.30217 36.302353,36.302353 0 0 1 36.302176,-36.30218 z" /><path
       id="path2865"
       style="fill:#d45500;fill-opacity:1;fill-rule:evenodd;stroke:none;stroke-width:0.0601202px;stroke-linecap:butt;stroke-linejoin:miter;stroke-opacity:1"
       d="m 60.662448,30.014189 a 3.7831914,3.7831914 0 0 0 -3.784265,3.783748 3.7831914,3.7831914 0 0 0 3.784265,3.782715 3.7831914,3.7831914 0 0 0 0.625802,-0.09922 c -0.25808,0.41406 -0.615469,0.985202 -0.979269,1.978691 -1.620108,4.424515 -0.137365,10.023769 2.796212,12.772347 0.23043,0.19786 0.650744,0.507529 1.114144,0.787549 -0.48343,0.278189 -0.933369,0.600716 -1.174089,0.807185 -2.933697,2.748578 -4.417383,8.346252 -2.797245,12.770797 0.2772,0.757039 0.556054,1.271721 0.797884,1.6769 a 3.7831914,3.7831914 0 0 0 -0.383439,-0.02222 3.7831914,3.7831914 0 0 0 -3.784265,3.783749 3.7831914,3.7831914 0 0 0 3.784265,3.782715 3.7831914,3.7831914 0 0 0 3.782715,-3.782715 3.7831914,3.7831914 0 0 0 -0.09457,-0.818555 c 0.26157,0.12533 0.555812,0.252925 0.892452,0.376205 4.424512,1.620108 10.023772,0.137892 12.772342,-2.795695 0.19416,-0.22624 0.48349,-0.621524 0.74311,-1.058334 0.29331,0.47416 0.63006,0.905582 0.85163,1.117761 2.74855,2.933678 8.34628,4.417364 12.7708,2.797246 1.2035,-0.44067 1.85847,-0.913816 2.24689,-1.141016 a 3.7831914,3.7831914 0 0 0 -0.32298,1.522388 3.7831914,3.7831914 0 0 0 3.78426,3.782715 3.7831914,3.7831914 0 0 0 3.782723,-3.782715 3.7831914,3.7831914 0 0 0 -3.782723,-3.783749 3.7831914,3.7831914 0 0 0 -1.711,0.416513 c 0.25692,-0.41255 0.62573,-0.991491 0.99839,-2.00918 1.62011,-4.424516 0.13734,-10.023283 -2.79621,-12.77183 -0.23561,-0.20206 -0.65442,-0.500861 -1.10536,-0.75861 0.48159,-0.29578 0.92428,-0.629922 1.1653,-0.836642 2.9337,-2.748547 4.41738,-8.346281 2.79725,-12.770797 -0.54733,-1.494758 -1.16881,-2.19215 -1.26194,-2.504239 a 3.7831914,3.7831914 0 0 0 1.91357,0.563789 3.7831914,3.7831914 0 0 0 3.782723,-3.782714 3.7831914,3.7831914 0 0 0 -3.782723,-3.783749 3.7831914,3.7831914 0 0 0 -3.78426,3.783749 3.7831914,3.7831914 0 0 0 0.59686,1.976106 c -0.33318,-0.13544 -1.03308,-0.725746 -2.45928,-1.247986 -4.42451,-1.620108 -10.0238,-0.137892 -12.77235,2.795695 -0.19786,0.23068 -0.50589,0.636842 -0.78031,1.081071 -0.28845,-0.473049 -0.61189,-0.904905 -0.81442,-1.141015 -2.74855,-2.933677 -8.34631,-4.417364 -12.770797,-2.797244 -0.40678,0.149009 -0.73811,0.301792 -1.036629,0.451652 a 3.7831914,3.7831914 0 0 0 0.17725,-1.118278 3.7831914,3.7831914 0 0 0 -3.782715,-3.783749 z m 10.015409,6.70605 c 1.56532,0.01 5.12541,1.037567 6.50865,2.480986 0.49545,0.517329 0.90269,0.861044 1.23816,1.064534 0.002,0.002 0.005,0.0071 0.007,0.0124 0.003,0.0031 0.006,0.0047 0.009,0.0078 a 12.665673,12.665673 0 0 1 0.93483,-0.03514 12.665673,12.665673 0 0 1 0.0563,10e-4 c 0.005,-0.0092 0.01,-0.01811 0.014,-0.02739 0.28271,-0.20575 0.63567,-0.526685 1.11259,-0.962215 1.68613,-1.541848 6.00528,-2.756701 7.04557,-2.421041 1.97503,0.637279 0.81468,1.821199 -0.13901,3.038058 -0.58602,0.747664 -1.14109,1.440702 -1.68155,2.113565 a 12.665673,12.665673 0 0 1 4.2633,4.101558 c 0.65606,-0.513307 1.3184,-1.033089 2.03761,-1.596802 0.76052,-0.596099 1.50829,-1.273868 2.1177,-1.215429 v 5.16e-4 c 0.36563,0.035 0.6819,0.335274 0.92087,1.075904 0.33567,1.040289 -0.79309,5.441939 -2.42104,7.045048 -0.26514,0.2611 -0.49431,0.518356 -0.68368,0.762228 a 12.665673,12.665673 0 0 1 0.0233,0.750859 12.665673,12.665673 0 0 1 -0.0584,1.150317 c 0.17162,0.194569 0.38555,0.423026 0.65836,0.708484 1.57854,1.651817 2.75672,6.005296 2.42104,7.045564 -0.63728,1.975028 -1.82123,0.814709 -3.03806,-0.13901 -0.75691,-0.593261 -1.45835,-1.155017 -2.13889,-1.701704 a 12.665673,12.665673 0 0 1 -4.31549,3.978569 c 0.58346,0.746999 1.1875,1.515186 1.83554,2.341976 0.95374,1.216837 2.11409,2.401294 0.13901,3.038574 -1.04027,0.33568 -5.48422,-0.752443 -7.04505,-2.421042 -0.55678,-0.595208 -0.95364,-0.919168 -1.26504,-1.081587 -0.007,-0.01 -0.01,-0.02209 -0.0171,-0.03049 -0.13273,-0.15789 -0.34159,-0.171691 -0.60306,-0.07648 -0.0634,0.0173 -0.1242,0.04373 -0.18242,0.07803 -0.36499,0.18651 -0.81199,0.550643 -1.30431,1.050583 -1.60314,1.627959 -6.00476,2.756721 -7.04505,2.421041 -1.975007,-0.637279 -0.81466,-1.821715 0.13901,-3.038574 0.77268,-0.985798 1.49253,-1.883683 2.18798,-2.75332 a 12.665673,12.665673 0 0 1 -3.92844,-4.119129 c -0.91366,0.710596 -1.853331,1.449361 -2.879412,2.253609 -1.216809,0.953738 -2.400778,2.114088 -3.038058,0.13901 -0.335659,-1.04029 0.766574,-5.394968 2.390552,-7.002157 0.687639,-0.680379 1.166686,-1.028182 1.318266,-1.353922 0.007,-0.0148 0.01732,-0.02551 0.02222,-0.04031 0.0508,-0.13323 0.04069,-0.268552 -0.03411,-0.419612 -4.4e-4,-9.1e-4 -8.63e-4,-0.0021 -10e-4,-0.0021 -5.7e-4,-0.002 -0.0021,-0.0022 -0.0021,-0.0052 -0.01,-0.0173 -0.01472,-0.03473 -0.02532,-0.05323 -0.17147,-0.418889 -0.601384,-0.964795 -1.185974,-1.540474 -1.627958,-1.603139 -2.75672,-6.004779 -2.421041,-7.045048 0.23907,-0.740629 0.554708,-1.040855 0.920357,-1.075904 l -0.0016,-0.001 c 0.60943,-0.0585 1.357181,0.61934 2.1177,1.21543 0.97752,0.766181 1.869265,1.480345 2.73213,2.170409 a 12.665673,12.665673 0 0 1 3.91501,-4.199227 c -0.64166,-0.822958 -1.30925,-1.67212 -2.0283,-2.589506 -0.95374,-1.216828 -2.114118,-2.400778 -0.13901,-3.038058 0.13002,-0.0419 0.31278,-0.06114 0.5364,-0.05994 z" /></g></svg>
