<svg xmlns="http://www.w3.org/2000/svg" xml:space="preserve" width="48" height="48" viewBox="0 0 12.7 12.7"><path d="M1.7 2.26a1.1 1.1 0 0 0-1.09 1.1 1.1 1.1 0 0 0 1.1 1.09 1 1 0 0 0 .67-.23l3.17 1.12-1.79 2.4a1 1 0 0 0-.34-.06 1.1 1.1 0 0 0-1.09 1.1 1.1 1.1 0 0 0 1.1 1.1 1.1 1.1 0 0 0 1.09-1.1 1 1 0 0 0-.24-.68L6 5.76l1.8 2.41a1 1 0 0 0-.2.6 1.1 1.1 0 0 0 1.1 1.1 1.1 1.1 0 0 0 1.1-1.1 1.1 1.1 0 0 0-1.1-1.09 1 1 0 0 0-.43.1L6.45 5.3l3.53-1.25a1.1 1.1 0 0 0 .87.43 1.1 1.1 0 0 0 1.1-1.09 1.1 1.1 0 0 0-1.1-1.1 1.1 1.1 0 0 0-1.09 1.1v.05L5.96 4.8l-3.2-1.13a1 1 0 0 0 .04-.31 1.1 1.1 0 0 0-1.1-1.1" style="fill:#d40000;stroke-width:.045477;stroke-linecap:round;stroke-linejoin:round" transform="translate(-.54 .44)scale(1.09755)"/><g style="stroke:#d40000"><path d="M-70.93 352.52a2.14 2.14 0 0 1 2.14 2.14 2.14 2.14 0 0 1-2.14 2.14h-.01v-4.28z" style="fill:#d40000;stroke:#d40000;stroke-width:.0890436;stroke-linecap:round;stroke-linejoin:round" transform="translate(61.55 -272.77)scale(.7779)"/><path d="M-70.97 352.52a2.14 2.14 0 0 0-2.15 2.14 2.14 2.14 0 0 0 2.15 2.14h0z" style="fill:#fff;stroke:#d40000;stroke-width:.0890436;stroke-linecap:round;stroke-linejoin:round" transform="translate(61.55 -272.77)scale(.7779)"/></g><circle cx="6.35" cy="6.35" r="6.11" style="fill:none;stroke:none;stroke-width:.471368;stroke-linecap:round;stroke-linejoin:round"/></svg>