<?xml version="1.0" encoding="UTF-8" standalone="no"?>
<!-- Created with Inkscape (http://www.inkscape.org/) -->

<svg
   width="192"
   height="192"
   viewBox="0 0 50.8 50.8"
   version="1.1"
   id="svg5"
   xml:space="preserve"
   inkscape:version="1.2.2 (732a01da63, 2022-12-09)"
   sodipodi:docname="siec-logo.svg"
   inkscape:export-filename="siec-logo.png"
   inkscape:export-xdpi="96"
   inkscape:export-ydpi="96"
   xmlns:inkscape="http://www.inkscape.org/namespaces/inkscape"
   xmlns:sodipodi="http://sodipodi.sourceforge.net/DTD/sodipodi-0.dtd"
   xmlns="http://www.w3.org/2000/svg"
   xmlns:svg="http://www.w3.org/2000/svg"><sodipodi:namedview
     id="namedview7"
     pagecolor="#ffffff"
     bordercolor="#000000"
     borderopacity="0.25"
     inkscape:showpageshadow="2"
     inkscape:pageopacity="0.0"
     inkscape:pagecheckerboard="0"
     inkscape:deskcolor="#d1d1d1"
     inkscape:document-units="mm"
     showgrid="false"
     showguides="true"
     inkscape:zoom="1.2683451"
     inkscape:cx="127.33128"
     inkscape:cy="-61.891674"
     inkscape:window-width="1920"
     inkscape:window-height="991"
     inkscape:window-x="-9"
     inkscape:window-y="-9"
     inkscape:window-maximized="1"
     inkscape:current-layer="layer1"><inkscape:grid
       type="xygrid"
       id="grid22532"
       originx="0"
       originy="0" /><sodipodi:guide
       position="-6.3886374,-245.47307"
       orientation="1,0"
       id="guide22537"
       inkscape:locked="false" /><sodipodi:guide
       position="-0.39928984,-268.03294"
       orientation="0,-1"
       id="guide22539"
       inkscape:locked="false" /></sodipodi:namedview><defs
     id="defs2" /><g
     inkscape:label="Warstwa 1"
     inkscape:groupmode="layer"
     id="layer1"><g
       id="g22715"
       transform="matrix(2.0032747,0,0,2.0032747,2.4408158,2.61647)"><g
         id="g22556"
         transform="matrix(1.9992288,0,0,1.9992288,-1.0936502,0.61357352)"><path
           id="circle22349"
           style="fill:#d40000;stroke-width:0.045477;stroke-linecap:round;stroke-linejoin:round"
           d="M 1.7052021,2.2622714 A 1.0934365,1.0934365 0 0 0 0.61153777,3.355933 1.0934365,1.0934365 0 0 0 1.7052021,4.4492309 1.0934365,1.0934365 0 0 0 2.380593,4.2152 L 5.5498774,5.3370666 3.7639734,7.7393884 A 1.0934365,1.0934365 0 0 0 3.423347,7.6848373 1.0934365,1.0934365 0 0 0 2.330049,8.7784989 1.0934365,1.0934365 0 0 0 3.423347,9.8717968 1.0934365,1.0934365 0 0 0 4.5166463,8.7784989 1.0934365,1.0934365 0 0 0 4.2774768,8.0957888 L 6.0121042,5.7626862 7.8027697,8.171608 A 1.0934365,1.0934365 0 0 0 7.6185392,8.7784989 1.0934365,1.0934365 0 0 0 8.7118371,9.8717968 1.0934365,1.0934365 0 0 0 9.8055028,8.7784989 1.0934365,1.0934365 0 0 0 8.7118371,7.6848373 1.0934365,1.0934365 0 0 0 8.2847736,7.7727925 L 6.452353,5.3078245 9.9820422,4.058497 A 1.0934365,1.0934365 0 0 0 10.854117,4.4939897 1.0934365,1.0934365 0 0 0 11.947782,3.4003281 1.0934365,1.0934365 0 0 0 10.854117,2.3070167 1.0934365,1.0934365 0 0 0 9.760818,3.4003281 1.0934365,1.0934365 0 0 0 9.762708,3.4542061 L 5.9601487,4.8002301 2.7535055,3.665177 A 1.0934365,1.0934365 0 0 0 2.7985607,3.3560407 1.0934365,1.0934365 0 0 0 1.7052614,2.2623791 Z" /><g
           id="g22550"
           transform="matrix(0.70876457,0,0,0.70876457,56.569751,-248.93127)"
           style="stroke:#d40000"><path
             id="circle22528"
             style="fill:#d40000;stroke:#d40000;stroke-width:0.0890436;stroke-linecap:round;stroke-linejoin:round"
             d="m -70.93431,352.5215 a 2.1409394,2.1409394 0 0 1 2.140892,2.14089 2.1409394,2.1409394 0 0 1 -2.140892,2.14098 2.1409394,2.1409394 0 0 1 -0.0092,-3.2e-4 v -4.28133 a 2.1409394,2.1409394 0 0 1 0.0092,-1.5e-4 z" /><path
             id="path22535"
             style="fill:#ffffff;stroke:#d40000;stroke-width:0.0890436;stroke-linecap:round;stroke-linejoin:round"
             d="m -70.974845,352.5215 a 2.1409394,2.1409394 0 0 0 -2.140893,2.14089 2.1409394,2.1409394 0 0 0 2.140893,2.14098 2.1409394,2.1409394 0 0 0 0.0092,-3.2e-4 v -4.28133 a 2.1409394,2.1409394 0 0 0 -0.0092,-1.5e-4 z" /></g></g><circle
         style="fill:none;stroke:none;stroke-width:0.858615;stroke-linecap:round;stroke-linejoin:round"
         id="path22610"
         cx="11.460826"
         cy="11.373143"
         r="11.13746" /></g></g></svg>
