<svg xmlns="http://www.w3.org/2000/svg" width="50mm" height="34mm" viewBox="0 0 188.98 128.5"><path d="M122.27 3.57a57.2 57.2 0 0 1 57.16 57.16 57.2 57.2 0 0 1-57.16 57.16A57.2 57.2 0 0 1 65.1 60.73a57.2 57.2 0 0 1 57.16-57.16z" style="fill:#fc0;stroke:#ffec00;stroke-width:.077067" transform="translate(3.12 3.52)"/><path d="M69.33 39.03c-5.56 15.96-6.82 33.4 3.42 50.05 5.4-.86 14.2-4.57 19.59-8.86C79.46 68.84 72.5 58.66 69.33 39.03m43.31 63.55c2.33 6.64 14.94 8.24 33.23 10.18-17.73 7.86-41.68 7.24-58.14-6.55 8.6-.12 16.01-1.33 24.9-3.63" style="fill:#003380;stroke:none;stroke-width:.356791" transform="translate(3.12 3.52)"/><path d="M3.26 93.67c30.14.68 70.28 3.9 90.51-11.8 7.06 5.6 16.75 8.8 29.62 9.08-7.3 1.42-10.27 5.18-11.26 10-24.8 6.77-56.82 4.48-108.87-7.28" style="fill:#003380;stroke:none;stroke-width:.356791" transform="translate(3.12 3.52)"/><path d="M108.25 94.78a1.13 1.13 0 1 1 0 2.25 1.13 1.13 0 0 1 0-2.25z" style="fill:#fc0;stroke:#2c2c2b;stroke-width:.077067" transform="translate(3.12 3.52)"/><text xml:space="preserve" x="168.7" y="57.09" style="font-style:normal;font-variant:normal;font-weight:400;font-stretch:normal;font-size:22.8347px;line-height:.9;font-family:&quot;Showcard Gothic&quot;;-inkscape-font-specification:&quot;Showcard Gothic, Normal&quot;;font-variant-ligatures:normal;font-variant-caps:normal;font-variant-numeric:normal;font-variant-east-asian:normal;text-align:end;text-anchor:end;fill:#003380;fill-opacity:1;stroke-width:.535019;stroke-linecap:round;stroke-linejoin:round" transform="translate(3.12 3.52)"><tspan x="168.7" y="57.09" style="stroke-width:.535019">TWOJE</tspan><tspan x="168.7" y="77.64" style="stroke-width:.535019">LOGO</tspan></text></svg>