<svg xmlns="http://www.w3.org/2000/svg" width="883.03" height="802" viewBox="0 0 883.03 802"><path fill="#f2f2f2" d="M883.03 401a399 399 0 0 1-34.16 162.2q-1.1 2.48-2.22 4.92l-1.13 2.45-1.15 2.44a302 302 0 0 1-3.44 7.04q-.12.27-.27.54-.82 1.65-1.67 3.3l-.37.71q-.98 1.92-2 3.83v.01l-2.17 4.04q-2.7 4.98-5.55 9.87l-1.71 2.9a237 237 0 0 1-2.72 4.52q-.9 1.49-1.83 2.97l-.01.02q-2.06 3.3-4.18 6.56h-.01l-1.97 3.01v.01q-2.99 4.5-6.1 8.91v.01l-.01.01v.01l-.02.02q-2.46 3.52-5.02 6.99v.01a362 362 0 0 1-3.3 4.42q-1.37 1.8-2.76 3.59l-.6.77v.01l-.77.98v.01q-5.93 7.57-12.21 14.85h-.01l-.68.79-.7.79-1.07 1.23q-.53.62-1.1 1.23v.01a402 402 0 0 1-73.8 65.1q-5.42 3.73-11 7.27l-2.76 1.75q-.42.28-.84.53l-1.5.93-1.48.91q-3 1.83-6.01 3.6l-1.52.89-1.52.87-.06.04-.02.01-.02.02h-.01a315 315 0 0 1-7.61 4.26q-6.87 3.75-13.88 7.23l-3.5 1.72-2.92 1.4-.8.38-2.43 1.13q-1.32.63-2.65 1.22a385 385 0 0 1-14.21 6.13 392 392 0 0 1-41.23 14.26l-1.97.56q-8.99 2.52-18.1 4.61-15.92 3.66-32.12 6.01l-.07.01-3.88.55-.4.05-4.3.56-.3.04a500 500 0 0 1-11.73 1.25l-.3.03-3.03.26-.13.01-2.64.21q-15.53 1.23-31.35 1.22-17.18 0-34-1.43l-.12-.01q-3.59-.3-7.16-.66l-1.88-.19-.36-.04-.58-.06-.31-.04-2.5-.28-2.8-.34-2.8-.36q-.3-.02-.61-.08a66 66 0 0 1-3-.41l-1.94-.28-.07-.01a395 395 0 0 1-60.3-13.59l-3.21-1.01-.96-.3q-4.17-1.33-8.3-2.76-5.68-1.95-11.28-4.08l-3.05-1.17q-3.05-1.2-6.06-2.42-5.15-2.1-10.22-4.33h-.01v-.01q-4.74-2.09-9.41-4.3a1 1 0 0 1-.26-.12l-.02-.01q-1.04-.48-2.07-.98l-.02-.01a397 397 0 0 1-49.5-28.26q-7.6-5.09-14.94-10.51-5.93-4.37-11.68-8.95a402 402 0 0 1-52.84-50.49h-.01v-.01l-3.35-3.87v-.01l-.46-.54-2.1-2.49v-.01q-1.4-1.67-2.75-3.34l-.58-.71h-.01v-.01l-2.2-2.72-1.08-1.37h-.01v-.01q-3.27-4.13-6.41-8.33v-.01q-.87-1.15-1.71-2.32h-.01q-4.02-5.43-7.83-10.99v-.01q-1.44-2.09-2.85-4.2l-2.8-4.24q-1.43-2.19-2.82-4.4l-.14-.22q-1.38-2.18-2.72-4.38a218 218 0 0 1-3.53-5.87l-.47-.8q-1.59-2.71-3.14-5.44a407 407 0 0 1-5.48-10.03l-1.67-3.19-1.64-3.2-1.61-3.22-1.2-2.44-.1-.21q-.28-.56-.54-1.13l-.1-.19-1.2-2.51-1.51-3.26-1.05-2.3q-.75-1.62-1.47-3.27-.76-1.7-1.5-3.41l-.36-.86-.67-1.56q-.9-2.08-1.74-4.17-.98-2.36-1.9-4.72-.89-2.2-1.72-4.42l-.21-.54v-.01a399 399 0 0 1-19.64-70.46v-.01a400 400 0 0 1-5.32-41.48l-.16-2.28q-1-14.12-.97-28.34 0-6.32.2-12.57a399 399 0 0 1 88.48-238.96q3.61-4.49 7.36-8.86C250.6 54.55 359.95 0 482.03 0c142.73 0 268.05 74.57 339.1 186.88q5.55 8.73 10.62 17.78A399 399 0 0 1 883.03 401"/><path fill="#e4e4e4" d="m676.2 715.75-4.3 11.94-.82 2.27-11 30.43q-1.73.87-3.5 1.72l-2.91 1.4-.8.38-2.43 1.13q-1.32.63-2.65 1.22l-2.96 1.33a13 13 0 0 1-.87-4.19 25 25 0 0 1 .79-6.68c.87-3.6 2.25-7.13 3.16-10.74l.13-.52a39.4 39.4 0 0 0-2.66-25.69c-2.26-4.78-5.5-9.13-6.91-14.23a20.5 20.5 0 0 1 1.53-14.28 23 23 0 0 1 3.07-4.78q.44-.55.92-1.07a20.2 20.2 0 0 1 11.14-6.25c8.2-1.46 16.79 2.91 21.38 9.77a19.6 19.6 0 0 1 3.33 9.27c.5 6.01-1.58 11.9-3.63 17.57"/><path fill="#e4e4e4" d="M653.54 756.37c-1.88-3.47-5.03-6.51-5.63-10.41-1.95-12.52-6.65-21.5-14.44-26.59-2.26-1.47-2.62-4.72-4.01-7.06q-.93-1.58-1.9-3.13-1.58-2.56-3.28-5.03a82 82 0 0 0-7.11-9.04 55 55 0 0 0-3.37-3.43l-.01-.01q-1.09-1.05-2.24-2.02l-.93-.78-.02-.02a48 48 0 0 0-4.24-3.28c-3.4-2.29-7.22-3.88-11.15-2.61a24 24 0 0 0-4.44 2.04q-1.08.62-2.14 1.27l-1.44.88-1.17.68q-4.53 2.61-9.1 5.12l-1.33.73h-.01l-.95.52-1.84 1.01q-2.75 1.49-5.5 2.94-1.42.75-2.84 1.46l-1.31.67h-.01l-.47.24a64 64 0 0 0-3.82 2.11 31 31 0 0 0-9.2 8.43q-.71.99-1.35 2.04a29 29 0 0 0-1.5 2.8q-.47.97-.86 1.96v.01a31.4 31.4 0 0 0-.98 19.8v.01q.18.67.4 1.33a29 29 0 0 0 .8 2.2 24 24 0 0 0 1.13 2.35v.01a44 44 0 0 0 8.24 10.22l.1.1 1.2 1.18.7.62c3.46 2.97 9.05 5.22 12.2 8.27 1.7 1.63 2.69 3.48 2.3 5.79-1.04 6.13-.81 10.1.25 12.65 2.88 6.96 11.92 3.42 18.1 4.79l1.98-.56a392 392 0 0 0 41.23-14.26 384 384 0 0 0 14.2-6.13q1.34-.6 2.66-1.22l2.43-1.13.8-.38 2.92-1.4q-1.5-2.9-3.05-5.74"/><path fill="#e4e4e4" d="M580.37 659.28c2.1-6.34-.79-10.53-8.22-12.75a2.05 2.05 0 0 0-3.33.89l-6.5 19.24c-6.79-1.74-11.77-.55-12.85 6.17 2.68-6.84.16-11.13-7.39-12.97a2.05 2.05 0 0 0-3.38.77l-4.27 17.33a44 44 0 1 0 45.94-18.68"/><path fill="#fff" d="M576.24 714.12a3.76 3.76 0 0 1-5.09-1.53.54.54 0 0 1 .95-.51 2.68 2.68 0 0 0 4.73-2.54.54.54 0 0 1 .94-.5 3.76 3.76 0 0 1-1.53 5.08"/><ellipse cx="730.01" cy="753.78" fill="#fff" rx="4.29" ry="1.65" transform="rotate(-28.22 553.3 1044.54)"/><path fill="#fff" d="M550.11 707.6a9.55 9.55 0 0 1 12.92-6.94 10.62 10.62 0 1 0-13.39 6.79q.23.08.47.14"/><circle cx="553.28" cy="700.09" r="3.65" fill="#3f3d56"/><path fill="#fff" d="M575.39 694.45a9.55 9.55 0 0 1 12.92-6.93 10.62 10.62 0 1 0-13.4 6.79z"/><circle cx="579.9" cy="686.74" r="3.65" fill="#3f3d56"/><path fill="#fff" d="m585.76 699.2 12.47-12.71 1.26 1.23-12.47 12.7zm1.36 2.92 15.06-9.49.94 1.5-15.06 9.48zm-45.59 14.78 17.48-3.36.33 1.73-17.48 3.37zm2.94 6.71 16.23-7.3.72 1.6-16.23 7.3z"/><path fill="#e6e6e6" d="M45.95 445.09c-34.19-30.77-54.89-79.7-42.17-123.9a212 212 0 0 0 119.35 83.23c18.67 4.86 39.94 8.33 51.3 23.93 7.06 9.7 8.7 22.52 7.03 34.4-1.67 11.9-6.35 23.12-10.98 34.2l.24 2.98c-45.15-8.79-90.58-24.07-124.77-54.84"/><path fill="#fff" d="M4.74 321.32c8.69 36.66 29.14 70.78 57.85 95.26 6.2 5.3 12.96 10.12 20.54 13.25a45 45 0 0 0 23.39 2.74c7.38-.96 14.83-2.8 22.33-1.94 7.9.9 14.5 5.32 19.1 11.7 5.64 7.8 8.15 17.15 10.28 26.39 2.36 10.25 4.65 20.95 11.42 29.33.82 1.01-.8 2.23-1.62 1.21-11.78-14.58-10.17-34.77-18.7-50.88-3.98-7.52-10.26-13.9-18.9-15.47-7.55-1.38-15.23.5-22.7 1.55-7.85 1.08-15.44.82-22.97-1.84-7.7-2.72-14.66-7.3-20.97-12.4a176 176 0 0 1-36.46-41.09 184 184 0 0 1-24.6-57.58c-.3-1.27 1.71-1.49 2-.23"/><path fill="#fff" d="M52.84 409.11a27.2 27.2 0 0 1-35.19.68c-1-.82.24-2.43 1.24-1.6a25.2 25.2 0 0 0 32.73-.7c.98-.87 2.19.76 1.22 1.62m49.99 24.44a52.4 52.4 0 0 0-11.36-36.44c-.81-1.02.81-2.23 1.63-1.22a54.5 54.5 0 0 1 11.74 37.95c-.1 1.3-2.1 1.01-2-.29m-84.29-72.51a15.4 15.4 0 0 0 7.74-12.38c.08-1.3 2.08-1.01 2 .29a17.2 17.2 0 0 1-8.52 13.71 1.05 1.05 0 0 1-1.42-.2 1 1 0 0 1 .2-1.42"/><path fill="#e6e6e6" d="m146.57 259-.07 2.45a203 203 0 0 0 1.77 32.82q.15 1.27.34 2.53a214 214 0 0 0 25.54 74.37 207 207 0 0 0 17.6 26.14c9.02 11.4 19.7 23.03 24.28 36.35a36 36 0 0 1 1.22 4.23l-42.9 61.51-.5.28-1.6 2.54-1.1-1.23-.63-.71-.41-.46-.13-.15-.36-.4q-3.13-3.55-6.2-7.16l-.03-.04c-15.6-18.38-29.82-38.22-40.58-59.6q-.5-.97-.96-1.96a198 198 0 0 1-11.95-30.01 175 175 0 0 1-4.26-17.18 146 146 0 0 1-1.54-45.47c3.74-30.19 17.1-58.84 40.66-77.45z"/><path fill="#fff" d="M147.25 259.68c-15.13 34.5-19.34 74.05-11.16 110.89 1.77 7.96 4.26 15.88 8.43 22.94a45 45 0 0 0 17.02 16.27c6.47 3.68 13.53 6.7 19 11.9 5.76 5.46 8.37 12.97 8.21 20.84-.19 9.62-3.83 18.6-7.69 27.25-4.29 9.62-8.9 19.53-8.53 30.3.04 1.3-1.99 1.3-2.03 0-.63-18.74 12.82-33.89 15.7-51.9 1.35-8.4.18-17.25-5.77-23.72-5.2-5.65-12.47-8.76-19.06-12.43-6.92-3.86-12.82-8.64-17.23-15.3-4.51-6.8-7.32-14.65-9.28-22.53a176 176 0 0 1-4.38-54.75 184 184 0 0 1 15.03-60.8c.52-1.18 2.26-.15 1.74 1.04"/><path fill="#fff" d="M132.8 358.74a27.2 27.2 0 0 1-28.5-20.65c-.3-1.26 1.65-1.8 1.96-.53a25.2 25.2 0 0 0 26.55 19.15c1.3-.1 1.28 1.92 0 2.03M158 408.35a52.4 52.4 0 0 0 12.88-35.94c-.04-1.3 1.99-1.3 2.02 0a54.5 54.5 0 0 1-13.47 37.38c-.86.98-2.28-.46-1.43-1.44M134.37 299.7a15.4 15.4 0 0 0 13.63-5.22c.85-1 2.27.45 1.43 1.44a17.2 17.2 0 0 1-15.06 5.81 1.05 1.05 0 0 1-1.01-1.01 1 1 0 0 1 1.01-1.01"/><path fill="#e6e6e6" d="M538.52 263.1c5.96-32.97-3.94-70.38-30.98-90.15a154.4 154.4 0 0 1-31.59 101.15c-8.58 11.13-19.28 22.61-18.86 36.65.26 8.74 5.03 16.86 11.3 22.95 6.26 6.1 13.96 10.48 21.57 14.79l1.19 1.83c22.07-25.2 41.41-54.26 47.37-87.22"/><path fill="#fff" d="M507.05 173.46a132 132 0 0 1 9.18 80.64 57 57 0 0 1-5.92 16.79 32.6 32.6 0 0 1-12.24 12.01c-4.68 2.74-9.79 5-13.72 8.84a20 20 0 0 0-5.79 15.26c.23 7 2.97 13.5 5.86 19.77 3.21 6.96 6.66 14.14 6.5 21.99-.02.95 1.46.92 1.48-.03.28-13.65-9.65-24.55-11.93-37.64-1.06-6.1-.29-12.56 3.98-17.33 3.73-4.16 9-6.5 13.76-9.23a35 35 0 0 0 12.4-11.3 53 53 0 0 0 6.55-16.5 128 128 0 0 0 2.67-39.91 134 134 0 0 0-11.52-44.13c-.4-.86-1.65-.1-1.26.77"/><path fill="#fff" d="M518.51 245.46a19.8 19.8 0 0 0 20.56-15.3c.21-.93-1.22-1.3-1.43-.38a18.3 18.3 0 0 1-19.15 14.2c-.95-.07-.92 1.41.02 1.48m-17.88 36.36a38.2 38.2 0 0 1-9.72-26.05c.02-.95-1.46-.92-1.47.03a39.7 39.7 0 0 0 10.16 27.08c.64.71 1.66-.35 1.03-1.06m16.17-79.33a11.2 11.2 0 0 1-9.97-3.68c-.62-.72-1.65.35-1.02 1.06a12.6 12.6 0 0 0 11.02 4.1.76.76 0 0 0 .73-.76.74.74 0 0 0-.75-.72"/><path fill="#e6e6e6" d="m397.6 200.83 1.13 1.39a148 148 0 0 1 13.62 19.68l.93 1.6a156 156 0 0 1 18.47 54.22 151 151 0 0 1 1.51 22.9c-.1 10.58-1.05 22.04 2.24 31.75a26 26 0 0 0 1.19 2.98l52.13 16.28.41-.06 2.05.75.1-1.2.04-.7q0-.23.03-.44v-.14l.04-.4q.21-3.43.38-6.89v-.03c.78-17.54.12-35.3-3.23-52.4q-.14-.78-.32-1.57a144 144 0 0 0-6.5-22.6 127 127 0 0 0-5.21-11.8 106 106 0 0 0-19.4-26.86c-15.61-15.71-36.08-26.25-57.95-26.46z"/><path fill="#fff" d="M397.5 201.53a132 132 0 0 1 55.89 58.86 57 57 0 0 1 5.38 16.97 32.6 32.6 0 0 1-2.54 16.96c-2.09 5-4.8 9.89-5.64 15.32a20 20 0 0 0 4.57 15.66c4.4 5.46 10.5 9 16.58 12.27 6.76 3.62 13.84 7.27 18.43 13.63.56.78 1.72-.13 1.17-.9-8-11.07-22.5-13.8-32.19-22.87-4.52-4.24-7.8-9.86-7.26-16.24.48-5.57 3.27-10.6 5.43-15.66a35 35 0 0 0 3.1-16.49 53 53 0 0 0-4.7-17.11 128 128 0 0 0-21.9-33.47 134 134 0 0 0-35.77-28.3c-.83-.46-1.37.92-.55 1.37"/><path fill="#fff" d="M450 252.11a19.8 19.8 0 0 0 7.2-24.6c-.38-.86-1.75-.3-1.36.57a18.3 18.3 0 0 1-6.74 22.87c-.8.52.11 1.68.9 1.16m7.62 39.81a38.2 38.2 0 0 1-23.44-14.95c-.56-.77-1.72.14-1.16.9a39.7 39.7 0 0 0 24.42 15.51c.94.19 1.11-1.28.18-1.46m-34.85-73.09a11.2 11.2 0 0 1-10.17 3.07c-.94-.2-1.11 1.27-.19 1.46a12.6 12.6 0 0 0 11.27-3.37.76.76 0 0 0 .13-1.03.74.74 0 0 0-1.04-.13"/><path fill="#3f3d56" d="M131.27 378.02a27.2 27.2 0 0 1 27.22 27.21 27.2 27.2 0 0 1-22 26.71v44.51H119.1v-98.43Z"/><path fill="#cacaca" d="M797.89 638.76v9.32q-5.93 7.57-12.21 14.85l-1.38 1.58q-1.07 1.24-2.17 2.47v-28.22Z"/><path fill="#3f3d56" d="M751.65 619.32a13.16 13.16 0 0 0-13.14 13.14v18.9a13.16 13.16 0 0 0 13.14 13.15h32.65l1.38-1.58q6.28-7.28 12.2-14.85l.78-1a382 382 0 0 0 11.7-15.8l.02-.02q4.14-5.88 8.07-11.94Z"/><path fill="#3f3d56" d="M835.72 457.46a19 19 0 0 0-6.24-1.04h-5.37a20 20 0 0 0-5.77.87 19.4 19.4 0 0 0-13.61 18.52v157.75q0 .88.08 1.74a18 18 0 0 0 .5 3q2.56-3.48 5.05-7.02l.02-.02q4.14-5.88 8.07-11.94 2.1-3.26 4.18-6.56a398 398 0 0 0 26.24-49.56v-87.4a19.4 19.4 0 0 0-13.15-18.34"/><path fill="#cacaca" d="M173.86 638.76v18.83q-6.75-8.07-13.05-16.5l-1.72-2.33Z"/><path fill="#3f3d56" d="M204.34 619.32H145.6q2.77 4.27 5.65 8.45 3.8 5.56 7.83 10.99l1.72 2.33q6.31 8.43 13.05 16.5l2.55 3.04q1.65 1.95 3.35 3.88h24.58a13.15 13.15 0 0 0 13.13-13.14v-18.91a13.15 13.15 0 0 0-13.13-13.14"/><path fill="#3f3d56" d="M140.83 458.6a19.5 19.5 0 0 0-8.96-2.18h-5.36a19 19 0 0 0-7.4 1.47 19.4 19.4 0 0 0-12 17.92v67.77a399 399 0 0 0 38.5 75.74q2.77 4.27 5.65 8.45V475.8a19.4 19.4 0 0 0-10.43-17.2"/><path fill="#9e616a" d="m359.29 751.49 17.62-4.04-7.21-69.87-26 5.96z"/><path fill="#2f2e41" d="M375.32 690.87a21 21 0 0 1-.73-3.77 23 23 0 0 0-.88-4.45 23 23 0 0 0-1.85-3.8q-.54-.96-1.05-1.93a16 16 0 0 1-.86-2.01c-10.31-30.45-24.7-71.83-34.68-96.05-5.87-14.25-41.97-19-76.03-20.2q-6.24-.22-12.3-.3l-4.14-.05q-5.26-.03-10.2.02h-1.28q-3.59.04-6.95.1c-15.42.3-26.75 1-28.77 1.14l-18-11.31-3.5-2.21-.37 2.2-2.83 16.87-4.83 28.77 12.1 3.4 7.87 2.2 46.57 13.06 9.9 2.78.06.02 16.67-.03 45.58-.08 2.2 5.83a10.28 10.28 0 0 0 4.2 14.84l1.72.8 20.83 55.13a25 25 0 0 0 4.47 13.93q.53.75 1.13 1.5l.46.55 8 15.67 4.78-1.1 20.3-4.65.1-.2c0-.03.27-.58.65-1.54v-.03c1.59-3.97 5.1-14.82 1.66-25.1m49.48 65.27a26.1 26.1 0 0 0-31.38-19.68l-14.07-6.35-3.94 2.77-16.34 11.46-1.35.3-4.38 1 6.05 26.38L425 756.97Z"/><path fill="#9e616a" d="m337.77 715.48-5.95 48.24-.2 1.58-.88 7.19q-5.15-2.1-10.23-4.34-4.74-2.09-9.41-4.3v-48.36Z"/><circle cx="208.65" cy="347.77" r="36.07" fill="#9e616a"/><path fill="#2f2e41" d="M341.6 733.89c-1-1.37-2.04-2.8-2.1-4.17a2479 2479 0 0 0-1.26-23.95l-.07-1.2c-.31-5.22 1.24-10.74 2.73-16.1q.75-2.62 1.42-5.28a38 38 0 0 0 1.37-12.13c-2.56-32.4-14-62.85-19.13-67.98-7.8-7.8-43.07-25.82-65.32-36.78-3.95-1.95-7.5-3.67-10.4-5.07-2.56-1.25-4.63-2.24-6.04-2.92l-2.02-.96-.12-.06-8.05.9-1.3.15-7.1.8-46.18 5.18-7.13.8-10.1 1.14-9.1 1.02-.34.03-.06.34-.04.2a95 95 0 0 0 0 29.85c1.18 6.7 3.4 13.53 7.37 19.27q.8 1.17 1.7 2.25l.08.1.4.48a33 33 0 0 0 17.37 10.58q1.5.4 3.07.67a808 808 0 0 0 36.22 5.4 1828 1828 0 0 0 61.51 6.67l18.55 86.54a12.7 12.7 0 0 0 2.14 15.6l1.52 1.48 1.76 8.24 5.8 7.76.73.98h25.59l.14-.17c.09-.12 9.09-11.68 8.48-25.45-.06-1.42-1.05-2.77-2.1-4.21"/><path fill="#9e616a" d="M340.9 443.85a13.74 13.74 0 0 0-17.3 12.02l-29.98 9.36 1.25 19.6L337 471.02a13.82 13.82 0 0 0 3.89-27.16"/><path fill="#531047" d="m321.34 476.29-22.4 8.48-.57 1.1a11.3 11.3 0 0 1-15.22 4.88L232.8 509.8s-22.49-22.5-38.5-42.58l5.46-33.56a64 64 0 0 1 7.92-22.09c32.83 7.2 51.68 53.1 51.68 53.1l59.17-11.3Z"/><path fill="#2f2e41" d="M203.53 381.92c-9.03 2.43-18.99-.8-26.04-6.96s-11.45-14.87-14-23.87c-1.85-6.6-2.74-13.91.2-20.1s10.84-10.37 16.93-7.24c-3.76-4.38-1.88-11.63 2.51-15.38s10.43-4.82 16.17-5.4c8.34-.86 16.95-.96 24.88 1.75s15.14 8.6 17.62 16.6a12.64 12.64 0 0 0 15.08-3.4 11.45 11.45 0 0 1-6.31 12.42l12.15-3.94c2.1 4.42-1.57 9.9-6.25 11.31s-9.74-.13-14.19-2.18-8.75-4.63-13.58-5.43-10.5.75-12.73 5.1c-1.17 2.29-1.23 4.96-1.9 7.43s-2.4 5.03-4.96 5.24c-1.62.12-3.2-.74-4.8-.56a5.2 5.2 0 0 0-4.06 3.96 15 15 0 0 0-.02 5.98l3.1 23.6Z"/><path fill="#531047" d="m248.85 561.23-1.91-2.87L233 537.45l-.28-.41 4.3-22.36 1.35-6.98 2.93-15.2-.85-34.76-.61-24.6-.1-3.86-3.08-9.42a34 34 0 0 0-18-20.11l-20.8-9.52a10.14 10.14 0 0 0-13.43 5.02q-.14.31-.26.63c-2.85.39-15.22 2.47-25.71 10.6a39 39 0 0 0-14.48 22.63l-.05.2c-1.4 6.22-2.43 16.02-3.1 29.3q-.68 13.17-.85 30.86a449 449 0 0 0 3.3 58.82l.73 5.57c.2 1.56 1.7 3.05 3.16 4.48 1.33 1.3 2.7 2.67 2.89 3.9.17 1.08-.52 2.2-1.34 3.39l-.31.45c-1.02 1.45-2.07 2.96-1.8 4.55.63 3.58 1 7.22 1.35 10.74a114 114 0 0 0 2.1 14.42 74 74 0 0 0 1.2 4.4c1.05 3.45 2.32 6.89 3.56 10.25 1.07 2.92 2.18 5.92 3.12 8.88q.27.82.5 1.63l.09.28.29.05h.02a11 11 0 0 1 1.4-1.96l.09-.1q.2-.26.48-.54c2.19-2.4 6.95-6.68 17.37-13.91a415 415 0 0 1 7.86-5.28c10.7-7.01 25.67-16.14 46.57-27.93q7.86-4.44 16.87-9.4Z"/><path fill="#2f2e41" d="M361.02 781.2a26 26 0 0 0-18.53-7.66l-10.87-8.24-1.43-1.1-9.68 3.95q5.08 2.24 10.23 4.34 16.1 6.57 32.87 11.74a26 26 0 0 0-2.6-3.02"/><path fill="#ffb6b6" d="m602.45 750.81-13.61-6.51 18.7-56.91 20.09 9.61zm91.27-9.17q-5.94 3.7-12.03 7.2v.03h-.06l-.02.02-1.54.38-2.21-5.84-5.1-13.47-13.9-36.7 21.6-5.33 1.23 4.95 9.14 37.07 2.62 10.6ZM638.6 503.47a14.2 14.2 0 0 0 19.23 4.83 14 14 0 0 0 1.82-1.32l43.05 24.7-1.87-25.36-40.59-19.57a14.14 14.14 0 0 0-17.15-2.23 13.6 13.6 0 0 0-4.66 18.67z"/><path fill="#531047" d="m684.2 522.38 7.6 4.63 34.17 20.84a20.15 20.15 0 0 0 27.76-6.4l.02-.01a19.7 19.7 0 0 0 2.5-13.92l-15.18-75.87a21.05 21.05 0 0 0-27.64-15.98 20.04 20.04 0 0 0-12.64 24.35l15.88 53.85-24.34-11.35Z"/><path fill="#2f2e41" d="m824.3 597.19-.06-.31-.03-.11-.24-1.2a270 270 0 0 0-7.85-29.97 92 92 0 0 0-7.47-17.34l-.32-.54-.37-.6-3.11 1.14-.12.04-47.28 17.33-13.67 5-.43.17-2.33 9.5-32.7-4.23-26.63-3.45-7.65-1a25.2 25.2 0 0 0-18.8 5.15 26.2 26.2 0 0 0-9.96 17.64q-.14 1.14-.2 2.29l-2.3 86.17v.1l1.07 2.15 22.35 44.84h15.49l9.14-.01h7.43l-15.45-39.1.35-.52a17.2 17.2 0 0 0 1.77-15.23l1.74-5.04c3.6-10.41 1.9-15.41-.26-21.73a54 54 0 0 1-3.38-16.03l-.36-7.13a618 618 0 0 1 25.66 5.14q4.08.88 8.08 1.79a715 715 0 0 0 22.1 4.68c14.54 2.77 28.47 4.46 42.78 3.4l.84-.06a111 111 0 0 0 16.53-2.61l1.69-.42a19 19 0 0 0 4.46-1.8 29 29 0 0 0 5.55-4.01l.02-.02q4.14-5.88 8.07-11.94 2.1-3.26 4.18-6.56c2-5.5 2.76-11.03 1.67-15.57"/><path fill="#2f2e41" d="M824.63 581a26 26 0 0 0-.54-1.92 137 137 0 0 0-5.54-14.02 226 226 0 0 0-8.56-16.8q-2.45-4.38-5.26-9.11-1.41-2.37-2.93-4.83l-.13-.22-.3-.48-46.77 6.26-17.42 2.33-1.04 8.68-.25 2.15q-.01 0 0 0l-.7 5.87-.93 7.75-.08-.01-25.85-3.35-26.64-3.45-14.31-1.85a25.2 25.2 0 0 0-18.8 5.14 26.2 26.2 0 0 0-9.96 17.64q-.14 1.06-.18 2.13l-13.5 31.99a206 206 0 0 0-15.26 60.04l-9.9 31.65 1.4.13 20.99 1.95 5.54.52 12.2-17.81a94 94 0 0 0 3.94-6.26 95 95 0 0 0 5.39-10.84l26.39-62.8q3.06.52 6.06 1 13.87 2.25 26.64 3.67c27.67 3.09 51.63 3.33 72.96.7q8.98-1.09 17.37-2.87 3.07-.65 6.07-1.4.7-.15 1.39-.33a25.5 25.5 0 0 0 17.85-16.68 26 26 0 0 0 .66-14.57"/><ellipse cx="725.15" cy="359.05" fill="#ffb6b6" rx="32.36" ry="33.08"/><path fill="#531047" d="M801.99 535.43q-.07-.55-.2-1.11c-.76-4.06-2.76-8.04-4.7-11.9-1.83-3.68-3.58-7.16-4.3-10.62-.71-3.41-.3-6.83.12-10.13.44-3.58.9-7.28-.13-10.87a267 267 0 0 0-21.4-52.86 40.2 40.2 0 0 0-33.35-28.06 9.5 9.5 0 0 0 1.07-5.46 9.3 9.3 0 0 0-3.41-6.27 9 9 0 0 0-6.6-1.92l-15.03 1.69a9.2 9.2 0 0 0-8.01 10.2 10 10 0 0 0 .5 2.19c-13.96 17.78-21.13 33.98-21.8 49.3a52 52 0 0 0 .04 5.32 53 53 0 0 0 3.68 16.67 71 71 0 0 0 9.96 17.13q1.26 1.59 2.6 3.12 1.27 1.5 2.83 3.15l2.63 4.12 2.45 3.85 13.1 30.23 6.67-.22.93 6.65.22 1.55 4.32 15.47.32 1.16 5.9-2.81 35.27-16.74 26.36-12.52Z"/><path d="M847.35 530.44a71 71 0 0 0 12.5 20.12q1.36 1.62 2.86 3.2l5.11 8.03c18.87-14.14 34.16-69.83 34.16-69.83l-21.29-4.14Z" opacity=".2" style="isolation:isolate" transform="translate(-158.49 -49)"/><path fill="#ffb6b6" d="M675.98 395.22a14.2 14.2 0 0 1-4.8 19.25 14 14 0 0 1-2.03 1l1.5 49.6-21.48-13.53 1.87-45.03a14.2 14.2 0 0 1 6.1-16.2 13.6 13.6 0 0 1 18.65 4.59z"/><path fill="#531047" d="m672.54 446.34-23.62 3.36 1.02 48.92a20.5 20.5 0 0 0 10 17.25 19.6 19.6 0 0 0 23.43-2.66l55.77-53.65a21.15 21.15 0 0 0 1.56-29.03 20.05 20.05 0 0 0-28.27-2.38l-.47.41a21 21 0 0 0-1.57 1.56l-36.82 42.37Z"/><path fill="#2f2e41" d="m694.32 740.39-.87.16-11.76 2.17-3.83.7-6.03 1.12 2.14 8.63a317 317 0 0 0 7.64-4.28l.02-.01.06-.01v-.03q6.09-3.48 12.03-7.2.42-.25.84-.53Zm-87.52 1.13-14.73-7.06-2.31-1.11-3.7 9.06-25.75 5.67a6.11 6.11 0 0 0-1 11.63l25.17 10.27 7.99-7.2-1.96 9.66 9.48 3.87 10.39-33.07ZM811.74 344.7c-5.5-6.41-8.11-14.92-12.51-22.2-4.4-7.3-12.05-13.81-20.13-12.11-5.58 1.16-9.88 6.08-12.06 11.56s-2.6 11.53-2.97 17.45c.13-12.17-7.89-23.97-18.93-27.85-11.05-3.88-24.27.45-31.2 10.23a16.87 16.87 0 0 0-22.4-.47c-6.22 5.54-7.6 16.1-3.03 23.18s14.46 9.72 21.71 5.8l2.57 2.35c-1.44 5.05 1.36 11.02 6.06 12.92 3.82 1.54 9.2 1.28 10.64 5.29 1 2.8-.87 5.78-2.86 7.94-1.98 2.15-4.34 4.37-4.57 7.34-.36 4.5 4.28 7.64 8.5 8.59 10.17 2.28 21.45-2.43 27.31-11.4q.17-.27.37-.53a39.3 39.3 0 0 0 7.9-30.03c-.33-2.07 0-3.62 1.44-4.1 6.18-2.13 23.5 2.33 28.74 6.35 5.25 4.03 9.44 9.36 14.5 13.65 5.04 4.29 11.48 7.6 17.89 6.43 5.13-.94 9.5-4.66 12.44-9.16s4.63-9.74 6.14-14.95c-11.35 6.56-26.9 3.82-35.55-6.28"/><path fill="#e4e4e4" d="M708.33 541.88v190.2q-5.43 3.74-11 7.27V554.5c0-5.36-1.8-9.7-4.01-9.72h-166.5c-2.21.01-4 4.36-4.01 9.72v245.46q-3.33.34-6.66.61l-2.77.22q-.8-1.47-1.57-2.97V541.88q0-2.23.16-4.44c.9-12.48 5.37-21.6 10.6-21.62h175a5 5 0 0 1 1.84.4c4.38 1.85 7.84 10.01 8.7 20.56q.23 2.53.22 5.1m-267.13 0V799.2l-.45.71q-5.64-.57-11.23-1.3V554.5c0-5.37-1.91-9.72-4.26-9.73H248.55c-2.35.01-4.26 4.36-4.26 9.72v169.46q-5.93-4.36-11.68-8.95V541.88q0-2.23.17-4.44c.95-12.48 5.7-21.6 11.26-21.62h185.73a5 5 0 0 1 1.95.4c4.65 1.85 8.33 10.01 9.26 20.56q.22 2.53.22 5.1"/><path fill="#3f3d56" d="m381.97 456.37 11.59 50.96 7.4 8.1h5.33l-22-92.64-1.09 15.74v.01z"/><path fill="#3f3d56" d="m420.54 518.04-.13-.22a2 2 0 0 0-.45-.64l-1.35-1.35-7.1-7.11a2.8 2.8 0 0 0-1.95-.8h-.03l-5.01.03-4.31.03-6.02.04-41 .26-26.95.17a2.8 2.8 0 0 0-2.75 2.77 3 3 0 0 0 .26 1.17l.52 1.1 1.09 2.34 1.42 3.05.7 1.5a2.8 2.8 0 0 0 2.5 1.6H418a2.82 2.82 0 0 0 2.54-3.94"/><path d="m485.27 567.87.7 1.5a2.8 2.8 0 0 0 2.5 1.6h88.02a2.82 2.82 0 0 0 2.53-3.93l-.12-.22Z" opacity=".17" style="isolation:isolate" transform="translate(-158.49 -49)"/><path d="m383.2 438.53 18.84 76.89h4.25l-22-92.64z" opacity=".17" style="isolation:isolate"/><path fill="#3f3d56" d="m412.76 223.34-2.76-.37a3 3 0 0 0-2.13.57l-1.65 1.27-18.37 22.98a3 3 0 0 0-1.1 1.92l-1.03 7.82-25.64 195.09a3 3 0 0 0 .5 2.05l12.09 33.3.36.52.78 1.1a3 3 0 0 0 1.66 1.15l1.75.44a3 3 0 0 0 2.34-.42 3 3 0 0 0 1.24-2.02l3.13-23.78v-.01l2-15.26 1.69-12.87v-.01l27.64-210.23a2.9 2.9 0 0 0-2.49-3.24Z"/><path d="m564.7 273.8-33.55 263.17.37.52.78 1.1a3 3 0 0 0 1.66 1.14l1.75.44a2.9 2.9 0 0 0 3.58-2.43l34.45-262.16a2.9 2.9 0 0 0-2.5-3.25l-2.76-.36a3 3 0 0 0-2.13.57Z" opacity=".17" style="isolation:isolate" transform="translate(-158.49 -49)"/><path fill="#531047" d="m405.23 232.33-17.81 25.41-21.16 161.01 11.48 22.75z"/><path fill="#3f3d56" d="m578.65 456.37-11.59 50.96-7.4 8.1h-5.33l22-92.64 1.09 15.74v.01z"/><path fill="#3f3d56" d="m634.38 508.45-67.94-.43-6.03-.04-4.3-.03-5.01-.03h-.04a2.8 2.8 0 0 0-1.94.8l-8.46 8.46a2 2 0 0 0-.45.64l-.13.22a2.82 2.82 0 0 0 2.54 3.94h88a2.8 2.8 0 0 0 2.53-1.6l.69-1.5 1.42-3.05 1.6-3.44a3 3 0 0 0 .27-1.17 2.8 2.8 0 0 0-2.75-2.77"/><path d="m792.33 567.87-.7 1.5a2.8 2.8 0 0 1-2.51 1.6H701.1a2.82 2.82 0 0 1-2.53-3.93l.13-.22Z" opacity=".17" style="isolation:isolate" transform="translate(-158.49 -49)"/><path d="m577.42 438.53-18.84 76.89h-4.25l22-92.64z" opacity=".17" style="isolation:isolate"/><path fill="#3f3d56" d="M600.54 452.62 573.87 249.7a3 3 0 0 0-1.1-1.92L554.4 224.8l-1.65-1.27a3 3 0 0 0-2.14-.57l-2.76.37a2.9 2.9 0 0 0-2.5 3.24L573 436.82l1.69 12.87 2 15.27v.02l3.13 23.76a2.8 2.8 0 0 0 1.25 2.02 3 3 0 0 0 2.33.42l1.75-.44a3 3 0 0 0 1.66-1.14l.78-1.11.36-.52 12.08-33.3a3 3 0 0 0 .5-2.05"/><path d="m712.9 273.8 33.54 263.17-.37.52-.77 1.1a3 3 0 0 1-1.66 1.14l-1.76.44a2.9 2.9 0 0 1-3.58-2.43l-34.45-262.16a2.9 2.9 0 0 1 2.5-3.25l2.76-.36a3 3 0 0 1 2.13.57Z" opacity=".17" style="isolation:isolate" transform="translate(-158.49 -49)"/><path fill="#531047" d="m555.39 232.33 17.81 25.41 21.16 161.01-11.48 22.75z"/><path fill="#3f3d56" d="M224.5 556.94a8 8 0 0 1-.13 1.5l-.15.7a8.7 8.7 0 0 1-8.41 6.49h-37.63v89.75a8.7 8.7 0 0 1-1.77 5.25l-2.55-3.04q-6.75-8.07-13.05-16.5v-75.46H144a8.69 8.69 0 0 1-.72-17.34q.36-.03.72-.03h71.8a8.7 8.7 0 0 1 8.69 8.68m599.64 0a8.7 8.7 0 0 1-5.58 8.12 9 9 0 0 1-2.43.54l-.67.03h-16.8v81.46q-.37.5-.76.99-5.93 7.57-12.21 14.85a8.6 8.6 0 0 1-4.4-7.55v-89.75h-37.63a9 9 0 0 1-3.24-.63 8.7 8.7 0 0 1-5.22-6.08v-.01a8.6 8.6 0 0 1 .7-5.86v-.01a9 9 0 0 1 1.54-2.16 8.7 8.7 0 0 1 6.22-2.62h71.8a8.7 8.7 0 0 1 8.68 8.67Zm-.58-167.34a27.2 27.2 0 0 0-27.21 27.21 27.2 27.2 0 0 0 22 26.71v44.51h17.37V389.6Z"/><path fill="#9e616a" d="M348.4 488.97a13.74 13.74 0 0 0-19.84 7.09l-31.38 1.22-4.23 14.62 44.61 2.28a13.82 13.82 0 0 0 10.85-25.2"/><path fill="#531047" d="m322.63 515.76-32.23-.4-4.08-.06-65.58-.83s-17.8-16.99-33.31-34.48l2.17-15.72a64.2 64.2 0 0 1 21.53-39.77c22.21 14.84 35.1 44.22 35.1 44.22l21.59 9.66a94.6 94.6 0 0 1 43.17 12.64l7.1 4.12Z"/><path fill="#ccc" d="M423.9 797.82h116.26q-11.9 1.74-24.01 2.75H447.9q-12.12-1-24.01-2.75"/><path fill="#ccc" d="M447.27 739.29c2.25-20.31 14.55-40.45 33.8-47.3a94 94 0 0 0 .87 64.61c3.07 8 7.33 16.58 4.64 24.71-1.67 5.07-5.87 8.98-10.6 11.45-4.71 2.48-9.98 3.7-15.17 4.9l-1.02.85c-8.52-18.56-14.77-38.92-12.52-59.22"/><path fill="#fff" d="M481.26 692.36a80.5 80.5 0 0 0-19.4 45.55 35 35 0 0 0 .55 10.84 20 20 0 0 0 5.06 9.15c2.26 2.42 4.86 4.63 6.49 7.55a12.2 12.2 0 0 1 .73 9.93c-1.36 4.05-4.09 7.38-6.87 10.54-3.09 3.51-6.35 7.1-7.62 11.72-.16.56-1.02.29-.86-.27 2.21-8.03 9.91-12.67 13.52-19.93 1.68-3.38 2.35-7.3.69-10.82-1.46-3.08-4.13-5.37-6.44-7.8a21 21 0 0 1-5.29-8.76 32 32 0 0 1-.95-10.78 78 78 0 0 1 5.38-23.8 82 82 0 0 1 14.4-23.79c.39-.43 1 .24.61.67"/><path fill="#fff" d="M462.04 732.46a12.1 12.1 0 0 1-9.36-12.53.45.45 0 0 1 .9.04 11.2 11.2 0 0 0 8.73 11.63c.56.12.3.98-.27.86m4.13 24.37a23.3 23.3 0 0 0 10.2-13.54c.16-.56 1.02-.29.86.27a24.2 24.2 0 0 1-10.65 14.06c-.5.3-.9-.5-.41-.8m4.33-49.19a6.8 6.8 0 0 0 6.48-.41c.5-.31.9.49.42.8a7.7 7.7 0 0 1-7.16.47.5.5 0 0 1-.3-.56.45.45 0 0 1 .57-.3"/><path fill="#ccc" d="m540.49 727.4-.9.62a90 90 0 0 0-11.4 9.13l-.82.78a95 95 0 0 0-20.22 28.48 92 92 0 0 0-4.87 13.12c-1.78 6.2-3.22 13.07-6.84 18.17a16 16 0 0 1-1.2 1.54l-33.32.44-.23-.1-1.32.08.15-.72.1-.4.05-.28.03-.08.05-.24q.47-2.04.97-4.09l.01-.02a136 136 0 0 1 11-30.07l.46-.86a88 88 0 0 1 7.74-12.08 78 78 0 0 1 5.1-6 65 65 0 0 1 16-12.32c11.86-6.47 25.66-9.07 38.48-5.39z"/><path fill="#fff" d="M540.42 727.83a80.5 80.5 0 0 0-42.91 24.69 35 35 0 0 0-6.1 8.98 20 20 0 0 0-1.46 10.35c.35 3.3 1.08 6.62.63 9.94a12.2 12.2 0 0 1-5.4 8.36c-3.52 2.42-7.7 3.44-11.83 4.29-4.58.94-9.35 1.84-13.14 4.76-.46.36-.98-.38-.52-.73 6.6-5.08 15.54-4.15 22.79-7.77 3.38-1.69 6.27-4.4 7.07-8.23.69-3.34-.07-6.77-.45-10.1a21 21 0 0 1 1.05-10.18 32 32 0 0 1 5.73-9.18 78 78 0 0 1 18.63-15.76 82 82 0 0 1 25.83-10.32c.56-.12.64.78.08.9"/><path fill="#fff" d="M500.93 748.26a12.1 12.1 0 0 1 .06-15.63c.38-.43 1.08.13.7.57a11.2 11.2 0 0 0-.03 14.54c.38.44-.36.96-.73.52m-11.38 21.94a23.3 23.3 0 0 0 16.3-4.65c.46-.36.99.38.52.73a24.2 24.2 0 0 1-16.97 4.82c-.58-.06-.43-.95.15-.9m33.08-36.65a6.8 6.8 0 0 0 5.42 3.56c.58.05.43.94-.15.89a7.7 7.7 0 0 1-6-3.93.5.5 0 0 1 .1-.63.45.45 0 0 1 .63.1"/><circle cx="557.76" cy="745.1" r="10.59" fill="#ccc"/><path fill="#ccc" d="m592.35 786.63-1.97.56q-8.99 2.52-18.1 4.61a10.59 10.59 0 1 1 20.07-5.17m60.52-22.74-2.43 1.13q-1.32.63-2.65 1.22a385 385 0 0 1-14.21 6.13l-.15-.26a10.6 10.6 0 0 1 18.67-10.02 12 12 0 0 1 .77 1.8"/><circle cx="595.12" cy="719.1" r="10.59" fill="#ccc"/><path fill="#fff" d="M497.96 138.7c-62.31 16.4-131.35 26.36-201.55 29.1a252 252 0 0 1-30.88-.22c-22.6-1.9-41.94-9-63.5-12.88-10.35-1.86-21.9-3.22-32.32-5.23q3.61-4.48 7.36-8.86c22.49 1.9 45.33 8.12 68.09 11.01 38.69 4.92 82.04-.57 111.37-14.1 14.23-6.58 25.13-14.78 39.3-21.38a18 18 0 0 1 6.18-1.89c4.49-.4 8.43 1.4 11.64 3.02 23.79 12.01 58.33 21.77 90.39 16.4 2.39 1.87-2.15 4-6.08 5.03m141.87 42.27.87-.15a24 24 0 0 1-3.46-2.6Zm191.92 23.69q-20.09 1.6-40.38 2.4a254 254 0 0 1-30.88-.22c-22.6-1.9-41.94-9-63.5-12.88-19.74-3.55-43.74-5.26-56.28-13.14 32.4-5.6 65.99 5.81 99.4 10.06a237 237 0 0 0 81.02-4q5.55 8.73 10.62 17.78"/><path fill="#fff" d="M530.32 354.67C498.95 247 480.5 135.98 480.5 23.84V15.7h-10.42v8.13c0 112.14-18.46 223.16-49.83 330.83a57 57 0 0 0-2.28 16.04 15.63 15.63 0 0 0 15.63 15.63h20.85a20.85 20.85 0 1 0 41.69 0h16.22v44.93a8.96 8.96 0 1 0 2 .17v-45.1h2.62a15.63 15.63 0 0 0 15.64-15.63 57 57 0 0 0-2.29-16.04"/></svg>