<svg xmlns="http://www.w3.org/2000/svg" width="806.35" height="520.96" viewBox="0 0 806.35 520.96"><path fill="#f2f2f2" d="M771.8 133.96H124.16a22.7 22.7 0 0 0-22.69 22.69v341.62a22.6 22.6 0 0 0 6.18 15.54q.6.65 1.25 1.22a22.5 22.5 0 0 0 15.26 5.93H771.8a22.7 22.7 0 0 0 22.7-22.7 1235 1235 0 0 0 0-341.61 22.7 22.7 0 0 0-22.7-22.7"/><path fill="#fff" d="M741.8 97.96H94.16a22.7 22.7 0 0 0-22.69 22.69v341.62a22.6 22.6 0 0 0 6.18 15.54q.6.65 1.25 1.22a22.5 22.5 0 0 0 15.26 5.93H741.8a22.7 22.7 0 0 0 22.7-22.7v-341.6a22.7 22.7 0 0 0-22.7-22.7"/><path fill="#f2f2f2" d="M475.52 325.62a2.27 2.27 0 0 1-1.64-3.94l.15-.62-.06-.14a6.1 6.1 0 0 0-11.24.04c-1.84 4.43-4.18 8.86-4.75 13.54a18 18 0 0 0 .31 6.2 72 72 0 0 1-6.57-30.02 70 70 0 0 1 .43-7.78q.36-3.18 1-6.31a73 73 0 0 1 14.5-30.99 19.5 19.5 0 0 0 8.09-8.4 15 15 0 0 0 1.35-4.05c-.4.05-1.49-5.95-1.2-6.32-.54-.83-1.52-1.25-2.12-2.06-2.98-4.04-7.1-3.34-9.24 2.16-4.58 2.31-4.63 6.15-1.81 9.83 1.79 2.35 2.03 5.53 3.6 8.04l-.49.61a74 74 0 0 0-7.68 12.17 30.6 30.6 0 0 0-1.83-14.2c-1.75-4.23-5.02-7.78-7.9-11.42a6.28 6.28 0 0 0-11.2 3.08l-.01.16q.64.36 1.26.77a3.08 3.08 0 0 1-1.24 5.6l-.06.01a31 31 0 0 0 .8 4.58c-3.7 14.32 4.3 19.53 15.7 19.77l.75.38a75 75 0 0 0-4.04 19.02 71 71 0 0 0 .05 11.5l-.02-.13a18.8 18.8 0 0 0-6.42-10.87c-4.95-4.06-11.94-5.56-17.27-8.82a3.53 3.53 0 0 0-5.41 3.44l.02.14a21 21 0 0 1 2.32 1.11q.64.37 1.26.77a3.08 3.08 0 0 1-1.25 5.6l-.06.02-.13.02a31 31 0 0 0 5.64 8.82c2.32 12.5 12.26 13.69 22.9 10.05a75 75 0 0 0 5.04 14.72h18.02l.18-.6a21 21 0 0 1-4.98-.3l4-4.93.1-.1 2.03-2.51a30 30 0 0 0-.88-7.64"/><path fill="#3f3d56" d="M764.48 356.96v36.3a22.7 22.7 0 0 1-22.69 22.7H94.17a22.5 22.5 0 0 1-15.26-5.93q-.65-.58-1.25-1.22a22.6 22.6 0 0 1-6.18-15.54v-36.31c197.16-32.56 439.61-21.54 693 0"/><path fill="#fff" d="M764.48 396.96v36.3a22.7 22.7 0 0 1-22.69 22.7H94.17a22.5 22.5 0 0 1-15.26-5.93q-.65-.58-1.25-1.22a22.6 22.6 0 0 1-6.18-15.54v-36.31c181.47-24.29 428.42-16.47 693 0"/><path fill="#3f3d56" d="M764.48 425.96v36.3a22.7 22.7 0 0 1-22.69 22.7H94.17a22.5 22.5 0 0 1-15.26-5.93q-.65-.58-1.25-1.22a22.6 22.6 0 0 1-6.18-15.54v-36.31c196.35-20.4 435.58-15.56 693 0"/><path fill="#f2f2f2" d="M710.52 320.62a2.27 2.27 0 0 1-1.64-3.94l.15-.62-.06-.14a6.1 6.1 0 0 0-11.24.04c-1.84 4.43-4.18 8.86-4.75 13.54a18 18 0 0 0 .31 6.2 72 72 0 0 1-6.57-30.02 70 70 0 0 1 .43-7.78q.36-3.18 1-6.31a73 73 0 0 1 14.5-30.99 19.5 19.5 0 0 0 8.09-8.4 15 15 0 0 0 1.35-4.05c-.4.05-1.49-5.95-1.2-6.32-.54-.83-1.52-1.25-2.12-2.06-2.98-4.04-7.1-3.34-9.24 2.16-4.58 2.31-4.63 6.15-1.81 9.83 1.79 2.35 2.03 5.53 3.6 8.04l-.49.61a74 74 0 0 0-7.68 12.17 30.6 30.6 0 0 0-1.83-14.2c-1.75-4.23-5.02-7.78-7.9-11.42a6.28 6.28 0 0 0-11.2 3.08l-.01.16q.64.36 1.26.77a3.08 3.08 0 0 1-1.24 5.6l-.06.01a31 31 0 0 0 .8 4.58c-3.7 14.32 4.3 19.53 15.7 19.77l.75.38a75 75 0 0 0-4.04 19.02 71 71 0 0 0 .05 11.5l-.02-.13a18.8 18.8 0 0 0-6.42-10.87c-4.95-4.06-11.94-5.56-17.27-8.82a3.53 3.53 0 0 0-5.41 3.44l.02.14a21 21 0 0 1 2.32 1.11q.64.37 1.26.77a3.08 3.08 0 0 1-1.25 5.6l-.06.02-.13.02a31 31 0 0 0 5.64 8.82c2.32 12.5 12.26 13.69 22.9 10.05a75 75 0 0 0 5.04 14.72h18.02l.18-.6a21 21 0 0 1-4.98-.3l4-4.93.1-.1 2.03-2.51a30 30 0 0 0-.88-7.64"/><path fill="#3f3d56" d="m699.02 361.98-.01.98H633.1a11 11 0 0 1-8.05-3.49l.12-1.36c1.93-18.63 26.17-46.7 36.82-33.15s37.03 16.57 37.03 37.02"/><path fill="#3f3d56" d="m734.1 362.28-.01.68h-45.94a7.7 7.7 0 0 1-5.6-2.43q.01-.48.07-.95c1.35-12.98 21.84-35.9 25.67-23.11 9.75 32.58 25.6 13 25.8 25.8"/><path fill="#3f3d56" d="M741.8 97.96H94.16a22.7 22.7 0 0 0-22.69 22.69v341.62a22.6 22.6 0 0 0 6.18 15.54q.6.65 1.25 1.22a22.5 22.5 0 0 0 15.26 5.93H741.8a22.7 22.7 0 0 0 22.7-22.7c31.1-87.83 20.16-210.86 0-341.61a22.7 22.7 0 0 0-22.7-22.7m20.68 254.48a130.5 130.5 0 0 1-130.52 130.52H94.17a20.5 20.5 0 0 1-13.29-4.85 21 21 0 0 1-2.99-3.1 20.5 20.5 0 0 1-4.4-12.74V120.65a20.7 20.7 0 0 1 20.68-20.7H569.8c106.42 0 192.7 86.28 192.7 192.7Z"/><path fill="#3f3d56" d="M217.64 437.9v1.06H146.2a12 12 0 0 1-8.72-3.78q.04-.75.13-1.48c2.1-20.18 22.9-24.04 39.9-35.93 19.14-13.38 39.79 16.43 40.13 40.13"/><path fill="#3f3d56" d="M233.48 429.24c-.15.2 0 .5 0 .74h-49.8a8.3 8.3 0 0 1-6.07-2.63q.03-.52.09-1.03c1.46-14.07 13.36-24.63 27.81-25.05 26.95-.77 40.8 11.66 27.97 27.97m7.16-79.34v1.06H169.2a12 12 0 0 1-8.72-3.78q.04-.75.13-1.48c2.1-20.18 24.78-26.66 39.9-35.93s40.13 17.97 40.13 40.13"/><path fill="#3f3d56" d="M256.48 341.24a4 4 0 0 0 0 .74h-49.8a8.3 8.3 0 0 1-6.07-2.63q.03-.52.09-1.03c1.46-14.07 14.14-20.35 27.81-25.05 22.59-7.76 31.93 8.23 27.97 27.97"/><path fill="#3f3d56" d="M290.48 355.22a6 6 0 0 1 0 .74h-49.8a8.3 8.3 0 0 1-6.07-2.64l.09-1.03c1.46-14.07 17.72-14.68 27.81-25.04 9.35-9.6 25.93 9.31 27.97 27.97m272-115.26h20v245h-20z"/><path fill="#531047" d="M714.56 130.2c-.74-14.46-5.66-28.98-15.33-39.75-4.22-4.7-22.06-15.72-27.75-18.5 2.16-16.98 13.78-26.78 5.28-41.31C665.97 12.2 643.46 1.4 622.33 4.5a53 53 0 0 0-21.16 8.16c-7.3-6.38-17.29-10.3-27.02-11.8-30.65-4.7-63.42 9.86-80.48 35.75-2.57 3.9-2.75 9.77-1.4 16.75 5.17 26.9-9.67 53.13-35.2 63.06a4 4 0 0 0-1.32.84c-14.74 15.25-19.58 39.3-11.87 59.08 1.83 4.68 2.37 12.81 7.37 13.03 32.3 1.42 34.77 19.05 16.46 45.26-3.84 5.49 1.73 13.24 5.2 19.08 7.98 13.43 24.1 20.33 39.7 21.25 15.52.92 30.86-3.2 45.87-7.28l20-.8c17.21 2.97 35.21 2.5 51.52-3.66 17.6-6.65 32.93-20.51 38.75-38.4 2-6.1 36.24 1.56 35.73-4.87 8.52-4.35-17.24-24.4-10.79-31.47a81.3 81.3 0 0 0 20.87-58.3"/><path d="M638 234.6c-4.6 14.15-15.18 25.76-28.1 33.3a84 84 0 0 0 19.1-4.67c14.99-5.67 28.32-16.58 35.54-30.74-10.15.01-25.24-1.88-26.54 2.11m55.7-46.11a81.3 81.3 0 0 0 20.86-58.3c-.74-14.45-5.66-28.97-15.33-39.74-4.22-4.7-22.06-15.72-27.75-18.5 2.16-16.98 13.78-26.78 5.28-41.31C665.97 12.2 643.46 1.4 622.33 4.5a53 53 0 0 0-21.16 8.16c-7.3-6.38-17.29-10.3-27.02-11.8-17.68-2.7-36.07 1-51.75 9.6a78 78 0 0 1 22 .17c9.73 1.5 19.72 5.41 27.02 11.8 6.38-4.19 24.87-14.86 21.16-8.17-15.87 28.6 2.88 42.64 54.43 26.13 8.2-2.62-2.77 11.15-15.73 27.5-11.97 15.13 1.28 36.96 20.23 33.36 9.26-1.75 16.54-2.63 17.97-1.05 9.67 10.77 44.65 27.76 15.33 39.75s-6.6 42.63-20.87 58.3c-4.53 4.97 6.82 16.33 11.03 24.16 10.38-.8 29.9 2.4 29.51-2.46 8.52-4.35-17.24-24.4-10.79-31.47" opacity=".1"/><path fill="#3f3d56" d="M481.47 301.76h81.44a1 1 0 0 0 0-2h-81.44a1 1 0 0 0 0 2"/><path fill="#e6e6e6" d="M591.72 381.29c-16.5-21.96-26.05-46.52-26.36-74.52a6.04 6.04 0 0 1 3.67-7.7l56.28-19.91a6.04 6.04 0 0 1 7.7 3.67l26.37 74.52a6.04 6.04 0 0 1-3.68 7.7l-56.27 19.91a6.04 6.04 0 0 1-7.7-3.67"/><path fill="#fff" d="M588.08 357.25c-9.93-10.04-14.18-27.95-16.95-47.9a5.66 5.66 0 0 1 3.44-7.22l48.36-17.11a5.66 5.66 0 0 1 7.22 3.44l23.46 66.31a5.66 5.66 0 0 1-3.44 7.22l-29.96 10.6a25.2 25.2 0 0 1-32.13-15.34"/><path fill="#531047" d="m630.8 324.18-37.68 13.45a2.4 2.4 0 1 1-1.61-4.52l37.67-13.45a2.4 2.4 0 0 1 1.62 4.52m-33.82-1.9-8.29 2.96a2.4 2.4 0 1 1-1.6-4.53l8.28-2.95a2.4 2.4 0 1 1 1.61 4.52m40.91 21.78-37.68 13.45a2.4 2.4 0 1 1-1.61-4.52l37.68-13.45a2.4 2.4 0 0 1 1.61 4.52m-3.55-9.94-37.67 13.45a2.4 2.4 0 1 1-1.62-4.52l37.68-13.45a2.4 2.4 0 0 1 1.61 4.52"/><circle cx="568.56" cy="304.76" r="10" fill="#531047"/><path fill="#3f3d56" d="M495.64 49.76h-81.43a1 1 0 0 1 0-2h81.43a1 1 0 0 1 0 2"/><path fill="#e6e6e6" d="M308.9 85.23c7.07-26.55 20.5-49.22 42.32-66.76a6.04 6.04 0 0 1 8.33-1.87l50.42 31.96a6.04 6.04 0 0 1 1.86 8.33l-42.31 66.76a6.04 6.04 0 0 1-8.33 1.87l-50.42-31.96a6.04 6.04 0 0 1-1.87-8.33"/><path fill="#fff" d="M325.55 67.52c1.76-14.01 13.22-28.42 27.2-42.92a5.66 5.66 0 0 1 7.8-1.75L403.9 50.3a5.66 5.66 0 0 1 1.75 7.8l-37.66 59.41a5.66 5.66 0 0 1-7.8 1.75l-26.84-17.01a25.2 25.2 0 0 1-7.79-34.74"/><path fill="#531047" d="M377.94 80.69 344.1 59.36a2.4 2.4 0 1 1 2.55-4.06l33.85 21.32a2.4 2.4 0 1 1-2.56 4.07m-19.38-27.77-7.45-4.7a2.4 2.4 0 0 1 2.56-4.05l7.45 4.69a2.4 2.4 0 0 1-2.56 4.06m8.14 45.62-33.85-21.32a2.4 2.4 0 0 1 2.56-4.06l33.84 21.32a2.4 2.4 0 1 1-2.55 4.06m5.62-8.93L338.47 68.3a2.4 2.4 0 0 1 2.56-4.06l33.85 21.32a2.4 2.4 0 1 1-2.56 4.06"/><circle cx="408.56" cy="52.76" r="10" fill="#531047"/><path fill="#531047" d="M320.12 178.48H214.24a2.28 2.28 0 1 1 0-4.57h105.88a2.28 2.28 0 0 1 0 4.57"/><path fill="#f2f2f2" d="M373.72 199.35H214.24a2.28 2.28 0 1 1 0-4.56h159.48a2.28 2.28 0 0 1 0 4.56m0 16.31H214.24a2.29 2.29 0 0 0 0 4.57h159.48a2.29 2.29 0 0 0 0-4.57m0 25.44H214.24a2.28 2.28 0 1 1 0-4.57h159.48a2.28 2.28 0 0 1 0 4.57"/><path fill="#a0616a" d="m86.05 288.7 4.8-39.54-13.08-.94-2.93 41.46a6.53 6.53 0 1 0 11.2-.98"/><path fill="#e6e6e6" d="M102.84 193.64a11 11 0 0 0-11.7 6.83c-5.5 13.81-16.1 40.92-15.52 43.03.77 2.84 1.55 3.1-.52 4.14s-4.9-.78-2.06 1.03-.78 2.32.51 3.62 22.73 4.12 22.73 4.12-4.73-14.4-3.14-16.5 6.76.49 4.17-2.1-4.99-3.29-1.97-4.48 5.64-2.51 5.64-2.51l10.3-21.54a11 11 0 0 0-8.44-15.64"/><path fill="#a0616a" d="M121.63 462.44h7.14l3.4-27.54h-10.54z"/><path fill="#2f2e41" d="M121.38 469.89h21.96v-.28a8.55 8.55 0 0 0-8.55-8.55l-4.01-3.04-7.49 3.04h-1.91Z"/><path fill="#a0616a" d="m6.9 414.86 2.92 6.51 26.52-8.17-4.31-9.61z"/><path fill="#2f2e41" d="m0 417.68 8.98 20.03.26-.11a8.55 8.55 0 0 0 4.3-11.3l1.13-4.9-5.83-5.58-.79-1.75Z"/><circle cx="114.7" cy="163.25" r="13.62" fill="#a0616a"/><path fill="#2f2e41" d="m138.9 289.43-51.46-1.63s-10.89 21.07-4.22 34.22 1.39 50.41 1.39 50.41L18 406.23l5.72 13.07s14.7-.82 17.15-3.27a13.2 13.2 0 0 1 8.17-3.26c1.63 0 49.82-21.24 49.82-21.24l12.52-36.27 12.7 49.54-6.22 44.03 14.87.4s5.13-2.58 3.6-6.45-2.32-5.56 1.35-8.8 10.75-52.33 10.75-52.33l-8.41-56.64s-5.01-1.4-.78-5.23-.1-8.39-.1-8.39 3.59-5.06-.04-4.25-.21-19.34-.21-19.34"/><path fill="#e6e6e6" d="m127.4 185.88-19-1.18-3.33 5.5s-7.48-.42-5.84 2.03.68.45-1.7 2.27-5.6 2.14-4 3.61c.24.22.14.85-.19 1.78a105 105 0 0 0-4.68 55.78c1.12 5.68 1.83 9.83 1.58 10.07-.81.82-4.9 0-2.45 2.45s6.54 0 1.64 4.9-15.2 25.66-3.27 26.96 56.36-1.63 55.54-4.9l-5.72-22.87-4.65-65.8-4.67-12.58Z"/><path fill="#a0616a" d="m128.39 301.3-7.94-39.02-12.7 3.24 10.32 40.26a6.53 6.53 0 1 0 10.32-4.47"/><path fill="#e6e6e6" d="M114.28 205.81a11 11 0 0 0-8.94 10.18c-.85 14.84-2.34 43.91-1.13 45.73 1.64 2.45 2.45 2.45.82 4.09s-4.9.81-1.63 1.63 0 2.45 1.63 3.27 22.87-3.27 22.87-3.27-9.04-12.16-8.2-14.66 6.57-1.67 3.3-3.3-5.78-1.56-3.3-3.64 4.57-4.17 4.57-4.17l2.95-23.69a11 11 0 0 0-12.94-12.17"/><path fill="#2f2e41" d="M118.8 176.37a28 28 0 0 1-5.54 3.3 9.6 9.6 0 0 1-6.31.53 7.2 7.2 0 0 1-4.6-4.35c-.74-2.05-7.01-4.45-5.83-6.28a10 10 0 0 0 1.47-2.4 1.8 1.8 0 0 0-.97-2.34 1.7 1.7 0 0 0-1.82 1.05 5 5 0 0 0-.29 2.24 3.65 3.65 0 0 1-1-4.26l-2.12-1.06c1.83-.71 8.8-3.6 7.24-4.8-1.3-1.03-5.51-4.34-5.04-5.54a10 10 0 0 1 2.26-3.08c1.83-1.91 3.82-3.91 6.4-4.45 2.22-.45 4.48.25 6.65.86s4.52 1.16 6.64.4 3.74-3.34 2.67-5.33a4.3 4.3 0 0 1 3.89 2.45l.36-3.35a11 11 0 0 1 4.38 2.34c1.16 1.2 1.66 3.23.65 4.56-1.12 1.48-3.63 1.65-4.3 3.38-.57 1.52.69 3.05 1.74 4.3s1.97 3.16.87 4.35c-.92 1-2.52.68-3.82 1.01-1.97.52-3.18 2.59-3.43 4.6a25 25 0 0 0 .45 6.05 8.8 8.8 0 0 1-.9 5.9"/><path fill="#3f3d56" d="M127.48 167.96c-1.39 0-2.93-.54-2.93-1.94v-8.84c0-1.4 1.54-1.22 2.93-1.22 3.47-2.33 6.42 1.06 6.53 5.64-.04 4.94-2.75 8.1-6.53 6.36"/><path fill="#531047" d="M125.55 154.66h-4.45c-1.49 0-7.32-.1-7.62 1.3-7.84-1.4-10.92-1.43-15.48 1.15a2.04 2.04 0 1 0 0 4.08l14.48-.23 5.53 4.5a3.1 3.1 0 0 0 3.1 3.08h4.44a3.1 3.1 0 0 0 3.08-3.08c-1.42-2.75-1.66-5.35 0-7.71a3.1 3.1 0 0 0-3.08-3.1"/></svg>