<svg xmlns="http://www.w3.org/2000/svg" width="1129" height="663" viewBox="0 0 1129 663"><title>Focus on What Matters</title><circle cx="321" cy="321" r="321" fill="#f2f2f2"/><ellipse cx="559" cy="635.5" fill="#3f3d56" rx="514" ry="27.5"/><ellipse cx="558" cy="627" opacity=".2" rx="460" ry="22"/><path fill="#3f3d56" d="M131 152.5h840v50H131z"/><path fill="#3f3d56" d="M131 608.83a21.67 21.67 0 0 0 21.67 21.67h796.66A21.67 21.67 0 0 0 971 608.83V177.5H131ZM949.33 117.5H152.67A21.67 21.67 0 0 0 131 139.17v38.33h840v-38.33a21.67 21.67 0 0 0-21.67-21.67"/><path d="M949.33 117.5H152.67A21.67 21.67 0 0 0 131 139.17v38.33h840v-38.33a21.67 21.67 0 0 0-21.67-21.67" opacity=".2"/><circle cx="181" cy="147.5" r="13" fill="#3f3d56"/><circle cx="217" cy="147.5" r="13" fill="#3f3d56"/><circle cx="253" cy="147.5" r="13" fill="#3f3d56"/><rect width="337" height="386" x="168" y="213.5" fill="#606060" rx="5.34"/><rect width="284" height="22" x="603" y="272.5" fill="#2e8555" rx="5.48"/><rect width="416" height="15" x="537" y="352.5" fill="#2e8555" rx="5.48"/><rect width="416" height="15" x="537" y="396.5" fill="#2e8555" rx="5.48"/><rect width="416" height="15" x="537" y="440.5" fill="#2e8555" rx="5.48"/><rect width="416" height="15" x="537" y="484.5" fill="#2e8555" rx="5.48"/><rect width="88" height="26" x="865" y="552.5" fill="#3ecc5f" rx="7.03"/><path fill="#3f3d56" d="M1053.1 506.12a30 30 0 0 0 3.99-15.27c0-13.8-8.55-24.98-19.09-24.98s-19.08 11.18-19.08 24.98a30 30 0 0 0 3.98 15.27 31.3 31.3 0 0 0 0 30.53 31.3 31.3 0 0 0 0 30.53 31.3 31.3 0 0 0 0 30.53 30 30 0 0 0-3.98 15.27c0 13.8 8.54 24.98 19.08 24.98s19.09-11.19 19.09-24.98a30 30 0 0 0-3.99-15.27 31.3 31.3 0 0 0 0-30.53 31.3 31.3 0 0 0 0-30.53 31.3 31.3 0 0 0 0-30.53"/><ellipse cx="1038" cy="460.32" fill="#3f3d56" rx="19.08" ry="24.98"/><ellipse cx="1038" cy="429.79" fill="#3f3d56" rx="19.08" ry="24.98"/><path fill="#3ecc5f" fill-rule="evenodd" d="M1109.44 220.84a92 92 0 0 0 7.1-10.46l-50.14-8.23 54.23.4a91.6 91.6 0 0 0 1.75-72.42l-72.76 37.74 67.1-49.32a91.41 91.41 0 1 0-150.97 102.3 92 92 0 0 0-10.42 16.66l65.08 33.82-69.4-23.3a91.5 91.5 0 0 0 14.74 85.84 91.4 91.4 0 1 0 143.69 0 91.4 91.4 0 0 0 0-113.03"/><path d="M946.19 277.36a91 91 0 0 0 19.56 56.51 91.4 91.4 0 1 0 143.69 0c12.25-15.55-163.25-66.77-163.25-56.51" opacity=".1"/><path fill="#fff" fill-rule="evenodd" d="M330.12 342.94h111.47v45.12H330.12Z"/><path fill="#3ecc5f" fill-rule="evenodd" d="M229.26 490.24a26.5 26.5 0 0 1-22.96-13.27 26.51 26.51 0 0 0 22.96 39.81h26.54v-26.54Z"/><path fill="#3ecc5f" fill-rule="evenodd" d="m348.67 350.07 92.92-5.8v-13.28a26.54 26.54 0 0 0-26.54-26.54H295.62l-3.32-5.75a3.83 3.83 0 0 0-6.64 0l-3.31 5.75-3.32-5.75a3.83 3.83 0 0 0-6.64 0l-3.32 5.75-3.31-5.75a3.83 3.83 0 0 0-6.64 0l-3.32 5.75h-.08l-5.5-5.49a3.83 3.83 0 0 0-6.4 1.72l-1.82 6.77-6.9-1.85a3.83 3.83 0 0 0-4.68 4.7l1.84 6.89-6.77 1.81a3.83 3.83 0 0 0-1.72 6.41l5.5 5.5v.08l-5.75 3.32a3.83 3.83 0 0 0 0 6.64l5.74 3.31-5.74 3.32a3.83 3.83 0 0 0 0 6.64l5.74 3.31-5.74 3.32a3.83 3.83 0 0 0 0 6.64l5.74 3.31-5.74 3.32a3.83 3.83 0 0 0 0 6.64l5.74 3.32-5.74 3.31a3.83 3.83 0 0 0 0 6.64l5.74 3.32-5.74 3.31a3.83 3.83 0 0 0 0 6.64l5.74 3.32-5.74 3.31a3.83 3.83 0 0 0 0 6.64l5.74 3.32-5.74 3.32a3.83 3.83 0 0 0 0 6.63l5.74 3.32-5.74 3.32a3.83 3.83 0 0 0 0 6.63l5.74 3.32-5.74 3.32a3.83 3.83 0 0 0 0 6.63l5.74 3.32-5.74 3.32a3.83 3.83 0 0 0 0 6.63l5.74 3.32-5.74 3.32a3.83 3.83 0 0 0 0 6.63l5.74 3.32a26.54 26.54 0 0 0 26.54 26.54h159.25a26.54 26.54 0 0 0 26.54-26.54V384.08l-92.92-5.81a14.13 14.13 0 0 1 0-28.2"/><path fill="#3ecc5f" fill-rule="evenodd" d="M388.51 516.78h39.81V463.7h-39.8Z"/><path fill="#44d860" fill-rule="evenodd" d="M454.86 483.6a7 7 0 0 0-.84.1l-.16-.6a6.63 6.63 0 1 0-6.55-11.39l-.45-.45a6.62 6.62 0 1 0-11.4-6.56l-.59-.15a6.64 6.64 0 1 0-13.1 0l-.59.15a6.63 6.63 0 1 0-11.4 6.56 26.53 26.53 0 1 0 44.24 25.53 6.62 6.62 0 1 0 .84-13.18"/><path fill="#3ecc5f" fill-rule="evenodd" d="M401.78 437.16h39.81v-26.54h-39.8Z"/><path fill="#44d860" fill-rule="evenodd" d="M454.86 427.2a3.32 3.32 0 0 0 0-6.63l-.42.04-.08-.3a3.32 3.32 0 0 0-1.27-6.38 3.3 3.3 0 0 0-2 .7l-.23-.23a3.3 3.3 0 0 0 .67-1.98 3.32 3.32 0 0 0-6.37-1.3 13.27 13.27 0 1 0 0 25.54 3.32 3.32 0 0 0 6.37-1.3 3.3 3.3 0 0 0-.67-1.98l.23-.23a3.3 3.3 0 0 0 2 .7 3.32 3.32 0 0 0 1.27-6.39l.08-.3z"/><path fill-rule="evenodd" d="M282.35 347.58a3.3 3.3 0 0 1-3.32-3.32 9.95 9.95 0 1 0-19.9 0 3.32 3.32 0 1 1-6.64 0 16.59 16.59 0 1 1 33.17 0 3.3 3.3 0 0 1-3.31 3.32"/><path fill="#ffff50" fill-rule="evenodd" d="M335.43 516.78h79.62a26.54 26.54 0 0 0 26.54-26.54v-92.9h-79.62a26.54 26.54 0 0 0-26.54 26.55Z"/><path fill-rule="evenodd" d="M421.71 438.49h-66.4a1.33 1.33 0 0 1 0-2.66h66.4a1.33 1.33 0 0 1 0 2.66m0 26.54h-66.4a1.33 1.33 0 1 1 0-2.66h66.4a1.33 1.33 0 0 1 0 2.66m0 26.54h-66.4a1.33 1.33 0 1 1 0-2.66h66.4a1.33 1.33 0 0 1 0 2.66m0-66.1h-66.4a1.33 1.33 0 0 1 0-2.66h66.4a1.33 1.33 0 0 1 0 2.65m0 26.3h-66.4a1.33 1.33 0 0 1 0-2.66h66.4a1.33 1.33 0 0 1 0 2.66m0 26.54h-66.4a1.33 1.33 0 0 1 0-2.66h66.4a1.33 1.33 0 0 1 0 2.66m19.88-122.6-.04-.02c-4.1.14-6.04 4.25-7.75 7.86-1.79 3.79-3.17 6.25-5.44 6.17-2.5-.09-3.94-2.92-5.45-5.92-1.75-3.44-3.74-7.34-7.92-7.2-4.04.14-5.99 3.71-7.7 6.86-1.83 3.35-3.07 5.4-5.47 5.3-2.56-.1-3.92-2.4-5.5-5.06-1.74-2.97-3.77-6.3-7.87-6.19-3.97.14-5.92 3.16-7.65 5.84-1.82 2.83-3.1 4.55-5.52 4.45-2.62-.1-3.97-2-5.54-4.22-1.76-2.49-3.74-5.3-7.82-5.16-3.89.13-5.84 2.61-7.56 4.8-1.64 2.07-2.91 3.72-5.61 3.61a1.33 1.33 0 1 0-.1 2.66c4 .13 6.03-2.4 7.8-4.63 1.56-1.99 2.9-3.7 5.56-3.79 2.55-.1 3.75 1.48 5.57 4.04 1.72 2.44 3.67 5.2 7.6 5.34 4.12.14 6.1-2.94 7.85-5.66 1.57-2.44 2.93-4.54 5.51-4.63 2.38-.09 3.68 1.8 5.5 4.89 1.72 2.91 3.67 6.22 7.68 6.36 4.15.15 6.15-3.47 7.9-6.68 1.5-2.77 2.94-5.39 5.46-5.48 2.38-.05 3.62 2.12 5.46 5.75 1.71 3.39 3.66 7.23 7.73 7.37h.22c4.07 0 6-4.07 7.7-7.68 1.52-3.2 2.95-6.21 5.4-6.33Z"/><path fill="#3ecc5f" fill-rule="evenodd" d="M308.89 516.78h53.08V463.7h-53.08Z"/><path fill="#44d860" fill-rule="evenodd" d="M388.51 483.6a7 7 0 0 0-.85.1l-.15-.6a6.63 6.63 0 1 0-6.56-11.39l-.44-.45a6.62 6.62 0 1 0-11.4-6.56l-.59-.15a6.64 6.64 0 1 0-13.1 0l-.6.15a6.63 6.63 0 1 0-11.39 6.56 26.53 26.53 0 1 0 44.23 25.53 6.62 6.62 0 1 0 .85-13.18"/><path fill="#3ecc5f" fill-rule="evenodd" d="M308.89 437.16h53.08v-26.54h-53.08Z"/><path fill="#44d860" fill-rule="evenodd" d="M375.24 427.2a3.32 3.32 0 1 0 0-6.63l-.42.04-.08-.3a3.32 3.32 0 0 0-1.28-6.38 3.3 3.3 0 0 0-2 .7q-.1-.12-.22-.23a3.3 3.3 0 0 0 .67-1.98 3.32 3.32 0 0 0-6.37-1.3 13.27 13.27 0 1 0 0 25.54 3.32 3.32 0 0 0 6.37-1.3 3.3 3.3 0 0 0-.67-1.98l.22-.23a3.3 3.3 0 0 0 2 .7 3.32 3.32 0 0 0 1.28-6.39l.08-.3z"/><path fill-rule="evenodd" d="M388.51 329.33a4 4 0 0 1-.65-.06 3 3 0 0 1-.62-.19 4 4 0 0 1-.57-.3 5 5 0 0 1-.5-.41 4 4 0 0 1-.42-.5 3.3 3.3 0 0 1-.56-1.85 4 4 0 0 1 .07-.65 4 4 0 0 1 .18-.63 4 4 0 0 1 .31-.57 3 3 0 0 1 .92-.91 4 4 0 0 1 .57-.3 3 3 0 0 1 .62-.2 3 3 0 0 1 1.3 0 3 3 0 0 1 1.2.5 5 5 0 0 1 .5.4 5 5 0 0 1 .41.51 3 3 0 0 1 .3.57 4 4 0 0 1 .26 1.28 3.4 3.4 0 0 1-.97 2.35 5 5 0 0 1-.5.4 3.3 3.3 0 0 1-1.85.56m26.54-1.66a3.4 3.4 0 0 1-2.35-.96 5 5 0 0 1-.4-.5 3.3 3.3 0 0 1-.57-1.85 3.4 3.4 0 0 1 .97-2.35 5 5 0 0 1 .5-.41 4 4 0 0 1 .58-.3 3 3 0 0 1 .62-.2 3 3 0 0 1 1.3 0 3 3 0 0 1 1.2.5 5 5 0 0 1 .5.4 3.4 3.4 0 0 1 .97 2.36 4 4 0 0 1-.07.65 3 3 0 0 1-.18.62 5 5 0 0 1-.3.57 5 5 0 0 1-.42.5 5 5 0 0 1-.5.42 3.3 3.3 0 0 1-1.85.55"/></svg>