<svg xmlns="http://www.w3.org/2000/svg" width="821.68" height="579.01" viewBox="0 0 821.68 579.01"><path fill="#f2f2f2" d="M182.08 58h-52.4a19 19 0 0 0-19 19v56.81q-1-.06-2-.18A67 67 0 1 1 181.78 56z"/><path fill="#3f3d56" d="M800.68 56h-671a21 21 0 0 0-21 21v354a21 21 0 0 0 21 21h671a21 21 0 0 0 21-21V77a21 21 0 0 0-21-21m19 375a19 19 0 0 1-19 19h-671a19 19 0 0 1-19-19V77a19 19 0 0 1 19-19h671a19 19 0 0 1 19 19Z"/><path fill="#3f3d56" d="M767.68 113.37h-605a1 1 0 0 1 0-2h605a1 1 0 0 1 0 2"/><path fill="#3f3d56" d="M333.68 409a1 1 0 0 1-1-1V79a1 1 0 1 1 2 0v329a1 1 0 0 1-1 1m151 0a1 1 0 0 1-1-1V79a1 1 0 1 1 2 0v329a1 1 0 0 1-1 1m151 0a1 1 0 0 1-1-1V79a1 1 0 1 1 2 0v329a1 1 0 0 1-1 1"/><path fill="#531047" d="M236.6 216.59h-36.55a4.5 4.5 0 0 1-4.5-4.5v-43.12a4.5 4.5 0 0 1 4.5-4.5h36.54a4.5 4.5 0 0 1 4.5 4.5v43.12a4.5 4.5 0 0 1-4.5 4.5m52.01 123h-36.55a4.5 4.5 0 0 1-4.5-4.5v-43.12a4.5 4.5 0 0 1 4.5-4.5h36.54a4.5 4.5 0 0 1 4.5 4.5v43.12a4.5 4.5 0 0 1-4.5 4.5m118.01-97h-36.55a4.5 4.5 0 0 1-4.5-4.5v-43.12a4.5 4.5 0 0 1 4.5-4.5h36.54a4.5 4.5 0 0 1 4.5 4.5v43.12a4.5 4.5 0 0 1-4.5 4.5m153.01-47h-36.55a4.5 4.5 0 0 1-4.5-4.5v-43.12a4.5 4.5 0 0 1 4.5-4.5h36.54a4.5 4.5 0 0 1 4.5 4.5v43.12a4.5 4.5 0 0 1-4.5 4.5m141.01 0h-36.55a4.5 4.5 0 0 1-4.5-4.5v-43.12a4.5 4.5 0 0 1 4.5-4.5h36.54a4.5 4.5 0 0 1 4.5 4.5v43.12a4.5 4.5 0 0 1-4.5 4.5"/><path fill="#e6e6e6" d="M765.6 207.59h-36.55a4.5 4.5 0 0 1-4.5-4.5v-43.12a4.5 4.5 0 0 1 4.5-4.5h36.54a4.5 4.5 0 0 1 4.5 4.5v43.12a4.5 4.5 0 0 1-4.5 4.5m-28.99 77h-36.55a4.5 4.5 0 0 1-4.5-4.5v-43.12a4.5 4.5 0 0 1 4.5-4.5h36.54a4.5 4.5 0 0 1 4.5 4.5v43.12a4.5 4.5 0 0 1-4.5 4.5"/><path fill="#ff6584" d="M612.6 268.59h-36.55a4.5 4.5 0 0 1-4.5-4.5v-43.12a4.5 4.5 0 0 1 4.5-4.5h36.54a4.5 4.5 0 0 1 4.5 4.5v43.12a4.5 4.5 0 0 1-4.5 4.5"/><path fill="#e6e6e6" d="M541.6 284.59h-36.55a4.5 4.5 0 0 1-4.5-4.5v-43.12a4.5 4.5 0 0 1 4.5-4.5h36.54a4.5 4.5 0 0 1 4.5 4.5v43.12a4.5 4.5 0 0 1-4.5 4.5m-152.99 68h-36.55a4.5 4.5 0 0 1-4.5-4.5v-43.12a4.5 4.5 0 0 1 4.5-4.5h36.54a4.5 4.5 0 0 1 4.5 4.5v43.12a4.5 4.5 0 0 1-4.5 4.5"/><path fill="#ff6584" d="M203.6 295.59h-36.55a4.5 4.5 0 0 1-4.5-4.5v-43.12a4.5 4.5 0 0 1 4.5-4.5h36.54a4.5 4.5 0 0 1 4.5 4.5v43.12a4.5 4.5 0 0 1-4.5 4.5"/><path fill="#e6e6e6" d="M306.6 216.59h-36.55a4.5 4.5 0 0 1-4.5-4.5v-43.12a4.5 4.5 0 0 1 4.5-4.5h36.54a4.5 4.5 0 0 1 4.5 4.5v43.12a4.5 4.5 0 0 1-4.5 4.5"/><path fill="#ccc" d="M276.68 97h-57a4 4 0 0 1 0-8h57a4 4 0 0 1 0 8m161 0h-57a4 4 0 0 1 0-8h57a4 4 0 0 1 0 8m151 0h-57a4 4 0 0 1 0-8h57a4 4 0 0 1 0 8m141 0h-57a4 4 0 0 1 0-8h57a4 4 0 0 1 0 8"/><path fill="#ffb8b8" d="M149 389.9a10.06 10.06 0 0 1-8.7-12.74l-25.62-23.86 13.55-3.44 25.2 20.45a10.11 10.11 0 0 1-4.42 19.58m35.39 176.36h12.26l5.84-47.28h-18.1z"/><path fill="#2f2e41" d="M220.3 577.64h-38.52v-14.89h23.64a14.9 14.9 0 0 1 14.89 14.89"/><path fill="#ffb8b8" d="m100.35 557.4 11.84 3.15 17.8-44.19-17.48-4.65z"/><path fill="#2f2e41" d="m132.11 577.64-37.23-9.91 3.83-14.39 22.85 6.08a14.9 14.9 0 0 1 10.55 18.22m67.85-20.34h-18.7a4.73 4.73 0 0 1-4.73-4.3l-11.36-117.92a3.75 3.75 0 0 0-7.32-.72l-32.97 110.2a4.74 4.74 0 0 1-5.7 3.25l-17.4-4.36a4.75 4.75 0 0 1-3.45-5.78c.28-1.11 28.4-111.03 28.65-112.16 6.38-46.97 14-59.55 18.1-66.32l.93-1.56c.35-.6 2.5-6.64 3.88-10.56a4.8 4.8 0 0 1 2.44-2.98c17.2-8.8 37.34-2.7 43.1-.63a4.7 4.7 0 0 1 2.34 1.82c17.29 26.07 8.8 177.49 6.93 207.58a4.75 4.75 0 0 1-4.74 4.44"/><circle cx="151.68" cy="234.02" r="24.56" fill="#ffb8b8"/><path fill="#ccc" d="m149.08 351.84-.17-.17c-.34-.32-33.06-32.38-28.83-62.03 1.82-12.68 12.08-20.78 29.67-23.43a27.1 27.1 0 0 1 30 19.12l17.4 59.49Z"/><path fill="#ccc" d="m132.33 374.64-23.32-23.17a13.1 13.1 0 0 1-3.48-12.4l11.3-45.91a10.35 10.35 0 0 1 13.17-7.4 10.4 10.4 0 0 1 6.81 12.8l-11.88 40.39 19.22 20.64Z"/><path fill="#ffb8b8" d="M257.4 295.56a10.06 10.06 0 0 1-14.88 4.03l-31.13 16.14 1.38-13.71 27.6-17.08a10.11 10.11 0 0 1 17.03 10.62"/><path fill="#ccc" d="m239.12 305.76-30.35 13.12a12.8 12.8 0 0 1-12.47-1.34l-38.6-27.65a10.36 10.36 0 0 1-1.96-14.99 10.4 10.4 0 0 1 14.4-1.56l33.1 26.04 26.3-10.18Z"/><path fill="#2f2e41" d="M155.76 241.9c3.03-3.8 8.69-4 12.85-6.51 5.45-3.28 7.7-10.61 5.95-16.73s-6.94-10.88-12.88-13.16-12.55-2.3-18.82-1.2c-9.33 1.64-18.51 6-24.2 13.57s-7.14 18.66-1.98 26.6c2.37 3.66 6.02 6.68 6.97 10.93 1.24 5.58-2.67 10.96-6.86 14.84-4.78 4.43-10.26 8.14-14.45 13.13s-6.97 11.8-5.06 18.03c1.6 5.21 6.25 9.06 11.36 10.98s10.67 2.2 16.12 2.31c5.3.1 10.92-.02 15.39-2.88 4.77-3.06 7.33-8.86 7.51-14.53s-1.7-11.22-4.24-16.3c-1.51-3.02-3.27-5.94-4.28-9.17s-1.18-6.9.43-9.87c1.7-3.12 5.12-5 8.6-5.69l.58-.1a7.4 7.4 0 0 0 6.33-8.62c-.4-2.22-.36-4.34.68-5.64"/><path fill="#a0616a" d="M483.23 567.3h-12.26l-5.83-47.29h18.09z"/><path fill="#2f2e41" d="M462.21 563.8h23.65v14.88h-38.53a14.9 14.9 0 0 1 14.88-14.88"/><path fill="#a0616a" d="m572.18 553.41-11.15 5.1-24.95-40.59 16.46-7.52z"/><path fill="#2f2e41" d="m551.61 558.96 21.5-9.82 6.2 13.54-35.05 16a14.9 14.9 0 0 1 7.35-19.72"/><path fill="#a0616a" d="M536.48 407.86a10.06 10.06 0 0 0 .8-15.4l14.41-32.7-18.3 3.1-10.88 30.58a10.11 10.11 0 0 0 13.97 14.42"/><path fill="#2f2e41" d="M482.45 554.83h-11.71a4.5 4.5 0 0 1-4.5-4.17l-6.38-170.56a4.5 4.5 0 0 1 4.93-4.8l67.73 7.19a4.5 4.5 0 0 1 4.06 4.4l1.42 75.23a4 4 0 0 0 .24 1.19l27.78 72.05a4.5 4.5 0 0 1-2.64 5.84l-11.87 4.38a4.5 4.5 0 0 1-5.56-2.17l-34.13-66.37a5 5 0 0 1-.4-1.14l-5.84-28.1a3.5 3.5 0 0 0-6.9.32l-11.76 102.72a4.5 4.5 0 0 1-4.47 4"/><circle cx="488.28" cy="222.18" r="24.56" fill="#a0616a"/><path fill="#531047" d="M505.12 395.7a87.7 87.7 0 0 1-46.87-14.2l-.24-.17.03-.29 9.4-109.41a15.4 15.4 0 0 1 14.59-14.07c12.18-.56 28.53.15 37.29 6.67 13.23 9.86 19.6 24.7 17.5 40.71-4.39 33.22.57 78.03 1.15 83.03l.05.36-.33.15a77 77 0 0 1-32.57 7.21"/><path fill="#531047" d="M537.86 388.16a5 5 0 0 1-3.68-1.62l-5.37-5.87a5 5 0 0 1-1.11-4.8l12.25-41.45-18.64-39.15a8.8 8.8 0 0 1-.6-5.88 8.8 8.8 0 0 1 16.3-2.08l25.3 41.04a12 12 0 0 1 .72 11.2l-20.6 45.66a5 5 0 0 1-3.77 2.88 5 5 0 0 1-.8.07"/><path fill="#a0616a" d="M364.74 308.95a10.06 10.06 0 0 0 15-3.58l35.43 4.6-8.14-16.69-32.4-1.8a10.11 10.11 0 0 0-9.9 17.47"/><path fill="#531047" d="M442.85 318.07a13 13 0 0 1-1.85-.13l-55.75-7.73a5.5 5.5 0 0 1-4.25-3.11 6 6 0 0 1-.31-.83 5.6 5.6 0 0 1 .57-4.44l4.61-7.64a5.6 5.6 0 0 1 4.76-2.69l48.6.06 36.3-32.52a10 10 0 0 1 6.1-2.5 9.83 9.83 0 0 1 7.38 16.81l-36.22 40.28a13.4 13.4 0 0 1-9.94 4.44"/><path fill="#2f2e41" d="M491.07 244.03c2.25-5.2 4.15-12.11-.16-15.79-2.5-2.13-6.1-2.13-9.37-2.4-9.21-.74-18.7-4.98-23.2-13.06s-2-20.08 6.5-23.73c5.73-2.45 12.3-.78 18.3.92l18 5.1c5.35 1.52 10.97 3.2 14.82 7.2 6.15 6.4 5.69 17.22.8 24.62s-12.22 15.14-20.63 17.95Z"/><path fill="#3f3d56" d="M739.48 579.01H1.2a1.2 1.2 0 1 1 0-2.38h738.3a1.2 1.2 0 1 1 0 2.38"/></svg>