<svg xmlns="http://www.w3.org/2000/svg" width="885.87" height="622.8" viewBox="0 0 885.87 622.8"><title>through_the_park</title><path fill="#3f3d56" d="M461.6 348.37h-61.18v1.97h9.54v18.75h1.97v-18.75h37.17v18.75h1.97v-18.75h10.53zm22.7-48.36h-15.79v15.79h7.32v53.21h1.97V315.8h6.5zm-83.76 42.45h61.19v1.97h-61.19zm0-4.93h61.19v1.97h-61.19zm0-4.93h61.19v1.97h-61.19z"/><path fill="#3f3d56" d="M618.51 374.78h-1.97c0-93.6-76.15-169.74-169.74-169.74S277.06 281.2 277.06 374.78h-1.98c0-94.68 77.04-171.71 171.72-171.71s171.7 77.03 171.7 171.71"/><circle cx="161.35" cy="161.35" r="161.35" fill="#531047"/><path d="M281.38 53.58A161.36 161.36 0 0 1 12.52 224.35 161.37 161.37 0 1 0 281.38 53.58" opacity=".2"/><path fill="#3f3d56" d="M161.79 161.35h.45l7.98 457.46h-16.85z"/><path fill="#3f3d56" d="m187.46 403.47 3.72 7.06-26.67 14.04-3.72-7.06z"/><circle cx="755.28" cy="229.81" r="130.59" fill="#531047"/><path d="M852.42 142.58a130.6 130.6 0 0 1-217.6 138.22 130.6 130.6 0 1 0 217.6-138.22" opacity=".2"/><path fill="#3f3d56" d="M755.64 229.81h.35l6.46 370.25h-13.63z"/><path fill="#3f3d56" d="m776.4 425.77 3.01 5.71-21.59 11.37-3-5.72z"/><circle cx="369.91" cy="321.7" r="20.56" fill="#531047"/><path d="M385.2 307.97a20.56 20.56 0 0 1-34.26 21.76 20.56 20.56 0 1 0 34.26-21.76" opacity=".2"/><path fill="#3f3d56" d="M369.96 321.7h.06l1.02 58.29h-2.15z"/><path fill="#3f3d56" d="m373.24 352.55.47.9-3.4 1.8-.47-.9z"/><circle cx="559.88" cy="255.44" r="52.63" fill="#531047"/><path d="M599.03 220.29a52.64 52.64 0 0 1-87.7 55.7 52.64 52.64 0 1 0 87.7-55.7" opacity=".2"/><path fill="#3f3d56" d="M560.02 255.44h.15l2.6 149.22h-5.49z"/><path fill="#3f3d56" d="m568.4 334.41 1.2 2.3-8.7 4.58-1.2-2.3zM197.52 596.04s.68-14.28 14.66-12.62"/><circle cx="193.58" cy="575.46" r="6.99" fill="#531047"/><path fill="#3f3d56" d="M192.44 587.23h1.97v13.82h-1.97zm54.43-23.76s.68-14.28 14.65-12.62"/><circle cx="242.92" cy="542.89" r="6.99" fill="#531047"/><path fill="#3f3d56" d="M241.78 554.66h1.97v13.82h-1.97zM395.6 452.99s.55-11.34 11.64-10.03"/><circle cx="392.47" cy="436.64" r="5.55" fill="#531047"/><path fill="#3f3d56" d="M391.57 445.99h1.57v10.97h-1.57zm221.14-28.53s.55-11.34 11.64-10.02"/><circle cx="609.58" cy="401.11" r="5.55" fill="#531047"/><path fill="#3f3d56" d="M608.68 410.47h1.57v10.97h-1.57zM405.47 482.6s.54-11.35 11.64-10.03"/><circle cx="402.34" cy="466.25" r="5.55" fill="#531047"/><path fill="#3f3d56" d="M401.43 475.6H403v10.97h-1.57zm-19.64 28.7s.54-11.34 11.64-10.02"/><circle cx="378.65" cy="487.96" r="5.55" fill="#531047"/><path fill="#3f3d56" d="M377.75 497.31h1.57v10.97h-1.57zm268.52-61.1s.54-11.34 11.64-10.02"/><circle cx="643.13" cy="419.86" r="5.55" fill="#531047"/><path fill="#3f3d56" d="M642.23 429.22h1.57v10.97h-1.57zm-315.71 31.66s.55-11.34 11.64-10.02"/><circle cx="323.39" cy="444.54" r="5.55" fill="#531047"/><path fill="#3f3d56" d="M322.49 453.89h1.57v10.97h-1.57zm260.61-49.26s.55-11.34 11.65-10.02"/><circle cx="579.97" cy="388.28" r="5.55" fill="#531047"/><path fill="#3f3d56" d="M579.07 397.64h1.57v10.97h-1.57zM111.67 599s.68-14.28 14.65-12.62"/><circle cx="107.72" cy="578.42" r="6.99" fill="#531047"/><path fill="#3f3d56" d="M106.58 590.19h1.97v13.82h-1.97zm685.03 4.86s.68-14.28 14.66-12.62"/><circle cx="787.67" cy="574.47" r="6.99" fill="#531047"/><path fill="#3f3d56" d="M786.53 586.24h1.97v13.82h-1.97zm-52.15-24.74s.68-14.28 14.65-12.62"/><circle cx="730.43" cy="540.92" r="6.99" fill="#531047"/><path fill="#3f3d56" d="M729.29 552.69h1.97v13.82h-1.97zm-2.81 59.14s.68-14.28 14.65-12.62"/><circle cx="722.53" cy="591.25" r="6.99" fill="#531047"/><path fill="#3f3d56" d="M721.4 603.02h1.97v13.82h-1.97z"/><path fill="#e6e6e6" d="M123.03 622.48s310.86-81.9 307.9-165.79C425.5 433.5 388 427.58 388 427.58s-88.82-11.84-40.46-40.46 180.6-21.71 180.6-21.71-136.2 21.7-76 33.55c48.36 2.96 110.53 15.79 110.53 15.79S689 441.4 706.75 506.53s2.97 115.46 2.97 115.46Z"/><path fill="#fff" d="m461.6 622.8-1.16-1.62q2.47-1.77 4.86-3.51l1.18 1.62zm14.52-10.67-1.2-1.6c3.22-2.44 6.4-4.9 9.45-7.31l1.24 1.57a576 576 0 0 1-9.5 7.34m18.82-14.9-1.28-1.54q4.71-3.91 9.1-7.76l1.31 1.5c-2.91 2.57-5.99 5.2-9.13 7.8m18.03-15.87-1.37-1.46q4.5-4.22 8.56-8.33l1.42 1.4c-2.7 2.75-5.6 5.57-8.6 8.4m16.86-17.14-1.49-1.33a204 204 0 0 0 7.71-9.1l1.57 1.25c-2.4 3-5.02 6.1-7.79 9.18m14.95-18.87-1.65-1.12a122 122 0 0 0 6.24-10.11l1.75.96a126 126 0 0 1-6.34 10.27m11.5-21.21-1.86-.73a69 69 0 0 0 3.4-11.29l1.96.4a71 71 0 0 1-3.5 11.62m2.67-23.7a47 47 0 0 0-1.6-11.5l1.93-.52a49 49 0 0 1 1.67 12Zm-5.98-22.3a60 60 0 0 0-6.66-9.66l1.54-1.29a62 62 0 0 1 6.88 9.99Zm-14.92-18.1a108 108 0 0 0-9.32-7.35l1.15-1.63a110 110 0 0 1 9.5 7.48Zm-19.35-13.79c-3.27-1.92-6.8-3.84-10.48-5.7l.9-1.79c3.72 1.88 7.29 3.82 10.6 5.77Zm-21.3-10.81q-5.24-2.33-11.02-4.63l.74-1.86c3.86 1.54 7.6 3.1 11.1 4.66Zm-22.23-8.88c-3.56-1.3-7.37-2.62-11.32-3.94l.63-1.9c3.97 1.33 7.8 2.66 11.37 3.96Zm-22.73-7.65c-3.49-1.1-7.24-2.25-11.47-3.54l.58-1.91c4.24 1.28 8 2.44 11.49 3.54Zm-22.98-6.99q-6.08-1.81-11.51-3.48l.58-1.91q5.43 1.67 11.5 3.47Zm-22.98-7.19a95 95 0 0 1-11.27-4.53l.9-1.79a93 93 0 0 0 11.02 4.43Zm-15.1-13.1-1.43-1.41c1.82-1.85 5.43-3.67 11.02-5.54l.64 1.9q-7.85 2.63-10.24 5.04m21.67-8.31-.48-1.95c3.46-.86 7.4-1.76 11.7-2.67l.42 1.95c-4.29.91-8.2 1.81-11.64 2.67m23.37-5.02-.38-1.97c3.69-.7 7.66-1.43 11.8-2.17l.35 1.97c-4.13.74-8.1 1.46-11.77 2.17m23.57-4.2-.33-1.97q5.65-.95 11.83-1.94l.32 1.98q-6.18.99-11.82 1.93m23.89-3.83-.31-1.98 5.93-.91.3 1.98z"/><path fill="#3f3d56" d="m528.13 167.12 9.08-7.27c-7.05-.78-9.95 3.07-11.14 6.12-5.51-2.29-11.52.71-11.52.71l18.18 6.6a14 14 0 0 0-4.6-6.16m-168.75 56.25 9.08-7.27c-7.06-.77-9.96 3.07-11.14 6.12-5.52-2.29-11.52.71-11.52.71l18.18 6.6a14 14 0 0 0-4.6-6.16m44.4-116.45 9.09-7.27c-7.06-.77-9.96 3.07-11.14 6.12-5.52-2.29-11.52.71-11.52.71l18.18 6.6a14 14 0 0 0-4.6-6.16"/><path fill="#9e616a" d="M502.54 430.44s-7.86 0-8.74 4.81-2.18 57.27-1.31 63.82.87 5.25.87 5.25-1.74 12.46 2.2 13 3.92-14.31 3.92-14.31l3.06-53.33Zm34.1 0s7.87 0 8.74 4.81 2.2 57.27 1.32 63.82-.88 5.25-.88 5.25 1.75 12.46-2.19 13-3.93-14.31-3.93-14.31l-3.06-53.33Z"/><path fill="#2f2e41" d="M501.23 613.17h-3.5a7.87 7.87 0 0 0-7.86 7.87h21.42v-10.05h-10.06Zm33.67 0h3.49a7.87 7.87 0 0 1 7.87 7.87h-21.42v-10.05h10.05Z"/><circle cx="516.1" cy="409.02" r="11.37" fill="#9e616a"/><path fill="#9e616a" d="M513.47 415.14s-1.3 14.43-3.06 15.74 18.36-.88 18.36-.88-7-10.49-5.68-13.98-9.62-.88-9.62-.88"/><path fill="#2f2e41" d="M539.26 430.44s-24.04-10.05-39.78 0c0 0-3.93 10.06-.87 15.74s7.87 19.23 3.06 28.41.44 5.25.44 5.25-6.12 24.48-7 43.72 2.63 88.3 5.25 88.74 10.93 1.3 11.8 0 7-92.68 7-92.68 2.62 93.55 5.24 93.55 9.62 0 10.93-2.18 12.24-86.56 8.3-104.05-6.55-26.23-6.55-26.23 4.8-3.06 3.5-4.8-7.87-20.55-4.81-23.61 3.5-21.86 3.5-21.86"/><circle cx="523.31" cy="402.17" r="18.36" fill="#2f2e41"/><path fill="#2f2e41" d="M534.77 392.98a12.37 12.37 0 0 1-9.33-14.3l-.15.58a12.37 12.37 0 0 0 24.08 5.66l.12-.58a12.37 12.37 0 0 1-14.72 8.64"/><circle cx="535.52" cy="386.39" r="8.98" fill="#2f2e41"/></svg>