<svg xmlns="http://www.w3.org/2000/svg" width="799.93" height="517.16" viewBox="0 0 799.93 517.16"><path fill="#ed9da0" d="M680.23 148.74a67.71 67.71 0 1 0-88 64.62l2.26 130.31L698 241.52s-40.35-15.63-48.08-36.33a67.6 67.6 0 0 0 30.32-56.45"/><path fill="#090814" d="M649.6 205.23s23.1-8.23 34.95-32.26c10.87-22.07 12.07-59.67-18.82-68.8 0 0 17.8-15.37-15.01-24.73l4.36 4.03s-3.85-6.96-22.87-2.85c0 0-70.27-8.18-82.75 14.96 0 0-37.71 7.73-17.63 36.42 0 0 1.04 5.58 8.2 5.48l-3.57-4.69 10.91 4.69s15.18-24.18 29.5-10.81c0 0 27.4-1.15 40.5-3.55 0 0-2.63 35.19 22.52 42.04s9.7 40.07 9.7 40.07Z"/><path fill="#ed9da0" d="m417.26 432.66 123.77 73.83 10.3-47.97-117.28-55.72c-2.22-8.43-8.36-16.49-17.47-21.61-15.94-8.97-34.87-5.54-42.3 7.65s-.5 31.15 15.44 40.12c9.11 5.12 19.18 6.18 27.54 3.7"/><path fill="#531047" d="M675.12 224.35C646.59 253 619.5 260.7 594.58 236.8l-35.2 257.94 14.63 21.2 89.02.26z"/><path fill="#090814" d="m679.8 221.75 14.89 12.23 45.18 25.76a67.3 67.3 0 0 1 40.83 43.04 405 405 0 0 1 15.3 71.05c7.43 60.94 2.03 141.28 2.03 141.28l-68.7.6 2.99-40.3 11.05-99.67-.3 140.22h-80.05s-5.47-237.83 6.46-290.72a6.4 6.4 0 0 1 10.32-3.48Zm-85.22 15.05-54.13 26.03a66 66 0 0 0-36.05 46.19l-22.68 110.16-7.42 66.64s31.89 28.56 52.82 19.09l-1.5 11.05h48.4z"/><path fill="#090814" d="m515.17 437.7-63.62-35.25-18.23 50.48s36.58 45.32 93.8 51.98z"/><path fill="#fff" d="M520.25 515.2c12.8-21.69 17.17-39 23.46-63.38a274 274 0 0 0 8.61-74.37 265 265 0 0 0-4.28-42c-.3-1.66 2.23-2.37 2.54-.7a269 269 0 0 1 4.23 37.8 273 273 0 0 1-1.14 38.05 279 279 0 0 1-6.29 37.34 274 274 0 0 1-11.4 36.32c-4.65 11.81-3.94 17.15-10.2 28.18q-1.17 2.05-2.37 4.08a1.32 1.32 0 0 1-2.28-1.33zm-50.41-109.09a47.3 47.3 0 0 0 31.91 22.82c1.67.32.96 2.87-.7 2.55a50 50 0 0 1-33.5-24.03 1.32 1.32 0 0 1 2.29-1.33ZM729.01 513.9c1.33-13.6.39-27.43-.86-41a345 345 0 0 0-7.2-46.47 130 130 0 0 0-6.08-20.1c-.58-1.4 1.97-2 2.54-.61a123 123 0 0 1 5.52 17.76 285 285 0 0 1 4.41 22.2 374 374 0 0 1 4.73 47.13 162 162 0 0 1-.41 21.1c-.15 1.46-2.79 1.48-2.64 0Z"/><path fill="#ed9da0" d="m641.64 496.46 98.02 11.2-9.41-37.64-86.92-7.77c-5.75-6.56-14.85-11.03-25.28-11.54-18.27-.9-33.68 10.62-34.43 25.73s13.46 28.1 31.72 29c10.44.52 19.93-3.04 26.3-8.99Z"/><path fill="#090814" d="m733.82 455.77-68.52-2.97 5.88 50.62s49.94 23 101.02 4.4zm-139.6-217.69-34.85 255.4-3.04-4.4 35.2-257.95c22.77 21.84 47.35 17.3 73.18-5.5a4.17 4.17 0 0 1 6.92 3.04c-27.38 26.13-53.4 32.44-77.41 9.41"/><path fill="#3f3d56" d="M296.83 375.21a1.23 1.23 0 0 1-1.24-1.23v-50.6a1.23 1.23 0 1 1 2.47 0v50.6a1.23 1.23 0 0 1-1.23 1.23m-1.7-71.59a1 1 0 0 1-.62-.16L224.4 262.6a1.23 1.23 0 1 1 1.25-2.13l70.12 40.85a1.23 1.23 0 0 1-.63 2.3Z"/><path fill="#3f3d56" d="M154.9 303.62a1.23 1.23 0 0 1-.63-2.3l70.12-40.85a1.23 1.23 0 0 1 1.25 2.13l-70.12 40.86a1 1 0 0 1-.63.16m213.06 61.71a1 1 0 0 1-.62-.16l-70.12-40.86a1.23 1.23 0 1 1 1.24-2.13l70.12 40.85a1.23 1.23 0 0 1-.62 2.3"/><path fill="#3f3d56" d="M227.71 365.33a1.23 1.23 0 0 1-.62-2.3l70.12-40.85a1.23 1.23 0 1 1 1.24 2.13l-70.12 40.86a1 1 0 0 1-.62.16m-2.47-124.65a1.23 1.23 0 0 1-1.23-1.23l-.11-44.91a1.23 1.23 0 0 1 1.23-1.24 1.23 1.23 0 0 1 1.23 1.23l.12 44.91a1.23 1.23 0 0 1-1.24 1.24"/><path fill="#e6e6e6" d="M241.2 264.02h-32.15a5.56 5.56 0 0 1-5.55-5.55v-16.52a5.56 5.56 0 0 1 5.55-5.55h32.15a5.56 5.56 0 0 1 5.56 5.56v16.51a5.56 5.56 0 0 1-5.56 5.55"/><path fill="#3f3d56" d="M187.99 180.07h-68.42a1.23 1.23 0 0 1 0-2.46h68.42a1.23 1.23 0 0 1 0 2.46m37.14-17.62a1.23 1.23 0 0 1-1.24-1.24V118.5a1.23 1.23 0 1 1 2.47 0v42.72a1.23 1.23 0 0 1-1.23 1.23M92.95 180.07a1 1 0 0 1-.63-.17l-66.41-39.36a1.23 1.23 0 1 1 1.25-2.13l66.42 39.37a1.23 1.23 0 0 1-.63 2.3Z"/><path fill="#3f3d56" d="M26.53 219.44a1.23 1.23 0 0 1-.63-2.3l66.42-39.37a1.23 1.23 0 0 1 1.26 2.13l-66.42 39.36a1 1 0 0 1-.63.18"/><path fill="#e6e6e6" d="M114.64 199.98H98.12a5.56 5.56 0 0 1-5.55-5.55v-32.15a5.56 5.56 0 0 1 5.55-5.56h16.52a5.56 5.56 0 0 1 5.55 5.56v32.15a5.56 5.56 0 0 1-5.56 5.55m126.57-78.17h-32.15a5.56 5.56 0 0 1-5.55-5.56v-16.5a5.56 5.56 0 0 1 5.55-5.56h32.15a5.56 5.56 0 0 1 5.56 5.55v16.52a5.56 5.56 0 0 1-5.56 5.55M22.07 161.72H5.56A5.56 5.56 0 0 1 0 156.17V124a5.56 5.56 0 0 1 5.56-5.55h16.51a5.56 5.56 0 0 1 5.56 5.56v32.15a5.56 5.56 0 0 1-5.56 5.55m0 77.77H5.56A5.56 5.56 0 0 1 0 233.92v-32.15a5.56 5.56 0 0 1 5.56-5.55h16.51a5.56 5.56 0 0 1 5.56 5.55v32.15a5.56 5.56 0 0 1-5.56 5.56"/><path fill="#3f3d56" d="M330.68 180.07h-68.41a1.23 1.23 0 1 1 0-2.46h68.41a1.23 1.23 0 0 1 0 2.46M226.3 92.95a1.23 1.23 0 0 1-2.3.63l-39.37-66.41a1.24 1.24 0 0 1 2.13-1.26l39.36 66.42a1 1 0 0 1 .17.62"/><path fill="#3f3d56" d="M265.66 26.54a1 1 0 0 1-.17.63l-39.37 66.41a1.24 1.24 0 0 1-2.12-1.25l39.36-66.42a1.23 1.23 0 0 1 2.3.63"/><path fill="#e6e6e6" d="M207.94 5.56v16.51a5.56 5.56 0 0 1-5.56 5.55h-32.15a5.56 5.56 0 0 1-5.55-5.55V5.56A5.56 5.56 0 0 1 170.23 0h32.15a5.56 5.56 0 0 1 5.56 5.56m77.76-.01v16.52a5.56 5.56 0 0 1-5.56 5.55h-32.15a5.56 5.56 0 0 1-5.56-5.55V5.55A5.56 5.56 0 0 1 248 0h32.15a5.56 5.56 0 0 1 5.55 5.55M169.62 326.97h-32.15a5.56 5.56 0 0 1-5.56-5.55V304.9a5.56 5.56 0 0 1 5.56-5.55h32.15a5.56 5.56 0 0 1 5.56 5.55v16.52a5.56 5.56 0 0 1-5.56 5.55m142.94 0h-32.15a5.56 5.56 0 0 1-5.56-5.55V304.9a5.56 5.56 0 0 1 5.56-5.55h32.15a5.56 5.56 0 0 1 5.55 5.55v16.52a5.56 5.56 0 0 1-5.55 5.55m-65.41 60.48h-32.16a5.56 5.56 0 0 1-5.55-5.56v-16.51a5.56 5.56 0 0 1 5.55-5.56h32.16a5.56 5.56 0 0 1 5.55 5.56v16.51a5.56 5.56 0 0 1-5.55 5.56"/><path fill="#531047" d="M384.14 387.45H352a5.56 5.56 0 0 1-5.56-5.56v-16.51a5.56 5.56 0 0 1 5.56-5.56h32.15a5.56 5.56 0 0 1 5.56 5.56v16.51a5.56 5.56 0 0 1-5.56 5.55Z"/><path fill="#e6e6e6" d="M312.56 387.45h-32.15a5.56 5.56 0 0 1-5.56-5.56v-16.51a5.56 5.56 0 0 1 5.56-5.56h32.15a5.56 5.56 0 0 1 5.55 5.56v16.51a5.56 5.56 0 0 1-5.55 5.56"/><path fill="#531047" d="M264.21 200.31h-78.17a5.56 5.56 0 0 1-5.55-5.55v-31.84a5.56 5.56 0 0 1 5.55-5.55h78.17a5.56 5.56 0 0 1 5.56 5.55v31.84a5.56 5.56 0 0 1-5.56 5.55"/><path fill="#e6e6e6" d="M415.64 200.31h-78.17a5.56 5.56 0 0 1-5.55-5.55v-31.84a5.56 5.56 0 0 1 5.55-5.55h78.18a5.56 5.56 0 0 1 5.55 5.55v31.84a5.56 5.56 0 0 1-5.55 5.55"/></svg>