<svg xmlns="http://www.w3.org/2000/svg" width="800" height="783.03" viewBox="0 0 800 783.03"><g data-name="Group 178"><g data-name="Group 177"><path fill="#fff" d="M792.78 316.1q-.65-3.42-1.37-6.8a388 388 0 0 0-5.54-22.67v-.01A392.05 392.05 0 0 0 423.62.29h-.04q-7.53-.3-15.1-.29-2.07 0-4.13.04a392 392 0 0 0-372.83 285.1q-1.09 3.83-2.07 7.68a403 403 0 0 0-3.62 15.22v.01q-.73 3.41-1.41 6.84a396 396 0 0 0-7.45 76.62c0 9.82.36 19.66 1.1 29.3q.15 2.08.32 4.14.42 5.2 1.04 10.7a391.6 391.6 0 0 0 756.59 91.08q4.05-11 7.42-22.24a385 385 0 0 0 12.4-55.76q.97-6.53 1.7-13.08.63-5.5 1.05-10.7a395 395 0 0 0 1.41-33.43 395 395 0 0 0-7.22-75.42" data-name="Path 2918"/><path fill="#e6e6e6" d="M500.24 74.33a1.03 1.03 0 1 1 0-2.06h68.07a32.5 32.5 0 0 1 31.48-24.86 45.25 45.25 0 0 1 82.18-9.65q1.52-.12 2.96-.12a38.4 38.4 0 0 1 38.2 35.59 1.03 1.03 0 0 1-.96 1.1h-.07a1.03 1.03 0 0 1-1.02-.96Z" data-name="Path 2919"/><path fill="#e6e6e6" d="M709.87 87.52H541.2a1.03 1.03 0 1 1 0-2.06h168.67a1.03 1.03 0 1 1 0 2.06" data-name="Path 2920"/><path fill="#090814" d="M88.23 423.74h46.81v108.52h-46.8z" data-name="Rectangle 663"/><path fill="#090814" d="M681.92 423.74h46.81v108.52h-46.8z" data-name="Rectangle 664"/><path fill="#531047" d="M774.37 526.12c-54.8 148.92-197.94 255.15-365.88 255.15S97.39 675.04 42.6 526.12Z" data-name="Path 2921"/><circle cx="134.6" cy="134.6" r="134.6" fill="#e6e6e6" data-name="Ellipse 470" transform="translate(0 62.62)"/><path fill="#090814" d="M792.78 316.1q-.65-3.42-1.37-6.8a388 388 0 0 0-5.54-22.67v-.01A392.05 392.05 0 0 0 423.62.29h-.04q-7.53-.3-15.1-.29-2.07 0-4.13.04a392 392 0 0 0-372.83 285.1q-1.09 3.83-2.07 7.68a403 403 0 0 0-3.62 15.22v.01q-.73 3.41-1.41 6.84a396 396 0 0 0-7.45 76.62c0 9.82.36 19.66 1.1 29.3q.15 2.08.32 4.14.42 5.2 1.04 10.7a391.6 391.6 0 0 0 756.59 91.08q4.05-11 7.42-22.24a385 385 0 0 0 12.4-55.76q.97-6.53 1.7-13.08.63-5.5 1.05-10.7a395 395 0 0 0 1.41-33.43 395 395 0 0 0-7.22-75.42m2.3 108.56c-.27 3.4-.62 6.97-1.03 10.58q-.73 6.51-1.67 13a387 387 0 0 1-12.3 55.26q-3.35 11.11-7.36 22c-55.9 151.94-202.27 254.02-364.23 254.02S100.14 677.44 44.26 525.5a386 386 0 0 1-21.34-90.27 342 342 0 0 1-1.37-14.68c-.7-9.56-1.07-19.32-1.07-29.05a388 388 0 0 1 8.4-80.5q.75-3.52 1.55-7.03v-.01q1.86-7.94 4.01-15.76l.61-2.16q.28-1.04.6-2.07.53-1.9 1.1-3.76C84.33 121.59 230.9 5.34 404.38 3.54l4.1-.03q7.52 0 14.99.28c169.27 6.46 311.11 121.9 357.22 277.98q1.16 3.94 2.24 7.92 2.1 7.73 3.9 15.59.8 3.47 1.51 6.98a387 387 0 0 1 8.15 79.25c0 11.12-.47 22.28-1.4 33.15" data-name="Path 2922"/><path fill="#090814" d="M93.55 360.97h36.17v68.08H93.55z" data-name="Rectangle 665"/><path fill="#090814" d="M98.87 214.14h8.51v153.2h-8.5z" data-name="Rectangle 666"/><path fill="#090814" d="M115.9 214.14h8.5v153.2h-8.5z" data-name="Rectangle 667"/><path fill="#090814" d="M103.13 220.52h19.15v10.64h-19.15z" data-name="Rectangle 668"/><path fill="#090814" d="M103.13 263.08h19.15v10.64h-19.15z" data-name="Rectangle 669"/><path fill="#090814" d="M103.13 309.9h19.15v10.63h-19.15z" data-name="Rectangle 670"/><path fill="#090814" d="M101 207.75h4.26v10.64H101z" data-name="Rectangle 671"/><path fill="#090814" d="M118.03 207.75h4.26v10.64h-4.26z" data-name="Rectangle 672"/><path fill="#090814" d="M687.24 360.97h36.17v68.08h-36.17z" data-name="Rectangle 673"/><path fill="#090814" d="M692.56 214.14h8.51v153.2h-8.5z" data-name="Rectangle 674"/><path fill="#090814" d="M709.59 214.14h8.5v153.2h-8.5z" data-name="Rectangle 675"/><path fill="#090814" d="M696.82 220.52h19.15v10.64h-19.15z" data-name="Rectangle 676"/><path fill="#090814" d="M696.82 263.08h19.15v10.64h-19.15z" data-name="Rectangle 677"/><path fill="#090814" d="M696.82 309.9h19.15v10.63h-19.15z" data-name="Rectangle 678"/><path fill="#090814" d="M694.7 207.75h4.25v10.64h-4.26z" data-name="Rectangle 679"/><path fill="#090814" d="M711.71 207.75h4.26v10.64h-4.26z" data-name="Rectangle 680"/><path fill="#090814" d="M796.84 424.8q-.44 5.36-1.04 10.64H21.17q-.6-5.28-1.04-10.64Z" data-name="Path 2923"/><path fill="#090814" d="M414.32 408.25c-102.03 0-207.26-66.27-312.85-197.03l3.31-2.68C211 340.07 316.58 405.87 418.54 403.96c99.1-1.82 197.89-67.54 293.6-195.35l3.4 2.55C619.01 340.08 519.11 406.37 418.62 408.2q-2.15.04-4.3.04" data-name="Path 2924"/><path fill="#090814" d="M414 393.95c-96.38 0-195.76-61.45-295.5-182.71l3.3-2.7c100.29 121.94 199.93 182.85 296.27 181.11 93.52-1.71 186.74-62.63 277.06-181.06l3.38 2.58c-91.15 119.52-185.47 181-280.36 182.74q-2.07.03-4.16.04" data-name="Path 2925"/><path fill="#090814" d="m792.78 316.1-4.44-3.84q-47.77-41.59-95.79-101.04l3.32-2.67q45.59 56.48 90.96 96.73 2.28 2.03 4.58 4.02.72 3.4 1.37 6.8" data-name="Path 2926"/><path fill="#090814" d="M787.88 294.2q-2.48-2.2-4.94-4.51a785 785 0 0 1-73.36-78.46l3.3-2.7a793 793 0 0 0 67.8 73.25q2.6 2.47 5.2 4.84v.02a344 344 0 0 1 2 7.56" data-name="Path 2927"/><path fill="#090814" d="M147 243.46h4.25V428H147z" data-name="Rectangle 681"/><path fill="#090814" d="M186.58 283.97h4.26V428h-4.26z" data-name="Rectangle 682"/><path fill="#090814" d="M240.52 329h4.25v100.06h-4.26z" data-name="Rectangle 683"/><path fill="#090814" d="M292.14 360.97h4.26v67.02h-4.26z" data-name="Rectangle 684"/><path fill="#090814" d="M334.98 379.03h4.26v51.1h-4.26z" data-name="Rectangle 685"/><path fill="#090814" d="M736.9 243.46h4.26V428h-4.26z" data-name="Rectangle 686"/><path fill="#090814" d="M776.49 283.97h4.26V428h-4.26z" data-name="Rectangle 687"/><path fill="#090814" d="M123.25 211.22q-22.2 27.48-44.35 51.17l-4.25 4.5q-17.7 18.6-35.34 34.77-2.14 1.97-4.26 3.87-3.08 2.78-6.16 5.48l-1.43 1.25q-1.51 1.32-3.04 2.63.68-3.43 1.41-6.84v-.01q1.59-1.36 3.14-2.76l1.46-1.3v-.02q2.32-2.05 4.62-4.16 2.15-1.93 4.26-3.92 17.65-16.35 35.34-35.2 2.13-2.26 4.25-4.56 20.5-22.14 41.04-47.58Z" data-name="Path 2928"/><path fill="#090814" d="M106.22 211.23q-13.89 16.9-27.75 32.22l-3.82 4.18Q56.8 267.1 38.97 283.97l-3.91 3.68q-.3.3-.61.56l-1.58 1.47q-1.7 1.6-3.42 3.14.98-3.84 2.07-7.68 1.81-1.65 3.6-3.37.81-.76 1.63-1.56 18.4-17.46 36.84-37.73 14.66-16.12 29.34-33.96Z" data-name="Path 2929"/><path fill="#090814" d="M74.65 243.46h4.26V428h-4.26z" data-name="Rectangle 688"/><path fill="#090814" d="M35.06 283.97h4.26V428h-4.26z" data-name="Rectangle 689"/><path fill="#090814" d="M672.1 239.2h4.27v188.79h-4.26z" data-name="Rectangle 690"/><path fill="#090814" d="M632.52 283.97h4.25V428h-4.25z" data-name="Rectangle 691"/><path fill="#090814" d="M578.59 329h4.26v100.06h-4.26z" data-name="Rectangle 692"/><path fill="#090814" d="M526.96 360.97h4.26v67.02h-4.26z" data-name="Rectangle 693"/><path fill="#090814" d="M484.12 379.03h4.26v51.1h-4.26z" data-name="Rectangle 694"/><path fill="#090814" d="M401.62 391.6h4.26v38.52h-4.26z" data-name="Rectangle 695"/><path fill="#fff" d="M378.75 629.57h-98.38a5.73 5.73 0 1 1 0-11.45h98.38a5.73 5.73 0 0 1 0 11.45" data-name="Path 2930"/><path fill="#fff" d="M536.6 594.33h-98.38a5.73 5.73 0 1 1 0-11.45h98.38a5.72 5.72 0 1 1 0 11.45" data-name="Path 2931"/><path fill="#fff" d="M472.67 678.86h-98.39a5.73 5.73 0 0 1 0-11.45h98.39a5.73 5.73 0 0 1 0 11.45" data-name="Path 2932"/><path fill="#e6e6e6" d="M310.83 172.98a1.03 1.03 0 1 1 0-2.06h68.07a32.5 32.5 0 0 1 31.48-24.86 45.25 45.25 0 0 1 82.18-9.65q1.52-.12 2.96-.12a38.4 38.4 0 0 1 38.2 35.59 1.03 1.03 0 0 1-.96 1.1h-.07a1.03 1.03 0 0 1-1.02-.96Z" data-name="Path 2933"/><path fill="#e6e6e6" d="M392.93 201.08h-56.56a1.03 1.03 0 1 1 0-2.06h56.56a1.03 1.03 0 1 1 0 2.06" data-name="Path 2934"/><path fill="#090814" d="m425 59.97 8.55-6.84c-6.64-.73-9.37 2.9-10.49 5.76-5.2-2.15-10.84.67-10.84.67l17.11 6.21a13 13 0 0 0-4.33-5.8" data-name="Path 2935"/><path fill="#090814" d="m455.43 237.88 8.55-6.84c-6.64-.73-9.37 2.9-10.49 5.76-5.2-2.16-10.84.67-10.84.67l17.11 6.21a13 13 0 0 0-4.33-5.8" data-name="Path 2936"/><path fill="#090814" d="m655.58 171.17 8.55-6.84c-6.64-.74-9.37 2.89-10.5 5.75-5.18-2.15-10.83.67-10.83.67l17.1 6.22a13 13 0 0 0-4.32-5.8" data-name="Path 2937"/><path fill="#090814" d="M67.89 512.07h83.1v14.04h-83.1z" data-name="Rectangle 696"/><path fill="#090814" d="M663.64 512.07h83.1v14.04h-83.1z" data-name="Rectangle 697"/><path fill="#090814" d="M19.38 414.52h778.09v3.51H19.37z" data-name="Rectangle 698"/></g></g></svg>