<svg xmlns="http://www.w3.org/2000/svg" width="1041.28" height="554.14" viewBox="0 0 1041.28 554.14"><title>Powered by React</title><g data-name="Group 24"><g data-name="Group 23" transform="translate(-.01 -.04)"><path fill="#f2f2f2" d="M961.48 438.21q-1.74 3.75-3.47 7.4-2.7 5.67-5.33 11.12l-2.32 4.77a1481 1481 0 0 1-23.45 45.89 73.2 73.2 0 0 1-63.81 38.7l-151.65 1.65h-1.6l-13 .14-11.12.12-34.1.37h-1.38l-17.36.19h-.53l-107 1.16-95.51 1-11.11.12-69 .75h-.08l-44.75.48h-.48l-141.5 1.53-42.33.46a88 88 0 0 1-10.79-.54q-1.83-.2-3.65-.49a87.4 87.4 0 0 1-51.29-27.54c-18.21-20.03-31.46-43.4-40.36-68.76q-1.93-5.49-3.6-11.12c-30.81-104.15 6.75-238.52 74.35-328.44q4.25-5.64 8.64-11l.07-.08c20.79-25.52 44.1-46.84 68.93-62 44-26.91 92.75-34.49 140.7-11.9 40.57 19.12 78.45 28.11 115.17 30.55q5.57.36 11.11.53c84.23 2.65 163.17-27.7 255.87-47.29q5.53-1.18 11.12-2.28C763 .54 836.36-6.4 923.6 8.19a189 189 0 0 1 26.76 6.4q5.77 1.86 11.12 4c41.64 16.94 64.35 48.24 74 87.46q1.37 5.46 2.37 11.11c17.11 94.34-33 228.16-76.37 321.05" data-name="Path 299"/><path d="M497.02 445.61a95 95 0 0 1-1.87 11.12h93.7v-11.12Zm-78.25 62.81 11.11-.09v-27.47q-5.72-.25-11.11-.52Zm-232.92-62.81v11.12h198.5v-11.12Zm849.68-339.52h-74V18.6q-5.35-2.17-11.12-4v91.49H696.87V13.67q-5.59 1.1-11.12 2.28v90.14H429.88V63.24q-5.54-.17-11.11-.53v43.38H162.9v-62c-24.83 15.16-48.14 36.48-68.93 62h-.07v.08q-4.4 5.4-8.64 11h8.64v328.44h-83q1.66 5.63 3.6 11.12h79.39v93.62a87 87 0 0 0 12.2 2.79q1.82.28 3.65.49a88 88 0 0 0 10.79.54l42.33-.46v-97h255.91v94.21l11.11-.12v-94.07h255.87v91.36l11.12-.12v-91.24h253.49v4.77l2.32-4.77q2.63-5.45 5.33-11.12 1.73-3.64 3.47-7.4v-321h76.42q-1.01-5.69-2.37-11.12M162.9 445.61V117.17h255.87v328.44Zm267 0V117.17h255.85v328.44Zm520.48 0H696.87V117.17h253.49Z" data-name="Path 300" opacity=".1"/><path fill="#65617d" d="M863.09 533.65v13l-151.92 1.4-1.62.03-57.74.53-1.38.02-17.55.15h-.52l-106.98.99-175.61 1.63h-.15l-44.65.42-.48.01-198.4 1.82v-15l46.65-28 93.6-.78 2-.01.66-.01 2-.03 44.94-.37 2.01-.01.64-.01 2-.01 14.41-.12.38-.01 35.55-.3h.29l277.4-2.34 6.79-.05h.68l5.18-.05 37.65-.31 2-.03 1.85-.02h.96l11.71-.09 2.32-.03 3.11-.02 9.75-.09 15.47-.13 2-.02 3.48-.02h.65l74.71-.64Z" data-name="Path 301"/><path d="M863.09 533.65v13l-151.92 1.4-1.62.03-57.74.53-1.38.02-17.55.15h-.52l-106.98.99-175.61 1.63h-.15l-44.65.42-.48.01-198.4 1.82v-15l46.65-28 93.6-.78 2-.01.66-.01 2-.03 44.94-.37 2.01-.01.64-.01 2-.01 14.41-.12.38-.01 35.55-.3h.29l277.4-2.34 6.79-.05h.68l5.18-.05 37.65-.31 2-.03 1.85-.02h.96l11.71-.09 2.32-.03 3.11-.02 9.75-.09 15.47-.13 2-.02 3.48-.02h.65l74.71-.64Z" data-name="Path 302" opacity=".2"/><path fill="#3f3d56" d="M296.1 483.66v24.49a6.1 6.1 0 0 1-3.5 5.54 6 6 0 0 1-2.5.6l-34.9.74a6 6 0 0 1-2.7-.57 6.1 6.1 0 0 1-3.57-5.57v-25.23Z" data-name="Path 303"/><path d="M296.1 483.66v24.49a6.1 6.1 0 0 1-3.5 5.54 6 6 0 0 1-2.5.6l-34.9.74a6 6 0 0 1-2.7-.57 6.1 6.1 0 0 1-3.57-5.57v-25.23Z" data-name="Path 304" opacity=".1"/><path fill="#3f3d56" d="M298.1 483.66v24.49a6.1 6.1 0 0 1-3.5 5.54 6 6 0 0 1-2.5.6l-34.9.74a6 6 0 0 1-2.7-.57 6.1 6.1 0 0 1-3.57-5.57v-25.23Z" data-name="Path 305"/><path fill="#3f3d56" d="M680.92 483.65h47.17v31.5h-47.17z" data-name="Rectangle 137"/><path d="M680.92 483.65h47.17v31.5h-47.17z" data-name="Rectangle 138" opacity=".1"/><path fill="#3f3d56" d="M678.92 483.65h47.17v31.5h-47.17z" data-name="Rectangle 139"/><path d="M298.09 483.65v4.97l-47.17 1.26v-6.23Z" data-name="Path 306" opacity=".1"/><path fill="#65617d" d="M381.35 312.36v168.2a4 4 0 0 1-3.85 3.95l-191.65 5.1h-.05a4 4 0 0 1-3.95-3.95v-173.3a4 4 0 0 1 3.95-3.95h191.6a4 4 0 0 1 3.95 3.95" data-name="Path 307"/><path d="M185.85 308.41v181.2h-.05a4 4 0 0 1-3.95-3.95v-173.3a4 4 0 0 1 3.95-3.95Z" data-name="Path 308" opacity=".1"/><path fill="#39374d" d="M194.59 319.15h177.5V467.4l-177.5 4Z" data-name="Path 309"/><path d="M726.09 483.65v6.41l-47.17-1.26v-5.15Z" data-name="Path 310" opacity=".1"/><path fill="#65617d" d="M788.35 312.36v173.3a4 4 0 0 1-4 3.95l-191.69-5.1a4 4 0 0 1-3.85-3.95v-168.2a4 4 0 0 1 3.95-3.95h191.6a4 4 0 0 1 3.99 3.95" data-name="Path 311"/><path d="M788.35 312.36v173.3a4 4 0 0 1-4 3.95v-181.2a4 4 0 0 1 4 3.95" data-name="Path 312" opacity=".1"/><path fill="#39374d" d="M775.59 319.15h-177.5V467.4l177.5 4Z" data-name="Path 313"/><path fill="#65617d" d="M583.85 312.36v168.2a4 4 0 0 1-3.85 3.95l-191.65 5.1a4 4 0 0 1-4-3.95v-173.3a4 4 0 0 1 3.95-3.95h191.6a4 4 0 0 1 3.95 3.95" data-name="Path 314"/><path fill="#4267b2" d="M397.09 319.15h177.5V467.4l-177.5 4Z" data-name="Path 315"/><path d="M863.09 533.65v13l-151.92 1.4-1.62.03-57.74.53-1.38.02-17.55.15h-.52l-106.98.99-175.61 1.63h-.15l-44.65.42-.48.01-198.4 1.82v-15l202.51-1.33h.48l40.99-.28h.19l283.08-1.87h.29l.17-.01h.47l4.79-.03h1.46l74.49-.5 4.4-.02.98-.01Z" data-name="Path 316" opacity=".1"/><circle cx="51.33" cy="51.33" r="51.33" fill="#fbbebe" data-name="Ellipse 111" transform="translate(435.93 246.82)"/><path fill="#fbbebe" d="M538.6 377.16s-99.5 12-90 0c3.44-4.34 4.39-17.2 4.2-31.85-.06-4.45-.22-9.06-.45-13.65-1.1-22-3.75-43.5-3.75-43.5s87-41 77-8.5c-4 13.13-2.69 31.57.35 48.88.89 5.05 1.92 10 3 14.7a345 345 0 0 0 9.65 33.92" data-name="Path 317"/><path fill="#ff6584" d="M506.13 373.09c11.51-2.13 23.7-6 34.53-1.54 2.85 1.17 5.47 2.88 8.39 3.86s6.12 1.22 9.16 1.91c10.68 2.42 19.34 10.55 24.9 20s8.44 20.14 11.26 30.72l6.9 25.83c6 22.45 12 45.09 13.39 68.3a2438 2438 0 0 1-250.84 1.43c5.44-10.34 11-21.31 10.54-33s-7.19-23.22-4.76-34.74c1.55-7.34 6.57-13.39 9.64-20.22 8.75-19.52 1.94-45.79 17.32-60.65 6.92-6.68 17-9.21 26.63-8.89 12.28.41 24.85 4.24 37 6.11 15.56 2.36 30.26 3.76 45.94.88" data-name="Path 318"/><path d="m637.03 484.26-.1 1.43v.1l-.17 2.3-1.33 18.51-1.61 22.3-.46 6.28-1 13.44v.17l-107 1-175.59 1.9v.84h-.14v-1.12l.45-14.36.86-28.06.74-23.79.07-2.37a10.53 10.53 0 0 1 11.42-10.17c4.72.4 10.85.89 18.18 1.41l3 .22c42.33 2.94 120.56 6.74 199.5 2q2.5-.13 5-.31a937 937 0 0 0 36.58-3 10.53 10.53 0 0 1 11.6 11.23Z" data-name="Path 319" opacity=".1"/><path fill="#3f3d56" d="M349.74 552.53v-.84l175.62-1.91 107-1h.3v-.17l1-13.44.43-6 1.64-22.61 1.29-17.9v-.44a11 11 0 0 0-.11-2.47v-.1a10.4 10.4 0 0 0-2-4.64 10.5 10.5 0 0 0-9.42-4 937 937 0 0 1-41.58 3.31c-78.94 4.69-157.17.89-199.5-2l-3-.22c-7.33-.52-13.46-1-18.18-1.41a10.54 10.54 0 0 0-11.24 8.53 11 11 0 0 0-.18 1.64l-.68 22.16-.93 28.07-.44 14.36v1.12Z" data-name="Path 320"/><path d="m637.33 491.27-1.23 15.33-1.83 22.85-.46 5.72-1 12.81-.06.64v.17l-.15 1.48.11-1.48h-.29l-107 1-175.65 1.9v-.28l.49-14.36 1-28.06.64-18.65a6.4 6.4 0 0 1 3.06-5.25 6.3 6.3 0 0 1 3.78-.9q3.16.26 7.69.59a1977 1977 0 0 0 65.94 3.64c52 2 122.2 2.67 188.88-3.17 3-.26 6.1-.55 9.13-.84a6.3 6.3 0 0 1 3.48.66 5 5 0 0 1 .86.54 6 6 0 0 1 2 2.46 4 4 0 0 1 .25.61 6 6 0 0 1 .36 2.59" data-name="Path 321" opacity=".1"/><path d="M298.1 504.96v3.19a6.1 6.1 0 0 1-3.5 5.54l-40.1.77a6.1 6.1 0 0 1-3.57-5.57v-3Z" data-name="Path 322" opacity=".1"/><path fill="#3f3d56" d="m298.59 515.57-52.25 1v-8.67l52.25-1Z" data-name="Path 323"/><path d="m298.59 515.57-52.25 1v-8.67l52.25-1Z" data-name="Path 324" opacity=".1"/><path fill="#3f3d56" d="m300.59 515.57-52.25 1v-8.67l52.25-1Z" data-name="Path 325"/><path d="M679.22 506.96v3.19a6.1 6.1 0 0 0 3.5 5.54l40.1.77a6.1 6.1 0 0 0 3.57-5.57v-3Z" data-name="Path 326" opacity=".1"/><path d="m678.72 517.57 52.25 1v-8.67l-52.25-1Z" data-name="Path 327" opacity=".1"/><path fill="#3f3d56" d="m676.72 517.57 52.25 1v-8.67l-52.25-1Z" data-name="Path 328"/><path fill="#3f3d56" d="M454.79 313.88c.08 7-3.16 13.6-5.91 20.07a163.5 163.5 0 0 0-12.66 74.71c.73 11 2.58 22 .73 32.9s-8.43 21.77-19 24.9c17.53 10.45 41.26 9.35 57.76-2.66 8.79-6.4 15.34-15.33 21.75-24.11a98 98 0 0 1-13.31 44.75 103.4 103.4 0 0 0 73.51-40.82c4.31-5.81 8.06-12.19 9.72-19.23 3.09-13-1.22-26.51-4.51-39.5a266 266 0 0 1-6.17-33c-.43-3.56-.78-7.22.1-10.7 1-4.07 3.67-7.51 5.64-11.22 5.6-10.54 5.73-23.3 2.86-34.88s-8.49-22.26-14.06-32.81c-4.46-8.46-9.3-17.31-17.46-22.28-5.1-3.1-11-4.39-16.88-5.64l-25.37-5.43c-5.55-1.19-11.26-2.38-16.87-1.51-9.47 1.48-16.14 8.32-22 15.34-4.59 5.46-15.81 15.71-16.6 22.86-.72 6.59 5.1 17.63 6.09 24.58 1.3 9 2.22 6 7.3 11.52 3.21 3.42 5.28 7.37 5.34 12.16" data-name="Path 329"/></g><path fill="#fff" fill-rule="evenodd" d="M280.14 370.83h43.63v17.66h-43.63Z" data-name="Path 40"/><path fill="#3ecc5f" fill-rule="evenodd" d="M240.66 428.5a10.4 10.4 0 0 1-8.99-5.2 10.38 10.38 0 0 0 8.99 15.58h10.39V428.5Z" data-name="Path 41"/><path fill="#3ecc5f" fill-rule="evenodd" d="m287.4 373.63 36.37-2.28v-5.2a10.4 10.4 0 0 0-10.39-10.38h-46.75l-1.3-2.25a1.5 1.5 0 0 0-2.6 0l-1.3 2.25-1.3-2.25a1.5 1.5 0 0 0-2.6 0l-1.3 2.25-1.3-2.25a1.5 1.5 0 0 0-2.6 0l-1.3 2.25H251l-2.15-2.15a1.5 1.5 0 0 0-2.5.67l-.7 2.65-2.7-.72a1.5 1.5 0 0 0-1.84 1.84l.72 2.7-2.65.7a1.5 1.5 0 0 0-.67 2.51l2.15 2.16v.03l-2.25 1.3a1.5 1.5 0 0 0 0 2.6l2.25 1.3-2.25 1.3a1.5 1.5 0 0 0 0 2.6l2.25 1.28-2.25 1.3a1.5 1.5 0 0 0 0 2.6l2.25 1.3-2.25 1.3a1.5 1.5 0 0 0 0 2.6l2.25 1.3-2.25 1.3a1.5 1.5 0 0 0 0 2.6l2.25 1.3-2.25 1.3a1.5 1.5 0 0 0 0 2.6l2.25 1.3-2.25 1.3a1.5 1.5 0 0 0 0 2.6l2.25 1.3-2.25 1.3a1.5 1.5 0 0 0 0 2.6l2.25 1.3-2.25 1.3a1.5 1.5 0 0 0 0 2.6l2.25 1.3-2.25 1.3a1.5 1.5 0 0 0 0 2.6l2.25 1.3-2.25 1.3a1.5 1.5 0 0 0 0 2.6l2.25 1.3-2.25 1.3a1.5 1.5 0 0 0 0 2.6l2.25 1.3a10.4 10.4 0 0 0 10.39 10.34h62.33a10.4 10.4 0 0 0 10.4-10.39v-41.55l-36.38-2.28a5.53 5.53 0 0 1 0-11.04" data-name="Path 42"/><path fill="#3ecc5f" fill-rule="evenodd" d="M303 438.88h15.58V418.1H303Z" data-name="Path 43"/><path fill="#44d860" fill-rule="evenodd" d="m328.97 425.9-.33.03-.06-.24a2.6 2.6 0 1 0-2.57-4.45l-.17-.18a2.6 2.6 0 1 0-4.46-2.56l-.24-.06a2.6 2.6 0 1 0-5.12 0q-.12.02-.23.06a2.6 2.6 0 1 0-4.47 2.56 10.38 10.38 0 1 0 17.32 10 2.6 2.6 0 1 0 .33-5.16" data-name="Path 44"/><path fill="#3ecc5f" fill-rule="evenodd" d="M308.2 407.71h15.57v-10.39H308.2Z" data-name="Path 45"/><path fill="#44d860" fill-rule="evenodd" d="M328.97 403.82a1.3 1.3 0 1 0 0-2.6l-.17.01-.03-.11a1.3 1.3 0 0 0-.5-2.5 1.3 1.3 0 0 0-.78.27l-.09-.09a1.3 1.3 0 0 0 .27-.78 1.3 1.3 0 0 0-2.5-.5 5.2 5.2 0 1 0 0 10 1.3 1.3 0 0 0 2.5-.51 1.3 1.3 0 0 0-.27-.78l.09-.09a1.3 1.3 0 0 0 .78.27 1.3 1.3 0 0 0 .5-2.5l.03-.12z" data-name="Path 46"/><path fill-rule="evenodd" d="M261.44 372.65a1.3 1.3 0 0 1-1.3-1.3 3.9 3.9 0 0 0-7.8 0 1.3 1.3 0 1 1-2.6 0 6.5 6.5 0 0 1 13 0 1.3 1.3 0 0 1-1.3 1.3" data-name="Path 47"/><path fill="#ffff50" fill-rule="evenodd" d="M282.22 438.88h31.16a10.4 10.4 0 0 0 10.4-10.39v-36.36H292.6a10.4 10.4 0 0 0-10.4 10.39Z" data-name="Path 48"/><path fill-rule="evenodd" d="M316 408.23h-26a.52.52 0 1 1 0-1.04h26a.52.52 0 0 1 0 1.04m0 10.4h-26a.52.52 0 1 1 0-1.05h26a.52.52 0 0 1 0 1.04m0 10.4h-26a.52.52 0 1 1 0-1.05h26a.52.52 0 0 1 0 1.04m0-25.88h-26a.52.52 0 1 1 0-1.03h26a.52.52 0 0 1 0 1.03m0 10.3h-26a.52.52 0 1 1 0-1.04h26a.52.52 0 0 1 0 1.04m0 10.39h-26a.52.52 0 1 1 0-1.04h26a.52.52 0 0 1 0 1.04m7.77-48c-1.6.06-2.37 1.66-3.04 3.08-.7 1.48-1.24 2.44-2.12 2.41-.99-.03-1.55-1.14-2.14-2.31-.68-1.35-1.46-2.88-3.1-2.82-1.58.05-2.35 1.45-3.02 2.68-.71 1.31-1.2 2.11-2.14 2.08-1-.04-1.53-.94-2.15-1.98-.68-1.17-1.48-2.47-3.08-2.43-1.56.06-2.32 1.24-3 2.29-.7 1.1-1.2 1.78-2.16 1.74-1.03-.04-1.55-.78-2.17-1.65-.69-.97-1.46-2.07-3.06-2.02a3.8 3.8 0 0 0-2.96 1.88c-.64.81-1.14 1.45-2.2 1.41a.52.52 0 0 0-.04 1.04 3.6 3.6 0 0 0 3.05-1.8c.62-.79 1.14-1.46 2.18-1.5 1-.04 1.47.59 2.18 1.59.68.95 1.44 2.03 2.98 2.09 1.61.05 2.39-1.15 3.07-2.22.62-.95 1.15-1.77 2.16-1.8.93-.04 1.44.7 2.15 1.9.68 1.14 1.44 2.44 3 2.5 1.63.05 2.41-1.37 3.1-2.62.59-1.09 1.15-2.11 2.14-2.14.93-.03 1.41.82 2.13 2.24.67 1.33 1.43 2.83 3.03 2.9h.09c1.59 0 2.34-1.6 3.01-3.02.6-1.25 1.15-2.43 2.11-2.48Z" data-name="Path 49"/><path fill="#3ecc5f" fill-rule="evenodd" d="M271.83 438.88h20.78V418.1h-20.78Z" data-name="Path 50"/><g data-name="Group 8" transform="rotate(-15 1644.43 -873.24)"><rect width="43.91" height="17.33" fill="#d8d8d8" data-name="Rectangle 3" rx="2"/><g fill="#4a4a4a" data-name="Group 2" transform="translate(.73 10.95)"><rect width="2.54" height="2.54" data-name="Rectangle 4" rx="1" transform="translate(7.99)"/><rect width="2.54" height="2.54" data-name="Rectangle 5" rx="1" transform="translate(11)"/><rect width="2.54" height="2.54" data-name="Rectangle 6" rx="1" transform="translate(14)"/><rect width="2.54" height="2.54" data-name="Rectangle 7" rx="1" transform="translate(17)"/><rect width="2.54" height="2.54" data-name="Rectangle 8" rx="1" transform="translate(20)"/><rect width="2.54" height="2.54" data-name="Rectangle 9" rx="1" transform="translate(23.02)"/><rect width="2.54" height="2.54" data-name="Rectangle 10" rx="1" transform="translate(26.02)"/><rect width="2.54" height="2.54" data-name="Rectangle 11" rx="1" transform="translate(29.03)"/><rect width="2.54" height="2.54" data-name="Rectangle 12" rx="1" transform="translate(32.03)"/><path fill-rule="evenodd" d="M.52 0H6.9a.5.5 0 0 1 .52.52v1.5a.5.5 0 0 1-.52.52H.52A.5.5 0 0 1 0 2.02V.52A.5.5 0 0 1 .52 0m35.13 0h6.39a.5.5 0 0 1 .52.52v1.5a.5.5 0 0 1-.52.52h-6.39a.5.5 0 0 1-.52-.52V.52a.5.5 0 0 1 .52-.52" data-name="Path 51"/></g><g fill="#4a4a4a" data-name="Group 3" transform="translate(.73 4.88)"><path fill-rule="evenodd" d="M.52 0h2.44a.5.5 0 0 1 .52.52v1.5a.5.5 0 0 1-.52.52H.52A.5.5 0 0 1 0 2.02V.52A.5.5 0 0 1 .52 0" data-name="Path 52"/><rect width="2.54" height="2.54" data-name="Rectangle 13" rx="1" transform="translate(3.94)"/><rect width="2.54" height="2.54" data-name="Rectangle 14" rx="1" transform="translate(6.95)"/><rect width="2.54" height="2.54" data-name="Rectangle 15" rx="1" transform="translate(9.96)"/><rect width="2.54" height="2.54" data-name="Rectangle 16" rx="1" transform="translate(12.96)"/><rect width="2.54" height="2.54" data-name="Rectangle 17" rx="1" transform="translate(15.97)"/><rect width="2.54" height="2.54" data-name="Rectangle 18" rx="1" transform="translate(18.98)"/><rect width="2.54" height="2.54" data-name="Rectangle 19" rx="1" transform="translate(21.98)"/><rect width="2.54" height="2.54" data-name="Rectangle 20" rx="1" transform="translate(24.99)"/><rect width="2.54" height="2.54" data-name="Rectangle 21" rx="1" transform="translate(28)"/><rect width="2.54" height="2.54" data-name="Rectangle 22" rx="1" transform="translate(31)"/><rect width="2.54" height="2.54" data-name="Rectangle 23" rx="1" transform="translate(34)"/><rect width="2.54" height="2.54" data-name="Rectangle 24" rx="1" transform="translate(37.01)"/><rect width="2.54" height="2.54" data-name="Rectangle 25" rx="1" transform="translate(40.02)"/></g><g fill="#4a4a4a" data-name="Group 4" transform="matrix(-1 0 0 -1 43.28 4.54)"><path fill-rule="evenodd" d="M.52 0h2.44a.5.5 0 0 1 .52.52v1.5a.5.5 0 0 1-.52.52H.52A.5.5 0 0 1 0 2.02V.52A.5.5 0 0 1 .52 0" data-name="Path 53"/><rect width="2.54" height="2.54" data-name="Rectangle 26" rx="1" transform="translate(3.94)"/><rect width="2.54" height="2.54" data-name="Rectangle 27" rx="1" transform="translate(6.95)"/><rect width="2.54" height="2.54" data-name="Rectangle 28" rx="1" transform="translate(9.96)"/><rect width="2.54" height="2.54" data-name="Rectangle 29" rx="1" transform="translate(12.96)"/><rect width="2.54" height="2.54" data-name="Rectangle 30" rx="1" transform="translate(15.97)"/><rect width="2.54" height="2.54" data-name="Rectangle 31" rx="1" transform="translate(18.98)"/><rect width="2.54" height="2.54" data-name="Rectangle 32" rx="1" transform="translate(21.98)"/><rect width="2.54" height="2.54" data-name="Rectangle 33" rx="1" transform="translate(24.99)"/><rect width="2.54" height="2.54" data-name="Rectangle 34" rx="1" transform="translate(28)"/><rect width="2.54" height="2.54" data-name="Rectangle 35" rx="1" transform="translate(31)"/><rect width="2.54" height="2.54" data-name="Rectangle 36" rx="1" transform="translate(34)"/><rect width="2.54" height="2.54" data-name="Rectangle 37" rx="1" transform="translate(37.01)"/><rect width="2.54" height="2.54" data-name="Rectangle 38" rx="1" transform="translate(40.02)"/><rect width="2.54" height="2.54" data-name="Rectangle 39" rx="1" transform="translate(3.94)"/><rect width="2.54" height="2.54" data-name="Rectangle 40" rx="1" transform="translate(6.95)"/><rect width="2.54" height="2.54" data-name="Rectangle 41" rx="1" transform="translate(9.96)"/><rect width="2.54" height="2.54" data-name="Rectangle 42" rx="1" transform="translate(12.96)"/><rect width="2.54" height="2.54" data-name="Rectangle 43" rx="1" transform="translate(15.97)"/><rect width="2.54" height="2.54" data-name="Rectangle 44" rx="1" transform="translate(18.98)"/><rect width="2.54" height="2.54" data-name="Rectangle 45" rx="1" transform="translate(21.98)"/><rect width="2.54" height="2.54" data-name="Rectangle 46" rx="1" transform="translate(24.99)"/><rect width="2.54" height="2.54" data-name="Rectangle 47" rx="1" transform="translate(28)"/><rect width="2.54" height="2.54" data-name="Rectangle 48" rx="1" transform="translate(31)"/><rect width="2.54" height="2.54" data-name="Rectangle 49" rx="1" transform="translate(34)"/><rect width="2.54" height="2.54" data-name="Rectangle 50" rx="1" transform="translate(37.01)"/><rect width="2.54" height="2.54" data-name="Rectangle 51" rx="1" transform="translate(40.02)"/></g><g fill="#4a4a4a" data-name="Group 6"><path fill-rule="evenodd" d="M1.25 7.88h3.47a.5.5 0 0 1 .52.52v1.5a.5.5 0 0 1-.52.52H1.25a.5.5 0 0 1-.52-.52V8.4a.5.5 0 0 1 .52-.52" data-name="Path 54"/><g data-name="Group 5" transform="translate(5.8 7.88)"><rect width="2.54" height="2.54" data-name="Rectangle 52" rx="1"/><rect width="2.54" height="2.54" data-name="Rectangle 53" rx="1" transform="translate(3)"/><rect width="2.54" height="2.54" data-name="Rectangle 54" rx="1" transform="translate(6.01)"/><rect width="2.54" height="2.54" data-name="Rectangle 55" rx="1" transform="translate(9.02)"/><rect width="2.54" height="2.54" data-name="Rectangle 56" rx="1" transform="translate(12.03)"/><rect width="2.54" height="2.54" data-name="Rectangle 57" rx="1" transform="translate(15.03)"/><rect width="2.54" height="2.54" data-name="Rectangle 58" rx="1" transform="translate(18.04)"/><rect width="2.54" height="2.54" data-name="Rectangle 59" rx="1" transform="translate(21.04)"/><rect width="2.54" height="2.54" data-name="Rectangle 60" rx="1" transform="translate(24.05)"/><rect width="2.54" height="2.54" data-name="Rectangle 61" rx="1" transform="translate(27.05)"/><rect width="2.54" height="2.54" data-name="Rectangle 62" rx="1" transform="translate(30.06)"/></g><path fill-rule="evenodd" d="M39.48 7.88h3.28a.5.5 0 0 1 .52.52v1.5a.5.5 0 0 1-.52.52h-3.28a.5.5 0 0 1-.52-.52V8.4a.5.5 0 0 1 .52-.52" data-name="Path 55"/></g><g fill="#4a4a4a" data-name="Group 7" transform="translate(.73 14.08)"><rect width="2.54" height="2.54" data-name="Rectangle 63" rx="1"/><rect width="2.54" height="2.54" data-name="Rectangle 64" rx="1" transform="translate(3)"/><rect width="2.54" height="2.54" data-name="Rectangle 65" rx="1" transform="translate(6.01)"/><rect width="2.54" height="2.54" data-name="Rectangle 66" rx="1" transform="translate(9.02)"/><path fill-rule="evenodd" d="M12.54 0h14.47a.5.5 0 0 1 .51.52v1.5a.5.5 0 0 1-.51.52H12.54a.5.5 0 0 1-.52-.52V.52a.5.5 0 0 1 .52-.52m15.97 0h1.88a.5.5 0 0 1 .52.52v1.5a.5.5 0 0 1-.52.52H28.5a.5.5 0 0 1-.52-.52V.52A.5.5 0 0 1 28.5 0" data-name="Path 56"/><rect width="2.54" height="2.54" data-name="Rectangle 67" rx="1" transform="translate(31.38)"/><rect width="2.54" height="2.54" data-name="Rectangle 68" rx="1" transform="translate(34.38)"/><rect width="2.54" height="2.54" data-name="Rectangle 69" rx="1" transform="translate(40.02)"/><path d="M37.2 1.08V.52a.5.5 0 0 1 .52-.52h1.5a.5.5 0 0 1 .52.52v.56Z" data-name="Path 57"/><path d="M39.74 1.46v.56a.5.5 0 0 1-.52.52h-1.5a.5.5 0 0 1-.52-.52v-.56Z" data-name="Path 58"/></g><rect width="42.27" height="1.13" fill="#4a4a4a" data-name="Rectangle 70" rx=".56" transform="translate(.92 .56)"/><rect width="2.37" height=".75" fill="#d8d8d8" data-name="Rectangle 71" opacity=".14" rx=".38" transform="translate(1.95 .74)"/><rect width="2.37" height=".75" fill="#d8d8d8" data-name="Rectangle 72" opacity=".14" rx=".38" transform="translate(5.2 .74)"/><rect width="2.37" height=".75" fill="#d8d8d8" data-name="Rectangle 73" opacity=".14" rx=".38" transform="translate(7.69 .74)"/><rect width="2.37" height=".75" fill="#d8d8d8" data-name="Rectangle 74" opacity=".14" rx=".38" transform="translate(10.18 .74)"/><rect width="2.37" height=".75" fill="#d8d8d8" data-name="Rectangle 75" opacity=".14" rx=".38" transform="translate(12.68 .74)"/><rect width="2.37" height=".75" fill="#d8d8d8" data-name="Rectangle 76" opacity=".14" rx=".38" transform="translate(15.8 .74)"/><rect width="2.37" height=".75" fill="#d8d8d8" data-name="Rectangle 77" opacity=".14" rx=".38" transform="translate(18.3 .74)"/><rect width="2.37" height=".75" fill="#d8d8d8" data-name="Rectangle 78" opacity=".14" rx=".38" transform="translate(20.79 .74)"/><rect width="2.37" height=".75" fill="#d8d8d8" data-name="Rectangle 79" opacity=".14" rx=".38" transform="translate(23.28 .74)"/><rect width="2.37" height=".75" fill="#d8d8d8" data-name="Rectangle 80" opacity=".14" rx=".38" transform="translate(26.4 .74)"/><rect width="2.37" height=".75" fill="#d8d8d8" data-name="Rectangle 81" opacity=".14" rx=".38" transform="translate(28.9 .74)"/><rect width="2.37" height=".75" fill="#d8d8d8" data-name="Rectangle 82" opacity=".14" rx=".38" transform="translate(31.4 .74)"/><rect width="2.37" height=".75" fill="#d8d8d8" data-name="Rectangle 83" opacity=".14" rx=".38" transform="translate(34.51 .74)"/><rect width="2.37" height=".75" fill="#d8d8d8" data-name="Rectangle 84" opacity=".14" rx=".38" transform="translate(37 .74)"/><rect width="2.37" height=".75" fill="#d8d8d8" data-name="Rectangle 85" opacity=".14" rx=".38" transform="translate(39.5 .74)"/></g><path fill="#44d860" fill-rule="evenodd" d="m303 425.9-.34.03-.06-.24a2.6 2.6 0 1 0-2.56-4.45l-.18-.18a2.6 2.6 0 1 0-4.46-2.56q-.1-.04-.23-.06a2.6 2.6 0 1 0-5.13 0l-.23.06a2.6 2.6 0 1 0-4.46 2.56 10.38 10.38 0 1 0 17.31 10 2.6 2.6 0 1 0 .34-5.16" data-name="Path 59"/><path fill="#3ecc5f" fill-rule="evenodd" d="M271.83 407.71h20.78v-10.39h-20.78Z" data-name="Path 60"/><path fill="#44d860" fill-rule="evenodd" d="M297.8 403.82a1.3 1.3 0 1 0 0-2.6l-.17.01-.03-.11a1.3 1.3 0 0 0-.5-2.5 1.3 1.3 0 0 0-.78.27l-.09-.09a1.3 1.3 0 0 0 .27-.78 1.3 1.3 0 0 0-2.5-.5 5.2 5.2 0 1 0 0 10 1.3 1.3 0 0 0 2.5-.51 1.3 1.3 0 0 0-.27-.78l.1-.09a1.3 1.3 0 0 0 .77.27 1.3 1.3 0 0 0 .5-2.5l.03-.12z" data-name="Path 61"/><path fill-rule="evenodd" d="m303 365.5-.26-.02-.24-.07-.23-.12-.2-.16-.16-.2a1.3 1.3 0 0 1-.22-.72l.03-.26.07-.24.12-.23a1 1 0 0 1 .36-.35l.22-.12.25-.08a1 1 0 0 1 .5 0 1 1 0 0 1 .48.2l.2.16.16.2.12.22a1 1 0 0 1 .1.5 1.3 1.3 0 0 1-.38.92l-.2.16-.23.12a1 1 0 0 1-.5.1m10.4-.65a1.3 1.3 0 0 1-.93-.38l-.16-.2a1.3 1.3 0 0 1-.22-.72 1.3 1.3 0 0 1 .38-.92l.2-.16.23-.12.24-.07a1 1 0 0 1 .51 0 1 1 0 0 1 .47.19l.2.16a1.3 1.3 0 0 1 .38.92l-.03.25-.07.25-.12.22-.16.2-.2.16a1.3 1.3 0 0 1-.72.22" data-name="Path 62"/><g fill="#61dafb" transform="translate(466.3 278.56)"><path d="M263.67 117.18c0-5.83-7.3-11.35-18.49-14.78 2.58-11.4 1.44-20.47-3.62-23.38a8 8 0 0 0-4.02-1v4a4 4 0 0 1 2.05.47c2.44 1.4 3.5 6.72 2.67 13.57q-.31 2.54-.91 5.27a87 87 0 0 0-11.4-1.95 88 88 0 0 0-7.45-8.96c5.85-5.44 11.33-8.42 15.06-8.42v-4c-4.93 0-11.38 3.51-17.91 9.61-6.53-6.06-12.98-9.54-17.91-9.54v4c3.7 0 9.21 2.96 15.06 8.36a85 85 0 0 0-7.4 8.94 84 84 0 0 0-11.4 1.98q-.62-2.7-.94-5.2c-.84-6.85.2-12.18 2.62-13.6a4 4 0 0 1 2.06-.46v-4a8 8 0 0 0-4.05 1c-5.04 2.9-6.17 11.96-3.57 23.33-11.15 3.44-18.41 8.94-18.41 14.75 0 5.83 7.3 11.35 18.48 14.78-2.58 11.4-1.43 20.48 3.63 23.38a8 8 0 0 0 4.03 1c4.93 0 11.39-3.51 17.91-9.61 6.53 6.06 12.98 9.54 17.92 9.54a8 8 0 0 0 4.05-1c5.04-2.9 6.17-11.96 3.57-23.33 11.1-3.42 18.37-8.94 18.37-14.75m-23.35-11.96a80 80 0 0 1-2.42 7.08 97 97 0 0 0-4.93-8.5q3.83.56 7.35 1.42m-8.21 19.1a96 96 0 0 1-4.32 6.85 93 93 0 0 1-16.17.02q-2.23-3.2-4.34-6.82-2.04-3.52-3.73-7.13a94 94 0 0 1 8.03-14 93 93 0 0 1 16.17-.02q2.24 3.2 4.34 6.8 2.05 3.53 3.73 7.15a101 101 0 0 1-3.71 7.14Zm5.8-2.33q1.44 3.62 2.47 7.13a80 80 0 0 1-7.4 1.44 101 101 0 0 0 4.92-8.58Zm-18.19 19.13a74 74 0 0 1-4.99-5.74q2.43.11 4.94.12 2.53 0 4.98-.12a70 70 0 0 1-4.93 5.74m-13.34-10.56q-3.82-.57-7.35-1.42c.66-2.31 1.49-4.7 2.42-7.08q1.09 2.14 2.35 4.3c1.26 2.16 1.7 2.83 2.58 4.2m13.25-37.32a74 74 0 0 1 4.99 5.74q-2.43-.12-4.94-.13-2.53 0-4.98.13a70 70 0 0 1 4.93-5.74m-13.27 10.56a101 101 0 0 0-4.91 8.55q-1.46-3.62-2.47-7.14a90 90 0 0 1 7.38-1.41m-16.23 22.45c-6.34-2.7-10.45-6.26-10.45-9.07s4.1-6.39 10.45-9.08a56 56 0 0 1 4.97-1.8 86 86 0 0 0 4.04 10.91 85 85 0 0 0-3.98 10.87 54 54 0 0 1-5.03-1.83m9.65 25.62c-2.44-1.4-3.5-6.72-2.67-13.57q.31-2.54.91-5.27a87 87 0 0 0 11.39 1.95 88 88 0 0 0 7.46 8.97c-5.85 5.43-11.33 8.4-15.06 8.4a4 4 0 0 1-2.03-.47Zm42.53-13.66c.85 6.85-.2 12.17-2.61 13.6a4 4 0 0 1-2.07.46c-3.7 0-9.21-2.96-15.06-8.36a85 85 0 0 0 7.4-8.95 84 84 0 0 0 11.4-1.97 50 50 0 0 1 .94 5.22m6.9-11.96a56 56 0 0 1-4.96 1.81 86 86 0 0 0-4.04-10.92 85 85 0 0 0 3.98-10.87q2.67.84 5.04 1.83c6.35 2.71 10.46 6.26 10.46 9.08-.02 2.81-4.13 6.38-10.47 9.07Z" data-name="Path 330"/><circle cx="8.19" cy="8.19" r="8.19" data-name="Ellipse 112" transform="translate(211.47 108.98)"/></g></g></svg>