<svg xmlns="http://www.w3.org/2000/svg" width="936.13" height="505.3" viewBox="0 0 936.13 505.3"><path fill="#e4e4e4" d="m59.3 422-2.92 14.66a146 146 0 0 1-.7 3.39 14.3 14.3 0 0 0-7.34.4 69 69 0 0 1 5.04 8.44c-1.84 5.67-4.54 10.9-9.06 14.7a22.7 22.7 0 0 1-21.95 3.86l.13-.58c-4.86-9.43-2.22-21.32 3.82-30.03a58 58 0 0 1 10.85-11.47 175 175 0 0 1 12.86-9.46 5.99 5.99 0 0 1 9.27 6.1"/><path fill="#f2f2f2" d="M23.4 502.7c-1.22-8.96-2.49-18.02-1.63-27.07.77-8.04 3.22-15.89 8.21-22.32a37 37 0 0 1 9.53-8.64c.95-.6 1.83.91.88 1.51a35.3 35.3 0 0 0-13.96 16.85c-3.04 7.73-3.53 16.16-3 24.37.31 4.97.99 9.9 1.66 14.83a.9.9 0 0 1-.6 1.08.9.9 0 0 1-1.08-.61Z" data-name="a4b268fa-75d0-4ac1-9d87-14bdca948464-2189"/><path fill="#e6e6e6" d="M33.95 53.63q64.26-1.11 128.53-.32 64.26.8 128.48 3.53 36.03 1.53 72.04 3.66c1.93.11 1.92-2.89 0-3q-64.16-3.8-128.4-5.68t-128.52-1.84q-36.06.02-72.13.65c-1.93.04-1.93 3.04 0 3m298.54-18.81 18.73-1.4c1.91-.13 1.93-3.13 0-3l-18.73 1.4c-1.92.15-1.93 3.15 0 3m0 18 18.73-1.4c1.91-.13 1.93-3.13 0-3l-18.73 1.4c-1.92.15-1.93 3.15 0 3m-1.41-8.22 26.63 2.42c1.92.18 1.91-2.82 0-3l-26.63-2.42c-1.92-.17-1.91 2.83 0 3M45.04 30.79a6.6 6.6 0 0 0-6.14 4 6 6 0 0 0 1.38 7.1A7.1 7.1 0 0 0 47 43.26a6 6 0 0 0 4.02-5.65 6.7 6.7 0 0 0-4.18-6.46A1.5 1.5 0 0 0 45 32.19a1.54 1.54 0 0 0 1.05 1.85c.26.1-.24-.13 0 0l.3.17.25.15c.28.18-.14-.13.04.03l.45.44c.05.06.26.23.1.11-.12-.09-.05-.07 0 0l.11.16.32.55.06.14c.05.08.1.1 0 0-.09-.1-.03-.1 0 0l.07.19.18.61.06.3c.07.34 0-.22 0 .04q.04.3.03.64l-.01.29L48 38c-.02.23-.02-.09.01-.11a3 3 0 0 0-.13.61l-.09.28c-.1.32.1-.17-.01.05l-.31.55c-.05.07-.23.24-.08.12.16-.13-.09.1-.14.15l-.21.2-.15.14c-.01 0 .25-.18.1-.09q-.25.19-.53.34l-.26.12c0-.04.31-.1.1-.04l-.15.05-.6.16-.15.03c-.15.04.15-.03.16-.02a1 1 0 0 0-.34.03h-.64l-.15-.01c-.11 0-.2-.09-.05 0 .12.07.11.02 0 0l-.14-.03-.62-.15-.33-.11-.14-.05c0-.02.28.13.14.05q-.3-.14-.57-.3l-.29-.18-.11-.09.1.09-.45-.43-.1-.1-.03-.04q-.12-.15 0 0c.07.02.07.1 0 0l-.09-.13a3 3 0 0 1-.3-.55s.12.36.03.08l-.06-.15-.09-.32-.06-.31c-.05-.18.02.13.02.13-.03-.03-.02-.18-.02-.22l.02-.7c0-.18-.02.15-.02.14l.03-.16.08-.37.14-.42.05-.15c.07-.19-.12.23-.02.06.15-.23.25-.49.4-.72l.14-.2.16-.2c.19-.2.4-.36.6-.56.1-.12-.08.06-.1.07l.18-.13.32-.2.38-.2c.14-.1-.1.03-.1.03l.2-.07c.1-.04.61-.26.72-.2 0 0-.38.04-.08.02l.22-.02h.44a1.5 1.5 0 0 0 1.5-1.5 1.53 1.53 0 0 0-1.5-1.5m21.01.02a6.6 6.6 0 0 0-6.14 4 6 6 0 0 0 1.38 7.1A7.1 7.1 0 0 0 68 43.26a6 6 0 0 0 4.02-5.65 6.7 6.7 0 0 0-4.18-6.46A1.5 1.5 0 0 0 66 32.19a1.54 1.54 0 0 0 1.05 1.85c.26.1-.24-.13 0 0l.3.17.25.15c.28.18-.14-.13.04.03l.45.44c.05.06.26.23.1.11-.12-.09-.05-.07 0 0l.11.16.32.55.06.14c.05.08.1.1 0 0-.09-.1-.03-.1 0 0l.07.19.18.61.06.3c.07.34 0-.22 0 .04q.04.3.03.64l-.01.29L69 38c-.02.23-.02-.09.01-.11a3 3 0 0 0-.13.61l-.09.28c-.1.32.1-.17-.01.05l-.31.55c-.05.07-.23.24-.08.12.16-.13-.09.1-.14.15l-.21.2-.15.14c-.01 0 .25-.18.1-.09q-.25.19-.53.34l-.26.12c0-.04.31-.1.1-.04l-.15.05-.6.16-.15.03c-.15.04.15-.03.16-.02a1 1 0 0 0-.34.03h-.64l-.15-.01c-.11 0-.2-.09-.05 0 .12.07.11.02 0 0l-.14-.03-.62-.15-.33-.11-.14-.05c0-.02.28.13.14.05q-.3-.14-.57-.3l-.29-.18-.11-.09.1.09-.45-.43-.1-.1-.03-.04q-.12-.15 0 0c.07.02.07.1 0 0l-.09-.13a3 3 0 0 1-.3-.55s.12.36.03.08l-.06-.15-.09-.32-.06-.31c-.05-.18.02.13.02.13-.03-.03-.02-.18-.02-.22l.02-.7c0-.18-.02.15-.02.14l.03-.16.08-.37.14-.42.05-.15c.07-.19-.12.23-.02.06.15-.23.25-.49.4-.72l.14-.2.16-.2c.19-.2.4-.36.6-.56.1-.12-.08.06-.1.07l.18-.13.32-.2.38-.2c.14-.1-.1.03-.1.03l.2-.07c.1-.04.61-.26.72-.2 0 0-.38.04-.08.02l.22-.02h.44a1.5 1.5 0 0 0 1.5-1.5 1.53 1.53 0 0 0-1.5-1.5m21.01.02a6.6 6.6 0 0 0-6.14 4 6 6 0 0 0 1.38 7.1A7.1 7.1 0 0 0 89 43.26a6 6 0 0 0 4.02-5.65 6.7 6.7 0 0 0-4.18-6.46A1.5 1.5 0 0 0 87 32.19a1.54 1.54 0 0 0 1.05 1.85c.26.1-.24-.13 0 0l.3.17.25.15c.28.18-.14-.13.04.03l.45.44c.05.06.26.23.1.11-.12-.09-.05-.07 0 0l.11.16.32.55.06.14c.05.08.1.1 0 0-.09-.1-.03-.1 0 0l.07.19.18.61.06.3c.07.34 0-.22 0 .04q.04.3.03.64l-.01.29L90 38c-.02.23-.02-.09.01-.11a3 3 0 0 0-.13.61l-.09.28c-.1.32.1-.17-.01.05l-.31.55c-.05.07-.23.24-.08.12.16-.13-.09.1-.14.15l-.21.2-.15.14c-.01 0 .25-.18.1-.09q-.25.19-.53.34l-.26.12c0-.04.31-.1.1-.04l-.15.05-.6.16-.15.03c-.15.04.15-.03.16-.02a1 1 0 0 0-.34.03h-.64l-.15-.01c-.11 0-.2-.09-.05 0 .12.07.11.02 0 0l-.14-.03-.62-.15-.33-.11-.14-.05c0-.02.28.13.14.05q-.3-.14-.57-.3l-.29-.18-.11-.09.1.09-.45-.43-.1-.1-.03-.04q-.12-.15 0 0c.07.02.07.1 0 0l-.09-.13a3 3 0 0 1-.3-.55s.12.36.03.08l-.06-.15-.09-.32-.06-.31c-.05-.18.02.13.02.13-.03-.03-.02-.18-.02-.22l.02-.7c0-.18-.02.15-.02.14l.03-.16.08-.37.14-.42.05-.15c.07-.19-.12.23-.02.06.15-.23.25-.49.4-.72l.14-.2.16-.2c.19-.2.4-.36.6-.56.1-.12-.08.06-.1.07l.18-.13.32-.2.38-.2c.14-.1-.1.03-.1.03l.2-.07c.1-.04.61-.26.72-.2 0 0-.38.04-.08.02l.22-.02h.44a1.5 1.5 0 0 0 1.5-1.5 1.53 1.53 0 0 0-1.5-1.5"/><path fill="#e6e6e6" d="M390.41 363H22.51a17.57 17.57 0 0 1-17.55-17.55V17.55A17.57 17.57 0 0 1 22.5 0h367.9a17.57 17.57 0 0 1 17.55 17.55v327.9A17.57 17.57 0 0 1 390.4 363M22.51 2A15.57 15.57 0 0 0 6.96 17.55v327.9A15.57 15.57 0 0 0 22.5 361h367.9a15.57 15.57 0 0 0 15.55-15.55V17.55A15.57 15.57 0 0 0 390.4 2Z"/><path fill="#e6e6e6" d="m21.9 223.1 129.38-.39 128.71-.39 72.62-.22a1.5 1.5 0 0 0 0-3l-129.38.4-128.72.39-72.61.22a1.5 1.5 0 0 0 0 3"/><path fill="#e6e6e6" d="m87.17 220.67.8-47.23c.03-1.93-2.97-1.93-3 0l-.8 47.23c-.04 1.94 2.96 1.94 3 0m61.83.51 1.95-59.37.56-16.96c.06-1.93-2.94-1.93-3 0l-1.95 59.37-.56 16.96c-.06 1.94 2.94 1.93 3 0m61.67-104.48c-1.18 21.03-3.35 83.06-4.53 104.1-.1 1.92 2.9 1.91 3 0 1.18-21.04 3.35-83.07 4.53-104.1.1-1.93-2.9-1.92-3 0m61.37 82.99-.37 20.21c-.03 1.93 2.97 1.93 3 0 .44-23.87 1.55-23.1 1.67-29.83.04-1.93-2.96-1.93-3 0 0 0-.86-14.25-1.3 9.62m60.11-53.1.34 56.7.1 16.25a1.5 1.5 0 0 0 3 0l-.34-56.71-.1-16.24a1.5 1.5 0 0 0-3 0"/><path fill="#e6e6e6" d="M22.14 221.42c-2.49-6.83 3.11-13.39 8.86-16.34 6.9-3.53 14.82-4.33 21.79-7.74 10.38-5.08 17.94-14.19 24.67-23.31 6.93-9.4 13.26-19.47 22.06-27.27a44 44 0 0 1 16.07-9.3c7.5-2.34 15.46-2.5 23.21-1.56 16.02 1.95 30.87 8.57 46.33 12.77 14.57 3.97 30.62 6.2 44.93.03 7.26-3.13 13.2-8.38 19.59-12.93a65 65 0 0 1 20.4-9.84c14.37-4 30.05-2.93 43.41 3.82a58.2 58.2 0 0 1 27.47 29c6.34 15.13 5.51 32.05 3.44 47.98-.53 4.12-1.17 8.23-1.81 12.33-.3 1.89 2.6 2.7 2.9.8 2.57-16.44 5.14-33.39 1.93-49.92a60.5 60.5 0 0 0-22.33-36.38 62 62 0 0 0-40.91-12.9 67 67 0 0 0-22.47 4.99c-7.42 3.07-13.7 7.62-20.09 12.4-6.56 4.92-13.32 9-21.47 10.6-7.9 1.56-16.12.97-23.99-.5-16.23-3.03-31.36-9.98-47.45-13.54-14.92-3.3-31-3.63-44.36 4.79-10.27 6.48-17.53 16.54-24.5 26.25-6.9 9.63-13.9 19.93-23.99 26.5-6.16 4.02-13.08 5.5-19.97 7.76-6.9 2.26-13.54 6.07-16.35 13.15a12.8 12.8 0 0 0-.27 9.16c.66 1.8 3.56 1.02 2.9-.8m64.03-54.51h.01z"/><path fill="#e6e6e6" d="M91.37 164.15a5.96 5.96 0 0 0-7.22-2.68 5.3 5.3 0 0 0-2.99 2.79q-.08.2-.14.41l-.2.31a5.96 5.96 0 0 0 9.3 7.12 6.4 6.4 0 0 0 1.25-7.95m-3.75 2.54c0 .08 0 .15 0 0m-.39-.87q-.02-.01 0 0m-1.68.68q-.03-.05 0 0m.4.34c.1.03.06.03 0 0m.18.08.04-.01h-.03.03l-.01-.01h.02c.18-.08.05-.04-.05 0v-.01l-.21-.07h-.02c-.06-.05-.35-.27-.08-.04l-.17-.15-.09-.11-.1-.19v-.03l-.02-.06v-.05l.05-.17v-.01l.13-.2c-.22.34.09-.03.1-.08l.02-.01.2-.13c.08-.04.4-.13.07-.04l.23-.07.18-.03h.19c-.06.01.19.07.26.08l.03.02.2.13c-.29-.19 0 .01.06.07l.1.1.07.1.15.27.01.02v.01l.12.4v.04l.02.23v.02a1.6 1.6 0 0 0-1.5-.02m69.24-30.77a5.96 5.96 0 0 0-7.22-2.68 5.3 5.3 0 0 0-2.99 2.79q-.08.2-.14.41l-.2.31a5.96 5.96 0 0 0 9.3 7.12 6.4 6.4 0 0 0 1.25-7.95m-3.75 2.54c0 .08 0 .15 0 0m-.39-.87q-.01-.01 0 0m-1.68.68q-.03-.05 0 0m.4.34c.1.03.06.03 0 0m.18.08.04-.01h-.03.03l-.01-.01h.02c.18-.08.05-.04-.05 0v-.01l-.21-.07h-.02c-.06-.05-.35-.27-.08-.04l-.17-.15-.09-.11-.1-.19v-.03l-.02-.06v-.05l.05-.17v-.01l.13-.2c-.22.34.09-.03.1-.08l.02-.01.2-.13c.08-.04.4-.13.07-.04l.23-.07.18-.03h.19c-.06.01.19.07.26.08l.03.02.2.13c-.29-.19 0 .01.06.07l.1.1.07.1.15.27.01.02v.01l.12.4v.04l.02.23v.02a1.6 1.6 0 0 0-1.5-.02m67.24-30.77a5.96 5.96 0 0 0-7.22-2.68 5.3 5.3 0 0 0-2.99 2.79q-.09.2-.14.41l-.2.31a5.96 5.96 0 0 0 9.3 7.12 6.4 6.4 0 0 0 1.25-7.95m-3.75 2.54c0 .08 0 .15 0 0m-.39-.87q-.01-.02 0 0m-1.68.68q-.03-.05 0 0m.4.34c.1.03.06.03 0 0m.18.08.04-.01h-.03.03l-.01-.01h.02c.18-.08.05-.04-.05 0v-.01l-.21-.07h-.02c-.06-.05-.35-.27-.08-.04l-.17-.15-.09-.11-.1-.19v-.03l-.02-.06v-.05l.05-.17v-.01l.13-.2c-.22.34.09-.03.1-.08l.02-.01.2-.13c.08-.04.4-.13.07-.04l.23-.07.18-.03h.19c-.06.01.19.07.26.08l.03.02.2.13c-.29-.19 0 .01.06.07l.1.1.07.1.15.27.01.02v.01l.12.4v.04l.02.23v.02a1.6 1.6 0 0 0-1.5-.02m68.24 74.23a5.96 5.96 0 0 0-7.22-2.68 5.3 5.3 0 0 0-2.99 2.79q-.09.2-.14.41l-.2.31a5.96 5.96 0 0 0 9.3 7.12 6.4 6.4 0 0 0 1.25-7.95m-3.75 2.54c0 .08 0 .15 0 0m-.39-.87q-.01-.01 0 0m-1.68.68q-.03-.05 0 0m.4.34c.1.03.06.03 0 0m.18.08.04-.01h-.03.03l-.01-.01h.02c.18-.08.05-.04-.05 0v-.01l-.21-.07h-.02c-.06-.05-.35-.27-.08-.04l-.17-.15-.09-.11-.1-.19v-.03l-.02-.06v-.05l.05-.17v-.01l.13-.2c-.22.34.09-.03.1-.08l.02-.01.2-.13c.08-.04.4-.13.07-.04l.23-.07.18-.03h.19c-.06.01.19.07.26.08l.03.02.2.13c-.29-.19 0 .01.06.07l.1.1.07.1.15.27.01.02v.01l.12.4v.04l.02.23v.02a1.6 1.6 0 0 0-1.5-.02m64.24-48.77a5.96 5.96 0 0 0-7.22-2.68 5.3 5.3 0 0 0-2.99 2.79q-.09.2-.14.41l-.2.31a5.96 5.96 0 0 0 9.3 7.12 6.4 6.4 0 0 0 1.25-7.95m-3.75 2.54c0 .08 0 .15 0 0m-.39-.87q-.01-.01 0 0m-1.68.68q-.03-.05 0 0m.4.34c.1.03.06.03 0 0m.18.08.04-.01h-.03.03l-.01-.01h.02c.18-.08.05-.04-.05 0v-.01l-.21-.07h-.02c-.06-.05-.35-.27-.08-.04l-.17-.15-.09-.11-.1-.19v-.03l-.02-.06v-.05l.05-.17v-.01l.13-.2c-.22.34.09-.03.1-.08l.02-.01.2-.13c.08-.04.4-.13.07-.04l.23-.07.18-.03h.19c-.06.01.19.07.26.08l.03.02.2.13c-.29-.19 0 .01.06.07l.1.1.07.1.15.27.01.02v.01l.12.4v.04l.02.23v.02a1.6 1.6 0 0 0-1.5-.02m.05-.02"/><path fill="#3f3d56" d="m318 187.73-46.5 2.59a1.03 1.03 0 0 1-.22-2.04l47.53-7.73Z"/><path fill="#ffb6b6" d="m377.1 291.25 17.52-29.48 12.95 6.12s-22.32 27.87-23.03 28.67a6.86 6.86 0 1 1-7.45-5.31"/><path fill="#531047" d="m384.38 222.77 28.39 14.81a15.7 15.7 0 0 1 2.66 23.08l-19.57 22.45-8.53-11.55 6.58-13.74-12.73-3.36Z"/><path fill="#ffb6b6" d="m303.49 188.21-3.2 34.15-14.32.02s8.21-34.74 8.51-35.77a6.86 6.86 0 1 1 9 1.6"/><path fill="#531047" d="m332 258.04-32.97-6.05c-13.88-1.67-19.58-10.8-17.07-19.71l8.06-28.67 12.65 6.78-.05 15.23 17.72-2.42Z"/><path fill="#ffb6b6" d="M318.5 493.99h-9.06l-4.31-34.96h13.37z"/><path fill="#2f2e41" d="M318.82 503.45h-27.87v-.36a10.85 10.85 0 0 1 10.85-10.84l5.09-3.87 9.5 3.87h2.43Z"/><path fill="#ffb6b6" d="M382.64 493.99h9.06l4.31-34.96h-13.38z"/><path fill="#2f2e41" d="M382.32 503.45h27.87v-.36a10.85 10.85 0 0 0-10.85-10.84l-5.1-3.87-9.5 3.87h-2.42Zm-77.59-70.11c.13-2 1.2-13.03 1.2-13.03l2.54-23.4 4.5-62.02 4-16.3 19.83 7.72 16.09-7.71 19.12 6.11 14.88 5.59s.03 2.39.15 5.27c.15 3.78.42 8.42 1.05 9.62 1.07 2.13.8 13.56.8 13.56s1.06 23.25 2.39 25.8 1.6 7.86 1.2 8.92 1.33 28.99 1.33 28.99 4.45 49.41 1.66 56.86-13.34 2.57-13.34 2.57.5-1.99-2.55-2.92-12.38-71-12.38-71-1.73-14.37-3.33-18.49-3.06-15.68-3.06-15.68-9.84-19.15-9.96-23.4c0 0-1.3-4-2.5.4s-4.81 14.88-4.81 14.88l-3.5 12.9-4.12 19.28-2.67 16.22s-3.99 21.54-4.62 22.47 0 20.6 0 20.6-3.09 16.76-7.45 19.69-15.9.04-15.9.04-.69-41.55-.55-43.54"/><path fill="#531047" d="M319.55 266.13 317 298.95l-3.8 3.94a3.67 3.67 0 0 0 .19 5.29l-2.1 3.6-.74 11.32a6.16 6.16 0 0 0 5.7 7.6l65.63 3.07a6.16 6.16 0 0 0 6.4-6.96l-5.59-42.01v-3.14l-2.5-6.07 1.29-20.32 2.99-32.26-17.37-4.49-9.4-6.47-16.36.26-9.93 8.15-13.23 2.07-10 1.99-1.28 2.77 2.55-.56 9.24 36.04Z"/><circle cx="349.16" cy="188.38" r="19.27" fill="#ffb6b6"/><path fill="#2f2e41" d="m344.51 206.4 13.92-.7c1.79-.1 3.73-.25 5.03-1.48a8 8 0 0 0 1.58-2.62q1.93-4.49 3.83-8.98c1.73-4.16 3.43-8.54 3-13.02a8.3 8.3 0 0 0-2.42-5.43 4.6 4.6 0 0 0-5.59-.57 9.5 9.5 0 0 0-4.69-6.81 14.5 14.5 0 0 0-8.26-1.75 20 20 0 0 0-11.36 4.47 25 25 0 0 1-2.9 2.3 4.6 4.6 0 0 1-3.53.65 2.56 2.56 0 0 1-1.88-2.79 4.9 4.9 0 0 0-1.26 6.5 4.5 4.5 0 0 1-4.44-.52 5.43 5.43 0 1 0 5.7 9.18c.84 1.19.52 2.8.41 4.25s.28 3.25 1.68 3.65c1.89.54 3.42-2 5.39-1.98a3 3 0 0 1 2.34 1.51A9 9 0 0 1 342 195l2.51 11.33"/><path fill="#e6e6e6" d="M887.26 379.64c0-2.99-1-5.4-2.23-5.41H549.68c-1.24 0-2.23 2.42-2.24 5.4v122.82a1.1 1.1 0 0 1-1 1.1q-1.35.14-2.7.25h-.07l-1.47.12-.75-1.41a1 1 0 0 1-.13-.52V372.62q0-1.24.09-2.47a32 32 0 0 1 .42-3.35c.94-5.17 3.06-8.68 5.48-8.69h340.08a3 3 0 0 1 1.02.22 4 4 0 0 1 1.27.89 8 8 0 0 1 1.24 1.7 22 22 0 0 1 2.34 8.86v.1q.14 1.35.12 2.74l.08 11.93.05 7.1.15 22.33.05 7.92.25 81.38a1.1 1.1 0 0 1-1.11 1.11h-4.48a1.1 1.1 0 0 1-1.11-1.11Z"/><path fill="#ccc" d="M796.13 302.3H760a1.93 1.93 0 0 0-1.93 1.93v57.08h40v-57.08a1.93 1.93 0 0 0-1.94-1.93m-17.94 32.43a4.3 4.3 0 0 1-4.27-4.26v-6.59a4.27 4.27 0 0 1 8.53 0v6.59a4.3 4.3 0 0 1-4.26 4.26"/><path fill="#3f3d56" d="M757.95 359.49v5.5a1.1 1.1 0 0 0 1.08 1.08h38.08a1.1 1.1 0 0 0 1.08-1.08v-5.5Z"/><path fill="#e6e6e6" d="M855.97 213.22H701.5a5 5 0 0 0-5 5v104.23a5 5 0 0 0 5 5.01h154.46a5 5 0 0 0 5-5V218.21a5 5 0 0 0-5-5"/><path fill="#fff" d="M854.68 216.83H702.8a2.7 2.7 0 0 0-2.68 2.69v101.64a2.7 2.7 0 0 0 2.68 2.68h151.88a2.7 2.7 0 0 0 2.68-2.68V219.52a2.7 2.7 0 0 0-2.68-2.69"/><path fill="#ccc" d="M825.1 367.99h-90.36a1.66 1.66 0 0 1-1.63-2l1.4-6.67a1.7 1.7 0 0 1 1.63-1.32h87.55a1.7 1.7 0 0 1 1.63 1.32l1.4 6.66a1.66 1.66 0 0 1-1.62 2"/><rect width="2.78" height="1.67" x="736.78" y="359.2" fill="#e6e6e6" rx=".49"/><rect width="2.78" height="1.67" x="742.34" y="359.2" fill="#e6e6e6" rx=".49"/><rect width="2.78" height="1.67" x="747.91" y="359.2" fill="#e6e6e6" rx=".49"/><rect width="2.78" height="1.67" x="753.48" y="359.2" fill="#e6e6e6" rx=".49"/><rect width="2.78" height="1.67" x="759.04" y="359.2" fill="#e6e6e6" rx=".49"/><rect width="2.78" height="1.67" x="764.61" y="359.2" fill="#e6e6e6" rx=".49"/><rect width="2.78" height="1.67" x="770.17" y="359.2" fill="#e6e6e6" rx=".49"/><rect width="2.78" height="1.67" x="775.74" y="359.2" fill="#e6e6e6" rx=".49"/><rect width="2.78" height="1.67" x="781.31" y="359.2" fill="#e6e6e6" rx=".49"/><rect width="2.78" height="1.67" x="786.87" y="359.2" fill="#e6e6e6" rx=".49"/><rect width="2.78" height="1.67" x="792.44" y="359.2" fill="#e6e6e6" rx=".49"/><rect width="2.78" height="1.67" x="798" y="359.2" fill="#e6e6e6" rx=".49"/><rect width="2.78" height="1.67" x="803.57" y="359.2" fill="#e6e6e6" rx=".49"/><rect width="2.78" height="1.67" x="809.14" y="359.2" fill="#e6e6e6" rx=".49"/><rect width="2.78" height="1.67" x="814.7" y="359.2" fill="#e6e6e6" rx=".49"/><rect width="2.78" height="1.67" x="820.27" y="359.2" fill="#e6e6e6" rx=".49"/><rect width="2.78" height="1.67" x="736.71" y="361.98" fill="#e6e6e6" rx=".49"/><rect width="2.78" height="1.67" x="742.28" y="361.98" fill="#e6e6e6" rx=".49"/><rect width="2.78" height="1.67" x="747.85" y="361.98" fill="#e6e6e6" rx=".49"/><rect width="2.78" height="1.67" x="753.41" y="361.98" fill="#e6e6e6" rx=".49"/><rect width="2.78" height="1.67" x="758.98" y="361.98" fill="#e6e6e6" rx=".49"/><rect width="2.78" height="1.67" x="764.54" y="361.98" fill="#e6e6e6" rx=".49"/><rect width="2.78" height="1.67" x="770.11" y="361.98" fill="#e6e6e6" rx=".49"/><rect width="2.78" height="1.67" x="775.68" y="361.98" fill="#e6e6e6" rx=".49"/><rect width="2.78" height="1.67" x="781.24" y="361.98" fill="#e6e6e6" rx=".49"/><rect width="2.78" height="1.67" x="786.81" y="361.98" fill="#e6e6e6" rx=".49"/><rect width="2.78" height="1.67" x="792.37" y="361.98" fill="#e6e6e6" rx=".49"/><rect width="2.78" height="1.67" x="797.94" y="361.98" fill="#e6e6e6" rx=".49"/><rect width="2.78" height="1.67" x="803.5" y="361.98" fill="#e6e6e6" rx=".49"/><rect width="2.78" height="1.67" x="809.07" y="361.98" fill="#e6e6e6" rx=".49"/><rect width="2.78" height="1.67" x="814.64" y="361.98" fill="#e6e6e6" rx=".49"/><rect width="2.78" height="1.67" x="820.2" y="361.98" fill="#e6e6e6" rx=".49"/><rect width="22.26" height="1.67" x="763.43" y="365.32" fill="#e6e6e6" rx=".49"/><path fill="#cacaca" d="M847.04 230.84h-142.1a.57.57 0 0 1 0-1.13h142.1a.57.57 0 0 1 0 1.13"/><ellipse cx="714.61" cy="223.44" fill="#ccc" rx="3.31" ry="3.39"/><ellipse cx="726.05" cy="223.44" fill="#ccc" rx="3.31" ry="3.39"/><ellipse cx="737.49" cy="223.44" fill="#ccc" rx="3.31" ry="3.39"/><path fill="#ccc" d="M840.16 220.9h-8.13a.62.62 0 0 0 0 1.22h8.13a.62.62 0 0 0 0-1.23m0 2.31h-8.13a.62.62 0 0 0 0 1.23h8.13a.62.62 0 0 0 0-1.23m0 2.3h-8.13a.62.62 0 0 0 0 1.24h8.13a.62.62 0 0 0 0-1.23"/><rect width="22.59" height="4.83" x="767.29" y="261.63" fill="#531047" rx="2.42"/><rect width="45.53" height="4.83" x="755.82" y="271.29" fill="#e6e6e6" rx="2.42"/><rect width="45.53" height="4.83" x="755.82" y="280.95" fill="#e6e6e6" rx="2.42"/><path fill="#ffb6b6" d="m524.73 431.45-8.19-3.92 11.25-34.22 12.08 5.78zm54.87-5.52a179 179 0 0 1-5.4 3.27q-.9.54-1.83 1.06v.02h-.03l-.01.01-.93.23-1.33-3.51-.61-1.62-.87-2.3-1.59-4.18-8.35-22.07 13-3.2.48 1.98.24.99 4.54 18.41.93 3.77.03.11.56 2.25.48 1.95.54 2.17Z"/><path fill="#2f2e41" d="M657.12 348.43a243 243 0 0 1-2.5 3.95q-2.37 3.64-4.86 7.18h-.01a17 17 0 0 1-3.2 2.34l-.14.09a12 12 0 0 1-2.68 1.07l-1.02.25a68 68 0 0 1-9.94 1.57l-.5.05c-8.6.63-16.98-.39-25.73-2.05-4.32-.82-8.72-1.8-13.29-2.82l-4.5-1-.36-.07a501 501 0 0 0-6.62-1.41q-4.24-.88-8.8-1.69l.21 4.3a32 32 0 0 0 2.03 9.63c1.3 3.8 2.33 6.8.16 13.07l-1.05 3.03a10.4 10.4 0 0 1-1.06 9.16l-.21.31 8.72 22.08.57 1.43h-19.27l-13.45-26.96-.64-1.28v-.07l1.39-51.81q.02-.69.11-1.38a15.8 15.8 0 0 1 6-10.6 15.2 15.2 0 0 1 11.3-3.1l4.6.6 9.4 1.21 6.61.86.14.02 19.52 2.52 1.4-5.7.26-.1 8.22-3.02 28.43-10.42.07-.02 1.87-.69.23.36.19.33a56 56 0 0 1 4.49 10.42 164 164 0 0 1 4.72 18.03l.14.72.02.06.04.19a17 17 0 0 1-1 9.36"/><path fill="#2f2e41" d="M658.32 329.34q-.14-.59-.32-1.16a82 82 0 0 0-3.33-8.43 136 136 0 0 0-5.15-10.1q-1.47-2.63-3.16-5.48-.85-1.42-1.76-2.9l-.08-.13-.18-.3-28.13 3.77-10.47 1.4-.63 5.22-.15 1.3-.42 3.52v.01l-.56 4.65h-.04l-15.55-2.02-16.02-2.07-8.6-1.11a15.2 15.2 0 0 0-11.3 3.09 15.8 15.8 0 0 0-6 10.6q-.08.64-.1 1.29l-8.12 19.23a124 124 0 0 0-9.18 36.1l-5.95 19.04.85.07 12.61 1.18 3.33.3 7.34-10.7a57 57 0 0 0 2.37-3.76 57 57 0 0 0 3.24-6.52l15.87-37.76 3.64.6q8.35 1.35 16.02 2.2c16.64 1.86 31.05 2 43.87.43q5.4-.66 10.45-1.73 1.85-.39 3.65-.84l.83-.2a15.4 15.4 0 0 0 10.74-10.03 15.7 15.7 0 0 0 .4-8.76m-130.99 96.52-8.86-4.25-1.39-.66-2.21 5.44-15.5 3.41a3.68 3.68 0 0 0-.6 7l15.14 6.17 4.8-4.32-1.17 5.8 5.7 2.33 6.24-19.89Zm54.43-8.39.57 1.43h-.57zm-3.08 1.73-9.28 3.22-1.46.5 2.26 5.44-8.6 13.32a3.68 3.68 0 0 0 4.48 5.39l15.1-6.26.38-6.45 3.24 4.95 5.69-2.36-9.55-18.52Z"/><path fill="#ffb6b6" d="M522.36 220.25a6.6 6.6 0 0 0 9.86 2.23l19.51 12.96.04-12.17-18.54-10.44a6.63 6.63 0 0 0-10.87 7.42"/><path fill="#ccc" d="m536.94 225.88 9.1-10.36 37.08 22 49.14-4.5a16.62 16.62 0 0 1 18.07 18.09 16.64 16.64 0 0 1-18.08 15.01L576.9 261Z"/><path fill="#ccc" d="m651 226.04-.08-.11a35.9 35.9 0 0 0-34.75 18l-4.17 7.35c-13.5 16.5-3.69 27.87-3.1 29.56l-4.69 21.6 1.05 7.22.53 2.14 53.45 27.93c3.05-14.62.1-27.08-10.98-36.6l10.72-33.37a47 47 0 0 0-7.97-43.72"/><path fill="#531047" d="M608.5 388.2h-17.14a3.9 3.9 0 0 1-3.88-3.38 87 87 0 0 1 0-23.47 3.9 3.9 0 0 1 3.81-3.37c5.4-2.42 11.2-2.42 17.27 0a4 4 0 0 1 2.95 1.42 4 4 0 0 1 .82 3.3 53 53 0 0 0 0 20.77 4 4 0 0 1-.82 3.3 3.9 3.9 0 0 1-3 1.42"/><path fill="#fff" d="M606.7 366.93h-14.42a.9.9 0 1 1 0-1.8h14.43a.9.9 0 1 1 0 1.8m-.01 7.22h-14.42a.9.9 0 1 1 0-1.8h14.43a.9.9 0 1 1 0 1.8m-.01 7.21h-14.42a.9.9 0 1 1 0-1.8h14.43a.9.9 0 1 1 0 1.8"/><path fill="#531047" d="M525.5 226.2h-17.14a3.9 3.9 0 0 1-3.88-3.38 87 87 0 0 1 0-23.47 3.9 3.9 0 0 1 3.81-3.37c5.4-2.42 11.2-2.42 17.27 0a4 4 0 0 1 2.95 1.42 4 4 0 0 1 .82 3.3 53 53 0 0 0 0 20.77 4 4 0 0 1-.82 3.3 3.9 3.9 0 0 1-3 1.42"/><path fill="#fff" d="M523.7 204.93h-14.42a.9.9 0 1 1 0-1.8h14.43a.9.9 0 1 1 0 1.8m-.01 7.22h-14.42a.9.9 0 1 1 0-1.8h14.43a.9.9 0 1 1 0 1.8m-.01 7.21h-14.42a.9.9 0 1 1 0-1.8h14.43a.9.9 0 1 1 0 1.8"/><path fill="#531047" d="M224.5 270.2h-17.14a3.9 3.9 0 0 1-3.88-3.38 87 87 0 0 1 0-23.47 3.9 3.9 0 0 1 3.81-3.37c5.4-2.42 11.2-2.42 17.27 0a4 4 0 0 1 2.95 1.42 4 4 0 0 1 .82 3.3 53 53 0 0 0 0 20.77 4 4 0 0 1-.82 3.3 3.9 3.9 0 0 1-3 1.42"/><path fill="#fff" d="M222.7 248.93h-14.42a.9.9 0 1 1 0-1.8h14.43a.9.9 0 1 1 0 1.8m-.01 7.22h-14.42a.9.9 0 1 1 0-1.8h14.43a.9.9 0 1 1 0 1.8m-.01 7.21h-14.42a.9.9 0 1 1 0-1.8h14.43a.9.9 0 1 1 0 1.8"/><path fill="#ffb6b6" d="M613.53 366.27a6.6 6.6 0 0 0 1.64-9.97l11.78-20.25-12.16.69-9.31 19.12a6.63 6.63 0 0 0 8.05 10.41"/><path fill="#ccc" d="m618.28 351.39-10.88-8.48 19.77-38.31-7.4-48.8a16.62 16.62 0 0 1 16.97-19.1 16.64 16.64 0 0 1 16.06 17.16l-1.83 55.55Z"/><path fill="#9e616a" d="M92.39 340.92a6.65 6.65 0 0 0-.93-10.15l10.58-52.56-11.68 3.75-8.47 50.84a6.68 6.68 0 0 0 10.5 8.12"/><path fill="#ccc" d="m108.01 229.71-7.25-5.47s-6.4-.45-7.53 11.08-3.46 34.02-3.46 34.02l-11.1 51.38 15.37 3.37 11.88-55.45 7.13-16.47Z"/><path fill="#9e616a" d="m96.06 313.62 40.85-.68 3.41-27.92H96.06zm36.77 171.81h9.43l4.49-36.38h-13.92zm-59.09.87 9.43-.07 4.23-36.41-12.26 2.82z"/><path fill="#ffb6b6" d="m103.24 260.98-2.14 5.56.43 5.55 41.82 14.49-2.07-24.32-4.7-5.55z"/><circle cx="121.18" cy="196.04" r="14.94" fill="#9e616a"/><path fill="#2f2e41" d="m130.49 480.77 14.9-.89v6.4l14.18 9.78a3.99 3.99 0 0 1-2.26 7.28h-17.75l-3.06-6.32-1.2 6.32h-6.7Zm-59.98.9 14.9-1 .05 6.4 14.24 9.68a3.99 3.99 0 0 1-2.21 7.3l-17.75.12-3.1-6.3-1.16 6.33-6.7.04Zm.29-23.27 6.87-54.9 8.17-57.87c-5.98-11.12 7.5-45.63 7.5-45.63l1.9.1 43.04 8.12v-.04c8.8 24.01 11.72 35.88 11.24 61.45l-1.74 91.94h.55a3.4 3.4 0 0 1 0 6.8H131.3a3.4 3.4 0 1 1 0-6.8h.44L116.11 352.1l-13.24 45.96-14.98 59.92c5.44-1.36 4.6 1.8 4.6 3.59a3.4 3.4 0 0 1-3.4 3.4H72.05a3.4 3.4 0 0 1-1.26-6.56"/><path fill="#ccc" d="m89.98 301.8 1.36-13.63a2.7 2.7 0 0 1 2.46-2.04c.57-6.48 2.95-34.47 3.1-35.7v-.04l1.09-23.2a3.43 3.43 0 0 1 3.2-3.26l5.73-.37a.3.3 0 0 0 .3-.3 4.8 4.8 0 0 1 4.82-4.83h16.98a4.5 4.5 0 0 1 4.47 3.95.3.3 0 0 0 .3.27h.01a8.1 8.1 0 0 1 8.11 6.7c2.32 13.5 6.98 44.15 4.68 61.19-.8 5.93.92 1.23 1.22 6.2a3.7 3.7 0 0 1-.9 2.64 2.63 2.63 0 0 1 1.58 3.35l.3-.08a2.7 2.7 0 0 1-3.3 1.98l-44.42 6.02c-1.46-.37-11.46-7.4-11.09-8.86"/><path fill="#9e616a" d="M208.67 246.42a6.65 6.65 0 0 1-9.36 4.03l-17.18 15.67-2.28-12.06 16.67-13a6.68 6.68 0 0 1 12.15 5.36"/><path fill="#ccc" d="M148.9 234.44s-5.99-13.53-13.55-10.84-3.66 15.82-3.66 15.82l28.42 42.81s40.97-26.29 36-26.47-6.48-9.25-6.48-9.25l-21.66 10.82-.73-3.85-1.18 1.17-3.03-2.38Z"/><circle cx="638.68" cy="198.72" r="20.86" fill="#ffb6b6"/><path fill="#2f2e41" d="M705.62 229.41a18 18 0 0 1-9.94 7 21 21 0 0 1-4.95.84 19 19 0 0 0-1.47-5.5 16 16 0 0 1-.77 5.49 18 18 0 0 1-7.23-1.94 16 16 0 0 1-8.53-11.44c-.89-5.7 1.7-11.3 2.63-17 .94-5.7-.82-12.92-6.4-14.41-4.24-1.14-3.77-.65-7.3 1.97 3.67 5.43-9.89 25.33-15.44 23.6-3.14-.99-5.15-3.87-5.8-3.87-4.36 7.52 3.86 20.18-4.42 22.8l.68-.68c5-6.14-5.45-19.15-.45-25.3 1.4-1.72 2.88-3.76 2.47-5.93-.4-2.07-3.67-3.16-4.63-1.46 1.72-3.96-.83-9.25-5.05-10.26-3.76-.9-3.69.2-7.45.7a19 19 0 0 0-1.37-4.73 15 15 0 0 1-.56 4.81 6 6 0 0 1-3.66-1.32c-3.07-2.47-2.45-7.67.3-10.5s6.82-3.86 10.7-4.52c1.14-7.88 22.87-8.7 25.75-.83 1.23-5.88 8.58-8.93 14.3-7.1s9.68 7.16 11.77 12.79c2.1 5.62 2.68 11.67 3.96 17.53s3.46 11.83 7.94 15.82 11.78 5.3 16.5 1.6a13.2 13.2 0 0 1-1.58 11.84"/><path fill="#e4e4e4" d="m901.3 277-2.92 14.66a146 146 0 0 1-.7 3.39 14.3 14.3 0 0 0-7.34.4 69 69 0 0 1 5.04 8.44c-1.84 5.67-4.54 10.9-9.06 14.7a22.7 22.7 0 0 1-21.95 3.86l.13-.58c-4.86-9.43-2.22-21.32 3.82-30.03a58 58 0 0 1 10.85-11.47 175 175 0 0 1 12.86-9.46 5.99 5.99 0 0 1 9.27 6.1"/><path fill="#f2f2f2" d="M865.4 357.7c-1.22-8.96-2.49-18.02-1.63-27.07.77-8.04 3.22-15.89 8.21-22.32a37 37 0 0 1 9.53-8.64c.95-.6 1.83.91.88 1.51a35.3 35.3 0 0 0-13.96 16.85c-3.04 7.73-3.53 16.16-3 24.37.31 4.97.99 9.9 1.66 14.83a.9.9 0 0 1-.6 1.08.9.9 0 0 1-1.08-.61Z" data-name="a4b268fa-75d0-4ac1-9d87-14bdca948464-2189"/><path fill="#cacaca" d="m934.94 504.99-933.75.3a1.2 1.2 0 0 1 0-2.38l933.75-.3a1.2 1.2 0 0 1 0 2.38"/><path fill="#2f2e41" d="M103.6 186.89c-2.3 1.1-4.86-.56-6.83-2.2l.7.62c-3.5 3.4-5.13 8.3-5.93 13.1-.8 4.82-.88 9.74-1.9 14.52-1 4.77-3.09 9.57-7 12.5-5.22 3.9-12.43 3.66-18.85 2.46l-.25-.05a39 39 0 0 0 2.06-15.53 35.6 35.6 0 0 1-8.55 14.01 82 82 0 0 1-12.42-4.52c-2.59-1.2-5.38-2.83-6.1-5.6-.73-2.74.95-5.62 3.2-7.35s4.99-2.64 7.54-3.87 5.07-2.98 6.1-5.63c2.35-6.08-4.36-13.06-1.75-19.04 1.3-2.94 4.45-4.54 7.42-5.78a109 109 0 0 1 13.92-4.7c4.17-1.1 8.51-1.95 12.76-1.23s8.4 3.3 9.92 7.33c2.55.86 5.25 1.83 6.88 3.98 1.64 2.14 1.5 5.82-.92 6.98"/><path fill="#2f2e41" d="M123.99 179.84c-6.56-5.18-11.86-4.3-15.95-1.08-.68-.76-3.6 1.34-4.6 1.04l-3.58 6.72c-1.84 3.26-2.6 6.58-2.3 8.45-3.4 9.5 4.65 15.92 14.16 19.31a18 18 0 0 0 11.76.17l.12-1.62.72 1.33s8.69 17.9 10.74 18.7c-1.24-3.23-4.53-18.6-5.45-21.8-1.26-4.36-.4-11.28.34-15.52a24 24 0 0 0 .07-7.92l-.01-.12 2.03 4.1 4.56-2.86c-1.74-5.08-1.78-11.16-12.61-8.9"/></svg>