<svg xmlns="http://www.w3.org/2000/svg" width="731.84" height="490.1" viewBox="0 0 731.84 490.1"><path fill="#f2f2f2" d="M719.36 281.18v202.68h-507.8a101.4 101.4 0 0 1-7.05-202.68q3.53-.13 7.05 0Z"/><path fill="#531047" d="M731.84 482.3a7.8 7.8 0 0 1-7.8 7.8H202.52a106.8 106.8 0 0 1 0-213.6h521.52a7.8 7.8 0 1 1 0 15.59H202.52a91.2 91.2 0 0 0 0 182.42h521.52a7.8 7.8 0 0 1 7.8 7.79"/><path fill="#ccc" d="M719.37 327.95H173.68a1.56 1.56 0 0 1-.03-3.12h545.72a1.56 1.56 0 0 1 0 3.12m0 37.42H173.68a1.56 1.56 0 1 1-.03-3.12h545.72a1.56 1.56 0 1 1 0 3.12m0 37.41H173.68a1.56 1.56 0 0 1-.03-3.11h545.72a1.56 1.56 0 0 1 0 3.11m0 37.42H173.68a1.56 1.56 0 1 1-.03-3.11h545.72a1.56 1.56 0 0 1 0 3.11"/><path fill="#f2f2f2" d="M623.64 67.64v202.68h-507.8a101.4 101.4 0 0 1-7.05-202.68q3.52-.13 7.05 0Z"/><path fill="#531047" d="M636.12 268.76a7.8 7.8 0 0 1-7.8 7.8H106.8a106.8 106.8 0 1 1 0-213.6h521.52a7.8 7.8 0 1 1 0 15.6H106.8a91.2 91.2 0 0 0 0 182.4h521.52a7.8 7.8 0 0 1 7.8 7.8"/><path fill="#ccc" d="M623.64 114.4H77.95a1.56 1.56 0 1 1-.03-3.1h545.72a1.56 1.56 0 1 1 0 3.1m0 37.43H77.95a1.56 1.56 0 1 1-.03-3.12h545.72a1.56 1.56 0 1 1 0 3.12m0 37.42H77.95a1.56 1.56 0 1 1-.03-3.12h545.72a1.56 1.56 0 1 1 0 3.12m0 37.41H77.95a1.56 1.56 0 1 1-.03-3.11h545.72a1.56 1.56 0 1 1 0 3.11"/><path fill="#090814" d="M535.33.02H303.97a14 14 0 0 0-6.33 1.47l-58.4 29.24a10.64 10.64 0 0 0 0 19.58l58.4 29.24a14 14 0 0 0 6.33 1.47h231.36a12.14 12.14 0 0 0 12.81-11.27V11.3A12.14 12.14 0 0 0 535.33.02"/><path fill="#531047" d="M548.15 11.3v58.46a12.14 12.14 0 0 1-12.81 11.26h-46.1v-81h46.1a12.14 12.14 0 0 1 12.81 11.27"/></svg>