<svg xmlns="http://www.w3.org/2000/svg" width="1088" height="687.96" viewBox="0 0 1088 687.96"><title>Easy to Use</title><g data-name="Group 12"><g data-name="Group 11"><path fill="#3f3d56" d="M961.81 454.44c-5.27 45.15-16.22 81.4-31.25 110.31-20 38.52-54.21 54.04-84.77 70.28a193 193 0 0 1-27.46 11.94c-55.61 19.3-117.85 14.18-166.74 4A657 657 0 0 0 547.5 637.8q-14.97-.67-29.97-.67c-15.42.02-293.07 5.3-360.67-131.57-16.69-33.76-28.13-75-32.24-125.27-11.63-142.12 52.29-235.46 134.74-296.47C415.33-31.58 629.12-26.75 782.79 91.7c102.36 78.9 198.2 198.31 179.02 362.74" data-name="Path 83"/><path fill="#f2f2f2" d="M930.56 564.75c-20 38.52-47.21 64.04-77.77 80.28a193 193 0 0 1-27.46 11.94c-55.61 19.3-117.85 14.18-166.74 4A657 657 0 0 0 554.5 647.8q-14.97-.67-29.97-.67-23.13.03-46.25 1.72c-100.17 7.36-253.82-6.43-321.42-143.29L326 177.96l62.95 161.62 20.09 51.6 55.37-75.99L493 275.96l130.2 149.27 36.8-81.27 254.78 207.92 14.21 11.6Z" data-name="Path 84"/><path d="m302 282.96 26-57 36 83-31-60Z" data-name="Path 85" opacity=".1"/><path d="M554.5 647.8q-14.97-.67-29.97-.67L409.04 391.17Z" data-name="Path 86" opacity=".1"/><path d="M464.41 315.2 493 292.95l130 150-132-128Z" data-name="Path 87" opacity=".1"/><path d="M852.79 645.03a193 193 0 0 1-27.46 11.94L623.2 425.23Z" data-name="Path 88" opacity=".1"/><circle cx="3" cy="3" r="3" fill="#f2f2f2" data-name="Ellipse 11" transform="translate(479 98.96)"/><circle cx="3" cy="3" r="3" fill="#f2f2f2" data-name="Ellipse 12" transform="translate(396 201.96)"/><circle cx="2" cy="2" r="2" fill="#f2f2f2" data-name="Ellipse 13" transform="translate(600 220.96)"/><circle cx="2" cy="2" r="2" fill="#f2f2f2" data-name="Ellipse 14" transform="translate(180 265.96)"/><circle cx="2" cy="2" r="2" fill="#f2f2f2" data-name="Ellipse 15" transform="translate(612 96.96)"/><circle cx="2" cy="2" r="2" fill="#f2f2f2" data-name="Ellipse 16" transform="translate(736 192.96)"/><circle cx="2" cy="2" r="2" fill="#f2f2f2" data-name="Ellipse 17" transform="translate(858 344.96)"/><path fill="#f2f2f2" d="M306 121.22h-2.76v-2.76h-1.48v2.76H299v1.48h2.76v2.76h1.48v-2.76H306Z" data-name="Path 89"/><path fill="#f2f2f2" d="M848 424.22h-2.76v-2.76h-1.48v2.76H841v1.48h2.76v2.76h1.48v-2.76H848Z" data-name="Path 90"/><path fill="#3f3d56" d="M1088 613.96c0 16.57-243.56 74-544 74s-544-57.43-544-74 243.56 14 544 14 544-30.57 544-14" data-name="Path 91"/><path d="M1088 613.96c0 16.57-243.56 74-544 74s-544-57.43-544-74 243.56 14 544 14 544-30.57 544-14" data-name="Path 92" opacity=".1"/><ellipse cx="544" cy="30" fill="#3f3d56" data-name="Ellipse 18" rx="544" ry="30" transform="translate(0 583.96)"/><path fill="#ff6584" d="M568 571.96c0 33.14-14.77 24-33 24s-33 9.14-33-24 33-96 33-96 33 62.87 33 96" data-name="Path 93"/><path d="M550 584.64c0 15.06-6.72 10.91-15 10.91s-15 4.15-15-10.9S535 541 535 541s15 28.58 15 43.64" data-name="Path 94" opacity=".1"/><rect width="92" height="18" fill="#2f2e41" data-name="Rectangle 97" rx="9" transform="translate(489 604.96)"/><rect width="92" height="18" fill="#2f2e41" data-name="Rectangle 98" rx="9" transform="translate(489 586.96)"/><path fill="#3f3d56" d="M137 490.53c0 55.34 34.72 100.12 77.63 100.12" data-name="Path 95"/><path fill="#6c63ff" d="M214.63 590.65c0-55.96 38.74-101.25 86.62-101.25" data-name="Path 96"/><path fill="#6c63ff" d="M165.13 495.54c0 52.57 22.14 95.11 49.5 95.11" data-name="Path 97"/><path fill="#3f3d56" d="M214.63 590.65c0-71.5 44.78-129.37 100.12-129.37" data-name="Path 98"/><path fill="#a8a8a8" d="M198.3 591.36s11-.34 14.33-2.7 16.93-5.18 17.75-1.4 16.55 18.85 4.12 18.95-28.88-1.94-32.2-3.95-4-10.9-4-10.9" data-name="Path 99"/><path d="M234.72 604.89c-12.43.1-28.88-1.94-32.2-3.95-2.52-1.54-3.52-7.05-3.86-9.6l-.36.02s.7 8.88 4 10.9 19.77 4.05 32.2 3.95c3.58-.03 4.82-1.3 4.75-3.2-.5 1.14-1.86 1.86-4.53 1.88" data-name="Path 100" opacity=".2"/><path fill="#3f3d56" d="M721.43 527.06c0 38.03 23.86 68.8 53.34 68.8" data-name="Path 101"/><path fill="#6c63ff" d="M774.77 595.86c0-38.45 26.62-69.57 59.52-69.57" data-name="Path 102"/><path fill="#6c63ff" d="M740.76 530.5c0 36.13 15.2 65.36 34 65.36" data-name="Path 103"/><path fill="#3f3d56" d="M774.77 595.86c0-49.14 30.77-88.9 68.8-88.9" data-name="Path 104"/><path fill="#a8a8a8" d="M763.55 596.35s7.56-.24 9.84-1.86 11.64-3.56 12.2-.96 11.37 12.95 2.83 13.02-19.84-1.33-22.12-2.71-2.75-7.5-2.75-7.5" data-name="Path 105"/><path d="M788.57 605.65c-8.54.06-19.84-1.33-22.12-2.72-1.73-1.06-2.42-4.84-2.65-6.6l-.25.02s.48 6.1 2.75 7.49 13.58 2.78 22.12 2.71c2.47-.02 3.32-.9 3.27-2.2-.34.79-1.28 1.28-3.12 1.3" data-name="Path 106" opacity=".2"/><path fill="#a8a8a8" d="M893.81 618.7s11.36-1.73 14.5-4.6 16.9-7.48 18.22-3.66 19.5 17.45 6.63 19.1-30.15 1.62-33.83-.06-5.52-10.78-5.52-10.78" data-name="Path 107"/><path d="M933.23 628.15c-12.86 1.66-30.16 1.61-33.84-.06-2.8-1.28-4.53-6.86-5.2-9.45l-.38.06s1.84 9.1 5.52 10.78 20.97 1.73 33.83.07c3.72-.48 4.84-1.96 4.53-3.9-.37 1.24-1.7 2.15-4.46 2.5" data-name="Path 108" opacity=".2"/><path fill="#a8a8a8" d="M614.26 617.88s9.59-1.46 12.24-3.87 14.25-6.32 15.37-3.1 16.45 14.73 5.6 16.13-25.45 1.35-28.55-.06-4.66-9.1-4.66-9.1" data-name="Path 109"/><path d="M647.52 625.86c-10.85 1.4-25.44 1.35-28.55-.06-2.37-1.07-3.83-5.79-4.4-7.97l-.31.05s1.55 7.68 4.65 9.1 17.7 1.45 28.56.05c3.13-.4 4.08-1.65 3.82-3.3-.31 1.06-1.43 1.83-3.77 2.13" data-name="Path 110" opacity=".2"/><path fill="#a8a8a8" d="M122.39 613.09s7.46-1.14 9.53-3.02 11.1-4.92 11.97-2.4 12.8 11.46 4.35 12.55-19.8 1.06-22.23-.04-3.62-7.09-3.62-7.09" data-name="Path 111"/><path d="M148.29 619.3c-8.45 1.1-19.82 1.06-22.23-.04-1.85-.84-2.98-4.5-3.42-6.21l-.25.04s1.2 5.98 3.62 7.09 13.78 1.13 22.23.04c2.44-.32 3.18-1.29 2.98-2.57-.25.82-1.12 1.42-2.94 1.65" data-name="Path 112" opacity=".2"/><path d="M383.7 601.32c0 30.22-42.12 20.87-93.7 20.87s-93.07 9.35-93.07-20.87 42.11-36.8 93.69-36.8 93.08 6.58 93.08 36.8" data-name="Path 113" opacity=".1"/><path fill="#3f3d56" d="M383.7 593.88c0 30.22-42.12 20.87-93.7 20.87s-93.07 9.35-93.07-20.87 42.11-36.8 93.69-36.8 93.08 6.58 93.08 36.8" data-name="Path 114"/></g><path fill="#fff" fill-rule="evenodd" d="M360.18 475.73h91.79v37.15h-91.8Z" data-name="Path 40"/><path fill="#3ecc5f" fill-rule="evenodd" d="M277.13 597.03a21.8 21.8 0 0 1-18.91-10.93 21.83 21.83 0 0 0 18.9 32.78h21.86v-21.85Z" data-name="Path 41"/><path fill="#3ecc5f" fill-rule="evenodd" d="m375.45 481.6 76.52-4.77V465.9a21.85 21.85 0 0 0-21.86-21.86h-98.35l-2.73-4.73a3.15 3.15 0 0 0-5.46 0l-2.73 4.73-2.74-4.73a3.15 3.15 0 0 0-5.46 0l-2.73 4.73-2.73-4.73a3.15 3.15 0 0 0-5.47 0l-2.73 4.73h-.07l-4.53-4.52a3.15 3.15 0 0 0-5.27 1.41l-1.5 5.58-5.68-1.52a3.15 3.15 0 0 0-3.86 3.86l1.52 5.68-5.57 1.5a3.16 3.16 0 0 0-1.42 5.27l4.53 4.53v.07l-4.74 2.73a3.15 3.15 0 0 0 0 5.46l4.73 2.74-4.73 2.73a3.15 3.15 0 0 0 0 5.46l4.73 2.73-4.73 2.73a3.15 3.15 0 0 0 0 5.47l4.73 2.73-4.73 2.73a3.15 3.15 0 0 0 0 5.46l4.74 2.74-4.74 2.73a3.15 3.15 0 0 0 0 5.46l4.73 2.74-4.73 2.73a3.15 3.15 0 0 0 0 5.46l4.73 2.73-4.73 2.73a3.15 3.15 0 0 0 0 5.47l4.73 2.73-4.73 2.73a3.15 3.15 0 0 0 0 5.47l4.73 2.73-4.73 2.73a3.15 3.15 0 0 0 0 5.46l4.73 2.74-4.73 2.73a3.15 3.15 0 0 0 0 5.46l4.73 2.73-4.73 2.74a3.15 3.15 0 0 0 0 5.46l4.73 2.73-4.73 2.73a3.15 3.15 0 0 0 0 5.46l4.73 2.74a21.85 21.85 0 0 0 21.86 21.85h131.13a21.85 21.85 0 0 0 21.86-21.85V509.6l-76.52-4.79a11.63 11.63 0 0 1 0-23.21" data-name="Path 42"/><path fill="#3ecc5f" fill-rule="evenodd" d="M408.26 618.88h32.78v-43.7h-32.79Z" data-name="Path 43"/><path fill="#44d860" fill-rule="evenodd" d="M462.9 591.56a5 5 0 0 0-.7.07l-.13-.49a5.46 5.46 0 1 0-5.4-9.37l-.37-.37a5.45 5.45 0 1 0-9.38-5.4l-.49-.12a5.47 5.47 0 1 0-10.79 0l-.48.12a5.46 5.46 0 1 0-9.39 5.4 21.84 21.84 0 1 0 36.42 21.02 5.45 5.45 0 1 0 .7-10.86" data-name="Path 44"/><path fill="#3ecc5f" fill-rule="evenodd" d="M419.18 553.32h32.78v-21.86h-32.78Z" data-name="Path 45"/><path fill="#44d860" fill-rule="evenodd" d="M462.9 545.12a2.73 2.73 0 1 0 0-5.46l-.36.03-.06-.24a2.73 2.73 0 0 0-1.05-5.26 2.7 2.7 0 0 0-1.65.57l-.18-.19a2.7 2.7 0 0 0 .55-1.63 2.73 2.73 0 0 0-5.24-1.07 10.93 10.93 0 1 0 0 21.03 2.73 2.73 0 0 0 5.24-1.07 2.7 2.7 0 0 0-.55-1.63l.18-.18a2.7 2.7 0 0 0 1.65.56 2.73 2.73 0 0 0 1.05-5.25l.06-.25z" data-name="Path 46"/><path fill-rule="evenodd" d="M320.84 479.56a2.73 2.73 0 0 1-2.74-2.74 8.2 8.2 0 0 0-16.39 0 2.73 2.73 0 0 1-5.46 0 13.66 13.66 0 0 1 27.32 0 2.73 2.73 0 0 1-2.73 2.74" data-name="Path 47"/><path fill="#ffff50" fill-rule="evenodd" d="M364.55 618.88h65.56a21.85 21.85 0 0 0 21.86-21.85v-76.5H386.4a21.85 21.85 0 0 0-21.85 21.86Z" data-name="Path 48"/><path fill-rule="evenodd" d="M435.6 554.41h-54.7a1.1 1.1 0 1 1 0-2.18h54.69a1.1 1.1 0 0 1 0 2.18m0 21.86H380.9a1.1 1.1 0 1 1 0-2.2h54.69a1.1 1.1 0 0 1 0 2.2m0 21.85H380.9a1.1 1.1 0 1 1 0-2.18h54.69a1.1 1.1 0 0 1 0 2.18m0-54.43H380.9a1.1 1.1 0 1 1 0-2.19h54.69a1.1 1.1 0 0 1 0 2.19m0 21.65H380.9a1.1 1.1 0 1 1 0-2.19h54.69a1.1 1.1 0 0 1 0 2.19m0 21.85H380.9a1.1 1.1 0 1 1 0-2.18h54.69a1.1 1.1 0 0 1 0 2.18m16.37-100.96h-.04c-3.38.11-4.98 3.5-6.39 6.47-1.47 3.11-2.6 5.14-4.47 5.08-2.06-.08-3.24-2.4-4.5-4.88-1.43-2.83-3.07-6.04-6.5-5.92-3.34.11-4.94 3.05-6.36 5.64-1.5 2.76-2.52 4.44-4.5 4.37-2.1-.08-3.22-1.98-4.52-4.17-1.44-2.44-3.1-5.2-6.48-5.1-3.27.11-4.88 2.6-6.3 4.8-1.5 2.33-2.55 3.75-4.55 3.67-2.16-.08-3.27-1.65-4.56-3.47-1.45-2.05-3.08-4.37-6.44-4.25-3.2.1-4.81 2.15-6.23 3.95-1.34 1.7-2.4 3.06-4.62 2.98a1.1 1.1 0 0 0-.08 2.18c3.3.11 4.97-1.96 6.42-3.8 1.29-1.64 2.4-3.05 4.58-3.13 2.1-.09 3.1 1.22 4.59 3.33 1.41 2 3.02 4.28 6.26 4.4 3.39.1 5.02-2.43 6.47-4.67 1.29-2 2.4-3.73 4.53-3.8 1.96-.08 3.03 1.47 4.53 4.02 1.42 2.4 3.02 5.12 6.32 5.24 3.42.11 5.07-2.87 6.5-5.5 1.25-2.29 2.42-4.44 4.5-4.51 1.96-.05 2.98 1.74 4.5 4.73 1.4 2.79 3 5.95 6.36 6.07h.19c3.34 0 4.93-3.36 6.34-6.33 1.24-2.63 2.42-5.11 4.44-5.22Z" data-name="Path 49"/><path fill="#3ecc5f" fill-rule="evenodd" d="M342.7 618.88h43.7v-43.7h-43.7Z" data-name="Path 50"/><g data-name="Group 8" transform="rotate(-15 2189.48 -1119.46)"><rect width="92.36" height="36.46" fill="#d8d8d8" data-name="Rectangle 3" rx="2"/><g fill="#4a4a4a" data-name="Group 2" transform="translate(1.53 23.03)"><rect width="5.34" height="5.34" data-name="Rectangle 4" rx="1" transform="translate(16.8)"/><rect width="5.34" height="5.34" data-name="Rectangle 5" rx="1" transform="translate(23.12)"/><rect width="5.34" height="5.34" data-name="Rectangle 6" rx="1" transform="translate(29.44)"/><rect width="5.34" height="5.34" data-name="Rectangle 7" rx="1" transform="translate(35.77)"/><rect width="5.34" height="5.34" data-name="Rectangle 8" rx="1" transform="translate(42.1)"/><rect width="5.34" height="5.34" data-name="Rectangle 9" rx="1" transform="translate(48.41)"/><rect width="5.34" height="5.34" data-name="Rectangle 10" rx="1" transform="translate(54.74)"/><rect width="5.34" height="5.34" data-name="Rectangle 11" rx="1" transform="translate(61.06)"/><rect width="5.34" height="5.34" data-name="Rectangle 12" rx="1" transform="translate(67.39)"/><path fill-rule="evenodd" d="M1.1 0h13.42a1.1 1.1 0 0 1 1.1 1.1v3.14a1.1 1.1 0 0 1-1.1 1.1H1.09A1.1 1.1 0 0 1 0 4.24V1.1A1.1 1.1 0 0 1 1.1 0M75 0h13.43a1.1 1.1 0 0 1 1.09 1.1v3.14a1.1 1.1 0 0 1-1.1 1.1H75a1.1 1.1 0 0 1-1.1-1.1V1.1A1.1 1.1 0 0 1 75 0" data-name="Path 51"/></g><g fill="#4a4a4a" data-name="Group 3" transform="translate(1.53 10.26)"><path fill-rule="evenodd" d="M1.1 0h5.12A1.1 1.1 0 0 1 7.3 1.1v3.14a1.1 1.1 0 0 1-1.1 1.1H1.1A1.1 1.1 0 0 1 0 4.23V1.1A1.1 1.1 0 0 1 1.1 0" data-name="Path 52"/><rect width="5.34" height="5.34" data-name="Rectangle 13" rx="1" transform="translate(8.3)"/><rect width="5.34" height="5.34" data-name="Rectangle 14" rx="1" transform="translate(14.62)"/><rect width="5.34" height="5.34" data-name="Rectangle 15" rx="1" transform="translate(20.95)"/><rect width="5.34" height="5.34" data-name="Rectangle 16" rx="1" transform="translate(27.27)"/><rect width="5.34" height="5.34" data-name="Rectangle 17" rx="1" transform="translate(33.6)"/><rect width="5.34" height="5.34" data-name="Rectangle 18" rx="1" transform="translate(39.92)"/><rect width="5.34" height="5.34" data-name="Rectangle 19" rx="1" transform="translate(46.24)"/><rect width="5.34" height="5.34" data-name="Rectangle 20" rx="1" transform="translate(52.56)"/><rect width="5.34" height="5.34" data-name="Rectangle 21" rx="1" transform="translate(58.89)"/><rect width="5.34" height="5.34" data-name="Rectangle 22" rx="1" transform="translate(65.21)"/><rect width="5.34" height="5.34" data-name="Rectangle 23" rx="1" transform="translate(71.54)"/><rect width="5.34" height="5.34" data-name="Rectangle 24" rx="1" transform="translate(77.86)"/><rect width="5.34" height="5.34" data-name="Rectangle 25" rx="1" transform="translate(84.18)"/></g><g fill="#4a4a4a" data-name="Group 4" transform="matrix(-1 0 0 -1 91.05 9.55)"><path fill-rule="evenodd" d="M1.1 0h5.12a1.1 1.1 0 0 1 1.1 1.1v3.14a1.1 1.1 0 0 1-1.1 1.1H1.09A1.1 1.1 0 0 1 0 4.24V1.1A1.1 1.1 0 0 1 1.1 0" data-name="Path 53"/><rect width="5.34" height="5.34" data-name="Rectangle 26" rx="1" transform="translate(8.3)"/><rect width="5.34" height="5.34" data-name="Rectangle 27" rx="1" transform="translate(14.62)"/><rect width="5.34" height="5.34" data-name="Rectangle 28" rx="1" transform="translate(20.95)"/><rect width="5.34" height="5.34" data-name="Rectangle 29" rx="1" transform="translate(27.27)"/><rect width="5.34" height="5.34" data-name="Rectangle 30" rx="1" transform="translate(33.6)"/><rect width="5.34" height="5.34" data-name="Rectangle 31" rx="1" transform="translate(39.92)"/><rect width="5.34" height="5.34" data-name="Rectangle 32" rx="1" transform="translate(46.24)"/><rect width="5.34" height="5.34" data-name="Rectangle 33" rx="1" transform="translate(52.56)"/><rect width="5.34" height="5.34" data-name="Rectangle 34" rx="1" transform="translate(58.89)"/><rect width="5.34" height="5.34" data-name="Rectangle 35" rx="1" transform="translate(65.21)"/><rect width="5.34" height="5.34" data-name="Rectangle 36" rx="1" transform="translate(71.54)"/><rect width="5.34" height="5.34" data-name="Rectangle 37" rx="1" transform="translate(77.86)"/><rect width="5.34" height="5.34" data-name="Rectangle 38" rx="1" transform="translate(84.18)"/><rect width="5.34" height="5.34" data-name="Rectangle 39" rx="1" transform="translate(8.3)"/><rect width="5.34" height="5.34" data-name="Rectangle 40" rx="1" transform="translate(14.62)"/><rect width="5.34" height="5.34" data-name="Rectangle 41" rx="1" transform="translate(20.95)"/><rect width="5.34" height="5.34" data-name="Rectangle 42" rx="1" transform="translate(27.27)"/><rect width="5.34" height="5.34" data-name="Rectangle 43" rx="1" transform="translate(33.6)"/><rect width="5.34" height="5.34" data-name="Rectangle 44" rx="1" transform="translate(39.92)"/><rect width="5.34" height="5.34" data-name="Rectangle 45" rx="1" transform="translate(46.24)"/><rect width="5.34" height="5.34" data-name="Rectangle 46" rx="1" transform="translate(52.56)"/><rect width="5.34" height="5.34" data-name="Rectangle 47" rx="1" transform="translate(58.89)"/><rect width="5.34" height="5.34" data-name="Rectangle 48" rx="1" transform="translate(65.21)"/><rect width="5.34" height="5.34" data-name="Rectangle 49" rx="1" transform="translate(71.54)"/><rect width="5.34" height="5.34" data-name="Rectangle 50" rx="1" transform="translate(77.86)"/><rect width="5.34" height="5.34" data-name="Rectangle 51" rx="1" transform="translate(84.18)"/></g><g fill="#4a4a4a" data-name="Group 6"><path fill-rule="evenodd" d="M2.62 16.58h7.3a1.1 1.1 0 0 1 1.1 1.1v3.15a1.1 1.1 0 0 1-1.1 1.09h-7.3a1.1 1.1 0 0 1-1.09-1.1v-3.14a1.1 1.1 0 0 1 1.1-1.1" data-name="Path 54"/><g data-name="Group 5" transform="translate(12.2 16.58)"><rect width="5.34" height="5.34" data-name="Rectangle 52" rx="1"/><rect width="5.34" height="5.34" data-name="Rectangle 53" rx="1" transform="translate(6.32)"/><rect width="5.34" height="5.34" data-name="Rectangle 54" rx="1" transform="translate(12.65)"/><rect width="5.34" height="5.34" data-name="Rectangle 55" rx="1" transform="translate(18.97)"/><rect width="5.34" height="5.34" data-name="Rectangle 56" rx="1" transform="translate(25.3)"/><rect width="5.34" height="5.34" data-name="Rectangle 57" rx="1" transform="translate(31.62)"/><rect width="5.34" height="5.34" data-name="Rectangle 58" rx="1" transform="translate(37.94)"/><rect width="5.34" height="5.34" data-name="Rectangle 59" rx="1" transform="translate(44.27)"/><rect width="5.34" height="5.34" data-name="Rectangle 60" rx="1" transform="translate(50.59)"/><rect width="5.34" height="5.34" data-name="Rectangle 61" rx="1" transform="translate(56.91)"/><rect width="5.34" height="5.34" data-name="Rectangle 62" rx="1" transform="translate(63.24)"/></g><path fill-rule="evenodd" d="M83.05 16.58h6.9a1.1 1.1 0 0 1 1.1 1.1v3.15a1.1 1.1 0 0 1-1.1 1.09h-6.9a1.1 1.1 0 0 1-1.1-1.1v-3.14a1.1 1.1 0 0 1 1.1-1.1" data-name="Path 55"/></g><g fill="#4a4a4a" data-name="Group 7" transform="translate(1.53 29.63)"><rect width="5.34" height="5.34" data-name="Rectangle 63" rx="1"/><rect width="5.34" height="5.34" data-name="Rectangle 64" rx="1" transform="translate(6.32)"/><rect width="5.34" height="5.34" data-name="Rectangle 65" rx="1" transform="translate(12.65)"/><rect width="5.34" height="5.34" data-name="Rectangle 66" rx="1" transform="translate(18.97)"/><path fill-rule="evenodd" d="M26.39 0H56.8a1.1 1.1 0 0 1 1.1 1.1v3.14a1.1 1.1 0 0 1-1.1 1.1H26.39a1.1 1.1 0 0 1-1.1-1.1V1.1A1.1 1.1 0 0 1 26.4 0M60 0h3.93a1.1 1.1 0 0 1 1.1 1.1v3.14a1.1 1.1 0 0 1-1.1 1.1h-3.94a1.1 1.1 0 0 1-1.1-1.1V1.1a1.1 1.1 0 0 1 1.1-1.1" data-name="Path 56"/><rect width="5.34" height="5.34" data-name="Rectangle 67" rx="1" transform="translate(66)"/><rect width="5.34" height="5.34" data-name="Rectangle 68" rx="1" transform="translate(72.33)"/><rect width="5.34" height="5.34" data-name="Rectangle 69" rx="1" transform="translate(84.18)"/><path d="M78.25 2.27V1.1a1.1 1.1 0 0 1 1.1-1.1h3.15a1.1 1.1 0 0 1 1.09 1.1v1.17Z" data-name="Path 57"/><path d="M83.6 3.06v1.18a1.1 1.1 0 0 1-1.1 1.1h-3.15a1.1 1.1 0 0 1-1.1-1.1V3.06Z" data-name="Path 58"/></g><rect width="88.93" height="2.37" fill="#4a4a4a" data-name="Rectangle 70" rx="1.08" transform="translate(1.93 1.17)"/><rect width="4.99" height="1.58" fill="#d8d8d8" data-name="Rectangle 71" opacity=".14" rx=".72" transform="translate(4.1 1.57)"/><rect width="4.99" height="1.58" fill="#d8d8d8" data-name="Rectangle 72" opacity=".14" rx=".72" transform="translate(10.92 1.57)"/><rect width="4.99" height="1.58" fill="#d8d8d8" data-name="Rectangle 73" opacity=".14" rx=".72" transform="translate(16.17 1.57)"/><rect width="4.99" height="1.58" fill="#d8d8d8" data-name="Rectangle 74" opacity=".14" rx=".72" transform="translate(21.42 1.57)"/><rect width="4.99" height="1.58" fill="#d8d8d8" data-name="Rectangle 75" opacity=".14" rx=".72" transform="translate(26.67 1.57)"/><rect width="4.99" height="1.58" fill="#d8d8d8" data-name="Rectangle 76" opacity=".14" rx=".72" transform="translate(33.23 1.57)"/><rect width="4.99" height="1.58" fill="#d8d8d8" data-name="Rectangle 77" opacity=".14" rx=".72" transform="translate(38.48 1.57)"/><rect width="4.99" height="1.58" fill="#d8d8d8" data-name="Rectangle 78" opacity=".14" rx=".72" transform="translate(43.73 1.57)"/><rect width="4.99" height="1.58" fill="#d8d8d8" data-name="Rectangle 79" opacity=".14" rx=".72" transform="translate(48.98 1.57)"/><rect width="4.99" height="1.58" fill="#d8d8d8" data-name="Rectangle 80" opacity=".14" rx=".72" transform="translate(55.54 1.57)"/><rect width="4.99" height="1.58" fill="#d8d8d8" data-name="Rectangle 81" opacity=".14" rx=".72" transform="translate(60.79 1.57)"/><rect width="4.99" height="1.58" fill="#d8d8d8" data-name="Rectangle 82" opacity=".14" rx=".72" transform="translate(66.04 1.57)"/><rect width="4.99" height="1.58" fill="#d8d8d8" data-name="Rectangle 83" opacity=".14" rx=".72" transform="translate(72.6 1.57)"/><rect width="4.99" height="1.58" fill="#d8d8d8" data-name="Rectangle 84" opacity=".14" rx=".72" transform="translate(77.85 1.57)"/><rect width="4.99" height="1.58" fill="#d8d8d8" data-name="Rectangle 85" opacity=".14" rx=".72" transform="translate(83.1 1.57)"/></g><path fill="#44d860" fill-rule="evenodd" d="M408.26 591.56a5 5 0 0 0-.7.07l-.13-.49a5.46 5.46 0 1 0-5.4-9.37l-.37-.37a5.45 5.45 0 1 0-9.38-5.4l-.49-.12a5.47 5.47 0 1 0-10.79 0l-.48.12a5.46 5.46 0 1 0-9.38 5.4 21.84 21.84 0 1 0 36.42 21.02 5.45 5.45 0 1 0 .7-10.86" data-name="Path 59"/><path fill="#3ecc5f" fill-rule="evenodd" d="M342.7 553.32h43.7v-21.86h-43.7Z" data-name="Path 60"/><path fill="#44d860" fill-rule="evenodd" d="M397.33 545.12a2.73 2.73 0 1 0 0-5.46l-.35.03-.06-.24a2.73 2.73 0 0 0-1.06-5.26 2.7 2.7 0 0 0-1.64.57l-.19-.19a2.7 2.7 0 0 0 .55-1.63 2.73 2.73 0 0 0-5.24-1.07 10.93 10.93 0 1 0 0 21.03 2.73 2.73 0 0 0 5.24-1.07 2.7 2.7 0 0 0-.55-1.63l.19-.18a2.7 2.7 0 0 0 1.64.56 2.73 2.73 0 0 0 1.06-5.25l.06-.25z" data-name="Path 61"/><path fill-rule="evenodd" d="M408.26 464.53a3 3 0 0 1-.54-.05 3 3 0 0 1-.51-.16 3 3 0 0 1-.47-.25l-.42-.34a3 3 0 0 1-.34-.41 2.7 2.7 0 0 1-.46-1.52 3 3 0 0 1 .06-.53 3 3 0 0 1 .15-.52 3 3 0 0 1 .25-.47 3 3 0 0 1 .76-.75 3 3 0 0 1 .47-.25 3 3 0 0 1 .51-.16 3 3 0 0 1 1.07 0 3 3 0 0 1 .99.4l.41.34.34.42a3 3 0 0 1 .25.47 3 3 0 0 1 .2 1.05 2.8 2.8 0 0 1-.8 1.93l-.4.34a2.7 2.7 0 0 1-1.53.46m21.86-1.37a2.8 2.8 0 0 1-1.94-.8l-.33-.41a2.7 2.7 0 0 1-.46-1.52 2.8 2.8 0 0 1 .8-1.94l.41-.33a3 3 0 0 1 .47-.26 3 3 0 0 1 .52-.15 3 3 0 0 1 1.07 0 3 3 0 0 1 .98.4l.42.34a2.8 2.8 0 0 1 .8 1.93 3 3 0 0 1-.06.54 3 3 0 0 1-.15.51l-.25.47-.34.42-.42.34a2.7 2.7 0 0 1-1.52.46" data-name="Path 62"/></g></svg>