<svg xmlns="http://www.w3.org/2000/svg" width="722" height="568.28" viewBox="0 0 722 568.28"><path fill="#f2f2f2" d="m443.38 504.73-19.27 17.74 15.32-25.7c-12.07-21.87-31.8-40.78-31.8-40.78s-40.94 39.22-40.94 70.05 18.33 41.6 40.94 41.6 40.94-10.77 40.94-41.6c0-6.86-2.04-14.14-5.19-21.3"/><path fill="#fff" d="M419.16 523.43v1.52c-.1 17.67-3.07 31.45-8.92 41.15l-.25.43-.66-.4-.62-.4c6.48-10.47 8.78-25.29 8.86-40.7v-1.5a205 205 0 0 0-1.05-19.53l-.15-1.5a301 301 0 0 0-3.77-25.04 300 300 0 0 0-5.1-22.37l-.1-.4.71-.2h.01l.72-.2.35 1.25c.8 2.98 2.9 11.06 4.95 21.73l.28 1.48a307 307 0 0 1 2.94 18.74q.32 2.51.56 4.96.1.76.16 1.5 1.04 10.4 1.08 19.48"/><path fill="#fff" d="M414.14 477.27q-.75.11-1.54.19a42 42 0 0 1-4.24.22 40 40 0 0 1-17.45-3.94l-.96 1.2a42 42 0 0 0 18.41 4.24 43 43 0 0 0 4.53-.24q.76-.08 1.53-.2a42 42 0 0 0 12-3.63l-.95-1.22a40 40 0 0 1-11.33 3.38m3.78 25.18q-.77.05-1.55.05h-.49a40.6 40.6 0 0 1-33.3-17.4l-.9 1.34a42.1 42.1 0 0 0 34.2 17.57h.64l1.56-.05a42 42 0 0 0 22.3-7.83q-.35-.67-.72-1.33a40.3 40.3 0 0 1-21.74 7.65"/><path fill="#fff" d="M419.16 523.43a37 37 0 0 1-3.28.14 40.7 40.7 0 0 1-39-29.28q-.53.9-1.01 1.82a42.2 42.2 0 0 0 40.01 28.96q.85 0 1.69-.03l1.59-.09a42 42 0 0 0 27.76-13.55l-.52-1.66a40.6 40.6 0 0 1-27.24 13.7"/><circle cx="98.75" cy="101.78" r="98.75" fill="#e4e4e4"/><circle cx="98.75" cy="101.78" r="82.29" fill="#531047"/><circle cx="361" cy="101.78" r="98.75" fill="#e4e4e4"/><circle cx="361" cy="101.78" r="82.29" fill="#fff"/><circle cx="623.25" cy="101.78" r="98.75" fill="#e4e4e4"/><circle cx="623.25" cy="101.78" r="82.29" fill="#fff"/><path fill="#fff" d="m91.76 131.54-.44-.01a9 9 0 0 1-6.7-3.48L72 111.82a9.05 9.05 0 0 1 1.58-12.7l.46-.35a9.06 9.06 0 0 1 12.69 1.59 8.04 8.04 0 0 0 12.19.6l25.63-27.07a9.04 9.04 0 0 1 12.79-.34l.41.4a9.04 9.04 0 0 1 .35 12.78l-39.78 41.98a9 9 0 0 1-6.56 2.83"/><path fill="#2f2e41" d="M317.66 81.78h-65V25.25a13.2 13.2 0 0 1 13.43-12.97h21.61c16.52 0 29.96 12.97 29.96 28.92Z"/><path fill="#ffb6b6" d="M341.72 554.82h-12.34l-5.87-47.6h18.21z"/><path fill="#2f2e41" d="M344.87 566.78h-39.79v-.5a15.5 15.5 0 0 1 15.49-15.5l24.3.01Z"/><path fill="#ffb6b6" d="M227.99 554.82h-12.34l-5.87-47.6h18.21z"/><path fill="#2f2e41" d="M231.13 566.78h-39.78v-.5a15.5 15.5 0 0 1 15.48-15.5l24.3.01Z"/><path fill="#ffb6b6" d="m242.89 172.45-8.06 51.33 76.5 1.01-10.07-49.32z"/><path fill="#2f2e41" d="m237.05 211.25-24.36 64.87-3.02 268.84h20.63l49.32-216 45.3 210.36h20.13l-14.1-236.53s4.16-47.47-17.1-75.49l-5.18-14.95Z"/><path fill="#ffb6b6" d="M341.56 261.82a15.1 15.1 0 0 1-9.68-21.04l-32.54-106.1 23.94-4.74 29.76 104a15.18 15.18 0 0 1-11.48 27.88"/><path fill="#e4e4e4" d="m298.5 200.8-52.74-1.02a6.9 6.9 0 0 1-6.53-5.2c-2.83-11.19-9.05-40.35-5.75-69.4a42.37 42.37 0 0 1 48.15-37.06 42.38 42.38 0 0 1 35 52.72c-6.65 25.2-10.4 43.24-11.15 53.6a6.9 6.9 0 0 1-5.51 6.23 7 7 0 0 1-1.33.13z"/><path fill="#ffb6b6" d="M138.32 107.6a15 15 0 0 1 .78 2.2l66 22.43 12.76-11.14 19.33 17.05-20.66 21.92a11.24 11.24 0 0 1-13.3 2.3l-70.63-36.08a14.75 14.75 0 1 1 5.72-18.68"/><path fill="#e4e4e4" d="M205.24 128.65a6.3 6.3 0 0 1 2.22-4.77l24.17-20.59a17.57 17.57 0 0 1 26.53 23.04l-17.21 26.8a6.33 6.33 0 0 1-9.49 1.34l-24.06-21.02a6.3 6.3 0 0 1-2.16-4.8m92.64 32.91a6.3 6.3 0 0 1-3.21-4.17l-7.15-30.93a17.57 17.57 0 0 1 32.66-12.94l15.87 27.61a6.33 6.33 0 0 1-3.17 9.04l-29.74 11.68a6.3 6.3 0 0 1-5.26-.29"/><ellipse cx="548.66" cy="177.77" fill="#2f2e41" rx="11.25" ry="15" transform="rotate(-66.87 303.56 275.83)"/><circle cx="511.82" cy="211.39" r="30.77" fill="#ffb6b6" transform="rotate(-61.34 252.47 329.97)"/><path fill="#2f2e41" d="M289.7 10.28h-35.2a10.23 10.23 0 0 0-10.32 9.34 10 10 0 0 0 9.98 10.66 10 10 0 0 1 10 10v41h55V39.74a29.46 29.46 0 0 0-29.46-29.46"/><path fill="#cacaca" d="M463.22 568.28h-381a1 1 0 0 1 0-2h381a1 1 0 0 1 0 2"/></svg>