<svg xmlns="http://www.w3.org/2000/svg" width="885.6" height="875.62" viewBox="0 0 885.6 875.62"><path fill="#090814" d="M885.6 437.81c0 241.8-196.02 437.81-437.81 437.81q-19.15 0-37.9-1.62a436 436 0 0 1-101.33-20.99C209.25 819.73 125.8 751.81 72.62 663.6A435.7 435.7 0 0 1 9.98 437.81C9.98 196.01 205.99 0 447.78 0S885.6 196.02 885.6 437.81"/><path fill="#531047" d="M885.6 437.81c0 241.8-196.02 437.81-437.81 437.81q-19.15 0-37.9-1.62a436 436 0 0 1-101.33-20.99C209.25 819.73 125.8 751.81 72.62 663.6A435.7 435.7 0 0 1 9.98 437.81C9.98 196.01 205.99 0 447.78 0S885.6 196.02 885.6 437.81" opacity=".2"/><circle cx="440.74" cy="483.59" r="142.61" fill="#531047"/><path fill="#fff" d="M434.05 398c12.12-.55 25.17 10.43 23.2 23.2-1.47 9.6-19.25 21.29-34.68 11.74-14.8-9.15-10.73-33.93 11.48-34.94m-60.5 14.6c5.29-.48 7.7 5.72 4.95 10.7-1.77 3.2-17.01 11.8-18.78 4.69-1.41-5.72 9.1-14.96 13.83-15.39m146.55 5.74c13.71-3.35 25.37 34.2 5.22 22.95-11.12-6.2-10.37-21.69-5.22-22.95"/><path fill="#ff6363" d="M87.15 408.18c2.9-.46 6.89 10.08 6.42 11.7-1.46 5.12-61.96 29.81-71.75 30.22 7.05-4.75 52.9-37.06 56.27-37.4 9.56-.94 4.61 9.05 6.8 9.83 5.74 2.05 4.67-9.54 2.64-10.95-2.69-1.87-14.55 3.05-.38-3.4"/><path fill="#d6d6e3" d="M303.54 279.78c-6.83 2.33-40.91 18.2-49.47 22.66-24.6 12.8-51.7 31.47-76.28 45.31-21.06 3.5-82.57-.69-86.86 0-1.75.29-18.62 8.64-18.5 10.2 14.63 6.74 28.43 15.6 43.05 23.04 5.75 2.92 11.35.47-4.16 14.35-5.25 4.7-14.2 9.58-15.48 10.57-1.05.81-2.67.46-2.27 2.27 8.83 9.62 5.48 18.25 16.24 16.61 4.97-.75 7.48-8.83 13.97.76 3.18-9.54 6.43-19.2 8.31-29.08 46.52-31.7 34.53-19.56 18.13 22.28 30.16-14.64 25.02-24.8 28.32-28.7l126.9-77.8c18.83-13.33 25.32-23.99 39.64-41.16-13.85 2.48-28.25 4.15-41.54 8.69m-108 63.44c10.69-6.77 21.64-13.1 32.47-19.64 19.3 19.09-28.77 44.65-32.47 19.64"/><path fill="#d6d6e3" d="m150.22 418.75-19.26 34.74c-41.11 21.14-80.47 45.49-120.85 67.98l-1.88-1.13c32.16-20.64 67.68-36.31 99.32-57.78.57-.4 1.16.37 1.5.75 3.8-2.72 3.98-5.72 4.16-6.04 2.23-4 3-7.9 4.53-12.08 2.34-6.41 3.9-13.17 6.04-19.64 3.18-9.54 6.43-19.2 8.31-29.08 46.52-31.7 34.53-19.56 18.13 22.28"/><path fill="#090814" d="M195.54 343.22c10.69-6.77 21.64-13.1 32.47-19.64 19.3 19.09-28.77 44.65-32.47 19.64"/><path fill="#fffeff" d="M0 399.33v-2.27c12.48-5.86 56.75-33.69 61.56-35.5 1.44-.54 3.83-1.8 4.15.38.56 3.74-59.27 32.32-65.71 37.39m201.28-107.25c3.3-.29-6.75 5.82-12.08 9.06-22.24 13.51-45.5 25.71-68.35 38.14 25.4-17.98 53.88-31.02 80.43-47.2"/><path fill="#c8c8c8" d="M168.8 479.39c2.55-.08-1.84 2.75-2.26 3.02-24.59 16.06-51.99 28.74-77.42 43.43 25.21-17.65 53.22-30.82 79.69-46.45"/><path fill="#fffeff" d="M233.76 385.73c.48-.07.99-.08 1.13.38a1396 1396 0 0 1-79.3 45.32c8.9-6.33 73.7-45.02 78.17-45.7m435.99-188.09c-19.04 20.12-42.7 40.8-67.28 53.72-45.48 23.9-69.46 13.93-33.9-31.03-12.6-35.83 13.4-71.33 51.63-69.11-4.94.56-5.94 2.89-9.91 4.7-13.85 6.3-22.93 4.89-32.86 19.55-1.49 2.2-4.12 6.52-4.17 9.13-3.02 2.43-2.99 7.93-3.13 11.47-.7 17.15 6.15 32.88 17.47 45.38 24.15-6.7 65.79-40.78 77.45-62.07 7.83-14.28 4-21.18-12.51-16.16-.32-.3-3.43.02-2.09-3.13 3.42-.25 16.18-7.34 24.25-2.61 9.76 5.72-2.46 22.18-7.04 28.16-15.5 20.24-52.64 50.88-76.15 60.5-9.55 3.92-32.13 12.13-28.16-7.04 1.27-6.12 9.75-15.67 6-15.9-1.29-.09-11.37 17.74-11.74 22.68-1.42 19.04 26.67 6.77 35.47 2.87 26.99-11.97 57.02-36.57 75.62-59.46 24.45-30.07 21.58-47.42-20.34-30.25h-2.6c0-.28-1.42-.98-1.57-1.04 56.74-25.67 60.49.46 25.56 39.64m-65.83 274.08c-58.12 61.43-130.38 124.56-205.41 164-138.83 72.98-212.04 42.53-103.5-94.74-38.46-109.37 29.63-206.8 146.32-200-15.07 1.7-6.81-2.17-18.94 3.35-42.28 19.26-70 14.94-100.31 59.71-4.55 6.73-12.6 19.89-12.74 27.87-5.34 7.66-9.11 24.22-9.55 35.03-2.14 52.35 18.78 100.37 53.34 138.53 73.71-20.47 200.84-124.5 236.45-189.48 23.9-43.62 12.2-64.67-38.21-49.36-.96-.93-10.47.08-6.37-9.56 10.45-.76 49.4-22.41 74.04-7.96 29.79 17.48-7.5 67.7-21.5 85.98-47.3 61.8-160.7 155.33-232.47 184.71-29.17 11.95-98.09 37.03-85.98-21.5 3.86-18.68 29.77-47.83 18.3-48.56-3.91-.25-34.69 54.18-35.82 69.26-4.35 58.11 81.42 20.67 108.28 8.76 82.4-36.54 174.08-111.64 230.88-181.52 74.63-91.82 65.85-144.8-62.1-92.35h-7.96c0-.88-4.31-3.01-4.78-3.19 173.24-78.37 184.67 1.4 78.03 121.02"/><path fill="#d6d6e3" d="M644.2 158c.14.06 1.56.76 1.56 1.04-17.15 24.52-45.21 39.33-75.63 37.03.14-3.54.1-9.04 3.13-11.47 4.06-3.27 8.59.07 19.56-7.82 5.55-4 14.9-14.2 17.47-20.87 3.97-1.8 4.97-4.13 9.91-4.69 14 .81 15.63 3.66 24 6.78m-41.73 93.36c24.57-12.92 48.24-33.6 67.28-53.72.89 35-33.17 63.93-67.28 53.72"/><path fill="#d6d6e3" d="M648.36 159.04c.32.66 1.42 1.1 2.09 1.05-1.34 3.15 1.77 2.82 2.09 3.13a65 65 0 0 1 12.51 16.16c-11.66 21.3-53.3 55.37-77.45 62.07-11.32-12.5-18.17-28.23-17.47-45.38 30.42 2.3 58.48-12.5 75.63-37.03zm-38.07-3.13c-2.56 6.67-11.92 16.87-17.47 20.87-10.97 7.9-15.5 4.55-19.56 7.82.05-2.61 2.68-6.93 4.17-9.13 9.93-14.66 19.01-13.25 32.86-19.56"/><path fill="#f0f0f0" d="m438.94 191.9 1.3 10.17c2.26 3.55 19.94 1.1.27 3.9l-2.09 10.44-1.3-9.65c-11.9-4.4-10.99-.37 0-4.7zm-93.9-44.6 1.3 10.16c2.26 3.56 19.94 1.1.27 3.92l-2.09 10.43-1.3-9.65c-11.9-4.4-10.99-.37 0-4.7zM664.3 562.8l1.3 10.17c2.26 3.55 19.94 1.1.27 3.92l-2.09 10.43-1.3-9.65c-11.9-4.41-10.99-.37 0-4.7zm-440.16-53.99 1.3 10.17c2.26 3.55 19.94 1.1.27 3.91l-2.09 10.43-1.3-9.64c-11.9-4.41-10.99-.38 0-4.7zm517.44-180.76 2.6 20.31c4.5 7.09 39.8 2.18.52 7.81L740.54 377l-2.6-19.27c-23.75-8.8-21.94-.74 0-9.37zM495.1 717.74l2.6 20.3c4.5 7.1 39.8 2.19.52 7.82l-4.17 20.83-2.6-19.27c-23.75-8.8-21.94-.74 0-9.37z"/></svg>