<svg xmlns="http://www.w3.org/2000/svg" width="800" height="645.72" viewBox="0 0 800 645.72"><g transform="translate(-518.27 -183.46)"><path fill="#090814" d="M1044.94 544.72c-16.88 10.13-46.97 22.82-77.7 9.78l-19.88-8.43 39.82-44.65a190.2 190.2 0 1 1 57.76 43.3m-76.3-171.37a158 158 0 0 0 50.33 116.29l10.98 10.32-25.06 28.1c13.05-2.66 24.42-9.72 30.19-13.82l7.9-5.63 8.52 4.68a160 160 0 0 0 76.7 19.62c87.97 0 159.55-71.58 159.55-159.56S1216.17 213.8 1128.2 213.8s-159.56 71.57-159.56 159.55"/><path fill="#f2f2f2" d="M953.17 373.35a174.95 174.95 0 1 1 90.87 153.5c-12.1 8.6-41.61 25.77-70.77 13.4l35.1-39.34a174.5 174.5 0 0 1-55.2-127.56"/><path fill="#e6e6e6" d="M975.3 285.65a175.03 175.03 0 0 0-159.54-174.33q7.65-.69 15.46-.7a175.02 175.02 0 1 1 0 350.06q-7.8-.01-15.44-.7A175.03 175.03 0 0 0 975.3 285.65" style="isolation:isolate" transform="translate(298.1 88.08)"/><path fill="#090814" d="M724.87 787.87a190.7 190.7 0 1 1 141.01-62.43l39.83 44.65-19.88 8.43c-30.74 13.04-60.82.35-77.71-9.78a191 191 0 0 1-83.25 19.13m0-350.05c-87.97 0-159.55 71.58-159.55 159.55s71.58 159.56 159.55 159.56a160 160 0 0 0 76.72-19.63l8.5-4.67 7.9 5.63c5.77 4.1 17.14 11.16 30.2 13.81l-25.07-28.09 10.99-10.32a158 158 0 0 0 50.32-116.29c0-87.98-71.58-159.55-159.55-159.55Z"/><path fill="#f2f2f2" d="M899.9 597.37a174.95 174.95 0 1 0-90.87 153.5c12.1 8.6 41.6 25.77 70.77 13.4l-35.1-39.34a174.5 174.5 0 0 0 55.2-127.56"/><path fill="#e6e6e6" d="M223.85 531.65A175.03 175.03 0 0 1 383.41 357.3q-7.65-.67-15.47-.68a175.02 175.02 0 1 0 0 350.04q7.8 0 15.44-.69a175.03 175.03 0 0 1-159.53-174.33" style="isolation:isolate" transform="translate(356.94 64.84)"/><path fill="#090814" d="M1169.28 317.75c-11.45-19.35-34.1-20.25-34.1-20.25s-22.08-2.83-36.24 26.64c-13.2 27.47-31.42 54-2.93 60.42l5.14-16.01 3.19 17.2a112 112 0 0 0 12.18.21c30.5-.98 59.56.29 58.63-10.66-1.25-14.55 5.15-38.93-5.87-57.55m-74.9 169.45a45 45 0 0 1-1.46 6.29c-.72 2.01-1.83 3.88-2.48 5.91-2.09 6.49.8 13.73 5.43 18.73a30.6 30.6 0 0 0 14.9 8.85 61 61 0 0 0 12.8 1.35c11.9.4 24.12.77 35.4-3.06a62 62 0 0 0 10.3-4.67 8 8 0 0 0 2.66-2.1 7.3 7.3 0 0 0 .96-4.31c-.02-5.05-1.05-10.07-.8-15.11.13-2.8.65-5.58.4-8.37a15.4 15.4 0 0 0-11.8-13.3c-3.2-.68-6.52-.3-9.77 0a249 249 0 0 1-25.45 1.15c-8.68-.06-17.3-1.38-25.94-1.52-2.55-.04-2.5.74-3.32 3.22a60 60 0 0 0-1.83 6.94"/><path fill="#ed9da0" d="M1119.01 362.59a15 15 0 0 1-2.18 6.24c-1.51 2.07-3.97 3.25-5.6 5.22-2.44 2.98-2.59 7.16-2.6 11.01 0 3.55.06 7.33 2.04 10.28a18 18 0 0 0 5.15 4.54c7.42 5 15.43 10.09 24.38 10.25 3.7.07 7.68-.89 10.12-3.68a15 15 0 0 0 2.45-4.37 58 58 0 0 0 4.1-17.67 21 21 0 0 0-.78-8.49c-1.08-3.03-3.28-5.52-4.73-8.4a18.7 18.7 0 0 1-1.8-11.05 1.2 1.2 0 0 0-.07-.8 1.2 1.2 0 0 0-.96-.4L1130.8 354a39 39 0 0 1-4.92-.56c-.96-.2-3.48-1.55-4.4-1.2-1.67.68-2.11 8.54-2.46 10.35"/><circle cx="26.02" cy="26.02" r="26.02" fill="#ed9da0" transform="translate(1109.95 312.93)"/><path fill="#531047" d="M1122.66 397.22a16 16 0 0 0 4.57 3.66 14 14 0 0 0 5.71 1.08c4.7.13 9.78-.73 13.04-4.1 4.2-4.34 4.07-11.36 7.36-16.43a4 4 0 0 1 1.07-1.16 3.4 3.4 0 0 1 1.8-.41c4.17-.04 7.8 2.66 11.07 5.23a15 15 0 0 1 3.89 3.97 14 14 0 0 1 1.31 4.02c1.63 7.93 2.15 16.04 2.68 24.12.28 4.46.57 8.92.55 13.4-.07 14.72-3.5 29.2-6.9 43.54-.44 1.84-1.04 3.9-2.72 4.8a7 7 0 0 1-2.37.57 290 290 0 0 1-29.34 2.45q-5.75.08-11.49-.28a6 6 0 0 1-1.93-.34 5.5 5.5 0 0 1-2.11-1.8c-5.31-6.68-5.63-15.94-5.6-24.48q.13-31.33 2.25-62.6c.11-1.72.14-3.81-1.1-5.17a65 65 0 0 0 8.26 9.93"/><path fill="#531047" d="M1117.15 367.18c-.88 1.6-7.36 5.54-8.61 6.86-6.99 7.37-19.74 7.09-26.14 14.98-2.25 2.78-3.41 6.26-4.27 9.73-1.22 4.9-1.87 10.26.17 14.88 1.96 4.45 6.08 7.53 8.88 11.5 3.08 4.36 4.46 9.66 5.78 14.84.98 3.81 1.97 7.73 1.59 11.65-.44 4.46-2.6 8.55-3.87 12.84s-1.5 9.42 1.45 12.8c2.17 2.47 5.56 3.46 8.8 4a101 101 0 0 0 12.56 1.1c3.7.17 7.8.2 10.65-2.18 2.25-1.88 3.23-4.92 3.36-7.85a51 51 0 0 0-.87-8.74c-.4-3-.55-6.05-.67-9.08q-.86-20.43-.24-40.88a35 35 0 0 0-.41-8.48c-.8-3.65-2.77-6.91-4.41-10.26a39 39 0 0 1-4.3-20.51c.5-7.3 3.68-12.86.55-7.2m36.54.55c1.34 1.38 5.89 1.83 7.59 2.72a27 27 0 0 0 4.99 1.73 65 65 0 0 1 17.53 8.04 11 11 0 0 1 2.93 2.53 12 12 0 0 1 1.62 4.58 52 52 0 0 1 1.48 12.52c-.2 4.47-1.54 8.8-2.88 13.06l-4.99 15.95c-3.72 11.9-7.47 23.93-8.52 36.36a86 86 0 0 0 .77 20.65 2.5 2.5 0 0 1-.25 2 2 2 0 0 1-1.22.56c-2.41.38-4.74-.85-6.92-1.93a77 77 0 0 0-21.13-6.92 49 49 0 0 0 6.56-13.52 82 82 0 0 0 1.99-9.3l2.32-13.42a132 132 0 0 0 1.99-14.85 19 19 0 0 0-.32-5.59 27 27 0 0 0-2.12-5.04c-3.83-7.96-5.62-17.04-4.12-25.73.66-3.81 1.94-7.62 1.4-11.45-.51-3.68.02-6.54-.92-10.18-3.87-14.95-.3-5.36 2.22-2.77"/><path fill="#531047" d="M1082.34 401.6c-1.75 3.62-4.66 6.7-5.65 10.6a23 23 0 0 0-.5 5.53 26 26 0 0 0 .82 8.32c.56 1.72 1.46 3.3 2.1 4.98a18 18 0 0 1 1.19 7.39c-.18 3.48-1.36 6.86-1.45 10.35-.15 5.49 2.39 10.65 4.86 15.54a11.43 11.43 0 0 1 16.61-5.43 3.4 3.4 0 0 0 .75-2.49l.53-19.1c.27-9.83.52-19.81-1.74-29.4-1.03-4.32-2.62-8.63-5.53-11.98-1.54-1.77-6.75-6.43-9.27-4.45-1.14.9-.87 3.32-1.05 4.54a19 19 0 0 1-1.68 5.6Zm108-10.43a27 27 0 0 1 .9 8.01q.04 8.25-.23 16.5a31 31 0 0 1-1.07 8.36c-.56 1.77-1.43 3.43-2.01 5.2-1.74 5.29-.8 11.02-.64 16.59a19 19 0 0 1-.46 5.37c-.92 3.45-3.4 6.23-5.12 9.36-1.63 2.97-2.62 6.3-4.58 9.07s-5.34 4.97-8.63 4.12c-2.49-.65-4.25-2.85-5.48-5.11a25 25 0 0 1-2.59-16.25c1.23-6.76 5.2-12.75 6.63-19.47 1.97-9.22-1.02-18.74-.93-28.16a14 14 0 0 1 .6-4.37c.74-2.15 2.35-3.87 3.84-5.6a71 71 0 0 0 5.18-6.8c1.07-1.6 2.52-5.68 4.4-6.02 4.22-.76 9.14 5.94 10.2 9.2"/><path fill="#090814" d="M1060.44 483.1a26 26 0 0 0-7.15-.76 17.83 17.83 0 0 0-16.55 21.02 30 30 0 0 0 2.83 7.74c1.9 3.84 4.17 7.68 7.67 10.14a30 30 0 0 0 6.78 3.22l18.47 6.96q4.08 1.56 8.18 3a160 160 0 0 0 42.73 8.5 46 46 0 0 0 13.26-.67 4.3 4.3 0 0 0 2.72-1.47 5 5 0 0 0 .6-2l1.15-7.96a7 7 0 0 0-.1-3.35 6.4 6.4 0 0 0-3.08-2.9c-12.14-6.98-26.32-10.82-36.54-20.4-2.41-2.25-4.43-5.82-7.35-7.36-3.32-1.73-7.22-2.72-10.65-4.32-7.49-3.5-14.85-7.52-22.97-9.4"/><path d="M1078.88 493.83c6.53 2.04 34.1 16.22 38.82 21.17-.63.23-22.12-11.82-22.76-12.01a130 130 0 0 1-17.33-6.1c-1.12-.52-7.27-2.95-7-4.37.32-1.6 7.11.94 8.27 1.3" opacity=".1"/><path fill="#ed9da0" d="M1160.34 547.04a1.5 1.5 0 0 0 1.03-.3 1.6 1.6 0 0 0 .33-1.19l-.03-10.84c-3.12-1.48-6.6-1.96-10.03-2.42l-15.97-2.13c.36.05-2.5 6.88-2.06 7.79.77 1.6 6.69 3.03 8.36 3.79 5.8 2.63 11.84 5.53 18.37 5.3"/><path fill="#ed9da0" d="M1110.23 534.67c-3.01.48-6.38.9-8.33 3.25-2.48 2.98-1.42 7.41-.24 11.1a3.6 3.6 0 0 0 4.2 3c2.75.17 5.67.31 8.08-1.04a35 35 0 0 0 3.14-2.33 20 20 0 0 1 5.77-2.64 58 58 0 0 1 11.58-2.39 18 18 0 0 0 4.56-.8 5 5 0 0 0 3.22-3.12c.55-1.97-.6-3.98-1.69-5.7a23 23 0 0 0-4.86-6c-2.97-2.32-4.45-.54-7.44.94a63 63 0 0 1-17.99 5.73"/><path fill="#2f2e41" d="m1102.35 537.38-19.15-5.66a25 25 0 0 0-7.12-1.38 8.6 8.6 0 0 0-6.54 2.65c-1.49 1.74-1.92 4.12-2.29 6.38l-.79 4.83a24 24 0 0 0-.44 7.42 8.2 8.2 0 0 0 3.8 6.12c2.65 1.44 5.9.74 8.85.13a96 96 0 0 1 18.15-1.94c2.3-.03 4.7 0 6.72-1.07a8.4 8.4 0 0 0 4.1-6.7c.38-4.12-1-9.5-5.29-10.78m65.52-4.93c2.48-.43 4.67-1.84 7.05-2.68 3.35-1.17 6.98-1.17 10.52-1.15a7 7 0 0 1 3.78.75c1.56 1.04 1.96 3.12 2.22 4.98l1.6 11.21a18 18 0 0 1 .14 6.35 6 6 0 0 1-3.95 4.62c-2.5.65-4.96-.95-7.32-2-5.91-2.63-12.78-1.96-18.94-3.92a4.3 4.3 0 0 1-2.84-2.03 5 5 0 0 1-.22-1.93c.1-3.6-.65-8.53.43-11.97.98-3.1 4.76-2.23 7.53-2.23"/><path fill="#090814" d="M1208.39 478.58a33 33 0 0 1 11.71-.8c3.13.35 6.36 1.22 8.65 3.39 2.78 2.64 3.67 6.72 3.75 10.55a33 33 0 0 1-7.17 21.05 19 19 0 0 1-4.1 3.95 27 27 0 0 1-5.33 2.56l-41.37 16.32c-10.88 4.3-21.8 8.6-33.16 11.43a2.6 2.6 0 0 1-3.47-1.26 86 86 0 0 1-9.07-16.59 1.12 1.12 0 0 1 .5-1.76l29.25-16.81a30 30 0 0 0 5.96-4.1 15 15 0 0 0 3.06-4.26c.6-1.27.66-4.26 1.43-5.2.76-.91 3.36-.98 4.56-1.34a41 41 0 0 0 4.95-1.88c6.55-2.93 12.38-7.18 18.65-10.61a48 48 0 0 1 11.2-4.63Z"/><path d="M1191.8 491.14c-5.03 3.78-11.54 7.25-16.52 11.12-1.7 1.33-30.05 17.26-30.45 19.38 4.65.78 34.26-19.93 38.5-22a68 68 0 0 0 11.71-7.88c.95-.73 4.97-2.95 2.25-3.77-1.54-.47-4.36 2.4-5.5 3.15" opacity=".1"/><path fill="#d0cde1" d="M1157.2 368.1h-44.12a6.76 6.76 0 0 0-6.76 6.76v2.47h-.48v5.54h.48v3.88h-.48v3.32h.48v40.85a6.76 6.76 0 0 0 6.76 6.76h44.13a6.76 6.76 0 0 0 6.76-6.76v-56.06a6.76 6.76 0 0 0-6.76-6.76"/><path fill="#090814" d="m1164.22 315.88-22.38-11.72-30.91 4.8-6.4 28.24 15.92-.61 4.45-10.38v10.2l7.35-.27 4.26-16.52 2.66 17.58 26.12-.53Z"/><path fill="#ed9da0" d="M1088.2 474.93a11.6 11.6 0 0 0 4.17 4.15 8.2 8.2 0 0 0 7.18-.19 12.6 12.6 0 0 0 5.19-5.2c2.43-4.3 2.93-9.43 2.63-14.36s-1.36-9.78-1.82-14.7c-.34-3.57-.37-7.16-.4-10.75a3.6 3.6 0 0 1 .46-2.17 4.3 4.3 0 0 1 2.4-1.2c4.9-1.46 8.17-6.06 10.5-10.62 1.56-3.04 2.92-6.37 2.61-9.78s-2.74-6.84-6.15-7.18c-2.8-.3-5.4 1.49-7.42 3.45a31.8 31.8 0 0 0-9.3 18.62c-.45 3.46-.33 7.02-1.27 10.38-2.01 7.18-8.3 11.58-11.44 18.04-3.45 7.13-1.55 15.2 2.65 21.5m92.62-27.42a13.6 13.6 0 0 1-7.6 7.31 10.5 10.5 0 0 1-6.62.4 7.3 7.3 0 0 1-4.85-4.33 12 12 0 0 1-.54-3.26c-.32-4.84-.2-9.83 1.56-14.35.68-1.74 1.6-3.4 2.13-5.19a26 26 0 0 0 .8-6.33l.58-13.22a9 9 0 0 0-.2-2.86c-.58-1.91-2.37-3.15-4-4.3-3.96-2.75-7.87-5.96-9.8-10.38a7.3 7.3 0 0 1-.67-4.3c.54-2.63 3.19-4.32 5.8-4.9a13 13 0 0 1 15.57 10.47c.26 1.49.25 3.01.4 4.52.33 3.19 1.34 6.27 1.98 9.42 1.56 7.75.75 15.76 2.3 23.5 1.3 6.48 6.16 10.71 3.16 17.8"/><circle cx="5.54" cy="5.54" r="5.54" fill="#531047" transform="translate(1130.2 386.75)"/><circle cx="16.33" cy="16.33" r="16.33" fill="#090814" transform="translate(518.27 558.6)"/><path fill="#ed9da0" d="m593.8 623.4-8.23-8-16.52 5.14 1.59 19.13 33.96-1.58-10.43-14.18Z"/><circle cx="26.4" cy="26.4" r="26.4" fill="#ed9da0" transform="translate(549.4 570.44)"/><path fill="#090814" d="M739.72 657.3s32.44 55.74 40.16 64.1a140 140 0 0 0 11.7 11.68s-3.62 12.04-9.4 11.61a27 27 0 0 1-9.53-2.36s-2.58-6.68-7.08-9.62-41.27-39.1-40.4-50.65 14.55-24.76 14.55-24.76"/><path fill="#090814" d="M624.2 736.84s34.59 26.85 81.59 1.62l4.05-2.98s-6.84 15.38-7.47 19.55c-.73 4.83-18.53 33.15-21.44 34.5s-3.54 2.62-3.54 2.62l12.33 13.56 4.55-3.35s17.77-25.18 22.97-29.78 29.95-52.1 29.95-52.1 9.47-17.9-14.15-19.24-34.5 5.1-34.5 5.1l-41.93 6.65Z"/><path fill="#2f2e41" d="m791.99 730.45 17.5 12.1s22.3 6.99 8.56 11.64-49.97 6.34-50.8-.08 1.43-16.53 3.24-15.98 14.35 3.82 21.5-7.69m-96.17 67.76 3.24 17.78s9.2 17.6-1.85 12.14-33.83-26.21-30.46-30.56 10.78-9.07 11.53-7.65 6.34 10.9 17.54 8.29"/><path fill="#531047" d="M662.46 718.83s-23.5 27.45-37.78 20.78-72.67-83.9-66-98.16 8.9-11.24 8.9-11.24l30.15 2.79-8.67-13.91a5.87 5.87 0 0 1 7.9 1.2c3.87 4.18 19.36 14.64 24.76 29.4s21.25 14.02 21.25 14.02Z"/><path fill="#3f3d56" d="m757.4 662.23-40.75 43.26-36.5-64.45 34.7-41.94Z"/><path fill="#fff" d="m754.33 661.77-36.81 38.01-33.35-58.58 30.58-38.5Z"/><path fill="#b3b3b3" d="m714.65 703.84 2 1.65-1.28 2.5-56.98 16.97-.54-1.96 2.59-2.68Z"/><path fill="#d0cde1" d="m717.16 705.12-59.02 18.45-35.97-67.97 57.97-14.56Z"/><path fill="#3f3d56" d="m712.71 695.9-2.53 1.87-28.1-48.8 2.9-1.35Zm-5.81 2.72-24.96 7.44-28.34-50.17 24.7-5.69Z"/><path fill="#ed9da0" d="m636.58 661.39 5.17-1.46s28.82-3.26 29.24 5.8-33.11 4.85-33.11 4.85l-4.47-6.07Zm25.28 40.71 7.2-2.95s21.7-9.73 15.48-16.07-25.44 4.67-25.44 4.67l-3.68 3.49Z"/><path fill="#531047" d="M655.45 688.1s11.71 11.66 9.05 14.4-46.37 38.82-57.2 27.28-63.62-69.48-43.08-74.45 25.96 6.65 25.96 6.65l27.12 46.39Zm-35.07-35.47 19.24 6.52-.32 13.9-20.35-2.2Z"/><path d="m637.72 695.29-20.73 12.13-23.69-36.43 22.87 30Z" opacity=".2"/><circle cx="31.43" cy="31.43" r="31.43" fill="#090814" transform="translate(532.79 557.75)"/><path fill="#531047" d="m734.05 664.98-22-32.2 9.32-11.55 22.87 33.12Z"/><path fill="#e6e6e6" d="m733.43 677.92-33.5-48.7 1.65-2 33.35 48.82Zm-4.31 4.74-33.51-48.71 1.65-2 33.35 48.83Zm-3.68 3.49-33.5-48.71 1.64-2 33.35 48.82Z"/><path fill="#090814" d="M578.14 568.2h9.72a18.56 18.56 0 0 1 18.56 18.56h-28.28Z"/><path fill="#3f3d56" d="m712.08 556.39-1.77-.13-.17 2.76-7.91-.27 8.3 15.55 9.32-14.96-7.94-.26q.07-1.35.17-2.7m46.41-126.77 1.4 1.08c2.1-2.76 4.31-5.52 6.54-8.2l-1.35-1.13q-3.39 4.06-6.6 8.25m13.55-16.21 1.3 1.2q3.54-3.87 7.24-7.58l-1.25-1.25a241 241 0 0 0-7.3 7.64m14.92-14.95 1.2 1.3q3.86-3.55 7.87-6.92l-1.14-1.35c-2.68 2.25-5.35 4.6-7.93 6.97m-40.52 48.5 1.5.94q2.79-4.43 5.8-8.74l-1.46-1c-2 2.87-3.97 5.84-5.84 8.8m56.68-62.08 1.07 1.4q4.16-3.19 8.45-6.2l-1.02-1.44q-4.31 3.02-8.5 6.24m-67.17 80.42 1.57.82q2.41-4.67 5-9.23l-1.53-.88a239 239 0 0 0-5.04 9.3m-17.05 49.76-1.72-.44q-1.31 5.12-2.4 10.28l1.73.37c.72-3.4 1.52-6.84 2.39-10.2m101.5-142.29.95 1.49a239 239 0 0 1 8.95-5.42l-.88-1.53a232 232 0 0 0-9.02 5.46M714.56 535.58l-1.74-.29a243 243 0 0 0-1.49 10.45l1.76.21c.41-3.46.9-6.95 1.47-10.37m12.54-51.05 1.64.66c1.31-3.22 2.72-6.47 4.17-9.63l-1.6-.74a234 234 0 0 0-4.2 9.7m-7.09 19.95 1.7.51c1.01-3.33 2.12-6.69 3.29-9.97l-1.67-.6c-1.17 3.31-2.29 6.7-3.32 10.06m219.95-166.92c3.46-.12 7-.17 10.48-.14l.02-1.77c-3.52-.03-7.07.02-10.56.14Zm-101.32 24.72.81 1.56q4.66-2.41 9.4-4.6l-.74-1.6a235 235 0 0 0-9.47 4.63m143.15-22.51c3.45.49 6.93 1.06 10.35 1.7l.32-1.74c-3.44-.64-6.95-1.22-10.42-1.7Zm20.6 3.85q5.11 1.2 10.16 2.62l.48-1.7a239 239 0 0 0-10.23-2.63Zm20.19 5.68a237 237 0 0 1 9.88 3.5l.62-1.65a237 237 0 0 0-9.95-3.53Zm-61.66-11.55q5.25.29 10.46.78l.17-1.76c-3.48-.33-7.03-.6-10.53-.78Zm-42.07-.29.22 1.75c3.44-.42 6.95-.78 10.42-1.05l-.14-1.76c-3.5.27-7.03.63-10.5 1.06m-41.24 8.84.52 1.69c3.32-1.03 6.71-2 10.08-2.88l-.45-1.7q-5.1 1.33-10.15 2.89m-19.85 7.12.67 1.64q4.85-1.98 9.76-3.75l-.6-1.66a237 237 0 0 0-9.83 3.78m40.27-12.47.37 1.73q5.12-1.1 10.3-1.97l-.3-1.75c-3.46.59-6.95 1.25-10.37 1.99m160.8 22.78-9.88-14.6-3.47 7.15-2.52-1.13-.7 1.63q1.23.53 2.45 1.09l-3.46 7.11Z"/></g></svg>