<?xml version="1.0" encoding="UTF-8" standalone="no"?>
<!-- Created with Inkscape (http://www.inkscape.org/) -->

<svg
   width="600"
   height="400"
   viewBox="0 0 158.75 105.83333"
   version="1.1"
   id="svg4650"
   xml:space="preserve"
   inkscape:version="1.2.2 (732a01da63, 2022-12-09)"
   sodipodi:docname="wiedza.svg"
   xmlns:inkscape="http://www.inkscape.org/namespaces/inkscape"
   xmlns:sodipodi="http://sodipodi.sourceforge.net/DTD/sodipodi-0.dtd"
   xmlns="http://www.w3.org/2000/svg"
   xmlns:svg="http://www.w3.org/2000/svg"><sodipodi:namedview
     id="namedview4652"
     pagecolor="#ffffff"
     bordercolor="#000000"
     borderopacity="0.25"
     inkscape:showpageshadow="2"
     inkscape:pageopacity="0.0"
     inkscape:pagecheckerboard="0"
     inkscape:deskcolor="#d1d1d1"
     inkscape:document-units="mm"
     showgrid="false"
     inkscape:zoom="1.0908049"
     inkscape:cx="280.98517"
     inkscape:cy="258.98306"
     inkscape:window-width="1920"
     inkscape:window-height="991"
     inkscape:window-x="-9"
     inkscape:window-y="-9"
     inkscape:window-maximized="1"
     inkscape:current-layer="layer1" /><defs
     id="defs4647" /><g
     inkscape:label="Warstwa 1"
     inkscape:groupmode="layer"
     id="layer1"><path
       id="path5613"
       style="fill:#217821;stroke:none;stroke-width:0.690192;stroke-linecap:round;stroke-linejoin:round"
       d="M 79.374742,10.638369 A 42.278282,42.278282 0 0 0 37.096702,52.916925 42.278282,42.278282 0 0 0 79.374742,95.194965 42.278282,42.278282 0 0 0 121.6533,52.916925 42.278282,42.278282 0 0 0 79.374742,10.638369 Z m 0,6.174817 A 36.103767,36.103767 0 0 1 115.47848,52.916925 36.103767,36.103767 0 0 1 102.30254,80.770522 V 78.90552 78.88226 a 3.84423,3.84423 0 0 1 -0.33538,0.02326 h -0.26975 a 3.84423,3.84423 0 0 1 -3.711918,-3.834392 3.84423,3.84423 0 0 1 3.671098,-3.837492 h 0.40979 a 3.84423,3.84423 0 0 1 0.23616,0.0217 v -0.0217 -1.909444 -0.02274 h -9.083165 v -0.02274 a 3.84423,3.84423 0 0 1 -0.33538,0.02274 h -0.269234 a 3.84423,3.84423 0 0 1 -3.711919,-3.833875 3.84423,3.84423 0 0 1 3.671094,-3.838008 h 0.409794 a 3.84423,3.84423 0 0 1 0.235645,0.02222 v -0.02222 h 9.083165 v -0.02119 -1.910477 -0.02325 a 3.84423,3.84423 0 0 1 -0.33538,0.02325 h -0.26975 a 3.84423,3.84423 0 0 1 -3.711918,-3.834392 3.84423,3.84423 0 0 1 3.671098,-3.837492 h 0.40979 a 3.84423,3.84423 0 0 1 0.23616,0.0217 v -0.0217 -1.909444 -0.02274 H 81.526032 c 1.070649,-0.136219 1.896035,-0.651235 2.172477,-1.304314 h 2.445329 V 42.410073 H 75.783747 v 6.379455 h 2.441194 c 0.276413,0.653008 1.102983,1.168028 2.172994,1.304314 h -9.162231 v 0.0057 a 5.7663451,5.7663451 0 0 0 -5.705078,5.763989 5.7663451,5.7663451 0 0 0 1.477946,3.834392 h -4.856035 v 0.0052 a 5.7663451,5.7663451 0 0 0 -5.705078,5.764506 5.7663451,5.7663451 0 0 0 5.705078,5.762439 v 0.0036 h 0.06098 4.796607 a 5.7663451,5.7663451 0 0 0 -1.479496,3.837492 5.7663451,5.7663451 0 0 0 5.705078,5.762439 v 0.0036 h 0.06098 30.926794 A 36.103767,36.103767 0 0 1 79.374742,89.020664 36.103767,36.103767 0 0 1 43.271002,52.916925 36.103767,36.103767 0 0 1 79.374742,16.813186 Z m 1.588017,8.182963 c -4.978892,0 -9.018055,4.032999 -9.018055,9.017537 0,3.034501 1.507565,5.704826 3.810621,7.33857 H 86.17381 c 2.295994,-1.633744 3.806486,-4.304069 3.806486,-7.33857 0.0014,-4.981715 -4.037232,-9.017537 -9.017537,-9.017537 z m -0.0041,7.840865 c 0.526692,0 0.95343,1.566429 0.95343,3.499528 0.0014,1.931685 -0.425324,3.497977 -0.95343,3.497977 -0.523874,0 -0.941545,-1.566292 -0.941545,-3.497977 0,-1.931687 0.419083,-3.499528 0.941545,-3.499528 z m -4.042648,10.923881 h 8.208801 l 0.0093,3.486609 h -8.176245 v -0.05116 h -0.04186 z m -5.680273,8.260994 v 0.0041 h 0.290421 a 3.84423,3.84423 0 0 1 3.614767,3.837492 3.84423,3.84423 0 0 1 -3.711918,3.834392 h -0.19327 -0.05684 a 3.84423,3.84423 0 0 1 -3.726388,-3.834392 3.84423,3.84423 0 0 1 3.783232,-3.841626 z m 4.364591,0.0041 H 97.52974 a 5.7663451,5.7663451 0 0 0 -1.376143,2.869593 H 76.973855 a 5.7663451,5.7663451 0 0 0 -1.37356,-2.869593 z m 1.37201,4.801774 h 19.182808 a 5.7663451,5.7663451 0 0 0 1.381311,2.87011 H 93.219375 75.59151 a 5.7663451,5.7663451 0 0 0 1.380795,-2.87011 z m -14.819768,4.79764 v 0.0041 h 0.290422 a 3.84423,3.84423 0 0 1 3.614766,3.837491 3.84423,3.84423 0 0 1 -3.711401,3.834392 h -0.193787 v 0.0052 a 3.84423,3.84423 0 0 1 -3.783231,-3.839559 3.84423,3.84423 0 0 1 3.783231,-3.841626 z m 4.364592,0.0041 h 4.718575 17.211352 a 5.7663451,5.7663451 0 0 0 -1.376143,2.869592 H 67.891205 a 5.7663451,5.7663451 0 0 0 -1.374076,-2.869592 z m 1.372009,4.80229 H 87.07198 a 5.7663451,5.7663451 0 0 0 1.381311,2.869593 h -17.217553 -4.72736 a 5.7663451,5.7663451 0 0 0 1.380794,-2.869593 z m 3.302124,4.801258 h 0.04444 0.290421 a 3.84423,3.84423 0 0 1 3.614767,3.838008 3.84423,3.84423 0 0 1 -3.711918,3.834392 h -0.19327 v 0.0052 a 3.84423,3.84423 0 0 1 -3.783232,-3.839559 3.84423,3.84423 0 0 1 3.73879,-3.837492 z m 4.409033,0 h 17.61908 4.310331 a 5.7663451,5.7663451 0 0 0 -1.376177,2.870178 H 76.973855 a 5.7663451,5.7663451 0 0 0 -1.37356,-2.869593 z m 1.37201,4.802291 h 19.182808 a 5.7663451,5.7663451 0 0 0 1.381311,2.870109 H 75.59151 a 5.7663451,5.7663451 0 0 0 1.380795,-2.870109 z" /></g></svg>
