<svg xmlns="http://www.w3.org/2000/svg" xml:space="preserve" width="600" height="400" viewBox="0 0 158.75 105.83"><path d="M79.37 10.64A42.3 42.3 0 0 0 37.1 52.92 42.3 42.3 0 0 0 79.37 95.2a42.3 42.3 0 0 0 42.28-42.28 42.3 42.3 0 0 0-42.28-42.28m0 5.97a36.3 36.3 0 0 1 36.3 36.3 36.3 36.3 0 0 1-36.3 36.3 36.3 36.3 0 0 1-36.3-36.3 36.3 36.3 0 0 1 36.3-36.3" style="fill:#217821;fill-opacity:1;stroke:none;stroke-width:.480959;stroke-linecap:round;stroke-linejoin:round"/><path d="m56.34 69.42 13.83-13.84 1.79 1.09 2.7-2.63a15.3 15.3 0 1 1 3.57 3.57l-2.54 2.45 1.03 2.07-13.83 13.83s-3.02.03-4.83-2.04c-1.8-2.07-1.72-4.5-1.72-4.5M95.45 53.5a11.78 11.78 0 1 0-16.67-16.66A11.78 11.78 0 0 0 95.45 53.5" style="fill:#217821;fill-opacity:1;stroke-width:1.97735"/></svg>