<?xml version="1.0" encoding="UTF-8" standalone="no"?>
<!-- Created with Inkscape (http://www.inkscape.org/) -->

<svg
   width="600"
   height="400"
   viewBox="0 0 158.75 105.83333"
   version="1.1"
   id="svg4650"
   xml:space="preserve"
   inkscape:version="1.2.2 (732a01da63, 2022-12-09)"
   sodipodi:docname="wiedza.svg"
   xmlns:inkscape="http://www.inkscape.org/namespaces/inkscape"
   xmlns:sodipodi="http://sodipodi.sourceforge.net/DTD/sodipodi-0.dtd"
   xmlns="http://www.w3.org/2000/svg"
   xmlns:svg="http://www.w3.org/2000/svg"><sodipodi:namedview
     id="namedview4652"
     pagecolor="#ffffff"
     bordercolor="#000000"
     borderopacity="0.25"
     inkscape:showpageshadow="2"
     inkscape:pageopacity="0.0"
     inkscape:pagecheckerboard="0"
     inkscape:deskcolor="#d1d1d1"
     inkscape:document-units="mm"
     showgrid="false"
     inkscape:zoom="0.38565777"
     inkscape:cx="652.13259"
     inkscape:cy="-71.306744"
     inkscape:window-width="1920"
     inkscape:window-height="991"
     inkscape:window-x="-9"
     inkscape:window-y="-9"
     inkscape:window-maximized="1"
     inkscape:current-layer="layer1" /><defs
     id="defs4647" /><g
     inkscape:label="Warstwa 1"
     inkscape:groupmode="layer"
     id="layer1"><path
       id="path11145"
       style="fill:#217821;fill-opacity:1;stroke:none;stroke-width:0.480959;stroke-linecap:round;stroke-linejoin:round"
       d="m 79.374998,10.638112 a 42.278454,42.278681 0 0 0 -42.278556,42.27907 42.278454,42.278681 0 0 0 42.278556,42.27804 42.278454,42.278681 0 0 0 42.278562,-42.27855 42.278454,42.278681 0 0 0 -42.278562,-42.27856 z m 0,5.97638 a 36.302353,36.302353 0 0 1 36.302182,36.30218 36.302353,36.302353 0 0 1 -36.302182,36.30217 36.302353,36.302353 0 0 1 -36.302177,-36.30217 36.302353,36.302353 0 0 1 36.302177,-36.30218 z" /><path
       d="m 56.339264,69.416135 13.829555,-13.835485 1.791469,1.089526 2.708967,-2.625925 C 70.4061,48.066744 70.938003,39.718389 76.298582,34.35583 c 5.977516,-5.973558 15.660577,-5.971585 21.634132,0.0015 5.971586,5.971582 5.971586,15.656615 0,21.634127 -5.368493,5.370477 -13.722773,5.892495 -19.700281,1.619447 l -2.540894,2.447961 1.026245,2.068302 -13.829555,13.829545 c 0,0 -3.013474,0.0336 -4.824715,-2.036667 -1.811252,-2.070278 -1.72425,-4.504398 -1.72425,-4.504398 z M 95.45115,53.506414 c 4.5993,-4.603252 4.59733,-12.061803 -0.0056,-16.661107 -4.587443,-4.599302 -12.059826,-4.605234 -16.665061,-0.0015 -4.591397,4.601284 -4.593377,12.057854 0.01,16.665061 4.595348,4.595356 12.055872,4.597332 16.661106,-0.0015 z"
       id="path703"
       style="fill:#217821;fill-opacity:1;stroke-width:1.97735" /></g></svg>
