<svg xmlns="http://www.w3.org/2000/svg" xml:space="preserve" width="600" height="400" viewBox="0 0 158.75 105.83"><path d="M79.37 10.64A42.3 42.3 0 0 0 37.1 52.92a42.3 42.3 0 0 0 42.27 42.27 42.3 42.3 0 0 0 42.28-42.27 42.3 42.3 0 0 0-42.28-42.28m0 6.17a36.1 36.1 0 0 1 36.1 36.1 36.1 36.1 0 0 1-13.17 27.86v-1.89l-.33.03h-.27a3.84 3.84 0 0 1-3.71-3.84 3.84 3.84 0 0 1 3.67-3.84h.4l.24.03V69.3h-9.08v-.02l-.34.02h-.27a3.84 3.84 0 0 1-3.7-3.83 3.84 3.84 0 0 1 3.66-3.84h.41l.24.02v-.02h9.08v-1.96l-.33.03h-.27a3.84 3.84 0 0 1-3.71-3.84 3.84 3.84 0 0 1 3.67-3.83h.4l.24.02v-1.96H81.53c1.07-.13 1.9-.65 2.17-1.3h2.44v-6.38H75.78v6.38h2.44c.28.65 1.1 1.17 2.18 1.3h-9.16v.01a5.77 5.77 0 0 0-5.7 5.76A5.8 5.8 0 0 0 67 59.7h-4.86a5.77 5.77 0 0 0-5.7 5.77 5.77 5.77 0 0 0 5.7 5.76H67a5.8 5.8 0 0 0-1.48 3.84 5.77 5.77 0 0 0 5.7 5.76h30.99a36 36 0 0 1-22.85 8.2 36.1 36.1 0 0 1-36.1-36.11 36.1 36.1 0 0 1 36.1-36.1m1.6 8.19a9.02 9.02 0 0 0-5.21 16.35h10.41A9 9 0 0 0 80.97 25m-.01 7.84c.53 0 .95 1.56.95 3.5 0 1.93-.42 3.5-.95 3.5s-.94-1.57-.94-3.5c0-1.94.42-3.5.94-3.5m-4.04 10.92h8.2l.01 3.49h-8.17v-.05h-.04zm-5.68 8.26h.29a3.84 3.84 0 0 1 3.61 3.84 3.84 3.84 0 0 1-3.71 3.84h-.25a3.84 3.84 0 0 1-3.73-3.84 3.84 3.84 0 0 1 3.79-3.84m4.36 0h21.93a6 6 0 0 0-1.38 2.88H76.97a6 6 0 0 0-1.37-2.87m1.37 4.8h19.19a6 6 0 0 0 1.38 2.88H75.59a6 6 0 0 0 1.38-2.87m-14.82 4.8h.3a3.84 3.84 0 0 1 3.6 3.84 3.84 3.84 0 0 1-3.7 3.83h-.2a3.84 3.84 0 0 1-3.78-3.83 3.84 3.84 0 0 1 3.78-3.84m4.37.01h21.92a6 6 0 0 0-1.37 2.87H67.9a6 6 0 0 0-1.37-2.87m1.37 4.8h19.18a6 6 0 0 0 1.38 2.87H66.51a6 6 0 0 0 1.38-2.87m3.3 4.8h.34a3.84 3.84 0 0 1 3.61 3.84 3.84 3.84 0 0 1-3.71 3.84h-.2a3.84 3.84 0 0 1-3.78-3.84 3.84 3.84 0 0 1 3.74-3.84m4.41 0h21.93a6 6 0 0 0-1.38 2.87H76.97a6 6 0 0 0-1.37-2.87m1.37 4.8h19.19a6 6 0 0 0 1.38 2.88H75.59a6 6 0 0 0 1.38-2.87" style="fill:#217821;stroke:none;stroke-width:.690192;stroke-linecap:round;stroke-linejoin:round"/></svg>