<?xml version="1.0" encoding="UTF-8" standalone="no"?>
<!-- Created with Inkscape (http://www.inkscape.org/) -->

<svg
   width="600"
   height="400"
   viewBox="0 0 158.75 105.83333"
   version="1.1"
   id="svg4650"
   xml:space="preserve"
   inkscape:version="1.2.2 (732a01da63, 2022-12-09)"
   sodipodi:docname="wsparcie.svg"
   xmlns:inkscape="http://www.inkscape.org/namespaces/inkscape"
   xmlns:sodipodi="http://sodipodi.sourceforge.net/DTD/sodipodi-0.dtd"
   xmlns:xlink="http://www.w3.org/1999/xlink"
   xmlns="http://www.w3.org/2000/svg"
   xmlns:svg="http://www.w3.org/2000/svg"><sodipodi:namedview
     id="namedview4652"
     pagecolor="#ffffff"
     bordercolor="#000000"
     borderopacity="0.25"
     inkscape:showpageshadow="2"
     inkscape:pageopacity="0.0"
     inkscape:pagecheckerboard="0"
     inkscape:deskcolor="#d1d1d1"
     inkscape:document-units="mm"
     showgrid="false"
     inkscape:zoom="0.99485627"
     inkscape:cx="188.46944"
     inkscape:cy="269.88823"
     inkscape:window-width="1920"
     inkscape:window-height="991"
     inkscape:window-x="-9"
     inkscape:window-y="-9"
     inkscape:window-maximized="1"
     inkscape:current-layer="layer1" /><defs
     id="defs4647"><linearGradient
       id="linear-gradient15"
       x1="108.8"
       y1="395.20001"
       x2="696.20001"
       y2="395.20001"
       xlink:href="#linear-gradient" /><linearGradient
       id="linear-gradient"
       x1="125.3"
       y1="403.29999"
       x2="672.79999"
       y2="403.29999"
       gradientTransform="matrix(1,0,0,-1,0,802)"
       gradientUnits="userSpaceOnUse"><stop
         offset="0"
         stop-color="#7c152e"
         id="stop10010" /><stop
         offset="1"
         stop-color="#f4721a"
         id="stop10012" /></linearGradient></defs><g
     inkscape:label="Warstwa 1"
     inkscape:groupmode="layer"
     id="layer1"><path
       id="path433"
       style="fill:#d40000;fill-opacity:1;stroke-width:0.189615"
       d="m 85.695092,28.358488 c -1.916633,0.01759 -3.825154,0.674551 -5.705608,1.816892 -0.463135,0.29773 -0.760848,0.33081 -1.257064,0 -1.720217,-1.124767 -3.572808,-1.819387 -5.689997,-1.753227 -0.562379,0.03308 -1.091694,-0.03316 -1.620992,0.09917 -4.929085,0.959354 -7.708072,4.896132 -7.575748,9.725999 0.09924,4.035914 1.753365,7.443177 4.432935,10.420497 2.944217,3.241964 6.649377,5.458526 10.586028,7.244914 0.33081,0.132326 0.893171,0.09901 1.257064,-0.09947 1.81946,-0.992441 3.705022,-1.885509 5.425239,-3.043354 4.962166,-3.275045 8.700448,-7.509636 9.295908,-13.728916 0.363892,-3.738182 -0.793977,-7.013162 -4.069006,-9.130369 -1.690238,-1.085475 -3.387614,-1.567652 -5.078759,-1.552131 z m -0.127329,1.382564 c 1.773974,-0.02894 3.502583,0.533553 4.974693,1.691398 2.381838,1.885628 3.17576,4.465988 2.911112,7.377142 -0.430055,4.829862 -2.977479,8.501729 -6.748724,11.313637 -2.150272,1.620982 -4.531909,2.84523 -6.847586,4.201562 -0.231568,0.165405 -0.66185,0.198439 -0.9265,0.06611 -3.771245,-1.819468 -7.310781,-3.969893 -10.056512,-7.211858 -2.381839,-2.811908 -3.738184,-6.020807 -3.672023,-9.428183 0.396974,-4.399806 2.613319,-7.112453 6.285321,-7.840243 2.514164,-0.496216 4.829945,0.165372 6.847893,1.687114 0.727783,0.529297 1.224053,0.562383 1.984917,0 1.654055,-1.207468 3.473435,-1.827736 5.247409,-1.856681 z m -12.757042,2.055327 c -2.844978,0 -5.458296,2.613443 -5.458296,5.723085 0.09924,0.09925 0.330673,0.562275 0.595321,0.595326 0.562379,0.09925 0.661668,-0.363868 0.760912,-0.860084 0.165405,-0.76087 0.396994,-1.554698 0.793967,-2.216327 0.760866,-1.190927 1.885607,-1.786536 3.308096,-1.852702 0.529298,-0.03308 0.992429,-0.198509 0.827023,-0.793972 -0.06616,-0.264652 -0.529294,-0.595326 -0.827023,-0.595326 z M 57.410078,37.66975 c -0.611573,-0.0018 -1.551043,0.55465 -1.882076,1.115049 -0.510793,0.864711 -0.66258,8.10022 -0.251903,12.003542 0.487981,4.638046 0.581046,4.818533 4.575567,8.87571 2.887738,2.933027 3.892286,4.24614 3.874647,5.064707 -0.004,0.18667 -0.274324,0.509799 -0.600526,0.718372 -0.3262,0.208579 -0.77073,0.620293 -0.988021,0.914868 -0.372472,0.504949 -0.395148,0.776898 -0.395148,4.75526 v 4.219926 l 0.54329,0.712254 c 0.298869,0.391742 0.810839,0.875343 1.137694,1.074641 0.552202,0.336693 1.003719,0.361363 6.377449,0.348629 6.231393,-0.01478 6.59536,-0.06325 7.602071,-1.013434 0.938254,-0.885554 0.994917,-1.209253 0.948843,-5.418228 -0.04126,-3.768249 -0.05697,-3.912142 -0.517885,-4.702615 -0.280417,-0.480931 -0.742356,-0.942624 -1.125756,-1.125455 l -0.649805,-0.310059 v -2.395383 c 0,-3.603654 -0.157986,-3.994979 -2.627684,-6.510322 -2.166321,-2.206347 -2.766642,-2.610745 -4.386716,-2.954285 -0.974259,-0.206589 -1.188957,-0.365973 -3.318502,-2.46823 -1.768172,-1.745508 -2.456259,-2.300947 -3.081598,-2.4869 -1.071506,-0.318622 -1.202713,-0.776355 -1.355315,-4.730774 -0.07065,-1.830739 -0.213753,-3.292729 -0.34495,-3.524206 -0.623538,-1.10012 -2.354261,-2.158921 -3.533676,-2.163067 z m 43.743512,0.0031 c -0.6627,0.0051 -1.908597,0.566464 -2.484753,1.119335 -1.010499,0.96966 -1.082636,1.241023 -1.207173,4.556001 -0.148833,3.961515 -0.279759,4.420738 -1.352255,4.73965 -0.62534,0.185953 -1.313731,0.741392 -3.081903,2.486901 -2.129928,2.102635 -2.343761,2.261584 -3.318197,2.467924 -1.57783,0.334116 -2.014663,0.619855 -4.136649,2.706053 -2.69176,2.646373 -2.74938,2.77451 -2.841632,6.294537 l -0.07499,2.852972 -0.68684,0.370354 c -1.303665,0.702931 -1.489266,1.340893 -1.587934,5.459245 -0.04787,1.998388 -0.0071,3.948083 0.0906,4.332872 0.212602,0.837727 1.309737,1.991807 2.116225,2.226121 0.319502,0.09288 3.166151,0.175837 6.326029,0.185788 6.293034,0.01873 6.359058,0.0089 7.310683,-1.122091 0.805424,-0.957194 0.912978,-1.68528 0.846919,-5.720941 -0.06757,-4.128001 -0.125672,-4.337409 -1.444078,-5.180402 -1.227903,-0.78513 -0.693119,-1.757481 3.0767,-5.593615 1.691008,-1.720749 3.259748,-3.436698 3.486238,-3.813145 0.71932,-1.195605 0.96572,-2.201216 1.28645,-5.252028 0.40775,-3.878713 0.25307,-11.148878 -0.25558,-12.00997 -0.36492,-0.617757 -1.28857,-1.111543 -2.06787,-1.105561 z m -43.627202,1.729965 c 0.57159,-0.0075 1.419108,0.482024 1.796375,1.057812 0.280851,0.428659 0.325541,0.882173 0.284347,2.887559 -0.038,1.850002 0.03103,2.682754 0.310668,3.743972 0.356596,1.353222 0.35654,1.367639 -0.01745,1.706089 -0.876536,0.793263 -1.173015,2.302901 -0.640928,3.263121 0.138995,0.250838 1.479836,1.679998 2.979674,3.175886 1.864584,1.859686 2.859645,2.720015 3.146792,2.720133 0.527346,2.2e-4 0.897854,-0.628794 0.642153,-1.090256 -0.101126,-0.182505 -1.341524,-1.482339 -2.756236,-2.888784 -2.248049,-2.234903 -2.571978,-2.634834 -2.571978,-3.171908 0,-0.788825 0.737913,-1.346796 1.430305,-1.081381 0.24914,0.09551 1.459848,1.164251 2.69043,2.374876 1.230581,1.210613 2.40674,2.249993 2.613603,2.30968 0.206867,0.05972 0.881258,0.208891 1.498867,0.331484 1.061284,0.210659 1.228811,0.325953 3.051295,2.099098 1.413003,1.374757 1.987177,2.072035 2.148058,2.609026 0.120755,0.403054 0.219458,1.768135 0.219458,3.033558 v 2.300805 H 69.91093 65.470038 l -0.133144,-0.616141 c -0.316997,-1.466194 -1.110956,-2.538378 -4.179195,-5.643196 -2.229896,-2.256491 -3.206172,-3.384903 -3.496335,-4.040868 -0.600851,-1.358334 -0.968176,-5.063794 -0.933539,-9.419615 0.03777,-4.750037 0.138027,-5.574403 0.688065,-5.652687 0.03543,-0.0051 0.07239,-0.0077 0.110494,-0.0083 z m 44.224662,0.06734 0.12304,0.94793 c 0.23952,1.843759 0.17813,8.320269 -0.10192,10.749225 -0.39659,3.439829 -0.51974,3.656631 -4.176443,7.356941 -3.068239,3.104818 -3.862198,4.177002 -4.179195,5.643196 l -0.133144,0.616092 h -4.440892 -4.440892 l 9.18e-4,-2.322839 c 5.8e-4,-1.277538 0.08668,-2.629878 0.190993,-3.005403 0.136494,-0.491384 0.738267,-1.216548 2.146834,-2.586988 1.855032,-1.804821 2.015758,-1.915767 3.080068,-2.124808 0.617611,-0.12132 1.336088,-0.303951 1.596811,-0.405862 0.260717,-0.101923 1.49805,-1.20599 2.749502,-2.453232 1.402423,-1.397716 2.422867,-2.268379 2.659821,-2.268972 0.678181,-0.0022 1.227375,0.533613 1.227375,1.197386 0,0.528876 -0.335303,0.941271 -2.572282,3.165174 -1.414714,1.406446 -2.655108,2.706585 -2.756237,2.88909 -0.255701,0.461473 0.114807,1.090446 0.642152,1.090256 0.287152,-1.18e-4 1.282213,-0.86046 3.146792,-2.720133 1.499845,-1.495895 2.840976,-2.925054 2.979984,-3.175886 0.531995,-0.96003 0.235252,-2.469884 -0.640933,-3.262814 -0.376148,-0.340276 -0.376083,-0.344268 0.0018,-1.800975 0.308931,-1.190719 0.360637,-1.845039 0.280371,-3.549305 -0.105385,-2.237223 0.04366,-2.917264 0.783868,-3.577158 0.227269,-0.20259 0.710219,-0.366676 1.115969,-0.379232 z m -26.035646,26.970247 0.5035,0.502888 0.503193,0.503195 v 3.709078 3.709386 l -0.531965,0.458198 -0.531964,0.458205 h -5.686631 -5.686325 l -0.465545,-0.46555 c -0.461445,-0.46142 -0.465546,-0.496135 -0.465546,-4.06107 0,-1.977676 0.05305,-3.734009 0.117841,-3.902826 0.290161,-0.756155 0.927503,-0.839587 6.696996,-0.87631 z m 7.322314,0 5.546447,0.03519 c 5.769498,0.03673 6.406835,0.120155 6.696997,0.87631 0.06477,0.168817 0.117839,1.92515 0.117839,3.902826 0,3.564941 -0.0038,3.59965 -0.465239,4.06107 l -0.465545,0.46555 h -5.711729 -5.711424 l -0.57206,-0.572063 -0.572061,-0.571761 0.0652,-3.595522 0.0652,-3.595521 0.503193,-0.503195 z m -17.859675,1.119947 c -0.660325,0.03573 -1.254921,0.573607 -1.254921,1.415924 0,0.30131 0.170656,0.718539 0.37923,0.927117 0.564605,0.564612 1.579424,0.505429 2.071846,-0.120598 0.508707,-0.646727 0.496361,-1.065674 -0.05081,-1.701805 -0.329116,-0.382621 -0.74915,-0.54208 -1.145345,-0.520638 z m 28.397037,0 c -0.396194,-0.02144 -0.815922,0.138017 -1.145039,0.520638 -0.547193,0.636131 -0.55982,1.055078 -0.05112,1.701805 0.780244,0.991933 2.451382,0.442201 2.451382,-0.806519 0,-0.842317 -0.594904,-1.380197 -1.255228,-1.415924 z" /><path
       id="path11145"
       style="fill:#d40000;fill-opacity:1;stroke:none;stroke-width:0.480959;stroke-linecap:round;stroke-linejoin:round"
       d="M 79.374998,10.63811 A 42.278454,42.278681 0 0 0 37.096442,52.917183 42.278454,42.278681 0 0 0 79.374998,95.195223 42.278454,42.278681 0 0 0 121.65356,52.916667 42.278454,42.278681 0 0 0 79.374998,10.63811 Z m 0,5.97638 A 36.302353,36.302353 0 0 1 115.67718,52.916667 36.302353,36.302353 0 0 1 79.374998,89.218844 36.302353,36.302353 0 0 1 43.072821,52.916667 36.302353,36.302353 0 0 1 79.374998,16.61449 Z" /></g></svg>
