<svg xmlns="http://www.w3.org/2000/svg" xml:space="preserve" width="600" height="400" viewBox="0 0 158.75 105.83"><path d="M85.7 28.36c-1.92.02-3.83.67-5.71 1.82-.46.3-.76.33-1.26 0a9.7 9.7 0 0 0-5.69-1.76c-.56.04-1.09-.03-1.62.1-4.93.96-7.7 4.9-7.57 9.73.1 4.03 1.75 7.44 4.43 10.42 2.94 3.24 6.65 5.46 10.58 7.24.34.14.9.1 1.26-.1 1.82-.99 3.7-1.88 5.43-3.04 4.96-3.28 8.7-7.51 9.3-13.73.36-3.74-.8-7.01-4.08-9.13a9 9 0 0 0-5.07-1.55m-.13 1.38a7.7 7.7 0 0 1 4.97 1.7c2.38 1.88 3.18 4.46 2.91 7.37-.43 4.83-2.97 8.5-6.75 11.31-2.15 1.62-4.53 2.85-6.84 4.2-.23.17-.66.2-.93.07-3.77-1.82-7.31-3.97-10.06-7.21-2.38-2.81-3.73-6.02-3.67-9.43.4-4.4 2.62-7.11 6.29-7.84 2.51-.5 4.83.17 6.85 1.69.72.53 1.22.56 1.98 0a9 9 0 0 1 5.25-1.86M72.8 31.8c-2.84 0-5.46 2.61-5.46 5.72.1.1.33.56.6.6.56.1.66-.37.76-.87.16-.76.4-1.55.8-2.21a3.9 3.9 0 0 1 3.3-1.85c.53-.04 1-.2.83-.8-.07-.26-.53-.6-.83-.6m-15.4 5.87c-.61 0-1.55.55-1.88 1.11-.51.87-.66 8.1-.25 12 .48 4.65.58 4.83 4.57 8.88 2.89 2.94 3.9 4.25 3.88 5.07 0 .19-.28.5-.6.72-.33.2-.77.62-1 .91-.36.5-.39.78-.39 4.76v4.22l.55.7c.3.4.8.88 1.13 1.08.56.34 1 .37 6.38.35 6.23-.01 6.6-.06 7.6-1.01.94-.89 1-1.21.95-5.42-.04-3.77-.06-3.91-.52-4.7a3 3 0 0 0-1.12-1.13l-.65-.3v-2.4c0-3.6-.16-4-2.63-6.51-2.17-2.2-2.77-2.61-4.39-2.96-.97-.2-1.18-.36-3.31-2.47-1.77-1.74-2.46-2.3-3.09-2.48-1.07-.32-1.2-.78-1.35-4.73-.07-1.83-.22-3.3-.35-3.53a4.9 4.9 0 0 0-3.53-2.16m43.74 0c-.66 0-1.9.57-2.48 1.12-1.01.97-1.08 1.24-1.2 4.56-.16 3.96-.29 4.42-1.36 4.74-.63.18-1.31.74-3.08 2.48-2.13 2.1-2.35 2.27-3.32 2.47-1.58.34-2.02.62-4.14 2.7-2.69 2.66-2.75 2.78-2.84 6.3l-.07 2.86-.7.37c-1.3.7-1.48 1.34-1.58 5.46-.05 2 0 3.94.1 4.33.2.84 1.3 2 2.1 2.22.33.1 3.17.18 6.33.2 6.3 0 6.36 0 7.31-1.13.81-.96.92-1.69.85-5.72-.07-4.13-.12-4.34-1.44-5.18-1.23-.79-.7-1.76 3.07-5.6a47 47 0 0 0 3.5-3.81c.71-1.2.96-2.2 1.28-5.25.4-3.88.25-11.15-.26-12.01a2.6 2.6 0 0 0-2.07-1.1M57.53 39.4c.57 0 1.42.48 1.8 1.06.27.43.32.88.28 2.89-.04 1.85.03 2.68.3 3.74.36 1.36.36 1.37-.01 1.7-.88.8-1.17 2.31-.64 3.27a41 41 0 0 0 2.98 3.18c1.86 1.86 2.86 2.72 3.15 2.72.52 0 .9-.63.64-1.1-.1-.18-1.34-1.48-2.76-2.88-2.25-2.24-2.57-2.64-2.57-3.17 0-.8.74-1.35 1.43-1.08.25.1 1.46 1.16 2.7 2.37a20 20 0 0 0 2.6 2.31c.21.06.89.2 1.5.33 1.06.21 1.23.33 3.05 2.1 1.42 1.37 2 2.07 2.15 2.6.12.41.22 1.78.22 3.04v2.3h-8.88l-.13-.61c-.32-1.47-1.11-2.54-4.18-5.65-2.23-2.25-3.2-3.38-3.5-4.04-.6-1.35-.97-5.06-.93-9.42.04-4.75.14-5.57.69-5.65zm44.22.07.12.95a75 75 0 0 1-.1 10.75c-.4 3.44-.52 3.65-4.17 7.35-3.07 3.1-3.87 4.18-4.18 5.65l-.14.61H84.4v-2.32c0-1.28.09-2.63.2-3 .13-.5.73-1.22 2.14-2.6 1.86-1.8 2.02-1.9 3.08-2.12.62-.12 1.34-.3 1.6-.4s1.5-1.2 2.75-2.46c1.4-1.4 2.42-2.26 2.66-2.26.67 0 1.22.53 1.22 1.2 0 .52-.33.93-2.57 3.16a45 45 0 0 0-2.75 2.89c-.26.46.11 1.09.64 1.09.28 0 1.28-.86 3.14-2.72a39 39 0 0 0 2.98-3.18c.54-.96.24-2.47-.64-3.26-.37-.34-.37-.35 0-1.8.31-1.2.37-1.85.29-3.55-.11-2.24.04-2.92.78-3.58a2 2 0 0 1 1.12-.38zM75.72 66.44l.5.5.5.5v7.42l-.53.46-.53.46H64.29l-.47-.46c-.46-.47-.47-.5-.47-4.07 0-1.97.06-3.73.12-3.9.3-.75.93-.84 6.7-.87zm7.32 0 5.54.04c5.77.03 6.41.12 6.7.87.07.17.12 1.93.12 3.9 0 3.57 0 3.6-.47 4.07l-.46.46H83.05l-.58-.57-.57-.57.07-3.6.06-3.6.5-.5zm-17.86 1.12c-.66.04-1.26.57-1.26 1.42 0 .3.17.71.38.92.57.57 1.58.5 2.07-.12.51-.64.5-1.06-.05-1.7a1.4 1.4 0 0 0-1.14-.52m28.4 0a1.4 1.4 0 0 0-1.15.52c-.55.64-.56 1.06-.05 1.7.78 1 2.45.44 2.45-.8 0-.85-.6-1.38-1.25-1.42" style="fill:#d40000;fill-opacity:1;stroke-width:.189615"/><path d="M79.37 10.64A42.3 42.3 0 0 0 37.1 52.92 42.3 42.3 0 0 0 79.37 95.2a42.3 42.3 0 0 0 42.28-42.28 42.3 42.3 0 0 0-42.28-42.28m0 5.97a36.3 36.3 0 0 1 36.3 36.3 36.3 36.3 0 0 1-36.3 36.3 36.3 36.3 0 0 1-36.3-36.3 36.3 36.3 0 0 1 36.3-36.3" style="fill:#d40000;fill-opacity:1;stroke:none;stroke-width:.480959;stroke-linecap:round;stroke-linejoin:round"/></svg>