<svg xmlns="http://www.w3.org/2000/svg" xml:space="preserve" width="600" height="400" viewBox="0 0 158.75 105.83"><path d="M58.51 31.91a1.2 1.2 0 0 0-1.12.52 1.23 1.23 0 0 0 .3 1.72l7.21 5.05 4.27 24.24a5.35 5.35 0 0 0 2.26 10.43 5.35 5.35 0 0 0 4.4-5.79l24.72-4.36a1.23 1.23 0 1 0-.43-2.43L75 65.72a5.4 5.4 0 0 0-3.33-2.32l-4.43-25.13q-.1-.5-.5-.8l-7.63-5.34a1 1 0 0 0-.6-.22m34.64.76a5 5 0 0 0-1.41.02L73.9 35.84a4.5 4.5 0 0 0-3.67 5.24L73.4 58.9a4.5 4.5 0 0 0 5.24 3.67l17.82-3.14a4.5 4.5 0 0 0 3.67-5.24l-3.14-17.83a4.5 4.5 0 0 0-3.83-3.7m-.57 2.42c.96.03 1.8.72 1.97 1.7l3.14 17.83A2.06 2.06 0 0 1 96.02 57L78.2 60.14a2.06 2.06 0 0 1-2.38-1.67l-3.15-17.82a2.06 2.06 0 0 1 1.67-2.38l17.83-3.15zm-.27 6.3-.29.02-7.29 1.3q-1.2.2-1 1.42.21 1.21 1.43 1l7.3-1.28q1.2-.22 1-1.43-.2-1.07-1.15-1.04m1 5.67-.29.03-10.53 1.85q-1.2.22-1 1.43.21 1.22 1.43 1l10.53-1.85q1.22-.22 1-1.43-.18-1.07-1.14-1.03m1 5.67-.29.03-13.77 2.43q-1.21.21-1 1.43.21 1.2 1.43 1l13.77-2.43q1.22-.21 1-1.43-.18-1.06-1.14-1.03m-23.74 13a2.88 2.88 0 0 1 .43 5.7 2.88 2.88 0 1 1-1-5.67 3 3 0 0 1 .57-.04" style="overflow:hidden;fill:#0a66c2;fill-opacity:1;stroke-width:.0514179"/><path d="M79.37 10.64A42.3 42.3 0 0 0 37.1 52.92 42.3 42.3 0 0 0 79.37 95.2a42.3 42.3 0 0 0 42.28-42.28 42.3 42.3 0 0 0-42.28-42.28m0 5.97a36.3 36.3 0 0 1 36.3 36.3 36.3 36.3 0 0 1-36.3 36.3 36.3 36.3 0 0 1-36.3-36.3 36.3 36.3 0 0 1 36.3-36.3" style="fill:#0a66c2;fill-opacity:1;stroke:none;stroke-width:.480959;stroke-linecap:round;stroke-linejoin:round"/></svg>