<?xml version="1.0" encoding="UTF-8" standalone="no"?>
<!-- Created with Inkscape (http://www.inkscape.org/) -->

<svg
   width="600"
   height="400"
   viewBox="0 0 158.75 105.83333"
   version="1.1"
   id="svg4650"
   xml:space="preserve"
   inkscape:version="1.2.2 (732a01da63, 2022-12-09)"
   sodipodi:docname="zaopatrzenie.svg"
   xmlns:inkscape="http://www.inkscape.org/namespaces/inkscape"
   xmlns:sodipodi="http://sodipodi.sourceforge.net/DTD/sodipodi-0.dtd"
   xmlns="http://www.w3.org/2000/svg"
   xmlns:svg="http://www.w3.org/2000/svg"><sodipodi:namedview
     id="namedview4652"
     pagecolor="#ffffff"
     bordercolor="#000000"
     borderopacity="0.25"
     inkscape:showpageshadow="2"
     inkscape:pageopacity="0.0"
     inkscape:pagecheckerboard="0"
     inkscape:deskcolor="#d1d1d1"
     inkscape:document-units="mm"
     showgrid="false"
     inkscape:zoom="0.90434255"
     inkscape:cx="199.59251"
     inkscape:cy="296.90077"
     inkscape:window-width="1920"
     inkscape:window-height="991"
     inkscape:window-x="-9"
     inkscape:window-y="-9"
     inkscape:window-maximized="1"
     inkscape:current-layer="layer1" /><defs
     id="defs4647" /><g
     inkscape:label="Warstwa 1"
     inkscape:groupmode="layer"
     id="layer1"><path
       id="path7389"
       d="m 58.510218,31.913428 a 1.2340311,1.2340311 0 0 0 -1.117739,0.520914 1.2340311,1.2340311 0 0 0 0.302886,1.717676 l 7.205041,5.044992 4.273919,24.23885 a 5.3474683,5.3474683 0 0 0 2.256866,10.430615 5.3474683,5.3474683 0 0 0 4.393022,-5.786934 L 100.55103,63.71956 a 1.2340311,1.2340311 0 1 0 -0.42851,-2.430502 L 74.999315,65.718943 A 5.3474683,5.3474683 0 0 0 71.673521,63.396388 L 67.242336,38.266165 c -0.05686,-0.322462 -0.239382,-0.609418 -0.507854,-0.795977 L 59.11006,32.13156 a 1.2340311,1.2340311 0 0 0 -0.599842,-0.218132 z m 34.644051,0.755504 a 4.5247808,4.5247808 0 0 0 -1.415393,0.02475 l -17.824159,3.142937 a 4.5247808,4.5247808 0 0 0 -3.670359,5.241715 l 3.142927,17.824153 a 4.5247808,4.5247808 0 0 0 5.241716,3.670362 l 17.824157,-3.142926 a 4.5247808,4.5247808 0 0 0 3.670362,-5.241715 L 96.980607,36.364046 a 4.5247808,4.5247808 0 0 0 -3.826338,-3.695061 z m -0.571517,2.424481 c 0.956013,0.02625 1.794842,0.720806 1.967348,1.699102 l 3.142817,17.824162 c 0.19714,1.118053 -0.55022,2.185555 -1.668272,2.3827 l -17.824161,3.14282 c -1.118051,0.197145 -2.185551,-0.550222 -2.382697,-1.668266 L 72.674963,40.64976 c -0.197145,-1.118044 0.550219,-2.185547 1.66827,-2.382691 L 92.167397,35.12424 c 0.139748,-0.02466 0.278785,-0.03458 0.415355,-0.03081 z m -0.270946,6.290258 c -0.09085,0.0026 -0.186954,0.01343 -0.288221,0.03125 l -7.291713,1.285748 c -0.810185,0.142856 -1.143798,0.619381 -1.000942,1.429561 0.142856,0.810188 0.619369,1.143902 1.429561,1.001047 l 7.291712,-1.285748 c 0.810188,-0.142864 1.1438,-0.619372 1.000945,-1.42956 -0.125001,-0.708913 -0.505415,-1.053037 -1.141342,-1.032279 z m 0.999942,5.671342 c -0.09085,0.0026 -0.186849,0.01343 -0.288124,0.03125 l -10.532448,1.857178 c -0.810191,0.142864 -1.1439,0.619381 -1.001044,1.429569 0.142856,0.810188 0.619369,1.143797 1.429561,1.000942 L 93.452139,49.51688 c 0.810188,-0.142864 1.143903,-0.619372 1.001047,-1.429569 -0.125001,-0.708904 -0.505518,-1.053037 -1.141438,-1.03227 z m 1.000032,5.671351 c -0.09085,0.0026 -0.186936,0.01343 -0.288221,0.03125 L 80.250378,55.18623 c -0.810184,0.142855 -1.143804,0.619372 -1.000948,1.42956 0.142856,0.810188 0.619376,1.143797 1.42956,1.000942 l 13.773196,-2.428598 c 0.810179,-0.142855 1.143797,-0.619372 1.000933,-1.42956 C 95.328127,53.049669 94.947706,52.70564 94.31178,52.726399 Z M 70.565421,65.721542 a 2.8794059,2.8794059 0 0 1 0.437253,5.714334 2.8794059,2.8794059 0 1 1 -1.000036,-5.671245 2.8794059,2.8794059 0 0 1 0.562783,-0.04301 z"
       style="overflow:hidden;fill:#0a66c2;fill-opacity:1;stroke-width:0.0514179" /><path
       id="path1495"
       style="fill:#0a66c2;fill-opacity:1;stroke:none;stroke-width:0.480959;stroke-linecap:round;stroke-linejoin:round"
       d="M 79.374997,10.638109 A 42.278454,42.278681 0 0 0 37.096443,52.917189 42.278454,42.278681 0 0 0 79.374997,95.195225 42.278454,42.278681 0 0 0 121.65356,52.916669 42.278454,42.278681 0 0 0 79.374997,10.638109 Z m 0,5.97638 A 36.302353,36.302353 0 0 1 115.67718,52.916669 36.302353,36.302353 0 0 1 79.374997,89.218845 36.302353,36.302353 0 0 1 43.072822,52.916669 36.302353,36.302353 0 0 1 79.374997,16.614489 Z" /></g></svg>
